<?xml version="1.0" standalone="no"?>
<!DOCTYPE svg PUBLIC "-//W3C//DTD SVG 1.1//EN" "http://www.w3.org/Graphics/SVG/1.1/DTD/svg11.dtd" >
<svg xmlns="http://www.w3.org/2000/svg" xmlns:xlink="http://www.w3.org/1999/xlink" version="1.1">
<metadata>
Created by FontForge 20170731 at Fri Mar 10 17:47:24 2023
 By Aleksey,,,
Copyright 2020 The Poltawski Nowy Project Authors (https://github.com/kosmynkab/Poltawski-Nowy)
</metadata>
<defs>
<font id="PoltawskiNowy-Regular" horiz-adv-x="0" >
  <font-face 
    font-family="Poltawski Nowy"
    font-weight="400"
    font-stretch="normal"
    units-per-em="1000"
    panose-1="0 0 0 0 0 0 0 0 0 0"
    ascent="800"
    descent="-200"
    x-height="440"
    cap-height="702"
    bbox="-204 -362 1370 1098"
    underline-thickness="50"
    underline-position="-175"
    unicode-range="U+0020-FB02"
  />
<missing-glyph horiz-adv-x="600" 
d="M90 0v700h420v-700h-420zM158 45h307v569zM135 95l301 560h-301v-560z" />
    <glyph glyph-name="fi" unicode="fi" horiz-adv-x="649" 
d="M336 601h-95q4 38 -3.5 59t-27.5 21t-32.5 -20t-12.5 -67q0 -42 11 -83.5t20 -70.5l5 -40v-220q0 -37 2.5 -72t7.5 -73h87q4 -18 0 -37q-53 2 -84 2h-60h-56.5t-58.5 -2q-4 19 0 37h57q5 38 7.5 73t2.5 72v80q0 35 -0.5 72.5t-5.5 87.5q-10 107 0 173t41.5 96.5
t83.5 30.5q68 0 90 -32.5t21 -86.5zM316 400h-280q-3 20 0 40h280q3 -20 0 -40zM620 35q4 -18 0 -37q-34 2 -62 2h-57h-57t-63 -2q-4 19 0 37h62q5 38 7.5 73t2.5 72v80q0 72 -10 143h-57q-4 19 0 37q39 0 85 2.5t92 10.5q-6 -25 -9 -60.5t-4.5 -71.5t-1.5 -61v-80
q0 -37 2.5 -72t7.5 -73h62zM501 670l55 -30v-65l-55 -30l-55 30v65z" />
    <glyph glyph-name="fl" unicode="fl" horiz-adv-x="637" 
d="M336 601h-95q4 38 -3.5 59t-27.5 21t-32.5 -20t-12.5 -67q0 -42 11 -83.5t20 -70.5l5 -40v-220q0 -37 2.5 -72t7.5 -73h87q4 -18 0 -37q-53 2 -84 2h-60h-56.5t-58.5 -2q-4 19 0 37h57q5 38 7.5 73t2.5 72v80q0 35 -0.5 72.5t-5.5 87.5q-10 107 0 173t41.5 96.5
t83.5 30.5q68 0 90 -32.5t21 -86.5zM316 400h-280q-3 20 0 40h280q3 -20 0 -40zM606 35q4 -18 0 -37q-31 2 -58 2h-56h-56.5t-58.5 -2q-4 19 0 37h57q5 38 7.5 73t2.5 72v340q0 72 -10 143h-57q-4 19 0 37q35 0 83 2.5t94 10.5q-6 -25 -9 -60.5t-4.5 -71.5t-1.5 -61v-340
q0 -37 2.5 -72t7.5 -73h57z" />
    <glyph glyph-name="f_f" unicode="ff" horiz-adv-x="692" 
d="M336 601h-95q4 38 -3.5 59t-27.5 21t-32.5 -20t-12.5 -67q0 -42 11 -83.5t20 -70.5l5 -40v-220q0 -37 2.5 -72t7.5 -73h87q4 -18 0 -37q-53 2 -84 2h-60h-56.5t-58.5 -2q-4 19 0 37h57q5 38 7.5 73t2.5 72v80q0 35 -0.5 72.5t-5.5 87.5q-10 107 0 173t41.5 96.5
t83.5 30.5q68 0 90 -32.5t21 -86.5zM316 400h-280q-3 20 0 40h280q3 -20 0 -40zM682 601h-95q4 38 -3.5 59t-27.5 21t-32.5 -20t-12.5 -67q0 -42 11 -83.5t20 -70.5l5 -40v-220q0 -37 2.5 -72t7.5 -73h87q4 -18 0 -37q-53 2 -84 2h-60h-56.5t-58.5 -2q-4 19 0 37h57
q5 38 7.5 73t2.5 72v80q0 35 -0.5 72.5t-5.5 87.5q-10 107 0 173t41.5 96.5t83.5 30.5q68 0 90 -32.5t21 -86.5zM662 400h-280q-3 20 0 40h280q3 -20 0 -40z" />
    <glyph glyph-name="f_f_i" unicode="ffi" horiz-adv-x="995" 
d="M336 601h-95q4 38 -3.5 59t-27.5 21t-32.5 -20t-12.5 -67q0 -42 11 -83.5t20 -70.5l5 -40v-220q0 -37 2.5 -72t7.5 -73h87q4 -18 0 -37q-53 2 -84 2h-60h-56.5t-58.5 -2q-4 19 0 37h57q5 38 7.5 73t2.5 72v80q0 35 -0.5 72.5t-5.5 87.5q-10 107 0 173t41.5 96.5
t83.5 30.5q68 0 90 -32.5t21 -86.5zM316 400h-280q-3 20 0 40h280q3 -20 0 -40zM682 601h-95q4 38 -3.5 59t-27.5 21t-32.5 -20t-12.5 -67q0 -42 11 -83.5t20 -70.5l5 -40v-220q0 -37 2.5 -72t7.5 -73h87q4 -18 0 -37q-53 2 -84 2h-60h-56.5t-58.5 -2q-4 19 0 37h57
q5 38 7.5 73t2.5 72v80q0 35 -0.5 72.5t-5.5 87.5q-10 107 0 173t41.5 96.5t83.5 30.5q68 0 90 -32.5t21 -86.5zM662 400h-280q-3 20 0 40h280q3 -20 0 -40zM966 35q4 -18 0 -37q-34 2 -62 2h-57h-57t-63 -2q-4 19 0 37h62q5 38 7.5 73t2.5 72v80q0 72 -10 143h-57
q-4 19 0 37q39 0 85 2.5t92 10.5q-6 -25 -9 -60.5t-4.5 -71.5t-1.5 -61v-80q0 -37 2.5 -72t7.5 -73h62zM847 670l55 -30v-65l-55 -30l-55 30v65z" />
    <glyph glyph-name="f_f_l" unicode="ffl" horiz-adv-x="983" 
d="M336 601h-95q4 38 -3.5 59t-27.5 21t-32.5 -20t-12.5 -67q0 -42 11 -83.5t20 -70.5l5 -40v-220q0 -37 2.5 -72t7.5 -73h87q4 -18 0 -37q-53 2 -84 2h-60h-56.5t-58.5 -2q-4 19 0 37h57q5 38 7.5 73t2.5 72v80q0 35 -0.5 72.5t-5.5 87.5q-10 107 0 173t41.5 96.5
t83.5 30.5q68 0 90 -32.5t21 -86.5zM316 400h-280q-3 20 0 40h280q3 -20 0 -40zM682 601h-95q4 38 -3.5 59t-27.5 21t-32.5 -20t-12.5 -67q0 -42 11 -83.5t20 -70.5l5 -40v-220q0 -37 2.5 -72t7.5 -73h87q4 -18 0 -37q-53 2 -84 2h-60h-56.5t-58.5 -2q-4 19 0 37h57
q5 38 7.5 73t2.5 72v80q0 35 -0.5 72.5t-5.5 87.5q-10 107 0 173t41.5 96.5t83.5 30.5q68 0 90 -32.5t21 -86.5zM662 400h-280q-3 20 0 40h280q3 -20 0 -40zM952 35q4 -18 0 -37q-31 2 -58 2h-56h-56.5t-58.5 -2q-4 19 0 37h57q5 38 7.5 73t2.5 72v340q0 72 -10 143h-57
q-4 19 0 37q35 0 83 2.5t94 10.5q-6 -25 -9 -60.5t-4.5 -71.5t-1.5 -61v-340q0 -37 2.5 -72t7.5 -73h57z" />
    <glyph glyph-name=".notdef" horiz-adv-x="600" 
d="M90 0v700h420v-700h-420zM158 45h307v569zM135 95l301 560h-301v-560z" />
    <glyph glyph-name=".null" 
 />
    <glyph glyph-name="nonmarkingreturn" horiz-adv-x="333" 
 />
    <glyph glyph-name="space" unicode=" " horiz-adv-x="220" 
 />
    <glyph glyph-name="exclam" unicode="!" horiz-adv-x="272" 
d="M136 715l57 -36v-69l-39 -439q-18 -3 -36 0l-39 439v69zM136 110l55 -30v-65l-55 -30l-55 30v65z" />
    <glyph glyph-name="quotedbl" unicode="&#x22;" horiz-adv-x="337" 
d="M50 707l48 30l49 -30v-55q-8 -27 -14.5 -54.5t-11.5 -55t-8 -55.5q-15 -3 -30 0q-3 28 -7.5 55.5t-11 55t-14.5 54.5v55zM190 707l48 30l49 -30v-55q-8 -27 -14.5 -54.5t-11.5 -55t-8 -55.5q-15 -3 -30 0q-3 28 -7.5 55.5t-11 55t-14.5 54.5v55z" />
    <glyph glyph-name="numbersign" unicode="#" horiz-adv-x="690" 
d="M307 700l-124 -700q-27 -3 -55 0l124 700q28 3 55 0zM562 700l-124 -700q-27 -3 -55 0l124 700q28 3 55 0zM650 509q2 -9 2 -24.5t-2 -25.5h-572q-1 10 -1 25.5t1 24.5h572zM611 261q2 -9 2 -24.5t-2 -25.5h-572q-1 10 -1 25.5t1 24.5h572z" />
    <glyph glyph-name="dollar" unicode="$" horiz-adv-x="580" 
d="M207 -125l98 935q11 0 22.5 -1t22.5 -4l-98 -935q-11 0 -22.5 1t-22.5 4zM259 -14q-52 0 -105.5 13t-99.5 36v180q16 3 32 0q5 -54 31 -96.5t68.5 -67.5t94.5 -25q72 0 115.5 34.5t43.5 95.5q0 38 -20 63t-53.5 42.5t-73 32t-79 31.5t-73 41.5t-53.5 61t-20 91.5
q0 62 27.5 105.5t79.5 66.5t124 23q64 0 108 -13t77 -34v-157q-16 -3 -32 0q-7 71 -49 117.5t-112 46.5q-63 0 -100.5 -28.5t-37.5 -78.5q0 -41 20.5 -67.5t55 -45t75 -33.5t81 -32.5t75 -42t55 -61.5t20.5 -93q0 -61 -34.5 -107.5t-96 -72.5t-144.5 -26z" />
    <glyph glyph-name="percent" unicode="%" horiz-adv-x="781" 
d="M669 700l-484 -700q-29 -3 -58 0l484 700q29 3 58 0zM351 532q0 -84 -41 -133t-117 -49t-117.5 48.5t-41.5 133.5t41.5 134t117.5 49t117 -49.5t41 -133.5zM265 532q0 82 -17.5 116.5t-54.5 34.5t-55 -35t-18 -116t18 -115.5t55 -34.5t54.5 34t17.5 116zM746 165
q0 -84 -41 -133t-117 -49t-117.5 48.5t-41.5 133.5t41.5 134t117.5 49t117 -49.5t41 -133.5zM660 165q0 82 -17.5 116.5t-54.5 34.5t-55 -35t-18 -116t18 -115.5t55 -34.5t54.5 34t17.5 116z" />
    <glyph glyph-name="ampersand" unicode="&#x26;" horiz-adv-x="727" 
d="M685 -2q-67 -10 -107.5 -6.5t-68.5 24t-60 61.5l-214 276q-33 43 -52.5 74t-28 60.5t-8.5 64.5q0 41 20.5 78.5t62.5 61.5t105 24q80 0 125.5 -38.5t45.5 -106.5q0 -39 -19.5 -72.5t-59.5 -61.5t-102 -52l-19 29q62 32 83.5 74.5t21.5 83.5q0 47 -20 75.5t-58 28.5
q-37 0 -62 -27t-24 -81q1 -41 25 -81t62 -89l185 -238q35 -45 59.5 -70.5t42.5 -37t33.5 -14.5t31.5 -3q4 -18 0 -37zM287 -14q-63 0 -116.5 19.5t-86 59.5t-32.5 101q0 51 22.5 93t67 75.5t109.5 59.5l18 -25q-65 -34 -85.5 -76t-21.5 -90q-1 -82 45 -124.5t119 -42.5
t131 35.5t92 94t34 127.5q0 28 -10.5 56t-31.5 56h-47q-4 19 0 37q32 -1 60.5 -1.5t44.5 -0.5q22 0 47 0.5t50 1.5q4 -18 0 -37h-60q-6 -28 -7 -54.5t-1 -57.5q0 -58 -24.5 -113t-69.5 -98.5t-107.5 -69.5t-139.5 -26z" />
    <glyph glyph-name="quotesingle" unicode="'" horiz-adv-x="197" 
d="M50 707l48 30l49 -30v-55q-8 -27 -14.5 -54.5t-11.5 -55t-8 -55.5q-15 -3 -30 0q-3 28 -7.5 55.5t-11 55t-14.5 54.5v55z" />
    <glyph glyph-name="parenleft" unicode="(" horiz-adv-x="348" 
d="M341 785q-75 -56 -118.5 -125.5t-62 -153.5t-18.5 -186t18.5 -186.5t62 -153t118.5 -125.5q-4 -8 -9 -15.5t-10 -14.5q-129 72 -202 193.5t-73 301.5q0 179 73 301t202 194q5 -7 10 -14.5t9 -15.5z" />
    <glyph glyph-name="parenright" unicode=")" horiz-adv-x="348" 
d="M7 -145q75 57 118.5 126t62 153.5t18.5 185.5q0 103 -18.5 187t-62 153t-118.5 125q4 8 9 15.5t10 14.5q129 -72 202 -193.5t73 -301.5q0 -178 -73 -300.5t-202 -194.5q-5 7 -10 14.5t-9 15.5z" />
    <glyph glyph-name="asterisk" unicode="*" horiz-adv-x="518" 
d="M477 647l-15 -48l-198 -31l-6 17l180 91zM41 647l40 29l179 -91l-5 -17l-199 31zM259 803l40 -29l-32 -199h-17l-32 199zM393 392h-49l-92 179l14 11l143 -143zM125 393l-16 47l143 142l14 -10l-92 -180z" />
    <glyph glyph-name="plus" unicode="+" horiz-adv-x="620" 
d="M550 340h-480q-4 25 0 50h480q4 -25 0 -50zM285 125v480q25 4 50 0v-480q-25 -4 -50 0z" />
    <glyph glyph-name="comma" unicode="," horiz-adv-x="230" 
d="M115 110l55 -30v-35q0 -33 -11 -64t-31.5 -59.5t-49.5 -52.5q-9 5 -15 11t-11 15q25 23 39.5 46t19.5 48l-51 26v65z" />
    <glyph glyph-name="hyphen" unicode="-" horiz-adv-x="418" 
d="M349 235h-280q-1 9 -1.5 19.5t0 21.5t1.5 19h280q2 -8 2.5 -19t0 -21.5t-2.5 -19.5z" />
    <glyph glyph-name="period" unicode="." horiz-adv-x="224" 
d="M112 110l55 -30v-65l-55 -30l-55 30v65z" />
    <glyph glyph-name="slash" unicode="/" horiz-adv-x="362" 
d="M328 730l-244 -850q-25 -3 -50 0l244 850q25 3 50 0z" />
    <glyph glyph-name="zero" unicode="0" horiz-adv-x="620" 
d="M560 350q0 -120 -31.5 -201t-87.5 -122.5t-131 -41.5t-131 41.5t-87.5 122.5t-31.5 201t31.5 201t87.5 122.5t131 41.5t131 -41.5t87.5 -122.5t31.5 -201zM445 350q0 167 -33.5 246t-101.5 79t-101.5 -79t-33.5 -246t33.5 -246t101.5 -79t101.5 79t33.5 246z" />
    <glyph glyph-name="one" unicode="1" horiz-adv-x="397" 
d="M154 350v160q0 22 -1 44t-3 46h-105q-4 19 0 37q38 0 75 12.5t70 34t58 47.5q6 -2 14.5 -6.5t12.5 -7.5q-7 -48 -9 -96.5t-2 -80.5v-190h-110zM209 0h-70.5t-86.5 -2q-4 19 0 37h92q5 45 7.5 87.5t2.5 87.5v140h55v-350zM209 0v350h55v-140q0 -45 2.5 -87.5t7.5 -87.5h92
q4 -18 0 -37q-49 2 -85.5 2h-71.5z" />
    <glyph glyph-name="two" unicode="2" horiz-adv-x="566" 
d="M491 0h-338h-52.5t-54.5 -2q-3 24 0 48l212 209q44 43 68.5 85.5t34.5 85.5t10 87q0 83 -26.5 122.5t-74.5 39.5q-49 0 -74 -36.5t-25 -96.5q0 -19 2 -36t6 -31h-110q-4 15 -6 29.5t-2 29.5q0 52 26 92.5t73 64.5t110 24q98 0 157 -46.5t59 -139.5q0 -59 -26.5 -109.5
t-70 -97t-94.5 -93.5l-152 -139l253 5q38 1 62 21.5t28 57.5q16 4 32 0z" />
    <glyph glyph-name="three" unicode="3" horiz-adv-x="573" 
d="M518 192q0 -70 -33.5 -116t-88.5 -68.5t-121 -22.5q-75 0 -126.5 26t-76.5 69t-23 93h115q0 -71 26 -109.5t85 -38.5q52 0 79.5 25t38 62.5t10.5 73.5q0 81 -35.5 123t-99.5 42q-34 0 -58.5 -2.5t-50.5 -7.5q-4 24 0 48h75q42 0 69 11.5t42 31.5t21 47t6 57
q0 72 -25 105.5t-75 33.5q-40 0 -62.5 -19.5t-31.5 -49t-9 -60.5h-105q-2 41 20.5 80t70 64t118.5 25q70 0 116.5 -24t69.5 -64t23 -89q0 -51 -26 -96t-90 -66q41 -6 75.5 -28.5t55.5 -61t21 -94.5z" />
    <glyph glyph-name="four" unicode="4" horiz-adv-x="597" 
d="M538 35q4 -18 0 -37q-49 2 -85.5 2h-68.5h-68t-86 -2q-4 19 0 37h92q5 45 7.5 87.5t2.5 87.5v351l-236 -310h472q-3 -17 -9.5 -39.5t-15.5 -35.5h-520q-3 12 -4 23.5t-1 23.5q21 21 37.5 44t32.5 44l229 299q17 22 38 54.5t32 55.5q10 2 20 2.5t20 0t20 -2.5
q-4 -32 -6.5 -70.5t-3.5 -73t-1 -56.5v-310q0 -45 2.5 -87.5t7.5 -87.5h92z" />
    <glyph glyph-name="five" unicode="5" horiz-adv-x="557" 
d="M449 728q16 4 32 0l-7 -83q-2 -24 -22 -34.5t-43 -10.5h-269l-9 -203q26 20 61.5 31.5t88.5 11.5q70 0 121 -28.5t78.5 -79.5t27.5 -121q0 -102 -61.5 -164t-175.5 -62q-75 0 -125.5 26t-74.5 69t-22 93h115q0 -71 28 -109.5t83 -38.5q61 0 89.5 45t28.5 136
q0 102 -32 146.5t-102 44.5q-49 0 -84 -18.5t-55 -48.5q-18 -5 -37 0l12 270q1 25 1.5 50t-1.5 50h314q33 0 40 28z" />
    <glyph glyph-name="six" unicode="6" horiz-adv-x="576" 
d="M58 290q0 89 24 165t74 133t128 89t185 32q3 -22 0 -45q-106 0 -170.5 -39t-94 -105t-31.5 -147q21 32 59.5 49.5t89.5 17.5q58 0 106 -25.5t77 -74.5t29 -121q0 -71 -29 -124t-81.5 -81.5t-124.5 -28.5t-126 31.5t-84.5 99t-30.5 174.5zM173 214q0 -90 32.5 -139.5
t90.5 -49.5t90.5 48.5t32.5 136.5q0 89 -32.5 137.5t-90.5 48.5t-90.5 -47.5t-32.5 -134.5z" />
    <glyph glyph-name="seven" unicode="7" horiz-adv-x="492" 
d="M231 -15l-61 33v49q0 54 19.5 101t43.5 96l167 337h-277q-32 0 -43 -24.5t-19 -56.5q-16 -4 -32 0l21 180h303q27 0 52.5 0.5t54.5 1.5q10 -22 15 -46l-205 -415q-14 -28 -21.5 -55.5t-2.5 -50t28 -35.5l18 -10v-72z" />
    <glyph glyph-name="eight" unicode="8" horiz-adv-x="590" 
d="M535 186q0 -95 -63.5 -148t-176.5 -53q-112 0 -176 53t-64 148q0 74 41 124t113 68q-33 9 -61 30.5t-44.5 54.5t-16.5 76q0 86 58.5 131t149.5 45q61 0 107.5 -20.5t73.5 -60t27 -95.5q0 -43 -16.5 -75.5t-44 -54t-61.5 -31.5q72 -18 113 -68t41 -124zM398 534
q0 71 -31 107t-72 36t-72 -36t-31 -107q0 -70 31 -106t72 -36t72 36t31 106zM420 190q0 77 -33 123.5t-92 46.5q-58 0 -91.5 -46.5t-33.5 -123.5q0 -76 33.5 -121.5t91.5 -45.5q59 0 92 45.5t33 121.5z" />
    <glyph glyph-name="nine" unicode="9" horiz-adv-x="576" 
d="M518 410q0 -88 -24 -164.5t-74 -133.5t-128 -89t-185 -32q-3 23 0 45q107 0 171.5 39t94 105t30.5 147q-21 -31 -59.5 -49t-89.5 -18q-57 0 -105.5 25.5t-77.5 75t-29 120.5q0 72 29 124.5t81.5 81t124.5 28.5t126.5 -31.5t84.5 -98.5t30 -175zM403 486q0 90 -32.5 139.5
t-90.5 49.5t-90.5 -48t-32.5 -137q0 -88 32.5 -137t90.5 -49t90.5 47.5t32.5 134.5z" />
    <glyph glyph-name="colon" unicode=":" horiz-adv-x="244" 
d="M122 110l55 -30v-65l-55 -30l-55 30v65zM122 455l55 -30v-65l-55 -30l-55 30v65z" />
    <glyph glyph-name="semicolon" unicode=";" horiz-adv-x="257" 
d="M127 455l55 -30v-65l-55 -30l-55 30v65zM130 110l55 -30v-35q0 -33 -11 -64t-31.5 -59.5t-49.5 -52.5q-9 5 -15 11t-11 15q25 23 39.5 46t19.5 48l-51 26v65z" />
    <glyph glyph-name="less" unicode="&#x3c;" horiz-adv-x="620" 
d="M59 410l471 181q12 -21 17 -47l-427 -159l427 -159q-5 -26 -17 -47l-471 181q-4 25 0 50z" />
    <glyph glyph-name="equal" unicode="=" horiz-adv-x="620" 
d="M550 440h-480q-4 25 0 50h480q4 -25 0 -50zM550 240h-480q-4 25 0 50h480q4 -25 0 -50z" />
    <glyph glyph-name="greater" unicode="&#x3e;" horiz-adv-x="620" 
d="M561 410q4 -25 0 -50l-471 -181q-12 21 -17 47l427 159l-427 159q5 26 17 47z" />
    <glyph glyph-name="question" unicode="?" horiz-adv-x="484" 
d="M237 675q-43 0 -68.5 -33.5t-25.5 -89.5q0 -22 2 -41t6 -36h-110q-4 17 -6 34.5t-2 34.5q0 49 25.5 87.5t72 61t107.5 22.5q58 0 106.5 -17t78 -53t29.5 -93q0 -43 -15 -73.5t-38.5 -54t-50.5 -46.5t-50.5 -50.5t-38.5 -65t-15 -91.5q-18 -3 -36 0q0 68 12.5 111.5
t31 73.5t37 56.5t31 58.5t12.5 81q0 65 -30 94t-65 29zM227 110l55 -30v-65l-55 -30l-55 30v65z" />
    <glyph glyph-name="at" unicode="@" horiz-adv-x="901" 
d="M659 7l19 43q25 0 54.5 24.5t51 70.5t21.5 112q0 85 -41 149t-118 100.5t-185 36.5q-106 0 -189.5 -40.5t-131.5 -117t-48 -184.5q0 -107 47 -184.5t128.5 -118.5t184.5 -41q73 0 129 16.5t111 48.5q5 -8 9.5 -14.5t8.5 -16.5q-55 -36 -116.5 -56t-141.5 -20
q-116 0 -207.5 47t-144.5 133.5t-53 205.5q0 89 31 160t87 121t131.5 76.5t164.5 26.5q120 0 207.5 -42t134.5 -116t47 -170q0 -78 -28.5 -134t-72 -86t-90.5 -30zM678 50l-19 -43q-58 0 -80.5 16t-35.5 45q-18 -27 -46 -44t-72 -17q-48 0 -87 21.5t-62 65.5t-23 109
q0 99 55 153t144 54q44 0 73.5 -10.5t51.5 -27.5l30 25q14 3 27 0q-3 -22 -4.5 -51t-2.5 -56.5t-1 -46.5v-119q0 -38 11 -56t41 -18zM446 46q31 0 52.5 18.5t40.5 49.5v164q0 40 -14 59.5t-34 26.5t-37 7q-51 0 -78 -39t-27 -120q0 -84 27 -125t70 -41z" />
    <glyph glyph-name="A" unicode="A" horiz-adv-x="681" 
d="M-4 -2q-4 19 0 37h57q23 45 40.5 87.5t34.5 87.5l120 309q10 26 23 59.5t25 70.5t17 71q10 2 20 2.5t20 0t20 -2.5l-66 -170l-132 -340q-17 -45 -27 -87.5t-14 -87.5h81q4 -18 0 -37q-41 2 -73.5 2h-49.5h-39.5t-56.5 -2zM623 35h54q4 -18 0 -37q-23 1 -42.5 1.5
t-38.5 0.5h-42h-70.5t-70.5 -2q-4 19 0 37h69q-8 45 -20 87.5t-29 87.5l-126 340l66 170q8 -51 25.5 -99.5t43.5 -120.5l107 -290q17 -45 35 -87.5t39 -87.5zM438 235h-260v40h260v-40z" />
    <glyph glyph-name="B" unicode="B" horiz-adv-x="674" 
d="M412 370q38 -4 75.5 -14t69.5 -29.5t51 -50.5t19 -76q0 -64 -36.5 -108.5t-98.5 -68t-140 -23.5h-170h-68t-69 -2q-4 19 0 37h72q5 45 7.5 87.5t2.5 87.5v280q0 45 -2.5 87.5t-7.5 87.5h-72q-4 19 0 37q35 -1 69 -1.5t68 -0.5h150q68 0 124.5 -17.5t91 -53.5t34.5 -94
q0 -51 -26 -86t-65 -54.5t-79 -24.5zM247 40h115q68 0 104 44.5t36 108.5q0 43 -16 77t-51 54.5t-93 20.5h-160v40h160q53 0 86.5 38.5t33.5 99.5q0 60 -34.5 98.5t-105.5 38.5h-75q-5 -45 -7.5 -82.5t-2.5 -82.5v-285q0 -45 2.5 -85t7.5 -85z" />
    <glyph glyph-name="C" unicode="C" horiz-adv-x="696" 
d="M609 210q16 3 32 0v-176q-35 -19 -93.5 -34t-135.5 -15q-112 0 -193 46t-124 128t-43 191t44.5 191t127.5 128t198 46q69 0 122 -14t87 -31v-175q-16 -3 -32 0q-15 95 -60.5 136.5t-122.5 41.5q-65 0 -110.5 -25t-74 -68.5t-41.5 -100t-13 -119.5t12.5 -122.5t39.5 -107
t72 -75.5t111 -28q49 0 91 19.5t70.5 60t35.5 103.5z" />
    <glyph glyph-name="D" unicode="D" horiz-adv-x="785" 
d="M182 700h195q108 0 187.5 -38.5t123.5 -113t44 -183.5t-45 -191t-125 -128t-185 -46h-195h-68t-69 -2q-4 19 0 37h72q5 45 7.5 87.5t2.5 87.5v280q0 45 -2.5 87.5t-7.5 87.5h-72q-4 19 0 37q35 -1 69 -1.5t68 -0.5zM247 40h140q75 0 124 40.5t73 110.5t24 159
q0 67 -13 123.5t-41.5 98.5t-74.5 65t-112 23h-120q-5 -45 -7.5 -85t-2.5 -85v-280q0 -45 2.5 -85t7.5 -85z" />
    <glyph glyph-name="E" unicode="E" horiz-adv-x="614" 
d="M45 -2q-4 19 0 37h72q5 45 7.5 87.5t2.5 87.5v280q0 45 -2.5 87.5t-7.5 87.5h-72q-4 19 0 37q35 -1 69 -1.5t68 -0.5h350v-185q-16 -3 -32 0q-4 75 -33 110t-107 35h-113q-5 -45 -7.5 -85t-2.5 -85v-280q0 -45 2.5 -85t7.5 -85h148q52 0 81.5 17.5t43 50t15.5 77.5
q16 3 32 0v-185h-385h-68t-69 -2zM435 260q-1 47 -14.5 63.5t-48.5 16.5h-190v40h190q35 0 48.5 17t14.5 63q16 3 32 0v-200q-16 -3 -32 0z" />
    <glyph glyph-name="F" unicode="F" horiz-adv-x="567" 
d="M45 -2q-4 19 0 37h72q5 45 7.5 87.5t2.5 87.5v280q0 45 -2.5 87.5t-7.5 87.5h-72q-4 19 0 37q35 -1 69 -1.5t68 -0.5h345v-180q-16 -3 -32 0q-4 75 -33 107.5t-107 32.5h-108q-5 -45 -7.5 -85t-2.5 -85v-280q0 -45 2.5 -87.5t7.5 -87.5h92q4 -18 0 -37q-49 2 -85.5 2
h-71.5h-68t-69 -2zM443 250q-1 47 -14.5 63.5t-48.5 16.5h-198v40h198q35 0 48.5 17t14.5 63q16 3 32 0v-200q-16 -3 -32 0z" />
    <glyph glyph-name="G" unicode="G" horiz-adv-x="759" 
d="M728 302q4 -18 0 -37h-52q-5 -45 -7.5 -98.5t-2.5 -126.5q-30 -16 -67.5 -28.5t-81.5 -19.5t-95 -7q-112 0 -195.5 46t-129 128t-45.5 191t47 191t132.5 128t200.5 46q77 0 131 -14t88 -31v-165q-16 -3 -32 0q-15 88 -61.5 128t-131.5 40q-87 0 -142 -43.5t-81 -114.5
t-26 -155q0 -63 14 -122.5t43 -107t75.5 -75.5t112.5 -28q35 0 76 10.5t68 29.5q0 53 -2.5 103t-7.5 95h-82q-4 19 0 37q35 -1 72.5 -1.5t64.5 -0.5q35 0 59 0.5t58 1.5z" />
    <glyph glyph-name="H" unicode="H" horiz-adv-x="814" 
d="M495 -2q-4 19 0 37h72q5 45 7.5 87.5t2.5 87.5v280q0 45 -2.5 87.5t-7.5 87.5h-72q-4 19 0 37q35 -1 69 -1.5t68 -0.5q35 0 69 0.5t68 1.5q4 -18 0 -37h-72q-5 -45 -7.5 -87.5t-2.5 -87.5v-280q0 -45 2.5 -87.5t7.5 -87.5h72q4 -18 0 -37q-34 2 -68 2h-69h-68t-69 -2z
M45 -2q-4 19 0 37h72q5 45 7.5 87.5t2.5 87.5v280q0 45 -2.5 87.5t-7.5 87.5h-72q-4 19 0 37q35 -1 69 -1.5t68 -0.5q35 0 69 0.5t68 1.5q4 -18 0 -37h-72q-5 -45 -7.5 -87.5t-2.5 -87.5v-280q0 -45 2.5 -87.5t7.5 -87.5h72q4 -18 0 -37q-34 2 -68 2h-69h-68t-69 -2z
M165 350v40h444v-40h-444z" />
    <glyph glyph-name="I" unicode="I" horiz-adv-x="364" 
d="M45 -2q-4 19 0 37h72q5 45 7.5 87.5t2.5 87.5v280q0 45 -2.5 87.5t-7.5 87.5h-72q-4 19 0 37q35 -1 69 -1.5t68 -0.5q35 0 69 0.5t68 1.5q4 -18 0 -37h-72q-5 -45 -7.5 -87.5t-2.5 -87.5v-280q0 -45 2.5 -87.5t7.5 -87.5h72q4 -18 0 -37q-34 2 -68 2h-69h-68t-69 -2z" />
    <glyph glyph-name="J" unicode="J" horiz-adv-x="459" 
d="M177 -15q-49 0 -85 15.5t-55 51t-19 93.5h105q0 -69 11.5 -97t42.5 -28q28 0 42 28t14 97v345q0 45 -2.5 87.5t-7.5 87.5h-92q-4 19 0 37q50 -1 86.5 -1.5t70.5 -0.5q35 0 69 0.5t68 1.5q4 -18 0 -37h-72q-5 -45 -7.5 -87.5t-2.5 -87.5v-345q0 -41 -11.5 -71.5t-33.5 -50
t-52.5 -29t-68.5 -9.5z" />
    <glyph glyph-name="K" unicode="K" horiz-adv-x="704" 
d="M45 -2q-4 19 0 37h72q5 45 7.5 87.5t2.5 87.5v280q0 45 -2.5 87.5t-7.5 87.5h-72q-4 19 0 37q35 -1 69 -1.5t68 -0.5q35 0 69 0.5t68 1.5q4 -18 0 -37h-72q-5 -45 -7.5 -87.5t-2.5 -87.5v-280q0 -45 2.5 -87.5t7.5 -87.5h72q4 -18 0 -37q-34 2 -68 2h-69h-68t-69 -2z
M601 -10q-40 0 -62 13t-34.5 39t-22.5 65l-35 136q-9 35 -22.5 58.5t-39.5 36t-74 12.5h-79v40h62q50 0 87.5 18t53.5 47q14 25 27.5 58t22.5 70q5 19 6.5 39.5t-0.5 42.5h-68q-4 19 0 37q42 -1 67 -1.5t44 -0.5q20 0 50.5 0.5t72.5 1.5q4 -18 0 -37h-76
q-11 -11 -22.5 -30.5t-21.5 -48.5q-10 -28 -24 -70.5t-34 -78.5q-15 -26 -35.5 -38.5t-37.5 -17.5q57 -2 86.5 -17t43 -40t22.5 -61l41 -156q8 -28 17 -43t26.5 -21t47.5 -8q3 -17 0 -35q-24 -4 -45 -7t-44 -3z" />
    <glyph glyph-name="L" unicode="L" horiz-adv-x="582" 
d="M45 -2q-4 19 0 37h72q5 45 7.5 87.5t2.5 87.5v280q0 45 -2.5 87.5t-7.5 87.5h-72q-4 19 0 37q35 -1 69 -1.5t68 -0.5q35 0 69 0.5t68 1.5q4 -18 0 -37h-72q-5 -45 -7.5 -87.5t-2.5 -87.5v-280q0 -45 2.5 -87.5t7.5 -87.5h133q78 0 107 42t33 128q16 3 32 0v-205h-370h-68
t-69 -2z" />
    <glyph glyph-name="M" unicode="M" horiz-adv-x="952" 
d="M414 -10q-6 36 -17.5 77.5t-31.5 88.5l-187 458q-1 -14 -2.5 -50t-1.5 -74v-280q0 -45 3.5 -87.5t11.5 -87.5h77q4 -18 0 -37q-34 2 -65.5 2h-50.5h-44t-61 -2q-4 19 0 37h67q8 45 11.5 87.5t3.5 87.5v280q0 38 -3.5 80.5t-11.5 94.5h-67q-4 19 0 37q35 -1 61 -1.5
t44 -0.5h126q8 -36 19 -72t24 -68l160 -390l148 372q18 46 29.5 84t18.5 74h95q35 0 69 0.5t68 1.5q4 -18 0 -37h-72q-5 -45 -7.5 -87.5t-2.5 -87.5v-280q0 -45 2.5 -87.5t7.5 -87.5h72q4 -18 0 -37q-34 2 -68 2h-69h-68t-69 -2q-4 19 0 37h72q5 45 7.5 87.5t2.5 87.5v280
q0 38 -2.5 74t-4.5 50l-197 -484q-11 -28 -21 -66t-16 -74q-30 -5 -60 0z" />
    <glyph glyph-name="N" unicode="N" horiz-adv-x="788" 
d="M607 0q-11 27 -24 51t-27.5 46.5t-30.5 44.5l-344 488l-31 70h45t44.5 0.5t39.5 1.5q11 -25 26 -50t40 -61l275 -391l47 -200q-18 -2 -30 -2t-30 2zM45 -2q-4 19 0 37h67q8 45 11.5 87.5t3.5 87.5v280q0 38 -3.5 80.5t-11.5 94.5h-67q-4 19 0 37q35 -1 61 -1.5t44 -0.5
l31 -70q-3 -30 -5 -66t-2 -74v-280q0 -45 3.5 -87.5t11.5 -87.5h77q4 -18 0 -37q-34 2 -65.5 2h-50.5h-44t-61 -2zM667 0l-47 200v290q0 45 -3.5 84t-11.5 91h-77q-4 19 0 37q35 -1 66.5 -1.5t50.5 -0.5q17 0 43.5 0.5t60.5 1.5q4 -18 0 -37h-67q-8 -52 -11.5 -91t-3.5 -84
v-490z" />
    <glyph glyph-name="O" unicode="O" horiz-adv-x="796" 
d="M178 360q0 -63 11.5 -122.5t38 -107t70.5 -75.5t110 -28l-10 -42q-107 0 -184.5 46t-119 128t-41.5 191t42.5 191t120 128t182.5 46l-10 -42q-75 0 -121.5 -43.5t-67.5 -114.5t-21 -155zM618 340q0 63 -11.5 122.5t-38 107t-70.5 75.5t-110 28l10 42q108 0 185 -46
t118.5 -128t41.5 -191t-42.5 -191t-120 -128t-182.5 -46l10 42q75 0 121.5 43t67.5 114.5t21 155.5z" />
    <glyph glyph-name="P" unicode="P" horiz-adv-x="618" 
d="M45 -2q-4 19 0 37h72q5 45 7.5 87.5t2.5 87.5v280q0 45 -2.5 87.5t-7.5 87.5h-72q-4 19 0 37q35 -1 69 -1.5t68 -0.5h140q75 0 135 -19.5t95 -61t35 -109.5q0 -69 -36 -115.5t-96 -70.5t-133 -24h-140v40h150q60 0 95 42t35 121q0 75 -35.5 116t-114.5 41h-65
q-5 -45 -7.5 -85t-2.5 -85v-280q0 -45 2.5 -87.5t7.5 -87.5h92q4 -18 0 -37q-49 2 -85.5 2h-71.5h-68t-69 -2z" />
    <glyph glyph-name="Q" unicode="Q" horiz-adv-x="796" 
d="M683 -96q16 -10 29 -26q-18 -22 -43 -34.5t-81 -12.5q-53 0 -84.5 21t-54.5 55t-40 51t-34.5 23.5t-42.5 8.5l127 5q26 0 45.5 -13t38.5 -36q26 -32 44.5 -48.5t40.5 -16.5q15 0 28.5 4.5t26.5 18.5zM178 360q0 -63 11.5 -122.5t38 -107t70.5 -75.5t110 -28l-10 -42
q-107 0 -184.5 46t-119 128t-41.5 191t42.5 191t120 128t182.5 46l-10 -42q-75 0 -121.5 -43.5t-67.5 -114.5t-21 -155zM618 340q0 63 -11.5 122.5t-38 107t-70.5 75.5t-110 28l10 42q108 0 185 -46t118.5 -128t41.5 -191t-42.5 -191t-120 -128t-182.5 -46l10 42
q75 0 121.5 43t67.5 114.5t21 155.5z" />
    <glyph glyph-name="R" unicode="R" horiz-adv-x="693" 
d="M676 35q3 -17 0 -35q-23 -5 -48 -7.5t-40 -2.5q-39 0 -62 13t-35 39t-19 65l-22 126q-7 44 -36 65.5t-80 21.5h-152v40h165q60 0 95 40.5t35 111.5q0 68 -35.5 108t-114.5 40h-80q-5 -45 -7.5 -85t-2.5 -85v-280q0 -45 2.5 -87.5t7.5 -87.5h72q4 -18 0 -37q-34 2 -68 2
h-69h-68t-69 -2q-4 19 0 37h72q5 45 7.5 87.5t2.5 87.5v280q0 45 -2.5 87.5t-7.5 87.5h-72q-4 19 0 37q35 -1 69 -1.5t68 -0.5h155q75 0 135 -18.5t95 -58t35 -103.5q0 -51 -23.5 -86.5t-63 -57t-89.5 -30.5q59 -4 91.5 -29t42.5 -74l27 -136q8 -43 26.5 -56t62.5 -16z" />
    <glyph glyph-name="S" unicode="S" horiz-adv-x="582" 
d="M264 -14q-52 0 -105.5 13t-99.5 36v180q16 3 32 0q5 -54 31 -96.5t68.5 -67.5t94.5 -25q72 0 115.5 34.5t43.5 95.5q0 38 -20 63t-53.5 42.5t-73 32t-79 31.5t-73 41.5t-53.5 61t-20 91.5q0 62 27.5 105.5t79.5 66.5t124 23q64 0 108 -13t77 -34v-157q-16 -3 -32 0
q-7 71 -49 117.5t-112 46.5q-63 0 -100.5 -28.5t-37.5 -78.5q0 -41 20.5 -67.5t55 -45t75 -33.5t81 -32.5t75 -42t55 -61.5t20.5 -93q0 -61 -34.5 -107.5t-96 -72.5t-144.5 -26z" />
    <glyph glyph-name="T" unicode="T" horiz-adv-x="652" 
d="M189 -2q-4 19 0 37h72q5 45 7.5 87.5t2.5 87.5v280q0 45 -2.5 85t-7.5 85h-58q-70 0 -101 -36t-39 -126q-16 -3 -32 0v202h590v-202q-16 -3 -32 0q-7 90 -38 126t-102 36h-58q-5 -45 -7.5 -85t-2.5 -85v-280q0 -45 2.5 -87.5t7.5 -87.5h72q4 -18 0 -37q-34 2 -68 2h-69
h-68t-69 -2z" />
    <glyph glyph-name="U" unicode="U" horiz-adv-x="739" 
d="M390 -15q-143 0 -209.5 54t-66.5 166v285q0 45 -2.5 87.5t-7.5 87.5h-72q-4 19 0 37q35 -1 69 -1.5t68 -0.5q35 0 69 0.5t68 1.5q4 -18 0 -37h-72q-5 -45 -7.5 -87.5t-2.5 -87.5v-280q0 -94 46 -136t129 -42q89 0 133.5 50.5t44.5 136.5v271q0 45 -3.5 84t-11.5 91h-77
q-4 19 0 37q35 -1 66.5 -1.5t50.5 -0.5q17 0 43.5 0.5t60.5 1.5q4 -18 0 -37h-67q-8 -52 -11.5 -91t-3.5 -84v-285q0 -103 -61 -161.5t-173 -58.5z" />
    <glyph glyph-name="V" unicode="V" horiz-adv-x="656" 
d="M652 702q4 -18 0 -37h-57q-22 -45 -39.5 -87t-32.5 -88l-102 -309q-13 -39 -29.5 -94.5t-24.5 -106.5q-10 -1 -20 -1.5t-20 0t-20 1.5l61 175l108 335q14 45 24.5 87.5t13.5 87.5h-81q-1 8 -1 19t1 18q41 -1 73.5 -1.5t49.5 -0.5q18 0 39.5 0.5t56.5 1.5zM47 665h-54
q-4 19 0 37q24 -1 43 -1.5t38 -0.5h42q35 0 71 0.5t70 1.5q4 -18 0 -37h-69q10 -45 23.5 -87t30.5 -88l126 -335l-61 -175q-5 34 -18 73.5t-28 78t-27 68.5l-111 290q-17 46 -35 88t-41 87z" />
    <glyph glyph-name="W" unicode="W" horiz-adv-x="1029" 
d="M52 665h-53q-4 19 0 37q25 -1 43.5 -1.5t37 -0.5h40.5q35 0 73 0.5t73 1.5q4 -18 0 -37h-70q8 -49 20 -89.5t28 -85.5l113 -321l-63 -189q-6 30 -17 69t-24 79t-25 72l-104 290q-14 41 -30 82t-42 93zM1030 702q2 -7 2 -17.5t-2 -19.5h-59q-24 -45 -40 -86.5t-32 -88.5
l-103 -309q-8 -25 -19 -59t-20.5 -71t-15.5 -71q-10 -1 -19.5 -1.5t-18.5 0t-20 1.5l63 189l104 321q15 46 23.5 86t12.5 89h-84q-1 8 -1 19t1 18q44 -1 76.5 -1.5t51.5 -0.5t41 0.5t59 1.5zM447 665h-58q-1 7 -1.5 17.5t1.5 19.5q25 -1 45 -1.5t38.5 -0.5h37.5q34 0 72 0.5
t74 1.5q1 -7 1.5 -16.5t-1.5 -20.5h-72q8 -42 21 -85t29 -90l112 -321l-63 -189q-11 50 -26.5 100t-40.5 120l-103 290q-9 28 -19 56.5t-21 58.5t-26 60zM542 563l-134 -382q-9 -25 -20 -59t-20.5 -71t-15.5 -71q-10 -1 -19.5 -1.5t-19 0t-19.5 1.5l63 189l136 394h49z" />
    <glyph glyph-name="X" unicode="X" horiz-adv-x="709" 
d="M695 35q4 -18 0 -37q-24 1 -43.5 1.5t-39.5 0.5h-46h-76.5t-75.5 -2q-4 19 0 37h69q-19 45 -43.5 89t-53.5 88l-182 278q-29 44 -59 87t-66 88h-54q-4 19 0 37q24 -1 43.5 -1.5t38.5 -0.5h42q43 0 82 0.5t72 1.5q4 -18 0 -37h-69q20 -45 46.5 -88t55.5 -87l181 -278
q29 -44 59.5 -88t64.5 -89h54zM337 345l97 145q29 44 54 87t41 88h-78q-4 19 0 37q41 -1 73.5 -1.5t49.5 -0.5q18 0 39 0.5t57 1.5q4 -18 0 -37h-55q-36 -45 -68 -88t-61 -87l-96 -145h-53zM360 365l-102 -155q-29 -44 -53 -87t-41 -88h78q4 -18 0 -37q-40 2 -73 2h-50h-39
t-57 -2q-4 19 0 37h55q36 45 67.5 87.5t60.5 87.5l101 155h53z" />
    <glyph glyph-name="Y" unicode="Y" horiz-adv-x="642" 
d="M185 -2q-4 19 0 37h72q5 45 7.5 85t2.5 70v13q0 68 -19.5 138t-50.5 133t-66.5 113t-68.5 78h151q5 -18 22 -43t39.5 -61.5t44.5 -88t35 -122.5q10 46 28 92t39.5 88t41.5 73q17 26 23 39t9 23h75q-50 -53 -86.5 -115t-60 -125t-35 -120.5t-11.5 -101.5v-13
q0 -30 2.5 -70t7.5 -85h72q4 -18 0 -37q-34 2 -68 2h-69h-68t-69 -2zM-2 665q-4 19 0 37q35 -1 66.5 -1.5t50.5 -0.5h38.5t55.5 0.5t58 1.5q4 -18 0 -37h-269zM407 665q-4 19 0 37q42 -1 72.5 -1.5t49.5 -0.5q20 0 42 0.5t56 1.5q4 -18 0 -37h-220z" />
    <glyph glyph-name="Z" unicode="Z" horiz-adv-x="644" 
d="M65 700h515q2 -13 3 -25t0 -25l-129 10h-217q-63 0 -99.5 -33.5t-40.5 -116.5q-16 -3 -32 0v190zM595 0h-556q-1 13 -2.5 25t-1.5 25l136 -10h252q47 0 77 14.5t45.5 47.5t17.5 88q16 3 32 0v-190zM454 660l129 -10q-34 -20 -58 -58.5t-44 -71.5l-202 -340
q-33 -56 -57.5 -91.5t-50.5 -48.5l-136 10q20 9 42 31.5t41.5 49.5t32.5 49l202 340q33 56 56 91.5t45 48.5z" />
    <glyph glyph-name="bracketleft" unicode="[" horiz-adv-x="320" 
d="M188 590q0 45 2.5 87.5t7.5 87.5h102q4 19 0 37q-26 -1 -54.5 -1.5t-67 -0.5h-95.5q6 -25 9.5 -60.5t4.5 -71.5t1 -61v-579q0 -25 -1 -60.5t-4.5 -71.5t-9.5 -61h95.5t67 -0.5t54.5 -1.5q4 19 0 37h-102q-5 45 -7.5 87.5t-2.5 87.5v545z" />
    <glyph glyph-name="backslash" unicode="\" horiz-adv-x="362" 
d="M34 730q25 3 50 0l244 -850q-25 -3 -50 0z" />
    <glyph glyph-name="bracketright" unicode="]" horiz-adv-x="320" 
d="M132 45q0 -45 -2.5 -87.5t-7.5 -87.5h-102q-4 -18 0 -37q27 1 55.5 1.5t67 0.5h94.5q-6 25 -9 61t-4.5 71.5t-1.5 60.5v579q0 25 1.5 61t4.5 71.5t9 60.5h-94.5t-67 0.5t-55.5 1.5q-4 -18 0 -37h102q5 -45 7.5 -87.5t2.5 -87.5v-545z" />
    <glyph glyph-name="asciicircum" unicode="^" horiz-adv-x="620" 
d="M330 838l202 -264q-17 -20 -39 -32l-183 244l-183 -244q-22 12 -39 32l202 264q20 4 40 0z" />
    <glyph glyph-name="underscore" unicode="_" horiz-adv-x="576" 
d="M465 -120h-480q-4 25 0 50h480q4 -25 0 -50z" />
    <glyph glyph-name="grave" unicode="`" horiz-adv-x="151" 
d="M-9 690h115q7 -43 21 -83.5t42 -86.5q-16 -3 -32 0q-20 31 -48.5 56.5t-55.5 52.5t-42 61z" />
    <glyph glyph-name="a" unicode="a" horiz-adv-x="510" 
d="M187 -15q-64 0 -106.5 34.5t-42.5 94.5q0 45 24 75t65.5 45.5t92.5 15.5q38 0 63 -6t43 -13v-40q-41 19 -84 19t-73.5 -22.5t-30.5 -70.5q0 -40 19 -64.5t56 -24.5q38 0 64.5 17.5t48.5 39.5l6 -40q-26 -25 -58 -42.5t-87 -17.5zM421 304v-219q0 -29 15.5 -39.5
t46.5 -10.5q3 -18 0 -37q-16 -4 -34.5 -6t-32.5 -2q-40 0 -58.5 15t-25.5 40l-6 40v212q0 61 -19.5 91t-63.5 30q-41 0 -62.5 -23.5t-17.5 -69.5h-100q0 33 22.5 62.5t65 48.5t103.5 19q80 0 123.5 -37t43.5 -114z" />
    <glyph glyph-name="b" unicode="b" horiz-adv-x="555" 
d="M12 700q35 0 83 2.5t94 10.5q-6 -25 -9 -60.5t-4.5 -71.5t-1.5 -61v-445v-10l-73 -70q-8 0 -16 1t-16 4q4 25 6 57.5t3 65t1 57.5v340q0 72 -10 143h-57q-4 19 0 37zM313 455q54 0 98.5 -25t71 -75.5t26.5 -127.5t-29 -131t-81 -82.5t-122 -28.5q-64 0 -106.5 22
t-74.5 55l78 76q0 -46 17 -70.5t41.5 -33.5t47.5 -9q59 0 91.5 48t32.5 142q0 100 -32.5 147.5t-85.5 47.5q-40 0 -65.5 -23t-46.5 -57l-10 45q20 33 58 56.5t91 23.5z" />
    <glyph glyph-name="c" unicode="c" horiz-adv-x="484" 
d="M264 -15q-65 0 -114.5 28.5t-77 81t-27.5 125.5q0 74 29 126.5t82.5 80.5t124.5 28q47 0 82.5 -10.5t61.5 -29.5v-135q-16 -3 -32 0q-13 65 -44 100t-75 35q-39 0 -67 -22.5t-42.5 -65t-14.5 -103.5q0 -55 18.5 -98t50.5 -67t71 -24q23 0 44 7t42.5 23.5t45.5 44.5
q8 -5 14.5 -11t13.5 -14q-28 -34 -57 -56t-60 -33t-69 -11z" />
    <glyph glyph-name="d" unicode="d" horiz-adv-x="568" 
d="M386 -5q2 14 3.5 34.5t1.5 35.5l-10 45v410q0 72 -10 143h-57q-4 19 0 37q35 0 83 2.5t94 10.5q-6 -25 -9 -60.5t-4.5 -71.5t-1.5 -61v-340q0 -72 10 -143h52q4 -18 0 -37h-74.5t-77.5 -5zM242 -15q-54 0 -98.5 25t-71 76t-26.5 127q0 77 29 131t81 82.5t122 28.5
q64 0 107 -22t74 -55l-78 -76q0 46 -17 70.5t-41.5 33.5t-47.5 9q-59 0 -91.5 -47.5t-32.5 -142.5q0 -100 33 -147.5t85 -47.5q40 0 65.5 23t46.5 57l10 -45q-20 -33 -58 -56.5t-91 -23.5z" />
    <glyph glyph-name="e" unicode="e" horiz-adv-x="515" 
d="M264 -15q-63 0 -112.5 26t-77.5 78.5t-28 130.5q0 77 29 129t80 79t117 27q62 0 106.5 -23t68.5 -71t24 -123q-26 3 -55 5t-70 2h-208v35h227q0 70 -28.5 104t-70.5 34q-36 0 -62.5 -23.5t-41 -66.5t-14.5 -104q0 -95 39.5 -142t104.5 -47q40 0 77 19.5t73 65.5
q8 -5 14.5 -11t13.5 -14q-43 -55 -93.5 -82.5t-112.5 -27.5z" />
    <glyph glyph-name="f" unicode="f" horiz-adv-x="346" 
d="M336 601h-95q4 38 -3.5 59t-27.5 21t-32.5 -20t-12.5 -67q0 -42 11 -83.5t20 -70.5l5 -40v-220q0 -37 2.5 -72t7.5 -73h87q4 -18 0 -37q-53 2 -84 2h-60h-56.5t-58.5 -2q-4 19 0 37h57q5 38 7.5 73t2.5 72v80q0 35 -0.5 72.5t-5.5 87.5q-10 107 0 173t41.5 96.5
t83.5 30.5q68 0 90 -32.5t21 -86.5zM316 400h-280q-3 20 0 40h280q3 -20 0 -40z" />
    <glyph glyph-name="g" unicode="g" horiz-adv-x="515" 
d="M244 136q48 0 73 35.5t25 102.5t-25 105.5t-73 38.5t-72.5 -38.5t-24.5 -105.5t24.5 -102.5t72.5 -35.5zM27 -85q0 18 2.5 31t6.5 20h132q4 -18 0 -37q-12 1 -21 1h-19q-2 -4 -4 -14t-2 -24q0 -45 35 -61t100 -16q59 0 97 20.5t38 70.5q0 30 -12.5 50.5t-44 32.5
t-89.5 18q-53 6 -91 22t-62 44.5t-35 71.5t-11 101q0 101 47.5 155t148.5 54q43 0 81 -7.5t74 -7.5q21 0 46.5 2.5t37.5 7.5q4 -39 0 -72q-16 14 -39.5 19.5t-54.5 5.5q26 -24 40 -58t14 -72q0 -53 -23 -92.5t-64.5 -60.5t-97.5 -21q-42 0 -75 16t-50 50q1 -49 18 -73.5
t55 -34.5t101 -17q40 -4 74.5 -11.5t60.5 -21.5t41 -37t15 -58q0 -49 -30.5 -79t-84.5 -44t-125 -14q-105 0 -167.5 33.5t-62.5 106.5z" />
    <glyph glyph-name="h" unicode="h" horiz-adv-x="577" 
d="M260 35q4 -18 0 -37q-31 2 -58 2h-56h-56.5t-58.5 -2q-4 19 0 37h57q5 38 7.5 73t2.5 72v340q0 72 -10 143h-57q-4 19 0 37q35 0 83 2.5t94 10.5q-6 -25 -9 -60.5t-4.5 -71.5t-1.5 -61v-340q0 -37 2.5 -72t7.5 -73h57zM321 -2q-4 19 0 37h57q5 38 7.5 73t2.5 72v136
q0 37 -17 63t-63 26q-35 0 -65 -18.5t-50 -56.5l-10 45q27 38 67.5 59t95.5 21q59 0 90 -22t50 -57l-2 -30t-1 -30v-136q0 -37 2.5 -72t7.5 -73h57q4 -18 0 -37q-31 2 -58 2h-56h-56.5t-58.5 -2z" />
    <glyph glyph-name="i" unicode="i" horiz-adv-x="303" 
d="M274 35q4 -18 0 -37q-34 2 -62 2h-57h-57t-63 -2q-4 19 0 37h62q5 38 7.5 73t2.5 72v80q0 72 -10 143h-57q-4 19 0 37q39 0 85 2.5t92 10.5q-6 -25 -9 -60.5t-4.5 -71.5t-1.5 -61v-80q0 -37 2.5 -72t7.5 -73h62zM155 670l55 -30v-65l-55 -30l-55 30v65z" />
    <glyph glyph-name="j" unicode="j" horiz-adv-x="272" 
d="M192 260v-186q0 -28 1 -56.5t6 -57.5q-4 -28 -17 -59.5t-36 -59.5t-58 -46t-84 -20q-3 19 0 38q38 5 58 32t27.5 65.5t7.5 79.5v270q0 72 -10 143h-57q-4 19 0 37q39 0 85 2.5t92 10.5q-6 -25 -9 -60.5t-4.5 -71.5t-1.5 -61zM145 670l55 -30v-65l-55 -30l-55 30v65z" />
    <glyph glyph-name="k" unicode="k" horiz-adv-x="539" 
d="M31 -2q-4 19 0 37h57q5 38 7.5 73t2.5 72v340q0 72 -10 143h-57q-4 19 0 37q35 0 83 2.5t94 10.5q-6 -25 -9 -60.5t-4.5 -71.5t-1.5 -61v-340q0 -37 2.5 -72t7.5 -73h57q4 -18 0 -37q-31 2 -58 2h-56h-56.5t-58.5 -2zM447 -10q-37 0 -56.5 11.5t-28 33.5t-14.5 52l-13 66
q-3 18 -12.5 34.5t-30 27t-60.5 10.5h-39v35h49q26 0 47 14t40 42q20 29 28.5 49.5t11.5 37.5h-70q-4 20 0 39q28 -1 40.5 -1.5t20 -0.5h20.5q20 0 50.5 0.5t72.5 1.5q4 -19 0 -39h-47q-28 -24 -50.5 -54t-42 -56.5t-40.5 -40.5q56 -4 81 -33.5t32 -65.5l12 -56
q8 -37 20.5 -49t42.5 -13q3 -17 0 -35q-13 -4 -31 -7t-33 -3z" />
    <glyph glyph-name="l" unicode="l" horiz-adv-x="291" 
d="M260 35q4 -18 0 -37q-31 2 -58 2h-56h-56.5t-58.5 -2q-4 19 0 37h57q5 38 7.5 73t2.5 72v340q0 72 -10 143h-57q-4 19 0 37q35 0 83 2.5t94 10.5q-6 -25 -9 -60.5t-4.5 -71.5t-1.5 -61v-340q0 -37 2.5 -72t7.5 -73h57z" />
    <glyph glyph-name="m" unicode="m" horiz-adv-x="853" 
d="M37 -2q-4 19 0 37h57q5 38 7.5 73t2.5 72v80q0 72 -10 143h-52q-4 19 0 37q35 0 75 2.5t82 10.5q-5 -18 -7.5 -40.5t-2.5 -37.5l10 -45v-150q0 -37 2.5 -72t7.5 -73h47q4 -18 0 -37q-31 2 -53 2h-51h-56.5t-58.5 -2zM327 -2q-4 19 0 37h47q5 38 7.5 73t2.5 72v136
q0 37 -14 63t-56 26q-35 0 -65 -18.5t-50 -56.5l-10 45q27 38 67.5 59t95.5 21t83 -22t47 -57l-2 -30t-1 -30v-136q0 -37 2.5 -72t7.5 -73h47q4 -18 0 -37q-31 2 -53 2h-51h-51.5t-53.5 -2zM607 -2q-4 19 0 37h47q5 38 7.5 73t2.5 72v136q0 37 -14 63t-56 26
q-39 0 -67 -18.5t-48 -56.5l-10 45q27 38 66 59t97 21q55 0 83 -22t47 -57l-2 -30t-1 -30v-136q0 -37 2.5 -72t7.5 -73h57q4 -18 0 -37q-31 2 -58 2h-56h-51.5t-53.5 -2z" />
    <glyph glyph-name="n" unicode="n" horiz-adv-x="583" 
d="M37 -2q-4 19 0 37h57q5 38 7.5 73t2.5 72v80q0 72 -10 143h-52q-4 19 0 37q35 0 75 2.5t82 10.5q-5 -18 -7.5 -40.5t-2.5 -37.5l10 -45v-150q0 -37 2.5 -72t7.5 -73h57q4 -18 0 -37q-31 2 -58 2h-56h-56.5t-58.5 -2zM327 -2q-4 19 0 37h57q5 38 7.5 73t2.5 72v136
q0 37 -17 63t-63 26q-35 0 -65 -18.5t-50 -56.5l-10 45q27 38 67.5 59t95.5 21q59 0 90 -22t50 -57l-2 -30t-1 -30v-136q0 -37 2.5 -72t7.5 -73h57q4 -18 0 -37q-31 2 -58 2h-56h-56.5t-58.5 -2z" />
    <glyph glyph-name="o" unicode="o" horiz-adv-x="546" 
d="M268 415q-36 0 -62.5 -20t-41 -61.5t-14.5 -104.5q0 -70 16 -115.5t45 -67t67 -21.5l-5 -40q-66 0 -117.5 29t-81 83t-29.5 127q0 71 28.5 123t79.5 80t120 28zM278 25q37 0 63 20.5t40.5 61.5t14.5 104q0 71 -16 116t-44.5 66.5t-67.5 21.5l5 40q67 0 118 -29
t80.5 -82.5t29.5 -127.5q0 -71 -28 -123t-79.5 -80t-120.5 -28z" />
    <glyph glyph-name="p" unicode="p" horiz-adv-x="571" 
d="M28 -212q-4 19 0 37h57q5 38 7.5 73t2.5 72v290q0 72 -10 143h-52q-4 19 0 37q35 0 75 2.5t82 10.5q-5 -18 -7.5 -40.5t-2.5 -37.5l10 -45v-360q0 -37 2.5 -72t7.5 -73h77q4 -18 0 -37q-46 2 -75.5 2h-58.5h-56.5t-58.5 -2zM329 455q54 0 98.5 -25t71 -75.5t26.5 -127.5
t-29 -131t-81 -82.5t-122 -28.5q-64 0 -106.5 22t-74.5 55l78 76q0 -46 17 -70.5t41.5 -33.5t47.5 -9q59 0 91.5 48t32.5 142q0 100 -32.5 147.5t-85.5 47.5q-40 0 -65.5 -23t-46.5 -57l-10 45q20 33 58 56.5t91 23.5z" />
    <glyph glyph-name="q" unicode="q" horiz-adv-x="555" 
d="M543 -175q4 -18 0 -37q-31 2 -58.5 2h-56.5h-58t-76 -2q-4 19 0 37h77q5 38 7.5 73t2.5 72v405l73 65q16 3 32 0q-3 -25 -5.5 -57.5t-3.5 -65t-1 -57.5v-290q0 -37 2.5 -72t7.5 -73h57zM242 -15q-54 0 -98.5 25t-71 76t-26.5 127q0 77 29 131t81 82.5t122 28.5
q64 0 107 -22t74 -55l-78 -76q0 46 -17 70.5t-41.5 33.5t-47.5 9q-59 0 -91.5 -47.5t-32.5 -142.5q0 -100 33 -147.5t85 -47.5q40 0 65.5 23t46.5 57l10 -45q-20 -33 -58 -56.5t-91 -23.5z" />
    <glyph glyph-name="r" unicode="r" horiz-adv-x="444" 
d="M37 -2q-4 19 0 37h57q5 38 7.5 73t2.5 72v80q0 72 -10 143h-52q-4 19 0 37q35 0 75 2.5t82 10.5q-5 -18 -7.5 -41.5t-2.5 -46.5l10 -45v-140q0 -37 2.5 -72t7.5 -73h87q4 -18 0 -37q-53 2 -84 2h-60h-56.5t-58.5 -2zM323 325q4 37 -3.5 58.5t-32.5 21.5q-24 0 -44.5 -22
t-43.5 -63l-10 45q24 43 56.5 66.5t78.5 23.5q37 0 59.5 -13t32.5 -41.5t7 -75.5h-100z" />
    <glyph glyph-name="s" unicode="s" horiz-adv-x="458" 
d="M222 -15q-43 0 -84 7.5t-86 22.5v138q16 3 32 0q13 -60 47 -94t101 -34q45 0 74.5 18.5t29.5 52.5q0 27 -19.5 42t-51 24t-66 18t-66 25t-51 43.5t-19.5 73.5q0 61 45.5 97t130.5 36q36 0 71.5 -7t66.5 -21v-127q-16 -3 -32 0q-11 59 -38.5 87t-79.5 28q-46 0 -70 -18
t-24 -50q0 -26 20.5 -41t52.5 -25.5t68.5 -20.5t68.5 -25.5t52.5 -41.5t20.5 -68q0 -67 -51 -103.5t-143 -36.5z" />
    <glyph glyph-name="t" unicode="t" horiz-adv-x="336" 
d="M211 -15q-52 0 -84 24.5t-32 79.5v221q0 27 -0.5 61.5t-2 70t-5.5 63.5q18 6 32.5 16.5t26 24.5t18.5 29q16 3 32 0q-4 -67 -5 -133.5t-1 -133.5v-215q0 -34 10.5 -48.5t30.5 -14.5q15 0 31 7t27 19q8 -5 14 -12t12 -15q-18 -19 -40.5 -31.5t-63.5 -12.5zM25 400
q-3 20 0 40h280q3 -20 0 -40h-280z" />
    <glyph glyph-name="u" unicode="u" horiz-adv-x="564" 
d="M373 110l10 -45q-27 -38 -65 -59t-93 -21t-85 22.5t-50 56.5q2 15 2.5 30t0.5 30v136q0 72 -10 143h-52q-4 19 0 37q39 0 82.5 2.5t89.5 10.5q-6 -25 -9 -60.5t-4.5 -71.5t-1.5 -61v-136q0 -37 16.5 -63t58.5 -26q35 0 62.5 18.5t47.5 56.5zM530 37q4 -18 0 -37
q-35 0 -75 -2.5t-82 -10.5q5 18 7.5 40.5t2.5 37.5l-10 45v150q0 72 -10 143h-57q-4 19 0 37q39 0 85 2.5t92 10.5q-6 -25 -9 -60.5t-4.5 -71.5t-1.5 -61v-80q0 -72 10 -143h52z" />
    <glyph glyph-name="v" unicode="v" horiz-adv-x="504" 
d="M499 442q4 -19 0 -39h-52q-16 -30 -30.5 -56.5t-26.5 -56.5l-69 -173q-10 -25 -19.5 -61.5t-14.5 -70.5q-6 -1 -18 -1.5t-23.5 0t-18.5 1.5q-4 23 -12 49t-17 51t-18 45l-69 160q-13 30 -27.5 56.5t-37.5 56.5h-38q-4 20 0 39q21 -1 37.5 -1.5t33.5 -0.5h36q29 0 56 0.5
t58 1.5q4 -19 0 -39h-51q8 -30 16.5 -55.5t21.5 -57.5l66 -161l62 161q11 28 20 55.5t10 57.5h-64q-4 20 0 39q31 -1 48.5 -1.5t46.5 -0.5t46 0.5t48 1.5z" />
    <glyph glyph-name="w" unicode="w" horiz-adv-x="798" 
d="M227 -15q-55 0 -85 22.5t-50 56.5q2 15 2.5 30t0.5 30v136q0 72 -10 143h-52q-4 19 0 37q39 0 82.5 2.5t89.5 10.5q-6 -25 -9 -60.5t-4.5 -71.5t-1.5 -61v-136q0 -37 16.5 -63t58.5 -26q35 0 62.5 18.5t47.5 56.5l10 -45q-27 -38 -65 -59t-93 -21zM766 442q4 -19 0 -39
h-40q-7 -41 -8.5 -79.5t-1.5 -93.5q0 -47 -10 -91t-31.5 -78.5t-54 -55t-77.5 -20.5q-33 0 -67.5 7.5t-92.5 7.5q2 17 2 33v32l-10 45v150q0 72 -10 143h-57q-4 19 0 37q39 0 85 2.5t92 10.5q-6 -25 -9 -60.5t-4.5 -71.5t-1.5 -61v-130q0 -47 12 -73.5t61 -26.5q40 0 68 26
t43 71.5t15 102.5q0 47 -12 89.5t-41 83.5h-47q-4 20 0 39q35 -1 68.5 -1.5t51.5 -0.5q17 0 37.5 0.5t39.5 1.5z" />
    <glyph glyph-name="x" unicode="x" horiz-adv-x="529" 
d="M329 35q-16 30 -30.5 57t-37.5 58l-100 140q-22 30 -42.5 56.5t-52.5 56.5h135q17 -30 31.5 -55.5t36.5 -57.5l100 -140q21 -30 42.5 -57.5t52.5 -57.5h-135zM28 -2q-4 19 0 37h190q4 -18 0 -37q-26 2 -44.5 2h-47.5h-48t-50 -2zM80 35q27 30 49 57t45 58l62 82h48
l-61 -82q-21 -28 -37.5 -56.5t-29.5 -58.5h-76zM286 -2q-4 19 0 37h221q4 -18 0 -37q-31 2 -54.5 2h-52.5h-55.5t-58.5 -2zM23 403q-4 20 0 39q31 -1 54.5 -1.5t52.5 -0.5t58.5 0.5t60.5 1.5q4 -19 0 -39h-226zM248 208l59 82q20 28 35.5 55.5t27.5 57.5h76
q-26 -30 -46.5 -56t-43.5 -57l-60 -82h-48zM312 403q-4 20 0 39q26 -1 44 -1.5t47 -0.5t47 0.5t48 1.5q4 -19 0 -39h-186z" />
    <glyph glyph-name="y" unicode="y" horiz-adv-x="548" 
d="M225 5q-55 0 -85 22.5t-50 56.5q2 15 2.5 30t0.5 30v116q0 72 -10 143h-52q-4 19 0 37q39 0 82.5 2.5t89.5 10.5q-6 -25 -9 -60.5t-4.5 -71.5t-1.5 -61v-116q0 -37 16.5 -63t58.5 -26q35 0 62.5 18.5t47.5 56.5v-56q-16 -23 -36.5 -38.5t-47.5 -23t-64 -7.5zM306 440
q39 0 85 2.5t92 10.5q-6 -25 -9 -60.5t-4.5 -71.5t-1.5 -61v-190q0 -95 -34.5 -161t-91 -100t-123.5 -34q-76 0 -123.5 30.5t-47.5 88.5q0 51 34.5 84.5t80.5 55.5l28 -17q-37 -24 -50 -51.5t-13 -61.5q0 -42 21 -65.5t70 -23.5q58 0 91.5 30.5t48 78.5t14.5 100v236
q0 72 -10 143h-57q-4 19 0 37z" />
    <glyph glyph-name="z" unicode="z" horiz-adv-x="489" 
d="M155 37l-116 6q20 8 38.5 30t40.5 55l124 184q24 35 40 58t35 33l116 -6q-20 -8 -38 -30t-41 -55l-124 -184q-23 -35 -39.5 -58t-35.5 -33zM42 0q-5 21 -3 43l116 -6h154q47 0 71.5 34.5t30.5 88.5q16 3 32 0v-160h-401zM60 280v160h370q2 -10 3 -21t0 -22l-116 6h-119
q-46 0 -73 -27t-33 -96q-16 -3 -32 0z" />
    <glyph glyph-name="braceleft" unicode="{" horiz-adv-x="338" 
d="M317 -167q-72 0 -117.5 27.5t-67.5 76.5t-22 114q0 46 10 86t10 71q0 49 -26 70.5t-78 21.5h-18q-1 8 -1 20.5t1 19.5h18q52 0 78 21.5t26 70.5q0 32 -10 71.5t-10 85.5q0 65 22 113t67.5 74t117.5 26q4 -18 0 -37q-47 0 -72.5 -17.5t-35 -47t-9.5 -65.5q0 -33 5 -60.5
t10 -53t5 -54.5q0 -55 -20.5 -93.5t-76.5 -53.5q56 -15 76.5 -53t20.5 -94q0 -28 -5 -54t-10 -53t-5 -61q0 -35 9.5 -66t35 -50t72.5 -19q4 -18 0 -37z" />
    <glyph glyph-name="bar" unicode="|" horiz-adv-x="239" 
d="M97 -200v1000q23 3 45 0v-1000q-22 -3 -45 0z" />
    <glyph glyph-name="braceright" unicode="}" horiz-adv-x="338" 
d="M21 802q72 0 117.5 -27.5t67.5 -76.5t22 -114q0 -46 -10 -85.5t-10 -71.5q0 -49 26 -70.5t78 -21.5h18q2 -7 2 -19.5t-2 -20.5h-18q-52 0 -78 -21.5t-26 -70.5q0 -31 10 -71t10 -86q0 -65 -22 -113t-67.5 -74t-117.5 -26q-4 19 0 37q48 0 73 17.5t34.5 47.5t9.5 65
q0 34 -5 61t-10 53t-5 54q0 56 21 94t76 53q-55 15 -76 53.5t-21 93.5q0 29 5 54.5t10 53t5 60.5q0 36 -9.5 66.5t-34.5 49.5t-73 19q-4 19 0 37z" />
    <glyph glyph-name="asciitilde" unicode="~" horiz-adv-x="620" 
d="M73 279q0 88 36.5 132t94.5 44q34 0 58.5 -12.5t43.5 -31.5t36 -38t36 -31.5t44 -12.5q31 0 48.5 17.5t25 46.5t7.5 62q25 4 50 0q0 -88 -36.5 -132t-94.5 -44q-34 0 -58.5 12.5t-43.5 31.5t-36 38t-36 31.5t-44 12.5q-31 0 -48.5 -17.5t-25 -46t-7.5 -62.5q-25 -4 -50 0
z" />
    <glyph glyph-name="uni00A0" unicode="&#xa0;" horiz-adv-x="220" 
 />
    <glyph glyph-name="exclamdown" unicode="&#xa1;" horiz-adv-x="272" 
d="M136 -215l-57 36v69l39 439q18 3 36 0l39 -439v-69zM136 390l-55 30v65l55 30l55 -30v-65z" />
    <glyph glyph-name="cent" unicode="&#xa2;" horiz-adv-x="504" 
d="M194 -150l132 748q11 -1 22.5 -2.5t22.5 -5.5l-132 -748q-11 1 -22.5 2.5t-22.5 5.5zM272 -15q-65 0 -114.5 28.5t-77 81t-27.5 125.5q0 74 29 126.5t82.5 80.5t124.5 28q47 0 82.5 -10.5t61.5 -29.5v-135q-16 -3 -32 0q-13 65 -44 100t-75 35q-39 0 -67 -22.5t-42.5 -65
t-14.5 -103.5q0 -55 18.5 -98t50.5 -67t71 -24q23 0 44 7t42.5 23.5t45.5 44.5q8 -5 14.5 -11t13.5 -14q-28 -34 -57 -56t-60 -33t-69 -11z" />
    <glyph glyph-name="sterling" unicode="&#xa3;" horiz-adv-x="646" 
d="M129 -15q-45 0 -70.5 21t-25.5 58q0 36 25.5 58t69.5 22q45 0 76 -13.5t56.5 -31t54.5 -31t70 -13.5q59 0 89 30.5t22 87.5h115q3 -50 -21.5 -93t-71.5 -69t-113 -26q-39 0 -69.5 12t-56 29.5t-49 35.5t-47.5 30t-53 12q-27 0 -39.5 -10t-12.5 -27q0 -18 13 -30t37 -12
q46 0 74.5 36.5t28.5 107.5q0 45 -11 82t-27.5 69.5t-33 64.5t-27.5 67t-11 77q0 93 61.5 139.5t161.5 46.5q66 0 114 -24t74 -64.5t26 -92.5q0 -15 -2 -29.5t-6 -29.5h-110q8 30 8 67q0 56 -25.5 94.5t-78.5 38.5q-50 0 -81.5 -41.5t-31.5 -120.5q0 -34 7 -68.5t15.5 -73.5
t15.5 -88t7 -114q0 -43 -14 -85t-46 -70.5t-87 -28.5zM450 300h-380q-4 25 0 50h380q4 -25 0 -50z" />
    <glyph glyph-name="currency" unicode="&#xa4;" horiz-adv-x="625" 
d="M312 148q-59 0 -107.5 28.5t-77 77t-28.5 107.5t28.5 107.5t77 77t107.5 28.5t107 -28.5t77 -76.5t29 -108q0 -59 -28.5 -107.5t-77 -77t-107.5 -28.5zM108 125q-21 14 -35 35l86 86l35 -35zM312 198q45 0 82 22t59 59t22 82t-22 82t-59 59t-82 22t-82 -22t-59 -59
t-22 -82t22 -82t59 -59t82 -22zM518 125l-87 87l35 35l87 -87q-14 -21 -35 -35zM163 480l-90 90q14 21 35 35l90 -90zM462 479l-35 35l91 91q21 -14 35 -35z" />
    <glyph glyph-name="yen" unicode="&#xa5;" horiz-adv-x="695" 
d="M217 -2q-4 19 0 37h72q5 45 7.5 85t2.5 70v13q0 68 -19.5 138t-50.5 133t-66.5 113t-68.5 78h151q5 -18 22 -43t39.5 -61.5t44.5 -88t35 -122.5q10 46 28 92t39.5 88t41.5 73q17 26 23 39t9 23h75q-50 -53 -86.5 -115t-60 -125t-35 -120.5t-11.5 -101.5v-13
q0 -30 2.5 -70t7.5 -85h72q4 -18 0 -37q-34 2 -68 2h-69h-68t-69 -2zM30 665q-4 19 0 37q35 -1 66.5 -1.5t50.5 -0.5h38.5t55.5 0.5t58 1.5q4 -18 0 -37h-269zM439 665q-4 19 0 37q42 -1 72.5 -1.5t49.5 -0.5q20 0 42 0.5t56 1.5q4 -18 0 -37h-220zM598 280h-480q-4 25 0 50
h480q4 -25 0 -50zM598 150h-480q-4 25 0 50h480q4 -25 0 -50z" />
    <glyph glyph-name="brokenbar" unicode="&#xa6;" horiz-adv-x="239" 
d="M97 -200v400q23 3 45 0v-400q-22 -3 -45 0zM97 400v400q23 3 45 0v-400q-22 -3 -45 0z" />
    <glyph glyph-name="section" unicode="&#xa7;" horiz-adv-x="556" 
d="M291 64v25q59 9 95 44t36 93q0 41 -24 66t-62 42t-80 32.5t-80 37.5t-62 56.5t-24 90.5q0 53 27 89.5t73 55.5t104 19q48 0 84 -8t73 -27v-157q-16 -1 -32 0q-3 68 -40.5 110t-96.5 42q-52 0 -81 -24t-29 -64q0 -39 24.5 -63.5t63.5 -41.5t82 -33t82 -38t63.5 -56.5
t24.5 -89.5q0 -81 -59.5 -131.5t-161.5 -69.5zM266 436v-25q-59 -9 -95 -44t-36 -93q0 -41 24 -66t62 -42t80 -32.5t80 -37.5t62 -56.5t24 -90.5q0 -52 -27 -89t-73 -56t-104 -19q-48 0 -83.5 8t-73.5 27v157q16 1 32 0q3 -68 41 -110t96 -42q52 0 81 24t29 64
q0 39 -24.5 63.5t-63.5 41.5t-82 33t-82 38t-63.5 57t-24.5 89q0 81 59.5 131.5t161.5 69.5z" />
    <glyph glyph-name="dieresis" unicode="&#xa8;" horiz-adv-x="310" 
d="M55 670l55 -30v-65l-55 -30l-55 30v65zM255 670l55 -30v-65l-55 -30l-55 30v65z" />
    <glyph glyph-name="copyright" unicode="&#xa9;" horiz-adv-x="849" 
d="M425 -15q-109 0 -191.5 47t-128.5 130t-46 189t46 188t128.5 129t191.5 47t191 -47t128 -129t46 -188t-46 -189t-128 -130t-191 -47zM425 31q95 0 165.5 41t110 113.5t39.5 165.5t-39.5 164.5t-110 112.5t-165.5 41t-166 -41t-110.5 -112.5t-39.5 -164.5t39.5 -165.5
t110.5 -113.5t166 -41zM430 161q-80 0 -130 50.5t-50 139.5q0 96 54.5 143t141.5 47q37 0 63 -7t53 -21v-112q-6 -1 -11 -1t-15 1q-4 59 -30 83.5t-62 24.5q-33 0 -56 -19t-35.5 -54t-12.5 -83q0 -67 31.5 -111t77.5 -44q29 0 53.5 13.5t53.5 47.5q8 -4 13.5 -9.5t9.5 -10.5
q-35 -43 -69.5 -60.5t-79.5 -17.5z" />
    <glyph glyph-name="ordfeminine" unicode="&#xaa;" horiz-adv-x="401" 
d="M313 549v-142q0 -20 9.5 -27t29.5 -7q1 -4 1.5 -11t-1.5 -13q-12 -3 -25 -4.5t-21 -1.5q-27 0 -40 9.5t-18 25.5l-5 27v138q0 39 -11 61t-40 22q-28 0 -41.5 -18.5t-10.5 -47.5h-72q0 36 34 63t94 27q46 0 71 -13t35.5 -36t10.5 -52zM153 340q-44 0 -72 21t-28 64
q0 31 16 51t42 30t56 10q23 0 43 -3.5t33 -8.5v-27q-25 12 -52 12q-28 0 -47.5 -15t-19.5 -46q0 -25 14.5 -40.5t39.5 -15.5q18 0 35 9.5t30 23.5l5 -27q-17 -17 -40 -27.5t-55 -10.5z" />
    <glyph glyph-name="guillemotleft" unicode="&#xab;" horiz-adv-x="551" 
d="M233 213h120q34 35 58 64.5t44.5 57.5t42.5 58q-11 13 -28 19q-52 -56 -108 -103t-129 -96zM233 213q73 -49 129 -96t108 -103q17 6 28 19q-22 30 -42.5 58t-44.5 57.5t-58 64.5h-120zM33 213h120q34 35 58 64.5t44.5 57.5t42.5 58q-11 13 -28 19q-52 -56 -108 -103
t-129 -96zM33 213q73 -49 129 -96t108 -103q17 6 28 19q-22 30 -42.5 58t-44.5 57.5t-58 64.5h-120z" />
    <glyph glyph-name="logicalnot" unicode="&#xac;" horiz-adv-x="620" 
d="M542 440h-482q-4 25 0 50h482v-50zM542 490v-270q-25 -4 -50 0v270h50z" />
    <glyph glyph-name="registered" unicode="&#xae;" horiz-adv-x="657" 
d="M328 254q-81 0 -142.5 35t-95.5 96.5t-34 140.5t34 140t95.5 96.5t142.5 35.5t142.5 -35.5t96 -96.5t34.5 -140t-34.5 -140.5t-96 -96.5t-142.5 -35zM328 300q67 0 117 28.5t78 79.5t28 118t-28 117.5t-78 79.5t-117 29t-117 -29t-77.5 -79.5t-27.5 -117.5t27.5 -118
t77.5 -79.5t117 -28.5zM480 406q1 -4 1 -8t-1 -6q-6 -1 -14.5 -1.5t-18.5 -0.5q-42 0 -53.5 12.5t-13.5 32.5l-6 52q-3 33 -49 33h-24v-44q0 -19 1.5 -37.5t3.5 -32.5h30q0 -3 0.5 -6t-0.5 -9q-16 1 -35 1h-35h-33t-36 -1q0 2 -0.5 7t0.5 8h30q2 16 3 34t1 36v112
q0 18 -1 36t-3 34h-30q0 3 -0.5 7.5t0.5 7.5q16 -1 35 -1h34h69q49 0 83 -15.5t34 -55.5q0 -23 -11.5 -37.5t-29.5 -23t-38 -12.5q29 -1 51.5 -12t25.5 -42l4 -39q2 -17 9 -22t17 -7zM324 536q21 0 37.5 13.5t16.5 46.5q0 32 -16 46t-42 14h-14q-2 -18 -3.5 -34t-1.5 -34
v-52h23z" />
    <glyph glyph-name="macron" unicode="&#xaf;" horiz-adv-x="284" 
d="M287 540h-290q-2 13 -2 30t2 30h290q2 -13 2 -30t-2 -30z" />
    <glyph glyph-name="degree" unicode="&#xb0;" horiz-adv-x="430" 
d="M214 390q-48 0 -86.5 22t-61 59.5t-22.5 86.5q0 50 22.5 88t61 60t86.5 22q49 0 87.5 -22t61.5 -60t23 -88q0 -49 -23 -86.5t-61.5 -59.5t-87.5 -22zM214 440q50 0 83.5 32.5t33.5 85.5q0 54 -33.5 87t-83.5 33t-83 -33t-33 -87q0 -53 33 -85.5t83 -32.5z" />
    <glyph glyph-name="plusminus" unicode="&#xb1;" horiz-adv-x="620" 
d="M550 401h-480q-4 25 0 50h480q4 -25 0 -50zM285 216v420q25 4 50 0v-420q-25 -4 -50 0zM550 100h-480q-4 25 0 50h480q4 -25 0 -50z" />
    <glyph glyph-name="uni00B2" unicode="&#xb2;" horiz-adv-x="380" 
d="M334 350h-247h-31.5t-32.5 -1q-2 18 0 30l127 115q41 37 62.5 75.5t21.5 90.5q0 49 -16 67t-41 18t-38.5 -17.5t-13.5 -54.5q0 -13 1.5 -24t3.5 -19h-87q-1 7 -3 16.5t-2 20.5q0 50 40.5 81t101.5 31q65 0 104.5 -26.5t39.5 -88.5q0 -44 -24.5 -79t-71 -73.5
t-113.5 -93.5l151 5q22 1 36.5 15.5t17.5 51.5q15 3 30 0z" />
    <glyph glyph-name="uni00B3" unicode="&#xb3;" horiz-adv-x="376" 
d="M344 469q0 -40 -21.5 -68.5t-58.5 -44t-84 -15.5q-75 0 -113.5 33.5t-36.5 86.5h86q0 -40 17 -63t50 -23q25 0 40.5 12t23 32t7.5 43q0 47 -21.5 71t-61.5 24q-15 0 -29.5 -1.5t-30.5 -4.5q-1 6 -1 17.5t1 21.5h44q41 0 61.5 24t20.5 55q0 39 -16 57.5t-42 18.5
q-21 0 -34 -10t-19.5 -27.5t-6.5 -38.5h-82q0 34 18.5 58.5t51.5 38t74 13.5q66 0 104.5 -26t38.5 -74q0 -36 -26.5 -61.5t-68.5 -36.5q48 -6 81.5 -35t33.5 -77z" />
    <glyph glyph-name="acute" unicode="&#xb4;" horiz-adv-x="151" 
d="M155 690q-15 -34 -42 -61t-55.5 -52.5t-48.5 -56.5q-16 -3 -32 0q28 46 42 86.5t21 83.5h115z" />
    <glyph glyph-name="uni00B5" unicode="&#xb5;" horiz-adv-x="566" 
d="M190 124q0 -37 16.5 -63t58.5 -26q35 0 62.5 18.5t47.5 56.5l10 -45q-27 -38 -65 -59t-93 -21q-52 0 -77 26.5t-45 66.5zM532 37q4 -18 0 -37q-35 0 -75 -2.5t-82 -10.5q5 18 7.5 40.5t2.5 37.5l-10 45v150q0 72 -10 143h-57q-4 19 0 37q39 0 85 2.5t92 10.5
q-6 -25 -9 -60.5t-4.5 -71.5t-1.5 -61v-80q0 -72 10 -143h52zM90 -210q2 19 3.5 38t1.5 38v394q0 72 -10 143h-52q-4 19 0 37q39 0 82.5 2.5t89.5 10.5q-6 -25 -9 -60.5t-4.5 -71.5t-1.5 -61v-470h-100z" />
    <glyph glyph-name="paragraph" unicode="&#xb6;" horiz-adv-x="720" 
d="M594 -165h72q4 -18 0 -37q-34 2 -68 2h-69h-110h-70.5t-86.5 -2q-4 19 0 37h92q5 45 7.5 87.5t2.5 87.5v290h-80q-70 0 -128 23t-92.5 68.5t-34.5 111.5q0 70 33.5 113.5t91.5 63.5t130 20h245q35 0 69 0.5t68 1.5q4 -18 0 -37h-72q-5 -45 -7.5 -87.5t-2.5 -87.5v-480
q0 -45 2.5 -87.5t7.5 -87.5zM529 -163v826h-110v-826h110z" />
    <glyph glyph-name="periodcentered" unicode="&#xb7;" horiz-adv-x="244" 
d="M122 300l55 -30v-65l-55 -30l-55 30v65z" />
    <glyph glyph-name="cedilla" unicode="&#xb8;" horiz-adv-x="204" 
d="M12 -162q20 -13 42 -19.5t41 -6.5q39 0 39 31q0 17 -25.5 31.5t-66.5 23.5l34 102h40l-13 -44q46 -16 73.5 -37t27.5 -59q0 -36 -28.5 -60.5t-74.5 -24.5q-31 0 -54.5 7.5t-46.5 22.5q2 20 12 33z" />
    <glyph glyph-name="uni00B9" unicode="&#xb9;" horiz-adv-x="283" 
d="M198 379h77q2 -15 0 -30q-47 1 -74.5 1h-48.5h-47.5t-75.5 -1q-1 15 0 30h77q4 27 5 55t1 50v157q0 16 -0.5 28t-1.5 26h-83q-3 15 0 30q33 0 62 9t53.5 24t40.5 31q8 -3 16 -9q-4 -27 -5.5 -56t-1.5 -54v-186q0 -25 1.5 -51.5t4.5 -53.5z" />
    <glyph glyph-name="ordmasculine" unicode="&#xba;" horiz-adv-x="402" 
d="M201 650q67 0 110 -41.5t43 -115.5q0 -47 -19.5 -81.5t-53.5 -53t-80 -18.5q-67 0 -110 42t-43 115q0 71 42.5 112t110.5 41zM204 366q25 0 41 14t24 41.5t8 66.5q0 43 -9 73.5t-26.5 46.5t-43.5 16q-24 0 -40.5 -14t-24.5 -41t-8 -67q0 -43 9 -73.5t26.5 -46.5t43.5 -16
z" />
    <glyph glyph-name="guillemotright" unicode="&#xbb;" horiz-adv-x="548" 
d="M315 213q-73 49 -129 96t-108 103q-17 -6 -28 -19q22 -30 42.5 -58t45 -57.5t57.5 -64.5h120zM315 213h-120q-33 -35 -57.5 -64.5t-45 -57.5t-42.5 -58q11 -13 28 -19q52 56 108 103t129 96zM515 213q-73 49 -129 96t-108 103q-17 -6 -28 -19q22 -30 42.5 -58t45 -57.5
t57.5 -64.5h120zM515 213h-120q-33 -35 -57.5 -64.5t-45 -57.5t-42.5 -58q11 -13 28 -19q52 56 108 103t129 96z" />
    <glyph glyph-name="onequarter" unicode="&#xbc;" horiz-adv-x="869" 
d="M220 309h77q2 -15 0 -30q-47 1 -74.5 1h-48.5h-47.5t-75.5 -1q-1 15 0 30h77q4 27 5 55t1 50v157q0 16 -0.5 28t-1.5 26h-83q-3 15 0 30q33 0 62 9t53.5 24t40.5 31q8 -3 16 -9q-4 -27 -5.5 -56t-1.5 -54v-186q0 -25 1.5 -51.5t4.5 -53.5zM560 700l-244 -700
q-25 -3 -50 0l244 700q25 3 50 0zM816 29q1 -3 1.5 -14t-1.5 -16q-32 1 -56 1h-44h-44.5t-56.5 -1q-1 4 -1 14t1 16h57q2 21 3.5 36.5t2 30t0.5 30.5l-1 192l-130 -164h289q-2 -12 -6.5 -27t-10.5 -23h-326q-3 15 -3 32q11 12 22.5 26.5t19.5 24.5l139 177q13 16 24.5 35
t18.5 33q7 1 16 1.5t17.5 0t13.5 -1.5q-4 -30 -6 -66t-2 -54v-186q0 -25 1.5 -48t4.5 -49h57z" />
    <glyph glyph-name="onehalf" unicode="&#xbd;" horiz-adv-x="876" 
d="M216 309h77q2 -15 0 -30q-47 1 -74.5 1h-48.5h-47.5t-75.5 -1q-1 15 0 30h77q4 27 5 55t1 50v157q0 16 -0.5 28t-1.5 26h-83q-3 15 0 30q33 0 62 9t53.5 24t40.5 31q8 -3 16 -9q-4 -27 -5.5 -56t-1.5 -54v-186q0 -25 1.5 -51.5t4.5 -53.5zM556 700l-244 -700
q-25 -3 -50 0l244 700q25 3 50 0zM823 0h-247h-31.5t-32.5 -1q-2 18 0 30l127 115q41 37 62.5 75.5t21.5 90.5q0 49 -16 67t-41 18t-38.5 -17.5t-13.5 -54.5q0 -13 1.5 -24t3.5 -19h-87q-1 7 -3 16.5t-2 20.5q0 50 40.5 81t101.5 31q65 0 104.5 -26.5t39.5 -88.5
q0 -44 -24.5 -79t-71 -73.5t-113.5 -93.5l151 5q22 1 36.5 15.5t17.5 51.5q15 3 30 0z" />
    <glyph glyph-name="threequarters" unicode="&#xbe;" horiz-adv-x="916" 
d="M358 399q0 -40 -21.5 -68.5t-58.5 -44t-84 -15.5q-75 0 -113.5 33.5t-36.5 86.5h86q0 -40 17 -63t50 -23q25 0 40.5 12t23 32t7.5 43q0 47 -21.5 71t-61.5 24q-15 0 -29.5 -1.5t-30.5 -4.5q-1 6 -1 17.5t1 21.5h44q41 0 61.5 24t20.5 55q0 39 -16 57.5t-42 18.5
q-21 0 -34 -10t-19.5 -27.5t-6.5 -38.5h-82q0 34 18.5 58.5t51.5 38t74 13.5q66 0 104.5 -26t38.5 -74q0 -36 -26.5 -61.5t-68.5 -36.5q48 -6 81.5 -35t33.5 -77zM607 700l-244 -700q-25 -3 -50 0l244 700q25 3 50 0zM863 29q1 -3 1.5 -14t-1.5 -16q-32 1 -56 1h-44h-44.5
t-56.5 -1q-1 4 -1 14t1 16h57q2 21 3.5 36.5t2 30t0.5 30.5l-1 192l-130 -164h289q-2 -12 -6.5 -27t-10.5 -23h-326q-3 15 -3 32q11 12 22.5 26.5t19.5 24.5l139 177q13 16 24.5 35t18.5 33q7 1 16 1.5t17.5 0t13.5 -1.5q-4 -30 -6 -66t-2 -54v-186q0 -25 1.5 -48t4.5 -49
h57z" />
    <glyph glyph-name="questiondown" unicode="&#xbf;" horiz-adv-x="483" 
d="M246 -175q44 0 69 34t25 89q0 22 -2 41.5t-6 35.5h110q4 -17 6 -34.5t2 -34.5q0 -49 -25.5 -87.5t-71.5 -61t-108 -22.5q-57 0 -106 17t-78.5 53t-29.5 93q0 43 15 73.5t38.5 54t50.5 46.5t50.5 50.5t38.5 65t15 91.5q18 3 36 0q0 -68 -12.5 -111.5t-31 -73.5t-37 -56.5
t-31 -58.5t-12.5 -81q0 -65 30 -94t65 -29zM256 390l-55 30v65l55 30l55 -30v-65z" />
    <glyph glyph-name="Agrave" unicode="&#xc0;" horiz-adv-x="681" 
d="M-4 -2q-4 19 0 37h57q23 45 40.5 87.5t34.5 87.5l120 309q10 26 23 59.5t25 70.5t17 71q10 2 20 2.5t20 0t20 -2.5l-66 -170l-132 -340q-17 -45 -27 -87.5t-14 -87.5h81q4 -18 0 -37q-41 2 -73.5 2h-49.5h-39.5t-56.5 -2zM623 35h54q4 -18 0 -37q-23 1 -42.5 1.5
t-38.5 0.5h-42h-70.5t-70.5 -2q-4 19 0 37h69q-8 45 -20 87.5t-29 87.5l-126 340l66 170q8 -51 25.5 -99.5t43.5 -120.5l107 -290q17 -45 35 -87.5t39 -87.5zM438 235h-260v40h260v-40zM176 925h125q14 -46 32 -81.5t46 -73.5q-16 -3 -32 0q-20 25 -53 47t-65.5 47.5
t-52.5 60.5z" />
    <glyph glyph-name="Aacute" unicode="&#xc1;" horiz-adv-x="681" 
d="M-4 -2q-4 19 0 37h57q23 45 40.5 87.5t34.5 87.5l120 309q10 26 23 59.5t25 70.5t17 71q10 2 20 2.5t20 0t20 -2.5l-66 -170l-132 -340q-17 -45 -27 -87.5t-14 -87.5h81q4 -18 0 -37q-41 2 -73.5 2h-49.5h-39.5t-56.5 -2zM623 35h54q4 -18 0 -37q-23 1 -42.5 1.5
t-38.5 0.5h-42h-70.5t-70.5 -2q-4 19 0 37h69q-8 45 -20 87.5t-29 87.5l-126 340l66 170q8 -51 25.5 -99.5t43.5 -120.5l107 -290q17 -45 35 -87.5t39 -87.5zM438 235h-260v40h260v-40zM508 925q-19 -35 -52 -60.5t-65.5 -47.5t-53.5 -47q-16 -3 -32 0q28 38 46.5 73.5
t31.5 81.5h125z" />
    <glyph glyph-name="Acircumflex" unicode="&#xc2;" horiz-adv-x="681" 
d="M-4 -2q-4 19 0 37h57q23 45 40.5 87.5t34.5 87.5l120 309q10 26 23 59.5t25 70.5t17 71q10 2 20 2.5t20 0t20 -2.5l-66 -170l-132 -340q-17 -45 -27 -87.5t-14 -87.5h81q4 -18 0 -37q-41 2 -73.5 2h-49.5h-39.5t-56.5 -2zM623 35h54q4 -18 0 -37q-23 1 -42.5 1.5
t-38.5 0.5h-42h-70.5t-70.5 -2q-4 19 0 37h69q-8 45 -20 87.5t-29 87.5l-126 340l66 170q8 -51 25.5 -99.5t43.5 -120.5l107 -290q17 -45 35 -87.5t39 -87.5zM438 235h-260v40h260v-40zM494 762q-36 12 -61.5 22t-46.5 21t-44 25q-23 -14 -44 -25t-46.5 -21t-61.5 -22
q-11 10 -15 22q42 31 66.5 51t43 40t41.5 50q16 3 32 0q23 -30 41.5 -50t43 -40t66.5 -51q-4 -12 -15 -22z" />
    <glyph glyph-name="Atilde" unicode="&#xc3;" horiz-adv-x="681" 
d="M-4 -2q-4 19 0 37h57q23 45 40.5 87.5t34.5 87.5l120 309q10 26 23 59.5t25 70.5t17 71q10 2 20 2.5t20 0t20 -2.5l-66 -170l-132 -340q-17 -45 -27 -87.5t-14 -87.5h81q4 -18 0 -37q-41 2 -73.5 2h-49.5h-39.5t-56.5 -2zM623 35h54q4 -18 0 -37q-23 1 -42.5 1.5
t-38.5 0.5h-42h-70.5t-70.5 -2q-4 19 0 37h69q-8 45 -20 87.5t-29 87.5l-126 340l66 170q8 -51 25.5 -99.5t43.5 -120.5l107 -290q17 -45 35 -87.5t39 -87.5zM438 235h-260v40h260v-40zM474 885q18 -3 28 -9q-7 -64 -34.5 -85t-65.5 -21q-32 0 -54 14t-40.5 27.5t-42.5 13.5
q-16 0 -30 -9t-25 -42q-18 3 -28 9q8 62 34 84.5t65 22.5q31 0 53 -13.5t42 -27.5t43 -14q16 0 30 9t25 41z" />
    <glyph glyph-name="Adieresis" unicode="&#xc4;" horiz-adv-x="681" 
d="M-4 -2q-4 19 0 37h57q23 45 40.5 87.5t34.5 87.5l120 309q10 26 23 59.5t25 70.5t17 71q10 2 20 2.5t20 0t20 -2.5l-66 -170l-132 -340q-17 -45 -27 -87.5t-14 -87.5h81q4 -18 0 -37q-41 2 -73.5 2h-49.5h-39.5t-56.5 -2zM623 35h54q4 -18 0 -37q-23 1 -42.5 1.5
t-38.5 0.5h-42h-70.5t-70.5 -2q-4 19 0 37h69q-8 45 -20 87.5t-29 87.5l-126 340l66 170q8 -51 25.5 -99.5t43.5 -120.5l107 -290q17 -45 35 -87.5t39 -87.5zM438 235h-260v40h260v-40zM232 910l55 -30v-65l-55 -30l-55 30v65zM452 910l55 -30v-65l-55 -30l-55 30v65z" />
    <glyph glyph-name="Aring" unicode="&#xc5;" horiz-adv-x="681" 
d="M-4 -2q-4 19 0 37h57q23 45 40.5 87.5t34.5 87.5l120 309q10 26 23 59.5t25 70.5t17 71q10 2 20 2.5t20 0t20 -2.5l-66 -170l-132 -340q-17 -45 -27 -87.5t-14 -87.5h81q4 -18 0 -37q-41 2 -73.5 2h-49.5h-39.5t-56.5 -2zM623 35h54q4 -18 0 -37q-23 1 -42.5 1.5
t-38.5 0.5h-42h-70.5t-70.5 -2q-4 19 0 37h69q-8 45 -20 87.5t-29 87.5l-126 340l66 170q8 -51 25.5 -99.5t43.5 -120.5l107 -290q17 -45 35 -87.5t39 -87.5zM438 235h-260v40h260v-40zM345 877q47 0 76.5 -25t29.5 -65t-29.5 -65t-76.5 -25q-46 0 -76 25t-30 65t30 65
t76 25zM347 727q18 0 28.5 15t10.5 45t-12.5 45t-30.5 15t-28.5 -15t-10.5 -45t12.5 -45t30.5 -15z" />
    <glyph glyph-name="AE" unicode="&#xc6;" horiz-adv-x="935" 
d="M488 682l-71 -132l-199 -340q-27 -46 -47 -88t-34 -87h76q3 -18 0 -37q-41 2 -73.5 2h-49.5h-39.5t-56.5 -2q-3 19 0 37h57q34 45 61 87t54 88l180 309q19 32 41 75.5t43 87.5h58zM501 235h-280l10 40h270v-40zM503 0v350h55v-140q0 -45 2.5 -85t7.5 -85h320v-40h-385z
M888 40h-172q52 0 81.5 17.5t43 50t15.5 77.5q16 3 32 0v-145zM503 700h350v-40h-285q-5 -45 -7.5 -85t-2.5 -85v-140h-55v350zM853 660v-145q-16 -3 -32 0q-4 75 -33 110t-107 35h172zM756 460q16 3 32 0v-200q-16 -3 -32 0q-1 47 -14.5 63.5t-48.5 16.5h-190v40h190
q35 0 48.5 17t14.5 63zM503 0h-68t-69 -2q-4 19 0 37h72q5 45 7.5 87.5t2.5 87.5v140h55v-350zM503 700v-350h-55v140q0 45 -2.5 87.5t-7.5 87.5h-112q-4 19 0 37q23 -1 56 -1.5t65.5 -0.5h55.5z" />
    <glyph glyph-name="Ccedilla" unicode="&#xc7;" horiz-adv-x="696" 
d="M609 210q16 3 32 0v-176q-35 -19 -93.5 -34t-135.5 -15q-112 0 -193 46t-124 128t-43 191t44.5 191t127.5 128t198 46q69 0 122 -14t87 -31v-175q-16 -3 -32 0q-15 95 -60.5 136.5t-122.5 41.5q-65 0 -110.5 -25t-74 -68.5t-41.5 -100t-13 -119.5t12.5 -122.5t39.5 -107
t72 -75.5t111 -28q49 0 91 19.5t70.5 60t35.5 103.5zM327 -162q20 -13 42 -19.5t41 -6.5q39 0 39 31q0 17 -25.5 31.5t-66.5 23.5l34 102h40l-13 -44q46 -16 73.5 -37t27.5 -59q0 -36 -28.5 -60.5t-74.5 -24.5q-31 0 -54.5 7.5t-46.5 22.5q2 20 12 33z" />
    <glyph glyph-name="Egrave" unicode="&#xc8;" horiz-adv-x="614" 
d="M45 -2q-4 19 0 37h72q5 45 7.5 87.5t2.5 87.5v280q0 45 -2.5 87.5t-7.5 87.5h-72q-4 19 0 37q35 -1 69 -1.5t68 -0.5h350v-185q-16 -3 -32 0q-4 75 -33 110t-107 35h-113q-5 -45 -7.5 -85t-2.5 -85v-280q0 -45 2.5 -85t7.5 -85h148q52 0 81.5 17.5t43 50t15.5 77.5
q16 3 32 0v-185h-385h-68t-69 -2zM435 260q-1 47 -14.5 63.5t-48.5 16.5h-190v40h190q35 0 48.5 17t14.5 63q16 3 32 0v-200q-16 -3 -32 0zM154 925h125q14 -46 32 -81.5t46 -73.5q-16 -3 -32 0q-20 25 -53 47t-65.5 47.5t-52.5 60.5z" />
    <glyph glyph-name="Eacute" unicode="&#xc9;" horiz-adv-x="614" 
d="M45 -2q-4 19 0 37h72q5 45 7.5 87.5t2.5 87.5v280q0 45 -2.5 87.5t-7.5 87.5h-72q-4 19 0 37q35 -1 69 -1.5t68 -0.5h350v-185q-16 -3 -32 0q-4 75 -33 110t-107 35h-113q-5 -45 -7.5 -85t-2.5 -85v-280q0 -45 2.5 -85t7.5 -85h148q52 0 81.5 17.5t43 50t15.5 77.5
q16 3 32 0v-185h-385h-68t-69 -2zM435 260q-1 47 -14.5 63.5t-48.5 16.5h-190v40h190q35 0 48.5 17t14.5 63q16 3 32 0v-200q-16 -3 -32 0zM486 925q-19 -35 -52 -60.5t-65.5 -47.5t-53.5 -47q-16 -3 -32 0q28 38 46.5 73.5t31.5 81.5h125z" />
    <glyph glyph-name="Ecircumflex" unicode="&#xca;" horiz-adv-x="614" 
d="M45 -2q-4 19 0 37h72q5 45 7.5 87.5t2.5 87.5v280q0 45 -2.5 87.5t-7.5 87.5h-72q-4 19 0 37q35 -1 69 -1.5t68 -0.5h350v-185q-16 -3 -32 0q-4 75 -33 110t-107 35h-113q-5 -45 -7.5 -85t-2.5 -85v-280q0 -45 2.5 -85t7.5 -85h148q52 0 81.5 17.5t43 50t15.5 77.5
q16 3 32 0v-185h-385h-68t-69 -2zM435 260q-1 47 -14.5 63.5t-48.5 16.5h-190v40h190q35 0 48.5 17t14.5 63q16 3 32 0v-200q-16 -3 -32 0zM472 762q-36 12 -61.5 22t-46.5 21t-44 25q-23 -14 -44 -25t-46.5 -21t-61.5 -22q-11 10 -15 22q42 31 66.5 51t43 40t41.5 50
q16 3 32 0q23 -30 41.5 -50t43 -40t66.5 -51q-4 -12 -15 -22z" />
    <glyph glyph-name="Edieresis" unicode="&#xcb;" horiz-adv-x="614" 
d="M45 -2q-4 19 0 37h72q5 45 7.5 87.5t2.5 87.5v280q0 45 -2.5 87.5t-7.5 87.5h-72q-4 19 0 37q35 -1 69 -1.5t68 -0.5h350v-185q-16 -3 -32 0q-4 75 -33 110t-107 35h-113q-5 -45 -7.5 -85t-2.5 -85v-280q0 -45 2.5 -85t7.5 -85h148q52 0 81.5 17.5t43 50t15.5 77.5
q16 3 32 0v-185h-385h-68t-69 -2zM435 260q-1 47 -14.5 63.5t-48.5 16.5h-190v40h190q35 0 48.5 17t14.5 63q16 3 32 0v-200q-16 -3 -32 0zM210 910l55 -30v-65l-55 -30l-55 30v65zM430 910l55 -30v-65l-55 -30l-55 30v65z" />
    <glyph glyph-name="Igrave" unicode="&#xcc;" horiz-adv-x="364" 
d="M45 -2q-4 19 0 37h72q5 45 7.5 87.5t2.5 87.5v280q0 45 -2.5 87.5t-7.5 87.5h-72q-4 19 0 37q35 -1 69 -1.5t68 -0.5q35 0 69 0.5t68 1.5q4 -18 0 -37h-72q-5 -45 -7.5 -87.5t-2.5 -87.5v-280q0 -45 2.5 -87.5t7.5 -87.5h72q4 -18 0 -37q-34 2 -68 2h-69h-68t-69 -2z
M16 925h125q14 -46 32 -81.5t46 -73.5q-16 -3 -32 0q-20 25 -53 47t-65.5 47.5t-52.5 60.5z" />
    <glyph glyph-name="Iacute" unicode="&#xcd;" horiz-adv-x="364" 
d="M45 -2q-4 19 0 37h72q5 45 7.5 87.5t2.5 87.5v280q0 45 -2.5 87.5t-7.5 87.5h-72q-4 19 0 37q35 -1 69 -1.5t68 -0.5q35 0 69 0.5t68 1.5q4 -18 0 -37h-72q-5 -45 -7.5 -87.5t-2.5 -87.5v-280q0 -45 2.5 -87.5t7.5 -87.5h72q4 -18 0 -37q-34 2 -68 2h-69h-68t-69 -2z
M348 925q-19 -35 -52 -60.5t-65.5 -47.5t-53.5 -47q-16 -3 -32 0q28 38 46.5 73.5t31.5 81.5h125z" />
    <glyph glyph-name="Icircumflex" unicode="&#xce;" horiz-adv-x="364" 
d="M45 -2q-4 19 0 37h72q5 45 7.5 87.5t2.5 87.5v280q0 45 -2.5 87.5t-7.5 87.5h-72q-4 19 0 37q35 -1 69 -1.5t68 -0.5q35 0 69 0.5t68 1.5q4 -18 0 -37h-72q-5 -45 -7.5 -87.5t-2.5 -87.5v-280q0 -45 2.5 -87.5t7.5 -87.5h72q4 -18 0 -37q-34 2 -68 2h-69h-68t-69 -2z
M334 762q-36 12 -61.5 22t-46.5 21t-44 25q-23 -14 -44 -25t-46.5 -21t-61.5 -22q-11 10 -15 22q42 31 66.5 51t43 40t41.5 50q16 3 32 0q23 -30 41.5 -50t43 -40t66.5 -51q-4 -12 -15 -22z" />
    <glyph glyph-name="Idieresis" unicode="&#xcf;" horiz-adv-x="364" 
d="M45 -2q-4 19 0 37h72q5 45 7.5 87.5t2.5 87.5v280q0 45 -2.5 87.5t-7.5 87.5h-72q-4 19 0 37q35 -1 69 -1.5t68 -0.5q35 0 69 0.5t68 1.5q4 -18 0 -37h-72q-5 -45 -7.5 -87.5t-2.5 -87.5v-280q0 -45 2.5 -87.5t7.5 -87.5h72q4 -18 0 -37q-34 2 -68 2h-69h-68t-69 -2z
M72 910l55 -30v-65l-55 -30l-55 30v65zM292 910l55 -30v-65l-55 -30l-55 30v65z" />
    <glyph glyph-name="Eth" unicode="&#xd0;" horiz-adv-x="787" 
d="M456 340h-410q-4 25 0 50h410q4 -25 0 -50zM184 700h195q108 0 187.5 -38.5t123.5 -113t44 -183.5t-45 -191t-125 -128t-185 -46h-195h-68t-69 -2q-4 19 0 37h72q5 45 7.5 87.5t2.5 87.5v280q0 45 -2.5 87.5t-7.5 87.5h-72q-4 19 0 37q35 -1 69 -1.5t68 -0.5zM249 40h140
q75 0 124 40.5t73 110.5t24 159q0 67 -13 123.5t-41.5 98.5t-74.5 65t-112 23h-120q-5 -45 -7.5 -85t-2.5 -85v-280q0 -45 2.5 -85t7.5 -85z" />
    <glyph glyph-name="Ntilde" unicode="&#xd1;" horiz-adv-x="788" 
d="M607 0q-11 27 -24 51t-27.5 46.5t-30.5 44.5l-344 488l-31 70h45t44.5 0.5t39.5 1.5q11 -25 26 -50t40 -61l275 -391l47 -200q-18 -2 -30 -2t-30 2zM45 -2q-4 19 0 37h67q8 45 11.5 87.5t3.5 87.5v280q0 38 -3.5 80.5t-11.5 94.5h-67q-4 19 0 37q35 -1 61 -1.5t44 -0.5
l31 -70q-3 -30 -5 -66t-2 -74v-280q0 -45 3.5 -87.5t11.5 -87.5h77q4 -18 0 -37q-34 2 -65.5 2h-50.5h-44t-61 -2zM667 0l-47 200v290q0 45 -3.5 84t-11.5 91h-77q-4 19 0 37q35 -1 66.5 -1.5t50.5 -0.5q17 0 43.5 0.5t60.5 1.5q4 -18 0 -37h-67q-8 -52 -11.5 -91t-3.5 -84
v-490zM524 885q18 -3 28 -9q-7 -64 -34.5 -85t-65.5 -21q-32 0 -54 14t-40.5 27.5t-42.5 13.5q-16 0 -30 -9t-25 -42q-18 3 -28 9q8 62 34 84.5t65 22.5q31 0 53 -13.5t42 -27.5t43 -14q16 0 30 9t25 41z" />
    <glyph glyph-name="Ograve" unicode="&#xd2;" horiz-adv-x="796" 
d="M178 360q0 -63 11.5 -122.5t38 -107t70.5 -75.5t110 -28l-10 -42q-107 0 -184.5 46t-119 128t-41.5 191t42.5 191t120 128t182.5 46l-10 -42q-75 0 -121.5 -43.5t-67.5 -114.5t-21 -155zM618 340q0 63 -11.5 122.5t-38 107t-70.5 75.5t-110 28l10 42q108 0 185 -46
t118.5 -128t41.5 -191t-42.5 -191t-120 -128t-182.5 -46l10 42q75 0 121.5 43t67.5 114.5t21 155.5zM232 925h125q14 -46 32 -81.5t46 -73.5q-16 -3 -32 0q-20 25 -53 47t-65.5 47.5t-52.5 60.5z" />
    <glyph glyph-name="Oacute" unicode="&#xd3;" horiz-adv-x="796" 
d="M178 360q0 -63 11.5 -122.5t38 -107t70.5 -75.5t110 -28l-10 -42q-107 0 -184.5 46t-119 128t-41.5 191t42.5 191t120 128t182.5 46l-10 -42q-75 0 -121.5 -43.5t-67.5 -114.5t-21 -155zM618 340q0 63 -11.5 122.5t-38 107t-70.5 75.5t-110 28l10 42q108 0 185 -46
t118.5 -128t41.5 -191t-42.5 -191t-120 -128t-182.5 -46l10 42q75 0 121.5 43t67.5 114.5t21 155.5zM564 925q-19 -35 -52 -60.5t-65.5 -47.5t-53.5 -47q-16 -3 -32 0q28 38 46.5 73.5t31.5 81.5h125z" />
    <glyph glyph-name="Ocircumflex" unicode="&#xd4;" horiz-adv-x="796" 
d="M178 360q0 -63 11.5 -122.5t38 -107t70.5 -75.5t110 -28l-10 -42q-107 0 -184.5 46t-119 128t-41.5 191t42.5 191t120 128t182.5 46l-10 -42q-75 0 -121.5 -43.5t-67.5 -114.5t-21 -155zM618 340q0 63 -11.5 122.5t-38 107t-70.5 75.5t-110 28l10 42q108 0 185 -46
t118.5 -128t41.5 -191t-42.5 -191t-120 -128t-182.5 -46l10 42q75 0 121.5 43t67.5 114.5t21 155.5zM550 762q-36 12 -61.5 22t-46.5 21t-44 25q-23 -14 -44 -25t-46.5 -21t-61.5 -22q-11 10 -15 22q42 31 66.5 51t43 40t41.5 50q16 3 32 0q23 -30 41.5 -50t43 -40t66.5 -51
q-4 -12 -15 -22z" />
    <glyph glyph-name="Otilde" unicode="&#xd5;" horiz-adv-x="796" 
d="M178 360q0 -63 11.5 -122.5t38 -107t70.5 -75.5t110 -28l-10 -42q-107 0 -184.5 46t-119 128t-41.5 191t42.5 191t120 128t182.5 46l-10 -42q-75 0 -121.5 -43.5t-67.5 -114.5t-21 -155zM618 340q0 63 -11.5 122.5t-38 107t-70.5 75.5t-110 28l10 42q108 0 185 -46
t118.5 -128t41.5 -191t-42.5 -191t-120 -128t-182.5 -46l10 42q75 0 121.5 43t67.5 114.5t21 155.5zM530 885q18 -3 28 -9q-7 -64 -34.5 -85t-65.5 -21q-32 0 -54 14t-40.5 27.5t-42.5 13.5q-16 0 -30 -9t-25 -42q-18 3 -28 9q8 62 34 84.5t65 22.5q31 0 53 -13.5t42 -27.5
t43 -14q16 0 30 9t25 41z" />
    <glyph glyph-name="Odieresis" unicode="&#xd6;" horiz-adv-x="796" 
d="M178 360q0 -63 11.5 -122.5t38 -107t70.5 -75.5t110 -28l-10 -42q-107 0 -184.5 46t-119 128t-41.5 191t42.5 191t120 128t182.5 46l-10 -42q-75 0 -121.5 -43.5t-67.5 -114.5t-21 -155zM618 340q0 63 -11.5 122.5t-38 107t-70.5 75.5t-110 28l10 42q108 0 185 -46
t118.5 -128t41.5 -191t-42.5 -191t-120 -128t-182.5 -46l10 42q75 0 121.5 43t67.5 114.5t21 155.5zM288 910l55 -30v-65l-55 -30l-55 30v65zM508 910l55 -30v-65l-55 -30l-55 30v65z" />
    <glyph glyph-name="multiply" unicode="&#xd7;" horiz-adv-x="620" 
d="M561 581l-467 -467q-20 15 -35 35l467 467q20 -15 35 -35zM94 616l467 -467q-15 -20 -35 -35l-467 467q15 20 35 35z" />
    <glyph glyph-name="Oslash" unicode="&#xd8;" horiz-adv-x="810" 
d="M669 730q31 5 61 0q-6 -66 -40 -123.5t-86 -109.5t-112 -101.5t-120 -98.5t-111 -100.5t-83.5 -107.5t-36.5 -119q-30 -5 -61 0q6 66 40 123.5t86 110t112 102t120 98.5t111 100t83.5 107t36.5 119zM185 360q0 -63 11.5 -122.5t38 -107t70.5 -75.5t110 -28l-10 -42
q-107 0 -184.5 46t-119 128t-41.5 191t42.5 191t120 128t182.5 46l-10 -42q-75 0 -121.5 -43.5t-67.5 -114.5t-21 -155zM625 340q0 63 -11.5 122.5t-38 107t-70.5 75.5t-110 28l10 42q108 0 185 -46t118.5 -128t41.5 -191t-42.5 -191t-120 -128t-182.5 -46l10 42
q75 0 121.5 43t67.5 114.5t21 155.5z" />
    <glyph glyph-name="Ugrave" unicode="&#xd9;" horiz-adv-x="739" 
d="M390 -15q-143 0 -209.5 54t-66.5 166v285q0 45 -2.5 87.5t-7.5 87.5h-72q-4 19 0 37q35 -1 69 -1.5t68 -0.5q35 0 69 0.5t68 1.5q4 -18 0 -37h-72q-5 -45 -7.5 -87.5t-2.5 -87.5v-280q0 -94 46 -136t129 -42q89 0 133.5 50.5t44.5 136.5v271q0 45 -3.5 84t-11.5 91h-77
q-4 19 0 37q35 -1 66.5 -1.5t50.5 -0.5q17 0 43.5 0.5t60.5 1.5q4 -18 0 -37h-67q-8 -52 -11.5 -91t-3.5 -84v-285q0 -103 -61 -161.5t-173 -58.5zM228 925h125q14 -46 32 -81.5t46 -73.5q-16 -3 -32 0q-20 25 -53 47t-65.5 47.5t-52.5 60.5z" />
    <glyph glyph-name="Uacute" unicode="&#xda;" horiz-adv-x="739" 
d="M390 -15q-143 0 -209.5 54t-66.5 166v285q0 45 -2.5 87.5t-7.5 87.5h-72q-4 19 0 37q35 -1 69 -1.5t68 -0.5q35 0 69 0.5t68 1.5q4 -18 0 -37h-72q-5 -45 -7.5 -87.5t-2.5 -87.5v-280q0 -94 46 -136t129 -42q89 0 133.5 50.5t44.5 136.5v271q0 45 -3.5 84t-11.5 91h-77
q-4 19 0 37q35 -1 66.5 -1.5t50.5 -0.5q17 0 43.5 0.5t60.5 1.5q4 -18 0 -37h-67q-8 -52 -11.5 -91t-3.5 -84v-285q0 -103 -61 -161.5t-173 -58.5zM560 925q-19 -35 -52 -60.5t-65.5 -47.5t-53.5 -47q-16 -3 -32 0q28 38 46.5 73.5t31.5 81.5h125z" />
    <glyph glyph-name="Ucircumflex" unicode="&#xdb;" horiz-adv-x="739" 
d="M390 -15q-143 0 -209.5 54t-66.5 166v285q0 45 -2.5 87.5t-7.5 87.5h-72q-4 19 0 37q35 -1 69 -1.5t68 -0.5q35 0 69 0.5t68 1.5q4 -18 0 -37h-72q-5 -45 -7.5 -87.5t-2.5 -87.5v-280q0 -94 46 -136t129 -42q89 0 133.5 50.5t44.5 136.5v271q0 45 -3.5 84t-11.5 91h-77
q-4 19 0 37q35 -1 66.5 -1.5t50.5 -0.5q17 0 43.5 0.5t60.5 1.5q4 -18 0 -37h-67q-8 -52 -11.5 -91t-3.5 -84v-285q0 -103 -61 -161.5t-173 -58.5zM546 762q-36 12 -61.5 22t-46.5 21t-44 25q-23 -14 -44 -25t-46.5 -21t-61.5 -22q-11 10 -15 22q42 31 66.5 51t43 40
t41.5 50q16 3 32 0q23 -30 41.5 -50t43 -40t66.5 -51q-4 -12 -15 -22z" />
    <glyph glyph-name="Udieresis" unicode="&#xdc;" horiz-adv-x="739" 
d="M390 -15q-143 0 -209.5 54t-66.5 166v285q0 45 -2.5 87.5t-7.5 87.5h-72q-4 19 0 37q35 -1 69 -1.5t68 -0.5q35 0 69 0.5t68 1.5q4 -18 0 -37h-72q-5 -45 -7.5 -87.5t-2.5 -87.5v-280q0 -94 46 -136t129 -42q89 0 133.5 50.5t44.5 136.5v271q0 45 -3.5 84t-11.5 91h-77
q-4 19 0 37q35 -1 66.5 -1.5t50.5 -0.5q17 0 43.5 0.5t60.5 1.5q4 -18 0 -37h-67q-8 -52 -11.5 -91t-3.5 -84v-285q0 -103 -61 -161.5t-173 -58.5zM284 910l55 -30v-65l-55 -30l-55 30v65zM504 910l55 -30v-65l-55 -30l-55 30v65z" />
    <glyph glyph-name="Yacute" unicode="&#xdd;" horiz-adv-x="642" 
d="M185 -2q-4 19 0 37h72q5 45 7.5 85t2.5 70v13q0 68 -19.5 138t-50.5 133t-66.5 113t-68.5 78h151q5 -18 22 -43t39.5 -61.5t44.5 -88t35 -122.5q10 46 28 92t39.5 88t41.5 73q17 26 23 39t9 23h75q-50 -53 -86.5 -115t-60 -125t-35 -120.5t-11.5 -101.5v-13
q0 -30 2.5 -70t7.5 -85h72q4 -18 0 -37q-34 2 -68 2h-69h-68t-69 -2zM-2 665q-4 19 0 37q35 -1 66.5 -1.5t50.5 -0.5h38.5t55.5 0.5t58 1.5q4 -18 0 -37h-269zM407 665q-4 19 0 37q42 -1 72.5 -1.5t49.5 -0.5q20 0 42 0.5t56 1.5q4 -18 0 -37h-220zM499 925
q-19 -35 -52 -60.5t-65.5 -47.5t-53.5 -47q-16 -3 -32 0q28 38 46.5 73.5t31.5 81.5h125z" />
    <glyph glyph-name="Thorn" unicode="&#xde;" horiz-adv-x="636" 
d="M337 560q73 0 130.5 -19.5t91 -61t33.5 -109.5q0 -69 -34.5 -115.5t-92.5 -70.5t-128 -24h-155v40h165q40 0 69 18.5t45 55t16 89.5q0 75 -35.5 116t-114.5 41h-120v40h130zM45 -2q-4 19 0 37h72q5 45 7.5 87.5t2.5 87.5v280q0 45 -2.5 87.5t-7.5 87.5h-72q-4 19 0 37
q35 -1 69 -1.5t68 -0.5q35 0 69 0.5t68 1.5q4 -18 0 -37h-72q-5 -45 -7.5 -87.5t-2.5 -87.5v-280q0 -45 2.5 -87.5t7.5 -87.5h72q4 -18 0 -37q-34 2 -68 2h-69h-68t-69 -2z" />
    <glyph glyph-name="germandbls" unicode="&#xdf;" horiz-adv-x="599" 
d="M201 400h-165q-3 20 0 40h165v-40zM154 0h-56.5t-58.5 -2q-4 19 0 37h57q5 38 7.5 73t2.5 72v80q0 35 -0.5 70t-4.5 70h100v-220q0 -37 2.5 -76.5t7.5 -103.5h-57zM389 400q0 -29 17 -52t42.5 -45t50.5 -47.5t42 -59.5t17 -81q0 -35 -18.5 -65t-53.5 -47.5t-85 -17.5
q-26 0 -54 3.5t-73 16.5v118q16 3 32 0q7 -46 32.5 -72t65.5 -26q34 0 51.5 18.5t17.5 52.5q0 33 -15.5 56t-38.5 41.5t-46 39.5t-38.5 50t-15.5 72q0 35 11 57.5t25 42t25 43t11 60.5q0 56 -23 91.5t-65 35.5q-28 0 -47.5 -15t-31.5 -46t-17.5 -76.5t-5.5 -107.5h-102
q5 94 30.5 156t69.5 93t107 31q60 0 100 -27.5t60 -79t20 -122.5q-26 0 -48 -11.5t-35.5 -32t-13.5 -47.5z" />
    <glyph glyph-name="agrave" unicode="&#xe0;" horiz-adv-x="510" 
d="M187 -15q-64 0 -106.5 34.5t-42.5 94.5q0 45 24 75t65.5 45.5t92.5 15.5q38 0 63 -6t43 -13v-40q-41 19 -84 19t-73.5 -22.5t-30.5 -70.5q0 -40 19 -64.5t56 -24.5q38 0 64.5 17.5t48.5 39.5l6 -40q-26 -25 -58 -42.5t-87 -17.5zM421 304v-219q0 -29 15.5 -39.5
t46.5 -10.5q3 -18 0 -37q-16 -4 -34.5 -6t-32.5 -2q-40 0 -58.5 15t-25.5 40l-6 40v212q0 61 -19.5 91t-63.5 30q-41 0 -62.5 -23.5t-17.5 -69.5h-100q0 33 22.5 62.5t65 48.5t103.5 19q80 0 123.5 -37t43.5 -114zM117 690h115q7 -43 21 -83.5t42 -86.5q-16 -3 -32 0
q-20 31 -48.5 56.5t-55.5 52.5t-42 61z" />
    <glyph glyph-name="aacute" unicode="&#xe1;" horiz-adv-x="510" 
d="M187 -15q-64 0 -106.5 34.5t-42.5 94.5q0 45 24 75t65.5 45.5t92.5 15.5q38 0 63 -6t43 -13v-40q-41 19 -84 19t-73.5 -22.5t-30.5 -70.5q0 -40 19 -64.5t56 -24.5q38 0 64.5 17.5t48.5 39.5l6 -40q-26 -25 -58 -42.5t-87 -17.5zM421 304v-219q0 -29 15.5 -39.5
t46.5 -10.5q3 -18 0 -37q-16 -4 -34.5 -6t-32.5 -2q-40 0 -58.5 15t-25.5 40l-6 40v212q0 61 -19.5 91t-63.5 30q-41 0 -62.5 -23.5t-17.5 -69.5h-100q0 33 22.5 62.5t65 48.5t103.5 19q80 0 123.5 -37t43.5 -114zM394 690q-15 -34 -42 -61t-55.5 -52.5t-48.5 -56.5
q-16 -3 -32 0q28 46 42 86.5t21 83.5h115z" />
    <glyph glyph-name="acircumflex" unicode="&#xe2;" horiz-adv-x="510" 
d="M187 -15q-64 0 -106.5 34.5t-42.5 94.5q0 45 24 75t65.5 45.5t92.5 15.5q38 0 63 -6t43 -13v-40q-41 19 -84 19t-73.5 -22.5t-30.5 -70.5q0 -40 19 -64.5t56 -24.5q38 0 64.5 17.5t48.5 39.5l6 -40q-26 -25 -58 -42.5t-87 -17.5zM421 304v-219q0 -29 15.5 -39.5
t46.5 -10.5q3 -18 0 -37q-16 -4 -34.5 -6t-32.5 -2q-40 0 -58.5 15t-25.5 40l-6 40v212q0 61 -19.5 91t-63.5 30q-41 0 -62.5 -23.5t-17.5 -69.5h-100q0 33 22.5 62.5t65 48.5t103.5 19q80 0 123.5 -37t43.5 -114zM381 515q-31 15 -53 28.5t-40 26.5t-38 26q-20 -13 -38 -26
t-40 -26.5t-53 -28.5q-12 9 -17 22q35 33 56 55.5t38 45t38 52.5q16 3 32 0l38.5 -52.5t38 -45t55.5 -55.5q-5 -13 -17 -22z" />
    <glyph glyph-name="atilde" unicode="&#xe3;" horiz-adv-x="510" 
d="M187 -15q-64 0 -106.5 34.5t-42.5 94.5q0 45 24 75t65.5 45.5t92.5 15.5q38 0 63 -6t43 -13v-40q-41 19 -84 19t-73.5 -22.5t-30.5 -70.5q0 -40 19 -64.5t56 -24.5q38 0 64.5 17.5t48.5 39.5l6 -40q-26 -25 -58 -42.5t-87 -17.5zM421 304v-219q0 -29 15.5 -39.5
t46.5 -10.5q3 -18 0 -37q-16 -4 -34.5 -6t-32.5 -2q-40 0 -58.5 15t-25.5 40l-6 40v212q0 61 -19.5 91t-63.5 30q-41 0 -62.5 -23.5t-17.5 -69.5h-100q0 33 22.5 62.5t65 48.5t103.5 19q80 0 123.5 -37t43.5 -114zM366 654q19 -3 30 -13q-7 -40 -23.5 -62t-37 -30.5
t-40.5 -8.5q-19 0 -33 8t-26 18t-23 18t-24 8q-16 0 -29.5 -7.5t-24.5 -39.5q-19 3 -30 13q11 59 40 80.5t60 21.5q24 0 41 -13t33 -26t33 -13q16 0 29.5 7.5t24.5 38.5z" />
    <glyph glyph-name="adieresis" unicode="&#xe4;" horiz-adv-x="510" 
d="M187 -15q-64 0 -106.5 34.5t-42.5 94.5q0 45 24 75t65.5 45.5t92.5 15.5q38 0 63 -6t43 -13v-40q-41 19 -84 19t-73.5 -22.5t-30.5 -70.5q0 -40 19 -64.5t56 -24.5q38 0 64.5 17.5t48.5 39.5l6 -40q-26 -25 -58 -42.5t-87 -17.5zM421 304v-219q0 -29 15.5 -39.5
t46.5 -10.5q3 -18 0 -37q-16 -4 -34.5 -6t-32.5 -2q-40 0 -58.5 15t-25.5 40l-6 40v212q0 61 -19.5 91t-63.5 30q-41 0 -62.5 -23.5t-17.5 -69.5h-100q0 33 22.5 62.5t65 48.5t103.5 19q80 0 123.5 -37t43.5 -114zM150 670l55 -30v-65l-55 -30l-55 30v65zM350 670l55 -30
v-65l-55 -30l-55 30v65z" />
    <glyph glyph-name="aring" unicode="&#xe5;" horiz-adv-x="510" 
d="M187 -15q-64 0 -106.5 34.5t-42.5 94.5q0 45 24 75t65.5 45.5t92.5 15.5q38 0 63 -6t43 -13v-40q-41 19 -84 19t-73.5 -22.5t-30.5 -70.5q0 -40 19 -64.5t56 -24.5q38 0 64.5 17.5t48.5 39.5l6 -40q-26 -25 -58 -42.5t-87 -17.5zM421 304v-219q0 -29 15.5 -39.5
t46.5 -10.5q3 -18 0 -37q-16 -4 -34.5 -6t-32.5 -2q-40 0 -58.5 15t-25.5 40l-6 40v212q0 61 -19.5 91t-63.5 30q-41 0 -62.5 -23.5t-17.5 -69.5h-100q0 33 22.5 62.5t65 48.5t103.5 19q80 0 123.5 -37t43.5 -114zM250 695q47 0 76.5 -25t29.5 -65t-29.5 -65t-76.5 -25
q-46 0 -76 25t-30 65t30 65t76 25zM252 545q18 0 28.5 15t10.5 45t-12.5 45t-30.5 15t-28.5 -15t-10.5 -45t12.5 -45t30.5 -15z" />
    <glyph glyph-name="ae" unicode="&#xe6;" horiz-adv-x="797" 
d="M413 304v-153l-82 49l-3 37v57q0 61 -17.5 92.5t-61.5 31.5q-41 0 -64.5 -23.5t-19.5 -69.5h-100q0 33 23.5 62.5t66 48.5t99.5 19t92 -16.5t51 -49.5t16 -85zM199 -15q-43 0 -79 15t-58 45t-22 75q0 48 26.5 78t69.5 43.5t91 13.5q30 0 56 -4.5t45 -13.5l3 -37
q-21 11 -45.5 15.5t-53.5 4.5q-42 0 -67 -27t-25 -72q0 -40 22 -68t62 -28q31 0 63.5 19t66.5 62l16 -34q-29 -38 -57.5 -56.5t-56.5 -24.5t-57 -6zM546 -15q-63 0 -112.5 26t-77.5 78.5t-28 130.5q0 77 29 129t80 79t117 27q62 0 106.5 -23t68.5 -71t24 -123q-26 3 -55 5
t-70 2h-208v35h227q0 70 -28.5 104t-70.5 34q-36 0 -62.5 -23.5t-41 -66.5t-14.5 -104q0 -95 39.5 -142t104.5 -47q40 0 77 19.5t73 65.5q8 -5 14.5 -11t13.5 -14q-43 -55 -93.5 -82.5t-112.5 -27.5z" />
    <glyph glyph-name="ccedilla" unicode="&#xe7;" horiz-adv-x="484" 
d="M264 -15q-65 0 -114.5 28.5t-77 81t-27.5 125.5q0 74 29 126.5t82.5 80.5t124.5 28q47 0 82.5 -10.5t61.5 -29.5v-135q-16 -3 -32 0q-13 65 -44 100t-75 35q-39 0 -67 -22.5t-42.5 -65t-14.5 -103.5q0 -55 18.5 -98t50.5 -67t71 -24q23 0 44 7t42.5 23.5t45.5 44.5
q8 -5 14.5 -11t13.5 -14q-28 -34 -57 -56t-60 -33t-69 -11zM192 -162q20 -13 42 -19.5t41 -6.5q39 0 39 31q0 17 -25.5 31.5t-66.5 23.5l34 102h40l-13 -44q46 -16 73.5 -37t27.5 -59q0 -36 -28.5 -60.5t-74.5 -24.5q-31 0 -54.5 7.5t-46.5 22.5q2 20 12 33z" />
    <glyph glyph-name="egrave" unicode="&#xe8;" horiz-adv-x="515" 
d="M264 -15q-63 0 -112.5 26t-77.5 78.5t-28 130.5q0 77 29 129t80 79t117 27q62 0 106.5 -23t68.5 -71t24 -123q-26 3 -55 5t-70 2h-208v35h227q0 70 -28.5 104t-70.5 34q-36 0 -62.5 -23.5t-41 -66.5t-14.5 -104q0 -95 39.5 -142t104.5 -47q40 0 77 19.5t73 65.5
q8 -5 14.5 -11t13.5 -14q-43 -55 -93.5 -82.5t-112.5 -27.5zM132 690h115q7 -43 21 -83.5t42 -86.5q-16 -3 -32 0q-20 31 -48.5 56.5t-55.5 52.5t-42 61z" />
    <glyph glyph-name="eacute" unicode="&#xe9;" horiz-adv-x="515" 
d="M264 -15q-63 0 -112.5 26t-77.5 78.5t-28 130.5q0 77 29 129t80 79t117 27q62 0 106.5 -23t68.5 -71t24 -123q-26 3 -55 5t-70 2h-208v35h227q0 70 -28.5 104t-70.5 34q-36 0 -62.5 -23.5t-41 -66.5t-14.5 -104q0 -95 39.5 -142t104.5 -47q40 0 77 19.5t73 65.5
q8 -5 14.5 -11t13.5 -14q-43 -55 -93.5 -82.5t-112.5 -27.5zM409 690q-15 -34 -42 -61t-55.5 -52.5t-48.5 -56.5q-16 -3 -32 0q28 46 42 86.5t21 83.5h115z" />
    <glyph glyph-name="ecircumflex" unicode="&#xea;" horiz-adv-x="515" 
d="M264 -15q-63 0 -112.5 26t-77.5 78.5t-28 130.5q0 77 29 129t80 79t117 27q62 0 106.5 -23t68.5 -71t24 -123q-26 3 -55 5t-70 2h-208v35h227q0 70 -28.5 104t-70.5 34q-36 0 -62.5 -23.5t-41 -66.5t-14.5 -104q0 -95 39.5 -142t104.5 -47q40 0 77 19.5t73 65.5
q8 -5 14.5 -11t13.5 -14q-43 -55 -93.5 -82.5t-112.5 -27.5zM396 515q-31 15 -53 28.5t-40 26.5t-38 26q-20 -13 -38 -26t-40 -26.5t-53 -28.5q-12 9 -17 22q35 33 56 55.5t38 45t38 52.5q16 3 32 0l38.5 -52.5t38 -45t55.5 -55.5q-5 -13 -17 -22z" />
    <glyph glyph-name="edieresis" unicode="&#xeb;" horiz-adv-x="515" 
d="M264 -15q-63 0 -112.5 26t-77.5 78.5t-28 130.5q0 77 29 129t80 79t117 27q62 0 106.5 -23t68.5 -71t24 -123q-26 3 -55 5t-70 2h-208v35h227q0 70 -28.5 104t-70.5 34q-36 0 -62.5 -23.5t-41 -66.5t-14.5 -104q0 -95 39.5 -142t104.5 -47q40 0 77 19.5t73 65.5
q8 -5 14.5 -11t13.5 -14q-43 -55 -93.5 -82.5t-112.5 -27.5zM165 670l55 -30v-65l-55 -30l-55 30v65zM365 670l55 -30v-65l-55 -30l-55 30v65z" />
    <glyph glyph-name="igrave" unicode="&#xec;" horiz-adv-x="303" 
d="M274 35q4 -18 0 -37q-34 2 -62 2h-57h-57t-63 -2q-4 19 0 37h62q5 38 7.5 73t2.5 72v80q0 72 -10 143h-57q-4 19 0 37q39 0 85 2.5t92 10.5q-6 -25 -9 -60.5t-4.5 -71.5t-1.5 -61v-80q0 -37 2.5 -72t7.5 -73h62zM22 690h115q7 -43 21 -83.5t42 -86.5q-16 -3 -32 0
q-20 31 -48.5 56.5t-55.5 52.5t-42 61z" />
    <glyph glyph-name="iacute" unicode="&#xed;" horiz-adv-x="303" 
d="M274 35q4 -18 0 -37q-34 2 -62 2h-57h-57t-63 -2q-4 19 0 37h62q5 38 7.5 73t2.5 72v80q0 72 -10 143h-57q-4 19 0 37q39 0 85 2.5t92 10.5q-6 -25 -9 -60.5t-4.5 -71.5t-1.5 -61v-80q0 -37 2.5 -72t7.5 -73h62zM299 690q-15 -34 -42 -61t-55.5 -52.5t-48.5 -56.5
q-16 -3 -32 0q28 46 42 86.5t21 83.5h115z" />
    <glyph glyph-name="icircumflex" unicode="&#xee;" horiz-adv-x="303" 
d="M274 35q4 -18 0 -37q-34 2 -62 2h-57h-57t-63 -2q-4 19 0 37h62q5 38 7.5 73t2.5 72v80q0 72 -10 143h-57q-4 19 0 37q39 0 85 2.5t92 10.5q-6 -25 -9 -60.5t-4.5 -71.5t-1.5 -61v-80q0 -37 2.5 -72t7.5 -73h62zM286 515q-31 15 -53 28.5t-40 26.5t-38 26
q-20 -13 -38 -26t-40 -26.5t-53 -28.5q-12 9 -17 22q35 33 56 55.5t38 45t38 52.5q16 3 32 0l38.5 -52.5t38 -45t55.5 -55.5q-5 -13 -17 -22z" />
    <glyph glyph-name="idieresis" unicode="&#xef;" horiz-adv-x="303" 
d="M274 35q4 -18 0 -37q-34 2 -62 2h-57h-57t-63 -2q-4 19 0 37h62q5 38 7.5 73t2.5 72v80q0 72 -10 143h-57q-4 19 0 37q39 0 85 2.5t92 10.5q-6 -25 -9 -60.5t-4.5 -71.5t-1.5 -61v-80q0 -37 2.5 -72t7.5 -73h62zM55 670l55 -30v-65l-55 -30l-55 30v65zM255 670l55 -30
v-65l-55 -30l-55 30v65z" />
    <glyph glyph-name="eth" unicode="&#xf0;" horiz-adv-x="557" 
d="M268 395q-36 0 -62.5 -22t-41 -62.5t-14.5 -96.5q0 -58 16 -100.5t45 -65.5t67 -23l-5 -40q-66 0 -117.5 27.5t-81 79t-29.5 122.5q0 69 28.5 118.5t79.5 76t120 26.5zM278 25q37 0 63 22t40.5 63t14.5 96q3 55 -3 117t-25 121.5t-54 109t-89.5 81.5t-131.5 38
q-1 11 0.5 20.5t5.5 16.5q94 -6 162.5 -37t114.5 -78.5t73.5 -105.5t39.5 -118t12 -115q0 -93 -28 -153t-79.5 -89t-120.5 -29zM396 206q0 59 -16 101t-44.5 65t-67.5 23l5 40q77 0 122.5 -61t45.5 -168h-45zM386 708l-198 -198q-16 12 -28 28l198 198q16 -12 28 -28z" />
    <glyph glyph-name="ntilde" unicode="&#xf1;" horiz-adv-x="583" 
d="M37 -2q-4 19 0 37h57q5 38 7.5 73t2.5 72v80q0 72 -10 143h-52q-4 19 0 37q35 0 75 2.5t82 10.5q-5 -18 -7.5 -40.5t-2.5 -37.5l10 -45v-150q0 -37 2.5 -72t7.5 -73h57q4 -18 0 -37q-31 2 -58 2h-56h-56.5t-58.5 -2zM327 -2q-4 19 0 37h57q5 38 7.5 73t2.5 72v136
q0 37 -17 63t-63 26q-35 0 -65 -18.5t-50 -56.5l-10 45q27 38 67.5 59t95.5 21q59 0 90 -22t50 -57l-2 -30t-1 -30v-136q0 -37 2.5 -72t7.5 -73h57q4 -18 0 -37q-31 2 -58 2h-56h-56.5t-58.5 -2zM423 654q19 -3 30 -13q-7 -40 -23.5 -62t-37 -30.5t-40.5 -8.5q-19 0 -33 8
t-26 18t-23 18t-24 8q-16 0 -29.5 -7.5t-24.5 -39.5q-19 3 -30 13q11 59 40 80.5t60 21.5q24 0 41 -13t33 -26t33 -13q16 0 29.5 7.5t24.5 38.5z" />
    <glyph glyph-name="ograve" unicode="&#xf2;" horiz-adv-x="546" 
d="M268 415q-36 0 -62.5 -20t-41 -61.5t-14.5 -104.5q0 -70 16 -115.5t45 -67t67 -21.5l-5 -40q-66 0 -117.5 29t-81 83t-29.5 127q0 71 28.5 123t79.5 80t120 28zM278 25q37 0 63 20.5t40.5 61.5t14.5 104q0 71 -16 116t-44.5 66.5t-67.5 21.5l5 40q67 0 118 -29
t80.5 -82.5t29.5 -127.5q0 -71 -28 -123t-79.5 -80t-120.5 -28zM140 690h115q7 -43 21 -83.5t42 -86.5q-16 -3 -32 0q-20 31 -48.5 56.5t-55.5 52.5t-42 61z" />
    <glyph glyph-name="oacute" unicode="&#xf3;" horiz-adv-x="546" 
d="M268 415q-36 0 -62.5 -20t-41 -61.5t-14.5 -104.5q0 -70 16 -115.5t45 -67t67 -21.5l-5 -40q-66 0 -117.5 29t-81 83t-29.5 127q0 71 28.5 123t79.5 80t120 28zM278 25q37 0 63 20.5t40.5 61.5t14.5 104q0 71 -16 116t-44.5 66.5t-67.5 21.5l5 40q67 0 118 -29
t80.5 -82.5t29.5 -127.5q0 -71 -28 -123t-79.5 -80t-120.5 -28zM417 690q-15 -34 -42 -61t-55.5 -52.5t-48.5 -56.5q-16 -3 -32 0q28 46 42 86.5t21 83.5h115z" />
    <glyph glyph-name="ocircumflex" unicode="&#xf4;" horiz-adv-x="546" 
d="M268 415q-36 0 -62.5 -20t-41 -61.5t-14.5 -104.5q0 -70 16 -115.5t45 -67t67 -21.5l-5 -40q-66 0 -117.5 29t-81 83t-29.5 127q0 71 28.5 123t79.5 80t120 28zM278 25q37 0 63 20.5t40.5 61.5t14.5 104q0 71 -16 116t-44.5 66.5t-67.5 21.5l5 40q67 0 118 -29
t80.5 -82.5t29.5 -127.5q0 -71 -28 -123t-79.5 -80t-120.5 -28zM404 515q-31 15 -53 28.5t-40 26.5t-38 26q-20 -13 -38 -26t-40 -26.5t-53 -28.5q-12 9 -17 22q35 33 56 55.5t38 45t38 52.5q16 3 32 0l38.5 -52.5t38 -45t55.5 -55.5q-5 -13 -17 -22z" />
    <glyph glyph-name="otilde" unicode="&#xf5;" horiz-adv-x="546" 
d="M268 415q-36 0 -62.5 -20t-41 -61.5t-14.5 -104.5q0 -70 16 -115.5t45 -67t67 -21.5l-5 -40q-66 0 -117.5 29t-81 83t-29.5 127q0 71 28.5 123t79.5 80t120 28zM278 25q37 0 63 20.5t40.5 61.5t14.5 104q0 71 -16 116t-44.5 66.5t-67.5 21.5l5 40q67 0 118 -29
t80.5 -82.5t29.5 -127.5q0 -71 -28 -123t-79.5 -80t-120.5 -28zM389 654q19 -3 30 -13q-7 -40 -23.5 -62t-37 -30.5t-40.5 -8.5q-19 0 -33 8t-26 18t-23 18t-24 8q-16 0 -29.5 -7.5t-24.5 -39.5q-19 3 -30 13q11 59 40 80.5t60 21.5q24 0 41 -13t33 -26t33 -13
q16 0 29.5 7.5t24.5 38.5z" />
    <glyph glyph-name="odieresis" unicode="&#xf6;" horiz-adv-x="546" 
d="M268 415q-36 0 -62.5 -20t-41 -61.5t-14.5 -104.5q0 -70 16 -115.5t45 -67t67 -21.5l-5 -40q-66 0 -117.5 29t-81 83t-29.5 127q0 71 28.5 123t79.5 80t120 28zM278 25q37 0 63 20.5t40.5 61.5t14.5 104q0 71 -16 116t-44.5 66.5t-67.5 21.5l5 40q67 0 118 -29
t80.5 -82.5t29.5 -127.5q0 -71 -28 -123t-79.5 -80t-120.5 -28zM173 670l55 -30v-65l-55 -30l-55 30v65zM373 670l55 -30v-65l-55 -30l-55 30v65z" />
    <glyph glyph-name="divide" unicode="&#xf7;" horiz-adv-x="620" 
d="M550 340h-480q-4 25 0 50h480q4 -25 0 -50zM310 244l50 -27v-59l-50 -28l-50 28v59zM310 599l50 -27v-59l-50 -28l-50 28v59z" />
    <glyph glyph-name="oslash" unicode="&#xf8;" horiz-adv-x="552" 
d="M435 480q26 4 51 0q-7 -59 -36.5 -106.5t-70.5 -88t-86 -77.5t-84.5 -74.5t-64.5 -79.5t-27 -94q-25 -4 -51 0q8 59 37 106.5t70 88t86 77.5t84.5 74.5t64.5 80t27 93.5zM271 415q-36 0 -62.5 -20t-41 -61.5t-14.5 -104.5q0 -70 16 -115.5t45 -67t67 -21.5l-5 -40
q-66 0 -117.5 29t-81 83t-29.5 127q0 71 28.5 123t79.5 80t120 28zM281 25q37 0 63 20.5t40.5 61.5t14.5 104q0 71 -16 116t-44.5 66.5t-67.5 21.5l5 40q67 0 118 -29t80.5 -82.5t29.5 -127.5q0 -71 -28 -123t-79.5 -80t-120.5 -28z" />
    <glyph glyph-name="ugrave" unicode="&#xf9;" horiz-adv-x="564" 
d="M373 110l10 -45q-27 -38 -65 -59t-93 -21t-85 22.5t-50 56.5q2 15 2.5 30t0.5 30v136q0 72 -10 143h-52q-4 19 0 37q39 0 82.5 2.5t89.5 10.5q-6 -25 -9 -60.5t-4.5 -71.5t-1.5 -61v-136q0 -37 16.5 -63t58.5 -26q35 0 62.5 18.5t47.5 56.5zM530 37q4 -18 0 -37
q-35 0 -75 -2.5t-82 -10.5q5 18 7.5 40.5t2.5 37.5l-10 45v150q0 72 -10 143h-57q-4 19 0 37q39 0 85 2.5t92 10.5q-6 -25 -9 -60.5t-4.5 -71.5t-1.5 -61v-80q0 -72 10 -143h52zM148 690h115q7 -43 21 -83.5t42 -86.5q-16 -3 -32 0q-20 31 -48.5 56.5t-55.5 52.5t-42 61z
" />
    <glyph glyph-name="uacute" unicode="&#xfa;" horiz-adv-x="564" 
d="M373 110l10 -45q-27 -38 -65 -59t-93 -21t-85 22.5t-50 56.5q2 15 2.5 30t0.5 30v136q0 72 -10 143h-52q-4 19 0 37q39 0 82.5 2.5t89.5 10.5q-6 -25 -9 -60.5t-4.5 -71.5t-1.5 -61v-136q0 -37 16.5 -63t58.5 -26q35 0 62.5 18.5t47.5 56.5zM530 37q4 -18 0 -37
q-35 0 -75 -2.5t-82 -10.5q5 18 7.5 40.5t2.5 37.5l-10 45v150q0 72 -10 143h-57q-4 19 0 37q39 0 85 2.5t92 10.5q-6 -25 -9 -60.5t-4.5 -71.5t-1.5 -61v-80q0 -72 10 -143h52zM425 690q-15 -34 -42 -61t-55.5 -52.5t-48.5 -56.5q-16 -3 -32 0q28 46 42 86.5t21 83.5h115z
" />
    <glyph glyph-name="ucircumflex" unicode="&#xfb;" horiz-adv-x="564" 
d="M373 110l10 -45q-27 -38 -65 -59t-93 -21t-85 22.5t-50 56.5q2 15 2.5 30t0.5 30v136q0 72 -10 143h-52q-4 19 0 37q39 0 82.5 2.5t89.5 10.5q-6 -25 -9 -60.5t-4.5 -71.5t-1.5 -61v-136q0 -37 16.5 -63t58.5 -26q35 0 62.5 18.5t47.5 56.5zM530 37q4 -18 0 -37
q-35 0 -75 -2.5t-82 -10.5q5 18 7.5 40.5t2.5 37.5l-10 45v150q0 72 -10 143h-57q-4 19 0 37q39 0 85 2.5t92 10.5q-6 -25 -9 -60.5t-4.5 -71.5t-1.5 -61v-80q0 -72 10 -143h52zM412 515q-31 15 -53 28.5t-40 26.5t-38 26q-20 -13 -38 -26t-40 -26.5t-53 -28.5q-12 9 -17 22
q35 33 56 55.5t38 45t38 52.5q16 3 32 0l38.5 -52.5t38 -45t55.5 -55.5q-5 -13 -17 -22z" />
    <glyph glyph-name="udieresis" unicode="&#xfc;" horiz-adv-x="564" 
d="M373 110l10 -45q-27 -38 -65 -59t-93 -21t-85 22.5t-50 56.5q2 15 2.5 30t0.5 30v136q0 72 -10 143h-52q-4 19 0 37q39 0 82.5 2.5t89.5 10.5q-6 -25 -9 -60.5t-4.5 -71.5t-1.5 -61v-136q0 -37 16.5 -63t58.5 -26q35 0 62.5 18.5t47.5 56.5zM530 37q4 -18 0 -37
q-35 0 -75 -2.5t-82 -10.5q5 18 7.5 40.5t2.5 37.5l-10 45v150q0 72 -10 143h-57q-4 19 0 37q39 0 85 2.5t92 10.5q-6 -25 -9 -60.5t-4.5 -71.5t-1.5 -61v-80q0 -72 10 -143h52zM181 670l55 -30v-65l-55 -30l-55 30v65zM381 670l55 -30v-65l-55 -30l-55 30v65z" />
    <glyph glyph-name="yacute" unicode="&#xfd;" horiz-adv-x="548" 
d="M225 5q-55 0 -85 22.5t-50 56.5q2 15 2.5 30t0.5 30v116q0 72 -10 143h-52q-4 19 0 37q39 0 82.5 2.5t89.5 10.5q-6 -25 -9 -60.5t-4.5 -71.5t-1.5 -61v-116q0 -37 16.5 -63t58.5 -26q35 0 62.5 18.5t47.5 56.5v-56q-16 -23 -36.5 -38.5t-47.5 -23t-64 -7.5zM306 440
q39 0 85 2.5t92 10.5q-6 -25 -9 -60.5t-4.5 -71.5t-1.5 -61v-190q0 -95 -34.5 -161t-91 -100t-123.5 -34q-76 0 -123.5 30.5t-47.5 88.5q0 51 34.5 84.5t80.5 55.5l28 -17q-37 -24 -50 -51.5t-13 -61.5q0 -42 21 -65.5t70 -23.5q58 0 91.5 30.5t48 78.5t14.5 100v236
q0 72 -10 143h-57q-4 19 0 37zM424 690q-15 -34 -42 -61t-55.5 -52.5t-48.5 -56.5q-16 -3 -32 0q28 46 42 86.5t21 83.5h115z" />
    <glyph glyph-name="thorn" unicode="&#xfe;" horiz-adv-x="554" 
d="M260 -175q4 -18 0 -37q-46 2 -75.5 2h-58.5h-56.5t-58.5 -2q-4 19 0 37h57q5 38 7.5 73t2.5 72v550q0 72 -10 143h-57q-4 19 0 37q35 0 83 2.5t94 10.5q-6 -25 -9 -60.5t-4.5 -71.5t-1.5 -61v-550q0 -37 2.5 -72t7.5 -73h77zM312 455q54 0 98.5 -25t71 -75.5t26.5 -127.5
t-29 -131t-81 -82.5t-122 -28.5q-64 0 -106.5 22t-74.5 55l78 76q0 -46 17 -70.5t41.5 -33.5t47.5 -9q59 0 91.5 48t32.5 142q0 100 -32.5 147.5t-85.5 47.5q-40 0 -65.5 -23t-46.5 -57l-10 45q20 33 58 56.5t91 23.5z" />
    <glyph glyph-name="ydieresis" unicode="&#xff;" horiz-adv-x="548" 
d="M225 5q-55 0 -85 22.5t-50 56.5q2 15 2.5 30t0.5 30v116q0 72 -10 143h-52q-4 19 0 37q39 0 82.5 2.5t89.5 10.5q-6 -25 -9 -60.5t-4.5 -71.5t-1.5 -61v-116q0 -37 16.5 -63t58.5 -26q35 0 62.5 18.5t47.5 56.5v-56q-16 -23 -36.5 -38.5t-47.5 -23t-64 -7.5zM306 440
q39 0 85 2.5t92 10.5q-6 -25 -9 -60.5t-4.5 -71.5t-1.5 -61v-190q0 -95 -34.5 -161t-91 -100t-123.5 -34q-76 0 -123.5 30.5t-47.5 88.5q0 51 34.5 84.5t80.5 55.5l28 -17q-37 -24 -50 -51.5t-13 -61.5q0 -42 21 -65.5t70 -23.5q58 0 91.5 30.5t48 78.5t14.5 100v236
q0 72 -10 143h-57q-4 19 0 37zM180 670l55 -30v-65l-55 -30l-55 30v65zM380 670l55 -30v-65l-55 -30l-55 30v65z" />
    <glyph glyph-name="Amacron" unicode="&#x100;" horiz-adv-x="681" 
d="M-4 -2q-4 19 0 37h57q23 45 40.5 87.5t34.5 87.5l120 309q10 26 23 59.5t25 70.5t17 71q10 2 20 2.5t20 0t20 -2.5l-66 -170l-132 -340q-17 -45 -27 -87.5t-14 -87.5h81q4 -18 0 -37q-41 2 -73.5 2h-49.5h-39.5t-56.5 -2zM623 35h54q4 -18 0 -37q-23 1 -42.5 1.5
t-38.5 0.5h-42h-70.5t-70.5 -2q-4 19 0 37h69q-8 45 -20 87.5t-29 87.5l-126 340l66 170q8 -51 25.5 -99.5t43.5 -120.5l107 -290q17 -45 35 -87.5t39 -87.5zM438 235h-260v40h260v-40zM482 785h-280q-2 13 -2 30t2 30h280q2 -13 2 -30t-2 -30z" />
    <glyph glyph-name="amacron" unicode="&#x101;" horiz-adv-x="510" 
d="M187 -15q-64 0 -106.5 34.5t-42.5 94.5q0 45 24 75t65.5 45.5t92.5 15.5q38 0 63 -6t43 -13v-40q-41 19 -84 19t-73.5 -22.5t-30.5 -70.5q0 -40 19 -64.5t56 -24.5q38 0 64.5 17.5t48.5 39.5l6 -40q-26 -25 -58 -42.5t-87 -17.5zM421 304v-219q0 -29 15.5 -39.5
t46.5 -10.5q3 -18 0 -37q-16 -4 -34.5 -6t-32.5 -2q-40 0 -58.5 15t-25.5 40l-6 40v212q0 61 -19.5 91t-63.5 30q-41 0 -62.5 -23.5t-17.5 -69.5h-100q0 33 22.5 62.5t65 48.5t103.5 19q80 0 123.5 -37t43.5 -114zM395 540h-290q-2 13 -2 30t2 30h290q2 -13 2 -30t-2 -30z
" />
    <glyph glyph-name="Abreve" unicode="&#x102;" horiz-adv-x="681" 
d="M-4 -2q-4 19 0 37h57q23 45 40.5 87.5t34.5 87.5l120 309q10 26 23 59.5t25 70.5t17 71q10 2 20 2.5t20 0t20 -2.5l-66 -170l-132 -340q-17 -45 -27 -87.5t-14 -87.5h81q4 -18 0 -37q-41 2 -73.5 2h-49.5h-39.5t-56.5 -2zM623 35h54q4 -18 0 -37q-23 1 -42.5 1.5
t-38.5 0.5h-42h-70.5t-70.5 -2q-4 19 0 37h69q-8 45 -20 87.5t-29 87.5l-126 340l66 170q8 -51 25.5 -99.5t43.5 -120.5l107 -290q17 -45 35 -87.5t39 -87.5zM438 235h-260v40h260v-40zM455 925q16 3 32 0q-7 -72 -45.5 -113.5t-99.5 -41.5t-99 41.5t-46 113.5q16 3 32 0
q11 -39 42.5 -57t70.5 -18t71 18t42 57z" />
    <glyph glyph-name="abreve" unicode="&#x103;" horiz-adv-x="510" 
d="M187 -15q-64 0 -106.5 34.5t-42.5 94.5q0 45 24 75t65.5 45.5t92.5 15.5q38 0 63 -6t43 -13v-40q-41 19 -84 19t-73.5 -22.5t-30.5 -70.5q0 -40 19 -64.5t56 -24.5q38 0 64.5 17.5t48.5 39.5l6 -40q-26 -25 -58 -42.5t-87 -17.5zM421 304v-219q0 -29 15.5 -39.5
t46.5 -10.5q3 -18 0 -37q-16 -4 -34.5 -6t-32.5 -2q-40 0 -58.5 15t-25.5 40l-6 40v212q0 61 -19.5 91t-63.5 30q-41 0 -62.5 -23.5t-17.5 -69.5h-100q0 33 22.5 62.5t65 48.5t103.5 19q80 0 123.5 -37t43.5 -114zM363 680q16 3 32 0q-7 -79 -45.5 -122t-99.5 -43t-99 43
t-46 122q16 3 32 0q8 -46 41 -68t72 -22t72.5 22t40.5 68z" />
    <glyph glyph-name="Aogonek" unicode="&#x104;" horiz-adv-x="681" 
d="M-4 -2q-4 19 0 37h57q23 45 40.5 87.5t34.5 87.5l120 309q10 26 23 59.5t25 70.5t17 71q10 2 20 2.5t20 0t20 -2.5l-66 -170l-132 -340q-17 -45 -27 -87.5t-14 -87.5h81q4 -18 0 -37q-41 2 -73.5 2h-49.5h-39.5t-56.5 -2zM623 35h54q4 -18 0 -37q-23 1 -42.5 1.5
t-38.5 0.5h-42h-70.5t-70.5 -2q-4 19 0 37h69q-8 45 -20 87.5t-29 87.5l-126 340l66 170q8 -51 25.5 -99.5t43.5 -120.5l107 -290q17 -45 35 -87.5t39 -87.5zM438 235h-260v40h260v-40zM499 -225q-43 0 -72 23t-29 66q0 42 25.5 71.5t70.5 50t104 35.5l19 -21
q-69 -19 -102.5 -50t-33.5 -69q0 -21 15 -35.5t44 -14.5q14 0 31.5 5t39.5 16q12 -14 15 -31q-31 -19 -59.5 -32.5t-67.5 -13.5z" />
    <glyph glyph-name="aogonek" unicode="&#x105;" horiz-adv-x="510" 
d="M365 -225q-43 0 -72 23t-29 66q0 42 25.5 71t70.5 49t104 35l19 -21q-69 -19 -102.5 -49t-33.5 -68q0 -21 15 -35.5t44 -14.5q14 0 31.5 5t39.5 16q12 -14 15 -31q-27 -19 -57.5 -32.5t-69.5 -13.5zM187 -15q-64 0 -106.5 34.5t-42.5 94.5q0 45 24 75t65.5 45.5
t92.5 15.5q38 0 63 -6t43 -13v-40q-41 19 -84 19t-73.5 -22.5t-30.5 -70.5q0 -40 19 -64.5t56 -24.5q38 0 64.5 17.5t48.5 39.5l6 -40q-26 -25 -58 -42.5t-87 -17.5zM421 304v-219q0 -29 15.5 -39.5t46.5 -10.5q3 -18 0 -37q-16 -4 -34.5 -6t-32.5 -2q-40 0 -58.5 15
t-25.5 40l-6 40v212q0 61 -19.5 91t-63.5 30q-41 0 -62.5 -23.5t-17.5 -69.5h-100q0 33 22.5 62.5t65 48.5t103.5 19q80 0 123.5 -37t43.5 -114z" />
    <glyph glyph-name="Cacute" unicode="&#x106;" horiz-adv-x="696" 
d="M609 210q16 3 32 0v-176q-35 -19 -93.5 -34t-135.5 -15q-112 0 -193 46t-124 128t-43 191t44.5 191t127.5 128t198 46q69 0 122 -14t87 -31v-175q-16 -3 -32 0q-15 95 -60.5 136.5t-122.5 41.5q-65 0 -110.5 -25t-74 -68.5t-41.5 -100t-13 -119.5t12.5 -122.5t39.5 -107
t72 -75.5t111 -28q49 0 91 19.5t70.5 60t35.5 103.5zM575 925q-19 -35 -52 -60.5t-65.5 -47.5t-53.5 -47q-16 -3 -32 0q28 38 46.5 73.5t31.5 81.5h125z" />
    <glyph glyph-name="cacute" unicode="&#x107;" horiz-adv-x="484" 
d="M264 -15q-65 0 -114.5 28.5t-77 81t-27.5 125.5q0 74 29 126.5t82.5 80.5t124.5 28q47 0 82.5 -10.5t61.5 -29.5v-135q-16 -3 -32 0q-13 65 -44 100t-75 35q-39 0 -67 -22.5t-42.5 -65t-14.5 -103.5q0 -55 18.5 -98t50.5 -67t71 -24q23 0 44 7t42.5 23.5t45.5 44.5
q8 -5 14.5 -11t13.5 -14q-28 -34 -57 -56t-60 -33t-69 -11zM414 690q-15 -34 -42 -61t-55.5 -52.5t-48.5 -56.5q-16 -3 -32 0q28 46 42 86.5t21 83.5h115z" />
    <glyph glyph-name="Ccircumflex" unicode="&#x108;" horiz-adv-x="696" 
d="M609 210q16 3 32 0v-176q-35 -19 -93.5 -34t-135.5 -15q-112 0 -193 46t-124 128t-43 191t44.5 191t127.5 128t198 46q69 0 122 -14t87 -31v-175q-16 -3 -32 0q-15 95 -60.5 136.5t-122.5 41.5q-65 0 -110.5 -25t-74 -68.5t-41.5 -100t-13 -119.5t12.5 -122.5t39.5 -107
t72 -75.5t111 -28q49 0 91 19.5t70.5 60t35.5 103.5zM561 762q-36 12 -61.5 22t-46.5 21t-44 25q-23 -14 -44 -25t-46.5 -21t-61.5 -22q-11 10 -15 22q42 31 66.5 51t43 40t41.5 50q16 3 32 0q23 -30 41.5 -50t43 -40t66.5 -51q-4 -12 -15 -22z" />
    <glyph glyph-name="ccircumflex" unicode="&#x109;" horiz-adv-x="484" 
d="M264 -15q-65 0 -114.5 28.5t-77 81t-27.5 125.5q0 74 29 126.5t82.5 80.5t124.5 28q47 0 82.5 -10.5t61.5 -29.5v-135q-16 -3 -32 0q-13 65 -44 100t-75 35q-39 0 -67 -22.5t-42.5 -65t-14.5 -103.5q0 -55 18.5 -98t50.5 -67t71 -24q23 0 44 7t42.5 23.5t45.5 44.5
q8 -5 14.5 -11t13.5 -14q-28 -34 -57 -56t-60 -33t-69 -11zM401 515q-31 15 -53 28.5t-40 26.5t-38 26q-20 -13 -38 -26t-40 -26.5t-53 -28.5q-12 9 -17 22q35 33 56 55.5t38 45t38 52.5q16 3 32 0l38.5 -52.5t38 -45t55.5 -55.5q-5 -13 -17 -22z" />
    <glyph glyph-name="Cdotaccent" unicode="&#x10a;" horiz-adv-x="696" 
d="M609 210q16 3 32 0v-176q-35 -19 -93.5 -34t-135.5 -15q-112 0 -193 46t-124 128t-43 191t44.5 191t127.5 128t198 46q69 0 122 -14t87 -31v-175q-16 -3 -32 0q-15 95 -60.5 136.5t-122.5 41.5q-65 0 -110.5 -25t-74 -68.5t-41.5 -100t-13 -119.5t12.5 -122.5t39.5 -107
t72 -75.5t111 -28q49 0 91 19.5t70.5 60t35.5 103.5zM409 910l55 -30v-65l-55 -30l-55 30v65z" />
    <glyph glyph-name="cdotaccent" unicode="&#x10b;" horiz-adv-x="484" 
d="M264 -15q-65 0 -114.5 28.5t-77 81t-27.5 125.5q0 74 29 126.5t82.5 80.5t124.5 28q47 0 82.5 -10.5t61.5 -29.5v-135q-16 -3 -32 0q-13 65 -44 100t-75 35q-39 0 -67 -22.5t-42.5 -65t-14.5 -103.5q0 -55 18.5 -98t50.5 -67t71 -24q23 0 44 7t42.5 23.5t45.5 44.5
q8 -5 14.5 -11t13.5 -14q-28 -34 -57 -56t-60 -33t-69 -11zM270 670l55 -30v-65l-55 -30l-55 30v65z" />
    <glyph glyph-name="Ccaron" unicode="&#x10c;" horiz-adv-x="696" 
d="M609 210q16 3 32 0v-176q-35 -19 -93.5 -34t-135.5 -15q-112 0 -193 46t-124 128t-43 191t44.5 191t127.5 128t198 46q69 0 122 -14t87 -31v-175q-16 -3 -32 0q-15 95 -60.5 136.5t-122.5 41.5q-65 0 -110.5 -25t-74 -68.5t-41.5 -100t-13 -119.5t12.5 -122.5t39.5 -107
t72 -75.5t111 -28q49 0 91 19.5t70.5 60t35.5 103.5zM561 933q11 -10 15 -22q-42 -30 -66.5 -50t-43 -40t-41.5 -51q-16 -3 -32 0q-23 31 -41.5 51t-43 40t-66.5 50q4 12 15 22q36 -11 61.5 -21.5t46.5 -21.5t44 -25q23 14 44 25t46.5 21.5t61.5 21.5z" />
    <glyph glyph-name="ccaron" unicode="&#x10d;" horiz-adv-x="484" 
d="M264 -15q-65 0 -114.5 28.5t-77 81t-27.5 125.5q0 74 29 126.5t82.5 80.5t124.5 28q47 0 82.5 -10.5t61.5 -29.5v-135q-16 -3 -32 0q-13 65 -44 100t-75 35q-39 0 -67 -22.5t-42.5 -65t-14.5 -103.5q0 -55 18.5 -98t50.5 -67t71 -24q23 0 44 7t42.5 23.5t45.5 44.5
q8 -5 14.5 -11t13.5 -14q-28 -34 -57 -56t-60 -33t-69 -11zM401 695q12 -9 17 -22q-34 -32 -55.5 -55t-38 -45t-38.5 -53q-16 -3 -32 0q-21 31 -38 53t-38 45t-56 55q5 13 17 22q31 -15 53 -28.5t40 -26t38 -26.5q20 14 38 26.5t40 26t53 28.5z" />
    <glyph glyph-name="Dcaron" unicode="&#x10e;" horiz-adv-x="785" 
d="M182 700h195q108 0 187.5 -38.5t123.5 -113t44 -183.5t-45 -191t-125 -128t-185 -46h-195h-68t-69 -2q-4 19 0 37h72q5 45 7.5 87.5t2.5 87.5v280q0 45 -2.5 87.5t-7.5 87.5h-72q-4 19 0 37q35 -1 69 -1.5t68 -0.5zM247 40h140q75 0 124 40.5t73 110.5t24 159
q0 67 -13 123.5t-41.5 98.5t-74.5 65t-112 23h-120q-5 -45 -7.5 -85t-2.5 -85v-280q0 -45 2.5 -85t7.5 -85zM544 933q11 -10 15 -22q-42 -30 -66.5 -50t-43 -40t-41.5 -51q-16 -3 -32 0q-23 31 -41.5 51t-43 40t-66.5 50q4 12 15 22q36 -11 61.5 -21.5t46.5 -21.5t44 -25
q23 14 44 25t46.5 21.5t61.5 21.5z" />
    <glyph glyph-name="dcaron" unicode="&#x10f;" horiz-adv-x="583" 
d="M386 -5q2 14 3.5 34.5t1.5 35.5l-10 45v410q0 72 -10 143h-57q-4 19 0 37q35 0 83 2.5t94 10.5q-6 -25 -9 -60.5t-4.5 -71.5t-1.5 -61v-340q0 -72 10 -143h52q4 -18 0 -37h-74.5t-77.5 -5zM242 -15q-54 0 -98.5 25t-71 76t-26.5 127q0 77 29 131t81 82.5t122 28.5
q64 0 107 -22t74 -55l-78 -76q0 46 -17 70.5t-41.5 33.5t-47.5 9q-59 0 -91.5 -47.5t-32.5 -142.5q0 -100 33 -147.5t85 -47.5q40 0 65.5 23t46.5 57l10 -45q-20 -33 -58 -56.5t-91 -23.5zM534 684l48 36l49 -36v-50q-12 -41 -20.5 -82t-13.5 -82q-15 -3 -30 0
q-4 41 -12.5 82t-20.5 82v50z" />
    <glyph glyph-name="Dcroat" unicode="&#x110;" horiz-adv-x="787" 
d="M456 340h-410q-4 25 0 50h410q4 -25 0 -50zM184 700h195q108 0 187.5 -38.5t123.5 -113t44 -183.5t-45 -191t-125 -128t-185 -46h-195h-68t-69 -2q-4 19 0 37h72q5 45 7.5 87.5t2.5 87.5v280q0 45 -2.5 87.5t-7.5 87.5h-72q-4 19 0 37q35 -1 69 -1.5t68 -0.5zM249 40h140
q75 0 124 40.5t73 110.5t24 159q0 67 -13 123.5t-41.5 98.5t-74.5 65t-112 23h-120q-5 -45 -7.5 -85t-2.5 -85v-280q0 -45 2.5 -85t7.5 -85z" />
    <glyph glyph-name="dcroat" unicode="&#x111;" horiz-adv-x="568" 
d="M566 530h-308q-4 25 0 50h308q4 -25 0 -50zM386 -5q2 14 3.5 34.5t1.5 35.5l-10 45v410q0 72 -10 143h-57q-4 19 0 37q35 0 83 2.5t94 10.5q-6 -25 -9 -60.5t-4.5 -71.5t-1.5 -61v-340q0 -72 10 -143h52q4 -18 0 -37h-74.5t-77.5 -5zM242 -15q-54 0 -98.5 25t-71 76
t-26.5 127q0 77 29 131t81 82.5t122 28.5q64 0 107 -22t74 -55l-78 -76q0 46 -17 70.5t-41.5 33.5t-47.5 9q-59 0 -91.5 -47.5t-32.5 -142.5q0 -100 33 -147.5t85 -47.5q40 0 65.5 23t46.5 57l10 -45q-20 -33 -58 -56.5t-91 -23.5z" />
    <glyph glyph-name="Emacron" unicode="&#x112;" horiz-adv-x="614" 
d="M45 -2q-4 19 0 37h72q5 45 7.5 87.5t2.5 87.5v280q0 45 -2.5 87.5t-7.5 87.5h-72q-4 19 0 37q35 -1 69 -1.5t68 -0.5h350v-185q-16 -3 -32 0q-4 75 -33 110t-107 35h-113q-5 -45 -7.5 -85t-2.5 -85v-280q0 -45 2.5 -85t7.5 -85h148q52 0 81.5 17.5t43 50t15.5 77.5
q16 3 32 0v-185h-385h-68t-69 -2zM435 260q-1 47 -14.5 63.5t-48.5 16.5h-190v40h190q35 0 48.5 17t14.5 63q16 3 32 0v-200q-16 -3 -32 0zM460 785h-280q-2 13 -2 30t2 30h280q2 -13 2 -30t-2 -30z" />
    <glyph glyph-name="emacron" unicode="&#x113;" horiz-adv-x="515" 
d="M264 -15q-63 0 -112.5 26t-77.5 78.5t-28 130.5q0 77 29 129t80 79t117 27q62 0 106.5 -23t68.5 -71t24 -123q-26 3 -55 5t-70 2h-208v35h227q0 70 -28.5 104t-70.5 34q-36 0 -62.5 -23.5t-41 -66.5t-14.5 -104q0 -95 39.5 -142t104.5 -47q40 0 77 19.5t73 65.5
q8 -5 14.5 -11t13.5 -14q-43 -55 -93.5 -82.5t-112.5 -27.5zM410 540h-290q-2 13 -2 30t2 30h290q2 -13 2 -30t-2 -30z" />
    <glyph glyph-name="Ebreve" unicode="&#x114;" horiz-adv-x="614" 
d="M45 -2q-4 19 0 37h72q5 45 7.5 87.5t2.5 87.5v280q0 45 -2.5 87.5t-7.5 87.5h-72q-4 19 0 37q35 -1 69 -1.5t68 -0.5h350v-185q-16 -3 -32 0q-4 75 -33 110t-107 35h-113q-5 -45 -7.5 -85t-2.5 -85v-280q0 -45 2.5 -85t7.5 -85h148q52 0 81.5 17.5t43 50t15.5 77.5
q16 3 32 0v-185h-385h-68t-69 -2zM435 260q-1 47 -14.5 63.5t-48.5 16.5h-190v40h190q35 0 48.5 17t14.5 63q16 3 32 0v-200q-16 -3 -32 0zM433 925q16 3 32 0q-7 -72 -45.5 -113.5t-99.5 -41.5t-99 41.5t-46 113.5q16 3 32 0q11 -39 42.5 -57t70.5 -18t71 18t42 57z" />
    <glyph glyph-name="ebreve" unicode="&#x115;" horiz-adv-x="515" 
d="M264 -15q-63 0 -112.5 26t-77.5 78.5t-28 130.5q0 77 29 129t80 79t117 27q62 0 106.5 -23t68.5 -71t24 -123q-26 3 -55 5t-70 2h-208v35h227q0 70 -28.5 104t-70.5 34q-36 0 -62.5 -23.5t-41 -66.5t-14.5 -104q0 -95 39.5 -142t104.5 -47q40 0 77 19.5t73 65.5
q8 -5 14.5 -11t13.5 -14q-43 -55 -93.5 -82.5t-112.5 -27.5zM378 680q16 3 32 0q-7 -79 -45.5 -122t-99.5 -43t-99 43t-46 122q16 3 32 0q8 -46 41 -68t72 -22t72.5 22t40.5 68z" />
    <glyph glyph-name="Edotaccent" unicode="&#x116;" horiz-adv-x="614" 
d="M45 -2q-4 19 0 37h72q5 45 7.5 87.5t2.5 87.5v280q0 45 -2.5 87.5t-7.5 87.5h-72q-4 19 0 37q35 -1 69 -1.5t68 -0.5h350v-185q-16 -3 -32 0q-4 75 -33 110t-107 35h-113q-5 -45 -7.5 -85t-2.5 -85v-280q0 -45 2.5 -85t7.5 -85h148q52 0 81.5 17.5t43 50t15.5 77.5
q16 3 32 0v-185h-385h-68t-69 -2zM435 260q-1 47 -14.5 63.5t-48.5 16.5h-190v40h190q35 0 48.5 17t14.5 63q16 3 32 0v-200q-16 -3 -32 0zM320 910l55 -30v-65l-55 -30l-55 30v65z" />
    <glyph glyph-name="edotaccent" unicode="&#x117;" horiz-adv-x="515" 
d="M264 -15q-63 0 -112.5 26t-77.5 78.5t-28 130.5q0 77 29 129t80 79t117 27q62 0 106.5 -23t68.5 -71t24 -123q-26 3 -55 5t-70 2h-208v35h227q0 70 -28.5 104t-70.5 34q-36 0 -62.5 -23.5t-41 -66.5t-14.5 -104q0 -95 39.5 -142t104.5 -47q40 0 77 19.5t73 65.5
q8 -5 14.5 -11t13.5 -14q-43 -55 -93.5 -82.5t-112.5 -27.5zM265 670l55 -30v-65l-55 -30l-55 30v65z" />
    <glyph glyph-name="Eogonek" unicode="&#x118;" horiz-adv-x="614" 
d="M45 -2q-4 19 0 37h72q5 45 7.5 87.5t2.5 87.5v280q0 45 -2.5 87.5t-7.5 87.5h-72q-4 19 0 37q35 -1 69 -1.5t68 -0.5h350v-185q-16 -3 -32 0q-4 75 -33 110t-107 35h-113q-5 -45 -7.5 -85t-2.5 -85v-280q0 -45 2.5 -85t7.5 -85h148q52 0 81.5 17.5t43 50t15.5 77.5
q16 3 32 0v-185h-385h-68t-69 -2zM435 260q-1 47 -14.5 63.5t-48.5 16.5h-190v40h190q35 0 48.5 17t14.5 63q16 3 32 0v-200q-16 -3 -32 0zM419 -225q-43 0 -72 23t-29 66q0 42 25.5 71.5t70.5 50t104 35.5l19 -21q-69 -19 -102.5 -50t-33.5 -69q0 -21 15 -35.5t44 -14.5
q14 0 31.5 5t39.5 16q12 -14 15 -31q-31 -19 -59.5 -32.5t-67.5 -13.5z" />
    <glyph glyph-name="eogonek" unicode="&#x119;" horiz-adv-x="515" 
d="M258 -225q-43 0 -72 23t-29 66q0 41 25.5 69t70.5 48.5t104 37.5l19 -6q-62 -32 -99 -62t-37 -70q0 -21 15 -35.5t44 -14.5q14 0 31.5 5t39.5 16q12 -14 15 -31q-27 -19 -57.5 -32.5t-69.5 -13.5zM264 -15q-63 0 -112.5 26t-77.5 78.5t-28 130.5q0 77 29 129t80 79
t117 27q62 0 106.5 -23t68.5 -71t24 -123q-26 3 -55 5t-70 2h-208v35h227q0 70 -28.5 104t-70.5 34q-36 0 -62.5 -23.5t-41 -66.5t-14.5 -104q0 -95 39.5 -142t104.5 -47q40 0 77 19.5t73 65.5q8 -5 14.5 -11t13.5 -14q-43 -55 -93.5 -82.5t-112.5 -27.5z" />
    <glyph glyph-name="Ecaron" unicode="&#x11a;" horiz-adv-x="614" 
d="M45 -2q-4 19 0 37h72q5 45 7.5 87.5t2.5 87.5v280q0 45 -2.5 87.5t-7.5 87.5h-72q-4 19 0 37q35 -1 69 -1.5t68 -0.5h350v-185q-16 -3 -32 0q-4 75 -33 110t-107 35h-113q-5 -45 -7.5 -85t-2.5 -85v-280q0 -45 2.5 -85t7.5 -85h148q52 0 81.5 17.5t43 50t15.5 77.5
q16 3 32 0v-185h-385h-68t-69 -2zM435 260q-1 47 -14.5 63.5t-48.5 16.5h-190v40h190q35 0 48.5 17t14.5 63q16 3 32 0v-200q-16 -3 -32 0zM472 933q11 -10 15 -22q-42 -30 -66.5 -50t-43 -40t-41.5 -51q-16 -3 -32 0q-23 31 -41.5 51t-43 40t-66.5 50q4 12 15 22
q36 -11 61.5 -21.5t46.5 -21.5t44 -25q23 14 44 25t46.5 21.5t61.5 21.5z" />
    <glyph glyph-name="ecaron" unicode="&#x11b;" horiz-adv-x="515" 
d="M264 -15q-63 0 -112.5 26t-77.5 78.5t-28 130.5q0 77 29 129t80 79t117 27q62 0 106.5 -23t68.5 -71t24 -123q-26 3 -55 5t-70 2h-208v35h227q0 70 -28.5 104t-70.5 34q-36 0 -62.5 -23.5t-41 -66.5t-14.5 -104q0 -95 39.5 -142t104.5 -47q40 0 77 19.5t73 65.5
q8 -5 14.5 -11t13.5 -14q-43 -55 -93.5 -82.5t-112.5 -27.5zM396 695q12 -9 17 -22q-34 -32 -55.5 -55t-38 -45t-38.5 -53q-16 -3 -32 0q-21 31 -38 53t-38 45t-56 55q5 13 17 22q31 -15 53 -28.5t40 -26t38 -26.5q20 14 38 26.5t40 26t53 28.5z" />
    <glyph glyph-name="Gcircumflex" unicode="&#x11c;" horiz-adv-x="759" 
d="M728 302q4 -18 0 -37h-52q-5 -45 -7.5 -98.5t-2.5 -126.5q-30 -16 -67.5 -28.5t-81.5 -19.5t-95 -7q-112 0 -195.5 46t-129 128t-45.5 191t47 191t132.5 128t200.5 46q77 0 131 -14t88 -31v-165q-16 -3 -32 0q-15 88 -61.5 128t-131.5 40q-87 0 -142 -43.5t-81 -114.5
t-26 -155q0 -63 14 -122.5t43 -107t75.5 -75.5t112.5 -28q35 0 76 10.5t68 29.5q0 53 -2.5 103t-7.5 95h-82q-4 19 0 37q35 -1 72.5 -1.5t64.5 -0.5q35 0 59 0.5t58 1.5zM565 762q-36 12 -61.5 22t-46.5 21t-44 25q-23 -14 -44 -25t-46.5 -21t-61.5 -22q-11 10 -15 22
q42 31 66.5 51t43 40t41.5 50q16 3 32 0q23 -30 41.5 -50t43 -40t66.5 -51q-4 -12 -15 -22z" />
    <glyph glyph-name="gcircumflex" unicode="&#x11d;" horiz-adv-x="515" 
d="M244 136q48 0 73 35.5t25 102.5t-25 105.5t-73 38.5t-72.5 -38.5t-24.5 -105.5t24.5 -102.5t72.5 -35.5zM27 -85q0 18 2.5 31t6.5 20h132q4 -18 0 -37q-12 1 -21 1h-19q-2 -4 -4 -14t-2 -24q0 -45 35 -61t100 -16q59 0 97 20.5t38 70.5q0 30 -12.5 50.5t-44 32.5
t-89.5 18q-53 6 -91 22t-62 44.5t-35 71.5t-11 101q0 101 47.5 155t148.5 54q43 0 81 -7.5t74 -7.5q21 0 46.5 2.5t37.5 7.5q4 -39 0 -72q-16 14 -39.5 19.5t-54.5 5.5q26 -24 40 -58t14 -72q0 -53 -23 -92.5t-64.5 -60.5t-97.5 -21q-42 0 -75 16t-50 50q1 -49 18 -73.5
t55 -34.5t101 -17q40 -4 74.5 -11.5t60.5 -21.5t41 -37t15 -58q0 -49 -30.5 -79t-84.5 -44t-125 -14q-105 0 -167.5 33.5t-62.5 106.5zM378 515q-31 15 -53 28.5t-40 26.5t-38 26q-20 -13 -38 -26t-40 -26.5t-53 -28.5q-12 9 -17 22q35 33 56 55.5t38 45t38 52.5q16 3 32 0
l38.5 -52.5t38 -45t55.5 -55.5q-5 -13 -17 -22z" />
    <glyph glyph-name="Gbreve" unicode="&#x11e;" horiz-adv-x="759" 
d="M728 302q4 -18 0 -37h-52q-5 -45 -7.5 -98.5t-2.5 -126.5q-30 -16 -67.5 -28.5t-81.5 -19.5t-95 -7q-112 0 -195.5 46t-129 128t-45.5 191t47 191t132.5 128t200.5 46q77 0 131 -14t88 -31v-165q-16 -3 -32 0q-15 88 -61.5 128t-131.5 40q-87 0 -142 -43.5t-81 -114.5
t-26 -155q0 -63 14 -122.5t43 -107t75.5 -75.5t112.5 -28q35 0 76 10.5t68 29.5q0 53 -2.5 103t-7.5 95h-82q-4 19 0 37q35 -1 72.5 -1.5t64.5 -0.5q35 0 59 0.5t58 1.5zM526 925q16 3 32 0q-7 -72 -45.5 -113.5t-99.5 -41.5t-99 41.5t-46 113.5q16 3 32 0q11 -39 42.5 -57
t70.5 -18t71 18t42 57z" />
    <glyph glyph-name="gbreve" unicode="&#x11f;" horiz-adv-x="515" 
d="M244 136q48 0 73 35.5t25 102.5t-25 105.5t-73 38.5t-72.5 -38.5t-24.5 -105.5t24.5 -102.5t72.5 -35.5zM27 -85q0 18 2.5 31t6.5 20h132q4 -18 0 -37q-12 1 -21 1h-19q-2 -4 -4 -14t-2 -24q0 -45 35 -61t100 -16q59 0 97 20.5t38 70.5q0 30 -12.5 50.5t-44 32.5
t-89.5 18q-53 6 -91 22t-62 44.5t-35 71.5t-11 101q0 101 47.5 155t148.5 54q43 0 81 -7.5t74 -7.5q21 0 46.5 2.5t37.5 7.5q4 -39 0 -72q-16 14 -39.5 19.5t-54.5 5.5q26 -24 40 -58t14 -72q0 -53 -23 -92.5t-64.5 -60.5t-97.5 -21q-42 0 -75 16t-50 50q1 -49 18 -73.5
t55 -34.5t101 -17q40 -4 74.5 -11.5t60.5 -21.5t41 -37t15 -58q0 -49 -30.5 -79t-84.5 -44t-125 -14q-105 0 -167.5 33.5t-62.5 106.5zM360 680q16 3 32 0q-7 -79 -45.5 -122t-99.5 -43t-99 43t-46 122q16 3 32 0q8 -46 41 -68t72 -22t72.5 22t40.5 68z" />
    <glyph glyph-name="Gdotaccent" unicode="&#x120;" horiz-adv-x="759" 
d="M728 302q4 -18 0 -37h-52q-5 -45 -7.5 -98.5t-2.5 -126.5q-30 -16 -67.5 -28.5t-81.5 -19.5t-95 -7q-112 0 -195.5 46t-129 128t-45.5 191t47 191t132.5 128t200.5 46q77 0 131 -14t88 -31v-165q-16 -3 -32 0q-15 88 -61.5 128t-131.5 40q-87 0 -142 -43.5t-81 -114.5
t-26 -155q0 -63 14 -122.5t43 -107t75.5 -75.5t112.5 -28q35 0 76 10.5t68 29.5q0 53 -2.5 103t-7.5 95h-82q-4 19 0 37q35 -1 72.5 -1.5t64.5 -0.5q35 0 59 0.5t58 1.5zM413 910l55 -30v-65l-55 -30l-55 30v65z" />
    <glyph glyph-name="gdotaccent" unicode="&#x121;" horiz-adv-x="515" 
d="M244 136q48 0 73 35.5t25 102.5t-25 105.5t-73 38.5t-72.5 -38.5t-24.5 -105.5t24.5 -102.5t72.5 -35.5zM27 -85q0 18 2.5 31t6.5 20h132q4 -18 0 -37q-12 1 -21 1h-19q-2 -4 -4 -14t-2 -24q0 -45 35 -61t100 -16q59 0 97 20.5t38 70.5q0 30 -12.5 50.5t-44 32.5
t-89.5 18q-53 6 -91 22t-62 44.5t-35 71.5t-11 101q0 101 47.5 155t148.5 54q43 0 81 -7.5t74 -7.5q21 0 46.5 2.5t37.5 7.5q4 -39 0 -72q-16 14 -39.5 19.5t-54.5 5.5q26 -24 40 -58t14 -72q0 -53 -23 -92.5t-64.5 -60.5t-97.5 -21q-42 0 -75 16t-50 50q1 -49 18 -73.5
t55 -34.5t101 -17q40 -4 74.5 -11.5t60.5 -21.5t41 -37t15 -58q0 -49 -30.5 -79t-84.5 -44t-125 -14q-105 0 -167.5 33.5t-62.5 106.5zM247 670l55 -30v-65l-55 -30l-55 30v65z" />
    <glyph glyph-name="uni0122" unicode="&#x122;" horiz-adv-x="759" 
d="M728 302q4 -18 0 -37h-52q-5 -45 -7.5 -98.5t-2.5 -126.5q-30 -16 -67.5 -28.5t-81.5 -19.5t-95 -7q-112 0 -195.5 46t-129 128t-45.5 191t47 191t132.5 128t200.5 46q77 0 131 -14t88 -31v-165q-16 -3 -32 0q-15 88 -61.5 128t-131.5 40q-87 0 -142 -43.5t-81 -114.5
t-26 -155q0 -63 14 -122.5t43 -107t75.5 -75.5t112.5 -28q35 0 76 10.5t68 29.5q0 53 -2.5 103t-7.5 95h-82q-4 19 0 37q35 -1 72.5 -1.5t64.5 -0.5q35 0 59 0.5t58 1.5zM429 -43l48 -26v-31q0 -29 -10 -56t-27.5 -51.5t-42.5 -45.5q-8 4 -13.5 9.5t-9.5 13.5q22 20 34.5 40
t17.5 41l-45 23v57z" />
    <glyph glyph-name="uni0123" unicode="&#x123;" horiz-adv-x="515" 
d="M244 136q48 0 73 35.5t25 102.5t-25 105.5t-73 38.5t-72.5 -38.5t-24.5 -105.5t24.5 -102.5t72.5 -35.5zM27 -85q0 18 2.5 31t6.5 20h132q4 -18 0 -37q-12 1 -21 1h-19q-2 -4 -4 -14t-2 -24q0 -45 35 -61t100 -16q59 0 97 20.5t38 70.5q0 30 -12.5 50.5t-44 32.5
t-89.5 18q-53 6 -91 22t-62 44.5t-35 71.5t-11 101q0 101 47.5 155t148.5 54q43 0 81 -7.5t74 -7.5q21 0 46.5 2.5t37.5 7.5q4 -39 0 -72q-16 14 -39.5 19.5t-54.5 5.5q26 -24 40 -58t14 -72q0 -53 -23 -92.5t-64.5 -60.5t-97.5 -21q-42 0 -75 16t-50 50q1 -49 18 -73.5
t55 -34.5t101 -17q40 -4 74.5 -11.5t60.5 -21.5t41 -37t15 -58q0 -49 -30.5 -79t-84.5 -44t-125 -14q-105 0 -167.5 33.5t-62.5 106.5zM241 507l-48 26v31q0 29 10 56t27.5 51.5t42.5 45.5q8 -4 13.5 -9.5t9.5 -13.5q-22 -20 -34.5 -40t-17.5 -41l45 -23v-57z" />
    <glyph glyph-name="Hcircumflex" unicode="&#x124;" horiz-adv-x="814" 
d="M495 -2q-4 19 0 37h72q5 45 7.5 87.5t2.5 87.5v280q0 45 -2.5 87.5t-7.5 87.5h-72q-4 19 0 37q35 -1 69 -1.5t68 -0.5q35 0 69 0.5t68 1.5q4 -18 0 -37h-72q-5 -45 -7.5 -87.5t-2.5 -87.5v-280q0 -45 2.5 -87.5t7.5 -87.5h72q4 -18 0 -37q-34 2 -68 2h-69h-68t-69 -2z
M45 -2q-4 19 0 37h72q5 45 7.5 87.5t2.5 87.5v280q0 45 -2.5 87.5t-7.5 87.5h-72q-4 19 0 37q35 -1 69 -1.5t68 -0.5q35 0 69 0.5t68 1.5q4 -18 0 -37h-72q-5 -45 -7.5 -87.5t-2.5 -87.5v-280q0 -45 2.5 -87.5t7.5 -87.5h72q4 -18 0 -37q-34 2 -68 2h-69h-68t-69 -2z
M165 350v40h444v-40h-444zM559 762q-36 12 -61.5 22t-46.5 21t-44 25q-23 -14 -44 -25t-46.5 -21t-61.5 -22q-11 10 -15 22q42 31 66.5 51t43 40t41.5 50q16 3 32 0q23 -30 41.5 -50t43 -40t66.5 -51q-4 -12 -15 -22z" />
    <glyph glyph-name="hcircumflex" unicode="&#x125;" horiz-adv-x="577" 
d="M260 35q4 -18 0 -37q-31 2 -58 2h-56h-56.5t-58.5 -2q-4 19 0 37h57q5 38 7.5 73t2.5 72v340q0 72 -10 143h-57q-4 19 0 37q35 0 83 2.5t94 10.5q-6 -25 -9 -60.5t-4.5 -71.5t-1.5 -61v-340q0 -37 2.5 -72t7.5 -73h57zM321 -2q-4 19 0 37h57q5 38 7.5 73t2.5 72v136
q0 37 -17 63t-63 26q-35 0 -65 -18.5t-50 -56.5l-10 45q27 38 67.5 59t95.5 21q59 0 90 -22t50 -57l-2 -30t-1 -30v-136q0 -37 2.5 -72t7.5 -73h57q4 -18 0 -37q-31 2 -58 2h-56h-56.5t-58.5 -2zM293 752q-36 12 -61.5 22t-46.5 21t-44 25q-23 -14 -44 -25t-46.5 -21
t-61.5 -22q-11 10 -15 22q42 31 66.5 51t43 40t41.5 50q16 3 32 0q23 -30 41.5 -50t43 -40t66.5 -51q-4 -12 -15 -22z" />
    <glyph glyph-name="Hbar" unicode="&#x126;" horiz-adv-x="822" 
d="M787 490h-760q-4 25 0 50h760q4 -25 0 -50zM500 -2q-4 19 0 37h72q5 45 7.5 87.5t2.5 87.5v280q0 45 -2.5 87.5t-7.5 87.5h-72q-4 19 0 37q35 -1 69 -1.5t68 -0.5q35 0 69 0.5t68 1.5q4 -18 0 -37h-72q-5 -45 -7.5 -87.5t-2.5 -87.5v-280q0 -45 2.5 -87.5t7.5 -87.5h72
q4 -18 0 -37q-34 2 -68 2h-69h-68t-69 -2zM50 -2q-4 19 0 37h72q5 45 7.5 87.5t2.5 87.5v280q0 45 -2.5 87.5t-7.5 87.5h-72q-4 19 0 37q35 -1 69 -1.5t68 -0.5q35 0 69 0.5t68 1.5q4 -18 0 -37h-72q-5 -45 -7.5 -87.5t-2.5 -87.5v-280q0 -45 2.5 -87.5t7.5 -87.5h72
q4 -18 0 -37q-34 2 -68 2h-69h-68t-69 -2zM170 350v40h444v-40h-444z" />
    <glyph glyph-name="hbar" unicode="&#x127;" horiz-adv-x="577" 
d="M321 530h-308q-4 25 0 50h308q4 -25 0 -50zM260 35q4 -18 0 -37q-31 2 -58 2h-56h-56.5t-58.5 -2q-4 19 0 37h57q5 38 7.5 73t2.5 72v340q0 72 -10 143h-57q-4 19 0 37q35 0 83 2.5t94 10.5q-6 -25 -9 -60.5t-4.5 -71.5t-1.5 -61v-340q0 -37 2.5 -72t7.5 -73h57zM321 -2
q-4 19 0 37h57q5 38 7.5 73t2.5 72v136q0 37 -17 63t-63 26q-35 0 -65 -18.5t-50 -56.5l-10 45q27 38 67.5 59t95.5 21q59 0 90 -22t50 -57l-2 -30t-1 -30v-136q0 -37 2.5 -72t7.5 -73h57q4 -18 0 -37q-31 2 -58 2h-56h-56.5t-58.5 -2z" />
    <glyph glyph-name="Itilde" unicode="&#x128;" horiz-adv-x="364" 
d="M45 -2q-4 19 0 37h72q5 45 7.5 87.5t2.5 87.5v280q0 45 -2.5 87.5t-7.5 87.5h-72q-4 19 0 37q35 -1 69 -1.5t68 -0.5q35 0 69 0.5t68 1.5q4 -18 0 -37h-72q-5 -45 -7.5 -87.5t-2.5 -87.5v-280q0 -45 2.5 -87.5t7.5 -87.5h72q4 -18 0 -37q-34 2 -68 2h-69h-68t-69 -2z
M314 885q18 -3 28 -9q-7 -64 -34.5 -85t-65.5 -21q-32 0 -54 14t-40.5 27.5t-42.5 13.5q-16 0 -30 -9t-25 -42q-18 3 -28 9q8 62 34 84.5t65 22.5q31 0 53 -13.5t42 -27.5t43 -14q16 0 30 9t25 41z" />
    <glyph glyph-name="itilde" unicode="&#x129;" horiz-adv-x="303" 
d="M274 35q4 -18 0 -37q-34 2 -62 2h-57h-57t-63 -2q-4 19 0 37h62q5 38 7.5 73t2.5 72v80q0 72 -10 143h-57q-4 19 0 37q39 0 85 2.5t92 10.5q-6 -25 -9 -60.5t-4.5 -71.5t-1.5 -61v-80q0 -37 2.5 -72t7.5 -73h62zM271 654q19 -3 30 -13q-7 -40 -23.5 -62t-37 -30.5
t-40.5 -8.5q-19 0 -33 8t-26 18t-23 18t-24 8q-16 0 -29.5 -7.5t-24.5 -39.5q-19 3 -30 13q11 59 40 80.5t60 21.5q24 0 41 -13t33 -26t33 -13q16 0 29.5 7.5t24.5 38.5z" />
    <glyph glyph-name="Imacron" unicode="&#x12a;" horiz-adv-x="364" 
d="M45 -2q-4 19 0 37h72q5 45 7.5 87.5t2.5 87.5v280q0 45 -2.5 87.5t-7.5 87.5h-72q-4 19 0 37q35 -1 69 -1.5t68 -0.5q35 0 69 0.5t68 1.5q4 -18 0 -37h-72q-5 -45 -7.5 -87.5t-2.5 -87.5v-280q0 -45 2.5 -87.5t7.5 -87.5h72q4 -18 0 -37q-34 2 -68 2h-69h-68t-69 -2z
M322 785h-280q-2 13 -2 30t2 30h280q2 -13 2 -30t-2 -30z" />
    <glyph glyph-name="imacron" unicode="&#x12b;" horiz-adv-x="303" 
d="M274 35q4 -18 0 -37q-34 2 -62 2h-57h-57t-63 -2q-4 19 0 37h62q5 38 7.5 73t2.5 72v80q0 72 -10 143h-57q-4 19 0 37q39 0 85 2.5t92 10.5q-6 -25 -9 -60.5t-4.5 -71.5t-1.5 -61v-80q0 -37 2.5 -72t7.5 -73h62zM300 540h-290q-2 13 -2 30t2 30h290q2 -13 2 -30t-2 -30z
" />
    <glyph glyph-name="Ibreve" unicode="&#x12c;" horiz-adv-x="364" 
d="M45 -2q-4 19 0 37h72q5 45 7.5 87.5t2.5 87.5v280q0 45 -2.5 87.5t-7.5 87.5h-72q-4 19 0 37q35 -1 69 -1.5t68 -0.5q35 0 69 0.5t68 1.5q4 -18 0 -37h-72q-5 -45 -7.5 -87.5t-2.5 -87.5v-280q0 -45 2.5 -87.5t7.5 -87.5h72q4 -18 0 -37q-34 2 -68 2h-69h-68t-69 -2z
M295 925q16 3 32 0q-7 -72 -45.5 -113.5t-99.5 -41.5t-99 41.5t-46 113.5q16 3 32 0q11 -39 42.5 -57t70.5 -18t71 18t42 57z" />
    <glyph glyph-name="ibreve" unicode="&#x12d;" horiz-adv-x="303" 
d="M274 35q4 -18 0 -37q-34 2 -62 2h-57h-57t-63 -2q-4 19 0 37h62q5 38 7.5 73t2.5 72v80q0 72 -10 143h-57q-4 19 0 37q39 0 85 2.5t92 10.5q-6 -25 -9 -60.5t-4.5 -71.5t-1.5 -61v-80q0 -37 2.5 -72t7.5 -73h62zM268 680q16 3 32 0q-7 -79 -45.5 -122t-99.5 -43t-99 43
t-46 122q16 3 32 0q8 -46 41 -68t72 -22t72.5 22t40.5 68z" />
    <glyph glyph-name="Iogonek" unicode="&#x12e;" horiz-adv-x="364" 
d="M45 -2q-4 19 0 37h72q5 45 7.5 87.5t2.5 87.5v280q0 45 -2.5 87.5t-7.5 87.5h-72q-4 19 0 37q35 -1 69 -1.5t68 -0.5q35 0 69 0.5t68 1.5q4 -18 0 -37h-72q-5 -45 -7.5 -87.5t-2.5 -87.5v-280q0 -45 2.5 -87.5t7.5 -87.5h72q4 -18 0 -37q-34 2 -68 2h-69h-68t-69 -2z
M131 -225q-43 0 -72 23t-29 66q0 42 25.5 71.5t70.5 50t104 35.5l19 -21q-69 -19 -102.5 -50t-33.5 -69q0 -21 15 -35.5t44 -14.5q14 0 31.5 5t39.5 16q12 -14 15 -31q-31 -19 -59.5 -32.5t-67.5 -13.5z" />
    <glyph glyph-name="iogonek" unicode="&#x12f;" horiz-adv-x="303" 
d="M274 35q4 -18 0 -37q-34 2 -62 2h-57h-57t-63 -2q-4 19 0 37h62q5 38 7.5 73t2.5 72v80q0 72 -10 143h-57q-4 19 0 37q39 0 85 2.5t92 10.5q-6 -25 -9 -60.5t-4.5 -71.5t-1.5 -61v-80q0 -37 2.5 -72t7.5 -73h62zM155 670l55 -30v-65l-55 -30l-55 30v65zM127 -225
q-43 0 -72 23t-29 66q0 42 25.5 71.5t70.5 50t104 35.5l19 -21q-69 -19 -102.5 -50t-33.5 -69q0 -21 15 -35.5t44 -14.5q14 0 31.5 5t39.5 16q12 -14 15 -31q-31 -19 -59.5 -32.5t-67.5 -13.5z" />
    <glyph glyph-name="Idotaccent" unicode="&#x130;" horiz-adv-x="364" 
d="M45 -2q-4 19 0 37h72q5 45 7.5 87.5t2.5 87.5v280q0 45 -2.5 87.5t-7.5 87.5h-72q-4 19 0 37q35 -1 69 -1.5t68 -0.5q35 0 69 0.5t68 1.5q4 -18 0 -37h-72q-5 -45 -7.5 -87.5t-2.5 -87.5v-280q0 -45 2.5 -87.5t7.5 -87.5h72q4 -18 0 -37q-34 2 -68 2h-69h-68t-69 -2z
M182 910l55 -30v-65l-55 -30l-55 30v65z" />
    <glyph glyph-name="dotlessi" unicode="&#x131;" horiz-adv-x="303" 
d="M274 35q4 -18 0 -37q-34 2 -62 2h-57h-57t-63 -2q-4 19 0 37h62q5 38 7.5 73t2.5 72v80q0 72 -10 143h-57q-4 19 0 37q39 0 85 2.5t92 10.5q-6 -25 -9 -60.5t-4.5 -71.5t-1.5 -61v-80q0 -37 2.5 -72t7.5 -73h62z" />
    <glyph glyph-name="IJ" unicode="&#x132;" horiz-adv-x="823" 
d="M45 -2q-4 19 0 37h72q5 45 7.5 87.5t2.5 87.5v280q0 45 -2.5 87.5t-7.5 87.5h-72q-4 19 0 37q35 -1 69 -1.5t68 -0.5q35 0 69 0.5t68 1.5q4 -18 0 -37h-72q-5 -45 -7.5 -87.5t-2.5 -87.5v-280q0 -45 2.5 -87.5t7.5 -87.5h72q4 -18 0 -37q-34 2 -68 2h-69h-68t-69 -2z
M541 -15q-49 0 -85 15.5t-55 51t-19 93.5h105q0 -69 11.5 -97t42.5 -28q28 0 42 28t14 97v345q0 45 -2.5 87.5t-7.5 87.5h-92q-4 19 0 37q50 -1 86.5 -1.5t70.5 -0.5q35 0 69 0.5t68 1.5q4 -18 0 -37h-72q-5 -45 -7.5 -87.5t-2.5 -87.5v-345q0 -41 -11.5 -71.5t-33.5 -50
t-52.5 -29t-68.5 -9.5z" />
    <glyph glyph-name="ij" unicode="&#x133;" horiz-adv-x="575" 
d="M274 35q4 -18 0 -37q-34 2 -62 2h-57h-57t-63 -2q-4 19 0 37h62q5 38 7.5 73t2.5 72v80q0 72 -10 143h-57q-4 19 0 37q39 0 85 2.5t92 10.5q-6 -25 -9 -60.5t-4.5 -71.5t-1.5 -61v-80q0 -37 2.5 -72t7.5 -73h62zM155 670l55 -30v-65l-55 -30l-55 30v65zM495 260v-186
q0 -28 1 -56.5t6 -57.5q-4 -28 -17 -59.5t-36 -59.5t-58 -46t-84 -20q-3 19 0 38q38 5 58 32t27.5 65.5t7.5 79.5v270q0 72 -10 143h-57q-4 19 0 37q39 0 85 2.5t92 10.5q-6 -25 -9 -60.5t-4.5 -71.5t-1.5 -61zM448 670l55 -30v-65l-55 -30l-55 30v65z" />
    <glyph glyph-name="Jcircumflex" unicode="&#x134;" horiz-adv-x="459" 
d="M177 -15q-49 0 -85 15.5t-55 51t-19 93.5h105q0 -69 11.5 -97t42.5 -28q28 0 42 28t14 97v345q0 45 -2.5 87.5t-7.5 87.5h-92q-4 19 0 37q50 -1 86.5 -1.5t70.5 -0.5q35 0 69 0.5t68 1.5q4 -18 0 -37h-72q-5 -45 -7.5 -87.5t-2.5 -87.5v-345q0 -41 -11.5 -71.5t-33.5 -50
t-52.5 -29t-68.5 -9.5zM434 762q-36 12 -61.5 22t-46.5 21t-44 25q-23 -14 -44 -25t-46.5 -21t-61.5 -22q-11 10 -15 22q42 31 66.5 51t43 40t41.5 50q16 3 32 0q23 -30 41.5 -50t43 -40t66.5 -51q-4 -12 -15 -22z" />
    <glyph glyph-name="jcircumflex" unicode="&#x135;" horiz-adv-x="272" 
d="M192 260v-186q0 -28 1 -56.5t6 -57.5q-4 -28 -17 -59.5t-36 -59.5t-58 -46t-84 -20q-3 19 0 38q38 5 58 32t27.5 65.5t7.5 79.5v270q0 72 -10 143h-57q-4 19 0 37q39 0 85 2.5t92 10.5q-6 -25 -9 -60.5t-4.5 -71.5t-1.5 -61zM276 515q-31 15 -53 28.5t-40 26.5t-38 26
q-20 -13 -38 -26t-40 -26.5t-53 -28.5q-12 9 -17 22q35 33 56 55.5t38 45t38 52.5q16 3 32 0l38.5 -52.5t38 -45t55.5 -55.5q-5 -13 -17 -22z" />
    <glyph glyph-name="uni0136" unicode="&#x136;" horiz-adv-x="704" 
d="M45 -2q-4 19 0 37h72q5 45 7.5 87.5t2.5 87.5v280q0 45 -2.5 87.5t-7.5 87.5h-72q-4 19 0 37q35 -1 69 -1.5t68 -0.5q35 0 69 0.5t68 1.5q4 -18 0 -37h-72q-5 -45 -7.5 -87.5t-2.5 -87.5v-280q0 -45 2.5 -87.5t7.5 -87.5h72q4 -18 0 -37q-34 2 -68 2h-69h-68t-69 -2z
M601 -10q-40 0 -62 13t-34.5 39t-22.5 65l-35 136q-9 35 -22.5 58.5t-39.5 36t-74 12.5h-79v40h62q50 0 87.5 18t53.5 47q14 25 27.5 58t22.5 70q5 19 6.5 39.5t-0.5 42.5h-68q-4 19 0 37q42 -1 67 -1.5t44 -0.5q20 0 50.5 0.5t72.5 1.5q4 -18 0 -37h-76
q-11 -11 -22.5 -30.5t-21.5 -48.5q-10 -28 -24 -70.5t-34 -78.5q-15 -26 -35.5 -38.5t-37.5 -17.5q57 -2 86.5 -17t43 -40t22.5 -61l41 -156q8 -28 17 -43t26.5 -21t47.5 -8q3 -17 0 -35q-24 -4 -45 -7t-44 -3zM418 -43l48 -26v-31q0 -29 -10 -56t-27.5 -51.5t-42.5 -45.5
q-8 4 -13.5 9.5t-9.5 13.5q22 20 34.5 40t17.5 41l-45 23v57z" />
    <glyph glyph-name="uni0137" unicode="&#x137;" horiz-adv-x="539" 
d="M31 -2q-4 19 0 37h57q5 38 7.5 73t2.5 72v340q0 72 -10 143h-57q-4 19 0 37q35 0 83 2.5t94 10.5q-6 -25 -9 -60.5t-4.5 -71.5t-1.5 -61v-340q0 -37 2.5 -72t7.5 -73h57q4 -18 0 -37q-31 2 -58 2h-56h-56.5t-58.5 -2zM447 -10q-37 0 -56.5 11.5t-28 33.5t-14.5 52l-13 66
q-3 18 -12.5 34.5t-30 27t-60.5 10.5h-39v35h49q26 0 47 14t40 42q20 29 28.5 49.5t11.5 37.5h-70q-4 20 0 39q28 -1 40.5 -1.5t20 -0.5h20.5q20 0 50.5 0.5t72.5 1.5q4 -19 0 -39h-47q-28 -24 -50.5 -54t-42 -56.5t-40.5 -40.5q56 -4 81 -33.5t32 -65.5l12 -56
q8 -37 20.5 -49t42.5 -13q3 -17 0 -35q-13 -4 -31 -7t-33 -3zM290 -43l48 -26v-31q0 -29 -10 -56t-27.5 -51.5t-42.5 -45.5q-8 4 -13.5 9.5t-9.5 13.5q22 20 34.5 40t17.5 41l-45 23v57z" />
    <glyph glyph-name="kgreenlandic" unicode="&#x138;" horiz-adv-x="548" 
d="M456 -10q-37 0 -56.5 11.5t-28 33.5t-14.5 52l-13 66q-3 18 -12.5 34.5t-30 27t-60.5 10.5h-39v35h49q26 0 47 14t40 42q21 30 29 51t11 39h-58q-4 18 0 36q28 -1 40 -1.5t19.5 -0.5h19.5q18 0 46.5 0.5t66.5 1.5q4 -18 0 -36h-47q-28 -24 -50.5 -54.5t-42 -57.5
t-40.5 -42q56 -4 81 -33.5t32 -65.5l12 -56q8 -37 20.5 -49t42.5 -13q3 -17 0 -35q-13 -4 -31 -7t-33 -3zM35 -2q-4 19 0 37h62q5 38 7.5 73t2.5 72v80q0 73 -10 146h-52q-4 18 0 36q23 -1 39.5 -1.5t32 -0.5h35.5q31 0 55.5 0.5t56.5 1.5q4 -18 0 -36h-55
q-4 -37 -5.5 -77.5t-1.5 -68.5v-80q0 -37 2.5 -72t7.5 -73h62q4 -18 0 -37q-34 2 -62 2h-57h-57t-63 -2z" />
    <glyph glyph-name="Lacute" unicode="&#x139;" horiz-adv-x="582" 
d="M45 -2q-4 19 0 37h72q5 45 7.5 87.5t2.5 87.5v280q0 45 -2.5 87.5t-7.5 87.5h-72q-4 19 0 37q35 -1 69 -1.5t68 -0.5q35 0 69 0.5t68 1.5q4 -18 0 -37h-72q-5 -45 -7.5 -87.5t-2.5 -87.5v-280q0 -45 2.5 -87.5t7.5 -87.5h133q78 0 107 42t33 128q16 3 32 0v-205h-370h-68
t-69 -2zM348 925q-19 -35 -52 -60.5t-65.5 -47.5t-53.5 -47q-16 -3 -32 0q28 38 46.5 73.5t31.5 81.5h125z" />
    <glyph glyph-name="lacute" unicode="&#x13a;" horiz-adv-x="291" 
d="M260 35q4 -18 0 -37q-31 2 -58 2h-56h-56.5t-58.5 -2q-4 19 0 37h57q5 38 7.5 73t2.5 72v340q0 72 -10 143h-57q-4 19 0 37q35 0 83 2.5t94 10.5q-6 -25 -9 -60.5t-4.5 -71.5t-1.5 -61v-340q0 -37 2.5 -72t7.5 -73h57zM290 950q-15 -34 -42 -61t-55.5 -52.5t-48.5 -56.5
q-16 -3 -32 0q28 46 42 86.5t21 83.5h115z" />
    <glyph glyph-name="uni013B" unicode="&#x13b;" horiz-adv-x="582" 
d="M45 -2q-4 19 0 37h72q5 45 7.5 87.5t2.5 87.5v280q0 45 -2.5 87.5t-7.5 87.5h-72q-4 19 0 37q35 -1 69 -1.5t68 -0.5q35 0 69 0.5t68 1.5q4 -18 0 -37h-72q-5 -45 -7.5 -87.5t-2.5 -87.5v-280q0 -45 2.5 -87.5t7.5 -87.5h133q78 0 107 42t33 128q16 3 32 0v-205h-370h-68
t-69 -2zM323 -43l48 -26v-31q0 -29 -10 -56t-27.5 -51.5t-42.5 -45.5q-8 4 -13.5 9.5t-9.5 13.5q22 20 34.5 40t17.5 41l-45 23v57z" />
    <glyph glyph-name="uni013C" unicode="&#x13c;" horiz-adv-x="291" 
d="M260 35q4 -18 0 -37q-31 2 -58 2h-56h-56.5t-58.5 -2q-4 19 0 37h57q5 38 7.5 73t2.5 72v340q0 72 -10 143h-57q-4 19 0 37q35 0 83 2.5t94 10.5q-6 -25 -9 -60.5t-4.5 -71.5t-1.5 -61v-340q0 -37 2.5 -72t7.5 -73h57zM146 -43l48 -26v-31q0 -29 -10 -56t-27.5 -51.5
t-42.5 -45.5q-8 4 -13.5 9.5t-9.5 13.5q22 20 34.5 40t17.5 41l-45 23v57z" />
    <glyph glyph-name="Lcaron" unicode="&#x13d;" horiz-adv-x="590" 
d="M45 -2q-4 19 0 37h72q5 45 7.5 87.5t2.5 87.5v280q0 45 -2.5 87.5t-7.5 87.5h-72q-4 19 0 37q35 -1 69 -1.5t68 -0.5q35 0 69 0.5t68 1.5q4 -18 0 -37h-72q-5 -45 -7.5 -87.5t-2.5 -87.5v-280q0 -45 2.5 -87.5t7.5 -87.5h133q78 0 107 42t33 128q16 3 32 0v-205h-370h-68
t-69 -2zM426 684l48 36l49 -36v-50q-12 -41 -20.5 -82t-13.5 -82q-15 -3 -30 0q-4 41 -12.5 82t-20.5 82v50z" />
    <glyph glyph-name="lcaron" unicode="&#x13e;" horiz-adv-x="303" 
d="M260 35q4 -18 0 -37q-31 2 -58 2h-56h-56.5t-58.5 -2q-4 19 0 37h57q5 38 7.5 73t2.5 72v340q0 72 -10 143h-57q-4 19 0 37q35 0 83 2.5t94 10.5q-6 -25 -9 -60.5t-4.5 -71.5t-1.5 -61v-340q0 -37 2.5 -72t7.5 -73h57zM251 684l48 36l49 -36v-50q-12 -41 -20.5 -82
t-13.5 -82q-15 -3 -30 0q-4 41 -12.5 82t-20.5 82v50z" />
    <glyph glyph-name="Ldot" unicode="&#x13f;" horiz-adv-x="582" 
d="M45 -2q-4 19 0 37h72q5 45 7.5 87.5t2.5 87.5v280q0 45 -2.5 87.5t-7.5 87.5h-72q-4 19 0 37q35 -1 69 -1.5t68 -0.5q35 0 69 0.5t68 1.5q4 -18 0 -37h-72q-5 -45 -7.5 -87.5t-2.5 -87.5v-280q0 -45 2.5 -87.5t7.5 -87.5h133q78 0 107 42t33 128q16 3 32 0v-205h-370h-68
t-69 -2zM394 430l55 -30v-65l-55 -30l-55 30v65z" />
    <glyph glyph-name="ldot" unicode="&#x140;" horiz-adv-x="301" 
d="M260 35q4 -18 0 -37q-31 2 -58 2h-56h-56.5t-58.5 -2q-4 19 0 37h57q5 38 7.5 73t2.5 72v340q0 72 -10 143h-57q-4 19 0 37q35 0 83 2.5t94 10.5q-6 -25 -9 -60.5t-4.5 -71.5t-1.5 -61v-340q0 -37 2.5 -72t7.5 -73h57zM291 382l55 -30v-65l-55 -30l-55 30v65z" />
    <glyph glyph-name="Lslash" unicode="&#x141;" horiz-adv-x="636" 
d="M180 305v-30q-33 -10 -52 -25t-27 -34t-11 -43q-21 -4 -35 -4t-35 4q8 42 44.5 77.5t115.5 54.5zM290 299v30q21 8 48.5 22t53 37t42 55.5t16.5 76.5q21 4 37.5 4t37.5 -4q-4 -47 -27.5 -84t-58.5 -64t-74 -45t-75 -28zM98 -2q-4 19 0 37h72q5 45 7.5 87.5t2.5 87.5v280
q0 45 -2.5 87.5t-7.5 87.5h-72q-4 19 0 37q35 -1 69 -1.5t68 -0.5q35 0 69 0.5t68 1.5q4 -18 0 -37h-72q-5 -45 -7.5 -87.5t-2.5 -87.5v-280q0 -45 2.5 -87.5t7.5 -87.5h133q78 0 107 42t33 128q16 3 32 0v-205h-370h-68t-69 -2z" />
    <glyph glyph-name="lslash" unicode="&#x142;" horiz-adv-x="356" 
d="M234 307v30q21 20 29.5 36.5t10 34.5t1.5 41q31 5 61 0q0 -28 -14 -51.5t-37 -45.5t-51 -45zM139 285v-30q-23 -20 -33 -36.5t-11.5 -34t-1.5 -41.5q-30 -5 -61 0q0 42 31 75t76 67zM301 35q4 -18 0 -37q-31 2 -58 2h-56h-56.5t-58.5 -2q-4 19 0 37h57q5 38 7.5 73
t2.5 72v340q0 72 -10 143h-57q-4 19 0 37q35 0 83 2.5t94 10.5q-6 -25 -9 -60.5t-4.5 -71.5t-1.5 -61v-340q0 -37 2.5 -72t7.5 -73h57z" />
    <glyph glyph-name="Nacute" unicode="&#x143;" horiz-adv-x="788" 
d="M607 0q-11 27 -24 51t-27.5 46.5t-30.5 44.5l-344 488l-31 70h45t44.5 0.5t39.5 1.5q11 -25 26 -50t40 -61l275 -391l47 -200q-18 -2 -30 -2t-30 2zM45 -2q-4 19 0 37h67q8 45 11.5 87.5t3.5 87.5v280q0 38 -3.5 80.5t-11.5 94.5h-67q-4 19 0 37q35 -1 61 -1.5t44 -0.5
l31 -70q-3 -30 -5 -66t-2 -74v-280q0 -45 3.5 -87.5t11.5 -87.5h77q4 -18 0 -37q-34 2 -65.5 2h-50.5h-44t-61 -2zM667 0l-47 200v290q0 45 -3.5 84t-11.5 91h-77q-4 19 0 37q35 -1 66.5 -1.5t50.5 -0.5q17 0 43.5 0.5t60.5 1.5q4 -18 0 -37h-67q-8 -52 -11.5 -91t-3.5 -84
v-490zM558 925q-19 -35 -52 -60.5t-65.5 -47.5t-53.5 -47q-16 -3 -32 0q28 38 46.5 73.5t31.5 81.5h125z" />
    <glyph glyph-name="nacute" unicode="&#x144;" horiz-adv-x="583" 
d="M37 -2q-4 19 0 37h57q5 38 7.5 73t2.5 72v80q0 72 -10 143h-52q-4 19 0 37q35 0 75 2.5t82 10.5q-5 -18 -7.5 -40.5t-2.5 -37.5l10 -45v-150q0 -37 2.5 -72t7.5 -73h57q4 -18 0 -37q-31 2 -58 2h-56h-56.5t-58.5 -2zM327 -2q-4 19 0 37h57q5 38 7.5 73t2.5 72v136
q0 37 -17 63t-63 26q-35 0 -65 -18.5t-50 -56.5l-10 45q27 38 67.5 59t95.5 21q59 0 90 -22t50 -57l-2 -30t-1 -30v-136q0 -37 2.5 -72t7.5 -73h57q4 -18 0 -37q-31 2 -58 2h-56h-56.5t-58.5 -2zM451 690q-15 -34 -42 -61t-55.5 -52.5t-48.5 -56.5q-16 -3 -32 0
q28 46 42 86.5t21 83.5h115z" />
    <glyph glyph-name="uni0145" unicode="&#x145;" horiz-adv-x="788" 
d="M607 0q-11 27 -24 51t-27.5 46.5t-30.5 44.5l-344 488l-31 70h45t44.5 0.5t39.5 1.5q11 -25 26 -50t40 -61l275 -391l47 -200q-18 -2 -30 -2t-30 2zM45 -2q-4 19 0 37h67q8 45 11.5 87.5t3.5 87.5v280q0 38 -3.5 80.5t-11.5 94.5h-67q-4 19 0 37q35 -1 61 -1.5t44 -0.5
l31 -70q-3 -30 -5 -66t-2 -74v-280q0 -45 3.5 -87.5t11.5 -87.5h77q4 -18 0 -37q-34 2 -65.5 2h-50.5h-44t-61 -2zM667 0l-47 200v290q0 45 -3.5 84t-11.5 91h-77q-4 19 0 37q35 -1 66.5 -1.5t50.5 -0.5q17 0 43.5 0.5t60.5 1.5q4 -18 0 -37h-67q-8 -52 -11.5 -91t-3.5 -84
v-490zM406 -43l48 -26v-31q0 -29 -10 -56t-27.5 -51.5t-42.5 -45.5q-8 4 -13.5 9.5t-9.5 13.5q22 20 34.5 40t17.5 41l-45 23v57z" />
    <glyph glyph-name="uni0146" unicode="&#x146;" horiz-adv-x="583" 
d="M37 -2q-4 19 0 37h57q5 38 7.5 73t2.5 72v80q0 72 -10 143h-52q-4 19 0 37q35 0 75 2.5t82 10.5q-5 -18 -7.5 -40.5t-2.5 -37.5l10 -45v-150q0 -37 2.5 -72t7.5 -73h57q4 -18 0 -37q-31 2 -58 2h-56h-56.5t-58.5 -2zM327 -2q-4 19 0 37h57q5 38 7.5 73t2.5 72v136
q0 37 -17 63t-63 26q-35 0 -65 -18.5t-50 -56.5l-10 45q27 38 67.5 59t95.5 21q59 0 90 -22t50 -57l-2 -30t-1 -30v-136q0 -37 2.5 -72t7.5 -73h57q4 -18 0 -37q-31 2 -58 2h-56h-56.5t-58.5 -2zM297 -43l48 -26v-31q0 -29 -10 -56t-27.5 -51.5t-42.5 -45.5q-8 4 -13.5 9.5
t-9.5 13.5q22 20 34.5 40t17.5 41l-45 23v57z" />
    <glyph glyph-name="Ncaron" unicode="&#x147;" horiz-adv-x="788" 
d="M607 0q-11 27 -24 51t-27.5 46.5t-30.5 44.5l-344 488l-31 70h45t44.5 0.5t39.5 1.5q11 -25 26 -50t40 -61l275 -391l47 -200q-18 -2 -30 -2t-30 2zM45 -2q-4 19 0 37h67q8 45 11.5 87.5t3.5 87.5v280q0 38 -3.5 80.5t-11.5 94.5h-67q-4 19 0 37q35 -1 61 -1.5t44 -0.5
l31 -70q-3 -30 -5 -66t-2 -74v-280q0 -45 3.5 -87.5t11.5 -87.5h77q4 -18 0 -37q-34 2 -65.5 2h-50.5h-44t-61 -2zM667 0l-47 200v290q0 45 -3.5 84t-11.5 91h-77q-4 19 0 37q35 -1 66.5 -1.5t50.5 -0.5q17 0 43.5 0.5t60.5 1.5q4 -18 0 -37h-67q-8 -52 -11.5 -91t-3.5 -84
v-490zM544 933q11 -10 15 -22q-42 -30 -66.5 -50t-43 -40t-41.5 -51q-16 -3 -32 0q-23 31 -41.5 51t-43 40t-66.5 50q4 12 15 22q36 -11 61.5 -21.5t46.5 -21.5t44 -25q23 14 44 25t46.5 21.5t61.5 21.5z" />
    <glyph glyph-name="ncaron" unicode="&#x148;" horiz-adv-x="583" 
d="M37 -2q-4 19 0 37h57q5 38 7.5 73t2.5 72v80q0 72 -10 143h-52q-4 19 0 37q35 0 75 2.5t82 10.5q-5 -18 -7.5 -40.5t-2.5 -37.5l10 -45v-150q0 -37 2.5 -72t7.5 -73h57q4 -18 0 -37q-31 2 -58 2h-56h-56.5t-58.5 -2zM327 -2q-4 19 0 37h57q5 38 7.5 73t2.5 72v136
q0 37 -17 63t-63 26q-35 0 -65 -18.5t-50 -56.5l-10 45q27 38 67.5 59t95.5 21q59 0 90 -22t50 -57l-2 -30t-1 -30v-136q0 -37 2.5 -72t7.5 -73h57q4 -18 0 -37q-31 2 -58 2h-56h-56.5t-58.5 -2zM438 695q12 -9 17 -22q-34 -32 -55.5 -55t-38 -45t-38.5 -53q-16 -3 -32 0
q-21 31 -38 53t-38 45t-56 55q5 13 17 22q31 -15 53 -28.5t40 -26t38 -26.5q20 14 38 26.5t40 26t53 28.5z" />
    <glyph glyph-name="Eng" unicode="&#x14a;" horiz-adv-x="787" 
d="M342 -65h105q0 -69 13 -93.5t44 -24.5q27 0 40 20.5t13 77.5v225h110v-215q0 -37 -11.5 -65.5t-33.5 -47t-52.5 -28t-68.5 -9.5q-49 0 -85 15.5t-55 51t-19 93.5zM607 0q-11 27 -24 51t-27.5 46.5t-30.5 44.5l-344 488l-31 70h45t44.5 0.5t39.5 1.5q11 -25 26 -50t40 -61
l275 -391l47 -200q-18 -2 -30 -2t-30 2zM45 -2q-4 19 0 37h67q8 45 11.5 87.5t3.5 87.5v280q0 38 -3.5 80.5t-11.5 94.5h-67q-4 19 0 37q35 -1 61 -1.5t44 -0.5l31 -70q-3 -30 -5 -66t-2 -74v-280q0 -45 3.5 -87.5t11.5 -87.5h77q4 -18 0 -37q-34 2 -65.5 2h-50.5h-44
t-61 -2zM667 0l-47 200v290q0 45 -3.5 84t-11.5 91h-77q-4 19 0 37q35 -1 66.5 -1.5t50.5 -0.5q17 0 43.5 0.5t60.5 1.5q4 -18 0 -37h-67q-8 -52 -11.5 -91t-3.5 -84v-490z" />
    <glyph glyph-name="eng" unicode="&#x14b;" horiz-adv-x="562" 
d="M37 -2q-4 19 0 37h57q5 38 7.5 73t2.5 72v80q0 72 -10 143h-52q-4 19 0 37q35 0 75 2.5t82 10.5q-5 -18 -7.5 -40.5t-2.5 -37.5l10 -45v-150q0 -37 2.5 -72t7.5 -73h57q4 -18 0 -37q-31 2 -58 2h-56h-56.5t-58.5 -2zM489 74q0 -28 1 -56.5t6 -57.5q-4 -28 -17 -59.5
t-36 -59.5t-58 -46t-84 -20q-3 19 0 38q38 5 58 32t27.5 65.5t7.5 79.5v326q0 37 -17 63t-63 26q-35 0 -65 -18.5t-50 -56.5l-10 45q27 38 67.5 59t95.5 21q59 0 90 -22t50 -57l-2 -30t-1 -30v-242z" />
    <glyph glyph-name="Omacron" unicode="&#x14c;" horiz-adv-x="796" 
d="M178 360q0 -63 11.5 -122.5t38 -107t70.5 -75.5t110 -28l-10 -42q-107 0 -184.5 46t-119 128t-41.5 191t42.5 191t120 128t182.5 46l-10 -42q-75 0 -121.5 -43.5t-67.5 -114.5t-21 -155zM618 340q0 63 -11.5 122.5t-38 107t-70.5 75.5t-110 28l10 42q108 0 185 -46
t118.5 -128t41.5 -191t-42.5 -191t-120 -128t-182.5 -46l10 42q75 0 121.5 43t67.5 114.5t21 155.5zM538 785h-280q-2 13 -2 30t2 30h280q2 -13 2 -30t-2 -30z" />
    <glyph glyph-name="omacron" unicode="&#x14d;" horiz-adv-x="546" 
d="M268 415q-36 0 -62.5 -20t-41 -61.5t-14.5 -104.5q0 -70 16 -115.5t45 -67t67 -21.5l-5 -40q-66 0 -117.5 29t-81 83t-29.5 127q0 71 28.5 123t79.5 80t120 28zM278 25q37 0 63 20.5t40.5 61.5t14.5 104q0 71 -16 116t-44.5 66.5t-67.5 21.5l5 40q67 0 118 -29
t80.5 -82.5t29.5 -127.5q0 -71 -28 -123t-79.5 -80t-120.5 -28zM418 540h-290q-2 13 -2 30t2 30h290q2 -13 2 -30t-2 -30z" />
    <glyph glyph-name="Obreve" unicode="&#x14e;" horiz-adv-x="796" 
d="M178 360q0 -63 11.5 -122.5t38 -107t70.5 -75.5t110 -28l-10 -42q-107 0 -184.5 46t-119 128t-41.5 191t42.5 191t120 128t182.5 46l-10 -42q-75 0 -121.5 -43.5t-67.5 -114.5t-21 -155zM618 340q0 63 -11.5 122.5t-38 107t-70.5 75.5t-110 28l10 42q108 0 185 -46
t118.5 -128t41.5 -191t-42.5 -191t-120 -128t-182.5 -46l10 42q75 0 121.5 43t67.5 114.5t21 155.5zM511 925q16 3 32 0q-7 -72 -45.5 -113.5t-99.5 -41.5t-99 41.5t-46 113.5q16 3 32 0q11 -39 42.5 -57t70.5 -18t71 18t42 57z" />
    <glyph glyph-name="obreve" unicode="&#x14f;" horiz-adv-x="546" 
d="M268 415q-36 0 -62.5 -20t-41 -61.5t-14.5 -104.5q0 -70 16 -115.5t45 -67t67 -21.5l-5 -40q-66 0 -117.5 29t-81 83t-29.5 127q0 71 28.5 123t79.5 80t120 28zM278 25q37 0 63 20.5t40.5 61.5t14.5 104q0 71 -16 116t-44.5 66.5t-67.5 21.5l5 40q67 0 118 -29
t80.5 -82.5t29.5 -127.5q0 -71 -28 -123t-79.5 -80t-120.5 -28zM386 680q16 3 32 0q-7 -79 -45.5 -122t-99.5 -43t-99 43t-46 122q16 3 32 0q8 -46 41 -68t72 -22t72.5 22t40.5 68z" />
    <glyph glyph-name="Ohungarumlaut" unicode="&#x150;" horiz-adv-x="796" 
d="M178 360q0 -63 11.5 -122.5t38 -107t70.5 -75.5t110 -28l-10 -42q-107 0 -184.5 46t-119 128t-41.5 191t42.5 191t120 128t182.5 46l-10 -42q-75 0 -121.5 -43.5t-67.5 -114.5t-21 -155zM618 340q0 63 -11.5 122.5t-38 107t-70.5 75.5t-110 28l10 42q108 0 185 -46
t118.5 -128t41.5 -191t-42.5 -191t-120 -128t-182.5 -46l10 42q75 0 121.5 43t67.5 114.5t21 155.5zM478 925q-17 -35 -46 -60.5t-58 -47.5t-47 -47q-16 -3 -32 0q24 38 40 73.5t28 81.5h115zM618 925q-17 -35 -46 -60.5t-57.5 -47.5t-47.5 -47q-16 -3 -32 0q24 38 40 73.5
t28 81.5h115z" />
    <glyph glyph-name="ohungarumlaut" unicode="&#x151;" horiz-adv-x="546" 
d="M268 415q-36 0 -62.5 -20t-41 -61.5t-14.5 -104.5q0 -70 16 -115.5t45 -67t67 -21.5l-5 -40q-66 0 -117.5 29t-81 83t-29.5 127q0 71 28.5 123t79.5 80t120 28zM278 25q37 0 63 20.5t40.5 61.5t14.5 104q0 71 -16 116t-44.5 66.5t-67.5 21.5l5 40q67 0 118 -29
t80.5 -82.5t29.5 -127.5q0 -71 -28 -123t-79.5 -80t-120.5 -28zM353 690q-14 -34 -39 -61t-51.5 -52.5t-45.5 -56.5q-16 -3 -32 0q28 46 42 86.5t21 83.5h105zM483 690q-15 -34 -42 -61t-55.5 -52.5t-48.5 -56.5q-16 -3 -32 0q32 46 49 86.5t24 83.5h105z" />
    <glyph glyph-name="OE" unicode="&#x152;" horiz-adv-x="1005" 
d="M398 -15q-107 0 -184.5 46t-119 128t-41.5 191t42.5 191t120 128t182.5 46l-10 -42q-75 0 -121.5 -43.5t-67.5 -114.5t-21 -155q0 -63 11.5 -122.5t38 -107t70.5 -75.5t110 -28zM398 -15l10 42q46 0 81.5 21t61.5 73v-105q-34 -15 -72 -23t-81 -8zM508 -3q5 74 7.5 121
t2.5 92v140h55v-350zM573 0v350h55v-140q0 -45 2.5 -85t7.5 -85h320v-40h-385zM786 40q52 0 81.5 17.5t43 50t15.5 77.5q16 3 32 0v-145h-172zM518 350v140q0 45 -2.5 92t-7.5 118h65v-350h-55zM826 260q-1 47 -14.5 63.5t-48.5 16.5h-190v40h190q35 0 48.5 17t14.5 63
q16 3 32 0v-200q-16 -3 -32 0zM547 573q-27 55 -66.5 77.5t-92.5 22.5l10 42q42 0 79.5 -7t69.5 -21v-114zM573 350v350h350v-40h-285q-5 -45 -7.5 -85t-2.5 -85v-140h-55zM891 515q-4 75 -33 110t-107 35h172v-145q-16 -3 -32 0z" />
    <glyph glyph-name="oe" unicode="&#x153;" horiz-adv-x="868" 
d="M268 415q-36 0 -62.5 -20t-41 -61.5t-14.5 -104.5q0 -70 16 -115.5t45 -67t67 -21.5l-5 -40q-66 0 -117.5 29t-81 83t-29.5 127q0 71 28.5 123t79.5 80t120 28zM278 25q37 0 63 20.5t40.5 61.5t14.5 104q0 71 -16 116t-44.5 66.5t-67.5 21.5l5 40q67 0 118 -29
t80.5 -82.5t29.5 -127.5q0 -71 -28 -123t-79.5 -80t-120.5 -28zM617 -15q-63 0 -112.5 26t-77.5 78.5t-28 130.5q0 77 29 129t80 79t117 27q62 0 106.5 -23t68.5 -71t24 -123q-26 3 -55 5t-70 2h-208v35h227q0 70 -28.5 104t-70.5 34q-36 0 -62.5 -23.5t-41 -66.5
t-14.5 -104q0 -95 39.5 -142t104.5 -47q40 0 77 19.5t73 65.5q8 -5 14.5 -11t13.5 -14q-43 -55 -93.5 -82.5t-112.5 -27.5z" />
    <glyph glyph-name="Racute" unicode="&#x154;" horiz-adv-x="693" 
d="M676 35q3 -17 0 -35q-23 -5 -48 -7.5t-40 -2.5q-39 0 -62 13t-35 39t-19 65l-22 126q-7 44 -36 65.5t-80 21.5h-152v40h165q60 0 95 40.5t35 111.5q0 68 -35.5 108t-114.5 40h-80q-5 -45 -7.5 -85t-2.5 -85v-280q0 -45 2.5 -87.5t7.5 -87.5h72q4 -18 0 -37q-34 2 -68 2
h-69h-68t-69 -2q-4 19 0 37h72q5 45 7.5 87.5t2.5 87.5v280q0 45 -2.5 87.5t-7.5 87.5h-72q-4 19 0 37q35 -1 69 -1.5t68 -0.5h155q75 0 135 -18.5t95 -58t35 -103.5q0 -51 -23.5 -86.5t-63 -57t-89.5 -30.5q59 -4 91.5 -29t42.5 -74l27 -136q8 -43 26.5 -56t62.5 -16z
M503 925q-19 -35 -52 -60.5t-65.5 -47.5t-53.5 -47q-16 -3 -32 0q28 38 46.5 73.5t31.5 81.5h125z" />
    <glyph glyph-name="racute" unicode="&#x155;" horiz-adv-x="444" 
d="M37 -2q-4 19 0 37h57q5 38 7.5 73t2.5 72v80q0 72 -10 143h-52q-4 19 0 37q35 0 75 2.5t82 10.5q-5 -18 -7.5 -41.5t-2.5 -46.5l10 -45v-140q0 -37 2.5 -72t7.5 -73h87q4 -18 0 -37q-53 2 -84 2h-60h-56.5t-58.5 -2zM323 325q4 37 -3.5 58.5t-32.5 21.5q-24 0 -44.5 -22
t-43.5 -63l-10 45q24 43 56.5 66.5t78.5 23.5q37 0 59.5 -13t32.5 -41.5t7 -75.5h-100zM383 690q-15 -34 -42 -61t-55.5 -52.5t-48.5 -56.5q-16 -3 -32 0q28 46 42 86.5t21 83.5h115z" />
    <glyph glyph-name="uni0156" unicode="&#x156;" horiz-adv-x="693" 
d="M676 35q3 -17 0 -35q-23 -5 -48 -7.5t-40 -2.5q-39 0 -62 13t-35 39t-19 65l-22 126q-7 44 -36 65.5t-80 21.5h-152v40h165q60 0 95 40.5t35 111.5q0 68 -35.5 108t-114.5 40h-80q-5 -45 -7.5 -85t-2.5 -85v-280q0 -45 2.5 -87.5t7.5 -87.5h72q4 -18 0 -37q-34 2 -68 2
h-69h-68t-69 -2q-4 19 0 37h72q5 45 7.5 87.5t2.5 87.5v280q0 45 -2.5 87.5t-7.5 87.5h-72q-4 19 0 37q35 -1 69 -1.5t68 -0.5h155q75 0 135 -18.5t95 -58t35 -103.5q0 -51 -23.5 -86.5t-63 -57t-89.5 -30.5q59 -4 91.5 -29t42.5 -74l27 -136q8 -43 26.5 -56t62.5 -16z
M370 -43l48 -26v-31q0 -29 -10 -56t-27.5 -51.5t-42.5 -45.5q-8 4 -13.5 9.5t-9.5 13.5q22 20 34.5 40t17.5 41l-45 23v57z" />
    <glyph glyph-name="uni0157" unicode="&#x157;" horiz-adv-x="444" 
d="M37 -2q-4 19 0 37h57q5 38 7.5 73t2.5 72v80q0 72 -10 143h-52q-4 19 0 37q35 0 75 2.5t82 10.5q-5 -18 -7.5 -41.5t-2.5 -46.5l10 -45v-140q0 -37 2.5 -72t7.5 -73h87q4 -18 0 -37q-53 2 -84 2h-60h-56.5t-58.5 -2zM323 325q4 37 -3.5 58.5t-32.5 21.5q-24 0 -44.5 -22
t-43.5 -63l-10 45q24 43 56.5 66.5t78.5 23.5q37 0 59.5 -13t32.5 -41.5t7 -75.5h-100zM152 -43l48 -26v-31q0 -29 -10 -56t-27.5 -51.5t-42.5 -45.5q-8 4 -13.5 9.5t-9.5 13.5q22 20 34.5 40t17.5 41l-45 23v57z" />
    <glyph glyph-name="Rcaron" unicode="&#x158;" horiz-adv-x="693" 
d="M676 35q3 -17 0 -35q-23 -5 -48 -7.5t-40 -2.5q-39 0 -62 13t-35 39t-19 65l-22 126q-7 44 -36 65.5t-80 21.5h-152v40h165q60 0 95 40.5t35 111.5q0 68 -35.5 108t-114.5 40h-80q-5 -45 -7.5 -85t-2.5 -85v-280q0 -45 2.5 -87.5t7.5 -87.5h72q4 -18 0 -37q-34 2 -68 2
h-69h-68t-69 -2q-4 19 0 37h72q5 45 7.5 87.5t2.5 87.5v280q0 45 -2.5 87.5t-7.5 87.5h-72q-4 19 0 37q35 -1 69 -1.5t68 -0.5h155q75 0 135 -18.5t95 -58t35 -103.5q0 -51 -23.5 -86.5t-63 -57t-89.5 -30.5q59 -4 91.5 -29t42.5 -74l27 -136q8 -43 26.5 -56t62.5 -16z
M489 933q11 -10 15 -22q-42 -30 -66.5 -50t-43 -40t-41.5 -51q-16 -3 -32 0q-23 31 -41.5 51t-43 40t-66.5 50q4 12 15 22q36 -11 61.5 -21.5t46.5 -21.5t44 -25q23 14 44 25t46.5 21.5t61.5 21.5z" />
    <glyph glyph-name="rcaron" unicode="&#x159;" horiz-adv-x="444" 
d="M37 -2q-4 19 0 37h57q5 38 7.5 73t2.5 72v80q0 72 -10 143h-52q-4 19 0 37q35 0 75 2.5t82 10.5q-5 -18 -7.5 -41.5t-2.5 -46.5l10 -45v-140q0 -37 2.5 -72t7.5 -73h87q4 -18 0 -37q-53 2 -84 2h-60h-56.5t-58.5 -2zM323 325q4 37 -3.5 58.5t-32.5 21.5q-24 0 -44.5 -22
t-43.5 -63l-10 45q24 43 56.5 66.5t78.5 23.5q37 0 59.5 -13t32.5 -41.5t7 -75.5h-100zM370 695q12 -9 17 -22q-34 -32 -55.5 -55t-38 -45t-38.5 -53q-16 -3 -32 0q-21 31 -38 53t-38 45t-56 55q5 13 17 22q31 -15 53 -28.5t40 -26t38 -26.5q20 14 38 26.5t40 26t53 28.5z
" />
    <glyph glyph-name="Sacute" unicode="&#x15a;" horiz-adv-x="582" 
d="M264 -14q-52 0 -105.5 13t-99.5 36v180q16 3 32 0q5 -54 31 -96.5t68.5 -67.5t94.5 -25q72 0 115.5 34.5t43.5 95.5q0 38 -20 63t-53.5 42.5t-73 32t-79 31.5t-73 41.5t-53.5 61t-20 91.5q0 62 27.5 105.5t79.5 66.5t124 23q64 0 108 -13t77 -34v-157q-16 -3 -32 0
q-7 71 -49 117.5t-112 46.5q-63 0 -100.5 -28.5t-37.5 -78.5q0 -41 20.5 -67.5t55 -45t75 -33.5t81 -32.5t75 -42t55 -61.5t20.5 -93q0 -61 -34.5 -107.5t-96 -72.5t-144.5 -26zM457 925q-19 -35 -52 -60.5t-65.5 -47.5t-53.5 -47q-16 -3 -32 0q28 38 46.5 73.5t31.5 81.5
h125z" />
    <glyph glyph-name="sacute" unicode="&#x15b;" horiz-adv-x="458" 
d="M222 -15q-43 0 -84 7.5t-86 22.5v138q16 3 32 0q13 -60 47 -94t101 -34q45 0 74.5 18.5t29.5 52.5q0 27 -19.5 42t-51 24t-66 18t-66 25t-51 43.5t-19.5 73.5q0 61 45.5 97t130.5 36q36 0 71.5 -7t66.5 -21v-127q-16 -3 -32 0q-11 59 -38.5 87t-79.5 28q-46 0 -70 -18
t-24 -50q0 -26 20.5 -41t52.5 -25.5t68.5 -20.5t68.5 -25.5t52.5 -41.5t20.5 -68q0 -67 -51 -103.5t-143 -36.5zM371 690q-15 -34 -42 -61t-55.5 -52.5t-48.5 -56.5q-16 -3 -32 0q28 46 42 86.5t21 83.5h115z" />
    <glyph glyph-name="Scircumflex" unicode="&#x15c;" horiz-adv-x="582" 
d="M264 -14q-52 0 -105.5 13t-99.5 36v180q16 3 32 0q5 -54 31 -96.5t68.5 -67.5t94.5 -25q72 0 115.5 34.5t43.5 95.5q0 38 -20 63t-53.5 42.5t-73 32t-79 31.5t-73 41.5t-53.5 61t-20 91.5q0 62 27.5 105.5t79.5 66.5t124 23q64 0 108 -13t77 -34v-157q-16 -3 -32 0
q-7 71 -49 117.5t-112 46.5q-63 0 -100.5 -28.5t-37.5 -78.5q0 -41 20.5 -67.5t55 -45t75 -33.5t81 -32.5t75 -42t55 -61.5t20.5 -93q0 -61 -34.5 -107.5t-96 -72.5t-144.5 -26zM443 762q-36 12 -61.5 22t-46.5 21t-44 25q-23 -14 -44 -25t-46.5 -21t-61.5 -22
q-11 10 -15 22q42 31 66.5 51t43 40t41.5 50q16 3 32 0q23 -30 41.5 -50t43 -40t66.5 -51q-4 -12 -15 -22z" />
    <glyph glyph-name="scircumflex" unicode="&#x15d;" horiz-adv-x="458" 
d="M222 -15q-43 0 -84 7.5t-86 22.5v138q16 3 32 0q13 -60 47 -94t101 -34q45 0 74.5 18.5t29.5 52.5q0 27 -19.5 42t-51 24t-66 18t-66 25t-51 43.5t-19.5 73.5q0 61 45.5 97t130.5 36q36 0 71.5 -7t66.5 -21v-127q-16 -3 -32 0q-11 59 -38.5 87t-79.5 28q-46 0 -70 -18
t-24 -50q0 -26 20.5 -41t52.5 -25.5t68.5 -20.5t68.5 -25.5t52.5 -41.5t20.5 -68q0 -67 -51 -103.5t-143 -36.5zM358 515q-31 15 -53 28.5t-40 26.5t-38 26q-20 -13 -38 -26t-40 -26.5t-53 -28.5q-12 9 -17 22q35 33 56 55.5t38 45t38 52.5q16 3 32 0l38.5 -52.5t38 -45
t55.5 -55.5q-5 -13 -17 -22z" />
    <glyph glyph-name="Scedilla" unicode="&#x15e;" horiz-adv-x="582" 
d="M264 -14q-52 0 -105.5 13t-99.5 36v180q16 3 32 0q5 -54 31 -96.5t68.5 -67.5t94.5 -25q72 0 115.5 34.5t43.5 95.5q0 38 -20 63t-53.5 42.5t-73 32t-79 31.5t-73 41.5t-53.5 61t-20 91.5q0 62 27.5 105.5t79.5 66.5t124 23q64 0 108 -13t77 -34v-157q-16 -3 -32 0
q-7 71 -49 117.5t-112 46.5q-63 0 -100.5 -28.5t-37.5 -78.5q0 -41 20.5 -67.5t55 -45t75 -33.5t81 -32.5t75 -42t55 -61.5t20.5 -93q0 -61 -34.5 -107.5t-96 -72.5t-144.5 -26zM209 -162q20 -13 42 -19.5t41 -6.5q39 0 39 31q0 17 -25.5 31.5t-66.5 23.5l34 102h40l-13 -44
q46 -16 73.5 -37t27.5 -59q0 -36 -28.5 -60.5t-74.5 -24.5q-31 0 -54.5 7.5t-46.5 22.5q2 20 12 33z" />
    <glyph glyph-name="scedilla" unicode="&#x15f;" horiz-adv-x="458" 
d="M222 -15q-43 0 -84 7.5t-86 22.5v138q16 3 32 0q13 -60 47 -94t101 -34q45 0 74.5 18.5t29.5 52.5q0 27 -19.5 42t-51 24t-66 18t-66 25t-51 43.5t-19.5 73.5q0 61 45.5 97t130.5 36q36 0 71.5 -7t66.5 -21v-127q-16 -3 -32 0q-11 59 -38.5 87t-79.5 28q-46 0 -70 -18
t-24 -50q0 -26 20.5 -41t52.5 -25.5t68.5 -20.5t68.5 -25.5t52.5 -41.5t20.5 -68q0 -67 -51 -103.5t-143 -36.5zM145 -162q20 -13 42 -19.5t41 -6.5q39 0 39 31q0 17 -25.5 31.5t-66.5 23.5l34 102h40l-13 -44q46 -16 73.5 -37t27.5 -59q0 -36 -28.5 -60.5t-74.5 -24.5
q-31 0 -54.5 7.5t-46.5 22.5q2 20 12 33z" />
    <glyph glyph-name="Scaron" unicode="&#x160;" horiz-adv-x="582" 
d="M264 -14q-52 0 -105.5 13t-99.5 36v180q16 3 32 0q5 -54 31 -96.5t68.5 -67.5t94.5 -25q72 0 115.5 34.5t43.5 95.5q0 38 -20 63t-53.5 42.5t-73 32t-79 31.5t-73 41.5t-53.5 61t-20 91.5q0 62 27.5 105.5t79.5 66.5t124 23q64 0 108 -13t77 -34v-157q-16 -3 -32 0
q-7 71 -49 117.5t-112 46.5q-63 0 -100.5 -28.5t-37.5 -78.5q0 -41 20.5 -67.5t55 -45t75 -33.5t81 -32.5t75 -42t55 -61.5t20.5 -93q0 -61 -34.5 -107.5t-96 -72.5t-144.5 -26zM443 933q11 -10 15 -22q-42 -30 -66.5 -50t-43 -40t-41.5 -51q-16 -3 -32 0q-23 31 -41.5 51
t-43 40t-66.5 50q4 12 15 22q36 -11 61.5 -21.5t46.5 -21.5t44 -25q23 14 44 25t46.5 21.5t61.5 21.5z" />
    <glyph glyph-name="scaron" unicode="&#x161;" horiz-adv-x="458" 
d="M222 -15q-43 0 -84 7.5t-86 22.5v138q16 3 32 0q13 -60 47 -94t101 -34q45 0 74.5 18.5t29.5 52.5q0 27 -19.5 42t-51 24t-66 18t-66 25t-51 43.5t-19.5 73.5q0 61 45.5 97t130.5 36q36 0 71.5 -7t66.5 -21v-127q-16 -3 -32 0q-11 59 -38.5 87t-79.5 28q-46 0 -70 -18
t-24 -50q0 -26 20.5 -41t52.5 -25.5t68.5 -20.5t68.5 -25.5t52.5 -41.5t20.5 -68q0 -67 -51 -103.5t-143 -36.5zM358 695q12 -9 17 -22q-34 -32 -55.5 -55t-38 -45t-38.5 -53q-16 -3 -32 0q-21 31 -38 53t-38 45t-56 55q5 13 17 22q31 -15 53 -28.5t40 -26t38 -26.5
q20 14 38 26.5t40 26t53 28.5z" />
    <glyph glyph-name="uni0162" unicode="&#x162;" horiz-adv-x="652" 
d="M189 -2q-4 19 0 37h72q5 45 7.5 87.5t2.5 87.5v280q0 45 -2.5 85t-7.5 85h-58q-70 0 -101 -36t-39 -126q-16 -3 -32 0v202h590v-202q-16 -3 -32 0q-7 90 -38 126t-102 36h-58q-5 -45 -7.5 -85t-2.5 -85v-280q0 -45 2.5 -87.5t7.5 -87.5h72q4 -18 0 -37q-34 2 -68 2h-69
h-68t-69 -2zM244 -162q20 -13 42 -19.5t41 -6.5q39 0 39 31q0 17 -25.5 31.5t-66.5 23.5l34 102h40l-13 -44q46 -16 73.5 -37t27.5 -59q0 -36 -28.5 -60.5t-74.5 -24.5q-31 0 -54.5 7.5t-46.5 22.5q2 20 12 33z" />
    <glyph glyph-name="uni0163" unicode="&#x163;" horiz-adv-x="336" 
d="M211 -15q-52 0 -84 24.5t-32 79.5v221q0 27 -0.5 61.5t-2 70t-5.5 63.5q18 6 32.5 16.5t26 24.5t18.5 29q16 3 32 0q-4 -67 -5 -133.5t-1 -133.5v-215q0 -34 10.5 -48.5t30.5 -14.5q15 0 31 7t27 19q8 -5 14 -12t12 -15q-18 -19 -40.5 -31.5t-63.5 -12.5zM25 400
q-3 20 0 40h280q3 -20 0 -40h-280zM113 -162q20 -13 42 -19.5t41 -6.5q39 0 39 31q0 17 -25.5 31.5t-66.5 23.5l34 102h40l-13 -44q46 -16 73.5 -37t27.5 -59q0 -36 -28.5 -60.5t-74.5 -24.5q-31 0 -54.5 7.5t-46.5 22.5q2 20 12 33z" />
    <glyph glyph-name="Tcaron" unicode="&#x164;" horiz-adv-x="652" 
d="M189 -2q-4 19 0 37h72q5 45 7.5 87.5t2.5 87.5v280q0 45 -2.5 85t-7.5 85h-58q-70 0 -101 -36t-39 -126q-16 -3 -32 0v202h590v-202q-16 -3 -32 0q-7 90 -38 126t-102 36h-58q-5 -45 -7.5 -85t-2.5 -85v-280q0 -45 2.5 -87.5t7.5 -87.5h72q4 -18 0 -37q-34 2 -68 2h-69
h-68t-69 -2zM478 933q11 -10 15 -22q-42 -30 -66.5 -50t-43 -40t-41.5 -51q-16 -3 -32 0q-23 31 -41.5 51t-43 40t-66.5 50q4 12 15 22q36 -11 61.5 -21.5t46.5 -21.5t44 -25q23 14 44 25t46.5 21.5t61.5 21.5z" />
    <glyph glyph-name="tcaron" unicode="&#x165;" horiz-adv-x="336" 
d="M235 684l48 36l49 -36v-50q-8 -22 -14.5 -45t-11.5 -47t-8 -52q-15 -3 -30 0q-3 28 -7.5 52t-11 47t-14.5 45v50zM211 -15q-52 0 -84 24.5t-32 79.5v221q0 27 -0.5 61.5t-2 70t-5.5 63.5q18 6 32.5 16.5t26 24.5t18.5 29q16 3 32 0q-4 -67 -5 -133.5t-1 -133.5v-215
q0 -34 10.5 -48.5t30.5 -14.5q15 0 31 7t27 19q8 -5 14 -12t12 -15q-18 -19 -40.5 -31.5t-63.5 -12.5zM25 400q-3 20 0 40h280q3 -20 0 -40h-280z" />
    <glyph glyph-name="Tbar" unicode="&#x166;" horiz-adv-x="654" 
d="M518 350h-380q-4 25 0 50h380q4 -25 0 -50zM191 -2q-4 19 0 37h72q5 45 7.5 87.5t2.5 87.5v280q0 45 -2.5 85t-7.5 85h-58q-70 0 -101 -36t-39 -126q-16 -3 -32 0v202h590v-202q-16 -3 -32 0q-7 90 -38 126t-102 36h-58q-5 -45 -7.5 -85t-2.5 -85v-280q0 -45 2.5 -87.5
t7.5 -87.5h72q4 -18 0 -37q-34 2 -68 2h-69h-68t-69 -2z" />
    <glyph glyph-name="tbar" unicode="&#x167;" horiz-adv-x="346" 
d="M309 220h-280q-4 25 0 50h280q4 -25 0 -50zM215 -15q-52 0 -84 24.5t-32 79.5v221q0 27 -0.5 61.5t-2 70t-5.5 63.5q18 6 32.5 16.5t26 24.5t18.5 29q16 3 32 0q-4 -67 -5 -133.5t-1 -133.5v-215q0 -34 10.5 -48.5t30.5 -14.5q15 0 31 7t27 19q8 -5 14 -12t12 -15
q-18 -19 -40.5 -31.5t-63.5 -12.5zM29 400q-3 20 0 40h280q3 -20 0 -40h-280z" />
    <glyph glyph-name="Utilde" unicode="&#x168;" horiz-adv-x="739" 
d="M390 -15q-143 0 -209.5 54t-66.5 166v285q0 45 -2.5 87.5t-7.5 87.5h-72q-4 19 0 37q35 -1 69 -1.5t68 -0.5q35 0 69 0.5t68 1.5q4 -18 0 -37h-72q-5 -45 -7.5 -87.5t-2.5 -87.5v-280q0 -94 46 -136t129 -42q89 0 133.5 50.5t44.5 136.5v271q0 45 -3.5 84t-11.5 91h-77
q-4 19 0 37q35 -1 66.5 -1.5t50.5 -0.5q17 0 43.5 0.5t60.5 1.5q4 -18 0 -37h-67q-8 -52 -11.5 -91t-3.5 -84v-285q0 -103 -61 -161.5t-173 -58.5zM526 885q18 -3 28 -9q-7 -64 -34.5 -85t-65.5 -21q-32 0 -54 14t-40.5 27.5t-42.5 13.5q-16 0 -30 -9t-25 -42q-18 3 -28 9
q8 62 34 84.5t65 22.5q31 0 53 -13.5t42 -27.5t43 -14q16 0 30 9t25 41z" />
    <glyph glyph-name="utilde" unicode="&#x169;" horiz-adv-x="564" 
d="M373 110l10 -45q-27 -38 -65 -59t-93 -21t-85 22.5t-50 56.5q2 15 2.5 30t0.5 30v136q0 72 -10 143h-52q-4 19 0 37q39 0 82.5 2.5t89.5 10.5q-6 -25 -9 -60.5t-4.5 -71.5t-1.5 -61v-136q0 -37 16.5 -63t58.5 -26q35 0 62.5 18.5t47.5 56.5zM530 37q4 -18 0 -37
q-35 0 -75 -2.5t-82 -10.5q5 18 7.5 40.5t2.5 37.5l-10 45v150q0 72 -10 143h-57q-4 19 0 37q39 0 85 2.5t92 10.5q-6 -25 -9 -60.5t-4.5 -71.5t-1.5 -61v-80q0 -72 10 -143h52zM397 654q19 -3 30 -13q-7 -40 -23.5 -62t-37 -30.5t-40.5 -8.5q-19 0 -33 8t-26 18t-23 18
t-24 8q-16 0 -29.5 -7.5t-24.5 -39.5q-19 3 -30 13q11 59 40 80.5t60 21.5q24 0 41 -13t33 -26t33 -13q16 0 29.5 7.5t24.5 38.5z" />
    <glyph glyph-name="Umacron" unicode="&#x16a;" horiz-adv-x="739" 
d="M390 -15q-143 0 -209.5 54t-66.5 166v285q0 45 -2.5 87.5t-7.5 87.5h-72q-4 19 0 37q35 -1 69 -1.5t68 -0.5q35 0 69 0.5t68 1.5q4 -18 0 -37h-72q-5 -45 -7.5 -87.5t-2.5 -87.5v-280q0 -94 46 -136t129 -42q89 0 133.5 50.5t44.5 136.5v271q0 45 -3.5 84t-11.5 91h-77
q-4 19 0 37q35 -1 66.5 -1.5t50.5 -0.5q17 0 43.5 0.5t60.5 1.5q4 -18 0 -37h-67q-8 -52 -11.5 -91t-3.5 -84v-285q0 -103 -61 -161.5t-173 -58.5zM534 785h-280q-2 13 -2 30t2 30h280q2 -13 2 -30t-2 -30z" />
    <glyph glyph-name="umacron" unicode="&#x16b;" horiz-adv-x="564" 
d="M373 110l10 -45q-27 -38 -65 -59t-93 -21t-85 22.5t-50 56.5q2 15 2.5 30t0.5 30v136q0 72 -10 143h-52q-4 19 0 37q39 0 82.5 2.5t89.5 10.5q-6 -25 -9 -60.5t-4.5 -71.5t-1.5 -61v-136q0 -37 16.5 -63t58.5 -26q35 0 62.5 18.5t47.5 56.5zM530 37q4 -18 0 -37
q-35 0 -75 -2.5t-82 -10.5q5 18 7.5 40.5t2.5 37.5l-10 45v150q0 72 -10 143h-57q-4 19 0 37q39 0 85 2.5t92 10.5q-6 -25 -9 -60.5t-4.5 -71.5t-1.5 -61v-80q0 -72 10 -143h52zM426 540h-290q-2 13 -2 30t2 30h290q2 -13 2 -30t-2 -30z" />
    <glyph glyph-name="Ubreve" unicode="&#x16c;" horiz-adv-x="739" 
d="M390 -15q-143 0 -209.5 54t-66.5 166v285q0 45 -2.5 87.5t-7.5 87.5h-72q-4 19 0 37q35 -1 69 -1.5t68 -0.5q35 0 69 0.5t68 1.5q4 -18 0 -37h-72q-5 -45 -7.5 -87.5t-2.5 -87.5v-280q0 -94 46 -136t129 -42q89 0 133.5 50.5t44.5 136.5v271q0 45 -3.5 84t-11.5 91h-77
q-4 19 0 37q35 -1 66.5 -1.5t50.5 -0.5q17 0 43.5 0.5t60.5 1.5q4 -18 0 -37h-67q-8 -52 -11.5 -91t-3.5 -84v-285q0 -103 -61 -161.5t-173 -58.5zM507 925q16 3 32 0q-7 -72 -45.5 -113.5t-99.5 -41.5t-99 41.5t-46 113.5q16 3 32 0q11 -39 42.5 -57t70.5 -18t71 18t42 57z
" />
    <glyph glyph-name="ubreve" unicode="&#x16d;" horiz-adv-x="564" 
d="M373 110l10 -45q-27 -38 -65 -59t-93 -21t-85 22.5t-50 56.5q2 15 2.5 30t0.5 30v136q0 72 -10 143h-52q-4 19 0 37q39 0 82.5 2.5t89.5 10.5q-6 -25 -9 -60.5t-4.5 -71.5t-1.5 -61v-136q0 -37 16.5 -63t58.5 -26q35 0 62.5 18.5t47.5 56.5zM530 37q4 -18 0 -37
q-35 0 -75 -2.5t-82 -10.5q5 18 7.5 40.5t2.5 37.5l-10 45v150q0 72 -10 143h-57q-4 19 0 37q39 0 85 2.5t92 10.5q-6 -25 -9 -60.5t-4.5 -71.5t-1.5 -61v-80q0 -72 10 -143h52zM394 680q16 3 32 0q-7 -79 -45.5 -122t-99.5 -43t-99 43t-46 122q16 3 32 0q8 -46 41 -68
t72 -22t72.5 22t40.5 68z" />
    <glyph glyph-name="Uring" unicode="&#x16e;" horiz-adv-x="739" 
d="M390 -15q-143 0 -209.5 54t-66.5 166v285q0 45 -2.5 87.5t-7.5 87.5h-72q-4 19 0 37q35 -1 69 -1.5t68 -0.5q35 0 69 0.5t68 1.5q4 -18 0 -37h-72q-5 -45 -7.5 -87.5t-2.5 -87.5v-280q0 -94 46 -136t129 -42q89 0 133.5 50.5t44.5 136.5v271q0 45 -3.5 84t-11.5 91h-77
q-4 19 0 37q35 -1 66.5 -1.5t50.5 -0.5q17 0 43.5 0.5t60.5 1.5q4 -18 0 -37h-67q-8 -52 -11.5 -91t-3.5 -84v-285q0 -103 -61 -161.5t-173 -58.5zM394 942q47 0 76.5 -25t29.5 -65t-29.5 -65t-76.5 -25q-46 0 -76 25t-30 65t30 65t76 25zM396 792q18 0 28.5 15t10.5 45
t-12.5 45t-30.5 15t-28.5 -15t-10.5 -45t12.5 -45t30.5 -15z" />
    <glyph glyph-name="uring" unicode="&#x16f;" horiz-adv-x="564" 
d="M373 110l10 -45q-27 -38 -65 -59t-93 -21t-85 22.5t-50 56.5q2 15 2.5 30t0.5 30v136q0 72 -10 143h-52q-4 19 0 37q39 0 82.5 2.5t89.5 10.5q-6 -25 -9 -60.5t-4.5 -71.5t-1.5 -61v-136q0 -37 16.5 -63t58.5 -26q35 0 62.5 18.5t47.5 56.5zM530 37q4 -18 0 -37
q-35 0 -75 -2.5t-82 -10.5q5 18 7.5 40.5t2.5 37.5l-10 45v150q0 72 -10 143h-57q-4 19 0 37q39 0 85 2.5t92 10.5q-6 -25 -9 -60.5t-4.5 -71.5t-1.5 -61v-80q0 -72 10 -143h52zM281 695q47 0 76.5 -25t29.5 -65t-29.5 -65t-76.5 -25q-46 0 -76 25t-30 65t30 65t76 25z
M283 545q18 0 28.5 15t10.5 45t-12.5 45t-30.5 15t-28.5 -15t-10.5 -45t12.5 -45t30.5 -15z" />
    <glyph glyph-name="Uhungarumlaut" unicode="&#x170;" horiz-adv-x="739" 
d="M390 -15q-143 0 -209.5 54t-66.5 166v285q0 45 -2.5 87.5t-7.5 87.5h-72q-4 19 0 37q35 -1 69 -1.5t68 -0.5q35 0 69 0.5t68 1.5q4 -18 0 -37h-72q-5 -45 -7.5 -87.5t-2.5 -87.5v-280q0 -94 46 -136t129 -42q89 0 133.5 50.5t44.5 136.5v271q0 45 -3.5 84t-11.5 91h-77
q-4 19 0 37q35 -1 66.5 -1.5t50.5 -0.5q17 0 43.5 0.5t60.5 1.5q4 -18 0 -37h-67q-8 -52 -11.5 -91t-3.5 -84v-285q0 -103 -61 -161.5t-173 -58.5zM474 925q-17 -35 -46 -60.5t-58 -47.5t-47 -47q-16 -3 -32 0q24 38 40 73.5t28 81.5h115zM614 925q-17 -35 -46 -60.5
t-57.5 -47.5t-47.5 -47q-16 -3 -32 0q24 38 40 73.5t28 81.5h115z" />
    <glyph glyph-name="uhungarumlaut" unicode="&#x171;" horiz-adv-x="564" 
d="M373 110l10 -45q-27 -38 -65 -59t-93 -21t-85 22.5t-50 56.5q2 15 2.5 30t0.5 30v136q0 72 -10 143h-52q-4 19 0 37q39 0 82.5 2.5t89.5 10.5q-6 -25 -9 -60.5t-4.5 -71.5t-1.5 -61v-136q0 -37 16.5 -63t58.5 -26q35 0 62.5 18.5t47.5 56.5zM530 37q4 -18 0 -37
q-35 0 -75 -2.5t-82 -10.5q5 18 7.5 40.5t2.5 37.5l-10 45v150q0 72 -10 143h-57q-4 19 0 37q39 0 85 2.5t92 10.5q-6 -25 -9 -60.5t-4.5 -71.5t-1.5 -61v-80q0 -72 10 -143h52zM361 690q-14 -34 -39 -61t-51.5 -52.5t-45.5 -56.5q-16 -3 -32 0q28 46 42 86.5t21 83.5h105z
M491 690q-15 -34 -42 -61t-55.5 -52.5t-48.5 -56.5q-16 -3 -32 0q32 46 49 86.5t24 83.5h105z" />
    <glyph glyph-name="Uogonek" unicode="&#x172;" horiz-adv-x="739" 
d="M390 -15q-143 0 -209.5 54t-66.5 166v285q0 45 -2.5 87.5t-7.5 87.5h-72q-4 19 0 37q35 -1 69 -1.5t68 -0.5q35 0 69 0.5t68 1.5q4 -18 0 -37h-72q-5 -45 -7.5 -87.5t-2.5 -87.5v-280q0 -94 46 -136t129 -42q89 0 133.5 50.5t44.5 136.5v271q0 45 -3.5 84t-11.5 91h-77
q-4 19 0 37q35 -1 66.5 -1.5t50.5 -0.5q17 0 43.5 0.5t60.5 1.5q4 -18 0 -37h-67q-8 -52 -11.5 -91t-3.5 -84v-285q0 -103 -61 -161.5t-173 -58.5zM371 -225q-43 0 -72 23t-29 66q0 42 25.5 71.5t70.5 50t104 35.5l19 -21q-69 -19 -102.5 -50t-33.5 -69q0 -21 15 -35.5
t44 -14.5q14 0 31.5 5t39.5 16q12 -14 15 -31q-31 -19 -59.5 -32.5t-67.5 -13.5z" />
    <glyph glyph-name="uogonek" unicode="&#x173;" horiz-adv-x="564" 
d="M373 110l10 -45q-27 -38 -65 -59t-93 -21t-85 22.5t-50 56.5q2 15 2.5 30t0.5 30v136q0 72 -10 143h-52q-4 19 0 37q39 0 82.5 2.5t89.5 10.5q-6 -25 -9 -60.5t-4.5 -71.5t-1.5 -61v-136q0 -37 16.5 -63t58.5 -26q35 0 62.5 18.5t47.5 56.5zM530 37q4 -18 0 -37
q-35 0 -72.5 -3.5t-64.5 -19.5q-6 26 -8 49.5t-2 38.5l-10 45v150q0 72 -10 143h-57q-4 19 0 37q39 0 85 2.5t92 10.5q-6 -25 -9 -60.5t-4.5 -71.5t-1.5 -61v-80q0 -72 10 -143h52zM412 -225q-43 0 -72 23t-29 66q0 42 25.5 71.5t70.5 50t104 35.5l19 -21
q-69 -19 -102.5 -50t-33.5 -69q0 -21 15 -35.5t44 -14.5q14 0 31.5 5t39.5 16q12 -14 15 -31q-31 -19 -59.5 -32.5t-67.5 -13.5z" />
    <glyph glyph-name="Wcircumflex" unicode="&#x174;" horiz-adv-x="1029" 
d="M52 665h-53q-4 19 0 37q25 -1 43.5 -1.5t37 -0.5h40.5q35 0 73 0.5t73 1.5q4 -18 0 -37h-70q8 -49 20 -89.5t28 -85.5l113 -321l-63 -189q-6 30 -17 69t-24 79t-25 72l-104 290q-14 41 -30 82t-42 93zM1030 702q2 -7 2 -17.5t-2 -19.5h-59q-24 -45 -40 -86.5t-32 -88.5
l-103 -309q-8 -25 -19 -59t-20.5 -71t-15.5 -71q-10 -1 -19.5 -1.5t-18.5 0t-20 1.5l63 189l104 321q15 46 23.5 86t12.5 89h-84q-1 8 -1 19t1 18q44 -1 76.5 -1.5t51.5 -0.5t41 0.5t59 1.5zM447 665h-58q-1 7 -1.5 17.5t1.5 19.5q25 -1 45 -1.5t38.5 -0.5h37.5q34 0 72 0.5
t74 1.5q1 -7 1.5 -16.5t-1.5 -20.5h-72q8 -42 21 -85t29 -90l112 -321l-63 -189q-11 50 -26.5 100t-40.5 120l-103 290q-9 28 -19 56.5t-21 58.5t-26 60zM542 563l-134 -382q-9 -25 -20 -59t-20.5 -71t-15.5 -71q-10 -1 -19.5 -1.5t-19 0t-19.5 1.5l63 189l136 394h49z
M673 762q-36 12 -61.5 22t-46.5 21t-44 25q-23 -14 -44 -25t-46.5 -21t-61.5 -22q-11 10 -15 22q42 31 66.5 51t43 40t41.5 50q16 3 32 0q23 -30 41.5 -50t43 -40t66.5 -51q-4 -12 -15 -22z" />
    <glyph glyph-name="wcircumflex" unicode="&#x175;" horiz-adv-x="798" 
d="M227 -15q-55 0 -85 22.5t-50 56.5q2 15 2.5 30t0.5 30v136q0 72 -10 143h-52q-4 19 0 37q39 0 82.5 2.5t89.5 10.5q-6 -25 -9 -60.5t-4.5 -71.5t-1.5 -61v-136q0 -37 16.5 -63t58.5 -26q35 0 62.5 18.5t47.5 56.5l10 -45q-27 -38 -65 -59t-93 -21zM766 442q4 -19 0 -39
h-40q-7 -41 -8.5 -79.5t-1.5 -93.5q0 -47 -10 -91t-31.5 -78.5t-54 -55t-77.5 -20.5q-33 0 -67.5 7.5t-92.5 7.5q2 17 2 33v32l-10 45v150q0 72 -10 143h-57q-4 19 0 37q39 0 85 2.5t92 10.5q-6 -25 -9 -60.5t-4.5 -71.5t-1.5 -61v-130q0 -47 12 -73.5t61 -26.5q40 0 68 26
t43 71.5t15 102.5q0 47 -12 89.5t-41 83.5h-47q-4 20 0 39q35 -1 68.5 -1.5t51.5 -0.5q17 0 37.5 0.5t39.5 1.5zM551 515q-31 15 -53 28.5t-40 26.5t-38 26q-20 -13 -38 -26t-40 -26.5t-53 -28.5q-12 9 -17 22q35 33 56 55.5t38 45t38 52.5q16 3 32 0l38.5 -52.5t38 -45
t55.5 -55.5q-5 -13 -17 -22z" />
    <glyph glyph-name="Ycircumflex" unicode="&#x176;" horiz-adv-x="642" 
d="M185 -2q-4 19 0 37h72q5 45 7.5 85t2.5 70v13q0 68 -19.5 138t-50.5 133t-66.5 113t-68.5 78h151q5 -18 22 -43t39.5 -61.5t44.5 -88t35 -122.5q10 46 28 92t39.5 88t41.5 73q17 26 23 39t9 23h75q-50 -53 -86.5 -115t-60 -125t-35 -120.5t-11.5 -101.5v-13
q0 -30 2.5 -70t7.5 -85h72q4 -18 0 -37q-34 2 -68 2h-69h-68t-69 -2zM-2 665q-4 19 0 37q35 -1 66.5 -1.5t50.5 -0.5h38.5t55.5 0.5t58 1.5q4 -18 0 -37h-269zM407 665q-4 19 0 37q42 -1 72.5 -1.5t49.5 -0.5q20 0 42 0.5t56 1.5q4 -18 0 -37h-220zM485 762q-36 12 -61.5 22
t-46.5 21t-44 25q-23 -14 -44 -25t-46.5 -21t-61.5 -22q-11 10 -15 22q42 31 66.5 51t43 40t41.5 50q16 3 32 0q23 -30 41.5 -50t43 -40t66.5 -51q-4 -12 -15 -22z" />
    <glyph glyph-name="ycircumflex" unicode="&#x177;" horiz-adv-x="548" 
d="M225 5q-55 0 -85 22.5t-50 56.5q2 15 2.5 30t0.5 30v116q0 72 -10 143h-52q-4 19 0 37q39 0 82.5 2.5t89.5 10.5q-6 -25 -9 -60.5t-4.5 -71.5t-1.5 -61v-116q0 -37 16.5 -63t58.5 -26q35 0 62.5 18.5t47.5 56.5v-56q-16 -23 -36.5 -38.5t-47.5 -23t-64 -7.5zM306 440
q39 0 85 2.5t92 10.5q-6 -25 -9 -60.5t-4.5 -71.5t-1.5 -61v-190q0 -95 -34.5 -161t-91 -100t-123.5 -34q-76 0 -123.5 30.5t-47.5 88.5q0 51 34.5 84.5t80.5 55.5l28 -17q-37 -24 -50 -51.5t-13 -61.5q0 -42 21 -65.5t70 -23.5q58 0 91.5 30.5t48 78.5t14.5 100v236
q0 72 -10 143h-57q-4 19 0 37zM411 515q-31 15 -53 28.5t-40 26.5t-38 26q-20 -13 -38 -26t-40 -26.5t-53 -28.5q-12 9 -17 22q35 33 56 55.5t38 45t38 52.5q16 3 32 0l38.5 -52.5t38 -45t55.5 -55.5q-5 -13 -17 -22z" />
    <glyph glyph-name="Ydieresis" unicode="&#x178;" horiz-adv-x="642" 
d="M185 -2q-4 19 0 37h72q5 45 7.5 85t2.5 70v13q0 68 -19.5 138t-50.5 133t-66.5 113t-68.5 78h151q5 -18 22 -43t39.5 -61.5t44.5 -88t35 -122.5q10 46 28 92t39.5 88t41.5 73q17 26 23 39t9 23h75q-50 -53 -86.5 -115t-60 -125t-35 -120.5t-11.5 -101.5v-13
q0 -30 2.5 -70t7.5 -85h72q4 -18 0 -37q-34 2 -68 2h-69h-68t-69 -2zM-2 665q-4 19 0 37q35 -1 66.5 -1.5t50.5 -0.5h38.5t55.5 0.5t58 1.5q4 -18 0 -37h-269zM407 665q-4 19 0 37q42 -1 72.5 -1.5t49.5 -0.5q20 0 42 0.5t56 1.5q4 -18 0 -37h-220zM223 910l55 -30v-65
l-55 -30l-55 30v65zM443 910l55 -30v-65l-55 -30l-55 30v65z" />
    <glyph glyph-name="Zacute" unicode="&#x179;" horiz-adv-x="644" 
d="M65 700h515q2 -13 3 -25t0 -25l-129 10h-217q-63 0 -99.5 -33.5t-40.5 -116.5q-16 -3 -32 0v190zM595 0h-556q-1 13 -2.5 25t-1.5 25l136 -10h252q47 0 77 14.5t45.5 47.5t17.5 88q16 3 32 0v-190zM454 660l129 -10q-34 -20 -58 -58.5t-44 -71.5l-202 -340
q-33 -56 -57.5 -91.5t-50.5 -48.5l-136 10q20 9 42 31.5t41.5 49.5t32.5 49l202 340q33 56 56 91.5t45 48.5zM504 925q-19 -35 -52 -60.5t-65.5 -47.5t-53.5 -47q-16 -3 -32 0q28 38 46.5 73.5t31.5 81.5h125z" />
    <glyph glyph-name="zacute" unicode="&#x17a;" horiz-adv-x="489" 
d="M155 37l-116 6q20 8 38.5 30t40.5 55l124 184q24 35 40 58t35 33l116 -6q-20 -8 -38 -30t-41 -55l-124 -184q-23 -35 -39.5 -58t-35.5 -33zM42 0q-5 21 -3 43l116 -6h154q47 0 71.5 34.5t30.5 88.5q16 3 32 0v-160h-401zM60 280v160h370q2 -10 3 -21t0 -22l-116 6h-119
q-46 0 -73 -27t-33 -96q-16 -3 -32 0zM394 690q-15 -34 -42 -61t-55.5 -52.5t-48.5 -56.5q-16 -3 -32 0q28 46 42 86.5t21 83.5h115z" />
    <glyph glyph-name="Zdotaccent" unicode="&#x17b;" horiz-adv-x="644" 
d="M65 700h515q2 -13 3 -25t0 -25l-129 10h-217q-63 0 -99.5 -33.5t-40.5 -116.5q-16 -3 -32 0v190zM595 0h-556q-1 13 -2.5 25t-1.5 25l136 -10h252q47 0 77 14.5t45.5 47.5t17.5 88q16 3 32 0v-190zM454 660l129 -10q-34 -20 -58 -58.5t-44 -71.5l-202 -340
q-33 -56 -57.5 -91.5t-50.5 -48.5l-136 10q20 9 42 31.5t41.5 49.5t32.5 49l202 340q33 56 56 91.5t45 48.5zM338 910l55 -30v-65l-55 -30l-55 30v65z" />
    <glyph glyph-name="zdotaccent" unicode="&#x17c;" horiz-adv-x="489" 
d="M155 37l-116 6q20 8 38.5 30t40.5 55l124 184q24 35 40 58t35 33l116 -6q-20 -8 -38 -30t-41 -55l-124 -184q-23 -35 -39.5 -58t-35.5 -33zM42 0q-5 21 -3 43l116 -6h154q47 0 71.5 34.5t30.5 88.5q16 3 32 0v-160h-401zM60 280v160h370q2 -10 3 -21t0 -22l-116 6h-119
q-46 0 -73 -27t-33 -96q-16 -3 -32 0zM250 670l55 -30v-65l-55 -30l-55 30v65z" />
    <glyph glyph-name="Zcaron" unicode="&#x17d;" horiz-adv-x="644" 
d="M65 700h515q2 -13 3 -25t0 -25l-129 10h-217q-63 0 -99.5 -33.5t-40.5 -116.5q-16 -3 -32 0v190zM595 0h-556q-1 13 -2.5 25t-1.5 25l136 -10h252q47 0 77 14.5t45.5 47.5t17.5 88q16 3 32 0v-190zM454 660l129 -10q-34 -20 -58 -58.5t-44 -71.5l-202 -340
q-33 -56 -57.5 -91.5t-50.5 -48.5l-136 10q20 9 42 31.5t41.5 49.5t32.5 49l202 340q33 56 56 91.5t45 48.5zM490 933q11 -10 15 -22q-42 -30 -66.5 -50t-43 -40t-41.5 -51q-16 -3 -32 0q-23 31 -41.5 51t-43 40t-66.5 50q4 12 15 22q36 -11 61.5 -21.5t46.5 -21.5t44 -25
q23 14 44 25t46.5 21.5t61.5 21.5z" />
    <glyph glyph-name="zcaron" unicode="&#x17e;" horiz-adv-x="489" 
d="M155 37l-116 6q20 8 38.5 30t40.5 55l124 184q24 35 40 58t35 33l116 -6q-20 -8 -38 -30t-41 -55l-124 -184q-23 -35 -39.5 -58t-35.5 -33zM42 0q-5 21 -3 43l116 -6h154q47 0 71.5 34.5t30.5 88.5q16 3 32 0v-160h-401zM60 280v160h370q2 -10 3 -21t0 -22l-116 6h-119
q-46 0 -73 -27t-33 -96q-16 -3 -32 0zM381 695q12 -9 17 -22q-34 -32 -55.5 -55t-38 -45t-38.5 -53q-16 -3 -32 0q-21 31 -38 53t-38 45t-56 55q5 13 17 22q31 -15 53 -28.5t40 -26t38 -26.5q20 14 38 26.5t40 26t53 28.5z" />
    <glyph glyph-name="uni018F" unicode="&#x18f;" horiz-adv-x="751" 
d="M368 715q96 0 170.5 -42.5t117 -123.5t42.5 -198q0 -114 -43.5 -196t-120.5 -126t-178 -44q-306 0 -306 332q34 -4 71.5 -7.5t89.5 -3.5h392v-40h-422q0 -81 24.5 -134.5t66 -80t93.5 -26.5q56 0 95.5 25.5t65 70.5t37.5 102t12 120q0 60 -15 117t-46 102t-78 72t-111 27
t-123 -33.5t-115 -112.5q-18 11 -33 26q65 87 142 130.5t172 43.5z" />
    <glyph glyph-name="florin" unicode="&#x192;" horiz-adv-x="478" 
d="M25 -225q-1 19 3 38q38 5 60.5 32t33.5 65.5t14 79.5l41 460q9 98 29 157t55 86t87 27q60 0 80.5 -31t15.5 -78h-95q6 32 -0.5 53t-22.5 21q-10 0 -17.5 -8.5t-13.5 -32.5t-12 -70t-12 -120l-32 -380q-3 -28 -4.5 -56.5t1.5 -57.5q-7 -28 -22.5 -59.5t-41 -59.5t-62 -46
t-85.5 -20zM416 400h-310q-3 20 0 40h310q3 -20 0 -40z" />
    <glyph glyph-name="Ohorn" unicode="&#x1a0;" horiz-adv-x="796" 
d="M178 360q0 -63 11.5 -122.5t38 -107t70.5 -75.5t110 -28l-10 -42q-107 0 -184.5 46t-119 128t-41.5 191t42.5 191t120 128t182.5 46l-10 -42q-75 0 -121.5 -43.5t-67.5 -114.5t-21 -155zM618 340q0 63 -11.5 122.5t-38 107t-70.5 75.5t-110 28l10 42q108 0 185 -46
t118.5 -128t41.5 -191t-42.5 -191t-120 -128t-182.5 -46l10 42q75 0 121.5 43t67.5 114.5t21 155.5zM631 577l-6 43q26 0 39 18t13 37q0 22 -8 39.5t-37 48.5h125q2 -11 3.5 -22t1.5 -22q0 -37 -15.5 -69.5t-44.5 -52.5t-71 -20z" />
    <glyph glyph-name="ohorn" unicode="&#x1a1;" horiz-adv-x="546" 
d="M268 415q-36 0 -62.5 -20t-41 -61.5t-14.5 -104.5q0 -70 16 -115.5t45 -67t67 -21.5l-5 -40q-66 0 -117.5 29t-81 83t-29.5 127q0 71 28.5 123t79.5 80t120 28zM278 25q37 0 63 20.5t40.5 61.5t14.5 104q0 71 -16 116t-44.5 66.5t-67.5 21.5l5 40q67 0 118 -29
t80.5 -82.5t29.5 -127.5q0 -71 -28 -123t-79.5 -80t-120.5 -28zM420 357l-6 35q26 0 39 18t13 37t-7 35.5t-28 42.5h105q2 -11 3.5 -22t1.5 -22q0 -32 -15 -60.5t-42 -46t-64 -17.5z" />
    <glyph glyph-name="Uhorn" unicode="&#x1af;" horiz-adv-x="739" 
d="M390 -15q-143 0 -209.5 54t-66.5 166v285q0 45 -2.5 87.5t-7.5 87.5h-72q-4 19 0 37q35 -1 69 -1.5t68 -0.5q35 0 69 0.5t68 1.5q4 -18 0 -37h-72q-5 -45 -7.5 -87.5t-2.5 -87.5v-280q0 -94 46 -136t129 -42q89 0 133.5 50.5t44.5 136.5v271q0 45 -3.5 84t-11.5 91h-77
q-4 19 0 37q35 -1 66.5 -1.5t50.5 -0.5h25h30.5h20.5l6 -43h-45q-5 -35 -8.5 -61.5t-5 -51t-1.5 -54.5v-285q0 -103 -61 -161.5t-173 -58.5zM684 657l-6 43q26 0 39 18t13 37q0 22 -8 39.5t-37 48.5h125q2 -11 3.5 -22t1.5 -22q0 -37 -15.5 -69.5t-44.5 -52.5t-71 -20z" />
    <glyph glyph-name="uhorn" unicode="&#x1b0;" horiz-adv-x="564" 
d="M373 110l10 -45q-27 -38 -65 -59t-93 -21t-85 22.5t-50 56.5q2 15 2.5 30t0.5 30v136q0 72 -10 143h-52q-4 19 0 37q39 0 82.5 2.5t89.5 10.5q-6 -25 -9 -60.5t-4.5 -71.5t-1.5 -61v-136q0 -37 16.5 -63t58.5 -26q35 0 62.5 18.5t47.5 56.5zM530 37q4 -18 0 -37
q-35 0 -75 -2.5t-82 -10.5q5 18 7.5 40.5t2.5 37.5l-10 45v150q0 72 -10 143h-57q-4 19 0 37h85h92q-6 -20 -9 -53t-4.5 -67.5t-1.5 -59.5v-80q0 -72 10 -143h52zM466 405l-6 35q26 0 39 18t13 37t-7 35.5t-28 42.5h105q2 -11 3.5 -22t1.5 -22q0 -32 -15 -60.5t-42 -46
t-64 -17.5z" />
    <glyph glyph-name="uni01C4" unicode="&#x1c4;" horiz-adv-x="1419" 
d="M182 700h195q108 0 187.5 -38.5t123.5 -113t44 -183.5t-45 -191t-125 -128t-185 -46h-195h-68t-69 -2q-4 19 0 37h72q5 45 7.5 87.5t2.5 87.5v280q0 45 -2.5 87.5t-7.5 87.5h-72q-4 19 0 37q35 -1 69 -1.5t68 -0.5zM247 40h140q75 0 124 40.5t73 110.5t24 159
q0 67 -13 123.5t-41.5 98.5t-74.5 65t-112 23h-120q-5 -45 -7.5 -85t-2.5 -85v-280q0 -45 2.5 -85t7.5 -85zM840 700h515q2 -13 3 -25t0 -25l-129 10h-217q-63 0 -99.5 -33.5t-40.5 -116.5q-16 -3 -32 0v190zM1370 0h-556q-1 13 -2.5 25t-1.5 25l136 -10h252q47 0 77 14.5
t45.5 47.5t17.5 88q16 3 32 0v-190zM1229 660l129 -10q-34 -20 -58 -58.5t-44 -71.5l-202 -340q-33 -56 -57.5 -91.5t-50.5 -48.5l-136 10q20 9 42 31.5t41.5 49.5t32.5 49l202 340q33 56 56 91.5t45 48.5zM1265 933q11 -10 15 -22q-42 -30 -66.5 -50t-43 -40t-41.5 -51
q-16 -3 -32 0q-23 31 -41.5 51t-43 40t-66.5 50q4 12 15 22q36 -11 61.5 -21.5t46.5 -21.5t44 -25q23 14 44 25t46.5 21.5t61.5 21.5z" />
    <glyph glyph-name="uni01C5" unicode="&#x1c5;" horiz-adv-x="1268" 
d="M182 700h195q108 0 187.5 -38.5t123.5 -113t44 -183.5t-45 -191t-125 -128t-185 -46h-195h-68t-69 -2q-4 19 0 37h72q5 45 7.5 87.5t2.5 87.5v280q0 45 -2.5 87.5t-7.5 87.5h-72q-4 19 0 37q35 -1 69 -1.5t68 -0.5zM247 40h140q75 0 124 40.5t73 110.5t24 159
q0 67 -13 123.5t-41.5 98.5t-74.5 65t-112 23h-120q-5 -45 -7.5 -85t-2.5 -85v-280q0 -45 2.5 -85t7.5 -85zM934 37l-116 6q20 8 38.5 30t40.5 55l124 184q24 35 40 58t35 33l116 -6q-20 -8 -38 -30t-41 -55l-124 -184q-23 -35 -39.5 -58t-35.5 -33zM821 0q-5 21 -3 43
l116 -6h154q47 0 71.5 34.5t30.5 88.5q16 3 32 0v-160h-401zM839 280v160h370q2 -10 3 -21t0 -22l-116 6h-119q-46 0 -73 -27t-33 -96q-16 -3 -32 0zM1160 695q12 -9 17 -22q-34 -32 -55.5 -55t-38 -45t-38.5 -53q-16 -3 -32 0q-21 31 -38 53t-38 45t-56 55q5 13 17 22
q31 -15 53 -28.5t40 -26t38 -26.5q20 14 38 26.5t40 26t53 28.5z" />
    <glyph glyph-name="uni01C6" unicode="&#x1c6;" horiz-adv-x="1057" 
d="M386 -5q2 14 3.5 34.5t1.5 35.5l-10 45v410q0 72 -10 143h-57q-4 19 0 37q35 0 83 2.5t94 10.5q-6 -25 -9 -60.5t-4.5 -71.5t-1.5 -61v-340q0 -72 10 -143h52q4 -18 0 -37h-74.5t-77.5 -5zM242 -15q-54 0 -98.5 25t-71 76t-26.5 127q0 77 29 131t81 82.5t122 28.5
q64 0 107 -22t74 -55l-78 -76q0 46 -17 70.5t-41.5 33.5t-47.5 9q-59 0 -91.5 -47.5t-32.5 -142.5q0 -100 33 -147.5t85 -47.5q40 0 65.5 23t46.5 57l10 -45q-20 -33 -58 -56.5t-91 -23.5zM723 37l-116 6q20 8 38.5 30t40.5 55l124 184q24 35 40 58t35 33l116 -6
q-20 -8 -38 -30t-41 -55l-124 -184q-23 -35 -39.5 -58t-35.5 -33zM610 0q-5 21 -3 43l116 -6h154q47 0 71.5 34.5t30.5 88.5q16 3 32 0v-160h-401zM628 280v160h370q2 -10 3 -21t0 -22l-116 6h-119q-46 0 -73 -27t-33 -96q-16 -3 -32 0zM949 695q12 -9 17 -22
q-34 -32 -55.5 -55t-38 -45t-38.5 -53q-16 -3 -32 0q-21 31 -38 53t-38 45t-56 55q5 13 17 22q31 -15 53 -28.5t40 -26t38 -26.5q20 14 38 26.5t40 26t53 28.5z" />
    <glyph glyph-name="uni01C7" unicode="&#x1c7;" horiz-adv-x="1041" 
d="M45 -2q-4 19 0 37h72q5 45 7.5 87.5t2.5 87.5v280q0 45 -2.5 87.5t-7.5 87.5h-72q-4 19 0 37q35 -1 69 -1.5t68 -0.5q35 0 69 0.5t68 1.5q4 -18 0 -37h-72q-5 -45 -7.5 -87.5t-2.5 -87.5v-280q0 -45 2.5 -87.5t7.5 -87.5h133q78 0 107 42t33 128q16 3 32 0v-205h-370h-68
t-69 -2zM759 -15q-49 0 -85 15.5t-55 51t-19 93.5h105q0 -69 11.5 -97t42.5 -28q28 0 42 28t14 97v345q0 45 -2.5 87.5t-7.5 87.5h-92q-4 19 0 37q50 -1 86.5 -1.5t70.5 -0.5q35 0 69 0.5t68 1.5q4 -18 0 -37h-72q-5 -45 -7.5 -87.5t-2.5 -87.5v-345q0 -41 -11.5 -71.5
t-33.5 -50t-52.5 -29t-68.5 -9.5z" />
    <glyph glyph-name="uni01C8" unicode="&#x1c8;" horiz-adv-x="854" 
d="M45 -2q-4 19 0 37h72q5 45 7.5 87.5t2.5 87.5v280q0 45 -2.5 87.5t-7.5 87.5h-72q-4 19 0 37q35 -1 69 -1.5t68 -0.5q35 0 69 0.5t68 1.5q4 -18 0 -37h-72q-5 -45 -7.5 -87.5t-2.5 -87.5v-280q0 -45 2.5 -87.5t7.5 -87.5h133q78 0 107 42t33 128q16 3 32 0v-205h-370h-68
t-69 -2zM774 260v-186q0 -28 1 -56.5t6 -57.5q-4 -28 -17 -59.5t-36 -59.5t-58 -46t-84 -20q-3 19 0 38q38 5 58 32t27.5 65.5t7.5 79.5v270q0 72 -10 143h-57q-4 19 0 37q39 0 85 2.5t92 10.5q-6 -25 -9 -60.5t-4.5 -71.5t-1.5 -61zM727 670l55 -30v-65l-55 -30l-55 30v65z
" />
    <glyph glyph-name="uni01C9" unicode="&#x1c9;" horiz-adv-x="563" 
d="M260 35q4 -18 0 -37q-31 2 -58 2h-56h-56.5t-58.5 -2q-4 19 0 37h57q5 38 7.5 73t2.5 72v340q0 72 -10 143h-57q-4 19 0 37q35 0 83 2.5t94 10.5q-6 -25 -9 -60.5t-4.5 -71.5t-1.5 -61v-340q0 -37 2.5 -72t7.5 -73h57zM483 260v-186q0 -28 1 -56.5t6 -57.5
q-4 -28 -17 -59.5t-36 -59.5t-58 -46t-84 -20q-3 19 0 38q38 5 58 32t27.5 65.5t7.5 79.5v270q0 72 -10 143h-57q-4 19 0 37q39 0 85 2.5t92 10.5q-6 -25 -9 -60.5t-4.5 -71.5t-1.5 -61zM436 670l55 -30v-65l-55 -30l-55 30v65z" />
    <glyph glyph-name="uni01CA" unicode="&#x1ca;" horiz-adv-x="1242" 
d="M607 0q-11 27 -24 51t-27.5 46.5t-30.5 44.5l-344 488l-31 70h45t44.5 0.5t39.5 1.5q11 -25 26 -50t40 -61l275 -391l47 -200q-18 -2 -30 -2t-30 2zM45 -2q-4 19 0 37h67q8 45 11.5 87.5t3.5 87.5v280q0 38 -3.5 80.5t-11.5 94.5h-67q-4 19 0 37q35 -1 61 -1.5t44 -0.5
l31 -70q-3 -30 -5 -66t-2 -74v-280q0 -45 3.5 -87.5t11.5 -87.5h77q4 -18 0 -37q-34 2 -65.5 2h-50.5h-44t-61 -2zM667 0l-47 200v290q0 45 -3.5 84t-11.5 91h-77q-4 19 0 37q35 -1 66.5 -1.5t50.5 -0.5q17 0 43.5 0.5t60.5 1.5q4 -18 0 -37h-67q-8 -52 -11.5 -91t-3.5 -84
v-490zM960 -15q-49 0 -85 15.5t-55 51t-19 93.5h105q0 -69 11.5 -97t42.5 -28q28 0 42 28t14 97v345q0 45 -2.5 87.5t-7.5 87.5h-92q-4 19 0 37q50 -1 86.5 -1.5t70.5 -0.5q35 0 69 0.5t68 1.5q4 -18 0 -37h-72q-5 -45 -7.5 -87.5t-2.5 -87.5v-345q0 -41 -11.5 -71.5
t-33.5 -50t-52.5 -29t-68.5 -9.5z" />
    <glyph glyph-name="uni01CB" unicode="&#x1cb;" horiz-adv-x="1050" 
d="M607 0q-11 27 -24 51t-27.5 46.5t-30.5 44.5l-344 488l-31 70h45t44.5 0.5t39.5 1.5q11 -25 26 -50t40 -61l275 -391l47 -200q-18 -2 -30 -2t-30 2zM45 -2q-4 19 0 37h67q8 45 11.5 87.5t3.5 87.5v280q0 38 -3.5 80.5t-11.5 94.5h-67q-4 19 0 37q35 -1 61 -1.5t44 -0.5
l31 -70q-3 -30 -5 -66t-2 -74v-280q0 -45 3.5 -87.5t11.5 -87.5h77q4 -18 0 -37q-34 2 -65.5 2h-50.5h-44t-61 -2zM667 0l-47 200v290q0 45 -3.5 84t-11.5 91h-77q-4 19 0 37q35 -1 66.5 -1.5t50.5 -0.5q17 0 43.5 0.5t60.5 1.5q4 -18 0 -37h-67q-8 -52 -11.5 -91t-3.5 -84
v-490zM970 260v-186q0 -28 1 -56.5t6 -57.5q-4 -28 -17 -59.5t-36 -59.5t-58 -46t-84 -20q-3 19 0 38q38 5 58 32t27.5 65.5t7.5 79.5v270q0 72 -10 143h-57q-4 19 0 37q39 0 85 2.5t92 10.5q-6 -25 -9 -60.5t-4.5 -71.5t-1.5 -61zM923 670l55 -30v-65l-55 -30l-55 30v65z
" />
    <glyph glyph-name="uni01CC" unicode="&#x1cc;" horiz-adv-x="855" 
d="M37 -2q-4 19 0 37h57q5 38 7.5 73t2.5 72v80q0 72 -10 143h-52q-4 19 0 37q35 0 75 2.5t82 10.5q-5 -18 -7.5 -40.5t-2.5 -37.5l10 -45v-150q0 -37 2.5 -72t7.5 -73h57q4 -18 0 -37q-31 2 -58 2h-56h-56.5t-58.5 -2zM327 -2q-4 19 0 37h57q5 38 7.5 73t2.5 72v136
q0 37 -17 63t-63 26q-35 0 -65 -18.5t-50 -56.5l-10 45q27 38 67.5 59t95.5 21q59 0 90 -22t50 -57l-2 -30t-1 -30v-136q0 -37 2.5 -72t7.5 -73h57q4 -18 0 -37q-31 2 -58 2h-56h-56.5t-58.5 -2zM775 260v-186q0 -28 1 -56.5t6 -57.5q-4 -28 -17 -59.5t-36 -59.5t-58 -46
t-84 -20q-3 19 0 38q38 5 58 32t27.5 65.5t7.5 79.5v270q0 72 -10 143h-57q-4 19 0 37q39 0 85 2.5t92 10.5q-6 -25 -9 -60.5t-4.5 -71.5t-1.5 -61zM728 670l55 -30v-65l-55 -30l-55 30v65z" />
    <glyph glyph-name="uni01CD" unicode="&#x1cd;" horiz-adv-x="681" 
d="M-4 -2q-4 19 0 37h57q23 45 40.5 87.5t34.5 87.5l120 309q10 26 23 59.5t25 70.5t17 71q10 2 20 2.5t20 0t20 -2.5l-66 -170l-132 -340q-17 -45 -27 -87.5t-14 -87.5h81q4 -18 0 -37q-41 2 -73.5 2h-49.5h-39.5t-56.5 -2zM623 35h54q4 -18 0 -37q-23 1 -42.5 1.5
t-38.5 0.5h-42h-70.5t-70.5 -2q-4 19 0 37h69q-8 45 -20 87.5t-29 87.5l-126 340l66 170q8 -51 25.5 -99.5t43.5 -120.5l107 -290q17 -45 35 -87.5t39 -87.5zM438 235h-260v40h260v-40zM494 933q11 -10 15 -22q-42 -30 -66.5 -50t-43 -40t-41.5 -51q-16 -3 -32 0
q-23 31 -41.5 51t-43 40t-66.5 50q4 12 15 22q36 -11 61.5 -21.5t46.5 -21.5t44 -25q23 14 44 25t46.5 21.5t61.5 21.5z" />
    <glyph glyph-name="uni01CE" unicode="&#x1ce;" horiz-adv-x="510" 
d="M187 -15q-64 0 -106.5 34.5t-42.5 94.5q0 45 24 75t65.5 45.5t92.5 15.5q38 0 63 -6t43 -13v-40q-41 19 -84 19t-73.5 -22.5t-30.5 -70.5q0 -40 19 -64.5t56 -24.5q38 0 64.5 17.5t48.5 39.5l6 -40q-26 -25 -58 -42.5t-87 -17.5zM421 304v-219q0 -29 15.5 -39.5
t46.5 -10.5q3 -18 0 -37q-16 -4 -34.5 -6t-32.5 -2q-40 0 -58.5 15t-25.5 40l-6 40v212q0 61 -19.5 91t-63.5 30q-41 0 -62.5 -23.5t-17.5 -69.5h-100q0 33 22.5 62.5t65 48.5t103.5 19q80 0 123.5 -37t43.5 -114zM381 695q12 -9 17 -22q-34 -32 -55.5 -55t-38 -45
t-38.5 -53q-16 -3 -32 0q-21 31 -38 53t-38 45t-56 55q5 13 17 22q31 -15 53 -28.5t40 -26t38 -26.5q20 14 38 26.5t40 26t53 28.5z" />
    <glyph glyph-name="uni01CF" unicode="&#x1cf;" horiz-adv-x="364" 
d="M45 -2q-4 19 0 37h72q5 45 7.5 87.5t2.5 87.5v280q0 45 -2.5 87.5t-7.5 87.5h-72q-4 19 0 37q35 -1 69 -1.5t68 -0.5q35 0 69 0.5t68 1.5q4 -18 0 -37h-72q-5 -45 -7.5 -87.5t-2.5 -87.5v-280q0 -45 2.5 -87.5t7.5 -87.5h72q4 -18 0 -37q-34 2 -68 2h-69h-68t-69 -2z
M334 933q11 -10 15 -22q-42 -30 -66.5 -50t-43 -40t-41.5 -51q-16 -3 -32 0q-23 31 -41.5 51t-43 40t-66.5 50q4 12 15 22q36 -11 61.5 -21.5t46.5 -21.5t44 -25q23 14 44 25t46.5 21.5t61.5 21.5z" />
    <glyph glyph-name="uni01D0" unicode="&#x1d0;" horiz-adv-x="303" 
d="M274 35q4 -18 0 -37q-34 2 -62 2h-57h-57t-63 -2q-4 19 0 37h62q5 38 7.5 73t2.5 72v80q0 72 -10 143h-57q-4 19 0 37q39 0 85 2.5t92 10.5q-6 -25 -9 -60.5t-4.5 -71.5t-1.5 -61v-80q0 -37 2.5 -72t7.5 -73h62zM286 695q12 -9 17 -22q-34 -32 -55.5 -55t-38 -45
t-38.5 -53q-16 -3 -32 0q-21 31 -38 53t-38 45t-56 55q5 13 17 22q31 -15 53 -28.5t40 -26t38 -26.5q20 14 38 26.5t40 26t53 28.5z" />
    <glyph glyph-name="uni01D1" unicode="&#x1d1;" horiz-adv-x="796" 
d="M178 360q0 -63 11.5 -122.5t38 -107t70.5 -75.5t110 -28l-10 -42q-107 0 -184.5 46t-119 128t-41.5 191t42.5 191t120 128t182.5 46l-10 -42q-75 0 -121.5 -43.5t-67.5 -114.5t-21 -155zM618 340q0 63 -11.5 122.5t-38 107t-70.5 75.5t-110 28l10 42q108 0 185 -46
t118.5 -128t41.5 -191t-42.5 -191t-120 -128t-182.5 -46l10 42q75 0 121.5 43t67.5 114.5t21 155.5zM550 933q11 -10 15 -22q-42 -30 -66.5 -50t-43 -40t-41.5 -51q-16 -3 -32 0q-23 31 -41.5 51t-43 40t-66.5 50q4 12 15 22q36 -11 61.5 -21.5t46.5 -21.5t44 -25
q23 14 44 25t46.5 21.5t61.5 21.5z" />
    <glyph glyph-name="uni01D2" unicode="&#x1d2;" horiz-adv-x="546" 
d="M268 415q-36 0 -62.5 -20t-41 -61.5t-14.5 -104.5q0 -70 16 -115.5t45 -67t67 -21.5l-5 -40q-66 0 -117.5 29t-81 83t-29.5 127q0 71 28.5 123t79.5 80t120 28zM278 25q37 0 63 20.5t40.5 61.5t14.5 104q0 71 -16 116t-44.5 66.5t-67.5 21.5l5 40q67 0 118 -29
t80.5 -82.5t29.5 -127.5q0 -71 -28 -123t-79.5 -80t-120.5 -28zM404 695q12 -9 17 -22q-34 -32 -55.5 -55t-38 -45t-38.5 -53q-16 -3 -32 0q-21 31 -38 53t-38 45t-56 55q5 13 17 22q31 -15 53 -28.5t40 -26t38 -26.5q20 14 38 26.5t40 26t53 28.5z" />
    <glyph glyph-name="uni01D3" unicode="&#x1d3;" horiz-adv-x="739" 
d="M390 -15q-143 0 -209.5 54t-66.5 166v285q0 45 -2.5 87.5t-7.5 87.5h-72q-4 19 0 37q35 -1 69 -1.5t68 -0.5q35 0 69 0.5t68 1.5q4 -18 0 -37h-72q-5 -45 -7.5 -87.5t-2.5 -87.5v-280q0 -94 46 -136t129 -42q89 0 133.5 50.5t44.5 136.5v271q0 45 -3.5 84t-11.5 91h-77
q-4 19 0 37q35 -1 66.5 -1.5t50.5 -0.5q17 0 43.5 0.5t60.5 1.5q4 -18 0 -37h-67q-8 -52 -11.5 -91t-3.5 -84v-285q0 -103 -61 -161.5t-173 -58.5zM546 933q11 -10 15 -22q-42 -30 -66.5 -50t-43 -40t-41.5 -51q-16 -3 -32 0q-23 31 -41.5 51t-43 40t-66.5 50q4 12 15 22
q36 -11 61.5 -21.5t46.5 -21.5t44 -25q23 14 44 25t46.5 21.5t61.5 21.5z" />
    <glyph glyph-name="uni01D4" unicode="&#x1d4;" horiz-adv-x="564" 
d="M373 110l10 -45q-27 -38 -65 -59t-93 -21t-85 22.5t-50 56.5q2 15 2.5 30t0.5 30v136q0 72 -10 143h-52q-4 19 0 37q39 0 82.5 2.5t89.5 10.5q-6 -25 -9 -60.5t-4.5 -71.5t-1.5 -61v-136q0 -37 16.5 -63t58.5 -26q35 0 62.5 18.5t47.5 56.5zM530 37q4 -18 0 -37
q-35 0 -75 -2.5t-82 -10.5q5 18 7.5 40.5t2.5 37.5l-10 45v150q0 72 -10 143h-57q-4 19 0 37q39 0 85 2.5t92 10.5q-6 -25 -9 -60.5t-4.5 -71.5t-1.5 -61v-80q0 -72 10 -143h52zM412 695q12 -9 17 -22q-34 -32 -55.5 -55t-38 -45t-38.5 -53q-16 -3 -32 0q-21 31 -38 53
t-38 45t-56 55q5 13 17 22q31 -15 53 -28.5t40 -26t38 -26.5q20 14 38 26.5t40 26t53 28.5z" />
    <glyph glyph-name="uni01D5" unicode="&#x1d5;" horiz-adv-x="739" 
d="M390 -15q-143 0 -209.5 54t-66.5 166v285q0 45 -2.5 87.5t-7.5 87.5h-72q-4 19 0 37q35 -1 69 -1.5t68 -0.5q35 0 69 0.5t68 1.5q4 -18 0 -37h-72q-5 -45 -7.5 -87.5t-2.5 -87.5v-280q0 -94 46 -136t129 -42q89 0 133.5 50.5t44.5 136.5v271q0 45 -3.5 84t-11.5 91h-77
q-4 19 0 37q35 -1 66.5 -1.5t50.5 -0.5q17 0 43.5 0.5t60.5 1.5q4 -18 0 -37h-67q-8 -52 -11.5 -91t-3.5 -84v-285q0 -103 -61 -161.5t-173 -58.5zM284 910l55 -30v-65l-55 -30l-55 30v65zM504 910l55 -30v-65l-55 -30l-55 30v65zM534 950h-280q-2 13 -2 30t2 30h280
q2 -13 2 -30t-2 -30z" />
    <glyph glyph-name="uni01D6" unicode="&#x1d6;" horiz-adv-x="564" 
d="M373 110l10 -45q-27 -38 -65 -59t-93 -21t-85 22.5t-50 56.5q2 15 2.5 30t0.5 30v136q0 72 -10 143h-52q-4 19 0 37q39 0 82.5 2.5t89.5 10.5q-6 -25 -9 -60.5t-4.5 -71.5t-1.5 -61v-136q0 -37 16.5 -63t58.5 -26q35 0 62.5 18.5t47.5 56.5zM530 37q4 -18 0 -37
q-35 0 -75 -2.5t-82 -10.5q5 18 7.5 40.5t2.5 37.5l-10 45v150q0 72 -10 143h-57q-4 19 0 37q39 0 85 2.5t92 10.5q-6 -25 -9 -60.5t-4.5 -71.5t-1.5 -61v-80q0 -72 10 -143h52zM181 670l55 -30v-65l-55 -30l-55 30v65zM381 670l55 -30v-65l-55 -30l-55 30v65zM426 725h-290
q-2 13 -2 30t2 30h290q2 -13 2 -30t-2 -30z" />
    <glyph glyph-name="uni01D7" unicode="&#x1d7;" horiz-adv-x="739" 
d="M390 -15q-143 0 -209.5 54t-66.5 166v285q0 45 -2.5 87.5t-7.5 87.5h-72q-4 19 0 37q35 -1 69 -1.5t68 -0.5q35 0 69 0.5t68 1.5q4 -18 0 -37h-72q-5 -45 -7.5 -87.5t-2.5 -87.5v-280q0 -94 46 -136t129 -42q89 0 133.5 50.5t44.5 136.5v271q0 45 -3.5 84t-11.5 91h-77
q-4 19 0 37q35 -1 66.5 -1.5t50.5 -0.5q17 0 43.5 0.5t60.5 1.5q4 -18 0 -37h-67q-8 -52 -11.5 -91t-3.5 -84v-285q0 -103 -61 -161.5t-173 -58.5zM284 910l55 -30v-65l-55 -30l-55 30v65zM504 910l55 -30v-65l-55 -30l-55 30v65zM560 1090q-19 -35 -52 -60.5t-65.5 -47.5
t-53.5 -47q-16 -3 -32 0q28 38 46.5 73.5t31.5 81.5h125z" />
    <glyph glyph-name="uni01D8" unicode="&#x1d8;" horiz-adv-x="564" 
d="M373 110l10 -45q-27 -38 -65 -59t-93 -21t-85 22.5t-50 56.5q2 15 2.5 30t0.5 30v136q0 72 -10 143h-52q-4 19 0 37q39 0 82.5 2.5t89.5 10.5q-6 -25 -9 -60.5t-4.5 -71.5t-1.5 -61v-136q0 -37 16.5 -63t58.5 -26q35 0 62.5 18.5t47.5 56.5zM530 37q4 -18 0 -37
q-35 0 -75 -2.5t-82 -10.5q5 18 7.5 40.5t2.5 37.5l-10 45v150q0 72 -10 143h-57q-4 19 0 37q39 0 85 2.5t92 10.5q-6 -25 -9 -60.5t-4.5 -71.5t-1.5 -61v-80q0 -72 10 -143h52zM181 670l55 -30v-65l-55 -30l-55 30v65zM381 670l55 -30v-65l-55 -30l-55 30v65zM425 875
q-15 -34 -42 -61t-55.5 -52.5t-48.5 -56.5q-16 -3 -32 0q28 46 42 86.5t21 83.5h115z" />
    <glyph glyph-name="uni01D9" unicode="&#x1d9;" horiz-adv-x="739" 
d="M390 -15q-143 0 -209.5 54t-66.5 166v285q0 45 -2.5 87.5t-7.5 87.5h-72q-4 19 0 37q35 -1 69 -1.5t68 -0.5q35 0 69 0.5t68 1.5q4 -18 0 -37h-72q-5 -45 -7.5 -87.5t-2.5 -87.5v-280q0 -94 46 -136t129 -42q89 0 133.5 50.5t44.5 136.5v271q0 45 -3.5 84t-11.5 91h-77
q-4 19 0 37q35 -1 66.5 -1.5t50.5 -0.5q17 0 43.5 0.5t60.5 1.5q4 -18 0 -37h-67q-8 -52 -11.5 -91t-3.5 -84v-285q0 -103 -61 -161.5t-173 -58.5zM284 910l55 -30v-65l-55 -30l-55 30v65zM504 910l55 -30v-65l-55 -30l-55 30v65zM546 1098q11 -10 15 -22q-42 -30 -66.5 -50
t-43 -40t-41.5 -51q-16 -3 -32 0q-23 31 -41.5 51t-43 40t-66.5 50q4 12 15 22q36 -11 61.5 -21.5t46.5 -21.5t44 -25q23 14 44 25t46.5 21.5t61.5 21.5z" />
    <glyph glyph-name="uni01DA" unicode="&#x1da;" horiz-adv-x="564" 
d="M373 110l10 -45q-27 -38 -65 -59t-93 -21t-85 22.5t-50 56.5q2 15 2.5 30t0.5 30v136q0 72 -10 143h-52q-4 19 0 37q39 0 82.5 2.5t89.5 10.5q-6 -25 -9 -60.5t-4.5 -71.5t-1.5 -61v-136q0 -37 16.5 -63t58.5 -26q35 0 62.5 18.5t47.5 56.5zM530 37q4 -18 0 -37
q-35 0 -75 -2.5t-82 -10.5q5 18 7.5 40.5t2.5 37.5l-10 45v150q0 72 -10 143h-57q-4 19 0 37q39 0 85 2.5t92 10.5q-6 -25 -9 -60.5t-4.5 -71.5t-1.5 -61v-80q0 -72 10 -143h52zM181 670l55 -30v-65l-55 -30l-55 30v65zM381 670l55 -30v-65l-55 -30l-55 30v65zM412 880
q12 -9 17 -22q-34 -32 -55.5 -55t-38 -45t-38.5 -53q-16 -3 -32 0q-21 31 -38 53t-38 45t-56 55q5 13 17 22q31 -15 53 -28.5t40 -26t38 -26.5q20 14 38 26.5t40 26t53 28.5z" />
    <glyph glyph-name="uni01DB" unicode="&#x1db;" horiz-adv-x="739" 
d="M390 -15q-143 0 -209.5 54t-66.5 166v285q0 45 -2.5 87.5t-7.5 87.5h-72q-4 19 0 37q35 -1 69 -1.5t68 -0.5q35 0 69 0.5t68 1.5q4 -18 0 -37h-72q-5 -45 -7.5 -87.5t-2.5 -87.5v-280q0 -94 46 -136t129 -42q89 0 133.5 50.5t44.5 136.5v271q0 45 -3.5 84t-11.5 91h-77
q-4 19 0 37q35 -1 66.5 -1.5t50.5 -0.5q17 0 43.5 0.5t60.5 1.5q4 -18 0 -37h-67q-8 -52 -11.5 -91t-3.5 -84v-285q0 -103 -61 -161.5t-173 -58.5zM284 910l55 -30v-65l-55 -30l-55 30v65zM504 910l55 -30v-65l-55 -30l-55 30v65zM228 1090h125q14 -46 32 -81.5t46 -73.5
q-16 -3 -32 0q-20 25 -53 47t-65.5 47.5t-52.5 60.5z" />
    <glyph glyph-name="uni01DC" unicode="&#x1dc;" horiz-adv-x="564" 
d="M373 110l10 -45q-27 -38 -65 -59t-93 -21t-85 22.5t-50 56.5q2 15 2.5 30t0.5 30v136q0 72 -10 143h-52q-4 19 0 37q39 0 82.5 2.5t89.5 10.5q-6 -25 -9 -60.5t-4.5 -71.5t-1.5 -61v-136q0 -37 16.5 -63t58.5 -26q35 0 62.5 18.5t47.5 56.5zM530 37q4 -18 0 -37
q-35 0 -75 -2.5t-82 -10.5q5 18 7.5 40.5t2.5 37.5l-10 45v150q0 72 -10 143h-57q-4 19 0 37q39 0 85 2.5t92 10.5q-6 -25 -9 -60.5t-4.5 -71.5t-1.5 -61v-80q0 -72 10 -143h52zM181 670l55 -30v-65l-55 -30l-55 30v65zM381 670l55 -30v-65l-55 -30l-55 30v65zM148 875h115
q7 -43 21 -83.5t42 -86.5q-16 -3 -32 0q-20 31 -48.5 56.5t-55.5 52.5t-42 61z" />
    <glyph glyph-name="Gcaron" unicode="&#x1e6;" horiz-adv-x="759" 
d="M728 302q4 -18 0 -37h-52q-5 -45 -7.5 -98.5t-2.5 -126.5q-30 -16 -67.5 -28.5t-81.5 -19.5t-95 -7q-112 0 -195.5 46t-129 128t-45.5 191t47 191t132.5 128t200.5 46q77 0 131 -14t88 -31v-165q-16 -3 -32 0q-15 88 -61.5 128t-131.5 40q-87 0 -142 -43.5t-81 -114.5
t-26 -155q0 -63 14 -122.5t43 -107t75.5 -75.5t112.5 -28q35 0 76 10.5t68 29.5q0 53 -2.5 103t-7.5 95h-82q-4 19 0 37q35 -1 72.5 -1.5t64.5 -0.5q35 0 59 0.5t58 1.5zM565 933q11 -10 15 -22q-42 -30 -66.5 -50t-43 -40t-41.5 -51q-16 -3 -32 0q-23 31 -41.5 51t-43 40
t-66.5 50q4 12 15 22q36 -11 61.5 -21.5t46.5 -21.5t44 -25q23 14 44 25t46.5 21.5t61.5 21.5z" />
    <glyph glyph-name="gcaron" unicode="&#x1e7;" horiz-adv-x="515" 
d="M244 136q48 0 73 35.5t25 102.5t-25 105.5t-73 38.5t-72.5 -38.5t-24.5 -105.5t24.5 -102.5t72.5 -35.5zM27 -85q0 18 2.5 31t6.5 20h132q4 -18 0 -37q-12 1 -21 1h-19q-2 -4 -4 -14t-2 -24q0 -45 35 -61t100 -16q59 0 97 20.5t38 70.5q0 30 -12.5 50.5t-44 32.5
t-89.5 18q-53 6 -91 22t-62 44.5t-35 71.5t-11 101q0 101 47.5 155t148.5 54q43 0 81 -7.5t74 -7.5q21 0 46.5 2.5t37.5 7.5q4 -39 0 -72q-16 14 -39.5 19.5t-54.5 5.5q26 -24 40 -58t14 -72q0 -53 -23 -92.5t-64.5 -60.5t-97.5 -21q-42 0 -75 16t-50 50q1 -49 18 -73.5
t55 -34.5t101 -17q40 -4 74.5 -11.5t60.5 -21.5t41 -37t15 -58q0 -49 -30.5 -79t-84.5 -44t-125 -14q-105 0 -167.5 33.5t-62.5 106.5zM378 695q12 -9 17 -22q-34 -32 -55.5 -55t-38 -45t-38.5 -53q-16 -3 -32 0q-21 31 -38 53t-38 45t-56 55q5 13 17 22q31 -15 53 -28.5
t40 -26t38 -26.5q20 14 38 26.5t40 26t53 28.5z" />
    <glyph glyph-name="uni01EA" unicode="&#x1ea;" horiz-adv-x="796" 
d="M178 360q0 -63 11.5 -122.5t38 -107t70.5 -75.5t110 -28l-10 -42q-107 0 -184.5 46t-119 128t-41.5 191t42.5 191t120 128t182.5 46l-10 -42q-75 0 -121.5 -43.5t-67.5 -114.5t-21 -155zM618 340q0 63 -11.5 122.5t-38 107t-70.5 75.5t-110 28l10 42q108 0 185 -46
t118.5 -128t41.5 -191t-42.5 -191t-120 -128t-182.5 -46l10 42q75 0 121.5 43t67.5 114.5t21 155.5zM390 -225q-43 0 -72 23t-29 66q0 42 25.5 71.5t70.5 50t104 35.5l19 -21q-69 -19 -102.5 -50t-33.5 -69q0 -21 15 -35.5t44 -14.5q14 0 31.5 5t39.5 16q12 -14 15 -31
q-31 -19 -59.5 -32.5t-67.5 -13.5z" />
    <glyph glyph-name="uni01EB" unicode="&#x1eb;" horiz-adv-x="546" 
d="M268 415q-36 0 -62.5 -20t-41 -61.5t-14.5 -104.5q0 -70 16 -115.5t45 -67t67 -21.5l-5 -40q-66 0 -117.5 29t-81 83t-29.5 127q0 71 28.5 123t79.5 80t120 28zM278 25q37 0 63 20.5t40.5 61.5t14.5 104q0 71 -16 116t-44.5 66.5t-67.5 21.5l5 40q67 0 118 -29
t80.5 -82.5t29.5 -127.5q0 -71 -28 -123t-79.5 -80t-120.5 -28zM246 -225q-43 0 -72 23t-29 66q0 42 25.5 71.5t70.5 50t104 35.5l19 -21q-69 -19 -102.5 -50t-33.5 -69q0 -21 15 -35.5t44 -14.5q14 0 31.5 5t39.5 16q12 -14 15 -31q-31 -19 -59.5 -32.5t-67.5 -13.5z" />
    <glyph glyph-name="Aringacute" unicode="&#x1fa;" horiz-adv-x="681" 
d="M-4 -2q-4 19 0 37h57q23 45 40.5 87.5t34.5 87.5l120 309q10 26 23 59.5t25 70.5t17 71q10 2 20 2.5t20 0t20 -2.5l-66 -170l-132 -340q-17 -45 -27 -87.5t-14 -87.5h81q4 -18 0 -37q-41 2 -73.5 2h-49.5h-39.5t-56.5 -2zM623 35h54q4 -18 0 -37q-23 1 -42.5 1.5
t-38.5 0.5h-42h-70.5t-70.5 -2q-4 19 0 37h69q-8 45 -20 87.5t-29 87.5l-126 340l66 170q8 -51 25.5 -99.5t43.5 -120.5l107 -290q17 -45 35 -87.5t39 -87.5zM438 235h-260v40h260v-40zM345 877q47 0 76.5 -25t29.5 -65t-29.5 -65t-76.5 -25q-46 0 -76 25t-30 65t30 65
t76 25zM347 727q18 0 28.5 15t10.5 45t-12.5 45t-30.5 15t-28.5 -15t-10.5 -45t12.5 -45t30.5 -15zM511 1060q-19 -35 -52 -60.5t-65.5 -47.5t-53.5 -47q-16 -3 -32 0q28 38 46.5 73.5t31.5 81.5h125z" />
    <glyph glyph-name="aringacute" unicode="&#x1fb;" horiz-adv-x="510" 
d="M187 -15q-64 0 -106.5 34.5t-42.5 94.5q0 45 24 75t65.5 45.5t92.5 15.5q38 0 63 -6t43 -13v-40q-41 19 -84 19t-73.5 -22.5t-30.5 -70.5q0 -40 19 -64.5t56 -24.5q38 0 64.5 17.5t48.5 39.5l6 -40q-26 -25 -58 -42.5t-87 -17.5zM421 304v-219q0 -29 15.5 -39.5
t46.5 -10.5q3 -18 0 -37q-16 -4 -34.5 -6t-32.5 -2q-40 0 -58.5 15t-25.5 40l-6 40v212q0 61 -19.5 91t-63.5 30q-41 0 -62.5 -23.5t-17.5 -69.5h-100q0 33 22.5 62.5t65 48.5t103.5 19q80 0 123.5 -37t43.5 -114zM250 695q47 0 76.5 -25t29.5 -65t-29.5 -65t-76.5 -25
q-46 0 -76 25t-30 65t30 65t76 25zM252 545q18 0 28.5 15t10.5 45t-12.5 45t-30.5 15t-28.5 -15t-10.5 -45t12.5 -45t30.5 -15zM394 900q-15 -34 -42 -61t-55.5 -52.5t-48.5 -56.5q-16 -3 -32 0q28 46 42 86.5t21 83.5h115z" />
    <glyph glyph-name="AEacute" unicode="&#x1fc;" horiz-adv-x="935" 
d="M488 682l-71 -132l-199 -340q-27 -46 -47 -88t-34 -87h76q3 -18 0 -37q-41 2 -73.5 2h-49.5h-39.5t-56.5 -2q-3 19 0 37h57q34 45 61 87t54 88l180 309q19 32 41 75.5t43 87.5h58zM501 235h-280l10 40h270v-40zM503 0v350h55v-140q0 -45 2.5 -85t7.5 -85h320v-40h-385z
M888 40h-172q52 0 81.5 17.5t43 50t15.5 77.5q16 3 32 0v-145zM503 700h350v-40h-285q-5 -45 -7.5 -85t-2.5 -85v-140h-55v350zM853 660v-145q-16 -3 -32 0q-4 75 -33 110t-107 35h172zM756 460q16 3 32 0v-200q-16 -3 -32 0q-1 47 -14.5 63.5t-48.5 16.5h-190v40h190
q35 0 48.5 17t14.5 63zM503 0h-68t-69 -2q-4 19 0 37h72q5 45 7.5 87.5t2.5 87.5v140h55v-350zM503 700v-350h-55v140q0 45 -2.5 87.5t-7.5 87.5h-112q-4 19 0 37q23 -1 56 -1.5t65.5 -0.5h55.5zM669 925q-19 -35 -52 -60.5t-65.5 -47.5t-53.5 -47q-16 -3 -32 0
q28 38 46.5 73.5t31.5 81.5h125z" />
    <glyph glyph-name="aeacute" unicode="&#x1fd;" horiz-adv-x="797" 
d="M413 304v-153l-82 49l-3 37v57q0 61 -17.5 92.5t-61.5 31.5q-41 0 -64.5 -23.5t-19.5 -69.5h-100q0 33 23.5 62.5t66 48.5t99.5 19t92 -16.5t51 -49.5t16 -85zM199 -15q-43 0 -79 15t-58 45t-22 75q0 48 26.5 78t69.5 43.5t91 13.5q30 0 56 -4.5t45 -13.5l3 -37
q-21 11 -45.5 15.5t-53.5 4.5q-42 0 -67 -27t-25 -72q0 -40 22 -68t62 -28q31 0 63.5 19t66.5 62l16 -34q-29 -38 -57.5 -56.5t-56.5 -24.5t-57 -6zM546 -15q-63 0 -112.5 26t-77.5 78.5t-28 130.5q0 77 29 129t80 79t117 27q62 0 106.5 -23t68.5 -71t24 -123q-26 3 -55 5
t-70 2h-208v35h227q0 70 -28.5 104t-70.5 34q-36 0 -62.5 -23.5t-41 -66.5t-14.5 -104q0 -95 39.5 -142t104.5 -47q40 0 77 19.5t73 65.5q8 -5 14.5 -11t13.5 -14q-43 -55 -93.5 -82.5t-112.5 -27.5zM549 690q-15 -34 -42 -61t-55.5 -52.5t-48.5 -56.5q-16 -3 -32 0
q28 46 42 86.5t21 83.5h115z" />
    <glyph glyph-name="Oslashacute" unicode="&#x1fe;" horiz-adv-x="810" 
d="M669 730q31 5 61 0q-6 -66 -40 -123.5t-86 -109.5t-112 -101.5t-120 -98.5t-111 -100.5t-83.5 -107.5t-36.5 -119q-30 -5 -61 0q6 66 40 123.5t86 110t112 102t120 98.5t111 100t83.5 107t36.5 119zM185 360q0 -63 11.5 -122.5t38 -107t70.5 -75.5t110 -28l-10 -42
q-107 0 -184.5 46t-119 128t-41.5 191t42.5 191t120 128t182.5 46l-10 -42q-75 0 -121.5 -43.5t-67.5 -114.5t-21 -155zM625 340q0 63 -11.5 122.5t-38 107t-70.5 75.5t-110 28l10 42q108 0 185 -46t118.5 -128t41.5 -191t-42.5 -191t-120 -128t-182.5 -46l10 42
q75 0 121.5 43t67.5 114.5t21 155.5zM571 925q-19 -35 -52 -60.5t-65.5 -47.5t-53.5 -47q-16 -3 -32 0q28 38 46.5 73.5t31.5 81.5h125z" />
    <glyph glyph-name="oslashacute" unicode="&#x1ff;" horiz-adv-x="552" 
d="M435 480q26 4 51 0q-7 -59 -36.5 -106.5t-70.5 -88t-86 -77.5t-84.5 -74.5t-64.5 -79.5t-27 -94q-25 -4 -51 0q8 59 37 106.5t70 88t86 77.5t84.5 74.5t64.5 80t27 93.5zM271 415q-36 0 -62.5 -20t-41 -61.5t-14.5 -104.5q0 -70 16 -115.5t45 -67t67 -21.5l-5 -40
q-66 0 -117.5 29t-81 83t-29.5 127q0 71 28.5 123t79.5 80t120 28zM281 25q37 0 63 20.5t40.5 61.5t14.5 104q0 71 -16 116t-44.5 66.5t-67.5 21.5l5 40q67 0 118 -29t80.5 -82.5t29.5 -127.5q0 -71 -28 -123t-79.5 -80t-120.5 -28zM420 690q-15 -34 -42 -61t-55.5 -52.5
t-48.5 -56.5q-16 -3 -32 0q28 46 42 86.5t21 83.5h115z" />
    <glyph glyph-name="uni0200" unicode="&#x200;" horiz-adv-x="681" 
d="M-4 -2q-4 19 0 37h57q23 45 40.5 87.5t34.5 87.5l120 309q10 26 23 59.5t25 70.5t17 71q10 2 20 2.5t20 0t20 -2.5l-66 -170l-132 -340q-17 -45 -27 -87.5t-14 -87.5h81q4 -18 0 -37q-41 2 -73.5 2h-49.5h-39.5t-56.5 -2zM623 35h54q4 -18 0 -37q-23 1 -42.5 1.5
t-38.5 0.5h-42h-70.5t-70.5 -2q-4 19 0 37h69q-8 45 -20 87.5t-29 87.5l-126 340l66 170q8 -51 25.5 -99.5t43.5 -120.5l107 -290q17 -45 35 -87.5t39 -87.5zM438 235h-260v40h260v-40zM284 925h115q12 -46 28 -81.5t40 -73.5q-16 -3 -32 0q-18 25 -47 47t-58 47.5t-46 60.5
zM144 925h115q12 -46 28 -81.5t40 -73.5q-16 -3 -32 0q-18 25 -47 47t-57.5 47.5t-46.5 60.5z" />
    <glyph glyph-name="uni0201" unicode="&#x201;" horiz-adv-x="510" 
d="M187 -15q-64 0 -106.5 34.5t-42.5 94.5q0 45 24 75t65.5 45.5t92.5 15.5q38 0 63 -6t43 -13v-40q-41 19 -84 19t-73.5 -22.5t-30.5 -70.5q0 -40 19 -64.5t56 -24.5q38 0 64.5 17.5t48.5 39.5l6 -40q-26 -25 -58 -42.5t-87 -17.5zM421 304v-219q0 -29 15.5 -39.5
t46.5 -10.5q3 -18 0 -37q-16 -4 -34.5 -6t-32.5 -2q-40 0 -58.5 15t-25.5 40l-6 40v212q0 61 -19.5 91t-63.5 30q-41 0 -62.5 -23.5t-17.5 -69.5h-100q0 33 22.5 62.5t65 48.5t103.5 19q80 0 123.5 -37t43.5 -114zM182 690h105q7 -43 21 -83.5t42 -86.5q-16 -3 -32 0
q-18 31 -45 56.5t-52 52.5t-39 61zM52 690h105q8 -43 24.5 -83.5t48.5 -86.5q-16 -3 -32 0q-20 31 -48.5 56.5t-55.5 52.5t-42 61z" />
    <glyph glyph-name="uni0202" unicode="&#x202;" horiz-adv-x="681" 
d="M-4 -2q-4 19 0 37h57q23 45 40.5 87.5t34.5 87.5l120 309q10 26 23 59.5t25 70.5t17 71q10 2 20 2.5t20 0t20 -2.5l-66 -170l-132 -340q-17 -45 -27 -87.5t-14 -87.5h81q4 -18 0 -37q-41 2 -73.5 2h-49.5h-39.5t-56.5 -2zM623 35h54q4 -18 0 -37q-23 1 -42.5 1.5
t-38.5 0.5h-42h-70.5t-70.5 -2q-4 19 0 37h69q-8 45 -20 87.5t-29 87.5l-126 340l66 170q8 -51 25.5 -99.5t43.5 -120.5l107 -290q17 -45 35 -87.5t39 -87.5zM438 235h-260v40h260v-40zM455 772q-10 39 -42 57t-71 18t-70.5 -18t-42.5 -57q-16 -3 -32 0q8 72 46 113.5
t99 41.5t99.5 -41.5t45.5 -113.5q-16 -3 -32 0z" />
    <glyph glyph-name="uni0203" unicode="&#x203;" horiz-adv-x="510" 
d="M187 -15q-64 0 -106.5 34.5t-42.5 94.5q0 45 24 75t65.5 45.5t92.5 15.5q38 0 63 -6t43 -13v-40q-41 19 -84 19t-73.5 -22.5t-30.5 -70.5q0 -40 19 -64.5t56 -24.5q38 0 64.5 17.5t48.5 39.5l6 -40q-26 -25 -58 -42.5t-87 -17.5zM421 304v-219q0 -29 15.5 -39.5
t46.5 -10.5q3 -18 0 -37q-16 -4 -34.5 -6t-32.5 -2q-40 0 -58.5 15t-25.5 40l-6 40v212q0 61 -19.5 91t-63.5 30q-41 0 -62.5 -23.5t-17.5 -69.5h-100q0 33 22.5 62.5t65 48.5t103.5 19q80 0 123.5 -37t43.5 -114zM363 517q-7 47 -40.5 68.5t-72.5 21.5t-72 -21.5t-41 -68.5
q-16 -3 -32 0q8 80 46 122.5t99 42.5t99.5 -42.5t45.5 -122.5q-16 -3 -32 0z" />
    <glyph glyph-name="uni0204" unicode="&#x204;" horiz-adv-x="614" 
d="M45 -2q-4 19 0 37h72q5 45 7.5 87.5t2.5 87.5v280q0 45 -2.5 87.5t-7.5 87.5h-72q-4 19 0 37q35 -1 69 -1.5t68 -0.5h350v-185q-16 -3 -32 0q-4 75 -33 110t-107 35h-113q-5 -45 -7.5 -85t-2.5 -85v-280q0 -45 2.5 -85t7.5 -85h148q52 0 81.5 17.5t43 50t15.5 77.5
q16 3 32 0v-185h-385h-68t-69 -2zM435 260q-1 47 -14.5 63.5t-48.5 16.5h-190v40h190q35 0 48.5 17t14.5 63q16 3 32 0v-200q-16 -3 -32 0zM262 925h115q12 -46 28 -81.5t40 -73.5q-16 -3 -32 0q-18 25 -47 47t-58 47.5t-46 60.5zM122 925h115q12 -46 28 -81.5t40 -73.5
q-16 -3 -32 0q-18 25 -47 47t-57.5 47.5t-46.5 60.5z" />
    <glyph glyph-name="uni0205" unicode="&#x205;" horiz-adv-x="515" 
d="M264 -15q-63 0 -112.5 26t-77.5 78.5t-28 130.5q0 77 29 129t80 79t117 27q62 0 106.5 -23t68.5 -71t24 -123q-26 3 -55 5t-70 2h-208v35h227q0 70 -28.5 104t-70.5 34q-36 0 -62.5 -23.5t-41 -66.5t-14.5 -104q0 -95 39.5 -142t104.5 -47q40 0 77 19.5t73 65.5
q8 -5 14.5 -11t13.5 -14q-43 -55 -93.5 -82.5t-112.5 -27.5zM197 690h105q7 -43 21 -83.5t42 -86.5q-16 -3 -32 0q-18 31 -45 56.5t-52 52.5t-39 61zM67 690h105q8 -43 24.5 -83.5t48.5 -86.5q-16 -3 -32 0q-20 31 -48.5 56.5t-55.5 52.5t-42 61z" />
    <glyph glyph-name="uni0206" unicode="&#x206;" horiz-adv-x="614" 
d="M45 -2q-4 19 0 37h72q5 45 7.5 87.5t2.5 87.5v280q0 45 -2.5 87.5t-7.5 87.5h-72q-4 19 0 37q35 -1 69 -1.5t68 -0.5h350v-185q-16 -3 -32 0q-4 75 -33 110t-107 35h-113q-5 -45 -7.5 -85t-2.5 -85v-280q0 -45 2.5 -85t7.5 -85h148q52 0 81.5 17.5t43 50t15.5 77.5
q16 3 32 0v-185h-385h-68t-69 -2zM435 260q-1 47 -14.5 63.5t-48.5 16.5h-190v40h190q35 0 48.5 17t14.5 63q16 3 32 0v-200q-16 -3 -32 0zM433 772q-10 39 -42 57t-71 18t-70.5 -18t-42.5 -57q-16 -3 -32 0q8 72 46 113.5t99 41.5t99.5 -41.5t45.5 -113.5q-16 -3 -32 0z
" />
    <glyph glyph-name="uni0207" unicode="&#x207;" horiz-adv-x="515" 
d="M264 -15q-63 0 -112.5 26t-77.5 78.5t-28 130.5q0 77 29 129t80 79t117 27q62 0 106.5 -23t68.5 -71t24 -123q-26 3 -55 5t-70 2h-208v35h227q0 70 -28.5 104t-70.5 34q-36 0 -62.5 -23.5t-41 -66.5t-14.5 -104q0 -95 39.5 -142t104.5 -47q40 0 77 19.5t73 65.5
q8 -5 14.5 -11t13.5 -14q-43 -55 -93.5 -82.5t-112.5 -27.5zM378 517q-7 47 -40.5 68.5t-72.5 21.5t-72 -21.5t-41 -68.5q-16 -3 -32 0q8 80 46 122.5t99 42.5t99.5 -42.5t45.5 -122.5q-16 -3 -32 0z" />
    <glyph glyph-name="uni0208" unicode="&#x208;" horiz-adv-x="364" 
d="M45 -2q-4 19 0 37h72q5 45 7.5 87.5t2.5 87.5v280q0 45 -2.5 87.5t-7.5 87.5h-72q-4 19 0 37q35 -1 69 -1.5t68 -0.5q35 0 69 0.5t68 1.5q4 -18 0 -37h-72q-5 -45 -7.5 -87.5t-2.5 -87.5v-280q0 -45 2.5 -87.5t7.5 -87.5h72q4 -18 0 -37q-34 2 -68 2h-69h-68t-69 -2z
M124 925h115q12 -46 28 -81.5t40 -73.5q-16 -3 -32 0q-18 25 -47 47t-58 47.5t-46 60.5zM-16 925h115q12 -46 28 -81.5t40 -73.5q-16 -3 -32 0q-18 25 -47 47t-57.5 47.5t-46.5 60.5z" />
    <glyph glyph-name="uni0209" unicode="&#x209;" horiz-adv-x="303" 
d="M274 35q4 -18 0 -37q-34 2 -62 2h-57h-57t-63 -2q-4 19 0 37h62q5 38 7.5 73t2.5 72v80q0 72 -10 143h-57q-4 19 0 37q39 0 85 2.5t92 10.5q-6 -25 -9 -60.5t-4.5 -71.5t-1.5 -61v-80q0 -37 2.5 -72t7.5 -73h62zM87 690h105q7 -43 21 -83.5t42 -86.5q-16 -3 -32 0
q-18 31 -45 56.5t-52 52.5t-39 61zM-43 690h105q8 -43 24.5 -83.5t48.5 -86.5q-16 -3 -32 0q-20 31 -48.5 56.5t-55.5 52.5t-42 61z" />
    <glyph glyph-name="uni020A" unicode="&#x20a;" horiz-adv-x="364" 
d="M45 -2q-4 19 0 37h72q5 45 7.5 87.5t2.5 87.5v280q0 45 -2.5 87.5t-7.5 87.5h-72q-4 19 0 37q35 -1 69 -1.5t68 -0.5q35 0 69 0.5t68 1.5q4 -18 0 -37h-72q-5 -45 -7.5 -87.5t-2.5 -87.5v-280q0 -45 2.5 -87.5t7.5 -87.5h72q4 -18 0 -37q-34 2 -68 2h-69h-68t-69 -2z
M295 772q-10 39 -42 57t-71 18t-70.5 -18t-42.5 -57q-16 -3 -32 0q8 72 46 113.5t99 41.5t99.5 -41.5t45.5 -113.5q-16 -3 -32 0z" />
    <glyph glyph-name="uni020B" unicode="&#x20b;" horiz-adv-x="303" 
d="M274 35q4 -18 0 -37q-34 2 -62 2h-57h-57t-63 -2q-4 19 0 37h62q5 38 7.5 73t2.5 72v80q0 72 -10 143h-57q-4 19 0 37q39 0 85 2.5t92 10.5q-6 -25 -9 -60.5t-4.5 -71.5t-1.5 -61v-80q0 -37 2.5 -72t7.5 -73h62zM268 517q-7 47 -40.5 68.5t-72.5 21.5t-72 -21.5
t-41 -68.5q-16 -3 -32 0q8 80 46 122.5t99 42.5t99.5 -42.5t45.5 -122.5q-16 -3 -32 0z" />
    <glyph glyph-name="uni020C" unicode="&#x20c;" horiz-adv-x="796" 
d="M178 360q0 -63 11.5 -122.5t38 -107t70.5 -75.5t110 -28l-10 -42q-107 0 -184.5 46t-119 128t-41.5 191t42.5 191t120 128t182.5 46l-10 -42q-75 0 -121.5 -43.5t-67.5 -114.5t-21 -155zM618 340q0 63 -11.5 122.5t-38 107t-70.5 75.5t-110 28l10 42q108 0 185 -46
t118.5 -128t41.5 -191t-42.5 -191t-120 -128t-182.5 -46l10 42q75 0 121.5 43t67.5 114.5t21 155.5zM340 925h115q12 -46 28 -81.5t40 -73.5q-16 -3 -32 0q-18 25 -47 47t-58 47.5t-46 60.5zM200 925h115q12 -46 28 -81.5t40 -73.5q-16 -3 -32 0q-18 25 -47 47t-57.5 47.5
t-46.5 60.5z" />
    <glyph glyph-name="uni020D" unicode="&#x20d;" horiz-adv-x="546" 
d="M268 415q-36 0 -62.5 -20t-41 -61.5t-14.5 -104.5q0 -70 16 -115.5t45 -67t67 -21.5l-5 -40q-66 0 -117.5 29t-81 83t-29.5 127q0 71 28.5 123t79.5 80t120 28zM278 25q37 0 63 20.5t40.5 61.5t14.5 104q0 71 -16 116t-44.5 66.5t-67.5 21.5l5 40q67 0 118 -29
t80.5 -82.5t29.5 -127.5q0 -71 -28 -123t-79.5 -80t-120.5 -28zM205 690h105q7 -43 21 -83.5t42 -86.5q-16 -3 -32 0q-18 31 -45 56.5t-52 52.5t-39 61zM75 690h105q8 -43 24.5 -83.5t48.5 -86.5q-16 -3 -32 0q-20 31 -48.5 56.5t-55.5 52.5t-42 61z" />
    <glyph glyph-name="uni020E" unicode="&#x20e;" horiz-adv-x="796" 
d="M178 360q0 -63 11.5 -122.5t38 -107t70.5 -75.5t110 -28l-10 -42q-107 0 -184.5 46t-119 128t-41.5 191t42.5 191t120 128t182.5 46l-10 -42q-75 0 -121.5 -43.5t-67.5 -114.5t-21 -155zM618 340q0 63 -11.5 122.5t-38 107t-70.5 75.5t-110 28l10 42q108 0 185 -46
t118.5 -128t41.5 -191t-42.5 -191t-120 -128t-182.5 -46l10 42q75 0 121.5 43t67.5 114.5t21 155.5zM511 772q-10 39 -42 57t-71 18t-70.5 -18t-42.5 -57q-16 -3 -32 0q8 72 46 113.5t99 41.5t99.5 -41.5t45.5 -113.5q-16 -3 -32 0z" />
    <glyph glyph-name="uni020F" unicode="&#x20f;" horiz-adv-x="546" 
d="M268 415q-36 0 -62.5 -20t-41 -61.5t-14.5 -104.5q0 -70 16 -115.5t45 -67t67 -21.5l-5 -40q-66 0 -117.5 29t-81 83t-29.5 127q0 71 28.5 123t79.5 80t120 28zM278 25q37 0 63 20.5t40.5 61.5t14.5 104q0 71 -16 116t-44.5 66.5t-67.5 21.5l5 40q67 0 118 -29
t80.5 -82.5t29.5 -127.5q0 -71 -28 -123t-79.5 -80t-120.5 -28zM386 517q-7 47 -40.5 68.5t-72.5 21.5t-72 -21.5t-41 -68.5q-16 -3 -32 0q8 80 46 122.5t99 42.5t99.5 -42.5t45.5 -122.5q-16 -3 -32 0z" />
    <glyph glyph-name="uni0210" unicode="&#x210;" horiz-adv-x="693" 
d="M676 35q3 -17 0 -35q-23 -5 -48 -7.5t-40 -2.5q-39 0 -62 13t-35 39t-19 65l-22 126q-7 44 -36 65.5t-80 21.5h-152v40h165q60 0 95 40.5t35 111.5q0 68 -35.5 108t-114.5 40h-80q-5 -45 -7.5 -85t-2.5 -85v-280q0 -45 2.5 -87.5t7.5 -87.5h72q4 -18 0 -37q-34 2 -68 2
h-69h-68t-69 -2q-4 19 0 37h72q5 45 7.5 87.5t2.5 87.5v280q0 45 -2.5 87.5t-7.5 87.5h-72q-4 19 0 37q35 -1 69 -1.5t68 -0.5h155q75 0 135 -18.5t95 -58t35 -103.5q0 -51 -23.5 -86.5t-63 -57t-89.5 -30.5q59 -4 91.5 -29t42.5 -74l27 -136q8 -43 26.5 -56t62.5 -16z
M279 925h115q12 -46 28 -81.5t40 -73.5q-16 -3 -32 0q-18 25 -47 47t-58 47.5t-46 60.5zM139 925h115q12 -46 28 -81.5t40 -73.5q-16 -3 -32 0q-18 25 -47 47t-57.5 47.5t-46.5 60.5z" />
    <glyph glyph-name="uni0211" unicode="&#x211;" horiz-adv-x="444" 
d="M37 -2q-4 19 0 37h57q5 38 7.5 73t2.5 72v80q0 72 -10 143h-52q-4 19 0 37q35 0 75 2.5t82 10.5q-5 -18 -7.5 -41.5t-2.5 -46.5l10 -45v-140q0 -37 2.5 -72t7.5 -73h87q4 -18 0 -37q-53 2 -84 2h-60h-56.5t-58.5 -2zM323 325q4 37 -3.5 58.5t-32.5 21.5q-24 0 -44.5 -22
t-43.5 -63l-10 45q24 43 56.5 66.5t78.5 23.5q37 0 59.5 -13t32.5 -41.5t7 -75.5h-100zM171 690h105q7 -43 21 -83.5t42 -86.5q-16 -3 -32 0q-18 31 -45 56.5t-52 52.5t-39 61zM41 690h105q8 -43 24.5 -83.5t48.5 -86.5q-16 -3 -32 0q-20 31 -48.5 56.5t-55.5 52.5t-42 61z
" />
    </font>
</defs>
</svg>
