<?xml version="1.0" standalone="no"?>
<!DOCTYPE svg PUBLIC "-//W3C//DTD SVG 1.1//EN" "http://www.w3.org/Graphics/SVG/1.1/DTD/svg11.dtd" >
<svg xmlns="http://www.w3.org/2000/svg" xmlns:xlink="http://www.w3.org/1999/xlink" version="1.1">
<metadata>
Created by FontForge 20170731 at Fri Mar 10 17:47:25 2023
 By Aleksey,,,
Copyright 2020 The Poltawski Nowy Project Authors (https://github.com/kosmynkab/Poltawski-Nowy)
</metadata>
<defs>
<font id="PoltawskiNowy-MediumItalic" horiz-adv-x="0" >
  <font-face 
    font-family="Poltawski Nowy Medium"
    font-weight="500"
    font-style="italic"
    font-stretch="normal"
    units-per-em="1000"
    panose-1="0 0 0 0 0 0 0 0 0 0"
    ascent="800"
    descent="-200"
    x-height="448"
    cap-height="702"
    bbox="-266 -382 1469 1102"
    underline-thickness="50"
    underline-position="-175"
    slope="-12"
    unicode-range="U+0020-FB02"
  />
<missing-glyph horiz-adv-x="600" 
d="M44 0l148 700h420l-148 -700h-420zM121 45h307l121 569zM109 95l420 560h-301z" />
    <glyph glyph-name="fi" unicode="fi" horiz-adv-x="608" 
d="M304 720q56 0 74.5 -33.5t3.5 -88.5h-94q12 41 8.5 62t-22.5 21q-24 0 -39 -35t-15 -98q0 -31 3.5 -56t7.5 -44v-42l-58 -298q-7 -41 -18 -84t-29 -83t-46.5 -74.5t-71.5 -58.5t-105 -33q-3 8 -5.5 17t-2.5 21q63 18 102.5 73t59.5 161l42 221q7 34 14.5 82t11.5 98
q7 99 29.5 159t60 86.5t89.5 26.5zM328 406h-277q0 9 2.5 21t6.5 21h277q-1 -8 -3.5 -20.5t-5.5 -21.5zM435 -15q-47 0 -63.5 32t-6.5 78l36 169q8 35 13 69.5t8 77.5h-55q0 8 2.5 19t5.5 18q47 0 93 3t95 11q-11 -24 -22 -60.5t-20 -73t-15 -64.5l-35 -164q-6 -25 -4 -40.5
t17 -15.5q14 0 30.5 14.5t38.5 47.5q9 -4 16 -8.5t14 -11.5q-25 -45 -64.5 -73t-83.5 -28zM540 681l53 -45l-15 -70l-67 -20l-53 45l15 71z" />
    <glyph glyph-name="fl" unicode="fl" horiz-adv-x="591" 
d="M304 720q56 0 74.5 -33.5t3.5 -88.5h-94q12 41 8.5 62t-22.5 21q-24 0 -39 -35t-15 -98q0 -31 3.5 -56t7.5 -44v-42l-58 -298q-7 -41 -18 -84t-29 -83t-46.5 -74.5t-71.5 -58.5t-105 -33q-3 8 -5.5 17t-2.5 21q63 18 102.5 73t59.5 161l42 221q7 34 14.5 82t11.5 98
q7 99 29.5 159t60 86.5t89.5 26.5zM328 406h-277q0 9 2.5 21t6.5 21h277q-1 -8 -3.5 -20.5t-5.5 -21.5zM421 -15q-48 0 -64 32t-6 78l88 421q8 37 14 74t7 73h-55q0 7 2.5 18.5t5.5 18.5q45 0 92.5 3t95.5 11q-11 -25 -22 -61.5t-20 -73t-15 -63.5l-88 -416q-5 -25 -3 -40.5
t17 -15.5q14 0 30.5 14.5t38.5 47.5q8 -4 15.5 -8.5t14.5 -11.5q-26 -45 -65 -73t-83 -28z" />
    <glyph glyph-name="f_f" unicode="ff" horiz-adv-x="613" 
d="M304 720q56 0 74.5 -33.5t3.5 -88.5h-94q12 41 8.5 62t-22.5 21q-24 0 -39 -35t-15 -98q0 -31 3.5 -56t7.5 -44v-42l-58 -298q-7 -41 -18 -84t-29 -83t-46.5 -74.5t-71.5 -58.5t-105 -33q-3 8 -5.5 17t-2.5 21q63 18 102.5 73t59.5 161l42 221q7 34 14.5 82t11.5 98
q7 99 29.5 159t60 86.5t89.5 26.5zM328 406h-277q0 9 2.5 21t6.5 21h277q-1 -8 -3.5 -20.5t-5.5 -21.5zM612 720q56 0 74.5 -33.5t3.5 -88.5h-94q12 41 8.5 62t-22.5 21q-24 0 -39 -35t-15 -98q0 -31 3.5 -56t7.5 -44v-42l-58 -298q-7 -41 -18 -84t-29 -83t-46.5 -74.5
t-71.5 -58.5t-105 -33q-3 8 -5.5 17t-2.5 21q63 18 102.5 73t59.5 161l42 221q7 34 14.5 82t11.5 98q7 99 29.5 159t60 86.5t89.5 26.5zM636 406h-277q0 9 2.5 21t6.5 21h277q-1 -8 -3.5 -20.5t-5.5 -21.5z" />
    <glyph glyph-name="f_f_i" unicode="ffi" horiz-adv-x="916" 
d="M304 720q56 0 74.5 -33.5t3.5 -88.5h-94q12 41 8.5 62t-22.5 21q-24 0 -39 -35t-15 -98q0 -31 3.5 -56t7.5 -44v-42l-58 -298q-7 -41 -18 -84t-29 -83t-46.5 -74.5t-71.5 -58.5t-105 -33q-3 8 -5.5 17t-2.5 21q63 18 102.5 73t59.5 161l42 221q7 34 14.5 82t11.5 98
q7 99 29.5 159t60 86.5t89.5 26.5zM328 406h-277q0 9 2.5 21t6.5 21h277q-1 -8 -3.5 -20.5t-5.5 -21.5zM612 720q56 0 74.5 -33.5t3.5 -88.5h-94q12 41 8.5 62t-22.5 21q-24 0 -39 -35t-15 -98q0 -31 3.5 -56t7.5 -44v-42l-58 -298q-7 -41 -18 -84t-29 -83t-46.5 -74.5
t-71.5 -58.5t-105 -33q-3 8 -5.5 17t-2.5 21q63 18 102.5 73t59.5 161l42 221q7 34 14.5 82t11.5 98q7 99 29.5 159t60 86.5t89.5 26.5zM636 406h-277q0 9 2.5 21t6.5 21h277q-1 -8 -3.5 -20.5t-5.5 -21.5zM743 -15q-47 0 -63.5 32t-6.5 78l36 169q8 35 13 69.5t8 77.5h-55
q0 8 2.5 19t5.5 18q47 0 93 3t95 11q-11 -24 -22 -60.5t-20 -73t-15 -64.5l-35 -164q-6 -25 -4 -40.5t17 -15.5q14 0 30.5 14.5t38.5 47.5q9 -4 16 -8.5t14 -11.5q-25 -45 -64.5 -73t-83.5 -28zM848 681l53 -45l-15 -70l-67 -20l-53 45l15 71z" />
    <glyph glyph-name="f_f_l" unicode="ffl" horiz-adv-x="899" 
d="M304 720q56 0 74.5 -33.5t3.5 -88.5h-94q12 41 8.5 62t-22.5 21q-24 0 -39 -35t-15 -98q0 -31 3.5 -56t7.5 -44v-42l-58 -298q-7 -41 -18 -84t-29 -83t-46.5 -74.5t-71.5 -58.5t-105 -33q-3 8 -5.5 17t-2.5 21q63 18 102.5 73t59.5 161l42 221q7 34 14.5 82t11.5 98
q7 99 29.5 159t60 86.5t89.5 26.5zM328 406h-277q0 9 2.5 21t6.5 21h277q-1 -8 -3.5 -20.5t-5.5 -21.5zM612 720q56 0 74.5 -33.5t3.5 -88.5h-94q12 41 8.5 62t-22.5 21q-24 0 -39 -35t-15 -98q0 -31 3.5 -56t7.5 -44v-42l-58 -298q-7 -41 -18 -84t-29 -83t-46.5 -74.5
t-71.5 -58.5t-105 -33q-3 8 -5.5 17t-2.5 21q63 18 102.5 73t59.5 161l42 221q7 34 14.5 82t11.5 98q7 99 29.5 159t60 86.5t89.5 26.5zM636 406h-277q0 9 2.5 21t6.5 21h277q-1 -8 -3.5 -20.5t-5.5 -21.5zM729 -15q-48 0 -64 32t-6 78l88 421q8 37 14 74t7 73h-55
q0 7 2.5 18.5t5.5 18.5q45 0 92.5 3t95.5 11q-11 -25 -22 -61.5t-20 -73t-15 -63.5l-88 -416q-5 -25 -3 -40.5t17 -15.5q14 0 30.5 14.5t38.5 47.5q8 -4 15.5 -8.5t14.5 -11.5q-26 -45 -65 -73t-83 -28z" />
    <glyph glyph-name=".notdef" horiz-adv-x="600" 
d="M44 0l148 700h420l-148 -700h-420zM121 45h307l121 569zM109 95l420 560h-301z" />
    <glyph glyph-name=".null" 
 />
    <glyph glyph-name="nonmarkingreturn" horiz-adv-x="333" 
 />
    <glyph glyph-name="space" unicode=" " horiz-adv-x="242" 
 />
    <glyph glyph-name="exclam" unicode="!" horiz-adv-x="281" 
d="M243 709l57 -50l-16 -75l-133 -394q-9 1 -18 2.5t-17 5.5l38 414l16 75zM120 126l55 -47l-15 -73l-69 -20l-55 47l15 73z" />
    <glyph glyph-name="quotedbl" unicode="&#x22;" horiz-adv-x="360" 
d="M144 721l63 23l50 -46l-12 -58q-16 -24 -31 -52.5t-27 -57.5t-21 -54q-15 0 -29 6q2 27 2.5 58.5t-1 63.5t-6.5 60zM301 721l63 23l50 -46l-12 -58q-16 -24 -31 -52.5t-27 -57.5t-21 -54q-15 0 -29 6q2 27 2.5 58.5t-1 63.5t-6.5 60z" />
    <glyph glyph-name="numbersign" unicode="#" horiz-adv-x="665" 
d="M347 700l-172 -700q-29 -3 -55 0l172 700q29 3 55 0zM602 700l-172 -700q-29 -3 -55 0l172 700q29 3 55 0zM677 509q1 -9 0 -24.5t-3 -25.5h-572q-1 10 0 25.5t3 24.5h572zM621 261q1 -9 -0.5 -24.5t-3.5 -25.5h-572q-1 10 0.5 25.5t3.5 24.5h572z" />
    <glyph glyph-name="dollar" unicode="$" horiz-adv-x="584" 
d="M130 -125l297 935q11 0 22.5 -1t21.5 -4l-297 -935q-11 0 -22 1t-22 4zM239 -14q-65 0 -121 12t-97 34l40 187q16 3 32 0q-6 -56 12 -99.5t55.5 -68.5t87.5 -25q59 0 96 19t54.5 50t17.5 68q0 43 -21.5 70t-55 46t-71.5 36.5t-71.5 41t-55 58.5t-21.5 90q0 62 32.5 109
t93 73.5t141.5 26.5q65 0 112 -12t81 -33l-36 -167q-16 -3 -32 0q8 77 -26 124.5t-107 47.5q-68 0 -108.5 -35.5t-40.5 -86.5q0 -39 22 -64t57 -43t74.5 -36t74.5 -42.5t57 -61.5t22 -94q0 -66 -34.5 -117t-101.5 -79.5t-162 -28.5z" />
    <glyph glyph-name="percent" unicode="%" horiz-adv-x="795" 
d="M779 700l-642 -700q-31 -3 -59 0l642 700q29 3 59 0zM436 580q0 -60 -27 -113t-75 -85t-112 -32q-62 0 -94.5 34.5t-32.5 99.5q0 61 26.5 113.5t74 85t111.5 32.5q63 0 96 -34.5t33 -100.5zM344 612q0 39 -10.5 55t-31.5 16q-26 0 -47.5 -22.5t-37 -58t-23.5 -74.5
t-8 -74q0 -40 11 -56t31 -16q27 0 48 23t36.5 58.5t23.5 75.5t8 73zM753 213q0 -60 -27 -113t-75 -85t-112 -32q-62 0 -94.5 34.5t-32.5 99.5q0 61 26.5 113.5t74.5 85t111 32.5t96 -34.5t33 -100.5zM661 245q0 39 -10.5 55t-31.5 16q-26 0 -47.5 -22.5t-37 -58t-23.5 -74.5
t-8 -74q0 -40 11 -56t31 -16q27 0 48 23t36.5 58.5t23.5 75.5t8 73z" />
    <glyph glyph-name="ampersand" unicode="&#x26;" horiz-adv-x="743" 
d="M662 -2q-60 -8 -99.5 -7.5t-64.5 10.5t-42 29t-33 47l-155 276q-20 35 -35.5 73t-15.5 85q0 61 29 107t81.5 72t123.5 26q76 0 115.5 -30.5t39.5 -86.5q0 -51 -31 -91t-83 -69.5t-116 -48.5l-12 30q40 19 69.5 48.5t46.5 65.5t17 73q0 36 -15.5 52.5t-41.5 16.5
q-28 0 -51.5 -18t-37 -47t-13.5 -64q0 -41 17 -78.5t34 -70.5l129 -238q32 -59 57 -85.5t48 -33t47 -6.5q0 -8 -2.5 -19t-5.5 -18zM258 -14q-64 0 -114.5 18.5t-80.5 56t-30 93.5q0 48 22 86t60 67t85.5 50t98.5 36l14 -26q-68 -35 -105 -80t-38 -112q0 -66 33.5 -99.5
t94.5 -33.5q54 0 110.5 23t104.5 63t77.5 91t29.5 108q0 41 -19 78h-43q0 8 2 19t6 18q31 -1 57.5 -1.5t43.5 -0.5q20 0 46 0.5t51 1.5q-1 -7 -3 -18t-5 -19h-60q-13 -28 -19.5 -56t-12.5 -53q-15 -64 -53 -120.5t-93.5 -99t-121.5 -66.5t-138 -24z" />
    <glyph glyph-name="quotesingle" unicode="'" horiz-adv-x="205" 
d="M146 721l63 23l50 -46l-12 -58q-16 -24 -31 -52.5t-27 -57.5t-21 -54q-15 0 -29 6q2 27 2.5 58.5t-1 63.5t-6.5 60z" />
    <glyph glyph-name="parenleft" unicode="(" horiz-adv-x="351" 
d="M466 784q-67 -45 -124 -111.5t-99.5 -150t-66.5 -179.5t-24 -202q0 -88 28.5 -157.5t88.5 -127.5q-7 -8 -11 -13.5t-16 -17.5q-92 56 -143 143.5t-51 207.5q0 137 49.5 260t140.5 221t215 158q5 -7 8.5 -16t4.5 -15z" />
    <glyph glyph-name="parenright" unicode=")" horiz-adv-x="351" 
d="M-75 -144q67 45 124 111.5t99.5 150t66 180t23.5 201.5q0 87 -27 157t-89 128q6 8 11.5 14.5t15.5 16.5q93 -56 143.5 -143t50.5 -208q0 -137 -49 -260t-140 -220.5t-216 -158.5q-4 7 -7 14.5t-6 16.5z" />
    <glyph glyph-name="asterisk" unicode="*" horiz-adv-x="538" 
d="M534 643l36 -42l-27 -50l-189 16l107 -156l-30 -48l-55 11l-44 184l-116 -150l-54 13l-8 56l161 98l-178 63l-5 56l51 24l144 -123l5 188l53 22l38 -41l-73 -174z" />
    <glyph glyph-name="plus" unicode="+" horiz-adv-x="620" 
d="M576 340h-479q0 13 2 25t6 25h479q0 -13 -1.5 -25t-6.5 -25zM274 125l84 480q26 4 50 0l-84 -480q-26 -4 -50 0z" />
    <glyph glyph-name="comma" unicode="," horiz-adv-x="242" 
d="M116 126l55 -47l-9 -37q-12 -57 -52.5 -99t-93.5 -70q-16 13 -20 31q31 19 53.5 39.5t35.5 45.5l-54 44l16 73z" />
    <glyph glyph-name="hyphen" unicode="-" horiz-adv-x="423" 
d="M357 231h-288q0 9 2.5 21.5t5.5 25.5t6 21h289q0 -8 -2.5 -21t-5.5 -25.5t-7 -21.5z" />
    <glyph glyph-name="period" unicode="." horiz-adv-x="239" 
d="M114 126l55 -47l-16 -73l-68 -20l-56 47l16 73z" />
    <glyph glyph-name="slash" unicode="/" horiz-adv-x="351" 
d="M417 730l-394 -850q-28 -3 -56 0l394 850q28 3 56 0z" />
    <glyph glyph-name="zero" unicode="0" horiz-adv-x="639" 
d="M622 469q0 -93 -26.5 -179.5t-75 -155t-114.5 -109t-145 -40.5q-90 0 -141 60.5t-51 185.5q0 92 27 178.5t75 155.5t114.5 109.5t145.5 40.5q91 0 141 -60t50 -186zM497 536q0 74 -17 106.5t-51 32.5q-36 0 -70 -30.5t-63.5 -83t-52 -118.5t-35 -137t-12.5 -138
q0 -77 17.5 -110t51.5 -33q36 0 70 30.5t63.5 83t51.5 119t34.5 138t12.5 140.5z" />
    <glyph glyph-name="one" unicode="1" horiz-adv-x="409" 
d="M248 35h95q0 -7 -2.5 -18t-5.5 -19q-53 2 -92.5 2h-74.5h-75t-94 -2q0 8 2.5 19t5.5 18h94q15 43 26 86.5t21 88.5l61 287q6 25 10 48t7 47h-105q0 8 2 19t6 18q38 0 81.5 14t85.5 38t75 50q13 -5 23 -14q-17 -48 -29.5 -97t-19.5 -85l-70 -325q-10 -45 -16 -88.5
t-11 -86.5z" />
    <glyph glyph-name="two" unicode="2" horiz-adv-x="600" 
d="M-13 0q119 85 205 158t140.5 139.5t80.5 131.5t26 135q0 63 -18.5 87t-52.5 24q-40 0 -68 -30t-42.5 -77t-14.5 -99h-129q0 78 36 133t97 84t137 29q91 0 141 -40.5t50 -115.5q0 -54 -26 -108.5t-76 -111t-124.5 -116t-171.5 -125.5zM413 -29q-39 0 -72 7.5t-64.5 17.5
t-66 17.5t-75.5 7.5q-25 0 -45 -5.5t-37 -15.5t-35 -24q-17 9 -31 24l207 134q47 -3 79 -14.5t54 -26.5t39 -29.5t33.5 -24t37.5 -9.5q26 0 37.5 15.5t11.5 35.5q0 24 -13.5 42t-27.5 31q11 12 30 20q22 -18 39 -42.5t16 -59.5q-1 -44 -34 -72.5t-83 -28.5z" />
    <glyph glyph-name="three" unicode="3" horiz-adv-x="585" 
d="M531 240q0 -74 -38.5 -131.5t-106.5 -90.5t-157 -33q-80 0 -127.5 25.5t-63 70t-0.5 100.5h130q-17 -77 -0.5 -116.5t72.5 -39.5q44 0 79.5 30t56 81.5t20.5 115.5q0 49 -25 75t-78 26q-29 0 -53 -2.5t-51 -7.5q0 12 3 24.5t7 23.5h73q79 0 124 56t45 151q0 41 -17.5 59
t-51.5 18q-36 0 -60 -18t-39.5 -49t-24.5 -73h-122q9 51 43 92t89 64.5t125 23.5q93 0 140 -37t47 -99q0 -70 -43 -124.5t-116 -76.5q54 -9 87 -44.5t33 -93.5z" />
    <glyph glyph-name="four" unicode="4" horiz-adv-x="597" 
d="M502 35q0 -6 -2 -17t-6 -20q-52 2 -91 2h-72h-73.5t-92.5 -2q0 8 2.5 19t5.5 18h94q15 47 26 89.5t21 85.5l69 327l-262 -282h459q-4 -10 -11.5 -26.5t-16 -31t-17.5 -23.5h-525q0 12 1.5 23t4.5 28q25 21 47.5 43t42.5 43l280 297q24 26 50.5 56t45.5 56q10 2 23.5 2.5
t26.5 0t23 -2.5q-11 -31 -21.5 -69.5t-19 -73.5t-13.5 -57l-66 -310q-9 -44 -15.5 -87.5t-11.5 -87.5h94z" />
    <glyph glyph-name="five" unicode="5" horiz-adv-x="570" 
d="M572 728q15 3 31 0l-28 -98q-7 -24 -29.5 -34.5t-45.5 -10.5h-284l-49 -191q28 20 65.5 33t96.5 13q93 0 144 -45.5t51 -124.5q0 -83 -38.5 -147.5t-107 -101t-156.5 -36.5q-77 0 -123 25.5t-61.5 69t-1.5 97.5h131q-16 -74 0.5 -113t68.5 -39q32 0 60 21.5t50 59.5
t34 87t12 105q0 50 -23 74.5t-73 24.5q-49 0 -89.5 -20t-67.5 -50q-18 -5 -37 0l66 258q8 30 15 58.5t10 56.5h332q34 0 47 28z" />
    <glyph glyph-name="six" unicode="6" horiz-adv-x="597" 
d="M59 194q0 111 40 204.5t112 163.5t170 108.5t216 38.5q-1 -11 -3 -22t-6 -23q-159 -15 -245.5 -89t-114.5 -192q29 30 70.5 46.5t91.5 16.5q77 0 124.5 -41.5t47.5 -123.5q0 -62 -23.5 -116t-65 -94t-97 -63t-119.5 -23q-94 0 -146 49t-52 160zM182 132q0 -53 21.5 -80
t61.5 -27q33 0 61.5 21.5t51 58.5t35.5 85t13 101q0 52 -21.5 78.5t-60.5 26.5q-33 0 -62 -21t-51.5 -57.5t-35.5 -84.5t-13 -101z" />
    <glyph glyph-name="seven" unicode="7" horiz-adv-x="508" 
d="M585 656l-312 -422q-21 -27 -29 -52.5t-4 -47t22 -38.5l13 -12l-17 -77l-73 -22l-59 50l10 48q11 53 41 96.5t65 90.5l232 314h-278q-31 0 -48.5 -24.5t-30.5 -56.5q-16 -4 -32 0l63 197h325q27 0 52.5 0.5t54.5 1.5q2 -10 4 -20.5t1 -25.5z" />
    <glyph glyph-name="eight" unicode="8" horiz-adv-x="607" 
d="M551 231q0 -71 -38.5 -126.5t-105.5 -87.5t-154 -32q-102 0 -157.5 41.5t-55.5 114.5q0 58 26.5 107t73 83.5t106.5 48.5q-43 11 -72 42t-29 81q0 62 33.5 110t93 75t136.5 27q88 0 138 -35.5t50 -100.5q0 -44 -20 -85t-58 -70.5t-91 -43.5q59 -15 91.5 -54t32.5 -95z
M471 589q0 44 -19.5 66t-51.5 22q-35 0 -65 -27.5t-48.5 -72t-18.5 -96.5q0 -44 20 -66t51 -22q35 0 65 27.5t48.5 72t18.5 96.5zM418 257q0 50 -22 78t-64 28t-78 -33t-58 -86.5t-22 -116.5q0 -50 22.5 -77t64.5 -27q43 0 78.5 32.5t57 85.5t21.5 116z" />
    <glyph glyph-name="nine" unicode="9" horiz-adv-x="597" 
d="M591 506q0 -111 -39.5 -204.5t-111.5 -163.5t-170.5 -108.5t-216.5 -38.5q2 11 3.5 22t6.5 23q159 15 245.5 89t113.5 192q-28 -29 -69.5 -46t-91.5 -17q-77 0 -124.5 42t-47.5 123q0 62 23 116t64.5 94t97.5 63t120 23q94 0 145.5 -49t51.5 -160zM468 568q0 53 -21.5 80
t-61.5 27q-31 0 -60.5 -21.5t-52 -58.5t-35.5 -85t-13 -101q0 -52 21.5 -78.5t60.5 -26.5q33 0 62.5 21t51.5 57.5t35 84.5t13 101z" />
    <glyph glyph-name="colon" unicode=":" horiz-adv-x="262" 
d="M111 126l55 -47l-16 -73l-68 -20l-56 47l16 73zM180 463l55 -47l-16 -73l-68 -20l-56 47l16 73z" />
    <glyph glyph-name="semicolon" unicode=";" horiz-adv-x="270" 
d="M120 126l55 -47l-9 -37q-12 -57 -52.5 -99t-93.5 -70q-16 13 -20 31q31 19 53.5 39.5t35.5 45.5l-54 44l16 73zM181 463l55 -47l-16 -73l-68 -20l-56 47l16 73z" />
    <glyph glyph-name="less" unicode="&#x3c;" horiz-adv-x="620" 
d="M95 410l503 181q5 -11 7 -22.5t2 -24.5l-455 -159l399 -159q-9 -25 -25 -47l-439 181q0 13 2 25t6 25z" />
    <glyph glyph-name="equal" unicode="=" horiz-adv-x="620" 
d="M592 440h-480q0 25 9 50h480q0 -24 -9 -50zM557 240h-480q0 25 9 50h480q0 -24 -9 -50z" />
    <glyph glyph-name="greater" unicode="&#x3e;" horiz-adv-x="620" 
d="M600 410q0 -13 -1.5 -25t-6.5 -25l-503 -181q-5 11 -7 22.5t-2 24.5l455 159l-399 159q9 25 25 47z" />
    <glyph glyph-name="question" unicode="?" horiz-adv-x="505" 
d="M332 675q-40 0 -65 -29t-36.5 -75t-10.5 -98h-127q-1 76 30 130t89.5 83t137.5 29q50 0 93 -14t69.5 -46.5t26.5 -88.5q0 -46 -17.5 -78.5t-46.5 -58t-62 -48.5t-65 -49t-57 -60t-36 -82q-9 0 -18 2t-18 6q9 60 25.5 100t37.5 68t42 48.5t39 41.5t28.5 48.5t10.5 68.5
q0 58 -20 80t-50 22zM233 126l55 -47l-16 -73l-69 -20l-55 47l16 73z" />
    <glyph glyph-name="at" unicode="@" horiz-adv-x="900" 
d="M607 7l26 42q34 0 66.5 20.5t59 57.5t42.5 86t16 105q0 71 -34 121t-97.5 77t-149.5 27q-102 0 -186 -34.5t-145.5 -94t-95 -135.5t-33.5 -161q0 -88 37.5 -146.5t104 -87t152.5 -28.5q75 0 135 17t121 49q3 -7 6.5 -14.5t5.5 -16.5q-63 -36 -128 -56t-144 -20
q-101 0 -177 34.5t-117.5 102t-41.5 165.5q0 96 38.5 180.5t108 149.5t162 101.5t200.5 36.5q101 0 173.5 -33t111.5 -93t39 -143q0 -66 -20.5 -122t-56 -98t-81.5 -65.5t-98 -23.5zM633 49l-26 -42q-40 0 -62 7t-31 20.5t-14 33.5q-24 -27 -55.5 -44t-73.5 -17
q-60 0 -98.5 34t-38.5 103q0 75 33 134.5t89.5 94.5t127.5 35q45 0 72.5 -10.5t47.5 -27.5l40 25q14 3 26 0q-6 -19 -13 -45t-14.5 -54t-12.5 -55l-27 -128q-7 -31 -1.5 -47.5t31.5 -16.5zM403 47q27 0 51 17t51 48l34 162q9 41 -0.5 61t-26.5 26.5t-32 6.5q-38 0 -69 -32
t-50 -85.5t-19 -116.5q0 -43 16 -65t45 -22z" />
    <glyph glyph-name="A" unicode="A" horiz-adv-x="661" 
d="M-64 -2q0 8 2.5 19t5.5 18h52q33 45 61 87t55 88l186 309q15 25 36 59t43 71t40 71q11 2 25 2.5t28 0t23 -2.5l-120 -166l-207 -344q-22 -37 -44.5 -81.5t-38.5 -93.5h84q0 -7 -2.5 -18t-5.5 -19q-41 2 -75.5 2h-51.5h-39.5t-56.5 -2zM554 35h58q0 -7 -2.5 -18t-5.5 -19
q-34 2 -63 2h-70h-71t-70 -2q0 8 2.5 19t5.5 18h69q2 45 1 88t-6 87l-29 344l120 166q-1 -50 1 -98.5t8 -113.5l27 -298q4 -42 9 -84.5t16 -90.5zM431 233h-262l9 40h262z" />
    <glyph glyph-name="B" unicode="B" horiz-adv-x="681" 
d="M443 370q54 -3 96.5 -21t67 -52t24.5 -85q0 -61 -38.5 -109t-107.5 -75.5t-163 -27.5h-184h-71.5t-72.5 -2q0 8 2.5 19t5.5 18h70q15 45 26.5 89.5t20.5 85.5l60 280q9 43 16 85.5t11 89.5h-70q0 8 2.5 19t5.5 18q34 -1 71.5 -1.5t71.5 -0.5h146q65 0 115.5 -16.5t80 -49
t29.5 -80.5t-28 -87t-76.5 -64.5t-110.5 -32.5zM220 40h101q54 0 91 25.5t57 67t20 89.5q0 56 -29.5 88.5t-91.5 32.5h-154l8 40h145q41 0 76 23t55.5 61t20.5 83q0 50 -27.5 80t-84.5 30h-55q-10 -30 -17.5 -55.5t-14 -51.5t-13.5 -60l-61 -283q-9 -42 -15 -84t-11 -86z
" />
    <glyph glyph-name="C" unicode="C" horiz-adv-x="703" 
d="M381 -15q-149 0 -229.5 76.5t-80.5 221.5q0 85 29 162.5t85.5 138.5t139.5 96t190 35q67 0 123.5 -13.5t96.5 -31.5l-38 -179q-16 -3 -32 0q2 96 -42 139t-121 43q-90 0 -154.5 -52t-98 -141.5t-33.5 -204.5q0 -72 15 -128t52 -88t99 -32q70 0 129.5 44.5t104.5 140.5
q16 3 32 0l-38 -176q-47 -23 -105 -37t-124 -14z" />
    <glyph glyph-name="D" unicode="D" horiz-adv-x="798" 
d="M287 700h189q146 0 226.5 -65.5t80.5 -197.5q0 -95 -35.5 -175.5t-100 -138.5t-151.5 -90.5t-189 -32.5h-169h-71.5t-72.5 -2q0 8 2.5 19t5.5 18h70q15 45 26.5 89.5t20.5 85.5l60 280q9 43 16 85.5t11 89.5h-70q0 8 2.5 19t5.5 18q34 -1 71.5 -1.5t71.5 -0.5zM220 40h94
q73 0 132.5 29.5t102.5 82.5t66.5 123.5t23.5 152.5q0 114 -41.5 173t-139.5 59h-106q-15 -46 -25 -83t-21 -87l-60 -280q-8 -39 -14.5 -80t-11.5 -90z" />
    <glyph glyph-name="E" unicode="E" horiz-adv-x="616" 
d="M-6 -2q0 8 2.5 19t5.5 18h70q15 45 26.5 89.5t20.5 85.5l60 280q9 43 16 85.5t11 89.5h-70q0 8 2.5 19t5.5 18q34 -1 71.5 -1.5t71.5 -0.5h350l-40 -187q-16 -3 -32 0q9 52 0 84.5t-37 47.5t-76 15h-100q-15 -46 -25 -83t-21 -87l-60 -280q-8 -39 -14.5 -80t-11.5 -90
h135q52 0 87 19t56.5 52t32.5 76q16 3 32 0l-40 -187h-385h-71.5t-72.5 -2zM442 256q8 47 -4.5 65.5t-49.5 18.5h-177l8 40h177q38 0 58 19t31 65q16 3 32 0l-43 -208q-17 -3 -32 0z" />
    <glyph glyph-name="F" unicode="F" horiz-adv-x="571" 
d="M-6 -2q0 8 2.5 19t5.5 18h70q15 45 26.5 89.5t20.5 85.5l60 280q9 43 16 85.5t11 89.5h-70q0 8 2.5 19t5.5 18q34 -1 71.5 -1.5t71.5 -0.5h345l-39 -184q-16 -3 -32 0q12 75 -13.5 109.5t-100.5 34.5h-95q-15 -46 -25 -83t-21 -87l-60 -280q-7 -38 -14.5 -81t-12.5 -94
h94q0 -7 -2.5 -18t-5.5 -19q-52 2 -92 2h-75h-71.5t-72.5 -2zM452 246q9 47 -3.5 65.5t-49.5 18.5h-190l8 40h190q37 0 57.5 19t31.5 65q16 3 32 0l-44 -208q-16 -3 -32 0z" />
    <glyph glyph-name="G" unicode="G" horiz-adv-x="766" 
d="M380 -15q-150 0 -229 76t-79 220q0 96 33 176t94 137.5t145.5 89t186.5 31.5q67 0 124 -12.5t96 -32.5l-38 -179q-16 -3 -32 0q2 96 -42 139t-122 43q-86 0 -154.5 -46t-107.5 -134t-39 -215q0 -76 17 -132.5t55.5 -87.5t103.5 -31q35 0 71.5 10.5t61.5 29.5
q15 61 23.5 107.5t12.5 90.5h-81q0 8 2.5 19t5.5 18q35 -1 72.5 -1.5t70.5 -0.5q35 0 63.5 0.5t62.5 1.5q0 -8 -2.5 -18.5t-5.5 -18.5h-52q-9 -31 -18.5 -63t-18.5 -70t-20 -88q-60 -28 -125 -43.5t-135 -15.5z" />
    <glyph glyph-name="H" unicode="H" horiz-adv-x="823" 
d="M444 -2q0 8 2.5 19t5.5 18h70q15 46 26 88t21 87l60 280q9 43 16 85.5t11 89.5h-70q0 8 2.5 19t5.5 18q34 -1 71.5 -1.5t71.5 -0.5q35 0 72 0.5t72 1.5q0 -7 -2.5 -18t-5.5 -19h-70q-14 -45 -25 -86t-22 -89l-60 -280q-8 -41 -15 -83t-12 -92h70q0 -8 -2.5 -18.5
t-5.5 -18.5q-34 2 -71.5 2h-71.5h-71.5t-72.5 -2zM-6 -2q0 8 2.5 19t5.5 18h70q15 45 26.5 89.5t20.5 85.5l60 280q9 43 16 85.5t11 89.5h-70q0 8 2.5 19t5.5 18q34 -1 71.5 -1.5t71.5 -0.5q35 0 72 0.5t72 1.5q0 -7 -2.5 -18t-5.5 -19h-70q-14 -45 -25 -86t-22 -89
l-60 -280q-7 -38 -14.5 -81t-12.5 -94h70q0 -7 -2.5 -18t-5.5 -19q-34 2 -71 2h-72h-71.5t-72.5 -2zM199 350l8 40h444l-8 -40h-444z" />
    <glyph glyph-name="I" unicode="I" horiz-adv-x="373" 
d="M-6 -2q0 8 2.5 19t5.5 18h70q15 45 26.5 89.5t20.5 85.5l60 280q9 43 16 85.5t11 89.5h-70q0 8 2.5 19t5.5 18q34 -1 71.5 -1.5t71.5 -0.5q35 0 72 0.5t72 1.5q0 -7 -2.5 -18t-5.5 -19h-70q-14 -45 -25 -86t-22 -89l-60 -280q-7 -38 -14.5 -81t-12.5 -94h70
q0 -7 -2.5 -18t-5.5 -19q-34 2 -71 2h-72h-71.5t-72.5 -2z" />
    <glyph glyph-name="J" unicode="J" horiz-adv-x="482" 
d="M139 -15q-38 0 -68.5 8t-50 27.5t-26 52t3.5 80.5h120q-15 -71 -9 -102t36 -31t49 30t32 95l73 345q10 45 17 88.5t11 86.5h-94q0 7 2 18t5 19q53 -1 93.5 -1.5t74.5 -0.5q35 0 72 0.5t71 1.5q0 -7 -2 -18t-5 -19h-70q-16 -47 -27 -88.5t-21 -86.5l-71 -337
q-10 -47 -31 -79.5t-50 -52t-63.5 -28t-71.5 -8.5z" />
    <glyph glyph-name="K" unicode="K" horiz-adv-x="702" 
d="M-6 -2q0 8 2.5 19t5.5 18h70q15 45 26.5 89.5t20.5 85.5l60 280q9 43 16 85.5t11 89.5h-70q0 8 2.5 19t5.5 18q34 -1 71.5 -1.5t71.5 -0.5q35 0 72 0.5t72 1.5q0 -7 -2.5 -18t-5.5 -19h-70q-14 -45 -25 -86t-22 -89l-60 -280q-8 -38 -15 -81t-12 -94h70q0 -7 -2.5 -18
t-5.5 -19q-34 2 -71 2h-72h-71.5t-72.5 -2zM551 -10q-60 0 -81 29t-22 88v138q-1 35 -9.5 58t-32 35t-68.5 12h-79l8 40h62q50 0 94 17.5t68 49.5q20 26 40 57.5t36 67.5q9 20 15.5 42t9.5 41h-71q0 8 2.5 19t5.5 18q41 -1 66 -1.5t44 -0.5q20 0 50.5 0.5t73.5 1.5
q0 -7 -2.5 -18t-5.5 -19h-73q-12 -11 -26.5 -29.5t-31.5 -49.5q-10 -19 -24 -44.5t-30 -52t-35 -49.5q-22 -30 -44 -42t-43 -17q70 -2 97.5 -35t28.5 -94l2 -145q1 -41 15.5 -55t55.5 -17q-1 -8 -2.5 -17t-5.5 -18q-27 -6 -46.5 -8t-41.5 -2z" />
    <glyph glyph-name="L" unicode="L" horiz-adv-x="579" 
d="M-6 -2q0 8 2.5 19t5.5 18h70q15 45 26.5 89.5t20.5 85.5l60 280q9 43 16 85.5t11 89.5h-70q0 8 2.5 19t5.5 18q34 -1 71.5 -1.5t71.5 -0.5q35 0 72 0.5t72 1.5q0 -7 -2.5 -18t-5.5 -19h-70q-14 -45 -25 -86t-22 -89l-60 -280q-7 -38 -14 -80.5t-12 -92.5h118
q77 0 118 44.5t62 125.5q16 3 32 0l-44 -207h-368h-71.5t-72.5 -2z" />
    <glyph glyph-name="M" unicode="M" horiz-adv-x="962" 
d="M366 -10q2 37 -1.5 74.5t-11.5 80.5l-97 461l-12 -48t-16 -68l-60 -280q-7 -37 -13.5 -78t-8.5 -97h81q0 -7 -2.5 -18t-5.5 -19q-37 2 -69 2h-51h-44t-61 -2q0 8 2.5 19t5.5 18h67q18 45 30.5 90t21.5 85l60 280q8 37 13.5 80t8.5 95h-67q0 8 2.5 19t5.5 18
q34 -1 60 -1.5t44 -0.5h131q0 -36 5 -72t11 -68l78 -372l215 354q19 31 32.5 55.5t25 48.5t23.5 54h108q35 0 72 0.5t72 1.5q0 -7 -2.5 -18t-5.5 -19h-70q-15 -45 -25.5 -86t-21.5 -89l-60 -280q-8 -38 -15 -81t-12 -94h70q0 -8 -2.5 -18.5t-5.5 -18.5q-34 2 -71.5 2h-71.5
h-71.5t-72.5 -2q0 8 2.5 19t5.5 18h70q15 46 26 88t21 87l60 280q8 37 13 73.5t6 50.5l-297 -484q-18 -30 -33.5 -64t-31.5 -76q-30 -5 -60 0z" />
    <glyph glyph-name="N" unicode="N" horiz-adv-x="788" 
d="M560 0q-10 37 -21 65t-30 66l-249 486l-12 83q33 0 65 0.5t58 1.5q7 -26 16.5 -51t26.5 -60l205 -405l6 -186q-17 -2 -34 -2t-31 2zM-6 -2q0 8 2.5 19t5.5 18h67q18 46 30 89t22 86l60 280q9 40 14 81.5t8 93.5h-67q0 8 2.5 19t5.5 18q34 -1 60 -1.5t44 -0.5l12 -83
q-8 -28 -16 -60t-16 -67l-60 -280q-7 -37 -13.5 -78t-8.5 -97h81q0 -7 -2.5 -18t-5.5 -19q-37 2 -68.5 2h-51.5h-44t-61 -2zM625 0l-6 186l64 304q9 44 14 83.5t8 91.5h-82q0 8 2.5 19t5.5 18q37 -1 69.5 -1.5t51.5 -0.5q17 0 43.5 0.5t61.5 1.5q0 -7 -2.5 -18t-5.5 -19h-67
q-13 -35 -22 -62t-16 -53t-14 -60z" />
    <glyph glyph-name="O" unicode="O" horiz-adv-x="810" 
d="M488 715q93 0 161 -34.5t105 -101t37 -164.5q0 -85 -28.5 -162.5t-82.5 -137.5t-131 -95t-174 -35q-93 0 -161 34.5t-105 101.5t-37 164q0 85 29 162t82.5 137.5t130.5 95.5t174 35zM378 27q80 0 140 52t94.5 143.5t34.5 209.5q0 69 -15 123t-50 86t-97 32
q-78 0 -139 -52t-95 -143.5t-34 -210.5q0 -67 14.5 -121.5t49.5 -86.5t97 -32z" />
    <glyph glyph-name="P" unicode="P" horiz-adv-x="631" 
d="M-6 -2q0 8 2.5 19t5.5 18h70q15 46 26.5 90t20.5 85l60 280q9 39 16 82.5t11 92.5h-70q0 8 2.5 19t5.5 18q34 -1 71.5 -1.5t71.5 -0.5h147q65 0 117 -16t82 -52t30 -97q0 -69 -41 -123.5t-111.5 -85t-156.5 -30.5h-150l9 40h141q47 0 84.5 24.5t60 70.5t22.5 108
q0 37 -9 61t-25 37t-36.5 18t-43.5 5h-55q-10 -32 -18 -58.5t-14.5 -52.5t-13.5 -59l-60 -280q-7 -35 -14.5 -77t-12.5 -98h94q0 -7 -2.5 -18t-5.5 -19q-52 2 -92 2h-75h-71.5t-72.5 -2z" />
    <glyph glyph-name="Q" unicode="Q" horiz-adv-x="810" 
d="M662 -100q18 -9 30 -23q-20 -22 -48 -36t-76 -14q-52 0 -87.5 19.5t-59.5 57.5q-24 36 -39.5 53.5t-31 24t-38.5 8.5l140 7q20 0 41 -13.5t38 -37.5q24 -32 41 -50.5t40 -18.5q14 0 26 5t24 18zM488 715q93 0 161 -34.5t105 -101t37 -164.5q0 -85 -28.5 -162.5
t-82.5 -137.5t-131 -95t-174 -35q-93 0 -161 34.5t-105 101.5t-37 164q0 85 29 162t82.5 137.5t130.5 95.5t174 35zM378 27q80 0 140 52t94.5 143.5t34.5 209.5q0 69 -15 123t-50 86t-97 32q-78 0 -139 -52t-95 -143.5t-34 -210.5q0 -67 14.5 -121.5t49.5 -86.5t97 -32z" />
    <glyph glyph-name="R" unicode="R" horiz-adv-x="704" 
d="M648 35q-1 -8 -2.5 -17t-5.5 -18q-22 -5 -45.5 -7.5t-45.5 -2.5q-56 0 -76 30.5t-21 86.5l-1 128q-1 41 -23.5 63t-74.5 22h-144l9 40h152q46 0 83 26t59 69.5t22 93.5q0 57 -29 84t-87 27h-66q-15 -46 -25 -83t-21 -87l-60 -280q-8 -38 -15 -81t-12 -94h70
q0 -7 -2.5 -18t-5.5 -19q-34 2 -71 2h-72h-71.5t-72.5 -2q0 8 2.5 19t5.5 18h70q15 45 26.5 89.5t20.5 85.5l60 280q9 43 16 85.5t11 89.5h-70q0 8 2.5 19t5.5 18q34 -1 71.5 -1.5t71.5 -0.5h158q65 0 117.5 -14.5t83 -48t30.5 -88.5q0 -53 -28 -94t-76 -68t-111 -40
q62 -4 88.5 -32t27.5 -74l2 -134q1 -41 14.5 -55t54.5 -17z" />
    <glyph glyph-name="S" unicode="S" horiz-adv-x="591" 
d="M246 -14q-65 0 -120.5 12t-96.5 34l39 187q16 3 32 0q-5 -56 13 -99.5t55 -68.5t87 -25q59 0 96.5 19t54.5 50t17 68q0 43 -21.5 70t-55 46t-71.5 36.5t-71.5 41t-55 58.5t-21.5 90q0 62 33 109t93 73.5t141 26.5q65 0 112.5 -12t80.5 -33l-35 -167q-16 -3 -32 0
q7 77 -27 124.5t-106 47.5q-68 0 -108.5 -35.5t-40.5 -86.5q0 -39 22 -64t57 -43t74.5 -36t74.5 -42.5t57 -61.5t22 -94q0 -66 -35 -117t-101.5 -79.5t-162.5 -28.5z" />
    <glyph glyph-name="T" unicode="T" horiz-adv-x="653" 
d="M135 -2q0 8 2 19t6 18h70q16 49 26.5 90t20.5 85l59 280q8 39 15 79.5t11 90.5h-47q-44 0 -77.5 -15.5t-59 -52.5t-43.5 -102q-16 -3 -32 0l44 210h595l-45 -210q-17 -3 -32 0q9 62 0 99t-35.5 54t-73.5 17h-47q-17 -52 -26.5 -88.5t-19.5 -81.5l-59 -280
q-9 -40 -16.5 -86t-11.5 -89h70q0 -6 -2 -17.5t-5 -19.5q-34 2 -71.5 2h-72.5h-71t-72 -2z" />
    <glyph glyph-name="U" unicode="U" horiz-adv-x="740" 
d="M345 -15q-143 0 -202.5 53.5t-36.5 162.5l62 289q10 43 16 82.5t11 92.5h-70q0 8 2.5 19t5.5 18q34 -1 71.5 -1.5t71.5 -0.5q35 0 72 0.5t72 1.5q0 -7 -2.5 -18t-5.5 -19h-70q-14 -45 -25 -86t-22 -89l-55 -255q-23 -109 9 -156t117 -47q86 0 141.5 50.5t74.5 137.5
l58 270q5 28 9 53t7.5 54t5.5 68h-81q0 8 2.5 19t5.5 18q37 -1 69 -1.5t51 -0.5q17 0 43.5 0.5t61.5 1.5q0 -7 -2.5 -18t-5.5 -19h-67q-14 -37 -23 -65.5t-16 -53.5t-13 -56l-61 -285q-22 -103 -96 -161.5t-185 -58.5z" />
    <glyph glyph-name="V" unicode="V" horiz-adv-x="655" 
d="M758 702q0 -7 -2.5 -18t-5.5 -19h-57q-31 -45 -58 -89t-50 -86l-168 -309q-19 -36 -47.5 -90.5t-49.5 -110.5q-10 -1 -23.5 -1.5t-26.5 0t-22 1.5l109 186l176 324q23 42 41.5 82.5t32.5 92.5h-85q0 7 2.5 18.5t5.5 18.5q41 -1 75 -1.5t51 -0.5q22 0 44 0.5t58 1.5z
M134 665h-49q0 8 2.5 19t5.5 18q23 -1 41.5 -1.5t37.5 -0.5h45q41 0 77.5 0.5t70.5 1.5q0 -7 -2.5 -18t-5.5 -19h-67q-1 -45 3.5 -87t11.5 -88l52 -324l-109 -186q2 34 -2.5 72.5t-11 76.5t-12.5 71l-49 290q-7 49 -15.5 88.5t-23.5 86.5z" />
    <glyph glyph-name="W" unicode="W" horiz-adv-x="1034" 
d="M136 665h-46q0 8 2.5 19t5.5 18q24 -1 42 -1.5t38 -0.5h47q40 0 76 0.5t71 1.5q0 -7 -2.5 -18t-5.5 -19h-69q-1 -49 2.5 -90t10.5 -85l47 -308l-117 -202q2 33 -1 72t-8 77.5t-10 70.5l-44 290q-7 43 -15.5 85.5t-23.5 89.5zM1140 702q0 -6 -1.5 -17t-6.5 -20h-58
q-22 -31 -40 -59.5t-34.5 -56.5t-33.5 -59l-168 -309q-21 -40 -48.5 -93.5t-47.5 -107.5q-10 -1 -23 -1.5t-25.5 0t-23.5 1.5l117 202l166 308q19 36 38.5 77.5t34.5 97.5h-85q0 7 2.5 18.5t5.5 18.5q42 -1 77 -1.5t55 -0.5q19 0 41 0.5t58 1.5zM535 665h-52q0 8 2 19t6 18
q23 -1 42 -1.5t39 -0.5h46q39 0 75 0.5t71 1.5q0 -6 -2 -16.5t-6 -20.5h-69q-1 -44 3 -87.5t11 -87.5l46 -308l-117 -202q1 53 -4.5 104t-15.5 116l-43 290q-4 36 -8.5 64t-9.5 55t-14 56zM622 561l-215 -380q-13 -22 -31 -56t-35.5 -71.5t-30.5 -73.5q-10 -1 -23.5 -1.5
t-26 0t-22.5 1.5l117 202l214 379h53z" />
    <glyph glyph-name="X" unicode="X" horiz-adv-x="698" 
d="M639 35q0 -8 -2.5 -18.5t-5.5 -18.5q-23 1 -42 1.5t-39 0.5h-49h-79.5t-70.5 -2q0 8 2.5 19t5.5 18h68q-11 47 -25 89.5t-33 86.5l-121 279q-20 48 -41 93t-44 82h-49q0 8 2.5 19t5.5 18q23 -1 41.5 -1.5t38.5 -0.5h48q42 0 79.5 0.5t71.5 1.5q0 -7 -2.5 -18t-5.5 -19
h-69q9 -46 25.5 -88.5t35.5 -86.5l121 -279q21 -50 41 -93t43 -83h49zM353 340l134 150q34 38 70 82t64 93h-77q0 8 2.5 18.5t5.5 18.5q40 -1 76 -1.5t53 -0.5q18 0 39 0.5t58 1.5q0 -8 -2.5 -18.5t-5.5 -18.5h-55q-31 -30 -59.5 -59t-55.5 -57.5t-54 -58.5l-134 -150h-59z
M394 365l-135 -155q-35 -41 -68.5 -83t-61.5 -92h80q-1 -8 -3 -18t-5 -19q-40 2 -79 2h-56h-39t-57 -2q0 9 2.5 19t5.5 18h58q36 36 63.5 65t51.5 55.5t48 54.5l135 155h60z" />
    <glyph glyph-name="Y" unicode="Y" horiz-adv-x="648" 
d="M133 -2q0 8 2.5 19t5.5 18h70q14 42 25 83t17 68l3 13q16 68 12 137.5t-21.5 133t-43 114.5t-53.5 81h162q1 -18 12 -43.5t24.5 -62t24.5 -87.5t13 -120q20 45 47 89.5t55.5 84t53.5 68.5q23 28 33 44.5t15 26.5h89q-63 -54 -113 -115t-87 -123t-60 -117.5t-33 -98.5
l-3 -13q-9 -39 -15 -79.5t-10 -83.5h70q0 -7 -2.5 -18t-5.5 -19q-34 2 -71.5 2h-71.5h-71.5t-72.5 -2zM91 665q0 8 2.5 19t5.5 18q34 -1 65.5 -1.5t62.5 -0.5q20 0 62 0.5t85 1.5q0 -7 -2.5 -18t-5.5 -19h-275zM510 665q0 8 2.5 19t5.5 18q41 -1 73.5 -1.5t51.5 -0.5
q20 0 42 0.5t57 1.5q0 -7 -2.5 -18t-5.5 -19h-224z" />
    <glyph glyph-name="Z" unicode="Z" horiz-adv-x="640" 
d="M166 700h517q0 -13 -2 -24.5t-6 -25.5l-155 10h-186q-40 0 -74.5 -13t-60.5 -46.5t-43 -94.5q-16 -3 -32 0zM545 0h-555q0 12 1.5 24.5t4.5 25.5l161 -10h221q49 0 83.5 17.5t56.5 50.5t35 82q17 3 32 0zM520 660l155 -10q-24 -13 -48 -36t-44 -48t-37 -46l-281 -371
q-32 -39 -56.5 -67.5t-51.5 -41.5l-161 10q21 9 47 31.5t50.5 49.5t41.5 49l279 367q36 46 60 73t46 40z" />
    <glyph glyph-name="bracketleft" unicode="[" horiz-adv-x="329" 
d="M162 45l115 545q9 43 20.5 85t27.5 90h102q2 7 4.5 17t3.5 20q-28 -1 -59 -1.5t-71.5 -0.5h-100.5q1 -23 -3.5 -59t-10.5 -72.5t-12 -61.5l-123 -579q-6 -28 -14.5 -63.5t-19 -70t-22.5 -59.5h100.5t71 -0.5t58.5 -1.5q7 19 7 37h-102q5 50 12 91t16 84z" />
    <glyph glyph-name="backslash" unicode="\" horiz-adv-x="384" 
d="M137 730q25 3 50 0l94 -850q-25 -3 -50 0z" />
    <glyph glyph-name="bracketright" unicode="]" horiz-adv-x="329" 
d="M206 590l-116 -545q-8 -37 -20 -83.5t-27 -91.5h-102q-3 -7 -5.5 -18t-2.5 -19q29 1 59 1.5t71.5 0.5h99.5q0 24 4 59.5t10.5 72t11.5 61.5l124 579q6 28 14.5 63.5t19.5 70t22 59.5h-99.5t-71.5 0.5t-58 1.5q-4 -7 -6.5 -18t-2.5 -19h102q-4 -47 -10.5 -89.5
t-16.5 -85.5z" />
    <glyph glyph-name="asciicircum" unicode="^" horiz-adv-x="620" 
d="M452 838l155 -264q-10 -10 -20.5 -18t-21.5 -14l-140 244l-226 -244q-22 12 -36 32l249 264q20 4 40 0z" />
    <glyph glyph-name="underscore" unicode="_" horiz-adv-x="568" 
d="M329 -120h-480q0 13 3 25t7 25h480q0 -13 -2.5 -25t-7.5 -25z" />
    <glyph glyph-name="grave" unicode="`" horiz-adv-x="171" 
d="M78 696h132q-5 -41 -2.5 -84t18.5 -92q-16 -3 -32 0q-12 31 -35 56.5t-45.5 54t-35.5 65.5z" />
    <glyph glyph-name="a" unicode="a" horiz-adv-x="565" 
d="M397 -15q-47 0 -64 32t-7 78l15 69l40 84l7 134l98 66q16 3 32 0q-14 -40 -27.5 -91.5t-22.5 -92.5l-35 -164q-5 -25 -3.5 -40.5t16.5 -15.5q14 0 30.5 14.5t38.5 47.5q9 -4 16 -8.5t14 -11.5q-25 -45 -64.5 -73t-83.5 -28zM162 -15q-61 0 -94.5 42.5t-33.5 120.5
q0 58 19 114t54.5 101.5t87 72.5t117.5 27q64 0 106.5 -27t54.5 -73l-64 -43q0 -59 -18.5 -118t-52.5 -108.5t-78.5 -79t-97.5 -29.5zM214 51q33 0 62 25.5t50.5 66.5t33.5 88.5t12 90.5q0 46 -13 73.5t-46 27.5t-63 -27t-52.5 -69.5t-35.5 -90t-13 -88.5q0 -49 17 -73
t48 -24z" />
    <glyph glyph-name="b" unicode="b" horiz-adv-x="537" 
d="M212 -15q-74 0 -112 30t-46.5 81.5t4.5 114.5l66 305q8 36 13 71t8 76h-55q0 8 2.5 19t5.5 18q44 0 91.5 3t96.5 11q-11 -25 -22 -61t-20.5 -73t-15.5 -64l-40 -196h-20q37 72 87.5 107.5t111.5 35.5q65 0 100.5 -42.5t35.5 -116.5q0 -65 -21.5 -122.5t-60.5 -102
t-92.5 -69.5t-116.5 -25zM226 28q36 0 65.5 25.5t51 67t33.5 87.5t12 86q0 51 -17 79t-51 28t-64 -27t-53 -70t-35.5 -90.5t-12.5 -87.5q0 -49 19.5 -73.5t51.5 -24.5z" />
    <glyph glyph-name="c" unicode="c" horiz-adv-x="465" 
d="M204 -15q-76 0 -122 48.5t-46 129.5q0 61 21 115t59 96t89.5 66t112.5 24q43 0 76.5 -11t57.5 -30l-31 -143q-16 -3 -32 0q0 68 -17 106t-59 38q-39 0 -69 -26.5t-51.5 -68t-32 -89.5t-10.5 -90q0 -55 22.5 -81t62.5 -26q29 0 66.5 19t76.5 74q9 -4 16 -8.5t14 -11.5
q-42 -70 -94 -100.5t-110 -30.5z" />
    <glyph glyph-name="d" unicode="d" horiz-adv-x="574" 
d="M407 -15q-47 0 -63 32t-6 78l12 58l39 87l-5 77l42 199q9 37 14.5 74t6.5 73h-55q0 7 2.5 18.5t5.5 18.5q45 0 92.5 3t95.5 11q-11 -25 -22 -61.5t-20 -73t-15 -63.5l-88 -416q-5 -25 -3 -40.5t17 -15.5q14 0 30.5 14.5t38.5 47.5q8 -4 15.5 -8.5t14.5 -11.5
q-26 -45 -65 -73t-84 -28zM172 -15q-65 0 -101.5 42.5t-36.5 116.5q0 60 18 116.5t53.5 102.5t87 73t118.5 27q64 0 110 -26.5t57 -73.5l-59 -43q0 -59 -18.5 -118t-53 -108.5t-79 -79t-96.5 -29.5zM220 51q35 0 64.5 25.5t51.5 66.5t34 87.5t12 86.5q0 51 -17 78.5
t-51 27.5q-35 0 -65 -27t-52.5 -69.5t-35 -90t-12.5 -87.5q0 -49 19 -73.5t52 -24.5z" />
    <glyph glyph-name="e" unicode="e" horiz-adv-x="481" 
d="M236 43q29 0 72.5 19t91.5 74q9 -4 16 -8.5t14 -11.5q-50 -70 -109 -100.5t-117 -30.5q-79 0 -124 46t-45 126q0 64 20.5 119t59 97.5t92 66t118.5 23.5q54 0 84.5 -12.5t44 -32t13.5 -42.5q0 -41 -28 -73t-77 -55.5t-110 -38t-126 -20.5l-3 37q67 4 120 23.5t84.5 51
t31.5 67.5q0 26 -13 41t-39 15q-38 0 -68.5 -27.5t-52 -70.5t-32.5 -90.5t-11 -87.5q0 -56 24 -80.5t69 -24.5z" />
    <glyph glyph-name="f" unicode="f" horiz-adv-x="305" 
d="M304 720q56 0 74.5 -33.5t3.5 -88.5h-94q12 41 8.5 62t-22.5 21q-24 0 -39 -35t-15 -98q0 -31 3.5 -56t7.5 -44v-42l-58 -298q-7 -41 -18 -84t-29 -83t-46.5 -74.5t-71.5 -58.5t-105 -33q-3 8 -5.5 17t-2.5 21q63 18 102.5 73t59.5 161l42 221q7 34 14.5 82t11.5 98
q7 99 29.5 159t60 86.5t89.5 26.5zM328 406h-277q0 9 2.5 21t6.5 21h277q-1 -8 -3.5 -20.5t-5.5 -21.5z" />
    <glyph glyph-name="g" unicode="g" horiz-adv-x="544" 
d="M174 5q-65 0 -101.5 38.5t-36.5 111.5q0 59 18 114t53 99t85.5 69.5t116.5 25.5q67 0 107 -24.5t61 -61.5l-56 -58q0 -58 -18 -114t-51.5 -101t-79 -72t-98.5 -27zM221 66q37 0 67 24t51.5 61.5t33 81.5t11.5 84q0 51 -18.5 78.5t-53.5 27.5q-36 0 -65.5 -25.5t-51 -67
t-33 -87t-11.5 -85.5q0 -46 19 -69t51 -23zM108 -225q-66 0 -107 26t-41 77q0 31 15 55t38.5 42.5t50.5 32t50 22.5l25 -18q-43 -21 -66.5 -54t-23.5 -73q0 -32 17.5 -51t58.5 -19q52 0 93.5 29.5t70.5 83t44 123.5l16 71l50 123v137l98 66q16 3 32 0q-14 -38 -28 -90.5
t-22 -93.5l-38 -183q-21 -101 -70.5 -169t-117 -102.5t-145.5 -34.5z" />
    <glyph glyph-name="h" unicode="h" horiz-adv-x="566" 
d="M22 -5q9 32 15 58.5t11 52.5l87 410q8 37 13.5 74t7.5 73h-55q0 7 2.5 18.5t5.5 18.5q44 0 92 3t95 11q-10 -24 -21 -60.5t-20 -73.5t-15 -64l-87 -411q-6 -26 -9 -52t-5 -53q-31 0 -58.5 -1t-58.5 -4zM396 -15q-47 0 -64.5 32t-5.5 78l59 224q9 35 -0.5 54t-36.5 19
q-32 0 -62 -24t-55.5 -64.5t-45.5 -92t-32 -106.5h-28q29 135 73.5 213t97 111.5t106.5 33.5q60 0 83 -35t5 -104l-58 -224q-7 -25 -4.5 -40.5t17.5 -15.5q14 0 30.5 14.5t38.5 47.5q9 -4 16 -8.5t14 -11.5q-25 -45 -64.5 -73t-83.5 -28z" />
    <glyph glyph-name="i" unicode="i" horiz-adv-x="302" 
d="M130 -15q-47 0 -63.5 32t-6.5 78l36 169q8 35 13 69.5t8 77.5h-55q0 8 2.5 19t5.5 18q47 0 93 3t95 11q-11 -24 -22 -60.5t-20 -73t-15 -64.5l-35 -164q-6 -25 -4 -40.5t17 -15.5q14 0 30.5 14.5t38.5 47.5q9 -4 16 -8.5t14 -11.5q-25 -45 -64.5 -73t-83.5 -28zM235 681
l53 -45l-15 -70l-67 -20l-53 45l15 71z" />
    <glyph glyph-name="j" unicode="j" horiz-adv-x="270" 
d="M-95 -225q-4 7 -6.5 17t-2.5 21q63 17 99 74t58 160l46 217q8 37 13.5 73.5t7.5 73.5h-54q0 8 2.5 19t5.5 18q46 0 92.5 3t94.5 11q-11 -25 -22 -61t-20 -73t-15 -64l-34 -156q-12 -56 -27.5 -110.5t-42.5 -100.5t-73.5 -78t-121.5 -44zM238 681l53 -45l-15 -70l-67 -20
l-53 45l15 71z" />
    <glyph glyph-name="k" unicode="k" horiz-adv-x="541" 
d="M22 -5q6 23 10 38.5t7.5 32t8.5 40.5l87 410q8 37 13.5 74t7.5 73h-55q0 7 2.5 18.5t5.5 18.5q44 0 92 3t95 11q-10 -25 -21 -61.5t-20.5 -73t-14.5 -63.5l-87 -411q-6 -26 -9 -52t-5 -53q-31 0 -58.5 -1t-58.5 -4zM298 55l-6 47q-6 41 -34 59.5t-67 18.5h-26l8 31h100
q57 0 86 -22.5t35 -64.5l7 -45q3 -14 8 -24.5t19 -10.5q13 0 29 14.5t38 47.5q9 -4 16 -8.5t14 -11.5q-26 -48 -60 -74.5t-80 -26.5q-44 0 -63 20t-24 50zM177 199l1 18q70 0 119.5 20t76 51.5t26.5 64.5q0 23 -12.5 34.5t-34.5 11.5q-29 0 -65.5 -23.5t-66.5 -66t-42 -98.5
h-29q20 86 61.5 141.5t93 83t97.5 27.5q41 0 69 -20t28 -62q0 -40 -27.5 -77.5t-80.5 -65.5t-131 -39h-83z" />
    <glyph glyph-name="l" unicode="l" horiz-adv-x="286" 
d="M116 -15q-48 0 -64 32t-6 78l88 421q8 37 14 74t7 73h-55q0 7 2.5 18.5t5.5 18.5q45 0 92.5 3t95.5 11q-11 -25 -22 -61.5t-20 -73t-15 -63.5l-88 -416q-5 -25 -3 -40.5t17 -15.5q14 0 30.5 14.5t38.5 47.5q8 -4 15.5 -8.5t14.5 -11.5q-26 -45 -65 -73t-83 -28z" />
    <glyph glyph-name="m" unicode="m" horiz-adv-x="849" 
d="M679 -15q-48 0 -65.5 32t-4.5 78l58 224q9 35 0 54t-35 19q-30 0 -58.5 -24t-53.5 -64.5t-44 -92t-31 -106.5h-28q29 135 72 213t94 111.5t103 33.5q59 0 81.5 -35t4.5 -104l-58 -224q-6 -25 -3.5 -40.5t17.5 -15.5q14 0 30.5 14.5t38.5 47.5q9 -4 16 -8.5t14 -11.5
q-26 -45 -65 -73t-83 -28zM39 -5q9 32 15 58.5t12 52.5l33 158q8 35 13 69.5t8 77.5h-55q0 8 2.5 19t5.5 18q47 0 88.5 3t90.5 11q-12 -27 -20 -53.5t-13 -55.5t-9 -65l-40 -183q-5 -26 -8.5 -52t-5.5 -53q-30 0 -58 -1t-59 -4zM314 -5q9 32 15 58.5t12 52.5l51 213
q8 35 -0.5 54t-35.5 19q-30 0 -58.5 -24t-53 -64.5t-43.5 -92t-31 -106.5h-28q29 135 72 213t94 111.5t103 33.5q59 0 80.5 -35t5.5 -104l-52 -219q-6 -26 -10 -52t-6 -53q-30 0 -57.5 -1t-57.5 -4z" />
    <glyph glyph-name="n" unicode="n" horiz-adv-x="583" 
d="M39 -5q9 32 15 58.5t12 52.5l33 158q8 35 13 69.5t8 77.5h-55q0 8 2.5 19t5.5 18q47 0 88.5 3t90.5 11q-12 -27 -20 -53.5t-13 -55.5t-9 -65l-40 -183q-5 -26 -8.5 -52t-5.5 -53q-30 0 -58 -1t-59 -4zM413 -15q-47 0 -64.5 32t-5.5 78l59 224q9 35 -0.5 54t-36.5 19
q-31 0 -61.5 -24t-56 -64.5t-45.5 -92t-32 -106.5h-28q29 135 73.5 213t97 111.5t106.5 33.5q60 0 83 -35t5 -104l-58 -224q-7 -25 -4 -40.5t17 -15.5t30.5 14.5t38.5 47.5q9 -4 16 -8.5t14 -11.5q-25 -45 -64.5 -73t-83.5 -28z" />
    <glyph glyph-name="o" unicode="o" horiz-adv-x="537" 
d="M318 424q-40 0 -71.5 -27.5t-53 -70.5t-32.5 -91t-11 -90q0 -57 16.5 -88.5t52.5 -31.5l2 -40q-88 0 -136.5 48.5t-48.5 129.5q0 61 20.5 115t58.5 96t89.5 66t111.5 24zM219 25q41 0 72.5 27.5t52.5 70t32 91t11 89.5q0 58 -16.5 89.5t-52.5 31.5l-2 40
q88 0 136.5 -48.5t48.5 -130.5q0 -60 -20.5 -114.5t-58.5 -96t-89.5 -65.5t-111.5 -24z" />
    <glyph glyph-name="p" unicode="p" horiz-adv-x="559" 
d="M-7 -215q9 32 15 58.5t11 52.5l78 368q8 35 13 69.5t8 77.5h-55q0 8 2.5 19t5.5 18q47 0 88.5 3t90.5 11q-12 -27 -20 -53.5t-13 -55.5t-9 -65l-34 -89l-4 -88l-46 -216q-6 -26 -9 -52t-5 -53q-31 0 -58.5 -1t-58.5 -4zM387 463q65 0 101.5 -42t36.5 -117q0 -59 -18 -116
t-53.5 -102.5t-87 -73t-118.5 -27.5q-64 0 -109.5 27t-57.5 74l58 43q0 59 19 118t53 108t79 78.5t97 29.5zM339 398q-35 0 -64.5 -26t-51.5 -67t-34 -87t-12 -87q0 -50 17 -78t51 -28t64.5 27t53 70t35 90.5t12.5 87.5q0 49 -19.5 73.5t-51.5 24.5z" />
    <glyph glyph-name="q" unicode="q" horiz-adv-x="542" 
d="M269 -215q8 32 14 58.5t12 52.5l50 236l39 116l14 134l97 66q16 3 32 0q-13 -38 -27 -90.5t-23 -93.5l-78 -369q-5 -26 -8.5 -52t-5.5 -53q-30 0 -58 -1t-58 -4zM172 -15q-65 0 -101.5 42.5t-36.5 116.5q0 60 18 116.5t53.5 102.5t87 73t118.5 27q64 0 110 -26.5
t57 -73.5l-59 -43q0 -59 -18.5 -118t-53 -108.5t-79 -79t-96.5 -29.5zM220 51q35 0 64.5 25.5t51.5 66.5t34 87.5t12 86.5q0 51 -17 78.5t-51 27.5q-35 0 -65 -27t-52.5 -69.5t-35 -90t-12.5 -87.5q0 -49 19 -73.5t52 -24.5z" />
    <glyph glyph-name="r" unicode="r" horiz-adv-x="449" 
d="M39 -5q9 32 15 58.5t12 52.5l33 158q8 35 13 69.5t8 77.5h-55q0 8 2.5 19t5.5 18q47 0 88.5 3t90.5 11q-12 -27 -20 -53.5t-13 -55.5t-9 -65l-40 -183q-5 -26 -8.5 -52t-5.5 -53q-30 0 -58 -1t-59 -4zM350 323q8 36 3.5 52t-21.5 16q-21 0 -44.5 -24t-46 -64t-41 -91.5
t-30.5 -106.5h-28q29 132 69 210.5t87 113t94 34.5q36 0 54.5 -20t20.5 -52t-14 -68h-103z" />
    <glyph glyph-name="s" unicode="s" horiz-adv-x="431" 
d="M175 -15q-41 0 -79.5 8t-78.5 27l30 137q16 3 32 0q0 -61 24 -96.5t78 -35.5q41 0 66 19t25 53q0 27 -20 44t-49 31.5t-58.5 32t-49.5 44.5t-20 70q0 48 25 80t67 48t94 16q41 0 77 -9.5t64 -25.5l-28 -126q-16 -3 -32 0q3 62 -21 91.5t-72 29.5q-37 0 -57 -18.5
t-20 -44.5q0 -29 20.5 -47t50.5 -33t60 -32t50.5 -43.5t20.5 -68.5q0 -50 -27.5 -84t-72.5 -50.5t-99 -16.5z" />
    <glyph glyph-name="t" unicode="t" horiz-adv-x="346" 
d="M54 406q1 9 3.5 21t6.5 21h290q-1 -7 -3.5 -20t-6.5 -22h-290zM273 126q8 -4 15.5 -8.5t14.5 -11.5q-34 -60 -78 -90.5t-92 -30.5q-53 0 -69 32t-6 78l46 215q6 28 13 63t12.5 71t7.5 67q21 6 41 17.5t37 27t26 32.5q16 3 32 0q-20 -79 -35 -145t-30 -134l-44 -209
q-4 -23 1 -37t19 -14q12 0 33.5 15t55.5 62z" />
    <glyph glyph-name="u" unicode="u" horiz-adv-x="577" 
d="M147 -15q-58 0 -79 36t-6 104l32 139q8 35 13 69.5t8 77.5h-55q0 8 2.5 19t5.5 18q47 0 93.5 3t94.5 11q-11 -24 -22 -60.5t-19.5 -73t-15.5 -64.5l-32 -135q-7 -34 1 -53.5t34 -19.5q30 0 58.5 24t53 64.5t44 92t31.5 106.5h28q-29 -134 -72.5 -212.5t-94.5 -112
t-103 -33.5zM406 -15q-47 0 -63.5 32t-6.5 78l53 248q5 27 9 53t5 52q30 0 58 1t58 4q-8 -31 -14 -57.5t-12 -53.5l-51 -242q-5 -25 -3 -40.5t17 -15.5q14 0 30 14.5t39 47.5q8 -4 15.5 -8.5t14.5 -11.5q-26 -45 -65.5 -73t-83.5 -28z" />
    <glyph glyph-name="v" unicode="v" horiz-adv-x="500" 
d="M467 448q6 -82 -8.5 -164.5t-49 -150t-90 -108t-130.5 -40.5q-34 0 -73 12.5t-72 46.5l47 220q8 37 13.5 74.5t7.5 72.5h-51q0 7 2.5 18.5t5.5 18.5q47 0 91.5 3t92.5 11q-11 -25 -22 -61.5t-20 -73t-15 -63.5l-28 -130q-10 -45 3 -70t49 -25q51 0 89.5 29.5t60.5 86.5
t22 139q0 36 -7.5 64.5t-22.5 52.5h-43q0 7 2.5 19.5t5.5 19.5q35 -1 71.5 -1.5t68.5 -0.5z" />
    <glyph glyph-name="w" unicode="w" horiz-adv-x="759" 
d="M386 343h28q-29 -134 -70.5 -212.5t-91.5 -112t-102 -33.5q-57 0 -81.5 36t-9.5 104l32 139q8 35 13 69.5t8 77.5h-55q0 8 2.5 19t5.5 18q47 0 93.5 3t94.5 11q-11 -24 -22 -60.5t-19.5 -73t-15.5 -64.5l-32 -135q-7 -34 1 -53.5t34 -19.5q30 0 58.5 24t53 64.5t44 92
t31.5 106.5zM733 448q6 -66 -5.5 -132t-37.5 -125.5t-64.5 -106t-86.5 -73t-104 -26.5q-64 0 -86.5 37t-8.5 105l46 216q5 27 9 53t5 52q30 0 58 1t58 4q-8 -31 -14 -57.5t-12 -53.5l-45 -213q-7 -33 5.5 -53t44.5 -20q43 0 79 31t58.5 85t22.5 124q0 33 -6.5 61.5
t-22.5 53.5h-42q0 7 2.5 19.5t5.5 19.5q35 -1 72.5 -1.5t68.5 -0.5z" />
    <glyph glyph-name="x" unicode="x" horiz-adv-x="542" 
d="M321 -15q-57 0 -84 42t-25 122q26 65 51 122t53 100t62.5 67.5t79.5 24.5q32 0 56 -10t43 -25l-37 -115q-16 -3 -32 0q3 59 -4.5 85t-29.5 26q-26 0 -50.5 -27t-44.5 -70.5t-32 -95.5t-12 -102q0 -48 12 -66.5t31 -18.5t41 16t49 56q9 -4 16 -8.5t14 -11.5
q-25 -47 -62.5 -79t-94.5 -32zM220 463q58 0 85 -41.5t24 -122.5q-25 -65 -50 -121.5t-53.5 -100t-63 -68t-79.5 -24.5q-31 0 -55.5 10.5t-42.5 25.5l36 115q16 3 32 0q-2 -59 5.5 -85t28.5 -26q26 0 50.5 26.5t45 70.5t32 95.5t11.5 101.5q0 49 -11.5 67t-31.5 18
q-18 0 -40 -15t-49 -56q-9 5 -15.5 9t-14.5 11q26 47 62.5 78.5t93.5 31.5z" />
    <glyph glyph-name="y" unicode="y" horiz-adv-x="541" 
d="M388 343h29q-22 -101 -51.5 -166.5t-64 -103t-71.5 -53t-74 -15.5q-61 0 -83 36t-7 104l27 119q9 35 14 69.5t8 77.5h-55q0 8 2.5 19t5.5 18q47 0 93 3t95 11q-11 -24 -22 -60.5t-20 -73.5t-16 -64l-27 -115q-8 -34 1 -53.5t36 -19.5q29 0 56 21t51 58t43 85t30 103z
M403 448q30 0 58 1t58 4q-8 -31 -14.5 -57.5t-11.5 -53.5l-54 -261q-21 -101 -70.5 -169t-117.5 -102.5t-145 -34.5q-66 0 -107 26t-41 77q0 31 15 55t38.5 42.5t50.5 32t50 22.5l25 -18q-43 -21 -66.5 -54t-23.5 -73q0 -32 17.5 -51t58.5 -19q52 0 93.5 29.5t71 83
t44.5 123.5l25 120l-1 20l32 152q6 27 10 53t5 52z" />
    <glyph glyph-name="z" unicode="z" horiz-adv-x="479" 
d="M-25 0q52 55 104 103t102 92t97.5 88t91.5 91l90 31q-50 -56 -101 -104t-100.5 -92t-98 -87.5t-94.5 -89.5zM304 -29q-34 0 -58 7.5t-45 17.5t-43.5 17.5t-54.5 7.5q-31 0 -51.5 -10t-45.5 -35q-17 9 -31 24l166 118q46 -2 72 -17t42.5 -33t32 -31t40.5 -13
q26 0 37.5 15.5t11.5 35.5q0 24 -13 42t-28 31q11 12 30 20q23 -18 39.5 -41.5t15.5 -58.5q-1 -44 -34 -70.5t-83 -26.5zM72 286l34 162h361q0 -22 -7 -43l-88 -45h-179q-26 0 -41.5 -7t-25.5 -23t-22 -44q-17 -3 -32 0z" />
    <glyph glyph-name="braceleft" unicode="{" horiz-adv-x="345" 
d="M243 -167q-96 0 -139 41.5t-43 110.5q0 48 6.5 77.5t16 48.5t19 35t16 36t6.5 52q0 37 -24 51.5t-63 14.5h-18q0 7 2.5 20t6.5 20h18q30 0 55.5 8.5t43 29.5t24.5 56q6 25 6 49t0.5 50.5t7.5 57.5q20 96 84.5 153.5t180.5 57.5q0 -7 -2.5 -18t-5.5 -19q-47 0 -76 -17.5
t-44 -47t-23 -64.5q-6 -33 -7 -60.5t-1.5 -53t-6.5 -53.5q-12 -57 -42 -95.5t-89 -53.5q39 -11 56 -35.5t17 -61.5q0 -49 -7 -76t-17 -43.5l-20 -33t-17 -43t-7 -74.5q0 -35 20 -59t74 -24q-1 -6 -3 -17.5t-5 -19.5z" />
    <glyph glyph-name="bar" unicode="|" horiz-adv-x="237" 
d="M6 -200l212 1000q24 3 45 0l-212 -1000q-24 -3 -45 0z" />
    <glyph glyph-name="braceright" unicode="}" horiz-adv-x="345" 
d="M142 802q95 0 138 -41.5t43 -110.5q0 -48 -6.5 -77.5t-16 -48.5t-19 -35t-16 -36t-6.5 -52q0 -36 23.5 -51t63.5 -15h18q0 -7 -3 -19.5t-6 -20.5h-18q-104 0 -123 -94q-8 -36 -6 -74.5t-8 -85.5q-20 -94 -85 -151t-179 -57q0 8 2.5 19t5.5 18q48 0 76 18t43 47t23 63
q7 36 8 63t1.5 52.5t6.5 53.5q12 56 42 94.5t88 53.5q-41 11 -57 37t-16 60q0 49 7 76t17 43.5t19.5 33t16.5 43t7 74.5q0 35 -19.5 59t-72.5 24q0 8 2.5 19t5.5 18z" />
    <glyph glyph-name="asciitilde" unicode="~" horiz-adv-x="620" 
d="M86 279q16 88 60.5 132t102.5 44q34 0 56 -12.5t37 -31.5t28.5 -38t30 -31.5t41.5 -12.5q47 0 72 38t34 88q25 4 50 0q-16 -88 -60.5 -132t-102.5 -44q-34 0 -55.5 12.5t-37 31.5t-29 38t-30 31.5t-41.5 12.5q-46 0 -71.5 -38t-34.5 -88q-25 -4 -50 0z" />
    <glyph glyph-name="uni00A0" unicode="&#xa0;" horiz-adv-x="242" 
 />
    <glyph glyph-name="exclamdown" unicode="&#xa1;" horiz-adv-x="271" 
d="M43 -209l-57 50l16 75l134 394q9 0 18 -2t17 -5l-38 -415l-16 -75zM166 375l-55 46l16 73l69 20l55 -47l-16 -72z" />
    <glyph glyph-name="cent" unicode="&#xa2;" horiz-adv-x="495" 
d="M94 -150l291 748q11 -1 22.5 -2.5t21.5 -5.5l-291 -748q-11 1 -22 2.5t-22 5.5zM219 -15q-77 0 -123 48.5t-46 129.5q0 61 21 115t59 96t90 66t113 24q42 0 76 -11t58 -30l-31 -143q-16 -3 -32 0q-1 68 -18 106t-58 38q-39 0 -69.5 -26.5t-51.5 -68t-32 -89.5t-11 -90
q0 -55 23 -81t62 -26q30 0 67.5 19t76.5 74q9 -4 16 -8.5t14 -11.5q-42 -70 -94.5 -100.5t-109.5 -30.5z" />
    <glyph glyph-name="sterling" unicode="&#xa3;" horiz-adv-x="661" 
d="M88 -15q-42 0 -64.5 20.5t-22.5 48.5q0 41 31 64.5t82 23.5q35 0 60 -9t45 -21.5t39.5 -25.5t41.5 -22t53 -9q56 0 93.5 32.5t39.5 93.5h130q-9 -92 -64.5 -144t-151.5 -52q-43 0 -76.5 12t-61 29t-52 34.5t-49.5 29.5t-54 12q-27 0 -43.5 -11.5t-16.5 -32.5
q0 -14 11 -23.5t35 -9.5q41 0 73.5 25.5t52 69.5t19.5 100q0 39 -9.5 69.5t-22.5 59.5t-22.5 60.5t-9.5 69.5q0 71 35 123.5t97.5 82.5t145.5 30q93 0 140.5 -40.5t47.5 -102.5q0 -30 -9.5 -59.5t-16.5 -43.5h-129q11 24 20 57t9 62q0 41 -18 64t-53 23q-42 0 -75.5 -31
t-52 -88.5t-15.5 -134.5q2 -39 1 -86t-7 -96.5t-19.5 -94.5t-37.5 -81t-60.5 -57t-88.5 -21zM468 296h-380q1 12 3.5 23.5t7.5 26.5h380q-1 -27 -11 -50z" />
    <glyph glyph-name="currency" unicode="&#xa4;" horiz-adv-x="639" 
d="M349 148q-59 0 -107.5 28.5t-77 77t-28.5 107.5t28.5 107.5t77 77t107.5 28.5t107 -28.5t77 -76.5t29 -108q0 -59 -28.5 -107.5t-77 -77t-107.5 -28.5zM145 125q-21 14 -35 35l86 86l35 -35zM349 198q45 0 82 22t59 59t22 82t-22 82t-59 59t-82 22t-82 -22t-59 -59
t-22 -82t22 -82t59 -59t82 -22zM555 125l-87 87l35 35l87 -87q-14 -21 -35 -35zM200 480l-90 90q14 21 35 35l90 -90zM499 479l-35 35l91 91q21 -14 35 -35z" />
    <glyph glyph-name="yen" unicode="&#xa5;" horiz-adv-x="712" 
d="M165 -2q0 8 2.5 19t5.5 18h70q14 42 25 83t17 68l3 13q16 68 12 137.5t-21.5 133t-43 114.5t-53.5 81h162q1 -18 12 -43.5t24.5 -62t24.5 -87.5t13 -120q20 45 47 89.5t55.5 84t53.5 68.5q23 28 33 44.5t15 26.5h89q-63 -54 -113 -115t-87 -123t-60 -117.5t-33 -98.5
l-3 -13q-9 -39 -15 -79.5t-10 -83.5h70q0 -7 -2.5 -18t-5.5 -19q-34 2 -71.5 2h-71.5h-71.5t-72.5 -2zM123 665q0 8 2.5 19t5.5 18q34 -1 65.5 -1.5t62.5 -0.5q20 0 62 0.5t85 1.5q0 -7 -2.5 -18t-5.5 -19h-275zM542 665q0 8 2.5 19t5.5 18q41 -1 73.5 -1.5t51.5 -0.5
q20 0 42 0.5t57 1.5q0 -7 -2.5 -18t-5.5 -19h-224zM607 280h-480q0 13 2 25t6 25h480q0 -13 -1.5 -25t-6.5 -25zM587 150h-480q0 13 2 25t6 25h480q0 -13 -1.5 -25t-6.5 -25z" />
    <glyph glyph-name="brokenbar" unicode="&#xa6;" horiz-adv-x="237" 
d="M6 -200l85 400q23 3 45 0l-85 -400q-24 -3 -45 0zM133 400l85 400q24 3 45 0l-85 -400q-22 -3 -45 0z" />
    <glyph glyph-name="section" unicode="&#xa7;" horiz-adv-x="559" 
d="M254 64l4 33q68 8 111 41.5t43 95.5q0 34 -19.5 56t-50.5 38.5t-65 34t-65 39t-50.5 54.5t-19.5 81q0 49 28.5 89t80.5 64.5t125 24.5q50 0 95 -9.5t76 -25.5l-35 -166q-16 -2 -32 0q11 74 -18 117.5t-89 43.5q-55 0 -91.5 -27.5t-36.5 -75.5q0 -34 20 -57t52 -39.5
t67.5 -33t67.5 -37t52 -50.5t20 -75q0 -54 -34 -97.5t-94.5 -73.5t-141.5 -45zM315 436l-4 -33q-68 -7 -111 -41t-43 -96q0 -33 19.5 -55.5t50.5 -39t65 -34t65 -39t50.5 -54.5t19.5 -81t-28 -88.5t-80.5 -65t-125.5 -24.5q-50 0 -95 9.5t-76 25.5l35 166q16 2 32 0
q-11 -74 18 -117.5t90 -43.5q54 0 90.5 27.5t36.5 75.5q0 34 -20 57t-52 39.5t-67.5 33t-67.5 37t-52 50.5t-20 75q0 54 34 97.5t95 73.5t141 45z" />
    <glyph glyph-name="dieresis" unicode="&#xa8;" horiz-adv-x="327" 
d="M160 681l53 -45l-15 -70l-67 -20l-53 45l15 71zM361 681l53 -45l-15 -70l-67 -20l-53 45l15 71z" />
    <glyph glyph-name="copyright" unicode="&#xa9;" horiz-adv-x="853" 
d="M376 -15q-93 0 -159.5 35t-102.5 97.5t-36 145.5q0 96 35.5 178.5t98.5 143.5t144.5 95.5t174.5 34.5t159.5 -35t102 -97.5t35.5 -144.5q0 -96 -35.5 -178.5t-98.5 -144t-144.5 -96t-173.5 -34.5zM386 31q80 0 150.5 31.5t124.5 86.5t85 127t31 153q0 72 -30.5 126
t-87.5 84t-138 30q-80 0 -151 -31t-125 -86t-85 -127t-31 -153q0 -72 30.5 -126t88 -84.5t138.5 -30.5zM423 160q-70 0 -109.5 37t-39.5 101q0 69 31 122.5t86 84.5t125 31q35 0 61 -7.5t47 -19.5l-24 -116q-6 -1 -11 -1t-14 1q6 61 -13 86.5t-52 25.5q-36 0 -67.5 -29
t-50.5 -76.5t-19 -103.5q0 -44 19.5 -71.5t53.5 -27.5q32 0 58.5 14t61.5 47q8 -4 12 -9t8 -11q-43 -42 -79.5 -60t-83.5 -18z" />
    <glyph glyph-name="ordfeminine" unicode="&#xaa;" horiz-adv-x="443" 
d="M347 340q-33 0 -44.5 21.5t-4.5 52.5l8 38l29 64l3 87l72 43q5 1 9.5 1.5t11.5 -1.5q-8 -23 -17 -57.5t-15 -64.5l-23 -104q-3 -16 -3 -27.5t12 -11.5q8 0 18 9t24 29q7 -3 12.5 -6.5t7.5 -6.5q-17 -30 -44 -48t-56 -18zM193 340q-44 0 -69 29t-25 80q0 53 21 100.5
t61.5 77t100.5 29.5q41 0 72.5 -15t41.5 -44l-44 -35q0 -40 -12.5 -79t-33.5 -71.5t-50 -52t-63 -19.5zM228 386q22 0 40 17t31.5 43.5t20.5 56t7 56.5q0 32 -11.5 50t-33.5 18q-23 0 -40.5 -17.5t-30.5 -45t-19.5 -58t-6.5 -55.5q0 -31 11 -48t32 -17z" />
    <glyph glyph-name="guillemotleft" unicode="&#xab;" horiz-adv-x="554" 
d="M336 397q-25 -30 -49 -58t-53 -57.5t-70 -64.5q26 -35 42 -64.5t28.5 -57.5t25.5 -58q-15 -13 -32 -19q-40 56 -86.5 103t-108.5 96q83 49 149 96t130 103q16 -6 24 -19zM536 397q-25 -30 -49 -58t-53 -57.5t-70 -64.5q26 -35 42 -64.5t28.5 -57.5t25.5 -58
q-15 -13 -32 -19q-40 56 -86.5 103t-108.5 96q83 49 149 96t130 103q16 -6 24 -19z" />
    <glyph glyph-name="logicalnot" unicode="&#xac;" horiz-adv-x="620" 
d="M110 490h482l-48 -270q-25 -4 -50 0l39 220h-432q0 25 9 50z" />
    <glyph glyph-name="registered" unicode="&#xae;" horiz-adv-x="658" 
d="M334 254q-103 0 -162 57.5t-59 148.5q0 72 26.5 134t73.5 107.5t107.5 71t129.5 25.5q70 0 119.5 -26.5t76 -73t26.5 -107.5q0 -72 -26.5 -133.5t-73.5 -107t-108 -71t-130 -25.5zM344 300q57 0 107 22t88.5 61t60 90t21.5 109q0 77 -47.5 123.5t-133.5 46.5
q-57 0 -107 -22t-88 -61.5t-59.5 -90.5t-21.5 -110q0 -76 47.5 -122t132.5 -46zM521 406q0 -4 -0.5 -7t-2.5 -7q-6 -1 -15.5 -1.5t-19.5 -0.5q-29 0 -42.5 6t-16 16.5t-1.5 22.5l5 54q2 14 -8.5 22.5t-32.5 8.5h-21l-9 -44l-6 -34t-4 -36h30q-1 -3 -1 -6t-2 -9q-16 1 -36 1
h-36h-34t-36 -1q0 9 3 15h29q6 17 11 35t8 35l23 112q3 15 6.5 32t4.5 38h-29q1 3 1.5 7.5t1.5 7.5q16 -1 35.5 -1h34.5h70q44 0 74.5 -12.5t30.5 -43.5q0 -26 -15 -44t-36.5 -28.5t-44.5 -15.5q29 -1 49 -12.5t17 -41.5l-4 -39q-1 -16 4 -21.5t15 -7.5zM388 536
q29 0 48 22.5t19 56.5q0 23 -12 32t-32 9h-11q-6 -18 -10.5 -34t-9.5 -34l-11 -52h19z" />
    <glyph glyph-name="macron" unicode="&#xaf;" horiz-adv-x="292" 
d="M358 540h-288q0 13 4.5 32t8.5 32h288q0 -13 -4 -32t-9 -32z" />
    <glyph glyph-name="degree" unicode="&#xb0;" horiz-adv-x="428" 
d="M281 390q-48 0 -86.5 22t-61 59.5t-22.5 86.5q0 50 22.5 88t61 60t86.5 22q49 0 87.5 -22t61.5 -60t23 -88q0 -49 -23 -86.5t-61.5 -59.5t-87.5 -22zM281 440q50 0 83.5 32.5t33.5 85.5q0 54 -33.5 87t-83.5 33t-83 -33t-33 -87q0 -53 33 -85.5t83 -32.5z" />
    <glyph glyph-name="plusminus" unicode="&#xb1;" horiz-adv-x="620" 
d="M583 401h-480q0 13 2 25t6 25h480q0 -13 -1.5 -25t-6.5 -25zM285 216l74 420q26 4 50 0l-74 -420q-26 -4 -50 0zM530 100h-480q0 13 2 25t6 25h480q0 -13 -1.5 -25t-6.5 -25z" />
    <glyph glyph-name="uni00B2" unicode="&#xb2;" horiz-adv-x="374" 
d="M50 350q81 56 133.5 102.5t81.5 87.5t40.5 77t11.5 68q0 41 -10.5 55.5t-27.5 14.5q-23 0 -37.5 -20t-21.5 -49.5t-7 -60.5h-96q0 50 23 84.5t62.5 52t89.5 17.5q60 0 91 -27t31 -72q0 -37 -20.5 -72.5t-54 -69t-75 -63.5t-85.5 -58zM312 333q-32 0 -58 6.5t-51.5 12.5
t-60.5 6q-23 0 -39 -5t-34 -17q-6 2 -11.5 6.5t-7.5 7.5l128 84q39 -2 62.5 -12t38 -23t26.5 -22t28 -9t23 9.5t7 21.5q0 14 -8 25t-17 18q5 7 18 12q15 -11 24 -25.5t9 -35.5q-1 -28 -21 -44t-56 -16z" />
    <glyph glyph-name="uni00B3" unicode="&#xb3;" horiz-adv-x="369" 
d="M391 483q0 -40 -23.5 -72.5t-66.5 -51t-102 -18.5q-79 0 -106 33.5t-12 92.5h92q-21 -102 33 -102q27 0 46 21.5t29 53.5t10 64q0 30 -12 45t-47 15q-22 0 -55 -6q0 7 1 14.5t5 14.5h41q45 0 70 34.5t25 85.5q0 29 -8 38.5t-25 9.5t-29.5 -9t-21.5 -29.5t-17 -55.5h-90
q9 41 32 67t58.5 38.5t77.5 12.5q56 0 88.5 -22.5t32.5 -65.5q0 -38 -26.5 -67t-78.5 -44q38 -9 58.5 -34.5t20.5 -62.5z" />
    <glyph glyph-name="acute" unicode="&#xb4;" horiz-adv-x="171" 
d="M273 696q-23 -37 -57.5 -65.5t-69 -54t-61.5 -56.5q-16 -3 -32 0q35 49 55 91.5t33 84.5h132z" />
    <glyph glyph-name="uni00B5" unicode="&#xb5;" horiz-adv-x="600" 
d="M-9 -215q9 32 15 58.5t11 52.5l81 368q8 35 13.5 69.5t7.5 77.5h-54q0 8 2.5 19t5.5 18q47 0 93 3t94 11q-10 -24 -21 -60.5t-20.5 -73t-15.5 -64.5l-30 -135l-51 -234q-6 -26 -9 -52t-5 -53q-30 0 -58 -1t-59 -4zM165 -15q-32 0 -51.5 12t-25.5 40t2 77l83 15
q-9 -42 -0.5 -62.5t34.5 -20.5q30 0 58.5 25.5t53.5 68t44.5 95.5t31.5 108h28q-21 -101 -51 -169.5t-65 -110t-71 -60t-71 -18.5zM412 -15q-47 0 -63.5 32t-6.5 78l53 248q5 27 9 53t5 52q30 0 58 1t59 4q-9 -31 -15 -57.5t-12 -53.5l-51 -242q-5 -25 -3 -40.5t17 -15.5
q14 0 30.5 14.5t38.5 47.5q8 -4 15.5 -8.5t14.5 -11.5q-26 -45 -65.5 -73t-83.5 -28z" />
    <glyph glyph-name="paragraph" unicode="&#xb6;" horiz-adv-x="736" 
d="M528 -165h70q0 -7 -2 -18t-6 -19q-34 2 -71 2h-72h-113h-74t-94 -2q1 7 3 18.5t5 18.5h94q15 46 26 88t21 87l61 286h-74q-62 0 -111.5 18t-78 54.5t-28.5 89.5q0 73 38 127.5t106.5 84.5t159.5 30h251q35 0 72 0.5t72 1.5q-1 -7 -3 -18t-5 -19h-70q-16 -47 -27 -88.5
t-21 -86.5l-102 -480q-8 -41 -15 -85t-12 -90zM455 -163l176 826h-113l-176 -826h113z" />
    <glyph glyph-name="periodcentered" unicode="&#xb7;" horiz-adv-x="258" 
d="M147 312l55 -47l-16 -73l-68 -20l-56 47l16 73z" />
    <glyph glyph-name="cedilla" unicode="&#xb8;" horiz-adv-x="196" 
d="M-104 -162q17 -13 36 -19t36 -6q21 0 33 9t12 25t-20 29t-59 25l55 99h40l-20 -40q40 -15 63 -37t23 -54q0 -42 -34.5 -68t-85.5 -26q-29 0 -52.5 7t-44.5 23q3 9 7 17t11 16z" />
    <glyph glyph-name="uni00B9" unicode="&#xb9;" horiz-adv-x="260" 
d="M219 371h59q0 -4 -1.5 -10.5t-3.5 -11.5q-34 1 -62 1h-49h-48t-63 -1q0 12 5 22h59q8 22 14.5 46.5t13.5 58.5l34 159q4 17 7 35.5t4 26.5h-63q0 4 1 11t3 11q23 0 53 10.5t60 27t51 32.5q4 -1 7.5 -3t6.5 -6q-10 -28 -18 -58t-13 -55l-40 -191q-6 -29 -10 -53.5
t-7 -51.5z" />
    <glyph glyph-name="ordmasculine" unicode="&#xba;" horiz-adv-x="397" 
d="M284 631q-24 0 -43.5 -18.5t-32 -47.5t-19.5 -60.5t-7 -57.5q0 -38 9.5 -59.5t33.5 -21.5l1 -26q-60 0 -94 33t-34 88q0 54 24 98.5t66 71t95 26.5zM225 366q25 0 44 18t32 47t19.5 61t6.5 58q0 38 -9.5 59.5t-33.5 21.5l-1 26q61 0 95 -33t34 -89q0 -53 -24 -97.5
t-66 -71t-96 -26.5z" />
    <glyph glyph-name="guillemotright" unicode="&#xbb;" horiz-adv-x="555" 
d="M123 416q40 -56 86.5 -103t108.5 -96q-83 -49 -149 -96t-130 -103q-16 6 -24 19q26 30 50 58t53 57.5t70 64.5q-26 35 -42.5 64.5t-28.5 57.5t-26 58q15 13 32 19zM323 416q40 -56 86.5 -103t108.5 -96q-83 -49 -149 -96t-130 -103q-16 6 -24 19q26 30 50 58t53 57.5
t70 64.5q-26 35 -42.5 64.5t-28.5 57.5t-26 58q15 13 32 19z" />
    <glyph glyph-name="onequarter" unicode="&#xbc;" horiz-adv-x="834" 
d="M228 301h59q0 -4 -1.5 -10.5t-3.5 -11.5q-34 1 -62 1h-49h-48t-63 -1q0 12 5 22h59q8 22 14.5 46.5t13.5 58.5l34 159q4 17 7 35.5t4 26.5h-63q0 4 1 11t3 11q23 0 53 10.5t60 27t51 32.5q4 -1 7.5 -3t6.5 -6q-10 -28 -18 -58t-13 -55l-40 -191q-6 -29 -10 -53.5
t-7 -51.5zM640 700l-392 -700q-26 -3 -50 0l392 700q26 3 50 0zM740 21q0 -4 -1.5 -11t-3.5 -11q-34 1 -60.5 1h-48.5h-48t-62 -1q0 5 1.5 11.5t3.5 10.5h58q7 21 11.5 36.5t8.5 31t8 37.5l40 188l-142 -157h282q-2 -5 -7 -16.5t-11 -22.5t-12 -16h-319q0 8 1.5 17.5
t2.5 17.5q16 15 28 26t23 24l160 176q17 19 33 37t27 32q6 1 16.5 1.5t22 0t16.5 -1.5q-5 -19 -11 -38t-10.5 -38.5t-9.5 -43.5l-40 -186q-5 -24 -9.5 -51.5t-6.5 -53.5h59z" />
    <glyph glyph-name="onehalf" unicode="&#xbd;" horiz-adv-x="862" 
d="M228 301h59q0 -4 -1.5 -10.5t-3.5 -11.5q-34 1 -62 1h-49h-48t-63 -1q0 12 5 22h59q8 22 14.5 46.5t13.5 58.5l34 159q4 17 7 35.5t4 26.5h-63q0 4 1 11t3 11q23 0 53 10.5t60 27t51 32.5q4 -1 7.5 -3t6.5 -6q-10 -28 -18 -58t-13 -55l-40 -191q-6 -29 -10 -53.5
t-7 -51.5zM640 700l-392 -700q-26 -3 -50 0l392 700q26 3 50 0zM449 0q81 56 133.5 102.5t81.5 87.5t40.5 77t11.5 68q0 41 -10.5 55.5t-27.5 14.5q-23 0 -37.5 -20t-21.5 -49.5t-7 -60.5h-96q0 50 23 84.5t62.5 52t89.5 17.5q60 0 91 -27t31 -72q0 -37 -20.5 -72.5t-54 -69
t-75 -63.5t-85.5 -58zM711 -17q-32 0 -58 6.5t-51.5 12.5t-60.5 6q-23 0 -39 -5t-34 -17q-6 2 -11.5 6.5t-7.5 7.5l128 84q39 -2 62.5 -12t38 -23t26.5 -22t28 -9t23 9.5t7 21.5q0 14 -8 25t-17 18q5 7 18 12q15 -11 24 -25.5t9 -35.5q-1 -28 -21 -44t-56 -16z" />
    <glyph glyph-name="threequarters" unicode="&#xbe;" horiz-adv-x="889" 
d="M390 413q0 -40 -23.5 -72.5t-66.5 -51t-102 -18.5q-79 0 -106 33.5t-12 92.5h92q-21 -102 33 -102q27 0 46 21.5t29 53.5t10 64q0 30 -12 45t-47 15q-22 0 -55 -6q0 7 1 14.5t5 14.5h41q45 0 70 34.5t25 85.5q0 29 -8 38.5t-25 9.5t-29.5 -9t-21.5 -29.5t-17 -55.5h-90
q9 41 32 67t58.5 38.5t77.5 12.5q56 0 88.5 -22.5t32.5 -65.5q0 -38 -26.5 -67t-78.5 -44q38 -9 58.5 -34.5t20.5 -62.5zM695 700l-392 -700q-26 -3 -50 0l392 700q26 3 50 0zM795 21q0 -4 -1.5 -11t-3.5 -11q-34 1 -60.5 1h-48.5h-48t-62 -1q0 5 1.5 11.5t3.5 10.5h58
q7 21 11.5 36.5t8.5 31t8 37.5l40 188l-142 -157h282q-2 -5 -7 -16.5t-11 -22.5t-12 -16h-319q0 8 1.5 17.5t2.5 17.5q16 15 28 26t23 24l160 176q17 19 33 37t27 32q6 1 16.5 1.5t22 0t16.5 -1.5q-5 -19 -11 -38t-10.5 -38.5t-9.5 -43.5l-40 -186q-5 -24 -9.5 -51.5
t-6.5 -53.5h59z" />
    <glyph glyph-name="questiondown" unicode="&#xbf;" horiz-adv-x="501" 
d="M182 -175q39 0 64 29t36.5 75t10.5 98h127q2 -75 -29.5 -129.5t-89.5 -83.5t-138 -29q-50 0 -93 14t-69 46.5t-26 88.5q0 46 17.5 78.5t46 58t61.5 48.5t65.5 49t57.5 60.5t36 81.5q9 0 18 -2t18 -6q-9 -60 -26 -100t-38 -68t-42 -48.5t-39 -41.5t-28.5 -48.5
t-10.5 -68.5q0 -58 20.5 -80t50.5 -22zM281 374l-56 47l16 73l69 20l55 -47l-16 -73z" />
    <glyph glyph-name="Agrave" unicode="&#xc0;" horiz-adv-x="661" 
d="M-64 -2q0 8 2.5 19t5.5 18h52q33 45 61 87t55 88l186 309q15 25 36 59t43 71t40 71q11 2 25 2.5t28 0t23 -2.5l-120 -166l-207 -344q-22 -37 -44.5 -81.5t-38.5 -93.5h84q0 -7 -2.5 -18t-5.5 -19q-41 2 -75.5 2h-51.5h-39.5t-56.5 -2zM554 35h58q0 -7 -2.5 -18t-5.5 -19
q-34 2 -63 2h-70h-71t-70 -2q0 8 2.5 19t5.5 18h69q2 45 1 88t-6 87l-29 344l120 166q-1 -50 1 -98.5t8 -113.5l27 -298q4 -42 9 -84.5t16 -90.5zM431 233h-262l9 40h262zM313 931h142q0 -49 9.5 -86t27.5 -75q-16 -3 -32 0q-18 28 -46 50.5t-56 49t-45 61.5z" />
    <glyph glyph-name="Aacute" unicode="&#xc1;" horiz-adv-x="661" 
d="M-64 -2q0 8 2.5 19t5.5 18h52q33 45 61 87t55 88l186 309q15 25 36 59t43 71t40 71q11 2 25 2.5t28 0t23 -2.5l-120 -166l-207 -344q-22 -37 -44.5 -81.5t-38.5 -93.5h84q0 -7 -2.5 -18t-5.5 -19q-41 2 -75.5 2h-51.5h-39.5t-56.5 -2zM554 35h58q0 -7 -2.5 -18t-5.5 -19
q-34 2 -63 2h-70h-71t-70 -2q0 8 2.5 19t5.5 18h69q2 45 1 88t-6 87l-29 344l120 166q-1 -50 1 -98.5t8 -113.5l27 -298q4 -42 9 -84.5t16 -90.5zM431 233h-262l9 40h262zM673 931q-28 -41 -66.5 -67t-78 -46.5t-70.5 -47.5q-16 -3 -32 0q35 38 60 75.5t45 85.5h142z" />
    <glyph glyph-name="Acircumflex" unicode="&#xc2;" horiz-adv-x="661" 
d="M-64 -2q0 8 2.5 19t5.5 18h52q33 45 61 87t55 88l186 309q15 25 36 59t43 71t40 71q11 2 25 2.5t28 0t23 -2.5l-120 -166l-207 -344q-22 -37 -44.5 -81.5t-38.5 -93.5h84q0 -7 -2.5 -18t-5.5 -19q-41 2 -75.5 2h-51.5h-39.5t-56.5 -2zM554 35h58q0 -7 -2.5 -18t-5.5 -19
q-34 2 -63 2h-70h-71t-70 -2q0 8 2.5 19t5.5 18h69q2 45 1 88t-6 87l-29 344l120 166q-1 -50 1 -98.5t8 -113.5l27 -298q4 -42 9 -84.5t16 -90.5zM431 233h-262l9 40h262zM301 762q-5 5 -8.5 10t-4.5 13q36 23 61 40.5t44.5 33t38.5 33t41 39.5q17 3 32 0q17 -29 30.5 -50.5
t34 -44.5t55.5 -55q-6 -13 -16 -19q-31 12 -53 22t-40.5 21t-41.5 25q-28 -13 -53.5 -24t-53.5 -21.5t-66 -22.5z" />
    <glyph glyph-name="Atilde" unicode="&#xc3;" horiz-adv-x="661" 
d="M-64 -2q0 8 2.5 19t5.5 18h52q33 45 61 87t55 88l186 309q15 25 36 59t43 71t40 71q11 2 25 2.5t28 0t23 -2.5l-120 -166l-207 -344q-22 -37 -44.5 -81.5t-38.5 -93.5h84q0 -7 -2.5 -18t-5.5 -19q-41 2 -75.5 2h-51.5h-39.5t-56.5 -2zM554 35h58q0 -7 -2.5 -18t-5.5 -19
q-34 2 -63 2h-70h-71t-70 -2q0 8 2.5 19t5.5 18h69q2 45 1 88t-6 87l-29 344l120 166q-1 -50 1 -98.5t8 -113.5l27 -298q4 -42 9 -84.5t16 -90.5zM431 233h-262l9 40h262zM625 899q9 -1 16 -5t10 -8q-22 -66 -57.5 -90.5t-69.5 -24.5q-26 0 -43 8.5t-31 19t-27 19t-30 8.5
q-19 0 -36 -9.5t-34 -41.5q-7 1 -14 4t-12 9q22 67 56.5 91.5t69.5 24.5q25 0 42.5 -8.5t31.5 -19t28 -19t32 -8.5t34 10t34 40z" />
    <glyph glyph-name="Adieresis" unicode="&#xc4;" horiz-adv-x="661" 
d="M-64 -2q0 8 2.5 19t5.5 18h52q33 45 61 87t55 88l186 309q15 25 36 59t43 71t40 71q11 2 25 2.5t28 0t23 -2.5l-120 -166l-207 -344q-22 -37 -44.5 -81.5t-38.5 -93.5h84q0 -7 -2.5 -18t-5.5 -19q-41 2 -75.5 2h-51.5h-39.5t-56.5 -2zM554 35h58q0 -7 -2.5 -18t-5.5 -19
q-34 2 -63 2h-70h-71t-70 -2q0 8 2.5 19t5.5 18h69q2 45 1 88t-6 87l-29 344l120 166q-1 -50 1 -98.5t8 -113.5l27 -298q4 -42 9 -84.5t16 -90.5zM431 233h-262l9 40h262zM379 915l53 -45l-15 -71l-67 -19l-53 45l15 71zM603 915l53 -45l-15 -71l-67 -19l-54 45l16 71z" />
    <glyph glyph-name="Aring" unicode="&#xc5;" horiz-adv-x="661" 
d="M-64 -2q0 8 2.5 19t5.5 18h52q33 45 61 87t55 88l186 309q15 25 36 59t43 71t40 71q11 2 25 2.5t28 0t23 -2.5l-120 -166l-207 -344q-22 -37 -44.5 -81.5t-38.5 -93.5h84q0 -7 -2.5 -18t-5.5 -19q-41 2 -75.5 2h-51.5h-39.5t-56.5 -2zM554 35h58q0 -7 -2.5 -18t-5.5 -19
q-34 2 -63 2h-70h-71t-70 -2q0 8 2.5 19t5.5 18h69q2 45 1 88t-6 87l-29 344l120 166q-1 -50 1 -98.5t8 -113.5l27 -298q4 -42 9 -84.5t16 -90.5zM431 233h-262l9 40h262zM491 884q42 0 70.5 -22.5t28.5 -58.5q0 -29 -18 -53.5t-48 -39t-68 -14.5q-43 0 -71 22.5t-28 57.5
q0 30 17.5 54.5t48 39t68.5 14.5zM463 731q22 0 39.5 22.5t17.5 51.5q0 21 -10 32.5t-26 11.5q-22 0 -40 -22.5t-18 -51.5q0 -20 10.5 -32t26.5 -12z" />
    <glyph glyph-name="AE" unicode="&#xc6;" horiz-adv-x="943" 
d="M858 187q16 3 32 0l-39 -187h-381h-72t-73 -2q0 8 2.5 19t5.5 18h70q15 43 26 86.5t21 88.5l60 280q7 30 12 58t9 54q-11 -12 -21.5 -24.5t-21.5 -27.5l-272 -340q-37 -46 -65.5 -88t-50.5 -87h78q-1 -9 -2.5 -18.5t-5.5 -18.5q-40 2 -74.5 2h-51.5h-39.5t-57.5 -2
q1 9 2.5 18.5t5.5 18.5h47q44 45 79.5 87t72.5 88l247 309q23 29 50.5 67.5t55.5 78.5h-86q0 8 2.5 19t5.5 18q40 -1 74 -1.5t63 -0.5h52h346l-40 -187q-16 -3 -32 0q12 72 -11.5 109.5t-101.5 37.5h-96q-15 -45 -25.5 -85t-20.5 -85l-60 -280q-10 -45 -15.5 -85t-10.5 -85
h131q52 0 87 19t56 52t33 76zM505 235h-280l18 40h270zM813 464q16 3 32 0l-45 -208q-17 -3 -32 0q8 47 -3.5 65.5t-49.5 18.5h-173l8 40h173q38 0 58 19t32 65z" />
    <glyph glyph-name="Ccedilla" unicode="&#xc7;" horiz-adv-x="703" 
d="M381 -15q-149 0 -229.5 76.5t-80.5 221.5q0 85 29 162.5t85.5 138.5t139.5 96t190 35q67 0 123.5 -13.5t96.5 -31.5l-38 -179q-16 -3 -32 0q2 96 -42 139t-121 43q-90 0 -154.5 -52t-98 -141.5t-33.5 -204.5q0 -72 15 -128t52 -88t99 -32q70 0 129.5 44.5t104.5 140.5
q16 3 32 0l-38 -176q-47 -23 -105 -37t-124 -14zM246 -162q17 -13 36 -19t36 -6q21 0 33 9t12 25t-20 29t-59 25l55 99h40l-20 -40q40 -15 63 -37t23 -54q0 -42 -34.5 -68t-85.5 -26q-29 0 -52.5 7t-44.5 23q3 9 7 17t11 16z" />
    <glyph glyph-name="Egrave" unicode="&#xc8;" horiz-adv-x="616" 
d="M-6 -2q0 8 2.5 19t5.5 18h70q15 45 26.5 89.5t20.5 85.5l60 280q9 43 16 85.5t11 89.5h-70q0 8 2.5 19t5.5 18q34 -1 71.5 -1.5t71.5 -0.5h350l-40 -187q-16 -3 -32 0q9 52 0 84.5t-37 47.5t-76 15h-100q-15 -46 -25 -83t-21 -87l-60 -280q-8 -39 -14.5 -80t-11.5 -90
h135q52 0 87 19t56.5 52t32.5 76q16 3 32 0l-40 -187h-385h-71.5t-72.5 -2zM442 256q8 47 -4.5 65.5t-49.5 18.5h-177l8 40h177q38 0 58 19t31 65q16 3 32 0l-43 -208q-17 -3 -32 0zM290 931h142q0 -49 9.5 -86t27.5 -75q-16 -3 -32 0q-18 28 -46 50.5t-56 49t-45 61.5z" />
    <glyph glyph-name="Eacute" unicode="&#xc9;" horiz-adv-x="616" 
d="M-6 -2q0 8 2.5 19t5.5 18h70q15 45 26.5 89.5t20.5 85.5l60 280q9 43 16 85.5t11 89.5h-70q0 8 2.5 19t5.5 18q34 -1 71.5 -1.5t71.5 -0.5h350l-40 -187q-16 -3 -32 0q9 52 0 84.5t-37 47.5t-76 15h-100q-15 -46 -25 -83t-21 -87l-60 -280q-8 -39 -14.5 -80t-11.5 -90
h135q52 0 87 19t56.5 52t32.5 76q16 3 32 0l-40 -187h-385h-71.5t-72.5 -2zM442 256q8 47 -4.5 65.5t-49.5 18.5h-177l8 40h177q38 0 58 19t31 65q16 3 32 0l-43 -208q-17 -3 -32 0zM650 931q-28 -41 -66.5 -67t-78 -46.5t-70.5 -47.5q-16 -3 -32 0q35 38 60 75.5t45 85.5
h142z" />
    <glyph glyph-name="Ecircumflex" unicode="&#xca;" horiz-adv-x="616" 
d="M-6 -2q0 8 2.5 19t5.5 18h70q15 45 26.5 89.5t20.5 85.5l60 280q9 43 16 85.5t11 89.5h-70q0 8 2.5 19t5.5 18q34 -1 71.5 -1.5t71.5 -0.5h350l-40 -187q-16 -3 -32 0q9 52 0 84.5t-37 47.5t-76 15h-100q-15 -46 -25 -83t-21 -87l-60 -280q-8 -39 -14.5 -80t-11.5 -90
h135q52 0 87 19t56.5 52t32.5 76q16 3 32 0l-40 -187h-385h-71.5t-72.5 -2zM442 256q8 47 -4.5 65.5t-49.5 18.5h-177l8 40h177q38 0 58 19t31 65q16 3 32 0l-43 -208q-17 -3 -32 0zM278 762q-5 5 -8 10t-5 13q36 23 61 40.5t44.5 33t38.5 33t41 39.5q17 3 32 0
q17 -29 30.5 -50.5t34 -44.5t55.5 -55q-6 -13 -16 -19q-31 12 -53 22t-40.5 21t-41.5 25q-28 -13 -53.5 -24t-53.5 -21.5t-66 -22.5z" />
    <glyph glyph-name="Edieresis" unicode="&#xcb;" horiz-adv-x="616" 
d="M-6 -2q0 8 2.5 19t5.5 18h70q15 45 26.5 89.5t20.5 85.5l60 280q9 43 16 85.5t11 89.5h-70q0 8 2.5 19t5.5 18q34 -1 71.5 -1.5t71.5 -0.5h350l-40 -187q-16 -3 -32 0q9 52 0 84.5t-37 47.5t-76 15h-100q-15 -46 -25 -83t-21 -87l-60 -280q-8 -39 -14.5 -80t-11.5 -90
h135q52 0 87 19t56.5 52t32.5 76q16 3 32 0l-40 -187h-385h-71.5t-72.5 -2zM442 256q8 47 -4.5 65.5t-49.5 18.5h-177l8 40h177q38 0 58 19t31 65q16 3 32 0l-43 -208q-17 -3 -32 0zM356 915l53 -45l-15 -71l-67 -19l-53 45l15 71zM580 915l53 -45l-15 -71l-67 -19l-54 45
l16 71z" />
    <glyph glyph-name="Igrave" unicode="&#xcc;" horiz-adv-x="373" 
d="M-6 -2q0 8 2.5 19t5.5 18h70q15 45 26.5 89.5t20.5 85.5l60 280q9 43 16 85.5t11 89.5h-70q0 8 2.5 19t5.5 18q34 -1 71.5 -1.5t71.5 -0.5q35 0 72 0.5t72 1.5q0 -7 -2.5 -18t-5.5 -19h-70q-14 -45 -25 -86t-22 -89l-60 -280q-7 -38 -14.5 -81t-12.5 -94h70
q0 -7 -2.5 -18t-5.5 -19q-34 2 -71 2h-72h-71.5t-72.5 -2zM155 931h142q0 -49 9.5 -86t27.5 -75q-16 -3 -32 0q-18 28 -46 50.5t-56 49t-45 61.5z" />
    <glyph glyph-name="Iacute" unicode="&#xcd;" horiz-adv-x="373" 
d="M-6 -2q0 8 2.5 19t5.5 18h70q15 45 26.5 89.5t20.5 85.5l60 280q9 43 16 85.5t11 89.5h-70q0 8 2.5 19t5.5 18q34 -1 71.5 -1.5t71.5 -0.5q35 0 72 0.5t72 1.5q0 -7 -2.5 -18t-5.5 -19h-70q-14 -45 -25 -86t-22 -89l-60 -280q-7 -38 -14.5 -81t-12.5 -94h70
q0 -7 -2.5 -18t-5.5 -19q-34 2 -71 2h-72h-71.5t-72.5 -2zM515 931q-28 -41 -66.5 -67t-78 -46.5t-70.5 -47.5q-16 -3 -32 0q35 38 60 75.5t45 85.5h142z" />
    <glyph glyph-name="Icircumflex" unicode="&#xce;" horiz-adv-x="373" 
d="M-6 -2q0 8 2.5 19t5.5 18h70q15 45 26.5 89.5t20.5 85.5l60 280q9 43 16 85.5t11 89.5h-70q0 8 2.5 19t5.5 18q34 -1 71.5 -1.5t71.5 -0.5q35 0 72 0.5t72 1.5q0 -7 -2.5 -18t-5.5 -19h-70q-14 -45 -25 -86t-22 -89l-60 -280q-7 -38 -14.5 -81t-12.5 -94h70
q0 -7 -2.5 -18t-5.5 -19q-34 2 -71 2h-72h-71.5t-72.5 -2zM143 762q-5 5 -8.5 10t-4.5 13q35 23 60.5 40.5t45 33t38.5 33t41 39.5q16 3 32 0q17 -29 30.5 -50.5t34 -44.5t55.5 -55q-6 -13 -16 -19q-31 12 -53 22t-41 21t-41 25q-29 -13 -54 -24t-53.5 -21.5t-65.5 -22.5z
" />
    <glyph glyph-name="Idieresis" unicode="&#xcf;" horiz-adv-x="373" 
d="M-6 -2q0 8 2.5 19t5.5 18h70q15 45 26.5 89.5t20.5 85.5l60 280q9 43 16 85.5t11 89.5h-70q0 8 2.5 19t5.5 18q34 -1 71.5 -1.5t71.5 -0.5q35 0 72 0.5t72 1.5q0 -7 -2.5 -18t-5.5 -19h-70q-14 -45 -25 -86t-22 -89l-60 -280q-7 -38 -14.5 -81t-12.5 -94h70
q0 -7 -2.5 -18t-5.5 -19q-34 2 -71 2h-72h-71.5t-72.5 -2zM221 915l53 -45l-15 -71l-67 -19l-53 45l15 71zM445 915l53 -45l-15 -71l-67 -19l-54 45l16 71z" />
    <glyph glyph-name="Eth" unicode="&#xd0;" horiz-adv-x="809" 
d="M473 340h-427q0 13 3 25t7 25h427q0 -13 -2.5 -25t-7.5 -25zM298 700h189q146 0 226.5 -65.5t80.5 -197.5q0 -95 -35.5 -175.5t-100 -138.5t-151.5 -90.5t-189 -32.5h-169h-71.5t-72.5 -2q0 8 2.5 19t5.5 18h70q15 45 26.5 89.5t20.5 85.5l60 280q9 43 16 85.5t11 89.5
h-70q0 8 2.5 19t5.5 18q34 -1 71.5 -1.5t71.5 -0.5zM231 40h94q73 0 132.5 29.5t102.5 82.5t66.5 123.5t23.5 152.5q0 114 -41.5 173t-139.5 59h-106q-15 -46 -25 -83t-21 -87l-60 -280q-8 -39 -14.5 -80t-11.5 -90z" />
    <glyph glyph-name="Ntilde" unicode="&#xd1;" horiz-adv-x="788" 
d="M560 0q-10 37 -21 65t-30 66l-249 486l-12 83q33 0 65 0.5t58 1.5q7 -26 16.5 -51t26.5 -60l205 -405l6 -186q-17 -2 -34 -2t-31 2zM-6 -2q0 8 2.5 19t5.5 18h67q18 46 30 89t22 86l60 280q9 40 14 81.5t8 93.5h-67q0 8 2.5 19t5.5 18q34 -1 60 -1.5t44 -0.5l12 -83
q-8 -28 -16 -60t-16 -67l-60 -280q-7 -37 -13.5 -78t-8.5 -97h81q0 -7 -2.5 -18t-5.5 -19q-37 2 -68.5 2h-51.5h-44t-61 -2zM625 0l-6 186l64 304q9 44 14 83.5t8 91.5h-82q0 8 2.5 19t5.5 18q37 -1 69.5 -1.5t51.5 -0.5q17 0 43.5 0.5t61.5 1.5q0 -7 -2.5 -18t-5.5 -19h-67
q-13 -35 -22 -62t-16 -53t-14 -60zM679 899q9 -1 16 -5t10 -8q-22 -66 -57.5 -90.5t-69.5 -24.5q-26 0 -43 8.5t-31 19t-27 19t-30 8.5q-19 0 -36 -9.5t-34 -41.5q-7 1 -14 4t-12 9q22 67 56.5 91.5t69.5 24.5q25 0 42.5 -8.5t31.5 -19t28 -19t32 -8.5t34 10t34 40z" />
    <glyph glyph-name="Ograve" unicode="&#xd2;" horiz-adv-x="810" 
d="M488 715q93 0 161 -34.5t105 -101t37 -164.5q0 -85 -28.5 -162.5t-82.5 -137.5t-131 -95t-174 -35q-93 0 -161 34.5t-105 101.5t-37 164q0 85 29 162t82.5 137.5t130.5 95.5t174 35zM378 27q80 0 140 52t94.5 143.5t34.5 209.5q0 69 -15 123t-50 86t-97 32
q-78 0 -139 -52t-95 -143.5t-34 -210.5q0 -67 14.5 -121.5t49.5 -86.5t97 -32zM361 931h142q0 -49 9.5 -86t27.5 -75q-16 -3 -32 0q-18 28 -46 50.5t-56 49t-45 61.5z" />
    <glyph glyph-name="Oacute" unicode="&#xd3;" horiz-adv-x="810" 
d="M488 715q93 0 161 -34.5t105 -101t37 -164.5q0 -85 -28.5 -162.5t-82.5 -137.5t-131 -95t-174 -35q-93 0 -161 34.5t-105 101.5t-37 164q0 85 29 162t82.5 137.5t130.5 95.5t174 35zM378 27q80 0 140 52t94.5 143.5t34.5 209.5q0 69 -15 123t-50 86t-97 32
q-78 0 -139 -52t-95 -143.5t-34 -210.5q0 -67 14.5 -121.5t49.5 -86.5t97 -32zM721 931q-28 -41 -66.5 -67t-78 -46.5t-70.5 -47.5q-16 -3 -32 0q35 38 60 75.5t45 85.5h142z" />
    <glyph glyph-name="Ocircumflex" unicode="&#xd4;" horiz-adv-x="810" 
d="M488 715q93 0 161 -34.5t105 -101t37 -164.5q0 -85 -28.5 -162.5t-82.5 -137.5t-131 -95t-174 -35q-93 0 -161 34.5t-105 101.5t-37 164q0 85 29 162t82.5 137.5t130.5 95.5t174 35zM378 27q80 0 140 52t94.5 143.5t34.5 209.5q0 69 -15 123t-50 86t-97 32
q-78 0 -139 -52t-95 -143.5t-34 -210.5q0 -67 14.5 -121.5t49.5 -86.5t97 -32zM349 762q-5 5 -8 10t-5 13q36 23 61 40.5t45 33t38.5 33t41.5 39.5q16 3 32 0q16 -29 30 -50.5t34.5 -44.5t55.5 -55q-6 -13 -16 -19q-32 12 -53.5 22t-40.5 21t-42 25q-28 -13 -53 -24
t-53.5 -21.5t-66.5 -22.5z" />
    <glyph glyph-name="Otilde" unicode="&#xd5;" horiz-adv-x="810" 
d="M488 715q93 0 161 -34.5t105 -101t37 -164.5q0 -85 -28.5 -162.5t-82.5 -137.5t-131 -95t-174 -35q-93 0 -161 34.5t-105 101.5t-37 164q0 85 29 162t82.5 137.5t130.5 95.5t174 35zM378 27q80 0 140 52t94.5 143.5t34.5 209.5q0 69 -15 123t-50 86t-97 32
q-78 0 -139 -52t-95 -143.5t-34 -210.5q0 -67 14.5 -121.5t49.5 -86.5t97 -32zM673 899q9 -1 16 -5t10 -8q-22 -66 -57.5 -90.5t-69.5 -24.5q-26 0 -43 8.5t-31 19t-27 19t-30 8.5q-19 0 -36 -9.5t-34 -41.5q-7 1 -14 4t-12 9q22 67 56.5 91.5t69.5 24.5q25 0 42.5 -8.5
t31.5 -19t28 -19t32 -8.5t34 10t34 40z" />
    <glyph glyph-name="Odieresis" unicode="&#xd6;" horiz-adv-x="810" 
d="M488 715q93 0 161 -34.5t105 -101t37 -164.5q0 -85 -28.5 -162.5t-82.5 -137.5t-131 -95t-174 -35q-93 0 -161 34.5t-105 101.5t-37 164q0 85 29 162t82.5 137.5t130.5 95.5t174 35zM378 27q80 0 140 52t94.5 143.5t34.5 209.5q0 69 -15 123t-50 86t-97 32
q-78 0 -139 -52t-95 -143.5t-34 -210.5q0 -67 14.5 -121.5t49.5 -86.5t97 -32zM427 915l53 -45l-15 -71l-67 -19l-53 45l15 71zM651 915l53 -45l-15 -71l-67 -19l-54 45l16 71z" />
    <glyph glyph-name="multiply" unicode="&#xd7;" horiz-adv-x="620" 
d="M628 581l-549 -467q-9 8 -16.5 16.5t-12.5 18.5l549 467q9 -7 16.5 -15.5t12.5 -19.5zM167 616l385 -467q-10 -10 -19.5 -18.5t-21.5 -16.5l-385 467q10 11 19.5 19.5t21.5 15.5z" />
    <glyph glyph-name="Oslash" unicode="&#xd8;" horiz-adv-x="816" 
d="M768 730q31 5 61 0q-20 -66 -66.5 -123.5t-109 -109.5t-133.5 -101.5t-141.5 -98.5t-132 -100.5t-106 -107.5t-62.5 -119q-30 -5 -61 0q20 66 66.5 123.5t109 110t133.5 102t141.5 98.5t132 100t106 107t62.5 119zM494 715q92 0 160 -34.5t105 -101t37 -164.5
q0 -85 -28.5 -162.5t-82.5 -137.5t-131 -95t-174 -35q-93 0 -160.5 34.5t-104.5 101.5t-37 164q0 85 28.5 162t82 137.5t131 95.5t174.5 35zM383 27q80 0 140 52t94.5 143.5t34.5 209.5q0 69 -14.5 123t-50 86t-97.5 32q-78 0 -138.5 -52t-95 -143.5t-34.5 -210.5
q0 -67 14.5 -121.5t50 -86.5t96.5 -32z" />
    <glyph glyph-name="Ugrave" unicode="&#xd9;" horiz-adv-x="740" 
d="M345 -15q-143 0 -202.5 53.5t-36.5 162.5l62 289q10 43 16 82.5t11 92.5h-70q0 8 2.5 19t5.5 18q34 -1 71.5 -1.5t71.5 -0.5q35 0 72 0.5t72 1.5q0 -7 -2.5 -18t-5.5 -19h-70q-14 -45 -25 -86t-22 -89l-55 -255q-23 -109 9 -156t117 -47q86 0 141.5 50.5t74.5 137.5
l58 270q5 28 9 53t7.5 54t5.5 68h-81q0 8 2.5 19t5.5 18q37 -1 69 -1.5t51 -0.5q17 0 43.5 0.5t61.5 1.5q0 -7 -2.5 -18t-5.5 -19h-67q-14 -37 -23 -65.5t-16 -53.5t-13 -56l-61 -285q-22 -103 -96 -161.5t-185 -58.5zM370 931h142q0 -49 9.5 -86t27.5 -75q-16 -3 -32 0
q-18 28 -46 50.5t-56 49t-45 61.5z" />
    <glyph glyph-name="Uacute" unicode="&#xda;" horiz-adv-x="740" 
d="M345 -15q-143 0 -202.5 53.5t-36.5 162.5l62 289q10 43 16 82.5t11 92.5h-70q0 8 2.5 19t5.5 18q34 -1 71.5 -1.5t71.5 -0.5q35 0 72 0.5t72 1.5q0 -7 -2.5 -18t-5.5 -19h-70q-14 -45 -25 -86t-22 -89l-55 -255q-23 -109 9 -156t117 -47q86 0 141.5 50.5t74.5 137.5
l58 270q5 28 9 53t7.5 54t5.5 68h-81q0 8 2.5 19t5.5 18q37 -1 69 -1.5t51 -0.5q17 0 43.5 0.5t61.5 1.5q0 -7 -2.5 -18t-5.5 -19h-67q-14 -37 -23 -65.5t-16 -53.5t-13 -56l-61 -285q-22 -103 -96 -161.5t-185 -58.5zM730 931q-28 -41 -66.5 -67t-78 -46.5t-70.5 -47.5
q-16 -3 -32 0q35 38 60 75.5t45 85.5h142z" />
    <glyph glyph-name="Ucircumflex" unicode="&#xdb;" horiz-adv-x="740" 
d="M345 -15q-143 0 -202.5 53.5t-36.5 162.5l62 289q10 43 16 82.5t11 92.5h-70q0 8 2.5 19t5.5 18q34 -1 71.5 -1.5t71.5 -0.5q35 0 72 0.5t72 1.5q0 -7 -2.5 -18t-5.5 -19h-70q-14 -45 -25 -86t-22 -89l-55 -255q-23 -109 9 -156t117 -47q86 0 141.5 50.5t74.5 137.5
l58 270q5 28 9 53t7.5 54t5.5 68h-81q0 8 2.5 19t5.5 18q37 -1 69 -1.5t51 -0.5q17 0 43.5 0.5t61.5 1.5q0 -7 -2.5 -18t-5.5 -19h-67q-14 -37 -23 -65.5t-16 -53.5t-13 -56l-61 -285q-22 -103 -96 -161.5t-185 -58.5zM358 762q-5 5 -8 10t-5 13q36 23 61 40.5t44.5 33
t38.5 33t41 39.5q17 3 32 0q17 -29 30.5 -50.5t34 -44.5t55.5 -55q-6 -13 -16 -19q-31 12 -53 22t-40.5 21t-41.5 25q-28 -13 -53.5 -24t-53.5 -21.5t-66 -22.5z" />
    <glyph glyph-name="Udieresis" unicode="&#xdc;" horiz-adv-x="740" 
d="M345 -15q-143 0 -202.5 53.5t-36.5 162.5l62 289q10 43 16 82.5t11 92.5h-70q0 8 2.5 19t5.5 18q34 -1 71.5 -1.5t71.5 -0.5q35 0 72 0.5t72 1.5q0 -7 -2.5 -18t-5.5 -19h-70q-14 -45 -25 -86t-22 -89l-55 -255q-23 -109 9 -156t117 -47q86 0 141.5 50.5t74.5 137.5
l58 270q5 28 9 53t7.5 54t5.5 68h-81q0 8 2.5 19t5.5 18q37 -1 69 -1.5t51 -0.5q17 0 43.5 0.5t61.5 1.5q0 -7 -2.5 -18t-5.5 -19h-67q-14 -37 -23 -65.5t-16 -53.5t-13 -56l-61 -285q-22 -103 -96 -161.5t-185 -58.5zM436 915l53 -45l-15 -71l-67 -19l-53 45l15 71z
M660 915l53 -45l-15 -71l-67 -19l-54 45l16 71z" />
    <glyph glyph-name="Yacute" unicode="&#xdd;" horiz-adv-x="648" 
d="M133 -2q0 8 2.5 19t5.5 18h70q14 42 25 83t17 68l3 13q16 68 12 137.5t-21.5 133t-43 114.5t-53.5 81h162q1 -18 12 -43.5t24.5 -62t24.5 -87.5t13 -120q20 45 47 89.5t55.5 84t53.5 68.5q23 28 33 44.5t15 26.5h89q-63 -54 -113 -115t-87 -123t-60 -117.5t-33 -98.5
l-3 -13q-9 -39 -15 -79.5t-10 -83.5h70q0 -7 -2.5 -18t-5.5 -19q-34 2 -71.5 2h-71.5h-71.5t-72.5 -2zM91 665q0 8 2.5 19t5.5 18q34 -1 65.5 -1.5t62.5 -0.5q20 0 62 0.5t85 1.5q0 -7 -2.5 -18t-5.5 -19h-275zM510 665q0 8 2.5 19t5.5 18q41 -1 73.5 -1.5t51.5 -0.5
q20 0 42 0.5t57 1.5q0 -7 -2.5 -18t-5.5 -19h-224zM670 931q-28 -41 -66.5 -67t-78 -46.5t-70.5 -47.5q-16 -3 -32 0q35 38 60 75.5t45 85.5h142z" />
    <glyph glyph-name="Thorn" unicode="&#xde;" horiz-adv-x="668" 
d="M429 564q68 0 119.5 -18t80.5 -55.5t29 -96.5q0 -70 -40.5 -124.5t-110 -86t-157.5 -31.5h-146l9 40h143q47 0 85 26.5t60.5 73t22.5 103.5q0 65 -30 97t-96 32h-98l8 40h121zM-6 -2q0 8 2.5 19t5.5 18h70q15 45 26.5 89.5t20.5 85.5l60 280q9 43 16 85.5t11 89.5h-70
q0 8 2.5 19t5.5 18q34 -1 71.5 -1.5t71.5 -0.5q35 0 72 0.5t72 1.5q0 -7 -2.5 -18t-5.5 -19h-70q-14 -45 -25 -86t-22 -89l-60 -280q-7 -38 -14.5 -81t-12.5 -94h70q0 -7 -2.5 -18t-5.5 -19q-34 2 -71 2h-72h-71.5t-72.5 -2z" />
    <glyph glyph-name="germandbls" unicode="&#xdf;" horiz-adv-x="552" 
d="M168 406h-117q1 9 3.5 21t5.5 21h117q0 -8 -2.5 -20.5t-6.5 -21.5zM506 497q-39 0 -64 -14t-36.5 -37t-11.5 -50q0 -26 10.5 -48.5t26.5 -43.5t32 -44t26.5 -52t10.5 -66q0 -44 -21 -79.5t-60 -56.5t-93 -21q-30 0 -58 5.5t-62 18.5l27 122q15 3 32 0q-4 -45 14 -75.5
t57 -30.5q34 0 51 23t17 59q0 38 -14.5 66t-34.5 53.5t-35 55t-15 71.5q0 35 12.5 58.5t30 42.5t35.5 39t30 47t12 68q0 19 -4.5 36.5t-14.5 28.5t-29 11q-34 0 -59.5 -27.5t-44.5 -80t-34 -128.5l-65 -340q-8 -41 -19 -84t-28.5 -83t-46.5 -74.5t-71.5 -58.5t-104.5 -33
q-4 8 -6.5 17t-2.5 21q68 19 106 77t56 157l77 401q16 82 51.5 143t87 95t113.5 34q52 0 84 -23.5t41.5 -73.5t-5.5 -126z" />
    <glyph glyph-name="agrave" unicode="&#xe0;" horiz-adv-x="565" 
d="M397 -15q-47 0 -64 32t-7 78l15 69l40 84l7 134l98 66q16 3 32 0q-14 -40 -27.5 -91.5t-22.5 -92.5l-35 -164q-5 -25 -3.5 -40.5t16.5 -15.5q14 0 30.5 14.5t38.5 47.5q9 -4 16 -8.5t14 -11.5q-25 -45 -64.5 -73t-83.5 -28zM162 -15q-61 0 -94.5 42.5t-33.5 120.5
q0 58 19 114t54.5 101.5t87 72.5t117.5 27q64 0 106.5 -27t54.5 -73l-64 -43q0 -59 -18.5 -118t-52.5 -108.5t-78.5 -79t-97.5 -29.5zM214 51q33 0 62 25.5t50.5 66.5t33.5 88.5t12 90.5q0 46 -13 73.5t-46 27.5t-63 -27t-52.5 -69.5t-35.5 -90t-13 -88.5q0 -49 17 -73
t48 -24zM208 695h132q-5 -41 -2.5 -84t18.5 -92q-16 -3 -32 0q-12 31 -35 56.5t-45.5 54t-35.5 65.5z" />
    <glyph glyph-name="aacute" unicode="&#xe1;" horiz-adv-x="565" 
d="M397 -15q-47 0 -64 32t-7 78l15 69l40 84l7 134l98 66q16 3 32 0q-14 -40 -27.5 -91.5t-22.5 -92.5l-35 -164q-5 -25 -3.5 -40.5t16.5 -15.5q14 0 30.5 14.5t38.5 47.5q9 -4 16 -8.5t14 -11.5q-25 -45 -64.5 -73t-83.5 -28zM162 -15q-61 0 -94.5 42.5t-33.5 120.5
q0 58 19 114t54.5 101.5t87 72.5t117.5 27q64 0 106.5 -27t54.5 -73l-64 -43q0 -59 -18.5 -118t-52.5 -108.5t-78.5 -79t-97.5 -29.5zM214 51q33 0 62 25.5t50.5 66.5t33.5 88.5t12 90.5q0 46 -13 73.5t-46 27.5t-63 -27t-52.5 -69.5t-35.5 -90t-13 -88.5q0 -49 17 -73
t48 -24zM519 696q-23 -37 -57.5 -65.5t-69 -54t-61.5 -56.5q-16 -3 -32 0q35 49 55 91.5t33 84.5h132z" />
    <glyph glyph-name="acircumflex" unicode="&#xe2;" horiz-adv-x="565" 
d="M397 -15q-47 0 -64 32t-7 78l15 69l40 84l7 134l98 66q16 3 32 0q-14 -40 -27.5 -91.5t-22.5 -92.5l-35 -164q-5 -25 -3.5 -40.5t16.5 -15.5q14 0 30.5 14.5t38.5 47.5q9 -4 16 -8.5t14 -11.5q-25 -45 -64.5 -73t-83.5 -28zM162 -15q-61 0 -94.5 42.5t-33.5 120.5
q0 58 19 114t54.5 101.5t87 72.5t117.5 27q64 0 106.5 -27t54.5 -73l-64 -43q0 -59 -18.5 -118t-52.5 -108.5t-78.5 -79t-97.5 -29.5zM214 51q33 0 62 25.5t50.5 66.5t33.5 88.5t12 90.5q0 46 -13 73.5t-46 27.5t-63 -27t-52.5 -69.5t-35.5 -90t-13 -88.5q0 -49 17 -73
t48 -24zM195 514q-6 5 -9.5 10t-4.5 13q40 31 68 55.5t52.5 49t51.5 54.5q16 3 32 0q16 -33 28.5 -57.5t29 -48.5t44.5 -57q-6 -13 -19 -19q-40 21 -63 39t-53 40q-27 -14 -49 -26.5t-47 -25t-61 -27.5z" />
    <glyph glyph-name="atilde" unicode="&#xe3;" horiz-adv-x="565" 
d="M397 -15q-47 0 -64 32t-7 78l15 69l40 84l7 134l98 66q16 3 32 0q-14 -40 -27.5 -91.5t-22.5 -92.5l-35 -164q-5 -25 -3.5 -40.5t16.5 -15.5q14 0 30.5 14.5t38.5 47.5q9 -4 16 -8.5t14 -11.5q-25 -45 -64.5 -73t-83.5 -28zM162 -15q-61 0 -94.5 42.5t-33.5 120.5
q0 58 19 114t54.5 101.5t87 72.5t117.5 27q64 0 106.5 -27t54.5 -73l-64 -43q0 -59 -18.5 -118t-52.5 -108.5t-78.5 -79t-97.5 -29.5zM214 51q33 0 62 25.5t50.5 66.5t33.5 88.5t12 90.5q0 46 -13 73.5t-46 27.5t-63 -27t-52.5 -69.5t-35.5 -90t-13 -88.5q0 -49 17 -73
t48 -24zM493 666q8 -2 15 -4.5t12 -7.5q-22 -67 -56 -92t-68 -25q-24 0 -39.5 8.5t-27.5 19t-23.5 19t-26.5 8.5q-19 0 -35 -9.5t-33 -40.5q-8 1 -15.5 4.5t-11.5 7.5q22 67 55 92t68 25q22 0 38 -8.5t29 -19t25 -19t27 -8.5q18 0 34 10t33 40z" />
    <glyph glyph-name="adieresis" unicode="&#xe4;" horiz-adv-x="565" 
d="M397 -15q-47 0 -64 32t-7 78l15 69l40 84l7 134l98 66q16 3 32 0q-14 -40 -27.5 -91.5t-22.5 -92.5l-35 -164q-5 -25 -3.5 -40.5t16.5 -15.5q14 0 30.5 14.5t38.5 47.5q9 -4 16 -8.5t14 -11.5q-25 -45 -64.5 -73t-83.5 -28zM162 -15q-61 0 -94.5 42.5t-33.5 120.5
q0 58 19 114t54.5 101.5t87 72.5t117.5 27q64 0 106.5 -27t54.5 -73l-64 -43q0 -59 -18.5 -118t-52.5 -108.5t-78.5 -79t-97.5 -29.5zM214 51q33 0 62 25.5t50.5 66.5t33.5 88.5t12 90.5q0 46 -13 73.5t-46 27.5t-63 -27t-52.5 -69.5t-35.5 -90t-13 -88.5q0 -49 17 -73
t48 -24zM271 681l53 -45l-15 -70l-67 -20l-53 45l15 71zM472 681l53 -45l-15 -70l-67 -20l-53 45l15 71z" />
    <glyph glyph-name="aring" unicode="&#xe5;" horiz-adv-x="565" 
d="M397 -15q-47 0 -64 32t-7 78l15 69l40 84l7 134l98 66q16 3 32 0q-14 -40 -27.5 -91.5t-22.5 -92.5l-35 -164q-5 -25 -3.5 -40.5t16.5 -15.5q14 0 30.5 14.5t38.5 47.5q9 -4 16 -8.5t14 -11.5q-25 -45 -64.5 -73t-83.5 -28zM162 -15q-61 0 -94.5 42.5t-33.5 120.5
q0 58 19 114t54.5 101.5t87 72.5t117.5 27q64 0 106.5 -27t54.5 -73l-64 -43q0 -59 -18.5 -118t-52.5 -108.5t-78.5 -79t-97.5 -29.5zM214 51q33 0 62 25.5t50.5 66.5t33.5 88.5t12 90.5q0 46 -13 73.5t-46 27.5t-63 -27t-52.5 -69.5t-35.5 -90t-13 -88.5q0 -49 17 -73
t48 -24zM374 705q42 0 70.5 -22.5t28.5 -58.5q0 -29 -18 -53.5t-48 -39t-68 -14.5q-43 0 -71 22.5t-28 57.5q0 30 17.5 54.5t48 39t68.5 14.5zM346 552q22 0 39.5 22.5t17.5 51.5q0 21 -10 32.5t-26 11.5q-22 0 -40 -22.5t-18 -51.5q0 -20 10.5 -32t26.5 -12z" />
    <glyph glyph-name="ae" unicode="&#xe6;" horiz-adv-x="745" 
d="M472 -15q-77 0 -116.5 46t-39.5 134q0 61 20.5 114.5t58 95t90 65t115.5 23.5q71 0 101 -27t30 -64q0 -40 -27 -76t-76 -61.5t-116 -35.5t-149 1l3 37q69 -9 118 -0.5t79.5 29t45 47.5t14.5 55q0 26 -12 41t-38 15q-35 0 -64 -27.5t-49.5 -70t-31.5 -89.5t-11 -87
q0 -58 22.5 -82.5t62.5 -24.5q32 0 74 19t88 74q9 -4 16 -8.5t14 -11.5q-49 -70 -105 -100.5t-117 -30.5zM145 -15q-38 0 -68.5 11.5t-48.5 35t-18 59.5t18.5 67.5t60 54t109 30.5t165.5 -5l-3 -38q-89 12 -142.5 -0.5t-77 -40t-23.5 -60.5q0 -28 17.5 -45t47.5 -17
q42 0 80.5 38.5t52.5 121.5l26 -59q-19 -55 -46.5 -88.5t-64.5 -49t-85 -15.5zM341 138l-26 59l17 90q4 21 6.5 45t-1 45.5t-16.5 35t-39 13.5q-36 0 -63 -27.5t-32 -75.5h-105q7 37 34 68.5t71 51.5t103 20q66 0 98 -21.5t40.5 -57.5t0.5 -78z" />
    <glyph glyph-name="ccedilla" unicode="&#xe7;" horiz-adv-x="465" 
d="M204 -15q-76 0 -122 48.5t-46 129.5q0 61 21 115t59 96t89.5 66t112.5 24q43 0 76.5 -11t57.5 -30l-31 -143q-16 -3 -32 0q0 68 -17 106t-59 38q-39 0 -69 -26.5t-51.5 -68t-32 -89.5t-10.5 -90q0 -55 22.5 -81t62.5 -26q29 0 66.5 19t76.5 74q9 -4 16 -8.5t14 -11.5
q-42 -70 -94 -100.5t-110 -30.5zM93 -162q17 -13 36 -19t36 -6q21 0 33 9t12 25t-20 29t-59 25l55 99h40l-20 -40q40 -15 63 -37t23 -54q0 -42 -34.5 -68t-85.5 -26q-29 0 -52.5 7t-44.5 23q3 9 7 17t11 16z" />
    <glyph glyph-name="egrave" unicode="&#xe8;" horiz-adv-x="481" 
d="M236 43q29 0 72.5 19t91.5 74q9 -4 16 -8.5t14 -11.5q-50 -70 -109 -100.5t-117 -30.5q-79 0 -124 46t-45 126q0 64 20.5 119t59 97.5t92 66t118.5 23.5q54 0 84.5 -12.5t44 -32t13.5 -42.5q0 -41 -28 -73t-77 -55.5t-110 -38t-126 -20.5l-3 37q67 4 120 23.5t84.5 51
t31.5 67.5q0 26 -13 41t-39 15q-38 0 -68.5 -27.5t-52 -70.5t-32.5 -90.5t-11 -87.5q0 -56 24 -80.5t69 -24.5zM201 695h132q-5 -41 -2.5 -84t18.5 -92q-16 -3 -32 0q-12 31 -35 56.5t-45.5 54t-35.5 65.5z" />
    <glyph glyph-name="eacute" unicode="&#xe9;" horiz-adv-x="481" 
d="M236 43q29 0 72.5 19t91.5 74q9 -4 16 -8.5t14 -11.5q-50 -70 -109 -100.5t-117 -30.5q-79 0 -124 46t-45 126q0 64 20.5 119t59 97.5t92 66t118.5 23.5q54 0 84.5 -12.5t44 -32t13.5 -42.5q0 -41 -28 -73t-77 -55.5t-110 -38t-126 -20.5l-3 37q67 4 120 23.5t84.5 51
t31.5 67.5q0 26 -13 41t-39 15q-38 0 -68.5 -27.5t-52 -70.5t-32.5 -90.5t-11 -87.5q0 -56 24 -80.5t69 -24.5zM512 696q-23 -37 -57.5 -65.5t-69 -54t-61.5 -56.5q-16 -3 -32 0q35 49 55 91.5t33 84.5h132z" />
    <glyph glyph-name="ecircumflex" unicode="&#xea;" horiz-adv-x="481" 
d="M236 43q29 0 72.5 19t91.5 74q9 -4 16 -8.5t14 -11.5q-50 -70 -109 -100.5t-117 -30.5q-79 0 -124 46t-45 126q0 64 20.5 119t59 97.5t92 66t118.5 23.5q54 0 84.5 -12.5t44 -32t13.5 -42.5q0 -41 -28 -73t-77 -55.5t-110 -38t-126 -20.5l-3 37q67 4 120 23.5t84.5 51
t31.5 67.5q0 26 -13 41t-39 15q-38 0 -68.5 -27.5t-52 -70.5t-32.5 -90.5t-11 -87.5q0 -56 24 -80.5t69 -24.5zM188 514q-6 5 -9.5 10t-4.5 13q40 31 68 55.5t52.5 49t51.5 54.5q16 3 32 0q16 -33 28.5 -57.5t29 -48.5t44.5 -57q-6 -13 -19 -19q-40 21 -63.5 39t-52.5 40
q-27 -14 -49 -26.5t-47 -25t-61 -27.5z" />
    <glyph glyph-name="edieresis" unicode="&#xeb;" horiz-adv-x="481" 
d="M236 43q29 0 72.5 19t91.5 74q9 -4 16 -8.5t14 -11.5q-50 -70 -109 -100.5t-117 -30.5q-79 0 -124 46t-45 126q0 64 20.5 119t59 97.5t92 66t118.5 23.5q54 0 84.5 -12.5t44 -32t13.5 -42.5q0 -41 -28 -73t-77 -55.5t-110 -38t-126 -20.5l-3 37q67 4 120 23.5t84.5 51
t31.5 67.5q0 26 -13 41t-39 15q-38 0 -68.5 -27.5t-52 -70.5t-32.5 -90.5t-11 -87.5q0 -56 24 -80.5t69 -24.5zM264 681l53 -45l-15 -70l-67 -20l-53 45l15 71zM465 681l53 -45l-15 -70l-67 -20l-53 45l15 71z" />
    <glyph glyph-name="igrave" unicode="&#xec;" horiz-adv-x="302" 
d="M130 -15q-47 0 -63.5 32t-6.5 78l36 169q8 35 13 69.5t8 77.5h-55q0 8 2.5 19t5.5 18q47 0 93 3t95 11q-11 -24 -22 -60.5t-20 -73t-15 -64.5l-35 -164q-6 -25 -4 -40.5t17 -15.5q14 0 30.5 14.5t38.5 47.5q9 -4 16 -8.5t14 -11.5q-25 -45 -64.5 -73t-83.5 -28zM71 695
h132q-5 -41 -2.5 -84t18.5 -92q-16 -3 -32 0q-12 31 -35 56.5t-45.5 54t-35.5 65.5z" />
    <glyph glyph-name="iacute" unicode="&#xed;" horiz-adv-x="302" 
d="M130 -15q-47 0 -63.5 32t-6.5 78l36 169q8 35 13 69.5t8 77.5h-55q0 8 2.5 19t5.5 18q47 0 93 3t95 11q-11 -24 -22 -60.5t-20 -73t-15 -64.5l-35 -164q-6 -25 -4 -40.5t17 -15.5q14 0 30.5 14.5t38.5 47.5q9 -4 16 -8.5t14 -11.5q-25 -45 -64.5 -73t-83.5 -28zM382 696
q-23 -37 -57.5 -65.5t-69 -54t-61.5 -56.5q-16 -3 -32 0q35 49 55 91.5t33 84.5h132z" />
    <glyph glyph-name="icircumflex" unicode="&#xee;" horiz-adv-x="302" 
d="M130 -15q-47 0 -63.5 32t-6.5 78l36 169q8 35 13 69.5t8 77.5h-55q0 8 2.5 19t5.5 18q47 0 93 3t95 11q-11 -24 -22 -60.5t-20 -73t-15 -64.5l-35 -164q-6 -25 -4 -40.5t17 -15.5q14 0 30.5 14.5t38.5 47.5q9 -4 16 -8.5t14 -11.5q-25 -45 -64.5 -73t-83.5 -28zM59 514
q-7 5 -10 10t-5 13q40 31 68 55.5t52.5 49t51.5 54.5q17 3 32 0q17 -33 29.5 -57.5t28.5 -48.5t44 -57q-6 -13 -19 -19q-40 21 -63 39t-53 40q-26 -14 -48.5 -26.5t-47.5 -25t-60 -27.5z" />
    <glyph glyph-name="idieresis" unicode="&#xef;" horiz-adv-x="302" 
d="M130 -15q-47 0 -63.5 32t-6.5 78l36 169q8 35 13 69.5t8 77.5h-55q0 8 2.5 19t5.5 18q47 0 93 3t95 11q-11 -24 -22 -60.5t-20 -73t-15 -64.5l-35 -164q-6 -25 -4 -40.5t17 -15.5q14 0 30.5 14.5t38.5 47.5q9 -4 16 -8.5t14 -11.5q-25 -45 -64.5 -73t-83.5 -28zM135 681
l53 -45l-15 -70l-67 -20l-53 45l15 71zM336 681l53 -45l-15 -70l-67 -20l-53 45l15 71z" />
    <glyph glyph-name="eth" unicode="&#xf0;" horiz-adv-x="534" 
d="M295 395q-40 0 -73.5 -36t-53.5 -95t-20 -126q0 -52 18 -82.5t58 -30.5l-11 -40q-85 0 -132 45.5t-47 125.5q0 79 35 142t94.5 100t133.5 37zM224 25q34 0 62 24.5t49 66t32 92.5q15 54 23.5 112.5t6.5 115.5t-19 106t-54.5 85t-100.5 53q2 11 5 20.5t8 17.5
q81 -21 133 -58.5t81 -85t40.5 -99t11.5 -100.5q0 -84 -21 -155.5t-59.5 -124t-91 -81.5t-117.5 -29zM367 208q12 54 7 96t-24.5 66.5t-54.5 24.5l2 40q83 0 118.5 -56.5t21.5 -170.5h-70zM493 708l-240 -198q-7 6 -12.5 13t-10.5 15l241 198q5 -5 11.5 -12.5t10.5 -15.5z
" />
    <glyph glyph-name="ntilde" unicode="&#xf1;" horiz-adv-x="583" 
d="M39 -5q9 32 15 58.5t12 52.5l33 158q8 35 13 69.5t8 77.5h-55q0 8 2.5 19t5.5 18q47 0 88.5 3t90.5 11q-12 -27 -20 -53.5t-13 -55.5t-9 -65l-40 -183q-5 -26 -8.5 -52t-5.5 -53q-30 0 -58 -1t-59 -4zM413 -15q-47 0 -64.5 32t-5.5 78l59 224q9 35 -0.5 54t-36.5 19
q-31 0 -61.5 -24t-56 -64.5t-45.5 -92t-32 -106.5h-28q29 135 73.5 213t97 111.5t106.5 33.5q60 0 83 -35t5 -104l-58 -224q-7 -25 -4 -40.5t17 -15.5t30.5 14.5t38.5 47.5q9 -4 16 -8.5t14 -11.5q-25 -45 -64.5 -73t-83.5 -28zM524 666q8 -2 15 -4.5t12 -7.5
q-22 -67 -56 -92t-68 -25q-24 0 -39.5 8.5t-27.5 19t-23.5 19t-26.5 8.5q-19 0 -35 -9.5t-33 -40.5q-8 1 -15.5 4.5t-11.5 7.5q22 67 55 92t68 25q22 0 38 -8.5t29 -19t25 -19t27 -8.5q18 0 34 10t33 40z" />
    <glyph glyph-name="ograve" unicode="&#xf2;" horiz-adv-x="537" 
d="M318 424q-40 0 -71.5 -27.5t-53 -70.5t-32.5 -91t-11 -90q0 -57 16.5 -88.5t52.5 -31.5l2 -40q-88 0 -136.5 48.5t-48.5 129.5q0 61 20.5 115t58.5 96t89.5 66t111.5 24zM219 25q41 0 72.5 27.5t52.5 70t32 91t11 89.5q0 58 -16.5 89.5t-52.5 31.5l-2 40
q88 0 136.5 -48.5t48.5 -130.5q0 -60 -20.5 -114.5t-58.5 -96t-89.5 -65.5t-111.5 -24zM203 695h132q-5 -41 -2.5 -84t18.5 -92q-16 -3 -32 0q-12 31 -35 56.5t-45.5 54t-35.5 65.5z" />
    <glyph glyph-name="oacute" unicode="&#xf3;" horiz-adv-x="537" 
d="M318 424q-40 0 -71.5 -27.5t-53 -70.5t-32.5 -91t-11 -90q0 -57 16.5 -88.5t52.5 -31.5l2 -40q-88 0 -136.5 48.5t-48.5 129.5q0 61 20.5 115t58.5 96t89.5 66t111.5 24zM219 25q41 0 72.5 27.5t52.5 70t32 91t11 89.5q0 58 -16.5 89.5t-52.5 31.5l-2 40
q88 0 136.5 -48.5t48.5 -130.5q0 -60 -20.5 -114.5t-58.5 -96t-89.5 -65.5t-111.5 -24zM514 696q-23 -37 -57.5 -65.5t-69 -54t-61.5 -56.5q-16 -3 -32 0q35 49 55 91.5t33 84.5h132z" />
    <glyph glyph-name="ocircumflex" unicode="&#xf4;" horiz-adv-x="537" 
d="M318 424q-40 0 -71.5 -27.5t-53 -70.5t-32.5 -91t-11 -90q0 -57 16.5 -88.5t52.5 -31.5l2 -40q-88 0 -136.5 48.5t-48.5 129.5q0 61 20.5 115t58.5 96t89.5 66t111.5 24zM219 25q41 0 72.5 27.5t52.5 70t32 91t11 89.5q0 58 -16.5 89.5t-52.5 31.5l-2 40
q88 0 136.5 -48.5t48.5 -130.5q0 -60 -20.5 -114.5t-58.5 -96t-89.5 -65.5t-111.5 -24zM190 514q-6 5 -9.5 10t-4.5 13q39 31 67.5 55.5t52.5 49t52 54.5q16 3 32 0q16 -33 28.5 -57.5t29 -48.5t44.5 -57q-6 -13 -19 -19q-41 21 -64 39t-52 40q-27 -14 -49 -26.5t-47 -25
t-61 -27.5z" />
    <glyph glyph-name="otilde" unicode="&#xf5;" horiz-adv-x="537" 
d="M318 424q-40 0 -71.5 -27.5t-53 -70.5t-32.5 -91t-11 -90q0 -57 16.5 -88.5t52.5 -31.5l2 -40q-88 0 -136.5 48.5t-48.5 129.5q0 61 20.5 115t58.5 96t89.5 66t111.5 24zM219 25q41 0 72.5 27.5t52.5 70t32 91t11 89.5q0 58 -16.5 89.5t-52.5 31.5l-2 40
q88 0 136.5 -48.5t48.5 -130.5q0 -60 -20.5 -114.5t-58.5 -96t-89.5 -65.5t-111.5 -24zM488 666q8 -2 15 -4.5t12 -7.5q-22 -67 -56 -92t-68 -25q-24 0 -39.5 8.5t-27.5 19t-23.5 19t-26.5 8.5q-19 0 -35 -9.5t-33 -40.5q-8 1 -15.5 4.5t-11.5 7.5q22 67 55 92t68 25
q22 0 38 -8.5t29 -19t25 -19t27 -8.5q18 0 34 10t33 40z" />
    <glyph glyph-name="odieresis" unicode="&#xf6;" horiz-adv-x="537" 
d="M318 424q-40 0 -71.5 -27.5t-53 -70.5t-32.5 -91t-11 -90q0 -57 16.5 -88.5t52.5 -31.5l2 -40q-88 0 -136.5 48.5t-48.5 129.5q0 61 20.5 115t58.5 96t89.5 66t111.5 24zM219 25q41 0 72.5 27.5t52.5 70t32 91t11 89.5q0 58 -16.5 89.5t-52.5 31.5l-2 40
q88 0 136.5 -48.5t48.5 -130.5q0 -60 -20.5 -114.5t-58.5 -96t-89.5 -65.5t-111.5 -24zM266 681l53 -45l-15 -70l-67 -20l-53 45l15 71zM467 681l53 -45l-15 -70l-67 -20l-53 45l15 71z" />
    <glyph glyph-name="divide" unicode="&#xf7;" horiz-adv-x="620" 
d="M575 340h-479q0 13 2 25t6 25h479q0 -13 -1.5 -25t-6.5 -25zM321 250l50 -43l-14 -66l-62 -18l-51 43l15 66zM391 606l50 -42l-14 -66l-62 -18l-51 42l15 67z" />
    <glyph glyph-name="oslash" unicode="&#xf8;" horiz-adv-x="538" 
d="M465 488q26 4 51 0q-12 -59 -46.5 -107t-81 -89t-96 -79.5t-94 -77t-74 -81t-35.5 -94.5q-26 -4 -51 0q13 59 47 107t80.5 89.5t96 80t93.5 76.5t74 81t36 94zM318 424q-40 0 -71.5 -27.5t-53 -70.5t-32.5 -91t-11 -90q0 -57 16.5 -88.5t52.5 -31.5l2 -40
q-88 0 -136.5 48.5t-48.5 129.5q0 61 20.5 115t58.5 96t89.5 66t111.5 24zM219 25q41 0 72.5 27.5t52.5 70t32 91t11 89.5q0 58 -16.5 89.5t-52.5 31.5l-2 40q88 0 136.5 -48.5t48.5 -130.5q0 -60 -20.5 -114.5t-58.5 -96t-89.5 -65.5t-111.5 -24z" />
    <glyph glyph-name="ugrave" unicode="&#xf9;" horiz-adv-x="577" 
d="M147 -15q-58 0 -79 36t-6 104l32 139q8 35 13 69.5t8 77.5h-55q0 8 2.5 19t5.5 18q47 0 93.5 3t94.5 11q-11 -24 -22 -60.5t-19.5 -73t-15.5 -64.5l-32 -135q-7 -34 1 -53.5t34 -19.5q30 0 58.5 24t53 64.5t44 92t31.5 106.5h28q-29 -134 -72.5 -212.5t-94.5 -112
t-103 -33.5zM406 -15q-47 0 -63.5 32t-6.5 78l53 248q5 27 9 53t5 52q30 0 58 1t58 4q-8 -31 -14 -57.5t-12 -53.5l-51 -242q-5 -25 -3 -40.5t17 -15.5q14 0 30 14.5t39 47.5q8 -4 15.5 -8.5t14.5 -11.5q-26 -45 -65.5 -73t-83.5 -28zM208 695h132q-5 -41 -2.5 -84t18.5 -92
q-16 -3 -32 0q-12 31 -35 56.5t-45.5 54t-35.5 65.5z" />
    <glyph glyph-name="uacute" unicode="&#xfa;" horiz-adv-x="577" 
d="M147 -15q-58 0 -79 36t-6 104l32 139q8 35 13 69.5t8 77.5h-55q0 8 2.5 19t5.5 18q47 0 93.5 3t94.5 11q-11 -24 -22 -60.5t-19.5 -73t-15.5 -64.5l-32 -135q-7 -34 1 -53.5t34 -19.5q30 0 58.5 24t53 64.5t44 92t31.5 106.5h28q-29 -134 -72.5 -212.5t-94.5 -112
t-103 -33.5zM406 -15q-47 0 -63.5 32t-6.5 78l53 248q5 27 9 53t5 52q30 0 58 1t58 4q-8 -31 -14 -57.5t-12 -53.5l-51 -242q-5 -25 -3 -40.5t17 -15.5q14 0 30 14.5t39 47.5q8 -4 15.5 -8.5t14.5 -11.5q-26 -45 -65.5 -73t-83.5 -28zM519 696q-23 -37 -57.5 -65.5t-69 -54
t-61.5 -56.5q-16 -3 -32 0q35 49 55 91.5t33 84.5h132z" />
    <glyph glyph-name="ucircumflex" unicode="&#xfb;" horiz-adv-x="577" 
d="M147 -15q-58 0 -79 36t-6 104l32 139q8 35 13 69.5t8 77.5h-55q0 8 2.5 19t5.5 18q47 0 93.5 3t94.5 11q-11 -24 -22 -60.5t-19.5 -73t-15.5 -64.5l-32 -135q-7 -34 1 -53.5t34 -19.5q30 0 58.5 24t53 64.5t44 92t31.5 106.5h28q-29 -134 -72.5 -212.5t-94.5 -112
t-103 -33.5zM406 -15q-47 0 -63.5 32t-6.5 78l53 248q5 27 9 53t5 52q30 0 58 1t58 4q-8 -31 -14 -57.5t-12 -53.5l-51 -242q-5 -25 -3 -40.5t17 -15.5q14 0 30 14.5t39 47.5q8 -4 15.5 -8.5t14.5 -11.5q-26 -45 -65.5 -73t-83.5 -28zM195 514q-6 5 -9.5 10t-4.5 13
q39 31 67.5 55.5t52.5 49t52 54.5q16 3 32 0q16 -33 28.5 -57.5t29 -48.5t44.5 -57q-6 -13 -19 -19q-41 21 -64 39t-52 40q-27 -14 -49 -26.5t-47 -25t-61 -27.5z" />
    <glyph glyph-name="udieresis" unicode="&#xfc;" horiz-adv-x="577" 
d="M147 -15q-58 0 -79 36t-6 104l32 139q8 35 13 69.5t8 77.5h-55q0 8 2.5 19t5.5 18q47 0 93.5 3t94.5 11q-11 -24 -22 -60.5t-19.5 -73t-15.5 -64.5l-32 -135q-7 -34 1 -53.5t34 -19.5q30 0 58.5 24t53 64.5t44 92t31.5 106.5h28q-29 -134 -72.5 -212.5t-94.5 -112
t-103 -33.5zM406 -15q-47 0 -63.5 32t-6.5 78l53 248q5 27 9 53t5 52q30 0 58 1t58 4q-8 -31 -14 -57.5t-12 -53.5l-51 -242q-5 -25 -3 -40.5t17 -15.5q14 0 30 14.5t39 47.5q8 -4 15.5 -8.5t14.5 -11.5q-26 -45 -65.5 -73t-83.5 -28zM271 681l53 -45l-15 -70l-67 -20
l-53 45l15 71zM472 681l53 -45l-15 -70l-67 -20l-53 45l15 71z" />
    <glyph glyph-name="yacute" unicode="&#xfd;" horiz-adv-x="541" 
d="M388 343h29q-22 -101 -51.5 -166.5t-64 -103t-71.5 -53t-74 -15.5q-61 0 -83 36t-7 104l27 119q9 35 14 69.5t8 77.5h-55q0 8 2.5 19t5.5 18q47 0 93 3t95 11q-11 -24 -22 -60.5t-20 -73.5t-16 -64l-27 -115q-8 -34 1 -53.5t36 -19.5q29 0 56 21t51 58t43 85t30 103z
M403 448q30 0 58 1t58 4q-8 -31 -14.5 -57.5t-11.5 -53.5l-54 -261q-21 -101 -70.5 -169t-117.5 -102.5t-145 -34.5q-66 0 -107 26t-41 77q0 31 15 55t38.5 42.5t50.5 32t50 22.5l25 -18q-43 -21 -66.5 -54t-23.5 -73q0 -32 17.5 -51t58.5 -19q52 0 93.5 29.5t71 83
t44.5 123.5l25 120l-1 20l32 152q6 27 10 53t5 52zM518 696q-23 -37 -57.5 -65.5t-69 -54t-61.5 -56.5q-16 -3 -32 0q35 49 55 91.5t33 84.5h132z" />
    <glyph glyph-name="thorn" unicode="&#xfe;" horiz-adv-x="543" 
d="M109 700q45 0 92.5 3t95.5 11q-11 -25 -22 -61.5t-20 -73t-15 -63.5l-48 -228l-34 -89l-4 -88l-46 -216q-6 -26 -9 -52t-5 -53q-31 0 -58.5 -1t-58.5 -4q9 32 15 58.5t11 52.5l132 620q9 37 14.5 74t6.5 73h-55q0 7 2.5 18.5t5.5 18.5zM371 463q65 0 101.5 -42t36.5 -117
q0 -59 -18 -116t-53.5 -102.5t-87 -73t-118.5 -27.5q-64 0 -109.5 27t-57.5 74l58 43q0 59 19 118t53 108t79 78.5t97 29.5zM323 398q-35 0 -64.5 -26t-51.5 -67t-34 -87t-12 -87q0 -50 17 -78t51 -28t64.5 27t53 70t35 90.5t12.5 87.5q0 49 -19.5 73.5t-51.5 24.5z" />
    <glyph glyph-name="ydieresis" unicode="&#xff;" horiz-adv-x="541" 
d="M388 343h29q-22 -101 -51.5 -166.5t-64 -103t-71.5 -53t-74 -15.5q-61 0 -83 36t-7 104l27 119q9 35 14 69.5t8 77.5h-55q0 8 2.5 19t5.5 18q47 0 93 3t95 11q-11 -24 -22 -60.5t-20 -73.5t-16 -64l-27 -115q-8 -34 1 -53.5t36 -19.5q29 0 56 21t51 58t43 85t30 103z
M403 448q30 0 58 1t58 4q-8 -31 -14.5 -57.5t-11.5 -53.5l-54 -261q-21 -101 -70.5 -169t-117.5 -102.5t-145 -34.5q-66 0 -107 26t-41 77q0 31 15 55t38.5 42.5t50.5 32t50 22.5l25 -18q-43 -21 -66.5 -54t-23.5 -73q0 -32 17.5 -51t58.5 -19q52 0 93.5 29.5t71 83
t44.5 123.5l25 120l-1 20l32 152q6 27 10 53t5 52zM271 681l53 -45l-15 -70l-67 -20l-53 45l15 71zM472 681l53 -45l-15 -70l-67 -20l-53 45l15 71z" />
    <glyph glyph-name="Amacron" unicode="&#x100;" horiz-adv-x="661" 
d="M-64 -2q0 8 2.5 19t5.5 18h52q33 45 61 87t55 88l186 309q15 25 36 59t43 71t40 71q11 2 25 2.5t28 0t23 -2.5l-120 -166l-207 -344q-22 -37 -44.5 -81.5t-38.5 -93.5h84q0 -7 -2.5 -18t-5.5 -19q-41 2 -75.5 2h-51.5h-39.5t-56.5 -2zM554 35h58q0 -7 -2.5 -18t-5.5 -19
q-34 2 -63 2h-70h-71t-70 -2q0 8 2.5 19t5.5 18h69q2 45 1 88t-6 87l-29 344l120 166q-1 -50 1 -98.5t8 -113.5l27 -298q4 -42 9 -84.5t16 -90.5zM431 233h-262l9 40h262zM607 785h-289q0 13 4.5 32t8.5 32h289q0 -13 -4 -32t-9 -32z" />
    <glyph glyph-name="amacron" unicode="&#x101;" horiz-adv-x="565" 
d="M397 -15q-47 0 -64 32t-7 78l15 69l40 84l7 134l98 66q16 3 32 0q-14 -40 -27.5 -91.5t-22.5 -92.5l-35 -164q-5 -25 -3.5 -40.5t16.5 -15.5q14 0 30.5 14.5t38.5 47.5q9 -4 16 -8.5t14 -11.5q-25 -45 -64.5 -73t-83.5 -28zM162 -15q-61 0 -94.5 42.5t-33.5 120.5
q0 58 19 114t54.5 101.5t87 72.5t117.5 27q64 0 106.5 -27t54.5 -73l-64 -43q0 -59 -18.5 -118t-52.5 -108.5t-78.5 -79t-97.5 -29.5zM214 51q33 0 62 25.5t50.5 66.5t33.5 88.5t12 90.5q0 46 -13 73.5t-46 27.5t-63 -27t-52.5 -69.5t-35.5 -90t-13 -88.5q0 -49 17 -73
t48 -24zM486 540h-288q0 13 4.5 32t8.5 32h288q0 -13 -4 -32t-9 -32z" />
    <glyph glyph-name="Abreve" unicode="&#x102;" horiz-adv-x="661" 
d="M-64 -2q0 8 2.5 19t5.5 18h52q33 45 61 87t55 88l186 309q15 25 36 59t43 71t40 71q11 2 25 2.5t28 0t23 -2.5l-120 -166l-207 -344q-22 -37 -44.5 -81.5t-38.5 -93.5h84q0 -7 -2.5 -18t-5.5 -19q-41 2 -75.5 2h-51.5h-39.5t-56.5 -2zM554 35h58q0 -7 -2.5 -18t-5.5 -19
q-34 2 -63 2h-70h-71t-70 -2q0 8 2.5 19t5.5 18h69q2 45 1 88t-6 87l-29 344l120 166q-1 -50 1 -98.5t8 -113.5l27 -298q4 -42 9 -84.5t16 -90.5zM431 233h-262l9 40h262zM606 927q16 3 32 0q-17 -82 -62.5 -119.5t-104.5 -37.5q-65 0 -96.5 42.5t-25.5 114.5q16 3 32 0
q3 -41 29.5 -58t68.5 -17q40 0 73.5 16.5t53.5 58.5z" />
    <glyph glyph-name="abreve" unicode="&#x103;" horiz-adv-x="565" 
d="M397 -15q-47 0 -64 32t-7 78l15 69l40 84l7 134l98 66q16 3 32 0q-14 -40 -27.5 -91.5t-22.5 -92.5l-35 -164q-5 -25 -3.5 -40.5t16.5 -15.5q14 0 30.5 14.5t38.5 47.5q9 -4 16 -8.5t14 -11.5q-25 -45 -64.5 -73t-83.5 -28zM162 -15q-61 0 -94.5 42.5t-33.5 120.5
q0 58 19 114t54.5 101.5t87 72.5t117.5 27q64 0 106.5 -27t54.5 -73l-64 -43q0 -59 -18.5 -118t-52.5 -108.5t-78.5 -79t-97.5 -29.5zM214 51q33 0 62 25.5t50.5 66.5t33.5 88.5t12 90.5q0 46 -13 73.5t-46 27.5t-63 -27t-52.5 -69.5t-35.5 -90t-13 -88.5q0 -49 17 -73
t48 -24zM483 688q16 3 32 0q-19 -90 -63 -129.5t-104 -39.5q-68 0 -97 45t-20 124q16 3 32 0q1 -48 26 -69t67 -21q39 0 72.5 20.5t54.5 69.5z" />
    <glyph glyph-name="Aogonek" unicode="&#x104;" horiz-adv-x="661" 
d="M-64 -2q0 8 2.5 19t5.5 18h52q33 45 61 87t55 88l186 309q15 25 36 59t43 71t40 71q11 2 25 2.5t28 0t23 -2.5l-120 -166l-207 -344q-22 -37 -44.5 -81.5t-38.5 -93.5h84q0 -7 -2.5 -18t-5.5 -19q-41 2 -75.5 2h-51.5h-39.5t-56.5 -2zM554 35h58q0 -7 -2.5 -18t-5.5 -19
q-34 2 -63 2h-70h-71t-70 -2q0 8 2.5 19t5.5 18h69q2 45 1 88t-6 87l-29 344l120 166q-1 -50 1 -98.5t8 -113.5l27 -298q4 -42 9 -84.5t16 -90.5zM431 233h-262l9 40h262zM381 -225q-38 0 -65 21t-27 53q0 47 31 80t80 55.5t104 36.5l14 -21q-62 -20 -97 -55t-35 -76
q0 -17 10.5 -27.5t31.5 -10.5q11 0 26.5 4.5t34.5 15.5q6 -6 8.5 -14t3.5 -15q-23 -19 -55.5 -33t-64.5 -14z" />
    <glyph glyph-name="aogonek" unicode="&#x105;" horiz-adv-x="565" 
d="M321 -225q-38 0 -65 21t-27 53q0 47 31 78.5t80 53t104 36.5l14 -17q-62 -20 -97 -55t-35 -76q0 -17 10.5 -27.5t31.5 -10.5q11 0 26.5 4.5t34.5 15.5q6 -6 8.5 -14t3.5 -15q-23 -19 -55.5 -33t-64.5 -14zM397 -15q-47 0 -64 32t-7 78l15 69l40 84l7 134l98 66q16 3 32 0
q-14 -40 -27.5 -91.5t-22.5 -92.5l-35 -164q-5 -25 -3.5 -40.5t16.5 -15.5q14 0 30.5 14.5t38.5 47.5q9 -4 16 -8.5t14 -11.5q-25 -45 -64.5 -73t-83.5 -28zM162 -15q-61 0 -94.5 42.5t-33.5 120.5q0 58 19 114t54.5 101.5t87 72.5t117.5 27q64 0 106.5 -27t54.5 -73
l-64 -43q0 -59 -18.5 -118t-52.5 -108.5t-78.5 -79t-97.5 -29.5zM214 51q33 0 62 25.5t50.5 66.5t33.5 88.5t12 90.5q0 46 -13 73.5t-46 27.5t-63 -27t-52.5 -69.5t-35.5 -90t-13 -88.5q0 -49 17 -73t48 -24z" />
    <glyph glyph-name="Cacute" unicode="&#x106;" horiz-adv-x="703" 
d="M381 -15q-149 0 -229.5 76.5t-80.5 221.5q0 85 29 162.5t85.5 138.5t139.5 96t190 35q67 0 123.5 -13.5t96.5 -31.5l-38 -179q-16 -3 -32 0q2 96 -42 139t-121 43q-90 0 -154.5 -52t-98 -141.5t-33.5 -204.5q0 -72 15 -128t52 -88t99 -32q70 0 129.5 44.5t104.5 140.5
q16 3 32 0l-38 -176q-47 -23 -105 -37t-124 -14zM748 931q-28 -41 -66.5 -67t-78 -46.5t-70.5 -47.5q-16 -3 -32 0q35 38 60 75.5t45 85.5h142z" />
    <glyph glyph-name="cacute" unicode="&#x107;" horiz-adv-x="465" 
d="M204 -15q-76 0 -122 48.5t-46 129.5q0 61 21 115t59 96t89.5 66t112.5 24q43 0 76.5 -11t57.5 -30l-31 -143q-16 -3 -32 0q0 68 -17 106t-59 38q-39 0 -69 -26.5t-51.5 -68t-32 -89.5t-10.5 -90q0 -55 22.5 -81t62.5 -26q29 0 66.5 19t76.5 74q9 -4 16 -8.5t14 -11.5
q-42 -70 -94 -100.5t-110 -30.5zM512 696q-23 -37 -57.5 -65.5t-69 -54t-61.5 -56.5q-16 -3 -32 0q35 49 55 91.5t33 84.5h132z" />
    <glyph glyph-name="Ccircumflex" unicode="&#x108;" horiz-adv-x="703" 
d="M381 -15q-149 0 -229.5 76.5t-80.5 221.5q0 85 29 162.5t85.5 138.5t139.5 96t190 35q67 0 123.5 -13.5t96.5 -31.5l-38 -179q-16 -3 -32 0q2 96 -42 139t-121 43q-90 0 -154.5 -52t-98 -141.5t-33.5 -204.5q0 -72 15 -128t52 -88t99 -32q70 0 129.5 44.5t104.5 140.5
q16 3 32 0l-38 -176q-47 -23 -105 -37t-124 -14zM376 762q-5 5 -8.5 10t-4.5 13q36 23 61 40.5t44.5 33t38.5 33t41 39.5q17 3 32 0q17 -29 30.5 -50.5t34 -44.5t55.5 -55q-6 -13 -16 -19q-31 12 -53 22t-40.5 21t-41.5 25q-28 -13 -53.5 -24t-53.5 -21.5t-66 -22.5z" />
    <glyph glyph-name="ccircumflex" unicode="&#x109;" horiz-adv-x="465" 
d="M204 -15q-76 0 -122 48.5t-46 129.5q0 61 21 115t59 96t89.5 66t112.5 24q43 0 76.5 -11t57.5 -30l-31 -143q-16 -3 -32 0q0 68 -17 106t-59 38q-39 0 -69 -26.5t-51.5 -68t-32 -89.5t-10.5 -90q0 -55 22.5 -81t62.5 -26q29 0 66.5 19t76.5 74q9 -4 16 -8.5t14 -11.5
q-42 -70 -94 -100.5t-110 -30.5zM188 514q-6 5 -9.5 10t-4.5 13q40 31 68 55.5t52.5 49t51.5 54.5q16 3 32 0q16 -33 28.5 -57.5t29 -48.5t44.5 -57q-6 -13 -19 -19q-40 21 -63.5 39t-52.5 40q-27 -14 -49 -26.5t-47 -25t-61 -27.5z" />
    <glyph glyph-name="Cdotaccent" unicode="&#x10a;" horiz-adv-x="703" 
d="M381 -15q-149 0 -229.5 76.5t-80.5 221.5q0 85 29 162.5t85.5 138.5t139.5 96t190 35q67 0 123.5 -13.5t96.5 -31.5l-38 -179q-16 -3 -32 0q2 96 -42 139t-121 43q-90 0 -154.5 -52t-98 -141.5t-33.5 -204.5q0 -72 15 -128t52 -88t99 -32q70 0 129.5 44.5t104.5 140.5
q16 3 32 0l-38 -176q-47 -23 -105 -37t-124 -14zM565 915l54 -45l-15 -71l-67 -19l-54 45l16 71z" />
    <glyph glyph-name="cdotaccent" unicode="&#x10b;" horiz-adv-x="465" 
d="M204 -15q-76 0 -122 48.5t-46 129.5q0 61 21 115t59 96t89.5 66t112.5 24q43 0 76.5 -11t57.5 -30l-31 -143q-16 -3 -32 0q0 68 -17 106t-59 38q-39 0 -69 -26.5t-51.5 -68t-32 -89.5t-10.5 -90q0 -55 22.5 -81t62.5 -26q29 0 66.5 19t76.5 74q9 -4 16 -8.5t14 -11.5
q-42 -70 -94 -100.5t-110 -30.5zM364 681l53 -45l-15 -70l-67 -20l-53 45l15 71z" />
    <glyph glyph-name="Ccaron" unicode="&#x10c;" horiz-adv-x="703" 
d="M381 -15q-149 0 -229.5 76.5t-80.5 221.5q0 85 29 162.5t85.5 138.5t139.5 96t190 35q67 0 123.5 -13.5t96.5 -31.5l-38 -179q-16 -3 -32 0q2 96 -42 139t-121 43q-90 0 -154.5 -52t-98 -141.5t-33.5 -204.5q0 -72 15 -128t52 -88t99 -32q70 0 129.5 44.5t104.5 140.5
q16 3 32 0l-38 -176q-47 -23 -105 -37t-124 -14zM728 939q5 -4 9 -9.5t5 -13.5q-36 -23 -61.5 -40t-45 -32.5t-38 -33t-41.5 -40.5q-16 -3 -32 0q-15 29 -29.5 51t-35 45t-55.5 54q6 13 16 19q31 -11 53 -21.5t41 -21.5t41 -25q29 14 54 25t53.5 21.5t65.5 21.5z" />
    <glyph glyph-name="ccaron" unicode="&#x10d;" horiz-adv-x="465" 
d="M204 -15q-76 0 -122 48.5t-46 129.5q0 61 21 115t59 96t89.5 66t112.5 24q43 0 76.5 -11t57.5 -30l-31 -143q-16 -3 -32 0q0 68 -17 106t-59 38q-39 0 -69 -26.5t-51.5 -68t-32 -89.5t-10.5 -90q0 -55 22.5 -81t62.5 -26q29 0 66.5 19t76.5 74q9 -4 16 -8.5t14 -11.5
q-42 -70 -94 -100.5t-110 -30.5zM508 702q7 -4 10.5 -9t4.5 -14q-40 -31 -68 -55.5t-52 -48.5t-52 -55q-17 -3 -32 0q-16 34 -29 58t-29 48t-44 57q6 13 19 19q40 -21 63 -39t53 -41q27 15 49 27.5t47 25.5t60 27z" />
    <glyph glyph-name="Dcaron" unicode="&#x10e;" horiz-adv-x="798" 
d="M287 700h189q146 0 226.5 -65.5t80.5 -197.5q0 -95 -35.5 -175.5t-100 -138.5t-151.5 -90.5t-189 -32.5h-169h-71.5t-72.5 -2q0 8 2.5 19t5.5 18h70q15 45 26.5 89.5t20.5 85.5l60 280q9 43 16 85.5t11 89.5h-70q0 8 2.5 19t5.5 18q34 -1 71.5 -1.5t71.5 -0.5zM220 40h94
q73 0 132.5 29.5t102.5 82.5t66.5 123.5t23.5 152.5q0 114 -41.5 173t-139.5 59h-106q-15 -46 -25 -83t-21 -87l-60 -280q-8 -39 -14.5 -80t-11.5 -90zM701 939q5 -4 9 -9.5t5 -13.5q-36 -23 -61.5 -40t-45 -32.5t-38 -33t-41.5 -40.5q-16 -3 -32 0q-15 29 -29.5 51t-35 45
t-55.5 54q6 13 16 19q31 -11 53 -21.5t41 -21.5t41 -25q29 14 54 25t53.5 21.5t65.5 21.5z" />
    <glyph glyph-name="dcaron" unicode="&#x10f;" horiz-adv-x="619" 
d="M627 697l57 24l44 -45l-12 -53q-25 -42 -41 -80.5t-30 -76.5q-14 0 -28 6q3 40 4 81.5t-6 90.5zM407 -15q-47 0 -63 32t-6 78l12 58l39 87l-5 77l42 199q9 37 14.5 74t6.5 73h-55q0 7 2.5 18.5t5.5 18.5q45 0 92.5 3t95.5 11q-11 -25 -22 -61.5t-20 -73t-15 -63.5
l-88 -416q-5 -25 -3 -40.5t17 -15.5q14 0 30.5 14.5t38.5 47.5q8 -4 15.5 -8.5t14.5 -11.5q-26 -45 -65 -73t-84 -28zM172 -15q-65 0 -101.5 42.5t-36.5 116.5q0 60 18 116.5t53.5 102.5t87 73t118.5 27q64 0 110 -26.5t57 -73.5l-59 -43q0 -59 -18.5 -118t-53 -108.5
t-79 -79t-96.5 -29.5zM220 51q35 0 64.5 25.5t51.5 66.5t34 87.5t12 86.5q0 51 -17 78.5t-51 27.5q-35 0 -65 -27t-52.5 -69.5t-35 -90t-12.5 -87.5q0 -49 19 -73.5t52 -24.5z" />
    <glyph glyph-name="Dcroat" unicode="&#x110;" horiz-adv-x="809" 
d="M473 340h-427q0 13 3 25t7 25h427q0 -13 -2.5 -25t-7.5 -25zM298 700h189q146 0 226.5 -65.5t80.5 -197.5q0 -95 -35.5 -175.5t-100 -138.5t-151.5 -90.5t-189 -32.5h-169h-71.5t-72.5 -2q0 8 2.5 19t5.5 18h70q15 45 26.5 89.5t20.5 85.5l60 280q9 43 16 85.5t11 89.5
h-70q0 8 2.5 19t5.5 18q34 -1 71.5 -1.5t71.5 -0.5zM231 40h94q73 0 132.5 29.5t102.5 82.5t66.5 123.5t23.5 152.5q0 114 -41.5 173t-139.5 59h-106q-15 -46 -25 -83t-21 -87l-60 -280q-8 -39 -14.5 -80t-11.5 -90z" />
    <glyph glyph-name="dcroat" unicode="&#x111;" horiz-adv-x="574" 
d="M612 534h-321q0 13 3 25t7 25h321q0 -13 -2.5 -25t-7.5 -25zM407 -15q-47 0 -63 32t-6 78l12 58l39 87l-5 77l42 199q9 37 14.5 74t6.5 73h-55q0 7 2.5 18.5t5.5 18.5q45 0 92.5 3t95.5 11q-11 -25 -22 -61.5t-20 -73t-15 -63.5l-88 -416q-5 -25 -3 -40.5t17 -15.5
q14 0 30.5 14.5t38.5 47.5q8 -4 15.5 -8.5t14.5 -11.5q-26 -45 -65 -73t-84 -28zM172 -15q-65 0 -101.5 42.5t-36.5 116.5q0 60 18 116.5t53.5 102.5t87 73t118.5 27q64 0 110 -26.5t57 -73.5l-59 -43q0 -59 -18.5 -118t-53 -108.5t-79 -79t-96.5 -29.5zM220 51
q35 0 64.5 25.5t51.5 66.5t34 87.5t12 86.5q0 51 -17 78.5t-51 27.5q-35 0 -65 -27t-52.5 -69.5t-35 -90t-12.5 -87.5q0 -49 19 -73.5t52 -24.5z" />
    <glyph glyph-name="Emacron" unicode="&#x112;" horiz-adv-x="616" 
d="M-6 -2q0 8 2.5 19t5.5 18h70q15 45 26.5 89.5t20.5 85.5l60 280q9 43 16 85.5t11 89.5h-70q0 8 2.5 19t5.5 18q34 -1 71.5 -1.5t71.5 -0.5h350l-40 -187q-16 -3 -32 0q9 52 0 84.5t-37 47.5t-76 15h-100q-15 -46 -25 -83t-21 -87l-60 -280q-8 -39 -14.5 -80t-11.5 -90
h135q52 0 87 19t56.5 52t32.5 76q16 3 32 0l-40 -187h-385h-71.5t-72.5 -2zM442 256q8 47 -4.5 65.5t-49.5 18.5h-177l8 40h177q38 0 58 19t31 65q16 3 32 0l-43 -208q-17 -3 -32 0zM584 785h-289q0 13 4.5 32t8.5 32h289q0 -13 -4 -32t-9 -32z" />
    <glyph glyph-name="emacron" unicode="&#x113;" horiz-adv-x="481" 
d="M236 43q29 0 72.5 19t91.5 74q9 -4 16 -8.5t14 -11.5q-50 -70 -109 -100.5t-117 -30.5q-79 0 -124 46t-45 126q0 64 20.5 119t59 97.5t92 66t118.5 23.5q54 0 84.5 -12.5t44 -32t13.5 -42.5q0 -41 -28 -73t-77 -55.5t-110 -38t-126 -20.5l-3 37q67 4 120 23.5t84.5 51
t31.5 67.5q0 26 -13 41t-39 15q-38 0 -68.5 -27.5t-52 -70.5t-32.5 -90.5t-11 -87.5q0 -56 24 -80.5t69 -24.5zM479 540h-288q0 13 4.5 32t8.5 32h288q0 -13 -4 -32t-9 -32z" />
    <glyph glyph-name="Ebreve" unicode="&#x114;" horiz-adv-x="616" 
d="M-6 -2q0 8 2.5 19t5.5 18h70q15 45 26.5 89.5t20.5 85.5l60 280q9 43 16 85.5t11 89.5h-70q0 8 2.5 19t5.5 18q34 -1 71.5 -1.5t71.5 -0.5h350l-40 -187q-16 -3 -32 0q9 52 0 84.5t-37 47.5t-76 15h-100q-15 -46 -25 -83t-21 -87l-60 -280q-8 -39 -14.5 -80t-11.5 -90
h135q52 0 87 19t56.5 52t32.5 76q16 3 32 0l-40 -187h-385h-71.5t-72.5 -2zM442 256q8 47 -4.5 65.5t-49.5 18.5h-177l8 40h177q38 0 58 19t31 65q16 3 32 0l-43 -208q-17 -3 -32 0zM583 927q16 3 32 0q-17 -82 -62.5 -119.5t-104.5 -37.5q-65 0 -96.5 42.5t-25.5 114.5
q16 3 32 0q3 -41 29.5 -58t68.5 -17q40 0 73.5 16.5t53.5 58.5z" />
    <glyph glyph-name="ebreve" unicode="&#x115;" horiz-adv-x="481" 
d="M236 43q29 0 72.5 19t91.5 74q9 -4 16 -8.5t14 -11.5q-50 -70 -109 -100.5t-117 -30.5q-79 0 -124 46t-45 126q0 64 20.5 119t59 97.5t92 66t118.5 23.5q54 0 84.5 -12.5t44 -32t13.5 -42.5q0 -41 -28 -73t-77 -55.5t-110 -38t-126 -20.5l-3 37q67 4 120 23.5t84.5 51
t31.5 67.5q0 26 -13 41t-39 15q-38 0 -68.5 -27.5t-52 -70.5t-32.5 -90.5t-11 -87.5q0 -56 24 -80.5t69 -24.5zM476 688q16 3 32 0q-19 -90 -63 -129.5t-104 -39.5q-68 0 -97 45t-20 124q16 3 32 0q1 -48 26 -69t67 -21q39 0 72.5 20.5t54.5 69.5z" />
    <glyph glyph-name="Edotaccent" unicode="&#x116;" horiz-adv-x="616" 
d="M-6 -2q0 8 2.5 19t5.5 18h70q15 45 26.5 89.5t20.5 85.5l60 280q9 43 16 85.5t11 89.5h-70q0 8 2.5 19t5.5 18q34 -1 71.5 -1.5t71.5 -0.5h350l-40 -187q-16 -3 -32 0q9 52 0 84.5t-37 47.5t-76 15h-100q-15 -46 -25 -83t-21 -87l-60 -280q-8 -39 -14.5 -80t-11.5 -90
h135q52 0 87 19t56.5 52t32.5 76q16 3 32 0l-40 -187h-385h-71.5t-72.5 -2zM442 256q8 47 -4.5 65.5t-49.5 18.5h-177l8 40h177q38 0 58 19t31 65q16 3 32 0l-43 -208q-17 -3 -32 0zM467 915l54 -45l-15 -71l-67 -19l-54 45l16 71z" />
    <glyph glyph-name="edotaccent" unicode="&#x117;" horiz-adv-x="481" 
d="M236 43q29 0 72.5 19t91.5 74q9 -4 16 -8.5t14 -11.5q-50 -70 -109 -100.5t-117 -30.5q-79 0 -124 46t-45 126q0 64 20.5 119t59 97.5t92 66t118.5 23.5q54 0 84.5 -12.5t44 -32t13.5 -42.5q0 -41 -28 -73t-77 -55.5t-110 -38t-126 -20.5l-3 37q67 4 120 23.5t84.5 51
t31.5 67.5q0 26 -13 41t-39 15q-38 0 -68.5 -27.5t-52 -70.5t-32.5 -90.5t-11 -87.5q0 -56 24 -80.5t69 -24.5zM364 681l53 -45l-15 -70l-67 -20l-53 45l15 71z" />
    <glyph glyph-name="Eogonek" unicode="&#x118;" horiz-adv-x="616" 
d="M-6 -2q0 8 2.5 19t5.5 18h70q15 45 26.5 89.5t20.5 85.5l60 280q9 43 16 85.5t11 89.5h-70q0 8 2.5 19t5.5 18q34 -1 71.5 -1.5t71.5 -0.5h350l-40 -187q-16 -3 -32 0q9 52 0 84.5t-37 47.5t-76 15h-100q-15 -46 -25 -83t-21 -87l-60 -280q-8 -39 -14.5 -80t-11.5 -90
h135q52 0 87 19t56.5 52t32.5 76q16 3 32 0l-40 -187h-385h-71.5t-72.5 -2zM442 256q8 47 -4.5 65.5t-49.5 18.5h-177l8 40h177q38 0 58 19t31 65q16 3 32 0l-43 -208q-17 -3 -32 0zM351 -225q-38 0 -65 21t-27 53q0 47 31 80t80 55.5t104 36.5l14 -21q-62 -20 -97 -55
t-35 -76q0 -17 10.5 -27.5t31.5 -10.5q11 0 26.5 4.5t34.5 15.5q6 -6 8.5 -14t3.5 -15q-23 -19 -55.5 -33t-64.5 -14z" />
    <glyph glyph-name="eogonek" unicode="&#x119;" horiz-adv-x="481" 
d="M149 -225q-38 0 -64.5 21t-26.5 53q0 47 30.5 78.5t80 53t104.5 36.5l14 -17q-62 -20 -97 -55t-35 -76q0 -17 10 -27.5t31 -10.5q12 0 27.5 4.5t34.5 15.5q6 -6 8.5 -14t3.5 -15q-23 -19 -55.5 -33t-65.5 -14zM236 43q29 0 72.5 19t91.5 74q9 -4 16 -8.5t14 -11.5
q-50 -70 -109 -100.5t-117 -30.5q-79 0 -124 46t-45 126q0 64 20.5 119t59 97.5t92 66t118.5 23.5q54 0 84.5 -12.5t44 -32t13.5 -42.5q0 -41 -28 -73t-77 -55.5t-110 -38t-126 -20.5l-3 37q67 4 120 23.5t84.5 51t31.5 67.5q0 26 -13 41t-39 15q-38 0 -68.5 -27.5
t-52 -70.5t-32.5 -90.5t-11 -87.5q0 -56 24 -80.5t69 -24.5z" />
    <glyph glyph-name="Ecaron" unicode="&#x11a;" horiz-adv-x="616" 
d="M-6 -2q0 8 2.5 19t5.5 18h70q15 45 26.5 89.5t20.5 85.5l60 280q9 43 16 85.5t11 89.5h-70q0 8 2.5 19t5.5 18q34 -1 71.5 -1.5t71.5 -0.5h350l-40 -187q-16 -3 -32 0q9 52 0 84.5t-37 47.5t-76 15h-100q-15 -46 -25 -83t-21 -87l-60 -280q-8 -39 -14.5 -80t-11.5 -90
h135q52 0 87 19t56.5 52t32.5 76q16 3 32 0l-40 -187h-385h-71.5t-72.5 -2zM442 256q8 47 -4.5 65.5t-49.5 18.5h-177l8 40h177q38 0 58 19t31 65q16 3 32 0l-43 -208q-17 -3 -32 0zM630 939q5 -4 9 -9.5t5 -13.5q-36 -23 -61.5 -40t-45 -32.5t-38 -33t-41.5 -40.5
q-16 -3 -32 0q-15 29 -29.5 51t-35 45t-55.5 54q6 13 16 19q31 -11 53 -21.5t41 -21.5t41 -25q29 14 54 25t53.5 21.5t65.5 21.5z" />
    <glyph glyph-name="ecaron" unicode="&#x11b;" horiz-adv-x="481" 
d="M236 43q29 0 72.5 19t91.5 74q9 -4 16 -8.5t14 -11.5q-50 -70 -109 -100.5t-117 -30.5q-79 0 -124 46t-45 126q0 64 20.5 119t59 97.5t92 66t118.5 23.5q54 0 84.5 -12.5t44 -32t13.5 -42.5q0 -41 -28 -73t-77 -55.5t-110 -38t-126 -20.5l-3 37q67 4 120 23.5t84.5 51
t31.5 67.5q0 26 -13 41t-39 15q-38 0 -68.5 -27.5t-52 -70.5t-32.5 -90.5t-11 -87.5q0 -56 24 -80.5t69 -24.5zM508 702q7 -4 10.5 -9t4.5 -14q-40 -31 -68 -55.5t-52 -48.5t-52 -55q-17 -3 -32 0q-16 34 -29 58t-29 48t-44 57q6 13 19 19q40 -21 63 -39t53 -41
q27 15 49 27.5t47 25.5t60 27z" />
    <glyph glyph-name="Gcircumflex" unicode="&#x11c;" horiz-adv-x="766" 
d="M380 -15q-150 0 -229 76t-79 220q0 96 33 176t94 137.5t145.5 89t186.5 31.5q67 0 124 -12.5t96 -32.5l-38 -179q-16 -3 -32 0q2 96 -42 139t-122 43q-86 0 -154.5 -46t-107.5 -134t-39 -215q0 -76 17 -132.5t55.5 -87.5t103.5 -31q35 0 71.5 10.5t61.5 29.5
q15 61 23.5 107.5t12.5 90.5h-81q0 8 2.5 19t5.5 18q35 -1 72.5 -1.5t70.5 -0.5q35 0 63.5 0.5t62.5 1.5q0 -8 -2.5 -18.5t-5.5 -18.5h-52q-9 -31 -18.5 -63t-18.5 -70t-20 -88q-60 -28 -125 -43.5t-135 -15.5zM386 762q-5 5 -8 10t-5 13q36 23 61 40.5t44.5 33t38.5 33
t41 39.5q17 3 32 0q17 -29 30.5 -50.5t34 -44.5t55.5 -55q-6 -13 -16 -19q-31 12 -53 22t-40.5 21t-41.5 25q-28 -13 -53.5 -24t-53.5 -21.5t-66 -22.5z" />
    <glyph glyph-name="gcircumflex" unicode="&#x11d;" horiz-adv-x="544" 
d="M174 5q-65 0 -101.5 38.5t-36.5 111.5q0 59 18 114t53 99t85.5 69.5t116.5 25.5q67 0 107 -24.5t61 -61.5l-56 -58q0 -58 -18 -114t-51.5 -101t-79 -72t-98.5 -27zM221 66q37 0 67 24t51.5 61.5t33 81.5t11.5 84q0 51 -18.5 78.5t-53.5 27.5q-36 0 -65.5 -25.5t-51 -67
t-33 -87t-11.5 -85.5q0 -46 19 -69t51 -23zM108 -225q-66 0 -107 26t-41 77q0 31 15 55t38.5 42.5t50.5 32t50 22.5l25 -18q-43 -21 -66.5 -54t-23.5 -73q0 -32 17.5 -51t58.5 -19q52 0 93.5 29.5t70.5 83t44 123.5l16 71l50 123v137l98 66q16 3 32 0q-14 -38 -28 -90.5
t-22 -93.5l-38 -183q-21 -101 -70.5 -169t-117 -102.5t-145.5 -34.5zM186 514q-6 5 -9 10t-5 13q40 31 68 55.5t52.5 49t51.5 54.5q17 3 32 0q17 -33 29 -57.5t28.5 -48.5t44.5 -57q-6 -13 -19 -19q-40 21 -63 39t-53 40q-26 -14 -48.5 -26.5t-47.5 -25t-61 -27.5z" />
    <glyph glyph-name="Gbreve" unicode="&#x11e;" horiz-adv-x="766" 
d="M380 -15q-150 0 -229 76t-79 220q0 96 33 176t94 137.5t145.5 89t186.5 31.5q67 0 124 -12.5t96 -32.5l-38 -179q-16 -3 -32 0q2 96 -42 139t-122 43q-86 0 -154.5 -46t-107.5 -134t-39 -215q0 -76 17 -132.5t55.5 -87.5t103.5 -31q35 0 71.5 10.5t61.5 29.5
q15 61 23.5 107.5t12.5 90.5h-81q0 8 2.5 19t5.5 18q35 -1 72.5 -1.5t70.5 -0.5q35 0 63.5 0.5t62.5 1.5q0 -8 -2.5 -18.5t-5.5 -18.5h-52q-9 -31 -18.5 -63t-18.5 -70t-20 -88q-60 -28 -125 -43.5t-135 -15.5zM691 927q16 3 32 0q-17 -82 -62.5 -119.5t-104.5 -37.5
q-65 0 -96.5 42.5t-25.5 114.5q16 3 32 0q3 -41 29.5 -58t68.5 -17q40 0 73.5 16.5t53.5 58.5z" />
    <glyph glyph-name="gbreve" unicode="&#x11f;" horiz-adv-x="544" 
d="M174 5q-65 0 -101.5 38.5t-36.5 111.5q0 59 18 114t53 99t85.5 69.5t116.5 25.5q67 0 107 -24.5t61 -61.5l-56 -58q0 -58 -18 -114t-51.5 -101t-79 -72t-98.5 -27zM221 66q37 0 67 24t51.5 61.5t33 81.5t11.5 84q0 51 -18.5 78.5t-53.5 27.5q-36 0 -65.5 -25.5t-51 -67
t-33 -87t-11.5 -85.5q0 -46 19 -69t51 -23zM108 -225q-66 0 -107 26t-41 77q0 31 15 55t38.5 42.5t50.5 32t50 22.5l25 -18q-43 -21 -66.5 -54t-23.5 -73q0 -32 17.5 -51t58.5 -19q52 0 93.5 29.5t70.5 83t44 123.5l16 71l50 123v137l98 66q16 3 32 0q-14 -38 -28 -90.5
t-22 -93.5l-38 -183q-21 -101 -70.5 -169t-117 -102.5t-145.5 -34.5zM474 688q16 3 32 0q-19 -90 -63 -129.5t-104 -39.5q-68 0 -97 45t-20 124q16 3 32 0q1 -48 26 -69t67 -21q39 0 72.5 20.5t54.5 69.5z" />
    <glyph glyph-name="Gdotaccent" unicode="&#x120;" horiz-adv-x="766" 
d="M380 -15q-150 0 -229 76t-79 220q0 96 33 176t94 137.5t145.5 89t186.5 31.5q67 0 124 -12.5t96 -32.5l-38 -179q-16 -3 -32 0q2 96 -42 139t-122 43q-86 0 -154.5 -46t-107.5 -134t-39 -215q0 -76 17 -132.5t55.5 -87.5t103.5 -31q35 0 71.5 10.5t61.5 29.5
q15 61 23.5 107.5t12.5 90.5h-81q0 8 2.5 19t5.5 18q35 -1 72.5 -1.5t70.5 -0.5q35 0 63.5 0.5t62.5 1.5q0 -8 -2.5 -18.5t-5.5 -18.5h-52q-9 -31 -18.5 -63t-18.5 -70t-20 -88q-60 -28 -125 -43.5t-135 -15.5zM575 915l54 -45l-15 -71l-67 -19l-54 45l16 71z" />
    <glyph glyph-name="gdotaccent" unicode="&#x121;" horiz-adv-x="544" 
d="M174 5q-65 0 -101.5 38.5t-36.5 111.5q0 59 18 114t53 99t85.5 69.5t116.5 25.5q67 0 107 -24.5t61 -61.5l-56 -58q0 -58 -18 -114t-51.5 -101t-79 -72t-98.5 -27zM221 66q37 0 67 24t51.5 61.5t33 81.5t11.5 84q0 51 -18.5 78.5t-53.5 27.5q-36 0 -65.5 -25.5t-51 -67
t-33 -87t-11.5 -85.5q0 -46 19 -69t51 -23zM108 -225q-66 0 -107 26t-41 77q0 31 15 55t38.5 42.5t50.5 32t50 22.5l25 -18q-43 -21 -66.5 -54t-23.5 -73q0 -32 17.5 -51t58.5 -19q52 0 93.5 29.5t70.5 83t44 123.5l16 71l50 123v137l98 66q16 3 32 0q-14 -38 -28 -90.5
t-22 -93.5l-38 -183q-21 -101 -70.5 -169t-117 -102.5t-145.5 -34.5zM363 681l53 -45l-15 -70l-67 -20l-53 45l15 71z" />
    <glyph glyph-name="uni0122" unicode="&#x122;" horiz-adv-x="766" 
d="M380 -15q-150 0 -229 76t-79 220q0 96 33 176t94 137.5t145.5 89t186.5 31.5q67 0 124 -12.5t96 -32.5l-38 -179q-16 -3 -32 0q2 96 -42 139t-122 43q-86 0 -154.5 -46t-107.5 -134t-39 -215q0 -76 17 -132.5t55.5 -87.5t103.5 -31q35 0 71.5 10.5t61.5 29.5
q15 61 23.5 107.5t12.5 90.5h-81q0 8 2.5 19t5.5 18q35 -1 72.5 -1.5t70.5 -0.5q35 0 63.5 0.5t62.5 1.5q0 -8 -2.5 -18.5t-5.5 -18.5h-52q-9 -31 -18.5 -63t-18.5 -70t-20 -88q-60 -28 -125 -43.5t-135 -15.5zM376 -41l45 -39l-6 -29q-11 -47 -43.5 -81.5t-76.5 -56.5
q-13 10 -16 25q25 15 43.5 32t28.5 37l-43 36l13 59z" />
    <glyph glyph-name="uni0123" unicode="&#x123;" horiz-adv-x="544" 
d="M174 5q-65 0 -101.5 38.5t-36.5 111.5q0 59 18 114t53 99t85.5 69.5t116.5 25.5q67 0 107 -24.5t61 -61.5l-56 -58q0 -58 -18 -114t-51.5 -101t-79 -72t-98.5 -27zM221 66q37 0 67 24t51.5 61.5t33 81.5t11.5 84q0 51 -18.5 78.5t-53.5 27.5q-36 0 -65.5 -25.5t-51 -67
t-33 -87t-11.5 -85.5q0 -46 19 -69t51 -23zM108 -225q-66 0 -107 26t-41 77q0 31 15 55t38.5 42.5t50.5 32t50 22.5l25 -18q-43 -21 -66.5 -54t-23.5 -73q0 -32 17.5 -51t58.5 -19q52 0 93.5 29.5t70.5 83t44 123.5l16 71l50 123v137l98 66q16 3 32 0q-14 -38 -28 -90.5
t-22 -93.5l-38 -183q-21 -101 -70.5 -169t-117 -102.5t-145.5 -34.5zM329 516l-45 38l7 30q10 46 42.5 80.5t76.5 56.5q13 -10 16 -25q-25 -15 -43 -32t-29 -37l44 -36l-13 -59z" />
    <glyph glyph-name="Hcircumflex" unicode="&#x124;" horiz-adv-x="823" 
d="M444 -2q0 8 2.5 19t5.5 18h70q15 46 26 88t21 87l60 280q9 43 16 85.5t11 89.5h-70q0 8 2.5 19t5.5 18q34 -1 71.5 -1.5t71.5 -0.5q35 0 72 0.5t72 1.5q0 -7 -2.5 -18t-5.5 -19h-70q-14 -45 -25 -86t-22 -89l-60 -280q-8 -41 -15 -83t-12 -92h70q0 -8 -2.5 -18.5
t-5.5 -18.5q-34 2 -71.5 2h-71.5h-71.5t-72.5 -2zM-6 -2q0 8 2.5 19t5.5 18h70q15 45 26.5 89.5t20.5 85.5l60 280q9 43 16 85.5t11 89.5h-70q0 8 2.5 19t5.5 18q34 -1 71.5 -1.5t71.5 -0.5q35 0 72 0.5t72 1.5q0 -7 -2.5 -18t-5.5 -19h-70q-14 -45 -25 -86t-22 -89
l-60 -280q-7 -38 -14.5 -81t-12.5 -94h70q0 -7 -2.5 -18t-5.5 -19q-34 2 -71 2h-72h-71.5t-72.5 -2zM199 350l8 40h444l-8 -40h-444zM368 762q-5 5 -8.5 10t-4.5 13q35 23 60.5 40.5t45 33t38.5 33t41 39.5q16 3 32 0q17 -29 30.5 -50.5t34 -44.5t55.5 -55q-6 -13 -16 -19
q-31 12 -53 22t-41 21t-41 25q-29 -13 -54 -24t-53.5 -21.5t-65.5 -22.5z" />
    <glyph glyph-name="hcircumflex" unicode="&#x125;" horiz-adv-x="566" 
d="M22 -5q9 32 15 58.5t11 52.5l87 410q8 37 13.5 74t7.5 73h-55q0 7 2.5 18.5t5.5 18.5q44 0 92 3t95 11q-10 -24 -21 -60.5t-20 -73.5t-15 -64l-87 -411q-6 -26 -9 -52t-5 -53q-31 0 -58.5 -1t-58.5 -4zM396 -15q-47 0 -64.5 32t-5.5 78l59 224q9 35 -0.5 54t-36.5 19
q-32 0 -62 -24t-55.5 -64.5t-45.5 -92t-32 -106.5h-28q29 135 73.5 213t97 111.5t106.5 33.5q60 0 83 -35t5 -104l-58 -224q-7 -25 -4.5 -40.5t17.5 -15.5q14 0 30.5 14.5t38.5 47.5q9 -4 16 -8.5t14 -11.5q-25 -45 -64.5 -73t-83.5 -28zM80 756q-5 5 -8.5 10.5t-4.5 12.5
q36 23 61 40.5t44.5 33t38.5 33t41 40.5q17 3 32 0q17 -30 30.5 -51.5t34 -44.5t55.5 -55q-6 -12 -16 -19q-31 12 -53 22t-41 21.5t-41 24.5q-28 -13 -53.5 -24t-53.5 -21.5t-66 -22.5z" />
    <glyph glyph-name="Hbar" unicode="&#x126;" horiz-adv-x="828" 
d="M853 490h-761q0 13 3 25t7 25h761q0 -13 -2.5 -25t-7.5 -25zM448 -2q0 8 2.5 19t5.5 18h70q15 46 26 88t21 87l60 280q9 43 15.5 85.5t11.5 89.5h-70q0 8 2.5 19t5.5 18q34 -1 71.5 -1.5t71.5 -0.5q35 0 72 0.5t72 1.5q0 -7 -2.5 -18t-5.5 -19h-70q-15 -45 -25.5 -86
t-21.5 -89l-60 -280q-9 -41 -15.5 -83t-11.5 -92h70q0 -8 -2.5 -18.5t-5.5 -18.5q-34 2 -71.5 2h-71.5h-71.5t-72.5 -2zM-2 -2q0 8 2.5 19t5.5 18h70q15 45 26.5 89.5t20.5 85.5l60 280q9 43 15.5 85.5t11.5 89.5h-70q0 8 2.5 19t5.5 18q34 -1 71.5 -1.5t71.5 -0.5
q35 0 72 0.5t72 1.5q0 -7 -2.5 -18t-5.5 -19h-70q-15 -45 -25.5 -86t-21.5 -89l-60 -280q-7 -38 -14.5 -81t-12.5 -94h70q0 -7 -2.5 -18t-5.5 -19q-34 2 -71 2h-72h-71.5t-72.5 -2zM203 350l8 40h444l-8 -40h-444z" />
    <glyph glyph-name="hbar" unicode="&#x127;" horiz-adv-x="568" 
d="M388 534h-321q0 13 3 25t7 25h321q0 -13 -2.5 -25t-7.5 -25zM25 -5q8 32 14 58.5t12 52.5l86 410q8 37 13.5 74t7.5 73h-55q0 7 2.5 18.5t5.5 18.5q45 0 92.5 3t95.5 11q-11 -24 -22 -60.5t-20 -73.5t-15 -64l-87 -411q-5 -26 -8.5 -52t-5.5 -53q-30 0 -58 -1t-58 -4z
M398 -15q-47 0 -64.5 32t-5.5 78l59 224q9 35 0 54t-37 19q-31 0 -61 -24t-56 -64.5t-46 -92t-32 -106.5h-28q29 135 73.5 213t97 111.5t106.5 33.5q60 0 83 -35t5 -104l-58 -224q-6 -25 -3.5 -40.5t17.5 -15.5q14 0 30 14.5t39 47.5q8 -4 15.5 -8.5t14.5 -11.5
q-26 -45 -65.5 -73t-83.5 -28z" />
    <glyph glyph-name="Itilde" unicode="&#x128;" horiz-adv-x="373" 
d="M-6 -2q0 8 2.5 19t5.5 18h70q15 45 26.5 89.5t20.5 85.5l60 280q9 43 16 85.5t11 89.5h-70q0 8 2.5 19t5.5 18q34 -1 71.5 -1.5t71.5 -0.5q35 0 72 0.5t72 1.5q0 -7 -2.5 -18t-5.5 -19h-70q-14 -45 -25 -86t-22 -89l-60 -280q-7 -38 -14.5 -81t-12.5 -94h70
q0 -7 -2.5 -18t-5.5 -19q-34 2 -71 2h-72h-71.5t-72.5 -2zM467 899q9 -1 16 -5t10 -8q-22 -66 -57.5 -90.5t-69.5 -24.5q-26 0 -43 8.5t-31 19t-27 19t-30 8.5q-19 0 -36 -9.5t-34 -41.5q-7 1 -14 4t-12 9q22 67 56.5 91.5t69.5 24.5q25 0 42.5 -8.5t31.5 -19t28 -19
t32 -8.5t34 10t34 40z" />
    <glyph glyph-name="itilde" unicode="&#x129;" horiz-adv-x="302" 
d="M130 -15q-47 0 -63.5 32t-6.5 78l36 169q8 35 13 69.5t8 77.5h-55q0 8 2.5 19t5.5 18q47 0 93 3t95 11q-11 -24 -22 -60.5t-20 -73t-15 -64.5l-35 -164q-6 -25 -4 -40.5t17 -15.5q14 0 30.5 14.5t38.5 47.5q9 -4 16 -8.5t14 -11.5q-25 -45 -64.5 -73t-83.5 -28zM356 666
q8 -2 15 -4.5t12 -7.5q-22 -67 -56 -92t-68 -25q-24 0 -39.5 8.5t-27.5 19t-23.5 19t-26.5 8.5q-19 0 -35 -9.5t-33 -40.5q-8 1 -15.5 4.5t-11.5 7.5q22 67 55 92t68 25q22 0 38 -8.5t29 -19t25 -19t27 -8.5q18 0 34 10t33 40z" />
    <glyph glyph-name="Imacron" unicode="&#x12a;" horiz-adv-x="373" 
d="M-6 -2q0 8 2.5 19t5.5 18h70q15 45 26.5 89.5t20.5 85.5l60 280q9 43 16 85.5t11 89.5h-70q0 8 2.5 19t5.5 18q34 -1 71.5 -1.5t71.5 -0.5q35 0 72 0.5t72 1.5q0 -7 -2.5 -18t-5.5 -19h-70q-14 -45 -25 -86t-22 -89l-60 -280q-7 -38 -14.5 -81t-12.5 -94h70
q0 -7 -2.5 -18t-5.5 -19q-34 2 -71 2h-72h-71.5t-72.5 -2zM449 785h-289q0 13 4.5 32t8.5 32h289q0 -13 -4 -32t-9 -32z" />
    <glyph glyph-name="imacron" unicode="&#x12b;" horiz-adv-x="302" 
d="M130 -15q-47 0 -63.5 32t-6.5 78l36 169q8 35 13 69.5t8 77.5h-55q0 8 2.5 19t5.5 18q47 0 93 3t95 11q-11 -24 -22 -60.5t-20 -73t-15 -64.5l-35 -164q-6 -25 -4 -40.5t17 -15.5q14 0 30.5 14.5t38.5 47.5q9 -4 16 -8.5t14 -11.5q-25 -45 -64.5 -73t-83.5 -28zM349 540
h-288q0 13 4.5 32t8.5 32h288q0 -13 -4 -32t-9 -32z" />
    <glyph glyph-name="Ibreve" unicode="&#x12c;" horiz-adv-x="373" 
d="M-6 -2q0 8 2.5 19t5.5 18h70q15 45 26.5 89.5t20.5 85.5l60 280q9 43 16 85.5t11 89.5h-70q0 8 2.5 19t5.5 18q34 -1 71.5 -1.5t71.5 -0.5q35 0 72 0.5t72 1.5q0 -7 -2.5 -18t-5.5 -19h-70q-14 -45 -25 -86t-22 -89l-60 -280q-7 -38 -14.5 -81t-12.5 -94h70
q0 -7 -2.5 -18t-5.5 -19q-34 2 -71 2h-72h-71.5t-72.5 -2zM448 927q16 3 32 0q-17 -82 -62.5 -119.5t-104.5 -37.5q-65 0 -96.5 42.5t-25.5 114.5q16 3 32 0q3 -41 29.5 -58t68.5 -17q40 0 73.5 16.5t53.5 58.5z" />
    <glyph glyph-name="ibreve" unicode="&#x12d;" horiz-adv-x="302" 
d="M130 -15q-47 0 -63.5 32t-6.5 78l36 169q8 35 13 69.5t8 77.5h-55q0 8 2.5 19t5.5 18q47 0 93 3t95 11q-11 -24 -22 -60.5t-20 -73t-15 -64.5l-35 -164q-6 -25 -4 -40.5t17 -15.5q14 0 30.5 14.5t38.5 47.5q9 -4 16 -8.5t14 -11.5q-25 -45 -64.5 -73t-83.5 -28zM346 688
q16 3 32 0q-19 -90 -63 -129.5t-104 -39.5q-68 0 -97 45t-20 124q16 3 32 0q1 -48 26 -69t67 -21q39 0 72.5 20.5t54.5 69.5z" />
    <glyph glyph-name="Iogonek" unicode="&#x12e;" horiz-adv-x="373" 
d="M-6 -2q0 8 2.5 19t5.5 18h70q15 45 26.5 89.5t20.5 85.5l60 280q9 43 16 85.5t11 89.5h-70q0 8 2.5 19t5.5 18q34 -1 71.5 -1.5t71.5 -0.5q35 0 72 0.5t72 1.5q0 -7 -2.5 -18t-5.5 -19h-70q-14 -45 -25 -86t-22 -89l-60 -280q-7 -38 -14.5 -81t-12.5 -94h70
q0 -7 -2.5 -18t-5.5 -19q-34 2 -71 2h-72h-71.5t-72.5 -2zM65 -225q-38 0 -65 21t-27 53q0 47 31 80t80 55.5t104 36.5l14 -21q-62 -20 -97 -55t-35 -76q0 -17 10.5 -27.5t31.5 -10.5q11 0 26.5 4.5t34.5 15.5q6 -6 8.5 -14t3.5 -15q-23 -19 -55.5 -33t-64.5 -14z" />
    <glyph glyph-name="iogonek" unicode="&#x12f;" horiz-adv-x="303" 
d="M130 -15q-47 0 -63.5 32t-6.5 78l36 169q8 35 13 69.5t8 77.5h-55q0 8 2.5 19t5.5 18q47 0 93 3t95 11q-11 -24 -22 -60.5t-20 -73t-15 -64.5l-35 -164q-6 -25 -4 -40.5t17 -15.5q14 0 30.5 14.5t38.5 47.5q9 -4 16 -8.5t14 -11.5q-25 -45 -64.5 -73t-83.5 -28zM235 681
l53 -45l-15 -70l-67 -20l-53 45l15 71zM52 -225q-38 0 -65 21t-27 53q0 47 31 80t80 55.5t104 36.5l14 -21q-62 -20 -97 -55t-35 -76q0 -17 10.5 -27.5t31.5 -10.5q11 0 26.5 4.5t34.5 15.5q6 -6 8.5 -14t3.5 -15q-23 -19 -55.5 -33t-64.5 -14z" />
    <glyph glyph-name="Idotaccent" unicode="&#x130;" horiz-adv-x="373" 
d="M-6 -2q0 8 2.5 19t5.5 18h70q15 45 26.5 89.5t20.5 85.5l60 280q9 43 16 85.5t11 89.5h-70q0 8 2.5 19t5.5 18q34 -1 71.5 -1.5t71.5 -0.5q35 0 72 0.5t72 1.5q0 -7 -2.5 -18t-5.5 -19h-70q-14 -45 -25 -86t-22 -89l-60 -280q-7 -38 -14.5 -81t-12.5 -94h70
q0 -7 -2.5 -18t-5.5 -19q-34 2 -71 2h-72h-71.5t-72.5 -2zM332 915l54 -45l-15 -71l-67 -19l-54 45l16 71z" />
    <glyph glyph-name="dotlessi" unicode="&#x131;" horiz-adv-x="302" 
d="M130 -15q-47 0 -63.5 32t-6.5 78l36 169q8 35 13 69.5t8 77.5h-55q0 8 2.5 19t5.5 18q47 0 93 3t95 11q-11 -24 -22 -60.5t-20 -73t-15 -64.5l-35 -164q-6 -25 -4 -40.5t17 -15.5q14 0 30.5 14.5t38.5 47.5q9 -4 16 -8.5t14 -11.5q-25 -45 -64.5 -73t-83.5 -28z" />
    <glyph glyph-name="IJ" unicode="&#x132;" horiz-adv-x="855" 
d="M-6 -2q0 8 2.5 19t5.5 18h70q15 45 26.5 89.5t20.5 85.5l60 280q9 43 16 85.5t11 89.5h-70q0 8 2.5 19t5.5 18q34 -1 71.5 -1.5t71.5 -0.5q35 0 72 0.5t72 1.5q0 -7 -2.5 -18t-5.5 -19h-70q-14 -45 -25 -86t-22 -89l-60 -280q-7 -38 -14.5 -81t-12.5 -94h70
q0 -7 -2.5 -18t-5.5 -19q-34 2 -71 2h-72h-71.5t-72.5 -2zM512 -15q-38 0 -68.5 8t-50 27.5t-26 52t3.5 80.5h120q-15 -71 -9 -102t36 -31t49 30t32 95l73 345q10 45 17 88.5t11 86.5h-94q0 7 2 18t5 19q53 -1 93.5 -1.5t74.5 -0.5q35 0 72 0.5t71 1.5q0 -7 -2 -18t-5 -19
h-70q-16 -47 -27 -88.5t-21 -86.5l-71 -337q-10 -47 -31 -79.5t-50 -52t-63.5 -28t-71.5 -8.5z" />
    <glyph glyph-name="ij" unicode="&#x133;" horiz-adv-x="573" 
d="M130 -15q-47 0 -63.5 32t-6.5 78l36 169q8 35 13 69.5t8 77.5h-55q0 8 2.5 19t5.5 18q47 0 93 3t95 11q-11 -24 -22 -60.5t-20 -73t-15 -64.5l-35 -164q-6 -25 -4 -40.5t17 -15.5q14 0 30.5 14.5t38.5 47.5q9 -4 16 -8.5t14 -11.5q-25 -45 -64.5 -73t-83.5 -28zM235 681
l53 -45l-15 -70l-67 -20l-53 45l15 71zM207 -225q-4 7 -6.5 17t-2.5 21q63 17 99 74t58 160l46 217q8 37 13.5 73.5t7.5 73.5h-54q0 8 2.5 19t5.5 18q46 0 92.5 3t94.5 11q-11 -25 -22 -61t-20 -73t-15 -64l-34 -156q-12 -56 -27.5 -110.5t-42.5 -100.5t-73.5 -78
t-121.5 -44zM541 681l53 -45l-15 -70l-67 -20l-53 45l15 71z" />
    <glyph glyph-name="Jcircumflex" unicode="&#x134;" horiz-adv-x="482" 
d="M139 -15q-38 0 -68.5 8t-50 27.5t-26 52t3.5 80.5h120q-15 -71 -9 -102t36 -31t49 30t32 95l73 345q10 45 17 88.5t11 86.5h-94q0 7 2 18t5 19q53 -1 93.5 -1.5t74.5 -0.5q35 0 72 0.5t71 1.5q0 -7 -2 -18t-5 -19h-70q-16 -47 -27 -88.5t-21 -86.5l-71 -337
q-10 -47 -31 -79.5t-50 -52t-63.5 -28t-71.5 -8.5zM257 762q-5 5 -8 10t-5 13q36 23 61 40.5t44.5 33t38.5 33t42 39.5q16 3 32 0q16 -29 30 -50.5t34 -44.5t55 -55q-6 -13 -15 -19q-32 12 -53.5 22t-40.5 21t-42 25q-28 -13 -53.5 -24t-53.5 -21.5t-66 -22.5z" />
    <glyph glyph-name="jcircumflex" unicode="&#x135;" horiz-adv-x="270" 
d="M-95 -225q-4 7 -6.5 17t-2.5 21q63 17 99 74t58 160l46 217q8 37 13.5 73.5t7.5 73.5h-54q0 8 2.5 19t5.5 18q46 0 92.5 3t94.5 11q-11 -25 -22 -61t-20 -73t-15 -64l-34 -156q-12 -56 -27.5 -110.5t-42.5 -100.5t-73.5 -78t-121.5 -44zM62 514q-6 5 -9.5 10t-4.5 13
q40 31 68 55.5t52.5 49t51.5 54.5q16 3 32 0q16 -33 28.5 -57.5t29 -48.5t44.5 -57q-6 -13 -19 -19q-40 21 -63 39t-53 40q-27 -14 -49 -26.5t-47 -25t-61 -27.5z" />
    <glyph glyph-name="uni0136" unicode="&#x136;" horiz-adv-x="702" 
d="M-6 -2q0 8 2.5 19t5.5 18h70q15 45 26.5 89.5t20.5 85.5l60 280q9 43 16 85.5t11 89.5h-70q0 8 2.5 19t5.5 18q34 -1 71.5 -1.5t71.5 -0.5q35 0 72 0.5t72 1.5q0 -7 -2.5 -18t-5.5 -19h-70q-14 -45 -25 -86t-22 -89l-60 -280q-8 -38 -15 -81t-12 -94h70q0 -7 -2.5 -18
t-5.5 -19q-34 2 -71 2h-72h-71.5t-72.5 -2zM551 -10q-60 0 -81 29t-22 88v138q-1 35 -9.5 58t-32 35t-68.5 12h-79l8 40h62q50 0 94 17.5t68 49.5q20 26 40 57.5t36 67.5q9 20 15.5 42t9.5 41h-71q0 8 2.5 19t5.5 18q41 -1 66 -1.5t44 -0.5q20 0 50.5 0.5t73.5 1.5
q0 -7 -2.5 -18t-5.5 -19h-73q-12 -11 -26.5 -29.5t-31.5 -49.5q-10 -19 -24 -44.5t-30 -52t-35 -49.5q-22 -30 -44 -42t-43 -17q70 -2 97.5 -35t28.5 -94l2 -145q1 -41 15.5 -55t55.5 -17q-1 -8 -2.5 -17t-5.5 -18q-27 -6 -46.5 -8t-41.5 -2zM365 -41l45 -39l-7 -29
q-10 -47 -42.5 -81.5t-76.5 -56.5q-13 10 -16 25q25 15 43 32t29 37l-44 36l13 59z" />
    <glyph glyph-name="uni0137" unicode="&#x137;" horiz-adv-x="541" 
d="M22 -5q6 23 10 38.5t7.5 32t8.5 40.5l87 410q8 37 13.5 74t7.5 73h-55q0 7 2.5 18.5t5.5 18.5q44 0 92 3t95 11q-10 -25 -21 -61.5t-20.5 -73t-14.5 -63.5l-87 -411q-6 -26 -9 -52t-5 -53q-31 0 -58.5 -1t-58.5 -4zM298 55l-6 47q-6 41 -34 59.5t-67 18.5h-26l8 31h100
q57 0 86 -22.5t35 -64.5l7 -45q3 -14 8 -24.5t19 -10.5q13 0 29 14.5t38 47.5q9 -4 16 -8.5t14 -11.5q-26 -48 -60 -74.5t-80 -26.5q-44 0 -63 20t-24 50zM177 199l1 18q70 0 119.5 20t76 51.5t26.5 64.5q0 23 -12.5 34.5t-34.5 11.5q-29 0 -65.5 -23.5t-66.5 -66t-42 -98.5
h-29q20 86 61.5 141.5t93 83t97.5 27.5q41 0 69 -20t28 -62q0 -40 -27.5 -77.5t-80.5 -65.5t-131 -39h-83zM226 -41l45 -39l-7 -29q-11 -47 -43 -81.5t-76 -56.5q-13 10 -16 25q25 15 43 32t29 37l-44 36l13 59z" />
    <glyph glyph-name="kgreenlandic" unicode="&#x138;" horiz-adv-x="536" 
d="M384 -10q-42 0 -61 12t-23.5 34.5t-3.5 52.5v66q0 20 -6 36t-23.5 26t-52.5 10h-36l8 37h50q30 0 55 16t49 45q23 27 34.5 47t17.5 41h-58q0 7 2.5 18.5t5.5 18.5q27 -1 39.5 -1.5t21 -0.5h20.5q18 0 45.5 0.5t65.5 1.5q0 -7 -2.5 -18.5t-5.5 -18.5h-52q-32 -25 -60 -59
t-56 -65t-62 -46l-18 11q46 7 73.5 -4.5t40.5 -36t12 -58.5v-57q0 -35 11.5 -48t40.5 -14q-1 -9 -2.5 -18t-4.5 -18q-16 -4 -33.5 -7t-31.5 -3zM22 -5q6 23 10 38.5t7.5 32t8.5 40.5l34 158q8 38 13.5 75t7.5 72h-55q0 7 2.5 18.5t5.5 18.5q45 0 92.5 3t95.5 11
q-11 -25 -22 -61.5t-20 -73t-15 -63.5l-34 -159q-6 -26 -9 -52t-5 -53q-31 0 -58.5 -1t-58.5 -4z" />
    <glyph glyph-name="Lacute" unicode="&#x139;" horiz-adv-x="579" 
d="M-6 -2q0 8 2.5 19t5.5 18h70q15 45 26.5 89.5t20.5 85.5l60 280q9 43 16 85.5t11 89.5h-70q0 8 2.5 19t5.5 18q34 -1 71.5 -1.5t71.5 -0.5q35 0 72 0.5t72 1.5q0 -7 -2.5 -18t-5.5 -19h-70q-14 -45 -25 -86t-22 -89l-60 -280q-7 -38 -14 -80.5t-12 -92.5h118
q77 0 118 44.5t62 125.5q16 3 32 0l-44 -207h-368h-71.5t-72.5 -2zM520 931q-28 -41 -66.5 -67t-78 -46.5t-70.5 -47.5q-16 -3 -32 0q35 38 60 75.5t45 85.5h142z" />
    <glyph glyph-name="lacute" unicode="&#x13a;" horiz-adv-x="286" 
d="M116 -15q-48 0 -64 32t-6 78l88 421q8 37 14 74t7 73h-55q0 7 2.5 18.5t5.5 18.5q45 0 92.5 3t95.5 11q-11 -25 -22 -61.5t-20 -73t-15 -63.5l-88 -416q-5 -25 -3 -40.5t17 -15.5q14 0 30.5 14.5t38.5 47.5q8 -4 15.5 -8.5t14.5 -11.5q-26 -45 -65 -73t-83 -28zM427 948
q-23 -37 -57.5 -65.5t-69 -54t-61.5 -56.5q-16 -3 -32 0q35 49 55 91.5t33 84.5h132z" />
    <glyph glyph-name="uni013B" unicode="&#x13b;" horiz-adv-x="579" 
d="M-6 -2q0 8 2.5 19t5.5 18h70q15 45 26.5 89.5t20.5 85.5l60 280q9 43 16 85.5t11 89.5h-70q0 8 2.5 19t5.5 18q34 -1 71.5 -1.5t71.5 -0.5q35 0 72 0.5t72 1.5q0 -7 -2.5 -18t-5.5 -19h-70q-14 -45 -25 -86t-22 -89l-60 -280q-7 -38 -14 -80.5t-12 -92.5h118
q77 0 118 44.5t62 125.5q16 3 32 0l-44 -207h-368h-71.5t-72.5 -2zM288 -41l45 -39l-6 -29q-11 -47 -43.5 -81.5t-76.5 -56.5q-13 10 -16 25q25 15 43.5 32t28.5 37l-43 36l13 59z" />
    <glyph glyph-name="uni013C" unicode="&#x13c;" horiz-adv-x="286" 
d="M116 -15q-48 0 -64 32t-6 78l88 421q8 37 14 74t7 73h-55q0 7 2.5 18.5t5.5 18.5q45 0 92.5 3t95.5 11q-11 -25 -22 -61.5t-20 -73t-15 -63.5l-88 -416q-5 -25 -3 -40.5t17 -15.5q14 0 30.5 14.5t38.5 47.5q8 -4 15.5 -8.5t14.5 -11.5q-26 -45 -65 -73t-83 -28zM117 -41
l45 -39l-6 -29q-11 -47 -43.5 -81.5t-76.5 -56.5q-13 10 -16 25q25 15 43 32t29 37l-44 36l13 59z" />
    <glyph glyph-name="Lcaron" unicode="&#x13d;" horiz-adv-x="581" 
d="M508 697l57 24l44 -45l-12 -53q-25 -42 -41 -80.5t-30 -76.5q-14 0 -28 6q3 40 4 81.5t-5 90.5zM-6 -2q0 8 2.5 19t5.5 18h70q15 45 26.5 89.5t20.5 85.5l60 280q9 43 16 85.5t11 89.5h-70q0 8 2.5 19t5.5 18q34 -1 71.5 -1.5t71.5 -0.5q35 0 72 0.5t72 1.5
q0 -7 -2.5 -18t-5.5 -19h-70q-14 -45 -25 -86t-22 -89l-60 -280q-7 -38 -14 -80.5t-12 -92.5h118q77 0 118 44.5t62 125.5q16 3 32 0l-44 -207h-368h-71.5t-72.5 -2z" />
    <glyph glyph-name="lcaron" unicode="&#x13e;" horiz-adv-x="327" 
d="M335 697l58 24l43 -45l-12 -53q-25 -42 -41 -80.5t-29 -76.5q-15 0 -29 6q3 40 4 81.5t-5 90.5zM116 -15q-48 0 -64 32t-6 78l88 421q8 37 14 74t7 73h-55q0 7 2.5 18.5t5.5 18.5q45 0 92.5 3t95.5 11q-11 -25 -22 -61.5t-20 -73t-15 -63.5l-88 -416q-5 -25 -3 -40.5
t17 -15.5q14 0 30.5 14.5t38.5 47.5q8 -4 15.5 -8.5t14.5 -11.5q-26 -45 -65 -73t-83 -28z" />
    <glyph glyph-name="Ldot" unicode="&#x13f;" horiz-adv-x="579" 
d="M-6 -2q0 8 2.5 19t5.5 18h70q15 45 26.5 89.5t20.5 85.5l60 280q9 43 16 85.5t11 89.5h-70q0 8 2.5 19t5.5 18q34 -1 71.5 -1.5t71.5 -0.5q35 0 72 0.5t72 1.5q0 -7 -2.5 -18t-5.5 -19h-70q-14 -45 -25 -86t-22 -89l-60 -280q-7 -38 -14 -80.5t-12 -92.5h118
q77 0 118 44.5t62 125.5q16 3 32 0l-44 -207h-368h-71.5t-72.5 -2zM389 440l55 -47l-16 -73l-68 -20l-56 47l16 73z" />
    <glyph glyph-name="ldot" unicode="&#x140;" horiz-adv-x="310" 
d="M116 -15q-48 0 -64 32t-6 78l88 421q8 37 14 74t7 73h-55q0 7 2.5 18.5t5.5 18.5q45 0 92.5 3t95.5 11q-11 -25 -22 -61.5t-20 -73t-15 -63.5l-88 -416q-5 -25 -3 -40.5t17 -15.5q14 0 30.5 14.5t38.5 47.5q8 -4 15.5 -8.5t14.5 -11.5q-26 -45 -65 -73t-83 -28zM317 394
l55 -47l-16 -73l-68 -20l-56 47l16 73z" />
    <glyph glyph-name="Lslash" unicode="&#x141;" horiz-adv-x="622" 
d="M184 305l-3 -33q-34 -10 -52.5 -24t-27 -32.5t-13.5 -42.5q-21 -4 -39 -4t-39 4q11 41 52.5 77t121.5 55zM306 299l3 32q22 8 48.5 22t52 36t43.5 54.5t22 76.5q22 4 43 4t42 -4q-8 -47 -34.5 -84t-64 -64t-78.5 -45t-77 -28zM37 -2q0 8 2.5 19t5.5 18h70q14 45 26 89.5
t21 85.5l60 280q9 43 15.5 85.5t11.5 89.5h-70q0 8 2.5 19t5.5 18q34 -1 71 -1.5t71 -0.5q35 0 72.5 0.5t72.5 1.5q0 -7 -2.5 -18t-5.5 -19h-70q-15 -45 -26 -86t-21 -89l-60 -280q-8 -38 -15 -80.5t-12 -92.5h118q77 0 118.5 44.5t62.5 125.5q16 3 32 0l-45 -207h-368h-71
t-72 -2z" />
    <glyph glyph-name="lslash" unicode="&#x142;" horiz-adv-x="372" 
d="M250 320l7 30q24 20 36 36.5t18 34.5t11 41q36 6 71 0q-6 -28 -27 -51.5t-51 -45.5t-65 -45zM142 285l-6 -30q-25 -20 -37.5 -36.5t-18 -34t-10.5 -41.5q-35 -6 -71 0q9 42 49.5 75t93.5 67zM171 -15q-48 0 -64 32t-6 78l88 421q8 37 14 74t7 73h-55q0 7 2.5 18.5
t5.5 18.5q45 0 92.5 3t95.5 11q-10 -25 -21 -61.5t-20.5 -73t-15.5 -63.5l-88 -416q-5 -25 -3 -40.5t17 -15.5q14 0 30.5 14.5t38.5 47.5q9 -4 16 -8.5t14 -11.5q-26 -45 -65 -73t-83 -28z" />
    <glyph glyph-name="Nacute" unicode="&#x143;" horiz-adv-x="788" 
d="M560 0q-10 37 -21 65t-30 66l-249 486l-12 83q33 0 65 0.5t58 1.5q7 -26 16.5 -51t26.5 -60l205 -405l6 -186q-17 -2 -34 -2t-31 2zM-6 -2q0 8 2.5 19t5.5 18h67q18 46 30 89t22 86l60 280q9 40 14 81.5t8 93.5h-67q0 8 2.5 19t5.5 18q34 -1 60 -1.5t44 -0.5l12 -83
q-8 -28 -16 -60t-16 -67l-60 -280q-7 -37 -13.5 -78t-8.5 -97h81q0 -7 -2.5 -18t-5.5 -19q-37 2 -68.5 2h-51.5h-44t-61 -2zM625 0l-6 186l64 304q9 44 14 83.5t8 91.5h-82q0 8 2.5 19t5.5 18q37 -1 69.5 -1.5t51.5 -0.5q17 0 43.5 0.5t61.5 1.5q0 -7 -2.5 -18t-5.5 -19h-67
q-13 -35 -22 -62t-16 -53t-14 -60zM727 931q-28 -41 -66.5 -67t-78 -46.5t-70.5 -47.5q-16 -3 -32 0q35 38 60 75.5t45 85.5h142z" />
    <glyph glyph-name="nacute" unicode="&#x144;" horiz-adv-x="583" 
d="M39 -5q9 32 15 58.5t12 52.5l33 158q8 35 13 69.5t8 77.5h-55q0 8 2.5 19t5.5 18q47 0 88.5 3t90.5 11q-12 -27 -20 -53.5t-13 -55.5t-9 -65l-40 -183q-5 -26 -8.5 -52t-5.5 -53q-30 0 -58 -1t-59 -4zM413 -15q-47 0 -64.5 32t-5.5 78l59 224q9 35 -0.5 54t-36.5 19
q-31 0 -61.5 -24t-56 -64.5t-45.5 -92t-32 -106.5h-28q29 135 73.5 213t97 111.5t106.5 33.5q60 0 83 -35t5 -104l-58 -224q-7 -25 -4 -40.5t17 -15.5t30.5 14.5t38.5 47.5q9 -4 16 -8.5t14 -11.5q-25 -45 -64.5 -73t-83.5 -28zM550 696q-23 -37 -57.5 -65.5t-69 -54
t-61.5 -56.5q-16 -3 -32 0q35 49 55 91.5t33 84.5h132z" />
    <glyph glyph-name="uni0145" unicode="&#x145;" horiz-adv-x="788" 
d="M560 0q-10 37 -21 65t-30 66l-249 486l-12 83q33 0 65 0.5t58 1.5q7 -26 16.5 -51t26.5 -60l205 -405l6 -186q-17 -2 -34 -2t-31 2zM-6 -2q0 8 2.5 19t5.5 18h67q18 46 30 89t22 86l60 280q9 40 14 81.5t8 93.5h-67q0 8 2.5 19t5.5 18q34 -1 60 -1.5t44 -0.5l12 -83
q-8 -28 -16 -60t-16 -67l-60 -280q-7 -37 -13.5 -78t-8.5 -97h81q0 -7 -2.5 -18t-5.5 -19q-37 2 -68.5 2h-51.5h-44t-61 -2zM625 0l-6 186l64 304q9 44 14 83.5t8 91.5h-82q0 8 2.5 19t5.5 18q37 -1 69.5 -1.5t51.5 -0.5q17 0 43.5 0.5t61.5 1.5q0 -7 -2.5 -18t-5.5 -19h-67
q-13 -35 -22 -62t-16 -53t-14 -60zM379 -41l45 -39l-6 -29q-11 -47 -43.5 -81.5t-76.5 -56.5q-13 10 -16 25q25 15 43.5 32t28.5 37l-43 36l13 59z" />
    <glyph glyph-name="uni0146" unicode="&#x146;" horiz-adv-x="583" 
d="M39 -5q9 32 15 58.5t12 52.5l33 158q8 35 13 69.5t8 77.5h-55q0 8 2.5 19t5.5 18q47 0 88.5 3t90.5 11q-12 -27 -20 -53.5t-13 -55.5t-9 -65l-40 -183q-5 -26 -8.5 -52t-5.5 -53q-30 0 -58 -1t-59 -4zM413 -15q-47 0 -64.5 32t-5.5 78l59 224q9 35 -0.5 54t-36.5 19
q-31 0 -61.5 -24t-56 -64.5t-45.5 -92t-32 -106.5h-28q29 135 73.5 213t97 111.5t106.5 33.5q60 0 83 -35t5 -104l-58 -224q-7 -25 -4 -40.5t17 -15.5t30.5 14.5t38.5 47.5q9 -4 16 -8.5t14 -11.5q-25 -45 -64.5 -73t-83.5 -28zM248 -41l45 -39l-6 -29q-11 -47 -43.5 -81.5
t-76.5 -56.5q-13 10 -16 25q25 15 43.5 32t28.5 37l-43 36l12 59z" />
    <glyph glyph-name="Ncaron" unicode="&#x147;" horiz-adv-x="788" 
d="M560 0q-10 37 -21 65t-30 66l-249 486l-12 83q33 0 65 0.5t58 1.5q7 -26 16.5 -51t26.5 -60l205 -405l6 -186q-17 -2 -34 -2t-31 2zM-6 -2q0 8 2.5 19t5.5 18h67q18 46 30 89t22 86l60 280q9 40 14 81.5t8 93.5h-67q0 8 2.5 19t5.5 18q34 -1 60 -1.5t44 -0.5l12 -83
q-8 -28 -16 -60t-16 -67l-60 -280q-7 -37 -13.5 -78t-8.5 -97h81q0 -7 -2.5 -18t-5.5 -19q-37 2 -68.5 2h-51.5h-44t-61 -2zM625 0l-6 186l64 304q9 44 14 83.5t8 91.5h-82q0 8 2.5 19t5.5 18q37 -1 69.5 -1.5t51.5 -0.5q17 0 43.5 0.5t61.5 1.5q0 -7 -2.5 -18t-5.5 -19h-67
q-13 -35 -22 -62t-16 -53t-14 -60zM707 939q5 -4 9 -9.5t5 -13.5q-36 -23 -61.5 -40t-45 -32.5t-38 -33t-41.5 -40.5q-16 -3 -32 0q-15 29 -29.5 51t-35 45t-55.5 54q6 13 16 19q31 -11 53 -21.5t41 -21.5t41 -25q29 14 54 25t53.5 21.5t65.5 21.5z" />
    <glyph glyph-name="ncaron" unicode="&#x148;" horiz-adv-x="583" 
d="M39 -5q9 32 15 58.5t12 52.5l33 158q8 35 13 69.5t8 77.5h-55q0 8 2.5 19t5.5 18q47 0 88.5 3t90.5 11q-12 -27 -20 -53.5t-13 -55.5t-9 -65l-40 -183q-5 -26 -8.5 -52t-5.5 -53q-30 0 -58 -1t-59 -4zM413 -15q-47 0 -64.5 32t-5.5 78l59 224q9 35 -0.5 54t-36.5 19
q-31 0 -61.5 -24t-56 -64.5t-45.5 -92t-32 -106.5h-28q29 135 73.5 213t97 111.5t106.5 33.5q60 0 83 -35t5 -104l-58 -224q-7 -25 -4 -40.5t17 -15.5t30.5 14.5t38.5 47.5q9 -4 16 -8.5t14 -11.5q-25 -45 -64.5 -73t-83.5 -28zM546 702q7 -4 10.5 -9t4.5 -14
q-40 -31 -68 -55.5t-52 -48.5t-52 -55q-17 -3 -32 0q-16 34 -29 58t-29 48t-44 57q6 13 19 19q40 -21 63 -39t53 -41q27 15 49 27.5t47 25.5t60 27z" />
    <glyph glyph-name="Eng" unicode="&#x14a;" horiz-adv-x="788" 
d="M752 700q17 0 43.5 0.5t61.5 1.5q0 -7 -2.5 -18t-5.5 -19h-67q-13 -35 -22 -62t-16 -53t-14 -60l-117 -542q-12 -60 -43.5 -96t-74.5 -51t-93 -15t-85 14t-49.5 47.5t-4.5 89.5h117q-12 -57 -5.5 -83t37.5 -26q27 0 44.5 21.5t31.5 84.5l36 167q-4 7 -7.5 14t-7.5 16
l-249 486q-8 -28 -16 -60t-16 -67l-60 -280q-7 -37 -13.5 -78t-8.5 -97h81q0 -7 -2.5 -18t-5.5 -19q-37 2 -68.5 2h-51.5h-44t-61 -2q0 8 2.5 19t5.5 18h67q18 46 30 89t22 86l60 280q9 40 14 81.5t8 93.5h-67q0 8 2.5 19t5.5 18q34 -1 60 -1.5t44 -0.5q33 0 65 0.5t58 1.5
q7 -26 16.5 -51t26.5 -60l205 -405l64 304q9 44 14 83.5t8 91.5h-82q0 8 2.5 19t5.5 18q37 -1 69.5 -1.5t51.5 -0.5z" />
    <glyph glyph-name="eng" unicode="&#x14b;" horiz-adv-x="554" 
d="M39 -5q9 32 15 58.5t12 52.5l33 158q8 35 13 69.5t8 77.5h-55q0 8 2.5 19t5.5 18q47 0 88.5 3t90.5 11q-12 -27 -20 -53.5t-13 -55.5t-9 -65l-40 -183q-5 -26 -8.5 -52t-5.5 -53q-30 0 -58 -1t-59 -4zM419 463q60 0 82 -35t7 -104l-46 -216q-12 -56 -27.5 -110.5
t-42.5 -100.5t-73.5 -78t-121.5 -44q-4 7 -6.5 17t-3.5 21q64 17 100.5 74t57.5 160l58 272q8 35 -1.5 54t-36.5 19q-31 0 -61.5 -24t-56 -64.5t-45.5 -92t-32 -106.5h-28q29 135 73.5 213t97 111.5t106.5 33.5z" />
    <glyph glyph-name="Omacron" unicode="&#x14c;" horiz-adv-x="810" 
d="M488 715q93 0 161 -34.5t105 -101t37 -164.5q0 -85 -28.5 -162.5t-82.5 -137.5t-131 -95t-174 -35q-93 0 -161 34.5t-105 101.5t-37 164q0 85 29 162t82.5 137.5t130.5 95.5t174 35zM378 27q80 0 140 52t94.5 143.5t34.5 209.5q0 69 -15 123t-50 86t-97 32
q-78 0 -139 -52t-95 -143.5t-34 -210.5q0 -67 14.5 -121.5t49.5 -86.5t97 -32zM656 785h-289q0 13 4.5 32t8.5 32h289q0 -13 -4 -32t-9 -32z" />
    <glyph glyph-name="omacron" unicode="&#x14d;" horiz-adv-x="537" 
d="M318 424q-40 0 -71.5 -27.5t-53 -70.5t-32.5 -91t-11 -90q0 -57 16.5 -88.5t52.5 -31.5l2 -40q-88 0 -136.5 48.5t-48.5 129.5q0 61 20.5 115t58.5 96t89.5 66t111.5 24zM219 25q41 0 72.5 27.5t52.5 70t32 91t11 89.5q0 58 -16.5 89.5t-52.5 31.5l-2 40
q88 0 136.5 -48.5t48.5 -130.5q0 -60 -20.5 -114.5t-58.5 -96t-89.5 -65.5t-111.5 -24zM481 540h-288q0 13 4.5 32t8.5 32h288q0 -13 -4 -32t-9 -32z" />
    <glyph glyph-name="Obreve" unicode="&#x14e;" horiz-adv-x="810" 
d="M488 715q93 0 161 -34.5t105 -101t37 -164.5q0 -85 -28.5 -162.5t-82.5 -137.5t-131 -95t-174 -35q-93 0 -161 34.5t-105 101.5t-37 164q0 85 29 162t82.5 137.5t130.5 95.5t174 35zM378 27q80 0 140 52t94.5 143.5t34.5 209.5q0 69 -15 123t-50 86t-97 32
q-78 0 -139 -52t-95 -143.5t-34 -210.5q0 -67 14.5 -121.5t49.5 -86.5t97 -32zM654 927q16 3 32 0q-17 -82 -62.5 -119.5t-104.5 -37.5q-65 0 -96.5 42.5t-25.5 114.5q16 3 32 0q3 -41 29.5 -58t68.5 -17q40 0 73.5 16.5t53.5 58.5z" />
    <glyph glyph-name="obreve" unicode="&#x14f;" horiz-adv-x="537" 
d="M318 424q-40 0 -71.5 -27.5t-53 -70.5t-32.5 -91t-11 -90q0 -57 16.5 -88.5t52.5 -31.5l2 -40q-88 0 -136.5 48.5t-48.5 129.5q0 61 20.5 115t58.5 96t89.5 66t111.5 24zM219 25q41 0 72.5 27.5t52.5 70t32 91t11 89.5q0 58 -16.5 89.5t-52.5 31.5l-2 40
q88 0 136.5 -48.5t48.5 -130.5q0 -60 -20.5 -114.5t-58.5 -96t-89.5 -65.5t-111.5 -24zM478 688q16 3 32 0q-19 -90 -63 -129.5t-104 -39.5q-68 0 -97 45t-20 124q16 3 32 0q1 -48 26 -69t67 -21q39 0 72.5 20.5t54.5 69.5z" />
    <glyph glyph-name="Ohungarumlaut" unicode="&#x150;" horiz-adv-x="810" 
d="M488 715q93 0 161 -34.5t105 -101t37 -164.5q0 -85 -28.5 -162.5t-82.5 -137.5t-131 -95t-174 -35q-93 0 -161 34.5t-105 101.5t-37 164q0 85 29 162t82.5 137.5t130.5 95.5t174 35zM378 27q80 0 140 52t94.5 143.5t34.5 209.5q0 69 -15 123t-50 86t-97 32
q-78 0 -139 -52t-95 -143.5t-34 -210.5q0 -67 14.5 -121.5t49.5 -86.5t97 -32zM627 931q-26 -36 -61 -62.5t-70 -49.5t-62 -49q-16 -3 -32 0q34 41 57.5 80t37.5 81h130zM776 931q-29 -41 -65 -67t-72 -47t-62 -47q-16 -3 -32 0q36 41 62.5 79.5t42.5 81.5h126z" />
    <glyph glyph-name="ohungarumlaut" unicode="&#x151;" horiz-adv-x="537" 
d="M318 424q-40 0 -71.5 -27.5t-53 -70.5t-32.5 -91t-11 -90q0 -57 16.5 -88.5t52.5 -31.5l2 -40q-88 0 -136.5 48.5t-48.5 129.5q0 61 20.5 115t58.5 96t89.5 66t111.5 24zM219 25q41 0 72.5 27.5t52.5 70t32 91t11 89.5q0 58 -16.5 89.5t-52.5 31.5l-2 40
q88 0 136.5 -48.5t48.5 -130.5q0 -60 -20.5 -114.5t-58.5 -96t-89.5 -65.5t-111.5 -24zM452 696q-24 -37 -56 -65.5t-64.5 -54t-58.5 -56.5q-16 -3 -32 0q34 48 57 91.5t36 84.5h118zM593 696q-25 -39 -59 -67t-68.5 -53t-61.5 -56q-16 -3 -32 0q42 49 66 92t37 84h118z" />
    <glyph glyph-name="OE" unicode="&#x152;" horiz-adv-x="1008" 
d="M450 -1l14 36q15 45 26.5 89.5t20.5 85.5l60 280q9 43 16 85.5t11 89.5l-15 36l96 -1h350l-40 -187q-16 -3 -32 0q9 52 0 84.5t-37 47.5t-76 15h-100q-15 -46 -25 -83t-21 -87l-60 -280q-8 -39 -14.5 -80t-11.5 -90h135q52 0 87 19t56.5 52t32.5 76q16 3 32 0l-40 -187
h-385zM834 256q8 47 -4.5 65.5t-49.5 18.5h-177l8 40h177q38 0 58 19t31 65q16 3 32 0l-43 -208q-17 -3 -32 0zM669 669l-32 -157q-7 47 -24.5 83.5t-48.5 57t-79 20.5q-78 0 -139 -52t-95 -143.5t-34 -210.5q0 -67 14.5 -121.5t49.5 -86.5t97 -32q57 0 105 27.5t83 77.5
l-22 -112q-36 -17 -79 -26t-90 -9q-93 0 -161 34.5t-105 101.5t-37 164q0 85 29 162t82.5 137.5t130.5 95.5t174 35q108 0 181 -46z" />
    <glyph glyph-name="oe" unicode="&#x153;" horiz-adv-x="801" 
d="M37 169q0 58 20.5 111t57 94.5t86.5 65.5t109 24q83 0 129 -48.5t46 -135.5q0 -59 -20.5 -112t-57 -94t-86.5 -65t-109 -24q-83 0 -129 48.5t-46 135.5zM151 138q0 -52 15 -82.5t51 -30.5q33 0 61.5 24.5t50.5 65.5t34.5 91.5t12.5 102.5q0 54 -15.5 84.5t-52.5 30.5
q-35 0 -63.5 -25.5t-50 -67.5t-32.5 -93t-11 -100zM558 43q31 0 73.5 19t88.5 74q9 -4 16 -8.5t14 -11.5q-49 -70 -104 -100.5t-116 -30.5q-79 0 -119.5 46t-40.5 133q0 59 20 112.5t57 96t89.5 66.5t118.5 24q72 0 102.5 -27t30.5 -64q0 -39 -28 -70t-75 -54.5t-106.5 -38
t-122.5 -20.5l-3 37q66 4 117 24t80 51.5t29 69.5q0 23 -12 38t-38 15q-35 0 -64 -27.5t-49.5 -70.5t-31.5 -90t-11 -87q0 -57 22.5 -81.5t62.5 -24.5z" />
    <glyph glyph-name="Racute" unicode="&#x154;" horiz-adv-x="704" 
d="M648 35q-1 -8 -2.5 -17t-5.5 -18q-22 -5 -45.5 -7.5t-45.5 -2.5q-56 0 -76 30.5t-21 86.5l-1 128q-1 41 -23.5 63t-74.5 22h-144l9 40h152q46 0 83 26t59 69.5t22 93.5q0 57 -29 84t-87 27h-66q-15 -46 -25 -83t-21 -87l-60 -280q-8 -38 -15 -81t-12 -94h70
q0 -7 -2.5 -18t-5.5 -19q-34 2 -71 2h-72h-71.5t-72.5 -2q0 8 2.5 19t5.5 18h70q15 45 26.5 89.5t20.5 85.5l60 280q9 43 16 85.5t11 89.5h-70q0 8 2.5 19t5.5 18q34 -1 71.5 -1.5t71.5 -0.5h158q65 0 117.5 -14.5t83 -48t30.5 -88.5q0 -53 -28 -94t-76 -68t-111 -40
q62 -4 88.5 -32t27.5 -74l2 -134q1 -41 14.5 -55t54.5 -17zM671 931q-28 -41 -66.5 -67t-78 -46.5t-70.5 -47.5q-16 -3 -32 0q35 38 60 75.5t45 85.5h142z" />
    <glyph glyph-name="racute" unicode="&#x155;" horiz-adv-x="449" 
d="M39 -5q9 32 15 58.5t12 52.5l33 158q8 35 13 69.5t8 77.5h-55q0 8 2.5 19t5.5 18q47 0 88.5 3t90.5 11q-12 -27 -20 -53.5t-13 -55.5t-9 -65l-40 -183q-5 -26 -8.5 -52t-5.5 -53q-30 0 -58 -1t-59 -4zM350 323q8 36 3.5 52t-21.5 16q-21 0 -44.5 -24t-46 -64t-41 -91.5
t-30.5 -106.5h-28q29 132 69 210.5t87 113t94 34.5q36 0 54.5 -20t20.5 -52t-14 -68h-103zM496 696q-23 -37 -57.5 -65.5t-69 -54t-61.5 -56.5q-16 -3 -32 0q35 49 55 91.5t33 84.5h132z" />
    <glyph glyph-name="uni0156" unicode="&#x156;" horiz-adv-x="704" 
d="M648 35q-1 -8 -2.5 -17t-5.5 -18q-22 -5 -45.5 -7.5t-45.5 -2.5q-56 0 -76 30.5t-21 86.5l-1 128q-1 41 -23.5 63t-74.5 22h-144l9 40h152q46 0 83 26t59 69.5t22 93.5q0 57 -29 84t-87 27h-66q-15 -46 -25 -83t-21 -87l-60 -280q-8 -38 -15 -81t-12 -94h70
q0 -7 -2.5 -18t-5.5 -19q-34 2 -71 2h-72h-71.5t-72.5 -2q0 8 2.5 19t5.5 18h70q15 45 26.5 89.5t20.5 85.5l60 280q9 43 16 85.5t11 89.5h-70q0 8 2.5 19t5.5 18q34 -1 71.5 -1.5t71.5 -0.5h158q65 0 117.5 -14.5t83 -48t30.5 -88.5q0 -53 -28 -94t-76 -68t-111 -40
q62 -4 88.5 -32t27.5 -74l2 -134q1 -41 14.5 -55t54.5 -17zM360 -41l45 -39l-7 -29q-11 -47 -43 -81.5t-76 -56.5q-13 10 -16 25q25 15 43 32t29 37l-44 36l13 59z" />
    <glyph glyph-name="uni0157" unicode="&#x157;" horiz-adv-x="449" 
d="M39 -5q9 32 15 58.5t12 52.5l33 158q8 35 13 69.5t8 77.5h-55q0 8 2.5 19t5.5 18q47 0 88.5 3t90.5 11q-12 -27 -20 -53.5t-13 -55.5t-9 -65l-40 -183q-5 -26 -8.5 -52t-5.5 -53q-30 0 -58 -1t-59 -4zM350 323q8 36 3.5 52t-21.5 16q-21 0 -44.5 -24t-46 -64t-41 -91.5
t-30.5 -106.5h-28q29 132 69 210.5t87 113t94 34.5q36 0 54.5 -20t20.5 -52t-14 -68h-103zM93 -41l45 -39l-7 -29q-10 -47 -42.5 -81.5t-76.5 -56.5q-13 10 -16 25q25 15 43 32t29 37l-44 36l13 59z" />
    <glyph glyph-name="Rcaron" unicode="&#x158;" horiz-adv-x="704" 
d="M648 35q-1 -8 -2.5 -17t-5.5 -18q-22 -5 -45.5 -7.5t-45.5 -2.5q-56 0 -76 30.5t-21 86.5l-1 128q-1 41 -23.5 63t-74.5 22h-144l9 40h152q46 0 83 26t59 69.5t22 93.5q0 57 -29 84t-87 27h-66q-15 -46 -25 -83t-21 -87l-60 -280q-8 -38 -15 -81t-12 -94h70
q0 -7 -2.5 -18t-5.5 -19q-34 2 -71 2h-72h-71.5t-72.5 -2q0 8 2.5 19t5.5 18h70q15 45 26.5 89.5t20.5 85.5l60 280q9 43 16 85.5t11 89.5h-70q0 8 2.5 19t5.5 18q34 -1 71.5 -1.5t71.5 -0.5h158q65 0 117.5 -14.5t83 -48t30.5 -88.5q0 -53 -28 -94t-76 -68t-111 -40
q62 -4 88.5 -32t27.5 -74l2 -134q1 -41 14.5 -55t54.5 -17zM651 939q5 -4 9 -9.5t5 -13.5q-36 -23 -61.5 -40t-45 -32.5t-38 -33t-41.5 -40.5q-16 -3 -32 0q-15 29 -29.5 51t-35 45t-55.5 54q6 13 16 19q31 -11 53 -21.5t41 -21.5t41 -25q29 14 54 25t53.5 21.5t65.5 21.5z
" />
    <glyph glyph-name="rcaron" unicode="&#x159;" horiz-adv-x="449" 
d="M39 -5q9 32 15 58.5t12 52.5l33 158q8 35 13 69.5t8 77.5h-55q0 8 2.5 19t5.5 18q47 0 88.5 3t90.5 11q-12 -27 -20 -53.5t-13 -55.5t-9 -65l-40 -183q-5 -26 -8.5 -52t-5.5 -53q-30 0 -58 -1t-59 -4zM350 323q8 36 3.5 52t-21.5 16q-21 0 -44.5 -24t-46 -64t-41 -91.5
t-30.5 -106.5h-28q29 132 69 210.5t87 113t94 34.5q36 0 54.5 -20t20.5 -52t-14 -68h-103zM492 702q7 -4 10.5 -9t4.5 -14q-40 -31 -68 -55.5t-52 -48.5t-52 -55q-17 -3 -32 0q-16 34 -29 58t-29 48t-44 57q6 13 19 19q40 -21 63 -39t53 -41q27 15 49 27.5t47 25.5t60 27z
" />
    <glyph glyph-name="Sacute" unicode="&#x15a;" horiz-adv-x="591" 
d="M246 -14q-65 0 -120.5 12t-96.5 34l39 187q16 3 32 0q-5 -56 13 -99.5t55 -68.5t87 -25q59 0 96.5 19t54.5 50t17 68q0 43 -21.5 70t-55 46t-71.5 36.5t-71.5 41t-55 58.5t-21.5 90q0 62 33 109t93 73.5t141 26.5q65 0 112.5 -12t80.5 -33l-35 -167q-16 -3 -32 0
q7 77 -27 124.5t-106 47.5q-68 0 -108.5 -35.5t-40.5 -86.5q0 -39 22 -64t57 -43t74.5 -36t74.5 -42.5t57 -61.5t22 -94q0 -66 -35 -117t-101.5 -79.5t-162.5 -28.5zM618 931q-28 -41 -66.5 -67t-78 -46.5t-70.5 -47.5q-16 -3 -32 0q35 38 60 75.5t45 85.5h142z" />
    <glyph glyph-name="sacute" unicode="&#x15b;" horiz-adv-x="431" 
d="M175 -15q-41 0 -79.5 8t-78.5 27l30 137q16 3 32 0q0 -61 24 -96.5t78 -35.5q41 0 66 19t25 53q0 27 -20 44t-49 31.5t-58.5 32t-49.5 44.5t-20 70q0 48 25 80t67 48t94 16q41 0 77 -9.5t64 -25.5l-28 -126q-16 -3 -32 0q3 62 -21 91.5t-72 29.5q-37 0 -57 -18.5
t-20 -44.5q0 -29 20.5 -47t50.5 -33t60 -32t50.5 -43.5t20.5 -68.5q0 -50 -27.5 -84t-72.5 -50.5t-99 -16.5zM455 696q-23 -37 -57.5 -65.5t-69 -54t-61.5 -56.5q-16 -3 -32 0q35 49 55 91.5t33 84.5h132z" />
    <glyph glyph-name="Scircumflex" unicode="&#x15c;" horiz-adv-x="591" 
d="M246 -14q-65 0 -120.5 12t-96.5 34l39 187q16 3 32 0q-5 -56 13 -99.5t55 -68.5t87 -25q59 0 96.5 19t54.5 50t17 68q0 43 -21.5 70t-55 46t-71.5 36.5t-71.5 41t-55 58.5t-21.5 90q0 62 33 109t93 73.5t141 26.5q65 0 112.5 -12t80.5 -33l-35 -167q-16 -3 -32 0
q7 77 -27 124.5t-106 47.5q-68 0 -108.5 -35.5t-40.5 -86.5q0 -39 22 -64t57 -43t74.5 -36t74.5 -42.5t57 -61.5t22 -94q0 -66 -35 -117t-101.5 -79.5t-162.5 -28.5zM247 762q-5 5 -8.5 10t-5.5 13q36 23 61.5 40.5t45 33t38 33t41.5 39.5q16 3 32 0q16 -29 30 -50.5
t34.5 -44.5t55.5 -55q-6 -13 -16 -19q-32 12 -53.5 22t-40.5 21t-41 25q-29 -13 -54 -24t-53.5 -21.5t-65.5 -22.5z" />
    <glyph glyph-name="scircumflex" unicode="&#x15d;" horiz-adv-x="431" 
d="M175 -15q-41 0 -79.5 8t-78.5 27l30 137q16 3 32 0q0 -61 24 -96.5t78 -35.5q41 0 66 19t25 53q0 27 -20 44t-49 31.5t-58.5 32t-49.5 44.5t-20 70q0 48 25 80t67 48t94 16q41 0 77 -9.5t64 -25.5l-28 -126q-16 -3 -32 0q3 62 -21 91.5t-72 29.5q-37 0 -57 -18.5
t-20 -44.5q0 -29 20.5 -47t50.5 -33t60 -32t50.5 -43.5t20.5 -68.5q0 -50 -27.5 -84t-72.5 -50.5t-99 -16.5zM132 514q-7 5 -10 10t-5 13q40 31 68 55.5t52.5 49t51.5 54.5q17 3 32 0q17 -33 29.5 -57.5t28.5 -48.5t44 -57q-6 -13 -19 -19q-40 21 -63 39t-53 40
q-26 -14 -48.5 -26.5t-47 -25t-60.5 -27.5z" />
    <glyph glyph-name="Scedilla" unicode="&#x15e;" horiz-adv-x="591" 
d="M246 -14q-65 0 -120.5 12t-96.5 34l39 187q16 3 32 0q-5 -56 13 -99.5t55 -68.5t87 -25q59 0 96.5 19t54.5 50t17 68q0 43 -21.5 70t-55 46t-71.5 36.5t-71.5 41t-55 58.5t-21.5 90q0 62 33 109t93 73.5t141 26.5q65 0 112.5 -12t80.5 -33l-35 -167q-16 -3 -32 0
q7 77 -27 124.5t-106 47.5q-68 0 -108.5 -35.5t-40.5 -86.5q0 -39 22 -64t57 -43t74.5 -36t74.5 -42.5t57 -61.5t22 -94q0 -66 -35 -117t-101.5 -79.5t-162.5 -28.5zM155 -162q17 -13 36 -19t36 -6q21 0 33 9t12 25t-20 29t-59 25l55 99h40l-20 -40q40 -15 63 -37t23 -54
q0 -42 -34.5 -68t-85.5 -26q-29 0 -52.5 7t-44.5 23q3 9 7 17t11 16z" />
    <glyph glyph-name="scedilla" unicode="&#x15f;" horiz-adv-x="431" 
d="M175 -15q-41 0 -79.5 8t-78.5 27l30 137q16 3 32 0q0 -61 24 -96.5t78 -35.5q41 0 66 19t25 53q0 27 -20 44t-49 31.5t-58.5 32t-49.5 44.5t-20 70q0 48 25 80t67 48t94 16q41 0 77 -9.5t64 -25.5l-28 -126q-16 -3 -32 0q3 62 -21 91.5t-72 29.5q-37 0 -57 -18.5
t-20 -44.5q0 -29 20.5 -47t50.5 -33t60 -32t50.5 -43.5t20.5 -68.5q0 -50 -27.5 -84t-72.5 -50.5t-99 -16.5zM71 -162q17 -13 36 -19t36 -6q21 0 33 9t12 25t-20 29t-59 25l55 99h40l-20 -40q40 -15 63 -37t23 -54q0 -42 -34.5 -68t-85.5 -26q-29 0 -52.5 7t-44.5 23
q3 9 7 17t11 16z" />
    <glyph glyph-name="Scaron" unicode="&#x160;" horiz-adv-x="591" 
d="M246 -14q-65 0 -120.5 12t-96.5 34l39 187q16 3 32 0q-5 -56 13 -99.5t55 -68.5t87 -25q59 0 96.5 19t54.5 50t17 68q0 43 -21.5 70t-55 46t-71.5 36.5t-71.5 41t-55 58.5t-21.5 90q0 62 33 109t93 73.5t141 26.5q65 0 112.5 -12t80.5 -33l-35 -167q-16 -3 -32 0
q7 77 -27 124.5t-106 47.5q-68 0 -108.5 -35.5t-40.5 -86.5q0 -39 22 -64t57 -43t74.5 -36t74.5 -42.5t57 -61.5t22 -94q0 -66 -35 -117t-101.5 -79.5t-162.5 -28.5zM598 939q5 -4 9 -9.5t5 -13.5q-36 -23 -61.5 -40t-45 -32.5t-38 -33t-41.5 -40.5q-16 -3 -32 0
q-15 29 -29.5 51t-35 45t-55.5 54q6 13 16 19q31 -11 53 -21.5t41 -21.5t41 -25q29 14 54 25t53.5 21.5t65.5 21.5z" />
    <glyph glyph-name="scaron" unicode="&#x161;" horiz-adv-x="431" 
d="M175 -15q-41 0 -79.5 8t-78.5 27l30 137q16 3 32 0q0 -61 24 -96.5t78 -35.5q41 0 66 19t25 53q0 27 -20 44t-49 31.5t-58.5 32t-49.5 44.5t-20 70q0 48 25 80t67 48t94 16q41 0 77 -9.5t64 -25.5l-28 -126q-16 -3 -32 0q3 62 -21 91.5t-72 29.5q-37 0 -57 -18.5
t-20 -44.5q0 -29 20.5 -47t50.5 -33t60 -32t50.5 -43.5t20.5 -68.5q0 -50 -27.5 -84t-72.5 -50.5t-99 -16.5zM451 702q7 -4 10.5 -9t4.5 -14q-40 -31 -68 -55.5t-52 -48.5t-52 -55q-17 -3 -32 0q-16 34 -29 58t-29 48t-44 57q6 13 19 19q40 -21 63 -39t53 -41q27 15 49 27.5
t47 25.5t60 27z" />
    <glyph glyph-name="uni0162" unicode="&#x162;" horiz-adv-x="653" 
d="M135 -2q0 8 2 19t6 18h70q16 49 26.5 90t20.5 85l59 280q8 39 15 79.5t11 90.5h-47q-44 0 -77.5 -15.5t-59 -52.5t-43.5 -102q-16 -3 -32 0l44 210h595l-45 -210q-17 -3 -32 0q9 62 0 99t-35.5 54t-73.5 17h-47q-17 -52 -26.5 -88.5t-19.5 -81.5l-59 -280
q-9 -40 -16.5 -86t-11.5 -89h70q0 -6 -2 -17.5t-5 -19.5q-34 2 -71.5 2h-72.5h-71t-72 -2zM173 -162q17 -13 36 -19t36 -6q21 0 33 9t12 25t-20 29t-59 25l55 99h40l-20 -40q40 -15 63 -37t23 -54q0 -42 -34.5 -68t-85.5 -26q-29 0 -52.5 7t-44.5 23q3 9 7 17t11 16z" />
    <glyph glyph-name="uni0163" unicode="&#x163;" horiz-adv-x="346" 
d="M54 406q1 9 3.5 21t6.5 21h290q-1 -7 -3.5 -20t-6.5 -22h-290zM273 126q8 -4 15.5 -8.5t14.5 -11.5q-34 -60 -78 -90.5t-92 -30.5q-53 0 -69 32t-6 78l46 215q6 28 13 63t12.5 71t7.5 67q21 6 41 17.5t37 27t26 32.5q16 3 32 0q-20 -79 -35 -145t-30 -134l-44 -209
q-4 -23 1 -37t19 -14q12 0 33.5 15t55.5 62zM27 -162q17 -13 36 -19t36 -6q21 0 33 9t12 25t-20 29t-59 25l55 99h40l-20 -40q40 -15 63 -37t23 -54q0 -42 -34.5 -68t-85.5 -26q-29 0 -52.5 7t-44.5 23q3 9 7 17t11 16z" />
    <glyph glyph-name="Tcaron" unicode="&#x164;" horiz-adv-x="653" 
d="M135 -2q0 8 2 19t6 18h70q16 49 26.5 90t20.5 85l59 280q8 39 15 79.5t11 90.5h-47q-44 0 -77.5 -15.5t-59 -52.5t-43.5 -102q-16 -3 -32 0l44 210h595l-45 -210q-17 -3 -32 0q9 62 0 99t-35.5 54t-73.5 17h-47q-17 -52 -26.5 -88.5t-19.5 -81.5l-59 -280
q-9 -40 -16.5 -86t-11.5 -89h70q0 -6 -2 -17.5t-5 -19.5q-34 2 -71.5 2h-72.5h-71t-72 -2zM635 939q5 -4 9 -9.5t5 -13.5q-36 -23 -61.5 -40t-45 -32.5t-38 -33t-41.5 -40.5q-16 -3 -32 0q-15 29 -29.5 51t-35 45t-55.5 54q6 13 16 19q31 -11 53 -21.5t41 -21.5t41 -25
q29 14 54 25t53.5 21.5t65.5 21.5z" />
    <glyph glyph-name="tcaron" unicode="&#x165;" horiz-adv-x="346" 
d="M317 698l57 24l44 -46l-12 -53q-16 -23 -27.5 -43t-20 -40.5t-17.5 -46.5q-16 1 -28 7q2 27 2 49.5t-2 45t-8 49.5zM54 406q1 9 3.5 21t6.5 21h290q-1 -7 -3.5 -20t-6.5 -22h-290zM273 126q8 -4 15.5 -8.5t14.5 -11.5q-34 -60 -78 -90.5t-92 -30.5q-53 0 -69 32t-6 78
l46 215q6 28 13 63t12.5 71t7.5 67q21 6 41 17.5t37 27t26 32.5q16 3 32 0q-20 -79 -35 -145t-30 -134l-44 -209q-4 -23 1 -37t19 -14q12 0 33.5 15t55.5 62z" />
    <glyph glyph-name="Tbar" unicode="&#x166;" horiz-adv-x="655" 
d="M556 350h-397q0 13 3 25t7 25h397q0 -13 -2.5 -25t-7.5 -25zM135 -2q0 8 2 19t6 18h70q16 49 26.5 90t20.5 85l59 280q8 39 15 79.5t11 90.5h-47q-44 0 -77.5 -15.5t-59 -52.5t-43.5 -102q-16 -3 -32 0l44 210h595l-45 -210q-17 -3 -32 0q9 62 0 99t-35.5 54t-73.5 17
h-47q-17 -52 -26.5 -88.5t-19.5 -81.5l-59 -280q-9 -40 -16.5 -86t-11.5 -89h70q0 -6 -2 -17.5t-5 -19.5q-34 2 -71.5 2h-72.5h-71t-72 -2z" />
    <glyph glyph-name="tbar" unicode="&#x167;" horiz-adv-x="352" 
d="M310 220h-289q0 13 3 25t7 25h289q0 -13 -2.5 -25t-7.5 -25zM58 406q1 9 3.5 21t6.5 21h290q-1 -7 -3.5 -20t-6.5 -22h-290zM277 126q8 -4 15.5 -8.5t14.5 -11.5q-34 -60 -78 -90.5t-92 -30.5q-52 0 -68 32t-6 78l45 215q6 28 13 63t13 71t8 67q20 6 40 17.5t37 27
t26 32.5q17 3 32 0q-20 -79 -35 -145t-30 -134l-44 -209q-4 -23 1.5 -37t19.5 -14q11 0 33 15t55 62z" />
    <glyph glyph-name="Utilde" unicode="&#x168;" horiz-adv-x="740" 
d="M345 -15q-143 0 -202.5 53.5t-36.5 162.5l62 289q10 43 16 82.5t11 92.5h-70q0 8 2.5 19t5.5 18q34 -1 71.5 -1.5t71.5 -0.5q35 0 72 0.5t72 1.5q0 -7 -2.5 -18t-5.5 -19h-70q-14 -45 -25 -86t-22 -89l-55 -255q-23 -109 9 -156t117 -47q86 0 141.5 50.5t74.5 137.5
l58 270q5 28 9 53t7.5 54t5.5 68h-81q0 8 2.5 19t5.5 18q37 -1 69 -1.5t51 -0.5q17 0 43.5 0.5t61.5 1.5q0 -7 -2.5 -18t-5.5 -19h-67q-14 -37 -23 -65.5t-16 -53.5t-13 -56l-61 -285q-22 -103 -96 -161.5t-185 -58.5zM682 899q9 -1 16 -5t10 -8q-22 -66 -57.5 -90.5
t-69.5 -24.5q-26 0 -43 8.5t-31 19t-27 19t-30 8.5q-19 0 -36 -9.5t-34 -41.5q-7 1 -14 4t-12 9q22 67 56.5 91.5t69.5 24.5q25 0 42.5 -8.5t31.5 -19t28 -19t32 -8.5t34 10t34 40z" />
    <glyph glyph-name="utilde" unicode="&#x169;" horiz-adv-x="577" 
d="M147 -15q-58 0 -79 36t-6 104l32 139q8 35 13 69.5t8 77.5h-55q0 8 2.5 19t5.5 18q47 0 93.5 3t94.5 11q-11 -24 -22 -60.5t-19.5 -73t-15.5 -64.5l-32 -135q-7 -34 1 -53.5t34 -19.5q30 0 58.5 24t53 64.5t44 92t31.5 106.5h28q-29 -134 -72.5 -212.5t-94.5 -112
t-103 -33.5zM406 -15q-47 0 -63.5 32t-6.5 78l53 248q5 27 9 53t5 52q30 0 58 1t58 4q-8 -31 -14 -57.5t-12 -53.5l-51 -242q-5 -25 -3 -40.5t17 -15.5q14 0 30 14.5t39 47.5q8 -4 15.5 -8.5t14.5 -11.5q-26 -45 -65.5 -73t-83.5 -28zM493 666q8 -2 15 -4.5t12 -7.5
q-22 -67 -56 -92t-68 -25q-24 0 -39.5 8.5t-27.5 19t-23.5 19t-26.5 8.5q-19 0 -35 -9.5t-33 -40.5q-8 1 -15.5 4.5t-11.5 7.5q22 67 55 92t68 25q22 0 38 -8.5t29 -19t25 -19t27 -8.5q18 0 34 10t33 40z" />
    <glyph glyph-name="Umacron" unicode="&#x16a;" horiz-adv-x="740" 
d="M345 -15q-143 0 -202.5 53.5t-36.5 162.5l62 289q10 43 16 82.5t11 92.5h-70q0 8 2.5 19t5.5 18q34 -1 71.5 -1.5t71.5 -0.5q35 0 72 0.5t72 1.5q0 -7 -2.5 -18t-5.5 -19h-70q-14 -45 -25 -86t-22 -89l-55 -255q-23 -109 9 -156t117 -47q86 0 141.5 50.5t74.5 137.5
l58 270q5 28 9 53t7.5 54t5.5 68h-81q0 8 2.5 19t5.5 18q37 -1 69 -1.5t51 -0.5q17 0 43.5 0.5t61.5 1.5q0 -7 -2.5 -18t-5.5 -19h-67q-14 -37 -23 -65.5t-16 -53.5t-13 -56l-61 -285q-22 -103 -96 -161.5t-185 -58.5zM664 785h-289q0 13 4.5 32t8.5 32h289q0 -13 -4 -32
t-9 -32z" />
    <glyph glyph-name="umacron" unicode="&#x16b;" horiz-adv-x="577" 
d="M147 -15q-58 0 -79 36t-6 104l32 139q8 35 13 69.5t8 77.5h-55q0 8 2.5 19t5.5 18q47 0 93.5 3t94.5 11q-11 -24 -22 -60.5t-19.5 -73t-15.5 -64.5l-32 -135q-7 -34 1 -53.5t34 -19.5q30 0 58.5 24t53 64.5t44 92t31.5 106.5h28q-29 -134 -72.5 -212.5t-94.5 -112
t-103 -33.5zM406 -15q-47 0 -63.5 32t-6.5 78l53 248q5 27 9 53t5 52q30 0 58 1t58 4q-8 -31 -14 -57.5t-12 -53.5l-51 -242q-5 -25 -3 -40.5t17 -15.5q14 0 30 14.5t39 47.5q8 -4 15.5 -8.5t14.5 -11.5q-26 -45 -65.5 -73t-83.5 -28zM486 540h-288q0 13 4.5 32t8.5 32h288
q0 -13 -4 -32t-9 -32z" />
    <glyph glyph-name="Ubreve" unicode="&#x16c;" horiz-adv-x="740" 
d="M345 -15q-143 0 -202.5 53.5t-36.5 162.5l62 289q10 43 16 82.5t11 92.5h-70q0 8 2.5 19t5.5 18q34 -1 71.5 -1.5t71.5 -0.5q35 0 72 0.5t72 1.5q0 -7 -2.5 -18t-5.5 -19h-70q-14 -45 -25 -86t-22 -89l-55 -255q-23 -109 9 -156t117 -47q86 0 141.5 50.5t74.5 137.5
l58 270q5 28 9 53t7.5 54t5.5 68h-81q0 8 2.5 19t5.5 18q37 -1 69 -1.5t51 -0.5q17 0 43.5 0.5t61.5 1.5q0 -7 -2.5 -18t-5.5 -19h-67q-14 -37 -23 -65.5t-16 -53.5t-13 -56l-61 -285q-22 -103 -96 -161.5t-185 -58.5zM663 927q16 3 32 0q-17 -82 -62.5 -119.5t-104.5 -37.5
q-65 0 -96.5 42.5t-25.5 114.5q16 3 32 0q3 -41 29.5 -58t68.5 -17q40 0 73.5 16.5t53.5 58.5z" />
    <glyph glyph-name="ubreve" unicode="&#x16d;" horiz-adv-x="577" 
d="M147 -15q-58 0 -79 36t-6 104l32 139q8 35 13 69.5t8 77.5h-55q0 8 2.5 19t5.5 18q47 0 93.5 3t94.5 11q-11 -24 -22 -60.5t-19.5 -73t-15.5 -64.5l-32 -135q-7 -34 1 -53.5t34 -19.5q30 0 58.5 24t53 64.5t44 92t31.5 106.5h28q-29 -134 -72.5 -212.5t-94.5 -112
t-103 -33.5zM406 -15q-47 0 -63.5 32t-6.5 78l53 248q5 27 9 53t5 52q30 0 58 1t58 4q-8 -31 -14 -57.5t-12 -53.5l-51 -242q-5 -25 -3 -40.5t17 -15.5q14 0 30 14.5t39 47.5q8 -4 15.5 -8.5t14.5 -11.5q-26 -45 -65.5 -73t-83.5 -28zM483 688q16 3 32 0q-19 -90 -63 -129.5
t-104 -39.5q-68 0 -97 45t-20 124q16 3 32 0q1 -48 26 -69t67 -21q39 0 72.5 20.5t54.5 69.5z" />
    <glyph glyph-name="Uring" unicode="&#x16e;" horiz-adv-x="740" 
d="M345 -15q-143 0 -202.5 53.5t-36.5 162.5l62 289q10 43 16 82.5t11 92.5h-70q0 8 2.5 19t5.5 18q34 -1 71.5 -1.5t71.5 -0.5q35 0 72 0.5t72 1.5q0 -7 -2.5 -18t-5.5 -19h-70q-14 -45 -25 -86t-22 -89l-55 -255q-23 -109 9 -156t117 -47q86 0 141.5 50.5t74.5 137.5
l58 270q5 28 9 53t7.5 54t5.5 68h-81q0 8 2.5 19t5.5 18q37 -1 69 -1.5t51 -0.5q17 0 43.5 0.5t61.5 1.5q0 -7 -2.5 -18t-5.5 -19h-67q-14 -37 -23 -65.5t-16 -53.5t-13 -56l-61 -285q-22 -103 -96 -161.5t-185 -58.5zM553 949q42 0 70.5 -22.5t28.5 -58.5q0 -29 -18 -53.5
t-48 -39t-68 -14.5q-43 0 -71 22.5t-28 57.5q0 30 17.5 54.5t48 39t68.5 14.5zM525 796q22 0 39.5 22.5t17.5 51.5q0 21 -10 32.5t-26 11.5q-22 0 -40 -22.5t-18 -51.5q0 -20 10.5 -32t26.5 -12z" />
    <glyph glyph-name="uring" unicode="&#x16f;" horiz-adv-x="577" 
d="M147 -15q-58 0 -79 36t-6 104l32 139q8 35 13 69.5t8 77.5h-55q0 8 2.5 19t5.5 18q47 0 93.5 3t94.5 11q-11 -24 -22 -60.5t-19.5 -73t-15.5 -64.5l-32 -135q-7 -34 1 -53.5t34 -19.5q30 0 58.5 24t53 64.5t44 92t31.5 106.5h28q-29 -134 -72.5 -212.5t-94.5 -112
t-103 -33.5zM406 -15q-47 0 -63.5 32t-6.5 78l53 248q5 27 9 53t5 52q30 0 58 1t58 4q-8 -31 -14 -57.5t-12 -53.5l-51 -242q-5 -25 -3 -40.5t17 -15.5q14 0 30 14.5t39 47.5q8 -4 15.5 -8.5t14.5 -11.5q-26 -45 -65.5 -73t-83.5 -28zM374 705q42 0 70.5 -22.5t28.5 -58.5
q0 -29 -18 -53.5t-48 -39t-68 -14.5q-43 0 -71 22.5t-28 57.5q0 30 17.5 54.5t48 39t68.5 14.5zM346 552q22 0 39.5 22.5t17.5 51.5q0 21 -10 32.5t-26 11.5q-22 0 -40 -22.5t-18 -51.5q0 -20 10.5 -32t26.5 -12z" />
    <glyph glyph-name="Uhungarumlaut" unicode="&#x170;" horiz-adv-x="740" 
d="M345 -15q-143 0 -202.5 53.5t-36.5 162.5l62 289q10 43 16 82.5t11 92.5h-70q0 8 2.5 19t5.5 18q34 -1 71.5 -1.5t71.5 -0.5q35 0 72 0.5t72 1.5q0 -7 -2.5 -18t-5.5 -19h-70q-14 -45 -25 -86t-22 -89l-55 -255q-23 -109 9 -156t117 -47q86 0 141.5 50.5t74.5 137.5
l58 270q5 28 9 53t7.5 54t5.5 68h-81q0 8 2.5 19t5.5 18q37 -1 69 -1.5t51 -0.5q17 0 43.5 0.5t61.5 1.5q0 -7 -2.5 -18t-5.5 -19h-67q-14 -37 -23 -65.5t-16 -53.5t-13 -56l-61 -285q-22 -103 -96 -161.5t-185 -58.5zM636 931q-26 -36 -61 -62.5t-70 -49.5t-62 -49
q-16 -3 -32 0q34 41 57.5 80t37.5 81h130zM785 931q-29 -41 -65 -67t-72 -47t-62 -47q-16 -3 -32 0q36 41 62.5 79.5t42.5 81.5h126z" />
    <glyph glyph-name="uhungarumlaut" unicode="&#x171;" horiz-adv-x="577" 
d="M147 -15q-58 0 -79 36t-6 104l32 139q8 35 13 69.5t8 77.5h-55q0 8 2.5 19t5.5 18q47 0 93.5 3t94.5 11q-11 -24 -22 -60.5t-19.5 -73t-15.5 -64.5l-32 -135q-7 -34 1 -53.5t34 -19.5q30 0 58.5 24t53 64.5t44 92t31.5 106.5h28q-29 -134 -72.5 -212.5t-94.5 -112
t-103 -33.5zM406 -15q-47 0 -63.5 32t-6.5 78l53 248q5 27 9 53t5 52q30 0 58 1t58 4q-8 -31 -14 -57.5t-12 -53.5l-51 -242q-5 -25 -3 -40.5t17 -15.5q14 0 30 14.5t39 47.5q8 -4 15.5 -8.5t14.5 -11.5q-26 -45 -65.5 -73t-83.5 -28zM457 696q-24 -37 -56 -65.5t-64.5 -54
t-58.5 -56.5q-16 -3 -32 0q34 48 57 91.5t36 84.5h118zM598 696q-25 -39 -59 -67t-68.5 -53t-61.5 -56q-16 -3 -32 0q42 49 66 92t37 84h118z" />
    <glyph glyph-name="Uogonek" unicode="&#x172;" horiz-adv-x="740" 
d="M345 -15q-143 0 -202.5 53.5t-36.5 162.5l62 289q10 43 16 82.5t11 92.5h-70q0 8 2.5 19t5.5 18q34 -1 71.5 -1.5t71.5 -0.5q35 0 72 0.5t72 1.5q0 -7 -2.5 -18t-5.5 -19h-70q-14 -45 -25 -86t-22 -89l-55 -255q-23 -109 9 -156t117 -47q86 0 141.5 50.5t74.5 137.5
l58 270q5 28 9 53t7.5 54t5.5 68h-81q0 8 2.5 19t5.5 18q37 -1 69 -1.5t51 -0.5q17 0 43.5 0.5t61.5 1.5q0 -7 -2.5 -18t-5.5 -19h-67q-14 -37 -23 -65.5t-16 -53.5t-13 -56l-61 -285q-22 -103 -96 -161.5t-185 -58.5zM303 -225q-38 0 -65 21t-27 53q0 47 31 80t80 55.5
t104 36.5l14 -21q-62 -20 -97 -55t-35 -76q0 -17 10.5 -27.5t31.5 -10.5q11 0 26.5 4.5t34.5 15.5q6 -6 8.5 -14t3.5 -15q-23 -19 -55.5 -33t-64.5 -14z" />
    <glyph glyph-name="uogonek" unicode="&#x173;" horiz-adv-x="577" 
d="M147 -15q-58 0 -79 36t-6 104l32 139q8 35 13 69.5t8 77.5h-55q0 8 2.5 19t5.5 18q47 0 93.5 3t94.5 11q-11 -24 -22 -60.5t-19.5 -73t-15.5 -64.5l-32 -135q-7 -34 1 -53.5t34 -19.5q30 0 58.5 24t53 64.5t44 92t31.5 106.5h28q-29 -134 -72.5 -212.5t-94.5 -112
t-103 -33.5zM406 -15q-47 0 -63.5 32t-6.5 78l53 248q5 27 9 53t5 52q30 0 58 1t58 4q-8 -31 -14 -57.5t-12 -53.5l-51 -242q-5 -25 -3 -40.5t17 -15.5q14 0 30 14.5t39 47.5q8 -4 15.5 -8.5t14.5 -11.5q-26 -45 -65.5 -73t-83.5 -28zM328 -225q-38 0 -65 21t-27 53
q0 47 31 80t80 55.5t104 36.5l14 -21q-62 -20 -97 -55t-35 -76q0 -17 10.5 -27.5t31.5 -10.5q11 0 26.5 4.5t34.5 15.5q6 -6 8.5 -14t3.5 -15q-23 -19 -55.5 -33t-64.5 -14z" />
    <glyph glyph-name="Wcircumflex" unicode="&#x174;" horiz-adv-x="1034" 
d="M136 665h-46q0 8 2.5 19t5.5 18q24 -1 42 -1.5t38 -0.5h47q40 0 76 0.5t71 1.5q0 -7 -2.5 -18t-5.5 -19h-69q-1 -49 2.5 -90t10.5 -85l47 -308l-117 -202q2 33 -1 72t-8 77.5t-10 70.5l-44 290q-7 43 -15.5 85.5t-23.5 89.5zM1140 702q0 -6 -1.5 -17t-6.5 -20h-58
q-22 -31 -40 -59.5t-34.5 -56.5t-33.5 -59l-168 -309q-21 -40 -48.5 -93.5t-47.5 -107.5q-10 -1 -23 -1.5t-25.5 0t-23.5 1.5l117 202l166 308q19 36 38.5 77.5t34.5 97.5h-85q0 7 2.5 18.5t5.5 18.5q42 -1 77 -1.5t55 -0.5q19 0 41 0.5t58 1.5zM535 665h-52q0 8 2 19t6 18
q23 -1 42 -1.5t39 -0.5h46q39 0 75 0.5t71 1.5q0 -6 -2 -16.5t-6 -20.5h-69q-1 -44 3 -87.5t11 -87.5l46 -308l-117 -202q1 53 -4.5 104t-15.5 116l-43 290q-4 36 -8.5 64t-9.5 55t-14 56zM622 561l-215 -380q-13 -22 -31 -56t-35.5 -71.5t-30.5 -73.5q-10 -1 -23.5 -1.5
t-26 0t-22.5 1.5l117 202l214 379h53zM481 762q-5 5 -8 10t-5 13q36 23 61 40.5t45 33t38.5 33t41.5 39.5q16 3 32 0q16 -29 30 -50.5t34.5 -44.5t55.5 -55q-6 -13 -16 -19q-32 12 -53.5 22t-40.5 21t-42 25q-28 -13 -53 -24t-53.5 -21.5t-66.5 -22.5z" />
    <glyph glyph-name="wcircumflex" unicode="&#x175;" horiz-adv-x="759" 
d="M386 343h28q-29 -134 -70.5 -212.5t-91.5 -112t-102 -33.5q-57 0 -81.5 36t-9.5 104l32 139q8 35 13 69.5t8 77.5h-55q0 8 2.5 19t5.5 18q47 0 93.5 3t94.5 11q-11 -24 -22 -60.5t-19.5 -73t-15.5 -64.5l-32 -135q-7 -34 1 -53.5t34 -19.5q30 0 58.5 24t53 64.5t44 92
t31.5 106.5zM733 448q6 -66 -5.5 -132t-37.5 -125.5t-64.5 -106t-86.5 -73t-104 -26.5q-64 0 -86.5 37t-8.5 105l46 216q5 27 9 53t5 52q30 0 58 1t58 4q-8 -31 -14 -57.5t-12 -53.5l-45 -213q-7 -33 5.5 -53t44.5 -20q43 0 79 31t58.5 85t22.5 124q0 33 -6.5 61.5
t-22.5 53.5h-42q0 7 2.5 19.5t5.5 19.5q35 -1 72.5 -1.5t68.5 -0.5zM329 514q-6 5 -9.5 10t-4.5 13q40 31 68 55.5t52.5 49t51.5 54.5q16 3 32 0q16 -33 28.5 -57.5t29 -48.5t44.5 -57q-6 -13 -19 -19q-40 21 -63 39t-53 40q-27 -14 -49 -26.5t-47 -25t-61 -27.5z" />
    <glyph glyph-name="Ycircumflex" unicode="&#x176;" horiz-adv-x="648" 
d="M133 -2q0 8 2.5 19t5.5 18h70q14 42 25 83t17 68l3 13q16 68 12 137.5t-21.5 133t-43 114.5t-53.5 81h162q1 -18 12 -43.5t24.5 -62t24.5 -87.5t13 -120q20 45 47 89.5t55.5 84t53.5 68.5q23 28 33 44.5t15 26.5h89q-63 -54 -113 -115t-87 -123t-60 -117.5t-33 -98.5
l-3 -13q-9 -39 -15 -79.5t-10 -83.5h70q0 -7 -2.5 -18t-5.5 -19q-34 2 -71.5 2h-71.5h-71.5t-72.5 -2zM91 665q0 8 2.5 19t5.5 18q34 -1 65.5 -1.5t62.5 -0.5q20 0 62 0.5t85 1.5q0 -7 -2.5 -18t-5.5 -19h-275zM510 665q0 8 2.5 19t5.5 18q41 -1 73.5 -1.5t51.5 -0.5
q20 0 42 0.5t57 1.5q0 -7 -2.5 -18t-5.5 -19h-224zM298 762q-5 5 -8 10t-5 13q36 23 61 40.5t44.5 33t38.5 33t42 39.5q16 3 32 0q16 -29 30 -50.5t34 -44.5t55 -55q-6 -13 -15 -19q-32 12 -53.5 22t-40.5 21t-42 25q-28 -13 -53 -24t-53.5 -21.5t-66.5 -22.5z" />
    <glyph glyph-name="ycircumflex" unicode="&#x177;" horiz-adv-x="541" 
d="M388 343h29q-22 -101 -51.5 -166.5t-64 -103t-71.5 -53t-74 -15.5q-61 0 -83 36t-7 104l27 119q9 35 14 69.5t8 77.5h-55q0 8 2.5 19t5.5 18q47 0 93 3t95 11q-11 -24 -22 -60.5t-20 -73.5t-16 -64l-27 -115q-8 -34 1 -53.5t36 -19.5q29 0 56 21t51 58t43 85t30 103z
M403 448q30 0 58 1t58 4q-8 -31 -14.5 -57.5t-11.5 -53.5l-54 -261q-21 -101 -70.5 -169t-117.5 -102.5t-145 -34.5q-66 0 -107 26t-41 77q0 31 15 55t38.5 42.5t50.5 32t50 22.5l25 -18q-43 -21 -66.5 -54t-23.5 -73q0 -32 17.5 -51t58.5 -19q52 0 93.5 29.5t71 83
t44.5 123.5l25 120l-1 20l32 152q6 27 10 53t5 52zM195 514q-7 5 -10 10t-5 13q40 31 68 55.5t52.5 49t51.5 54.5q17 3 32 0q17 -33 29 -57.5t28.5 -48.5t44.5 -57q-6 -13 -19 -19q-40 21 -63 39t-53 40q-26 -14 -48.5 -26.5t-47.5 -25t-60 -27.5z" />
    <glyph glyph-name="Ydieresis" unicode="&#x178;" horiz-adv-x="648" 
d="M133 -2q0 8 2.5 19t5.5 18h70q14 42 25 83t17 68l3 13q16 68 12 137.5t-21.5 133t-43 114.5t-53.5 81h162q1 -18 12 -43.5t24.5 -62t24.5 -87.5t13 -120q20 45 47 89.5t55.5 84t53.5 68.5q23 28 33 44.5t15 26.5h89q-63 -54 -113 -115t-87 -123t-60 -117.5t-33 -98.5
l-3 -13q-9 -39 -15 -79.5t-10 -83.5h70q0 -7 -2.5 -18t-5.5 -19q-34 2 -71.5 2h-71.5h-71.5t-72.5 -2zM91 665q0 8 2.5 19t5.5 18q34 -1 65.5 -1.5t62.5 -0.5q20 0 62 0.5t85 1.5q0 -7 -2.5 -18t-5.5 -19h-275zM510 665q0 8 2.5 19t5.5 18q41 -1 73.5 -1.5t51.5 -0.5
q20 0 42 0.5t57 1.5q0 -7 -2.5 -18t-5.5 -19h-224zM376 915l53 -45l-15 -71l-67 -19l-53 45l15 71zM600 915l53 -45l-15 -71l-67 -19l-54 45l16 71z" />
    <glyph glyph-name="Zacute" unicode="&#x179;" horiz-adv-x="640" 
d="M166 700h517q0 -13 -2 -24.5t-6 -25.5l-155 10h-186q-40 0 -74.5 -13t-60.5 -46.5t-43 -94.5q-16 -3 -32 0zM545 0h-555q0 12 1.5 24.5t4.5 25.5l161 -10h221q49 0 83.5 17.5t56.5 50.5t35 82q17 3 32 0zM520 660l155 -10q-24 -13 -48 -36t-44 -48t-37 -46l-281 -371
q-32 -39 -56.5 -67.5t-51.5 -41.5l-161 10q21 9 47 31.5t50.5 49.5t41.5 49l279 367q36 46 60 73t46 40zM628 931q-28 -41 -66.5 -67t-78 -46.5t-70.5 -47.5q-16 -3 -32 0q35 38 60 75.5t45 85.5h142z" />
    <glyph glyph-name="zacute" unicode="&#x17a;" horiz-adv-x="479" 
d="M-25 0q52 55 104 103t102 92t97.5 88t91.5 91l90 31q-50 -56 -101 -104t-100.5 -92t-98 -87.5t-94.5 -89.5zM304 -29q-34 0 -58 7.5t-45 17.5t-43.5 17.5t-54.5 7.5q-31 0 -51.5 -10t-45.5 -35q-17 9 -31 24l166 118q46 -2 72 -17t42.5 -33t32 -31t40.5 -13
q26 0 37.5 15.5t11.5 35.5q0 24 -13 42t-28 31q11 12 30 20q23 -18 39.5 -41.5t15.5 -58.5q-1 -44 -34 -70.5t-83 -26.5zM72 286l34 162h361q0 -22 -7 -43l-88 -45h-179q-26 0 -41.5 -7t-25.5 -23t-22 -44q-17 -3 -32 0zM466 696q-23 -37 -57.5 -65.5t-69 -54t-61.5 -56.5
q-16 -3 -32 0q35 49 55 91.5t33 84.5h132z" />
    <glyph glyph-name="Zdotaccent" unicode="&#x17b;" horiz-adv-x="640" 
d="M166 700h517q0 -13 -2 -24.5t-6 -25.5l-155 10h-186q-40 0 -74.5 -13t-60.5 -46.5t-43 -94.5q-16 -3 -32 0zM545 0h-555q0 12 1.5 24.5t4.5 25.5l161 -10h221q49 0 83.5 17.5t56.5 50.5t35 82q17 3 32 0zM520 660l155 -10q-24 -13 -48 -36t-44 -48t-37 -46l-281 -371
q-32 -39 -56.5 -67.5t-51.5 -41.5l-161 10q21 9 47 31.5t50.5 49.5t41.5 49l279 367q36 46 60 73t46 40zM445 915l54 -45l-15 -71l-67 -19l-54 45l16 71z" />
    <glyph glyph-name="zdotaccent" unicode="&#x17c;" horiz-adv-x="479" 
d="M-25 0q52 55 104 103t102 92t97.5 88t91.5 91l90 31q-50 -56 -101 -104t-100.5 -92t-98 -87.5t-94.5 -89.5zM304 -29q-34 0 -58 7.5t-45 17.5t-43.5 17.5t-54.5 7.5q-31 0 -51.5 -10t-45.5 -35q-17 9 -31 24l166 118q46 -2 72 -17t42.5 -33t32 -31t40.5 -13
q26 0 37.5 15.5t11.5 35.5q0 24 -13 42t-28 31q11 12 30 20q23 -18 39.5 -41.5t15.5 -58.5q-1 -44 -34 -70.5t-83 -26.5zM72 286l34 162h361q0 -22 -7 -43l-88 -45h-179q-26 0 -41.5 -7t-25.5 -23t-22 -44q-17 -3 -32 0zM318 681l53 -45l-15 -70l-67 -20l-53 45l15 71z" />
    <glyph glyph-name="Zcaron" unicode="&#x17d;" horiz-adv-x="640" 
d="M166 700h517q0 -13 -2 -24.5t-6 -25.5l-155 10h-186q-40 0 -74.5 -13t-60.5 -46.5t-43 -94.5q-16 -3 -32 0zM545 0h-555q0 12 1.5 24.5t4.5 25.5l161 -10h221q49 0 83.5 17.5t56.5 50.5t35 82q17 3 32 0zM520 660l155 -10q-24 -13 -48 -36t-44 -48t-37 -46l-281 -371
q-32 -39 -56.5 -67.5t-51.5 -41.5l-161 10q21 9 47 31.5t50.5 49.5t41.5 49l279 367q36 46 60 73t46 40zM608 939q5 -4 9 -9.5t5 -13.5q-36 -23 -61.5 -40t-45 -32.5t-38 -33t-41.5 -40.5q-16 -3 -32 0q-15 29 -29.5 51t-35 45t-55.5 54q6 13 16 19q31 -11 53 -21.5
t41 -21.5t41 -25q29 14 54 25t53.5 21.5t65.5 21.5z" />
    <glyph glyph-name="zcaron" unicode="&#x17e;" horiz-adv-x="479" 
d="M-25 0q52 55 104 103t102 92t97.5 88t91.5 91l90 31q-50 -56 -101 -104t-100.5 -92t-98 -87.5t-94.5 -89.5zM304 -29q-34 0 -58 7.5t-45 17.5t-43.5 17.5t-54.5 7.5q-31 0 -51.5 -10t-45.5 -35q-17 9 -31 24l166 118q46 -2 72 -17t42.5 -33t32 -31t40.5 -13
q26 0 37.5 15.5t11.5 35.5q0 24 -13 42t-28 31q11 12 30 20q23 -18 39.5 -41.5t15.5 -58.5q-1 -44 -34 -70.5t-83 -26.5zM72 286l34 162h361q0 -22 -7 -43l-88 -45h-179q-26 0 -41.5 -7t-25.5 -23t-22 -44q-17 -3 -32 0zM462 702q7 -4 10.5 -9t4.5 -14q-40 -31 -68 -55.5
t-52 -48.5t-52 -55q-17 -3 -32 0q-16 34 -29 58t-29 48t-44 57q6 13 19 19q40 -21 63 -39t53 -41q27 15 49 27.5t47 25.5t60 27z" />
    <glyph glyph-name="uni018F" unicode="&#x18f;" horiz-adv-x="723" 
d="M405 715q91 0 159 -34.5t105.5 -101t37.5 -164.5q0 -85 -28.5 -162t-82 -137.5t-129 -95.5t-170.5 -35q-99 0 -161 39t-84.5 113t-6.5 180q34 -4 72.5 -7.5t91.5 -3.5h382l-6 -40h-397q-12 -81 0 -134.5t42 -79.5t70 -26q55 0 97.5 26.5t74 70t51.5 97t30 109t10 103.5
q0 59 -19.5 110.5t-60.5 84t-105 32.5t-129 -33t-134 -111q-10 6 -16.5 12.5t-13.5 15.5q79 86 156 129t164 43z" />
    <glyph glyph-name="florin" unicode="&#x192;" horiz-adv-x="413" 
d="M7 -225q-1 19 3 38q38 5 60.5 32t33.5 65.5t14 79.5l42 464q9 101 33.5 158.5t64 82.5t91.5 25q63 0 84 -31.5t16 -80.5h-103q6 34 0 55t-22 21q-10 0 -17.5 -7.5t-13 -26t-10.5 -50.5t-9 -82l-38 -444q-3 -28 -4.5 -56.5t1.5 -57.5q-7 -28 -25 -59.5t-46 -59.5t-67 -46
t-88 -20zM413 406h-329q-3 22 0 42h329q4 -20 0 -42z" />
    <glyph glyph-name="Ohorn" unicode="&#x1a0;" horiz-adv-x="810" 
d="M488 715q93 0 161 -34.5t105 -101t37 -164.5q0 -85 -28.5 -162.5t-82.5 -137.5t-131 -95t-174 -35q-93 0 -161 34.5t-105 101.5t-37 164q0 85 29 162t82.5 137.5t130.5 95.5t174 35zM378 27q80 0 140 52t94.5 143.5t34.5 209.5q0 69 -15 123t-50 86t-97 32
q-78 0 -139 -52t-95 -143.5t-34 -210.5q0 -67 14.5 -121.5t49.5 -86.5t97 -32zM705 577l3 43q25 0 43.5 23t18.5 54q0 15 -7 31t-25 35h144q-1 -14 -2 -24t-3 -21q-8 -37 -33 -69t-61 -52t-78 -20z" />
    <glyph glyph-name="ohorn" unicode="&#x1a1;" horiz-adv-x="537" 
d="M318 424q-40 0 -71.5 -27.5t-53 -70.5t-32.5 -91t-11 -90q0 -57 16.5 -88.5t52.5 -31.5l2 -40q-88 0 -136.5 48.5t-48.5 129.5q0 61 20.5 115t58.5 96t89.5 66t111.5 24zM219 25q41 0 72.5 27.5t52.5 70t32 91t11 89.5q0 58 -16.5 89.5t-52.5 31.5l-2 40
q88 0 136.5 -48.5t48.5 -130.5q0 -60 -20.5 -114.5t-58.5 -96t-89.5 -65.5t-111.5 -24zM440 365l-4 35q27 0 46.5 22t19.5 52q0 25 -20 59h118q0 -10 -1.5 -22t-3.5 -23q-6 -30 -29 -58t-56 -46.5t-70 -18.5z" />
    <glyph glyph-name="Uhorn" unicode="&#x1af;" horiz-adv-x="740" 
d="M780 657h-44q-13 -35 -21.5 -61.5t-15 -51.5t-12.5 -54l-61 -285q-22 -103 -96 -161.5t-185 -58.5q-143 0 -202.5 53.5t-36.5 162.5l62 289q10 43 16 82.5t11 92.5h-70q0 8 2.5 19t5.5 18q34 -1 71.5 -1.5t71.5 -0.5q35 0 72 0.5t72 1.5q0 -7 -2.5 -18t-5.5 -19h-70
q-14 -45 -25 -86t-22 -89l-55 -255q-23 -109 9 -156t117 -47q86 0 141.5 50.5t74.5 137.5l58 270q6 28 10 53t7 54t5 68h-81q0 8 2.5 19t5.5 18q37 -1 69 -1.5t51 -0.5h31h43zM780 657l3 43q25 0 43.5 23t18.5 54q0 15 -7 31t-26 35h144q-1 -14 -2 -24t-3 -21
q-8 -37 -33 -69t-60.5 -52t-77.5 -20z" />
    <glyph glyph-name="uhorn" unicode="&#x1b0;" horiz-adv-x="577" 
d="M147 -15q-58 0 -79 36t-6 104l32 139q8 35 13 69.5t8 77.5h-55q0 8 2.5 19t5.5 18q47 0 93.5 3t94.5 11q-11 -24 -22 -60.5t-19.5 -73t-15.5 -64.5l-32 -135q-7 -34 1 -53.5t34 -19.5q30 0 58.5 24t53 64.5t44 92t31.5 106.5h28q-29 -134 -72.5 -212.5t-94.5 -112
t-103 -33.5zM406 -15q-47 0 -63.5 32t-6.5 78l53 248q5 27 9 53t5 52h115q-8 -30 -13.5 -55t-11.5 -51l-51 -242q-5 -25 -3 -40.5t17 -15.5q14 0 30 14.5t39 47.5q8 -4 15.5 -8.5t14.5 -11.5q-26 -45 -65.5 -73t-83.5 -28zM494 413l-4 35q27 0 46.5 22t19.5 52q0 25 -20 59
h118q0 -10 -1.5 -22t-3.5 -23q-6 -30 -29 -58t-56 -46.5t-70 -18.5z" />
    <glyph glyph-name="uni01C4" unicode="&#x1c4;" horiz-adv-x="1426" 
d="M287 700h189q146 0 226.5 -65.5t80.5 -197.5q0 -95 -35.5 -175.5t-100 -138.5t-151.5 -90.5t-189 -32.5h-169h-71.5t-72.5 -2q0 8 2.5 19t5.5 18h70q15 45 26.5 89.5t20.5 85.5l60 280q9 43 16 85.5t11 89.5h-70q0 8 2.5 19t5.5 18q34 -1 71.5 -1.5t71.5 -0.5zM220 40h94
q73 0 132.5 29.5t102.5 82.5t66.5 123.5t23.5 152.5q0 114 -41.5 173t-139.5 59h-106q-15 -46 -25 -83t-21 -87l-60 -280q-8 -39 -14.5 -80t-11.5 -90zM952 700h517q0 -13 -2 -24.5t-6 -25.5l-155 10h-186q-40 0 -74.5 -13t-60.5 -46.5t-43 -94.5q-16 -3 -32 0zM1331 0h-555
q0 12 1.5 24.5t4.5 25.5l161 -10h221q49 0 83.5 17.5t56.5 50.5t35 82q17 3 32 0zM1306 660l155 -10q-24 -13 -48 -36t-44 -48t-37 -46l-281 -371q-32 -39 -56.5 -67.5t-51.5 -41.5l-161 10q21 9 47 31.5t50.5 49.5t41.5 49l279 367q36 46 60 73t46 40zM1394 939
q5 -4 9 -9.5t5 -13.5q-36 -23 -61.5 -40t-45 -32.5t-38 -33t-41.5 -40.5q-16 -3 -32 0q-15 29 -29.5 51t-35 45t-55.5 54q6 13 16 19q31 -11 53 -21.5t41 -21.5t41 -25q29 14 54 25t53.5 21.5t65.5 21.5z" />
    <glyph glyph-name="uni01C5" unicode="&#x1c5;" horiz-adv-x="1269" 
d="M287 700h189q146 0 226.5 -65.5t80.5 -197.5q0 -95 -35.5 -175.5t-100 -138.5t-151.5 -90.5t-189 -32.5h-169h-71.5t-72.5 -2q0 8 2.5 19t5.5 18h70q15 45 26.5 89.5t20.5 85.5l60 280q9 43 16 85.5t11 89.5h-70q0 8 2.5 19t5.5 18q34 -1 71.5 -1.5t71.5 -0.5zM220 40h94
q73 0 132.5 29.5t102.5 82.5t66.5 123.5t23.5 152.5q0 114 -41.5 173t-139.5 59h-106q-15 -46 -25 -83t-21 -87l-60 -280q-8 -39 -14.5 -80t-11.5 -90zM766 0q52 55 104 103t102 92t97.5 88t91.5 91l90 31q-50 -56 -101 -104t-100.5 -92t-98 -87.5t-94.5 -89.5zM1095 -29
q-34 0 -58 7.5t-45 17.5t-43.5 17.5t-54.5 7.5q-31 0 -51.5 -10t-45.5 -35q-17 9 -31 24l166 118q46 -2 72 -17t42.5 -33t32 -31t40.5 -13q26 0 37.5 15.5t11.5 35.5q0 24 -13 42t-28 31q11 12 30 20q23 -18 39.5 -41.5t15.5 -58.5q-1 -44 -34 -70.5t-83 -26.5zM863 286
l34 162h361q0 -22 -7 -43l-88 -45h-179q-26 0 -41.5 -7t-25.5 -23t-22 -44q-17 -3 -32 0zM1252 702q7 -4 10.5 -9t4.5 -14q-40 -31 -68 -55.5t-52 -48.5t-52 -55q-17 -3 -32 0q-16 34 -29 58t-29 48t-44 57q6 13 19 19q40 -21 63 -39t53 -41q27 15 49 27.5t47 25.5t60 27z
" />
    <glyph glyph-name="uni01C6" unicode="&#x1c6;" horiz-adv-x="1053" 
d="M407 -15q-47 0 -63 32t-6 78l12 58l39 87l-5 77l42 199q9 37 14.5 74t6.5 73h-55q0 7 2.5 18.5t5.5 18.5q45 0 92.5 3t95.5 11q-11 -25 -22 -61.5t-20 -73t-15 -63.5l-88 -416q-5 -25 -3 -40.5t17 -15.5q14 0 30.5 14.5t38.5 47.5q8 -4 15.5 -8.5t14.5 -11.5
q-26 -45 -65 -73t-84 -28zM172 -15q-65 0 -101.5 42.5t-36.5 116.5q0 60 18 116.5t53.5 102.5t87 73t118.5 27q64 0 110 -26.5t57 -73.5l-59 -43q0 -59 -18.5 -118t-53 -108.5t-79 -79t-96.5 -29.5zM220 51q35 0 64.5 25.5t51.5 66.5t34 87.5t12 86.5q0 51 -17 78.5
t-51 27.5q-35 0 -65 -27t-52.5 -69.5t-35 -90t-12.5 -87.5q0 -49 19 -73.5t52 -24.5zM549 0q52 55 104 103t102 92t97.5 88t91.5 91l90 31q-50 -56 -101 -104t-100.5 -92t-98 -87.5t-94.5 -89.5zM878 -29q-34 0 -58 7.5t-45 17.5t-43.5 17.5t-54.5 7.5q-31 0 -51.5 -10
t-45.5 -35q-17 9 -31 24l166 118q46 -2 72 -17t42.5 -33t32 -31t40.5 -13q26 0 37.5 15.5t11.5 35.5q0 24 -13 42t-28 31q11 12 30 20q23 -18 39.5 -41.5t15.5 -58.5q-1 -44 -34 -70.5t-83 -26.5zM646 286l34 162h361q0 -22 -7 -43l-88 -45h-179q-26 0 -41.5 -7t-25.5 -23
t-22 -44q-17 -3 -32 0zM1036 702q7 -4 10.5 -9t4.5 -14q-40 -31 -68 -55.5t-52 -48.5t-52 -55q-17 -3 -32 0q-16 34 -29 58t-29 48t-44 57q6 13 19 19q40 -21 63 -39t53 -41q27 15 49 27.5t47 25.5t60 27z" />
    <glyph glyph-name="uni01C7" unicode="&#x1c7;" horiz-adv-x="1061" 
d="M-6 -2q0 8 2.5 19t5.5 18h70q15 45 26.5 89.5t20.5 85.5l60 280q9 43 16 85.5t11 89.5h-70q0 8 2.5 19t5.5 18q34 -1 71.5 -1.5t71.5 -0.5q35 0 72 0.5t72 1.5q0 -7 -2.5 -18t-5.5 -19h-70q-14 -45 -25 -86t-22 -89l-60 -280q-7 -38 -14 -80.5t-12 -92.5h118
q77 0 118 44.5t62 125.5q16 3 32 0l-44 -207h-368h-71.5t-72.5 -2zM718 -15q-38 0 -68.5 8t-50 27.5t-26 52t3.5 80.5h120q-15 -71 -9 -102t36 -31t49 30t32 95l73 345q10 45 17 88.5t11 86.5h-94q0 7 2 18t5 19q53 -1 93.5 -1.5t74.5 -0.5q35 0 72 0.5t71 1.5q0 -7 -2 -18
t-5 -19h-70q-16 -47 -27 -88.5t-21 -86.5l-71 -337q-10 -47 -31 -79.5t-50 -52t-63.5 -28t-71.5 -8.5z" />
    <glyph glyph-name="uni01C8" unicode="&#x1c8;" horiz-adv-x="849" 
d="M-6 -2q0 8 2.5 19t5.5 18h70q15 45 26.5 89.5t20.5 85.5l60 280q9 43 16 85.5t11 89.5h-70q0 8 2.5 19t5.5 18q34 -1 71.5 -1.5t71.5 -0.5q35 0 72 0.5t72 1.5q0 -7 -2.5 -18t-5.5 -19h-70q-14 -45 -25 -86t-22 -89l-60 -280q-7 -38 -14 -80.5t-12 -92.5h118
q77 0 118 44.5t62 125.5q16 3 32 0l-44 -207h-368h-71.5t-72.5 -2zM484 -225q-4 7 -6.5 17t-2.5 21q63 17 99 74t58 160l46 217q8 37 13.5 73.5t7.5 73.5h-54q0 8 2.5 19t5.5 18q46 0 92.5 3t94.5 11q-11 -25 -22 -61t-20 -73t-15 -64l-34 -156q-12 -56 -27.5 -110.5
t-42.5 -100.5t-73.5 -78t-121.5 -44zM817 681l53 -45l-15 -70l-67 -20l-53 45l15 71z" />
    <glyph glyph-name="uni01C9" unicode="&#x1c9;" horiz-adv-x="556" 
d="M116 -15q-48 0 -64 32t-6 78l88 421q8 37 14 74t7 73h-55q0 7 2.5 18.5t5.5 18.5q45 0 92.5 3t95.5 11q-11 -25 -22 -61.5t-20 -73t-15 -63.5l-88 -416q-5 -25 -3 -40.5t17 -15.5q14 0 30.5 14.5t38.5 47.5q8 -4 15.5 -8.5t14.5 -11.5q-26 -45 -65 -73t-83 -28zM191 -225
q-4 7 -6.5 17t-2.5 21q63 17 99 74t58 160l46 217q8 37 13.5 73.5t7.5 73.5h-54q0 8 2.5 19t5.5 18q46 0 92.5 3t94.5 11q-11 -25 -22 -61t-20 -73t-15 -64l-34 -156q-12 -56 -27.5 -110.5t-42.5 -100.5t-73.5 -78t-121.5 -44zM524 681l53 -45l-15 -70l-67 -20l-53 45l15 71
z" />
    <glyph glyph-name="uni01CA" unicode="&#x1ca;" horiz-adv-x="1268" 
d="M560 0q-10 37 -21 65t-30 66l-249 486l-12 83q33 0 65 0.5t58 1.5q7 -26 16.5 -51t26.5 -60l205 -405l6 -186q-17 -2 -34 -2t-31 2zM-6 -2q0 8 2.5 19t5.5 18h67q18 46 30 89t22 86l60 280q9 40 14 81.5t8 93.5h-67q0 8 2.5 19t5.5 18q34 -1 60 -1.5t44 -0.5l12 -83
q-8 -28 -16 -60t-16 -67l-60 -280q-7 -37 -13.5 -78t-8.5 -97h81q0 -7 -2.5 -18t-5.5 -19q-37 2 -68.5 2h-51.5h-44t-61 -2zM625 0l-6 186l64 304q9 44 14 83.5t8 91.5h-82q0 8 2.5 19t5.5 18q37 -1 69.5 -1.5t51.5 -0.5q17 0 43.5 0.5t61.5 1.5q0 -7 -2.5 -18t-5.5 -19h-67
q-13 -35 -22 -62t-16 -53t-14 -60zM925 -15q-38 0 -68.5 8t-50 27.5t-26 52t3.5 80.5h120q-15 -71 -9 -102t36 -31t49 30t32 95l73 345q10 45 17 88.5t11 86.5h-94q0 7 2 18t5 19q53 -1 93.5 -1.5t74.5 -0.5q35 0 72 0.5t71 1.5q0 -7 -2 -18t-5 -19h-70q-16 -47 -27 -88.5
t-21 -86.5l-71 -337q-10 -47 -31 -79.5t-50 -52t-63.5 -28t-71.5 -8.5z" />
    <glyph glyph-name="uni01CB" unicode="&#x1cb;" horiz-adv-x="1058" 
d="M560 0q-10 37 -21 65t-30 66l-249 486l-12 83q33 0 65 0.5t58 1.5q7 -26 16.5 -51t26.5 -60l205 -405l6 -186q-17 -2 -34 -2t-31 2zM-6 -2q0 8 2.5 19t5.5 18h67q18 46 30 89t22 86l60 280q9 40 14 81.5t8 93.5h-67q0 8 2.5 19t5.5 18q34 -1 60 -1.5t44 -0.5l12 -83
q-8 -28 -16 -60t-16 -67l-60 -280q-7 -37 -13.5 -78t-8.5 -97h81q0 -7 -2.5 -18t-5.5 -19q-37 2 -68.5 2h-51.5h-44t-61 -2zM625 0l-6 186l64 304q9 44 14 83.5t8 91.5h-82q0 8 2.5 19t5.5 18q37 -1 69.5 -1.5t51.5 -0.5q17 0 43.5 0.5t61.5 1.5q0 -7 -2.5 -18t-5.5 -19h-67
q-13 -35 -22 -62t-16 -53t-14 -60zM693 -225q-4 7 -6.5 17t-2.5 21q63 17 99 74t58 160l46 217q8 37 13.5 73.5t7.5 73.5h-54q0 8 2.5 19t5.5 18q46 0 92.5 3t94.5 11q-11 -25 -22 -61t-20 -73t-15 -64l-34 -156q-12 -56 -27.5 -110.5t-42.5 -100.5t-73.5 -78t-121.5 -44z
M1027 681l53 -45l-15 -70l-67 -20l-53 45l15 71z" />
    <glyph glyph-name="uni01CC" unicode="&#x1cc;" horiz-adv-x="853" 
d="M39 -5q9 32 15 58.5t12 52.5l33 158q8 35 13 69.5t8 77.5h-55q0 8 2.5 19t5.5 18q47 0 88.5 3t90.5 11q-12 -27 -20 -53.5t-13 -55.5t-9 -65l-40 -183q-5 -26 -8.5 -52t-5.5 -53q-30 0 -58 -1t-59 -4zM413 -15q-47 0 -64.5 32t-5.5 78l59 224q9 35 -0.5 54t-36.5 19
q-31 0 -61.5 -24t-56 -64.5t-45.5 -92t-32 -106.5h-28q29 135 73.5 213t97 111.5t106.5 33.5q60 0 83 -35t5 -104l-58 -224q-7 -25 -4 -40.5t17 -15.5t30.5 14.5t38.5 47.5q9 -4 16 -8.5t14 -11.5q-25 -45 -64.5 -73t-83.5 -28zM488 -225q-4 7 -6.5 17t-2.5 21q63 17 99 74
t58 160l46 217q8 37 13.5 73.5t7.5 73.5h-54q0 8 2.5 19t5.5 18q46 0 92.5 3t94.5 11q-11 -25 -22 -61t-20 -73t-15 -64l-34 -156q-12 -56 -27.5 -110.5t-42.5 -100.5t-73.5 -78t-121.5 -44zM821 681l53 -45l-15 -70l-67 -20l-53 45l15 71z" />
    <glyph glyph-name="uni01CD" unicode="&#x1cd;" horiz-adv-x="661" 
d="M-64 -2q0 8 2.5 19t5.5 18h52q33 45 61 87t55 88l186 309q15 25 36 59t43 71t40 71q11 2 25 2.5t28 0t23 -2.5l-120 -166l-207 -344q-22 -37 -44.5 -81.5t-38.5 -93.5h84q0 -7 -2.5 -18t-5.5 -19q-41 2 -75.5 2h-51.5h-39.5t-56.5 -2zM554 35h58q0 -7 -2.5 -18t-5.5 -19
q-34 2 -63 2h-70h-71t-70 -2q0 8 2.5 19t5.5 18h69q2 45 1 88t-6 87l-29 344l120 166q-1 -50 1 -98.5t8 -113.5l27 -298q4 -42 9 -84.5t16 -90.5zM431 233h-262l9 40h262zM653 939q5 -4 9 -9.5t5 -13.5q-36 -23 -61.5 -40t-45 -32.5t-38 -33t-41.5 -40.5q-16 -3 -32 0
q-15 29 -29.5 51t-35 45t-55.5 54q6 13 16 19q31 -11 53 -21.5t41 -21.5t41 -25q29 14 54 25t53.5 21.5t65.5 21.5z" />
    <glyph glyph-name="uni01CE" unicode="&#x1ce;" horiz-adv-x="565" 
d="M397 -15q-47 0 -64 32t-7 78l15 69l40 84l7 134l98 66q16 3 32 0q-14 -40 -27.5 -91.5t-22.5 -92.5l-35 -164q-5 -25 -3.5 -40.5t16.5 -15.5q14 0 30.5 14.5t38.5 47.5q9 -4 16 -8.5t14 -11.5q-25 -45 -64.5 -73t-83.5 -28zM162 -15q-61 0 -94.5 42.5t-33.5 120.5
q0 58 19 114t54.5 101.5t87 72.5t117.5 27q64 0 106.5 -27t54.5 -73l-64 -43q0 -59 -18.5 -118t-52.5 -108.5t-78.5 -79t-97.5 -29.5zM214 51q33 0 62 25.5t50.5 66.5t33.5 88.5t12 90.5q0 46 -13 73.5t-46 27.5t-63 -27t-52.5 -69.5t-35.5 -90t-13 -88.5q0 -49 17 -73
t48 -24zM515 702q7 -4 10.5 -9t4.5 -14q-40 -31 -68 -55.5t-52 -48.5t-52 -55q-17 -3 -32 0q-16 34 -29 58t-29 48t-44 57q6 13 19 19q40 -21 63 -39t53 -41q27 15 49 27.5t47 25.5t60 27z" />
    <glyph glyph-name="uni01CF" unicode="&#x1cf;" horiz-adv-x="373" 
d="M-6 -2q0 8 2.5 19t5.5 18h70q15 45 26.5 89.5t20.5 85.5l60 280q9 43 16 85.5t11 89.5h-70q0 8 2.5 19t5.5 18q34 -1 71.5 -1.5t71.5 -0.5q35 0 72 0.5t72 1.5q0 -7 -2.5 -18t-5.5 -19h-70q-14 -45 -25 -86t-22 -89l-60 -280q-7 -38 -14.5 -81t-12.5 -94h70
q0 -7 -2.5 -18t-5.5 -19q-34 2 -71 2h-72h-71.5t-72.5 -2zM495 939q5 -4 9 -9.5t5 -13.5q-36 -23 -61.5 -40t-45 -32.5t-38 -33t-41.5 -40.5q-16 -3 -32 0q-15 29 -29.5 51t-35 45t-55.5 54q6 13 16 19q31 -11 53 -21.5t41 -21.5t41 -25q29 14 54 25t53.5 21.5t65.5 21.5z
" />
    <glyph glyph-name="uni01D0" unicode="&#x1d0;" horiz-adv-x="302" 
d="M130 -15q-47 0 -63.5 32t-6.5 78l36 169q8 35 13 69.5t8 77.5h-55q0 8 2.5 19t5.5 18q47 0 93 3t95 11q-11 -24 -22 -60.5t-20 -73t-15 -64.5l-35 -164q-6 -25 -4 -40.5t17 -15.5q14 0 30.5 14.5t38.5 47.5q9 -4 16 -8.5t14 -11.5q-25 -45 -64.5 -73t-83.5 -28zM378 702
q7 -4 10.5 -9t4.5 -14q-40 -31 -68 -55.5t-52 -48.5t-52 -55q-17 -3 -32 0q-16 34 -29 58t-29 48t-44 57q6 13 19 19q40 -21 63 -39t53 -41q27 15 49 27.5t47 25.5t60 27z" />
    <glyph glyph-name="uni01D1" unicode="&#x1d1;" horiz-adv-x="810" 
d="M488 715q93 0 161 -34.5t105 -101t37 -164.5q0 -85 -28.5 -162.5t-82.5 -137.5t-131 -95t-174 -35q-93 0 -161 34.5t-105 101.5t-37 164q0 85 29 162t82.5 137.5t130.5 95.5t174 35zM378 27q80 0 140 52t94.5 143.5t34.5 209.5q0 69 -15 123t-50 86t-97 32
q-78 0 -139 -52t-95 -143.5t-34 -210.5q0 -67 14.5 -121.5t49.5 -86.5t97 -32zM701 939q5 -4 9 -9.5t5 -13.5q-36 -23 -61.5 -40t-45 -32.5t-38 -33t-41.5 -40.5q-16 -3 -32 0q-15 29 -29.5 51t-35 45t-55.5 54q6 13 16 19q31 -11 53 -21.5t41 -21.5t41 -25q29 14 54 25
t53.5 21.5t65.5 21.5z" />
    <glyph glyph-name="uni01D2" unicode="&#x1d2;" horiz-adv-x="537" 
d="M318 424q-40 0 -71.5 -27.5t-53 -70.5t-32.5 -91t-11 -90q0 -57 16.5 -88.5t52.5 -31.5l2 -40q-88 0 -136.5 48.5t-48.5 129.5q0 61 20.5 115t58.5 96t89.5 66t111.5 24zM219 25q41 0 72.5 27.5t52.5 70t32 91t11 89.5q0 58 -16.5 89.5t-52.5 31.5l-2 40
q88 0 136.5 -48.5t48.5 -130.5q0 -60 -20.5 -114.5t-58.5 -96t-89.5 -65.5t-111.5 -24zM510 702q7 -4 10.5 -9t4.5 -14q-40 -31 -68 -55.5t-52 -48.5t-52 -55q-17 -3 -32 0q-16 34 -29 58t-29 48t-44 57q6 13 19 19q40 -21 63 -39t53 -41q27 15 49 27.5t47 25.5t60 27z" />
    <glyph glyph-name="uni01D3" unicode="&#x1d3;" horiz-adv-x="740" 
d="M345 -15q-143 0 -202.5 53.5t-36.5 162.5l62 289q10 43 16 82.5t11 92.5h-70q0 8 2.5 19t5.5 18q34 -1 71.5 -1.5t71.5 -0.5q35 0 72 0.5t72 1.5q0 -7 -2.5 -18t-5.5 -19h-70q-14 -45 -25 -86t-22 -89l-55 -255q-23 -109 9 -156t117 -47q86 0 141.5 50.5t74.5 137.5
l58 270q5 28 9 53t7.5 54t5.5 68h-81q0 8 2.5 19t5.5 18q37 -1 69 -1.5t51 -0.5q17 0 43.5 0.5t61.5 1.5q0 -7 -2.5 -18t-5.5 -19h-67q-14 -37 -23 -65.5t-16 -53.5t-13 -56l-61 -285q-22 -103 -96 -161.5t-185 -58.5zM710 939q5 -4 9 -9.5t5 -13.5q-36 -23 -61.5 -40
t-45 -32.5t-38 -33t-41.5 -40.5q-16 -3 -32 0q-15 29 -29.5 51t-35 45t-55.5 54q6 13 16 19q31 -11 53 -21.5t41 -21.5t41 -25q29 14 54 25t53.5 21.5t65.5 21.5z" />
    <glyph glyph-name="uni01D4" unicode="&#x1d4;" horiz-adv-x="577" 
d="M147 -15q-58 0 -79 36t-6 104l32 139q8 35 13 69.5t8 77.5h-55q0 8 2.5 19t5.5 18q47 0 93.5 3t94.5 11q-11 -24 -22 -60.5t-19.5 -73t-15.5 -64.5l-32 -135q-7 -34 1 -53.5t34 -19.5q30 0 58.5 24t53 64.5t44 92t31.5 106.5h28q-29 -134 -72.5 -212.5t-94.5 -112
t-103 -33.5zM406 -15q-47 0 -63.5 32t-6.5 78l53 248q5 27 9 53t5 52q30 0 58 1t58 4q-8 -31 -14 -57.5t-12 -53.5l-51 -242q-5 -25 -3 -40.5t17 -15.5q14 0 30 14.5t39 47.5q8 -4 15.5 -8.5t14.5 -11.5q-26 -45 -65.5 -73t-83.5 -28zM515 702q7 -4 10.5 -9t4.5 -14
q-40 -31 -68 -55.5t-52 -48.5t-52 -55q-17 -3 -32 0q-16 34 -29 58t-29 48t-44 57q6 13 19 19q40 -21 63 -39t53 -41q27 15 49 27.5t47 25.5t60 27z" />
    <glyph glyph-name="uni01D5" unicode="&#x1d5;" horiz-adv-x="740" 
d="M345 -15q-143 0 -202.5 53.5t-36.5 162.5l62 289q10 43 16 82.5t11 92.5h-70q0 8 2.5 19t5.5 18q34 -1 71.5 -1.5t71.5 -0.5q35 0 72 0.5t72 1.5q0 -7 -2.5 -18t-5.5 -19h-70q-14 -45 -25 -86t-22 -89l-55 -255q-23 -109 9 -156t117 -47q86 0 141.5 50.5t74.5 137.5
l58 270q5 28 9 53t7.5 54t5.5 68h-81q0 8 2.5 19t5.5 18q37 -1 69 -1.5t51 -0.5q17 0 43.5 0.5t61.5 1.5q0 -7 -2.5 -18t-5.5 -19h-67q-14 -37 -23 -65.5t-16 -53.5t-13 -56l-61 -285q-22 -103 -96 -161.5t-185 -58.5zM436 915l53 -45l-15 -71l-67 -19l-53 45l15 71z
M660 915l53 -45l-15 -71l-67 -19l-54 45l16 71zM699 948h-289q0 13 4.5 32t8.5 32h289q0 -13 -4 -32t-9 -32z" />
    <glyph glyph-name="uni01D6" unicode="&#x1d6;" horiz-adv-x="577" 
d="M147 -15q-58 0 -79 36t-6 104l32 139q8 35 13 69.5t8 77.5h-55q0 8 2.5 19t5.5 18q47 0 93.5 3t94.5 11q-11 -24 -22 -60.5t-19.5 -73t-15.5 -64.5l-32 -135q-7 -34 1 -53.5t34 -19.5q30 0 58.5 24t53 64.5t44 92t31.5 106.5h28q-29 -134 -72.5 -212.5t-94.5 -112
t-103 -33.5zM406 -15q-47 0 -63.5 32t-6.5 78l53 248q5 27 9 53t5 52q30 0 58 1t58 4q-8 -31 -14 -57.5t-12 -53.5l-51 -242q-5 -25 -3 -40.5t17 -15.5q14 0 30 14.5t39 47.5q8 -4 15.5 -8.5t14.5 -11.5q-26 -45 -65.5 -73t-83.5 -28zM271 681l53 -45l-15 -70l-67 -20
l-53 45l15 71zM472 681l53 -45l-15 -70l-67 -20l-53 45l15 71zM526 727h-288q0 13 4.5 32t8.5 32h288q0 -13 -4 -32t-9 -32z" />
    <glyph glyph-name="uni01D7" unicode="&#x1d7;" horiz-adv-x="740" 
d="M345 -15q-143 0 -202.5 53.5t-36.5 162.5l62 289q10 43 16 82.5t11 92.5h-70q0 8 2.5 19t5.5 18q34 -1 71.5 -1.5t71.5 -0.5q35 0 72 0.5t72 1.5q0 -7 -2.5 -18t-5.5 -19h-70q-14 -45 -25 -86t-22 -89l-55 -255q-23 -109 9 -156t117 -47q86 0 141.5 50.5t74.5 137.5
l58 270q5 28 9 53t7.5 54t5.5 68h-81q0 8 2.5 19t5.5 18q37 -1 69 -1.5t51 -0.5q17 0 43.5 0.5t61.5 1.5q0 -7 -2.5 -18t-5.5 -19h-67q-14 -37 -23 -65.5t-16 -53.5t-13 -56l-61 -285q-22 -103 -96 -161.5t-185 -58.5zM436 915l53 -45l-15 -71l-67 -19l-53 45l15 71z
M660 915l53 -45l-15 -71l-67 -19l-54 45l16 71zM765 1094q-28 -41 -66.5 -67t-78 -46.5t-70.5 -47.5q-16 -3 -32 0q35 38 60 75.5t45 85.5h142z" />
    <glyph glyph-name="uni01D8" unicode="&#x1d8;" horiz-adv-x="577" 
d="M147 -15q-58 0 -79 36t-6 104l32 139q8 35 13 69.5t8 77.5h-55q0 8 2.5 19t5.5 18q47 0 93.5 3t94.5 11q-11 -24 -22 -60.5t-19.5 -73t-15.5 -64.5l-32 -135q-7 -34 1 -53.5t34 -19.5q30 0 58.5 24t53 64.5t44 92t31.5 106.5h28q-29 -134 -72.5 -212.5t-94.5 -112
t-103 -33.5zM406 -15q-47 0 -63.5 32t-6.5 78l53 248q5 27 9 53t5 52q30 0 58 1t58 4q-8 -31 -14 -57.5t-12 -53.5l-51 -242q-5 -25 -3 -40.5t17 -15.5q14 0 30 14.5t39 47.5q8 -4 15.5 -8.5t14.5 -11.5q-26 -45 -65.5 -73t-83.5 -28zM271 681l53 -45l-15 -70l-67 -20
l-53 45l15 71zM472 681l53 -45l-15 -70l-67 -20l-53 45l15 71zM559 883q-23 -37 -57.5 -65.5t-69 -54t-61.5 -56.5q-16 -3 -32 0q35 49 55 91.5t33 84.5h132z" />
    <glyph glyph-name="uni01D9" unicode="&#x1d9;" horiz-adv-x="740" 
d="M345 -15q-143 0 -202.5 53.5t-36.5 162.5l62 289q10 43 16 82.5t11 92.5h-70q0 8 2.5 19t5.5 18q34 -1 71.5 -1.5t71.5 -0.5q35 0 72 0.5t72 1.5q0 -7 -2.5 -18t-5.5 -19h-70q-14 -45 -25 -86t-22 -89l-55 -255q-23 -109 9 -156t117 -47q86 0 141.5 50.5t74.5 137.5
l58 270q5 28 9 53t7.5 54t5.5 68h-81q0 8 2.5 19t5.5 18q37 -1 69 -1.5t51 -0.5q17 0 43.5 0.5t61.5 1.5q0 -7 -2.5 -18t-5.5 -19h-67q-14 -37 -23 -65.5t-16 -53.5t-13 -56l-61 -285q-22 -103 -96 -161.5t-185 -58.5zM436 915l53 -45l-15 -71l-67 -19l-53 45l15 71z
M660 915l53 -45l-15 -71l-67 -19l-54 45l16 71zM745 1102q5 -4 9 -9.5t5 -13.5q-36 -23 -61.5 -40t-45 -32.5t-38 -33t-41.5 -40.5q-16 -3 -32 0q-15 29 -29.5 51t-35 45t-55.5 54q6 13 16 19q31 -11 53 -21.5t41 -21.5t41 -25q29 14 54 25t53.5 21.5t65.5 21.5z" />
    <glyph glyph-name="uni01DA" unicode="&#x1da;" horiz-adv-x="577" 
d="M147 -15q-58 0 -79 36t-6 104l32 139q8 35 13 69.5t8 77.5h-55q0 8 2.5 19t5.5 18q47 0 93.5 3t94.5 11q-11 -24 -22 -60.5t-19.5 -73t-15.5 -64.5l-32 -135q-7 -34 1 -53.5t34 -19.5q30 0 58.5 24t53 64.5t44 92t31.5 106.5h28q-29 -134 -72.5 -212.5t-94.5 -112
t-103 -33.5zM406 -15q-47 0 -63.5 32t-6.5 78l53 248q5 27 9 53t5 52q30 0 58 1t58 4q-8 -31 -14 -57.5t-12 -53.5l-51 -242q-5 -25 -3 -40.5t17 -15.5q14 0 30 14.5t39 47.5q8 -4 15.5 -8.5t14.5 -11.5q-26 -45 -65.5 -73t-83.5 -28zM271 681l53 -45l-15 -70l-67 -20
l-53 45l15 71zM472 681l53 -45l-15 -70l-67 -20l-53 45l15 71zM555 889q7 -4 10.5 -9t4.5 -14q-40 -31 -68 -55.5t-52 -48.5t-52 -55q-17 -3 -32 0q-16 34 -29 58t-29 48t-44 57q6 13 19 19q40 -21 63 -39t53 -41q27 15 49 27.5t47 25.5t60 27z" />
    <glyph glyph-name="uni01DB" unicode="&#x1db;" horiz-adv-x="740" 
d="M345 -15q-143 0 -202.5 53.5t-36.5 162.5l62 289q10 43 16 82.5t11 92.5h-70q0 8 2.5 19t5.5 18q34 -1 71.5 -1.5t71.5 -0.5q35 0 72 0.5t72 1.5q0 -7 -2.5 -18t-5.5 -19h-70q-14 -45 -25 -86t-22 -89l-55 -255q-23 -109 9 -156t117 -47q86 0 141.5 50.5t74.5 137.5
l58 270q5 28 9 53t7.5 54t5.5 68h-81q0 8 2.5 19t5.5 18q37 -1 69 -1.5t51 -0.5q17 0 43.5 0.5t61.5 1.5q0 -7 -2.5 -18t-5.5 -19h-67q-14 -37 -23 -65.5t-16 -53.5t-13 -56l-61 -285q-22 -103 -96 -161.5t-185 -58.5zM436 915l53 -45l-15 -71l-67 -19l-53 45l15 71z
M660 915l53 -45l-15 -71l-67 -19l-54 45l16 71zM405 1094h142q0 -49 9.5 -86t27.5 -75q-16 -3 -32 0q-18 28 -46 50.5t-56 49t-45 61.5z" />
    <glyph glyph-name="uni01DC" unicode="&#x1dc;" horiz-adv-x="577" 
d="M147 -15q-58 0 -79 36t-6 104l32 139q8 35 13 69.5t8 77.5h-55q0 8 2.5 19t5.5 18q47 0 93.5 3t94.5 11q-11 -24 -22 -60.5t-19.5 -73t-15.5 -64.5l-32 -135q-7 -34 1 -53.5t34 -19.5q30 0 58.5 24t53 64.5t44 92t31.5 106.5h28q-29 -134 -72.5 -212.5t-94.5 -112
t-103 -33.5zM406 -15q-47 0 -63.5 32t-6.5 78l53 248q5 27 9 53t5 52q30 0 58 1t58 4q-8 -31 -14 -57.5t-12 -53.5l-51 -242q-5 -25 -3 -40.5t17 -15.5q14 0 30 14.5t39 47.5q8 -4 15.5 -8.5t14.5 -11.5q-26 -45 -65.5 -73t-83.5 -28zM271 681l53 -45l-15 -70l-67 -20
l-53 45l15 71zM472 681l53 -45l-15 -70l-67 -20l-53 45l15 71zM248 883h132q-5 -41 -2.5 -84t18.5 -92q-16 -3 -32 0q-12 31 -35 56.5t-45.5 54t-35.5 65.5z" />
    <glyph glyph-name="Gcaron" unicode="&#x1e6;" horiz-adv-x="766" 
d="M380 -15q-150 0 -229 76t-79 220q0 96 33 176t94 137.5t145.5 89t186.5 31.5q67 0 124 -12.5t96 -32.5l-38 -179q-16 -3 -32 0q2 96 -42 139t-122 43q-86 0 -154.5 -46t-107.5 -134t-39 -215q0 -76 17 -132.5t55.5 -87.5t103.5 -31q35 0 71.5 10.5t61.5 29.5
q15 61 23.5 107.5t12.5 90.5h-81q0 8 2.5 19t5.5 18q35 -1 72.5 -1.5t70.5 -0.5q35 0 63.5 0.5t62.5 1.5q0 -8 -2.5 -18.5t-5.5 -18.5h-52q-9 -31 -18.5 -63t-18.5 -70t-20 -88q-60 -28 -125 -43.5t-135 -15.5zM738 939q5 -4 9 -9.5t5 -13.5q-36 -23 -61.5 -40t-45 -32.5
t-38 -33t-41.5 -40.5q-16 -3 -32 0q-15 29 -29.5 51t-35 45t-55.5 54q6 13 16 19q31 -11 53 -21.5t41 -21.5t41 -25q29 14 54 25t53.5 21.5t65.5 21.5z" />
    <glyph glyph-name="gcaron" unicode="&#x1e7;" horiz-adv-x="544" 
d="M174 5q-65 0 -101.5 38.5t-36.5 111.5q0 59 18 114t53 99t85.5 69.5t116.5 25.5q67 0 107 -24.5t61 -61.5l-56 -58q0 -58 -18 -114t-51.5 -101t-79 -72t-98.5 -27zM221 66q37 0 67 24t51.5 61.5t33 81.5t11.5 84q0 51 -18.5 78.5t-53.5 27.5q-36 0 -65.5 -25.5t-51 -67
t-33 -87t-11.5 -85.5q0 -46 19 -69t51 -23zM108 -225q-66 0 -107 26t-41 77q0 31 15 55t38.5 42.5t50.5 32t50 22.5l25 -18q-43 -21 -66.5 -54t-23.5 -73q0 -32 17.5 -51t58.5 -19q52 0 93.5 29.5t70.5 83t44 123.5l16 71l50 123v137l98 66q16 3 32 0q-14 -38 -28 -90.5
t-22 -93.5l-38 -183q-21 -101 -70.5 -169t-117 -102.5t-145.5 -34.5zM506 702q7 -4 10.5 -9t4.5 -14q-40 -31 -68 -55.5t-52 -48.5t-52 -55q-17 -3 -32 0q-16 34 -29 58t-29 48t-44 57q6 13 19 19q40 -21 63 -39t53 -41q27 15 49 27.5t47 25.5t60 27z" />
    <glyph glyph-name="uni01EA" unicode="&#x1ea;" horiz-adv-x="810" 
d="M488 715q93 0 161 -34.5t105 -101t37 -164.5q0 -85 -28.5 -162.5t-82.5 -137.5t-131 -95t-174 -35q-93 0 -161 34.5t-105 101.5t-37 164q0 85 29 162t82.5 137.5t130.5 95.5t174 35zM378 27q80 0 140 52t94.5 143.5t34.5 209.5q0 69 -15 123t-50 86t-97 32
q-78 0 -139 -52t-95 -143.5t-34 -210.5q0 -67 14.5 -121.5t49.5 -86.5t97 -32zM354 -225q-38 0 -65 21t-27 53q0 47 31 80t80 55.5t104 36.5l14 -21q-62 -20 -97 -55t-35 -76q0 -17 10.5 -27.5t31.5 -10.5q11 0 26.5 4.5t34.5 15.5q6 -6 8.5 -14t3.5 -15q-23 -19 -55.5 -33
t-64.5 -14z" />
    <glyph glyph-name="uni01EB" unicode="&#x1eb;" horiz-adv-x="537" 
d="M318 424q-40 0 -71.5 -27.5t-53 -70.5t-32.5 -91t-11 -90q0 -57 16.5 -88.5t52.5 -31.5l2 -40q-88 0 -136.5 48.5t-48.5 129.5q0 61 20.5 115t58.5 96t89.5 66t111.5 24zM219 25q41 0 72.5 27.5t52.5 70t32 91t11 89.5q0 58 -16.5 89.5t-52.5 31.5l-2 40
q88 0 136.5 -48.5t48.5 -130.5q0 -60 -20.5 -114.5t-58.5 -96t-89.5 -65.5t-111.5 -24zM174 -225q-38 0 -65 21t-27 53q0 47 31 80t80 55.5t104 36.5l14 -21q-62 -20 -97 -55t-35 -76q0 -17 10.5 -27.5t31.5 -10.5q11 0 26.5 4.5t34.5 15.5q6 -6 8.5 -14t3.5 -15
q-23 -19 -55.5 -33t-64.5 -14z" />
    <glyph glyph-name="Aringacute" unicode="&#x1fa;" horiz-adv-x="661" 
d="M-64 -2q0 8 2.5 19t5.5 18h52q33 45 61 87t55 88l186 309q15 25 36 59t43 71t40 71q11 2 25 2.5t28 0t23 -2.5l-120 -166l-207 -344q-22 -37 -44.5 -81.5t-38.5 -93.5h84q0 -7 -2.5 -18t-5.5 -19q-41 2 -75.5 2h-51.5h-39.5t-56.5 -2zM554 35h58q0 -7 -2.5 -18t-5.5 -19
q-34 2 -63 2h-70h-71t-70 -2q0 8 2.5 19t5.5 18h69q2 45 1 88t-6 87l-29 344l120 166q-1 -50 1 -98.5t8 -113.5l27 -298q4 -42 9 -84.5t16 -90.5zM431 233h-262l9 40h262zM491 884q42 0 70.5 -22.5t28.5 -58.5q0 -29 -18 -53.5t-48 -39t-68 -14.5q-43 0 -71 22.5t-28 57.5
q0 30 17.5 54.5t48 39t68.5 14.5zM463 731q22 0 39.5 22.5t17.5 51.5q0 21 -10 32.5t-26 11.5q-22 0 -40 -22.5t-18 -51.5q0 -20 10.5 -32t26.5 -12zM710 1062q-28 -41 -66.5 -67t-78 -46.5t-70.5 -47.5q-16 -3 -32 0q35 38 60 75.5t45 85.5h142z" />
    <glyph glyph-name="aringacute" unicode="&#x1fb;" horiz-adv-x="565" 
d="M397 -15q-47 0 -64 32t-7 78l15 69l40 84l7 134l98 66q16 3 32 0q-14 -40 -27.5 -91.5t-22.5 -92.5l-35 -164q-5 -25 -3.5 -40.5t16.5 -15.5q14 0 30.5 14.5t38.5 47.5q9 -4 16 -8.5t14 -11.5q-25 -45 -64.5 -73t-83.5 -28zM162 -15q-61 0 -94.5 42.5t-33.5 120.5
q0 58 19 114t54.5 101.5t87 72.5t117.5 27q64 0 106.5 -27t54.5 -73l-64 -43q0 -59 -18.5 -118t-52.5 -108.5t-78.5 -79t-97.5 -29.5zM214 51q33 0 62 25.5t50.5 66.5t33.5 88.5t12 90.5q0 46 -13 73.5t-46 27.5t-63 -27t-52.5 -69.5t-35.5 -90t-13 -88.5q0 -49 17 -73
t48 -24zM374 705q42 0 70.5 -22.5t28.5 -58.5q0 -29 -18 -53.5t-48 -39t-68 -14.5q-43 0 -71 22.5t-28 57.5q0 30 17.5 54.5t48 39t68.5 14.5zM346 552q22 0 39.5 22.5t17.5 51.5q0 21 -10 32.5t-26 11.5q-22 0 -40 -22.5t-18 -51.5q0 -20 10.5 -32t26.5 -12zM564 910
q-23 -37 -57.5 -65.5t-69 -54t-61.5 -56.5q-16 -3 -32 0q35 49 55 91.5t33 84.5h132z" />
    </font>
</defs>
</svg>
