<?xml version="1.0" standalone="no"?>
<!DOCTYPE svg PUBLIC "-//W3C//DTD SVG 1.1//EN" "http://www.w3.org/Graphics/SVG/1.1/DTD/svg11.dtd" >
<svg xmlns="http://www.w3.org/2000/svg" xmlns:xlink="http://www.w3.org/1999/xlink" version="1.1">
<metadata>
Created by FontForge 20170731 at Fri Mar 10 17:47:25 2023
 By Aleksey,,,
Copyright 2020 The Poltawski Nowy Project Authors (https://github.com/kosmynkab/Poltawski-Nowy)
</metadata>
<defs>
<font id="PoltawskiNowy-Italic" horiz-adv-x="0" >
  <font-face 
    font-family="Poltawski Nowy"
    font-weight="400"
    font-style="italic"
    font-stretch="normal"
    units-per-em="1000"
    panose-1="0 0 0 0 0 0 0 0 0 0"
    ascent="800"
    descent="-200"
    x-height="440"
    cap-height="702"
    bbox="-262 -378 1458 1088"
    underline-thickness="50"
    underline-position="-175"
    slope="-12"
    unicode-range="U+0020-FB02"
  />
<missing-glyph horiz-adv-x="600" 
d="M44 0l148 700h420l-148 -700h-420zM121 45h307l121 569zM109 95l420 560h-301z" />
    <glyph glyph-name="fi" unicode="fi" horiz-adv-x="587" 
d="M298 720q53 0 70.5 -33t1.5 -86h-85q12 38 8.5 59t-23.5 21q-26 0 -42.5 -37.5t-16.5 -109.5q0 -31 2.5 -54t6.5 -40l-3 -40l-57 -296q-8 -44 -19 -86.5t-28.5 -81t-45 -70.5t-67.5 -55.5t-97 -35.5q-3 6 -5.5 16.5t-2.5 21.5q63 19 104 75t63 172l38 200q6 32 15 82.5
t12 97.5q7 97 26.5 159t55 91.5t89.5 29.5zM312 400h-260q1 8 3 19.5t6 20.5h260q-1 -8 -3 -19.5t-6 -20.5zM420 -15q-43 0 -58.5 30t-5.5 77l36 168q7 30 11.5 61.5t8.5 81.5h-57q0 8 2.5 19t5.5 18q39 0 83 2.5t92 10.5q-11 -26 -22 -62t-19.5 -71t-14.5 -60l-36 -168
q-5 -23 -2.5 -37.5t16.5 -14.5t31.5 15t40.5 51q9 -4 16 -8.5t14 -11.5q-24 -45 -62 -73t-80 -28zM522 669l48 -41l-14 -64l-60 -18l-48 41l14 64z" />
    <glyph glyph-name="fl" unicode="fl" horiz-adv-x="571" 
d="M298 720q53 0 70.5 -33t1.5 -86h-85q12 38 8.5 59t-23.5 21q-26 0 -42.5 -37.5t-16.5 -109.5q0 -31 2.5 -54t6.5 -40l-3 -40l-57 -296q-8 -44 -19 -86.5t-28.5 -81t-45 -70.5t-67.5 -55.5t-97 -35.5q-3 6 -5.5 16.5t-2.5 21.5q63 19 104 75t63 172l38 200q6 32 15 82.5
t12 97.5q7 97 26.5 159t55 91.5t89.5 29.5zM312 400h-260q1 8 3 19.5t6 20.5h260q-1 -8 -3 -19.5t-6 -20.5zM406 -15q-43 0 -58.5 30t-5.5 77l90 428q7 34 12.5 70t7.5 73h-57q0 7 2.5 18.5t5.5 18.5q35 0 81.5 2.5t93.5 10.5q-11 -27 -22 -63t-20 -71t-14 -59l-90 -428
q-5 -23 -2.5 -37.5t16.5 -14.5t31.5 15t40.5 51q9 -4 16 -8.5t14 -11.5q-24 -45 -62 -73t-80 -28z" />
    <glyph glyph-name="f_f" unicode="ff" horiz-adv-x="586" 
d="M298 720q53 0 70.5 -33t1.5 -86h-85q12 38 8.5 59t-23.5 21q-26 0 -42.5 -37.5t-16.5 -109.5q0 -31 2.5 -54t6.5 -40l-3 -40l-57 -296q-8 -44 -19 -86.5t-28.5 -81t-45 -70.5t-67.5 -55.5t-97 -35.5q-3 6 -5.5 16.5t-2.5 21.5q63 19 104 75t63 172l38 200q6 32 15 82.5
t12 97.5q7 97 26.5 159t55 91.5t89.5 29.5zM312 400h-260q1 8 3 19.5t6 20.5h260q-1 -8 -3 -19.5t-6 -20.5zM591 720q53 0 70.5 -33t1.5 -86h-85q12 38 8.5 59t-23.5 21q-26 0 -42.5 -37.5t-16.5 -109.5q0 -31 2.5 -54t6.5 -40l-3 -40l-57 -296q-8 -44 -19 -86.5t-28.5 -81
t-45 -70.5t-67.5 -55.5t-97 -35.5q-3 6 -5.5 16.5t-2.5 21.5q63 19 104 75t63 172l38 200q6 32 15 82.5t12 97.5q7 97 26.5 159t55 91.5t89.5 29.5zM605 400h-260q1 8 3 19.5t6 20.5h260q-1 -8 -3 -19.5t-6 -20.5z" />
    <glyph glyph-name="f_f_i" unicode="ffi" horiz-adv-x="880" 
d="M298 720q53 0 70.5 -33t1.5 -86h-85q12 38 8.5 59t-23.5 21q-26 0 -42.5 -37.5t-16.5 -109.5q0 -31 2.5 -54t6.5 -40l-3 -40l-57 -296q-8 -44 -19 -86.5t-28.5 -81t-45 -70.5t-67.5 -55.5t-97 -35.5q-3 6 -5.5 16.5t-2.5 21.5q63 19 104 75t63 172l38 200q6 32 15 82.5
t12 97.5q7 97 26.5 159t55 91.5t89.5 29.5zM312 400h-260q1 8 3 19.5t6 20.5h260q-1 -8 -3 -19.5t-6 -20.5zM591 720q53 0 70.5 -33t1.5 -86h-85q12 38 8.5 59t-23.5 21q-26 0 -42.5 -37.5t-16.5 -109.5q0 -31 2.5 -54t6.5 -40l-3 -40l-57 -296q-8 -44 -19 -86.5t-28.5 -81
t-45 -70.5t-67.5 -55.5t-97 -35.5q-3 6 -5.5 16.5t-2.5 21.5q63 19 104 75t63 172l38 200q6 32 15 82.5t12 97.5q7 97 26.5 159t55 91.5t89.5 29.5zM605 400h-260q1 8 3 19.5t6 20.5h260q-1 -8 -3 -19.5t-6 -20.5zM713 -15q-43 0 -58.5 30t-5.5 77l36 168q7 30 11.5 61.5
t8.5 81.5h-57q0 8 2.5 19t5.5 18q39 0 83 2.5t92 10.5q-11 -26 -22 -62t-19.5 -71t-14.5 -60l-36 -168q-5 -23 -2.5 -37.5t16.5 -14.5t31.5 15t40.5 51q9 -4 16 -8.5t14 -11.5q-24 -45 -62 -73t-80 -28zM815 669l48 -41l-14 -64l-60 -18l-48 41l14 64z" />
    <glyph glyph-name="f_f_l" unicode="ffl" horiz-adv-x="864" 
d="M298 720q53 0 70.5 -33t1.5 -86h-85q12 38 8.5 59t-23.5 21q-26 0 -42.5 -37.5t-16.5 -109.5q0 -31 2.5 -54t6.5 -40l-3 -40l-57 -296q-8 -44 -19 -86.5t-28.5 -81t-45 -70.5t-67.5 -55.5t-97 -35.5q-3 6 -5.5 16.5t-2.5 21.5q63 19 104 75t63 172l38 200q6 32 15 82.5
t12 97.5q7 97 26.5 159t55 91.5t89.5 29.5zM312 400h-260q1 8 3 19.5t6 20.5h260q-1 -8 -3 -19.5t-6 -20.5zM591 720q53 0 70.5 -33t1.5 -86h-85q12 38 8.5 59t-23.5 21q-26 0 -42.5 -37.5t-16.5 -109.5q0 -31 2.5 -54t6.5 -40l-3 -40l-57 -296q-8 -44 -19 -86.5t-28.5 -81
t-45 -70.5t-67.5 -55.5t-97 -35.5q-3 6 -5.5 16.5t-2.5 21.5q63 19 104 75t63 172l38 200q6 32 15 82.5t12 97.5q7 97 26.5 159t55 91.5t89.5 29.5zM605 400h-260q1 8 3 19.5t6 20.5h260q-1 -8 -3 -19.5t-6 -20.5zM699 -15q-43 0 -58.5 30t-5.5 77l90 428q7 34 12.5 70
t7.5 73h-57q0 7 2.5 18.5t5.5 18.5q35 0 81.5 2.5t93.5 10.5q-11 -27 -22 -63t-20 -71t-14 -59l-90 -428q-5 -23 -2.5 -37.5t16.5 -14.5t31.5 15t40.5 51q9 -4 16 -8.5t14 -11.5q-24 -45 -62 -73t-80 -28z" />
    <glyph glyph-name=".notdef" horiz-adv-x="600" 
d="M44 0l148 700h420l-148 -700h-420zM121 45h307l121 569zM109 95l420 560h-301z" />
    <glyph glyph-name=".null" 
 />
    <glyph glyph-name="nonmarkingreturn" horiz-adv-x="333" 
 />
    <glyph glyph-name="space" unicode=" " horiz-adv-x="244" 
 />
    <glyph glyph-name="exclam" unicode="!" horiz-adv-x="277" 
d="M242 709l48 -47l-14 -68l-130 -421q-9 1 -18 2.5t-17 5.5l53 437l14 68zM116 109l48 -41l-14 -64l-60 -18l-48 41l14 64z" />
    <glyph glyph-name="quotedbl" unicode="&#x22;" horiz-adv-x="336" 
d="M147 715l53 19l42 -39l-12 -54q-13 -25 -25.5 -50.5t-22.5 -51.5t-19 -52q-15 0 -29 6q3 28 4 55.5t0.5 56t-2.5 56.5zM290 715l53 19l42 -39l-12 -54q-13 -25 -25.5 -50.5t-22.5 -51.5t-19 -52q-15 0 -29 6q3 28 4 55.5t0.5 56t-2.5 56.5z" />
    <glyph glyph-name="numbersign" unicode="#" horiz-adv-x="667" 
d="M349 700l-172 -700q-29 -3 -55 0l172 700q29 3 55 0zM604 700l-172 -700q-29 -3 -55 0l172 700q29 3 55 0zM679 509q1 -9 0 -24.5t-3 -25.5h-572q-1 10 0 25.5t3 24.5h572zM623 261q1 -9 -0.5 -24.5t-3.5 -25.5h-572q-1 10 0.5 25.5t3.5 24.5h572z" />
    <glyph glyph-name="dollar" unicode="$" horiz-adv-x="573" 
d="M116 -125l297 935q11 0 22.5 -1t21.5 -4l-297 -935q-11 0 -22 1t-22 4zM240 -14q-61 0 -117.5 13t-97.5 36l38 180q16 3 32 0q-6 -54 12 -96.5t55.5 -67.5t86.5 -25q65 0 102 20.5t52.5 53t15.5 68.5q0 44 -21.5 72t-55 47.5t-71.5 37t-71.5 40.5t-55 57.5t-21.5 87.5
q0 61 32 107t88.5 71.5t129.5 25.5q69 0 115.5 -13t79.5 -34l-33 -157q-16 -3 -32 0q8 71 -29 117.5t-107 46.5t-109 -36t-39 -88q0 -40 22 -66t57 -45t74.5 -38t74.5 -44t57 -62t22 -94q0 -62 -32.5 -110.5t-96.5 -76.5t-157 -28z" />
    <glyph glyph-name="percent" unicode="%" horiz-adv-x="786" 
d="M773 700l-633 -700q-31 -3 -58 0l633 700q29 3 58 0zM426 581q0 -61 -26.5 -114t-73.5 -85t-108 -32q-58 0 -90 33.5t-32 99.5q0 62 26.5 114.5t73.5 85t107 32.5q59 0 91 -34t32 -100zM344 606q0 42 -12 59.5t-35 17.5q-27 0 -49.5 -21.5t-38 -55.5t-24 -72.5
t-8.5 -73.5q0 -43 12.5 -60.5t34.5 -17.5q29 0 51 22t37.5 56.5t23.5 73.5t8 72zM743 214q0 -61 -26.5 -114t-73.5 -85t-108 -32q-58 0 -90 33.5t-32 99.5q0 62 26.5 114.5t73.5 85t107 32.5q59 0 91 -34t32 -100zM661 239q0 42 -12 59.5t-35 17.5q-27 0 -49.5 -21.5
t-38 -55.5t-24 -72.5t-8.5 -73.5q0 -43 12.5 -60.5t34.5 -17.5q29 0 51 22t37.5 56.5t23.5 73.5t8 72z" />
    <glyph glyph-name="ampersand" unicode="&#x26;" horiz-adv-x="723" 
d="M638 -2q-60 -9 -96.5 -7t-58.5 13t-36 29.5t-28 43.5l-155 276q-23 41 -37.5 77.5t-14.5 79.5q0 60 28.5 106.5t80 73t119.5 26.5t106 -29t38 -85q0 -54 -32.5 -94.5t-83.5 -69.5t-108 -49l-12 32q44 20 75.5 48.5t48.5 63t17 72.5q0 35 -15 53t-44 18q-31 0 -56.5 -18.5
t-40.5 -49t-15 -66.5q0 -42 17 -80.5t30 -63.5l129 -238q32 -58 56.5 -84.5t47.5 -33.5t48 -7q0 -8 -2.5 -19t-5.5 -18zM247 -14q-59 0 -106.5 17t-75.5 52.5t-28 90.5q0 47 20 85t55.5 68t81.5 52t97 37l13 -29q-76 -37 -113 -82.5t-37 -113.5q0 -67 33.5 -97t90.5 -30
q58 0 115.5 25t104.5 67t75.5 92.5t28.5 101.5q0 43 -21 83h-47q0 8 2 19t6 18q31 -1 59.5 -1.5t44.5 -0.5q22 0 47.5 0.5t50.5 1.5q-1 -6 -3 -17.5t-5 -19.5h-60q-14 -34 -20 -59.5t-12 -52.5q-16 -67 -55 -123.5t-94 -97.5t-118.5 -63.5t-129.5 -22.5z" />
    <glyph glyph-name="quotesingle" unicode="'" horiz-adv-x="196" 
d="M150 715l53 19l42 -39l-12 -54q-13 -25 -25.5 -50.5t-22.5 -51.5t-19 -52q-15 0 -29 6q3 28 4 55.5t0.5 56t-2.5 56.5z" />
    <glyph glyph-name="parenleft" unicode="(" horiz-adv-x="345" 
d="M460 785q-71 -46 -129.5 -113.5t-101 -151.5t-65.5 -179.5t-23 -198.5q0 -88 29 -158.5t93 -128.5q-7 -9 -11 -14t-15 -16q-88 56 -137 142.5t-49 205.5q0 137 48.5 260.5t138 222.5t210.5 159q5 -7 8 -16t4 -14z" />
    <glyph glyph-name="parenright" unicode=")" horiz-adv-x="345" 
d="M-73 -145q71 46 129.5 113.5t101 151.5t65.5 180t23 198q0 86 -28 157.5t-93 129.5q5 8 11.5 15.5t13.5 14.5q89 -56 137.5 -142t48.5 -206q0 -137 -48.5 -261t-137.5 -222t-210 -159q-4 5 -7.5 14.5t-5.5 15.5z" />
    <glyph glyph-name="asterisk" unicode="*" horiz-adv-x="530" 
d="M527 637l33 -36l-25 -44l-186 10l101 -156l-26 -42l-48 10l-48 180l-118 -145l-48 11l-5 50l155 100l-174 66l-5 50l45 20l145 -117l10 185l46 20l33 -37l-67 -173z" />
    <glyph glyph-name="plus" unicode="+" horiz-adv-x="620" 
d="M576 340h-479q0 13 2 25t6 25h479q0 -13 -1.5 -25t-6.5 -25zM274 125l84 480q26 4 50 0l-84 -480q-26 -4 -50 0z" />
    <glyph glyph-name="comma" unicode="," horiz-adv-x="231" 
d="M108 109l48 -41l-8 -34q-11 -49 -44 -88t-82 -66q-16 13 -20 31q29 18 48 37.5t29 42.5l-45 36l14 64z" />
    <glyph glyph-name="hyphen" unicode="-" horiz-adv-x="415" 
d="M351 235h-280q0 9 2 19.5t4.5 21.5t5.5 19h280q0 -8 -1.5 -19t-4.5 -21.5t-6 -19.5z" />
    <glyph glyph-name="period" unicode="." horiz-adv-x="227" 
d="M105 109l48 -41l-14 -64l-60 -18l-48 41l14 64z" />
    <glyph glyph-name="slash" unicode="/" horiz-adv-x="351" 
d="M418 730l-394 -850q-28 -3 -56 0l394 850q28 3 56 0z" />
    <glyph glyph-name="zero" unicode="0" horiz-adv-x="622" 
d="M604 471q0 -93 -27 -180t-74.5 -156t-111 -109.5t-137.5 -40.5q-83 0 -132.5 59t-49.5 185q0 93 27 180t74.5 156t111.5 109.5t137 40.5q83 0 132.5 -59t49.5 -185zM497 521q0 82 -20 118t-58 36q-37 0 -72 -29t-65.5 -79.5t-53.5 -114.5t-36 -134.5t-13 -138.5
q0 -82 20 -118t58 -36q37 0 72 29t65.5 79.5t53.5 114.5t36 134.5t13 138.5z" />
    <glyph glyph-name="one" unicode="1" horiz-adv-x="398" 
d="M234 35h92q0 -7 -2.5 -18t-5.5 -19q-49 2 -85 2h-71h-71t-87 -2q0 8 2.5 19t5.5 18h92q15 45 26 87.5t21 87.5l64 300q5 22 8.5 44t6.5 46h-105q0 8 2.5 19t5.5 18q38 0 78 12.5t77.5 34t67.5 47.5q14 -6 24 -14q-17 -48 -29.5 -96.5t-19.5 -80.5l-70 -330
q-10 -45 -16 -87.5t-11 -87.5z" />
    <glyph glyph-name="two" unicode="2" horiz-adv-x="586" 
d="M-15 0q108 81 193.5 153t145 139.5t91 134.5t31.5 137q0 62 -19.5 86.5t-55.5 24.5q-45 0 -76 -28t-47 -73.5t-16 -98.5h-110q0 75 34.5 129t92.5 82.5t130 28.5q85 0 133.5 -39.5t48.5 -108.5q0 -52 -20.5 -103.5t-67 -106.5t-123.5 -120.5t-190 -146.5zM398 -29
q-34 0 -65 8t-62.5 19t-67 19t-78.5 8q-21 0 -40 -6.5t-36 -17.5t-33 -25q-17 9 -31 24l203 130q43 -3 73 -14t52 -25.5t39 -28.5t33.5 -23t36.5 -9q26 0 37.5 15.5t11.5 35.5q0 24 -13.5 42t-27.5 31q11 12 30 20q22 -18 39 -42.5t16 -59.5q-1 -44 -34 -72.5t-83 -28.5z
" />
    <glyph glyph-name="three" unicode="3" horiz-adv-x="570" 
d="M515 240q0 -73 -38 -130.5t-104 -91t-150 -33.5q-75 0 -121 26t-62 69t-3 93h115q-15 -71 3 -109.5t77 -38.5q48 0 86 28.5t60 78t22 111.5q0 53 -27.5 80.5t-78.5 27.5q-34 0 -59 -2.5t-52 -7.5q0 13 3 25t7 23h75q82 0 129 55t47 149q0 42 -19.5 62t-57.5 20
q-40 0 -66.5 -19.5t-42 -49t-22.5 -60.5h-105q7 41 38 80t83.5 64t123.5 25q90 0 133 -39t43 -98q0 -70 -43 -125.5t-112 -76.5q50 -8 84 -42t34 -94z" />
    <glyph glyph-name="four" unicode="4" horiz-adv-x="594" 
d="M498 35q0 -6 -2 -17t-6 -20q-49 2 -85 2h-68h-69.5t-85.5 -2q0 8 2.5 19t5.5 18h92q16 48 27 90.5t20 84.5l71 335l-278 -294h452q-4 -10 -10.5 -24.5t-14.5 -28t-16 -22.5h-520q0 10 0.5 19t4.5 28q24 20 48 43.5t44 44.5l289 299q22 22 50 54.5t44 55.5q10 2 20.5 2.5
t20.5 0t19 -2.5q-11 -31 -21.5 -69.5t-19 -73.5t-13.5 -57l-66 -310q-9 -41 -15.5 -84.5t-11.5 -90.5h92z" />
    <glyph glyph-name="five" unicode="5" horiz-adv-x="557" 
d="M558 728q15 3 30 0l-25 -83q-7 -24 -29 -34.5t-45 -10.5h-269l-52 -203q30 20 68 31.5t91 11.5q89 0 137 -45.5t48 -122.5q0 -82 -38 -147t-104 -102.5t-150 -37.5q-75 0 -119.5 26t-60 69t-2.5 93h115q-15 -71 5 -109.5t75 -38.5q35 0 65.5 20.5t53.5 57t35.5 85
t12.5 104.5q0 55 -25.5 80t-78.5 25q-49 0 -88 -18.5t-66 -48.5q-18 -5 -37 0l70 270q7 24 12.5 49.5t8.5 50.5h314q35 0 48 28z" />
    <glyph glyph-name="six" unicode="6" horiz-adv-x="579" 
d="M62 189q0 110 38.5 204.5t108 165.5t163 110.5t203.5 39.5q-1 -10 -3 -22t-6 -23q-160 -15 -245 -92t-113 -199q28 32 70 49.5t93 17.5q74 0 122.5 -41.5t48.5 -121.5q0 -61 -22.5 -114.5t-62 -93t-92.5 -62t-114 -22.5q-87 0 -138 47.5t-51 156.5zM165 140q0 -55 24 -85
t68 -30q35 0 65.5 20.5t54.5 56t37.5 82t13.5 98.5q0 55 -24 84.5t-68 29.5q-35 0 -66 -20t-54.5 -55.5t-37 -81.5t-13.5 -99z" />
    <glyph glyph-name="seven" unicode="7" horiz-adv-x="491" 
d="M566 656l-304 -429q-18 -25 -30.5 -50t-12.5 -47.5t19 -40.5l15 -14l-15 -70l-66 -20l-53 45l10 48q11 53 42.5 97.5t62.5 88.5l239 337h-271q-31 0 -48 -24.5t-31 -56.5q-16 -4 -32 0l59 180h303q27 0 52.5 0.5t55.5 1.5q2 -10 3.5 -21.5t1.5 -24.5z" />
    <glyph glyph-name="eight" unicode="8" horiz-adv-x="590" 
d="M533 233q0 -72 -37 -128t-101.5 -88t-149.5 -32q-97 0 -150 40t-53 112q0 59 25.5 108.5t70.5 84t104 48.5q-40 11 -66 42.5t-26 79.5q0 62 32.5 110.5t89.5 76.5t128 28q79 0 127 -35.5t48 -100.5q0 -44 -19.5 -85t-55.5 -71.5t-86 -44.5q57 -15 88 -52t31 -93zM470 582
q0 47 -22 71t-56 24q-36 0 -68 -26.5t-51.5 -70t-19.5 -93.5q0 -46 22 -70.5t56 -24.5q37 0 68.5 26.5t51 70t19.5 93.5zM420 248q0 53 -24.5 82.5t-71.5 29.5q-45 0 -83 -31.5t-61 -82.5t-23 -112q0 -52 25 -81.5t71 -29.5t83.5 31t60.5 82t23 112z" />
    <glyph glyph-name="nine" unicode="9" horiz-adv-x="579" 
d="M572 511q0 -110 -38.5 -204.5t-108 -165.5t-163 -110.5t-203.5 -39.5q1 10 3 22t6 23q160 15 245 92.5t113 198.5q-28 -31 -70 -49t-93 -18q-73 0 -122 42t-49 121q0 62 22.5 115t62 92.5t92.5 62t114 22.5q87 0 138 -47.5t51 -156.5zM469 560q0 56 -24 85.5t-68 29.5
q-34 0 -65 -20.5t-55 -56t-37.5 -82t-13.5 -98.5q0 -55 24 -84.5t68 -29.5q35 0 66 20t54.5 55.5t37 82t13.5 98.5z" />
    <glyph glyph-name="colon" unicode=":" horiz-adv-x="251" 
d="M104 109l48 -41l-14 -64l-60 -18l-48 41l14 64zM173 454l48 -41l-14 -64l-60 -18l-48 41l14 64z" />
    <glyph glyph-name="semicolon" unicode=";" horiz-adv-x="259" 
d="M113 109l48 -41l-8 -34q-11 -49 -44 -88t-82 -66q-16 13 -20 31q29 18 48 37.5t29 42.5l-45 36l14 64zM175 454l48 -41l-14 -64l-60 -18l-48 41l14 64z" />
    <glyph glyph-name="less" unicode="&#x3c;" horiz-adv-x="620" 
d="M96 410l503 181q5 -11 7 -22.5t2 -24.5l-455 -159l399 -159q-9 -25 -25 -47l-439 181q0 13 2 25t6 25z" />
    <glyph glyph-name="equal" unicode="=" horiz-adv-x="620" 
d="M593 440h-480q0 25 9 50h480q0 -24 -9 -50zM558 240h-480q0 25 9 50h480q0 -24 -9 -50z" />
    <glyph glyph-name="greater" unicode="&#x3e;" horiz-adv-x="620" 
d="M601 410q0 -13 -1.5 -25t-6.5 -25l-503 -181q-5 11 -7 22.5t-2 24.5l455 159l-399 159q9 25 25 47z" />
    <glyph glyph-name="question" unicode="?" horiz-adv-x="489" 
d="M325 675q-42 0 -68.5 -28t-39 -73.5t-12.5 -98.5h-110q0 77 29.5 130.5t84 81.5t129.5 28q50 0 92 -14t67.5 -46.5t25.5 -87.5q0 -46 -18 -79t-47 -60t-62.5 -51.5t-65 -52.5t-54.5 -64.5t-31 -86.5q-9 1 -18 2.5t-18 5.5q9 63 26 104.5t39 69.5t44.5 49t42 42t31 49.5
t11.5 71.5q0 64 -23 86t-55 22zM226 109l48 -41l-14 -64l-60 -18l-48 41l14 64z" />
    <glyph glyph-name="at" unicode="@" horiz-adv-x="905" 
d="M614 7l25 43q32 0 64 20t58.5 57t42.5 86.5t16 107.5q0 72 -34 121.5t-96.5 75t-147.5 25.5q-102 0 -187 -34.5t-147 -94.5t-95.5 -136.5t-33.5 -160.5q0 -89 38 -147t104 -85.5t151 -27.5q78 0 137 16.5t120 48.5q3 -7 6.5 -14.5t4.5 -16.5q-62 -36 -127.5 -56
t-143.5 -20q-101 0 -177 34.5t-117.5 102t-41.5 165.5q0 96 39 180.5t109.5 149.5t163.5 101.5t201 36.5q101 0 172.5 -33t109.5 -93t38 -143q0 -70 -20.5 -126.5t-56 -97.5t-81 -63t-94.5 -22zM639 50l-25 -43q-38 0 -59 7t-30 21t-14 33q-24 -27 -55.5 -44t-75.5 -17
q-61 0 -99 34.5t-38 102.5q0 75 33 135t89.5 95.5t127.5 35.5q44 0 71 -10.5t46 -27.5l35 25q15 3 27 0q-7 -23 -15 -51.5t-15 -56t-11 -46.5l-25 -119q-7 -34 -2.5 -54t35.5 -20zM409 46q32 0 57.5 18.5t50.5 49.5l35 164q9 40 -1.5 59.5t-29 26.5t-35.5 7
q-41 0 -74.5 -30.5t-53 -83t-19.5 -117.5q0 -47 19 -70.5t51 -23.5z" />
    <glyph glyph-name="A" unicode="A" horiz-adv-x="653" 
d="M-61 -2q0 8 2.5 19t5.5 18h52q33 45 60.5 86.5t55.5 88.5l186 309q15 25 36 59t43.5 71t41.5 71q11 2 21.5 2.5t20.5 0t19 -2.5l-103 -159l-211 -351q-23 -38 -45 -81t-37 -94h79q0 -7 -2.5 -18t-5.5 -19q-41 2 -73.5 2h-49.5h-39.5t-56.5 -2zM540 35h62q0 -7 -2.5 -18
t-5.5 -19q-34 2 -61.5 2h-59.5h-70.5t-70.5 -2q0 8 2.5 19t5.5 18h69q2 44 2.5 88t-3.5 87l-28 351l103 159q-1 -50 2 -99t9 -121l25 -290q3 -38 7.5 -80t13.5 -95zM435 235h-260l9 40h260z" />
    <glyph glyph-name="B" unicode="B" horiz-adv-x="675" 
d="M442 370q49 -4 90.5 -21.5t66.5 -50.5t25 -85q0 -60 -38 -108.5t-107.5 -76.5t-165.5 -28h-180h-68t-69 -2q0 8 2.5 19t5.5 18h72q15 45 27 91t20 84l60 280q8 38 15 80.5t12 94.5h-72q0 8 2.5 19t5.5 18q34 -1 68 -1.5t68 -0.5h150q61 0 110 -16.5t78 -49.5t29 -81
q0 -47 -27.5 -86t-74 -64.5t-105.5 -32.5zM207 40h125q54 0 91 25t56.5 65.5t19.5 88.5q0 56 -30.5 91t-101.5 35h-160l8 40h160q41 0 76 22t56.5 58.5t21.5 81.5q0 47 -28 80t-87 33h-75q-10 -30 -17.5 -55t-14 -50.5t-13.5 -59.5l-61 -285q-10 -44 -16 -87t-10 -83z" />
    <glyph glyph-name="C" unicode="C" horiz-adv-x="702" 
d="M377 -15q-142 0 -222.5 72.5t-80.5 220.5q0 85 28 163t83 140t137 98t189 36q75 0 132 -15.5t90 -29.5l-37 -175q-16 -3 -32 0q2 95 -43.5 136.5t-121.5 41.5q-90 0 -157.5 -51.5t-105 -141.5t-37.5 -207q0 -70 16.5 -126t55.5 -88t106 -32q74 0 132 44t104 139
q16 3 32 0l-38 -173q-40 -22 -100 -37t-130 -15z" />
    <glyph glyph-name="D" unicode="D" horiz-adv-x="787" 
d="M282 700h195q137 0 215.5 -65t78.5 -200q0 -93 -35 -172.5t-98 -138t-147.5 -91.5t-182.5 -33h-175h-68t-69 -2q0 8 2.5 19t5.5 18h72q15 45 27 91t20 84l60 280q8 38 15 80.5t12 94.5h-72q0 8 2.5 19t5.5 18q34 -1 68 -1.5t68 -0.5zM207 40h100q77 0 139 30t107 83
t69 122.5t24 148.5q0 118 -43 177t-144 59h-120q-15 -46 -25 -83t-21 -87l-60 -280q-8 -39 -14.5 -80t-11.5 -90z" />
    <glyph glyph-name="E" unicode="E" horiz-adv-x="611" 
d="M-4 -2q0 8 2.5 19t5.5 18h72q15 45 27 91t20 84l60 280q8 38 15 80.5t12 94.5h-72q0 8 2.5 19t5.5 18q34 -1 68 -1.5t68 -0.5h350l-39 -185q-16 -3 -32 0q10 58 0.5 89t-37 43.5t-72.5 12.5h-113q-15 -46 -25 -83t-21 -87l-60 -280q-8 -39 -14.5 -80t-11.5 -90h148
q52 0 85.5 17.5t53.5 50t32 77.5q16 3 32 0l-40 -185h-385h-68t-69 -2zM442 260q8 47 -1.5 63.5t-44.5 16.5h-190l8 40h190q35 0 52 17t28 63q16 3 32 0l-42 -200q-16 -3 -32 0z" />
    <glyph glyph-name="F" unicode="F" horiz-adv-x="567" 
d="M-4 -2q0 8 2.5 19t5.5 18h72q15 45 27 91t20 84l60 280q8 38 15 80.5t12 94.5h-72q0 8 2.5 19t5.5 18q34 -1 68 -1.5t68 -0.5h345l-38 -180q-16 -3 -32 0q13 81 -12 110.5t-98 29.5h-108q-15 -46 -25 -83t-21 -87l-60 -280q-7 -37 -14.5 -80.5t-12.5 -94.5h92
q0 -7 -2.5 -18t-5.5 -19q-49 2 -85 2h-72h-68t-69 -2zM448 250q8 47 -2 63.5t-44 16.5h-198l8 40h198q34 0 51.5 17t28.5 63q16 3 32 0l-42 -200q-17 -3 -32 0z" />
    <glyph glyph-name="G" unicode="G" horiz-adv-x="763" 
d="M378 -15q-144 0 -223.5 73t-79.5 220q0 99 33 179.5t93.5 138t144 88.5t184.5 31q74 0 131.5 -14t90.5 -31l-37 -175q-16 -3 -32 0q2 95 -44 136.5t-124 41.5q-90 0 -161.5 -47.5t-112.5 -135.5t-41 -212q0 -76 18.5 -132.5t59.5 -87.5t109 -31q38 0 79.5 11t66.5 29
q15 57 24.5 104.5t13.5 93.5h-82q0 8 2.5 19t5.5 18q35 -1 72.5 -1.5t64.5 -0.5q35 0 59 0.5t58 1.5q0 -8 -2.5 -18.5t-5.5 -18.5h-52q-9 -31 -18.5 -64.5t-19 -72.5t-20.5 -88q-49 -23 -113.5 -39t-141.5 -16z" />
    <glyph glyph-name="H" unicode="H" horiz-adv-x="812" 
d="M446 -2q0 8 2.5 19t5.5 18h72q15 47 26 88.5t21 86.5l60 280q8 38 15 80.5t12 94.5h-72q0 8 2.5 19t5.5 18q34 -1 68 -1.5t68 -0.5q35 0 69 0.5t69 1.5q0 -7 -2.5 -18t-5.5 -19h-72q-15 -46 -25.5 -85.5t-21.5 -89.5l-60 -280q-9 -41 -15.5 -84t-11.5 -91h72
q0 -8 -2.5 -18.5t-5.5 -18.5q-34 2 -68.5 2h-68.5h-68t-69 -2zM-4 -2q0 8 2.5 19t5.5 18h72q15 45 27 91t20 84l60 280q8 38 15 80.5t12 94.5h-72q0 8 2.5 19t5.5 18q34 -1 68 -1.5t68 -0.5q35 0 69 0.5t69 1.5q0 -7 -2.5 -18t-5.5 -19h-72q-15 -46 -25.5 -85.5t-21.5 -89.5
l-60 -280q-7 -37 -14.5 -80.5t-12.5 -94.5h72q0 -7 -2.5 -18t-5.5 -19q-34 2 -68 2h-69h-68t-69 -2zM191 350l8 40h444l-8 -40h-444z" />
    <glyph glyph-name="I" unicode="I" horiz-adv-x="362" 
d="M-4 -2q0 8 2.5 19t5.5 18h72q15 45 27 91t20 84l60 280q8 38 15 80.5t12 94.5h-72q0 8 2.5 19t5.5 18q34 -1 68 -1.5t68 -0.5q35 0 69 0.5t69 1.5q0 -7 -2.5 -18t-5.5 -19h-72q-15 -46 -25.5 -85.5t-21.5 -89.5l-60 -280q-7 -37 -14.5 -80.5t-12.5 -94.5h72
q0 -7 -2.5 -18t-5.5 -19q-34 2 -68 2h-69h-68t-69 -2z" />
    <glyph glyph-name="J" unicode="J" horiz-adv-x="456" 
d="M125 -15q-37 0 -64.5 8.5t-44 27.5t-21 49.5t4.5 74.5h105q-15 -69 -8.5 -97t35.5 -28q32 0 51 32t32 93l73 345q9 41 16.5 85.5t11.5 89.5h-92q0 7 2 18t5 19q50 -1 86.5 -1.5t70.5 -0.5q35 0 69 0.5t68 1.5q0 -7 -2 -18t-5 -19h-72q-16 -50 -27 -90t-21 -85l-73 -345
q-9 -41 -27 -71.5t-44 -50t-58.5 -29t-70.5 -9.5z" />
    <glyph glyph-name="K" unicode="K" horiz-adv-x="697" 
d="M-4 -2q0 8 2.5 19t5.5 18h72q15 45 27 91t20 84l60 280q8 38 15 80.5t12 94.5h-72q0 8 2.5 19t5.5 18q34 -1 68 -1.5t68 -0.5q35 0 69 0.5t69 1.5q0 -7 -2.5 -18t-5.5 -19h-72q-15 -46 -25.5 -85.5t-21.5 -89.5l-60 -280q-7 -37 -14.5 -80.5t-12.5 -94.5h72
q0 -7 -2.5 -18t-5.5 -19q-34 2 -68 2h-69h-68t-69 -2zM551 -10q-59 0 -78 29t-21 88l-4 136q-1 35 -9 58.5t-31 36t-71 12.5h-79l8 40h62q50 0 91.5 18t63.5 47q20 26 40.5 58.5t36.5 68.5q9 20 15 42t9 41h-68q0 8 2.5 19t5.5 18q41 -1 66 -1.5t44 -0.5q20 0 50.5 0.5
t73.5 1.5q0 -7 -2.5 -18t-5.5 -19h-76q-13 -11 -27 -29.5t-31 -49.5q-10 -18 -24 -44t-30.5 -53.5t-34.5 -50.5q-21 -27 -43.5 -39.5t-45.5 -17.5q70 -4 95 -34.5t27 -83.5l6 -156q2 -41 17 -55t59 -17q-1 -8 -2.5 -17t-5.5 -18q-23 -7 -41.5 -8.5t-41.5 -1.5z" />
    <glyph glyph-name="L" unicode="L" horiz-adv-x="577" 
d="M-4 -2q0 8 2.5 19t5.5 18h72q15 45 27 91t20 84l60 280q8 38 15 80.5t12 94.5h-72q0 8 2.5 19t5.5 18q34 -1 68 -1.5t68 -0.5q35 0 69 0.5t69 1.5q0 -7 -2.5 -18t-5.5 -19h-72q-15 -46 -25.5 -85.5t-21.5 -89.5l-60 -280q-7 -37 -14.5 -80.5t-12.5 -94.5h133
q77 0 115.5 42t60.5 128q16 3 32 0l-44 -205h-370h-68t-69 -2z" />
    <glyph glyph-name="M" unicode="M" horiz-adv-x="951" 
d="M366 -10q2 38 -1.5 78.5t-12.5 87.5l-91 458q-4 -15 -13 -52t-17 -72l-60 -280q-7 -37 -13.5 -78t-8.5 -97h77q0 -7 -2.5 -18t-5.5 -19q-34 2 -65.5 2h-50.5h-44t-61 -2q0 8 2.5 19t5.5 18h67q18 45 30.5 90t21.5 85l60 280q8 37 13.5 80t8.5 95h-67q0 8 2.5 19t5.5 18
q34 -1 60 -1.5t44 -0.5h118q0 -38 3.5 -74t9.5 -66l78 -395l231 377q19 31 32 54.5t24.5 47.5t24.5 56h99q35 0 69 0.5t69 1.5q0 -7 -2.5 -18t-5.5 -19h-72q-15 -46 -25.5 -85.5t-21.5 -89.5l-60 -280q-7 -37 -14.5 -80.5t-12.5 -94.5h72q0 -8 -2.5 -18.5t-5.5 -18.5
q-34 2 -68.5 2h-68.5h-68t-69 -2q0 8 2.5 19t5.5 18h72q15 47 26 88.5t21 86.5l60 280q8 37 13 73.5t6 50.5l-300 -484q-18 -29 -34.5 -65.5t-30.5 -74.5q-30 -5 -60 0z" />
    <glyph glyph-name="N" unicode="N" horiz-adv-x="784" 
d="M566 0q-8 40 -19.5 71.5t-31.5 70.5l-247 493l-17 65q33 0 61.5 0.5t55.5 1.5q6 -25 15.5 -50t27.5 -61l203 -408l5 -183q-15 -2 -27 -2t-26 2zM-3 -2q0 8 2.5 19t5.5 18h67q18 47 30 88.5t22 86.5l60 280q8 37 13.5 80t8.5 95h-67q0 8 2.5 19t5.5 18q34 -1 60 -1.5
t44 -0.5l17 -65q-9 -31 -19 -69t-18 -76l-60 -280q-7 -37 -13.5 -78t-8.5 -97h77q0 -7 -2.5 -18t-5.5 -19q-34 2 -65 2h-51h-44t-61 -2zM619 0l-5 183l63 307q9 44 14 83.5t8 91.5h-77q0 8 2.5 19t5.5 18q34 -1 65.5 -1.5t50.5 -0.5q17 0 43.5 0.5t61.5 1.5q0 -7 -2.5 -18
t-5.5 -19h-67q-13 -35 -22 -62t-16 -53t-14 -60z" />
    <glyph glyph-name="O" unicode="O" horiz-adv-x="802" 
d="M484 715q87 0 154 -32t105 -98t38 -167q0 -84 -27.5 -161.5t-80 -138.5t-128.5 -97t-173 -36q-87 0 -154 32t-105 98t-38 167q0 84 27.5 161.5t80 138.5t128.5 97t173 36zM373 27q82 0 145.5 51.5t100.5 142t37 206.5q0 71 -16.5 126.5t-54.5 87.5t-102 32
q-81 0 -145 -51.5t-101 -141.5t-37 -207q0 -70 16.5 -126t54.5 -88t102 -32z" />
    <glyph glyph-name="P" unicode="P" horiz-adv-x="621" 
d="M-4 -2q0 8 2.5 19t5.5 18h72q15 45 27 91t20 84l60 280q8 38 15 80.5t12 94.5h-72q0 8 2.5 19t5.5 18q34 -1 68 -1.5t68 -0.5h140q66 0 118 -15.5t82 -51t30 -95.5q0 -69 -41 -123t-110.5 -84.5t-153.5 -30.5h-150l9 40h150q48 0 86.5 24t61.5 69t23 107q0 31 -7.5 53.5
t-22.5 37.5t-38 22t-55 7h-65q-10 -30 -17.5 -56t-14.5 -53t-14 -61l-60 -280q-7 -37 -14.5 -80.5t-12.5 -94.5h92q0 -7 -2.5 -18t-5.5 -19q-49 2 -85 2h-72h-68t-69 -2z" />
    <glyph glyph-name="Q" unicode="Q" horiz-adv-x="802" 
d="M662 -96q19 -8 30 -20q-18 -19 -47 -36t-77 -17q-53 0 -84.5 21t-54.5 55t-40 51t-34.5 23.5t-42.5 8.5l127 5q26 0 45.5 -13t38.5 -36q26 -32 44.5 -48.5t40.5 -16.5q15 0 28 5t26 18zM484 715q87 0 154 -32t105 -98t38 -167q0 -84 -27.5 -161.5t-80 -138.5t-128.5 -97
t-173 -36q-87 0 -154 32t-105 98t-38 167q0 84 27.5 161.5t80 138.5t128.5 97t173 36zM373 27q82 0 145.5 51.5t100.5 142t37 206.5q0 71 -16.5 126.5t-54.5 87.5t-102 32q-81 0 -145 -51.5t-101 -141.5t-37 -207q0 -70 16.5 -126t54.5 -88t102 -32z" />
    <glyph glyph-name="R" unicode="R" horiz-adv-x="694" 
d="M642 35q-1 -8 -2.5 -17t-5.5 -18q-21 -5 -46.5 -7.5t-43.5 -2.5q-51 0 -69 31t-18 86v126q0 44 -26.5 65.5t-77.5 21.5h-152l9 40h165q47 0 85 26t60.5 69t22.5 92q0 56 -29.5 84.5t-94.5 28.5h-80q-15 -46 -25 -83t-21 -87l-60 -280q-7 -37 -14.5 -80.5t-12.5 -94.5h72
q0 -7 -2.5 -18t-5.5 -19q-34 2 -68 2h-69h-68t-69 -2q0 8 2.5 19t5.5 18h72q15 45 27 91t20 84l60 280q8 38 15 80.5t12 94.5h-72q0 8 2.5 19t5.5 18q34 -1 68 -1.5t68 -0.5h155q66 0 118.5 -15t82.5 -48.5t30 -88.5q0 -49 -27 -90.5t-75.5 -70.5t-114.5 -41q59 -4 87.5 -33
t28.5 -70l1 -136q0 -43 15.5 -56t58.5 -16z" />
    <glyph glyph-name="S" unicode="S" horiz-adv-x="578" 
d="M247 -14q-61 0 -117.5 13t-97.5 36l38 180q16 3 32 0q-6 -54 12 -96.5t55.5 -67.5t86.5 -25q65 0 102 20.5t52.5 53t15.5 68.5q0 44 -21.5 72t-55 47.5t-71.5 37t-71.5 40.5t-55 57.5t-21.5 87.5q0 61 32 107t88.5 71.5t129.5 25.5q69 0 115.5 -13t79.5 -34l-33 -157
q-16 -3 -32 0q8 71 -29 117.5t-107 46.5t-109 -36t-39 -88q0 -40 22 -66t57 -45t74.5 -38t74.5 -44t57 -62t22 -94q0 -62 -32.5 -110.5t-96.5 -76.5t-157 -28z" />
    <glyph glyph-name="T" unicode="T" horiz-adv-x="650" 
d="M141 -2q0 8 2 19t6 18h72q17 52 27 91t20 84l59 280q8 40 15 82.5t11 87.5h-58q-41 0 -73 -12.5t-56.5 -47t-44.5 -102.5q-16 -3 -32 0l43 202h590l-43 -202q-17 -3 -32 0q8 63 -0.5 98.5t-34.5 49.5t-71 14h-58q-17 -52 -26.5 -88.5t-19.5 -81.5l-59 -280
q-8 -38 -15.5 -84t-11.5 -91h72q-1 -6 -3 -17.5t-5 -19.5q-34 2 -68 2h-69h-68t-69 -2z" />
    <glyph glyph-name="U" unicode="U" horiz-adv-x="738" 
d="M341 -15q-144 0 -198.5 54t-30.5 166l61 285q8 37 14.5 75.5t12.5 99.5h-72q0 8 2.5 19t5.5 18q34 -1 68 -1.5t68 -0.5q35 0 69 0.5t69 1.5q0 -7 -2.5 -18t-5.5 -19h-72q-15 -46 -25.5 -85.5t-21.5 -89.5l-56 -260q-23 -109 13.5 -153.5t119.5 -44.5q89 0 144 50.5
t74 136.5l58 271q6 30 10 56.5t7 55t5 63.5h-77q0 8 2.5 19t5.5 18q34 -1 65.5 -1.5t50.5 -0.5q17 0 43.5 0.5t61.5 1.5q0 -7 -2.5 -18t-5.5 -19h-67q-13 -35 -22 -62t-16 -53t-14 -60l-61 -285q-22 -103 -96 -161.5t-185 -58.5z" />
    <glyph glyph-name="V" unicode="V" horiz-adv-x="653" 
d="M753 702q0 -7 -2.5 -18t-5.5 -19h-57q-32 -45 -59 -88.5t-50 -86.5l-168 -309q-18 -33 -46.5 -87.5t-50.5 -113.5q-10 -1 -20.5 -1.5t-20.5 0t-19 1.5l92 175l181 335q24 45 42.5 84.5t32.5 90.5h-81q0 8 2.5 19t5.5 18q41 -1 73 -1.5t49 -0.5q22 0 44 0.5t58 1.5z
M140 665h-54q0 8 2.5 19t5.5 18q23 -1 42 -1.5t37 -0.5h38q35 0 71.5 0.5t70.5 1.5q0 -7 -2.5 -18t-5.5 -19h-69q0 -45 4 -87t11 -88l55 -335l-92 -175q3 34 -2 74t-12 78.5t-12 67.5l-49 290q-7 44 -16 84.5t-23 90.5z" />
    <glyph glyph-name="W" unicode="W" horiz-adv-x="1027" 
d="M146 665h-53q0 8 2.5 19t5.5 18q24 -1 43 -1.5t37.5 -0.5h39.5q35 0 70.5 0.5t71.5 1.5q0 -7 -2.5 -18t-5.5 -19h-70q-2 -52 1.5 -91t9.5 -84l45 -321l-99 -189q1 30 -2 69.5t-7.5 79.5t-9.5 71l-42 290q-5 35 -12 76t-23 99zM1132 702q0 -5 -1.5 -16t-6.5 -21h-59
q-22 -30 -38.5 -55t-33 -53t-37.5 -67l-169 -309q-21 -38 -48.5 -91t-49.5 -110q-10 -1 -19.5 -1.5t-18.5 0t-20 1.5l99 189l172 321q20 37 38.5 77t34.5 98h-84q0 9 2.5 19.5t5.5 17.5q43 -1 76.5 -1.5t55.5 -0.5q19 0 41.5 0.5t59.5 1.5zM541 665h-58q0 8 2 19t6 18
q24 -1 44 -1.5t38.5 -0.5h37.5q34 0 69.5 0.5t72.5 1.5q-1 -6 -2.5 -16t-5.5 -21h-72q-1 -43 2.5 -88t9.5 -87l45 -321l-99 -189q0 52 -5 101t-15 119l-41 290q-4 31 -7.5 58.5t-8 56t-13.5 60.5zM618 563l-219 -382q-15 -27 -33.5 -61t-35.5 -70t-30 -70q-10 -1 -20 -1.5
t-19.5 0t-18.5 1.5l99 189l223 394h54z" />
    <glyph glyph-name="X" unicode="X" horiz-adv-x="696" 
d="M641 35q0 -8 -2.5 -18.5t-5.5 -18.5q-23 1 -43 1.5t-39 0.5h-42h-72.5t-71.5 -2q0 8 2.5 19t5.5 18h69q-11 47 -25 90t-34 87l-125 278q-19 44 -40.5 88.5t-46.5 86.5h-54q0 8 2.5 19t5.5 18q24 -1 43 -1.5t38 -0.5h42q38 0 73 0.5t69 1.5q0 -7 -2.5 -18t-5.5 -19h-69
q10 -46 27.5 -88.5t36.5 -86.5l124 -278q20 -44 41.5 -88.5t44.5 -88.5h54zM355 345l128 145q31 35 66.5 79t65.5 96h-72q0 8 2.5 19t5.5 18q40 -1 72.5 -1.5t49.5 -0.5q18 0 39 0.5t58 1.5q0 -7 -2.5 -18t-5.5 -19h-55q-30 -30 -55.5 -56t-51.5 -54t-59 -65l-127 -145h-59z
M396 365l-135 -155q-38 -44 -71 -86t-60 -89h78q0 -7 -2.5 -18t-5.5 -19q-40 2 -77 2h-54h-39t-57 -2q0 8 2.5 19t5.5 18h55q38 38 65 66t50.5 53.5t49.5 55.5l134 155h61z" />
    <glyph glyph-name="Y" unicode="Y" horiz-adv-x="639" 
d="M136 -2q0 8 2.5 19t5.5 18h72q14 42 25 83.5t18 71.5l3 13q16 68 11.5 137.5t-22.5 132.5t-43.5 113.5t-52.5 78.5h146q1 -18 12.5 -44.5t25.5 -64t25 -88.5t11 -118q19 43 45.5 88.5t56.5 88t60 76.5q20 23 30 38t14 24h82q-62 -54 -111.5 -116.5t-86.5 -126t-60 -120.5
t-33 -99l-3 -13q-7 -32 -12.5 -71t-10.5 -84h72q0 -7 -2.5 -18t-5.5 -19q-34 2 -68.5 2h-67.5h-68.5t-69.5 -2zM91 665q0 8 2.5 19t5.5 18q34 -1 65.5 -1.5t50.5 -0.5q20 0 62.5 0.5t85.5 1.5q0 -7 -2.5 -18t-5.5 -19h-264zM500 665q0 8 2.5 19t5.5 18q41 -1 71.5 -1.5
t49.5 -0.5q20 0 42 0.5t57 1.5q0 -7 -2.5 -18t-5.5 -19h-220z" />
    <glyph glyph-name="Z" unicode="Z" horiz-adv-x="644" 
d="M168 700h515q-1 -13 -2.5 -24.5t-5.5 -25.5l-131 10h-213q-41 0 -74.5 -14.5t-58 -47t-39.5 -88.5q-16 -3 -32 0zM549 0h-556q2 12 3 24.5t4 25.5l138 -10h248q47 0 80 14.5t55 47.5t36 88q17 3 32 0zM544 660l131 -10q-25 -13 -48.5 -36t-43.5 -48t-37 -46l-271 -340
q-45 -56 -76.5 -91.5t-60.5 -48.5l-138 10q21 9 47.5 31.5t52.5 49.5t43 49l271 340q50 62 77.5 94.5t52.5 45.5z" />
    <glyph glyph-name="bracketleft" unicode="[" horiz-adv-x="320" 
d="M152 45l115 545q10 45 21 85t27 90h102q2 7 4.5 17t3.5 20q-27 -1 -55.5 -1.5t-67 -0.5h-95.5q1 -23 -3.5 -59t-10.5 -72.5t-12 -61.5l-123 -579q-6 -28 -14.5 -63.5t-19 -70t-22.5 -59.5h95.5t67 -0.5t54.5 -1.5q7 19 7 37h-102q5 50 12 91t16 84z" />
    <glyph glyph-name="backslash" unicode="\" horiz-adv-x="384" 
d="M138 730q25 3 50 0l94 -850q-25 -3 -50 0z" />
    <glyph glyph-name="bracketright" unicode="]" horiz-adv-x="319" 
d="M209 590l-116 -545q-8 -37 -20 -83.5t-27 -91.5h-102q-3 -7 -5.5 -18t-2.5 -19q27 1 55 1.5t67 0.5h95q0 24 4 59.5t10.5 72t11.5 61.5l124 579q6 28 14.5 63.5t19.5 70t22 59.5h-95t-67 0.5t-55 1.5q-3 -7 -5.5 -18t-2.5 -19h102q-4 -49 -11.5 -93t-15.5 -82z" />
    <glyph glyph-name="asciicircum" unicode="^" horiz-adv-x="620" 
d="M453 838l155 -264q-10 -10 -20.5 -18t-22.5 -14l-140 244l-226 -244q-21 12 -35 32l249 264q20 4 40 0z" />
    <glyph glyph-name="underscore" unicode="_" horiz-adv-x="575" 
d="M330 -120h-480q0 13 3 25t7 25h480q0 -13 -2.5 -25t-7.5 -25z" />
    <glyph glyph-name="grave" unicode="`" horiz-adv-x="151" 
d="M62 690h115q-2 -43 3.5 -83.5t23.5 -86.5q-16 -3 -32 0q-12 31 -32.5 56.5t-42 52.5t-35.5 61z" />
    <glyph glyph-name="a" unicode="a" horiz-adv-x="550" 
d="M388 -15q-43 0 -59 30t-6 77l17 80l35 69l10 134l82 65q16 3 32 0q-14 -40 -27.5 -91t-21.5 -89l-36 -168q-4 -22 -2.5 -37t16.5 -15q14 0 31.5 15t40.5 51q9 -4 16 -8.5t14 -11.5q-24 -45 -62 -73t-80 -28zM156 -15q-58 0 -89.5 40t-31.5 114q0 56 19 112t54 102t85 74
t113 28q64 0 105 -30t48 -80l-53 -32q0 -56 -19.5 -114t-54 -106.5t-79.5 -78t-97 -29.5zM200 45q36 0 66.5 26t53.5 67.5t36 88.5t13 89q0 45 -14.5 72t-48.5 27t-65.5 -26.5t-56 -68.5t-39 -89.5t-14.5 -88.5q0 -49 18.5 -73t50.5 -24z" />
    <glyph glyph-name="b" unicode="b" horiz-adv-x="525" 
d="M201 -15q-67 0 -102.5 26.5t-44 73.5t4.5 106l71 329q8 35 12.5 69t7.5 74h-57q0 8 2.5 19t5.5 18q35 0 81 2.5t94 10.5q-11 -26 -22 -61.5t-20 -71t-14 -60.5l-44 -213h-21q42 76 93 112t112 36t95.5 -40t34.5 -111q0 -64 -21 -121.5t-59.5 -102t-91.5 -70t-117 -25.5z
M220 30q38 0 69.5 26t55 67.5t36.5 87.5t13 86q0 50 -18.5 76.5t-52.5 26.5q-36 0 -68 -26.5t-56.5 -68.5t-38.5 -89.5t-14 -88.5q0 -49 21 -73t53 -24z" />
    <glyph glyph-name="c" unicode="c" horiz-adv-x="454" 
d="M198 -15q-75 0 -118 46.5t-43 122.5q0 59 20.5 112.5t57.5 96.5t87 67.5t108 24.5q38 0 70.5 -10.5t57.5 -29.5l-29 -135q-16 -3 -32 0q1 66 -17.5 100.5t-57.5 34.5t-70 -26t-53 -67.5t-33.5 -88.5t-11.5 -89q0 -54 23 -79t61 -25q31 0 70.5 19t76.5 71q9 -4 16 -8.5
t14 -11.5q-39 -66 -90 -95.5t-107 -29.5z" />
    <glyph glyph-name="d" unicode="d" horiz-adv-x="560" 
d="M399 -15q-43 0 -58.5 30t-5.5 77l12 59l42 82l-8 80l44 207q8 34 13 70t7 73h-57q0 7 2.5 18.5t5.5 18.5q35 0 81.5 2.5t93.5 10.5q-11 -27 -22 -63t-20 -71t-14 -59l-90 -428q-5 -23 -2.5 -37.5t16.5 -14.5t31.5 15t40.5 51q9 -4 16 -8.5t14 -11.5q-24 -45 -62 -73
t-80 -28zM165 -15q-61 0 -95.5 40t-34.5 111q0 57 18 113.5t53 103t85.5 74.5t114.5 28t107.5 -30t50.5 -80l-48 -32q0 -57 -19.5 -114.5t-54.5 -106t-80.5 -78t-96.5 -29.5zM205 45q38 0 69.5 26t55 67.5t36.5 87.5t13 86q0 50 -18.5 76.5t-52.5 26.5q-36 0 -68 -26.5
t-56.5 -68.5t-38.5 -89.5t-14 -88.5q0 -49 21 -73t53 -24z" />
    <glyph glyph-name="e" unicode="e" horiz-adv-x="469" 
d="M221 40q29 0 73.5 19t90.5 71q9 -4 16 -8.5t14 -11.5q-46 -66 -102.5 -95.5t-111.5 -29.5q-79 0 -121.5 45.5t-42.5 124.5q0 60 20.5 114t58.5 96t90 66t115 24q51 0 79.5 -12.5t40.5 -32t12 -40.5q0 -44 -32 -76.5t-84 -55t-111 -34.5t-113 -15l-6 35q66 4 123.5 21.5
t93.5 47t36 67.5q0 21 -12.5 38t-44.5 17q-44 0 -77 -27t-55 -69t-33 -88.5t-11 -85.5q0 -57 24 -81t70 -24z" />
    <glyph glyph-name="f" unicode="f" horiz-adv-x="293" 
d="M298 720q53 0 70.5 -33t1.5 -86h-85q12 38 8.5 59t-23.5 21q-26 0 -42.5 -37.5t-16.5 -109.5q0 -31 2.5 -54t6.5 -40l-3 -40l-57 -296q-8 -44 -19 -86.5t-28.5 -81t-45 -70.5t-67.5 -55.5t-97 -35.5q-3 6 -5.5 16.5t-2.5 21.5q63 19 104 75t63 172l38 200q6 32 15 82.5
t12 97.5q7 97 26.5 159t55 91.5t89.5 29.5zM312 400h-260q1 8 3 19.5t6 20.5h260q-1 -8 -3 -19.5t-6 -20.5z" />
    <glyph glyph-name="g" unicode="g" horiz-adv-x="529" 
d="M167 5q-61 0 -95.5 36t-34.5 106q0 57 18.5 112t53 99.5t84.5 70.5t113 26q65 0 102.5 -25t54.5 -61l-45 -56q0 -56 -19 -111t-53 -99.5t-80 -71t-99 -26.5zM207 65q40 0 72 23t55 60.5t35 80.5t12 83q0 50 -18.5 76.5t-53.5 26.5q-37 0 -69 -25t-56 -65.5t-37.5 -85.5
t-13.5 -86q0 -46 21 -67t53 -21zM103 -225q-58 0 -97.5 25t-39.5 75q0 33 16.5 58.5t40.5 44.5t49 32t41 20l20 -18q-43 -25 -64.5 -54.5t-21.5 -68.5q0 -34 18 -54t60 -20q55 0 95.5 32.5t68.5 89t44 127.5l12 52l50 132l1 127l82 65q16 3 32 0q-14 -40 -27.5 -91
t-21.5 -89l-40 -190q-20 -95 -69 -161t-114 -100t-135 -34z" />
    <glyph glyph-name="h" unicode="h" horiz-adv-x="551" 
d="M27 -5q7 29 13 55.5t11 51.5l88 418q7 34 12.5 70t7.5 73h-57q0 7 2.5 18.5t5.5 18.5q35 0 81.5 2.5t93.5 10.5q-11 -26 -22 -62t-19.5 -71t-14.5 -60l-88 -418q-5 -25 -9 -50.5t-6 -51.5q-26 0 -49.5 -1t-49.5 -4zM387 -15q-43 0 -59.5 30.5t-4.5 76.5l57 222
q9 35 0 55.5t-37 20.5q-30 0 -60.5 -22.5t-58 -62t-49 -92t-34.5 -111.5h-26q29 133 73 210t95.5 110t102.5 33q54 0 78.5 -32.5t5.5 -106.5l-57 -224q-6 -23 -3 -37.5t17 -14.5t31.5 15t40.5 51q9 -4 16 -8.5t14 -11.5q-24 -45 -62 -73t-80 -28z" />
    <glyph glyph-name="i" unicode="i" horiz-adv-x="294" 
d="M127 -15q-43 0 -58.5 30t-5.5 77l36 168q7 30 11.5 61.5t8.5 81.5h-57q0 8 2.5 19t5.5 18q39 0 83 2.5t92 10.5q-11 -26 -22 -62t-19.5 -71t-14.5 -60l-36 -168q-5 -23 -2.5 -37.5t16.5 -14.5t31.5 15t40.5 51q9 -4 16 -8.5t14 -11.5q-24 -45 -62 -73t-80 -28zM229 669
l48 -41l-14 -64l-60 -18l-48 41l14 64z" />
    <glyph glyph-name="j" unicode="j" horiz-adv-x="262" 
d="M-92 -225q-4 7 -6.5 17.5t-2.5 20.5q63 18 100.5 76t61.5 171l42 200q8 36 13 71t7 72h-57q1 8 3 18.5t5 18.5q38 0 83 2.5t92 10.5q-12 -27 -22.5 -62.5t-19 -70.5t-14.5 -60l-34 -156q-12 -55 -26.5 -107.5t-40 -97t-69.5 -77t-115 -47.5zM233 669l48 -41l-14 -64
l-60 -18l-48 41l14 64z" />
    <glyph glyph-name="k" unicode="k" horiz-adv-x="525" 
d="M27 -5l7 31.5t7 30.5t10 45l88 418q7 34 12.5 70t7.5 73h-57q0 7 2.5 18.5t5.5 18.5q35 0 81.5 2.5t93.5 10.5q-11 -27 -22 -63t-20 -71t-14 -59l-88 -418q-5 -25 -9 -50.5t-6 -51.5q-26 0 -49.5 -1t-49.5 -4zM295 51l-6 52q-5 43 -35 60t-68 17h-34l8 25h103
q50 0 79 -21.5t35 -66.5l6 -44q2 -12 6.5 -22.5t17.5 -10.5q14 0 31 15t40 51q9 -4 16 -8.5t14 -11.5q-24 -45 -55.5 -73t-79.5 -28q-41 0 -58 20t-20 46zM166 195l1 20q68 0 119 19t79.5 49.5t28.5 64.5q0 22 -12.5 34.5t-36.5 12.5q-31 0 -68 -24t-66.5 -67t-41.5 -99h-29
q21 87 61.5 142t90 81.5t95.5 26.5q41 0 67.5 -20.5t26.5 -64.5q0 -42 -29.5 -78.5t-83 -62t-124.5 -34.5h-78z" />
    <glyph glyph-name="l" unicode="l" horiz-adv-x="278" 
d="M113 -15q-43 0 -58.5 30t-5.5 77l90 428q7 34 12.5 70t7.5 73h-57q0 7 2.5 18.5t5.5 18.5q35 0 81.5 2.5t93.5 10.5q-11 -27 -22 -63t-20 -71t-14 -59l-90 -428q-5 -23 -2.5 -37.5t16.5 -14.5t31.5 15t40.5 51q9 -4 16 -8.5t14 -11.5q-24 -45 -62 -73t-80 -28z" />
    <glyph glyph-name="m" unicode="m" horiz-adv-x="830" 
d="M665 -15q-43 0 -59.5 30.5t-4.5 76.5l57 222q9 35 0 55.5t-36 20.5q-28 0 -57 -22.5t-55.5 -62t-47.5 -92t-34 -111.5h-26q29 133 72 210t92.5 110t99.5 33q53 0 77 -32.5t5 -106.5l-57 -224q-6 -23 -3 -37.5t17 -14.5t31.5 15t40.5 51q9 -4 16 -8.5t14 -11.5
q-24 -45 -62 -73t-80 -28zM45 -5q7 29 13 55.5t11 51.5l34 158q7 30 11.5 61.5t8.5 81.5h-57q0 8 2.5 19t5.5 18q39 0 80.5 2.5t89.5 10.5q-15 -36 -24 -63t-14.5 -56.5t-12.5 -73.5l-34 -158q-5 -25 -9 -50.5t-6 -51.5q-26 0 -49.5 -1t-49.5 -4zM313 -5q7 29 13 55.5
t12 51.5l50 212q8 35 -0.5 55.5t-35.5 20.5q-28 0 -57 -22.5t-55 -62t-47 -92t-34 -111.5h-26q29 133 71.5 210t92.5 110t100 33q52 0 75 -32.5t6 -106.5l-50 -214q-6 -25 -10 -50.5t-6 -51.5q-26 0 -49.5 -1t-49.5 -4z" />
    <glyph glyph-name="n" unicode="n" horiz-adv-x="569" 
d="M45 -5q7 29 13 55.5t11 51.5l34 158q7 30 11.5 61.5t8.5 81.5h-57q0 8 2.5 19t5.5 18q39 0 80.5 2.5t89.5 10.5q-15 -36 -24 -63t-14.5 -56.5t-12.5 -73.5l-34 -158q-5 -25 -9 -50.5t-6 -51.5q-26 0 -49.5 -1t-49.5 -4zM405 -15q-43 0 -59.5 30.5t-4.5 76.5l57 222
q9 35 0 55.5t-37 20.5q-30 0 -60.5 -22.5t-58 -62t-49 -92t-34.5 -111.5h-26q29 133 73 210t95.5 110t102.5 33q54 0 78.5 -32.5t5.5 -106.5l-57 -224q-6 -23 -3 -37.5t17 -14.5t31.5 15t40.5 51q9 -4 16 -8.5t14 -11.5q-24 -45 -62 -73t-80 -28z" />
    <glyph glyph-name="o" unicode="o" horiz-adv-x="521" 
d="M313 415q-42 0 -75.5 -26.5t-56.5 -68t-35 -89t-12 -89.5q0 -57 18 -87t56 -30v-40q-82 0 -126.5 46.5t-44.5 123.5q0 59 20.5 113t58 96t88 66.5t109.5 24.5v-40zM208 25q42 0 75.5 26.5t56.5 68t35 89t12 89.5q0 57 -18 87t-56 30v40q82 0 126.5 -46.5t44.5 -123.5
q0 -59 -20.5 -113t-58 -96t-88 -66.5t-109.5 -24.5v40z" />
    <glyph glyph-name="p" unicode="p" horiz-adv-x="543" 
d="M-2 -215q7 29 13 55.5t11 51.5l79 368q7 30 11.5 61.5t8.5 81.5h-57q0 8 2.5 19t5.5 18q39 0 80.5 2.5t89.5 10.5q-15 -36 -24 -63t-14.5 -56.5t-12.5 -73.5l-30 -69l-1 -74l-48 -225q-5 -25 -9 -50.5t-6 -51.5q-26 0 -49.5 -1t-49.5 -4zM378 455q61 0 95.5 -40
t34.5 -111q0 -57 -18 -113.5t-53 -103t-85 -74.5t-115 -28q-64 0 -107 30t-51 80l48 32q0 57 19.5 114.5t54.5 106t80.5 78t96.5 29.5zM338 395q-37 0 -69 -26t-55.5 -67.5t-36.5 -87.5t-13 -86q0 -49 18.5 -76t52.5 -27q36 0 68 26.5t56.5 68.5t38.5 89.5t14 88.5
q0 49 -21 73t-53 24z" />
    <glyph glyph-name="q" unicode="q" horiz-adv-x="527" 
d="M267 -215q7 29 13 55.5t11 51.5l53 248l38 109l12 126l82 65q16 3 32 0q-14 -40 -27.5 -91t-21.5 -89l-78 -368q-5 -25 -9 -50.5t-6 -51.5q-26 0 -49.5 -1t-49.5 -4zM165 -15q-61 0 -95.5 40t-34.5 111q0 57 18 113.5t53 103t85.5 74.5t114.5 28t107.5 -30t50.5 -80
l-48 -32q0 -57 -19.5 -114.5t-54.5 -106t-80.5 -78t-96.5 -29.5zM205 45q38 0 69.5 26t55 67.5t36.5 87.5t13 86q0 50 -18.5 76.5t-52.5 26.5q-36 0 -68 -26.5t-56.5 -68.5t-38.5 -89.5t-14 -88.5q0 -49 21 -73t53 -24z" />
    <glyph glyph-name="r" unicode="r" horiz-adv-x="433" 
d="M45 -5q7 29 13 55.5t11 51.5l34 158q7 30 11.5 61.5t8.5 81.5h-57q0 8 2.5 19t5.5 18q39 0 80.5 2.5t89.5 10.5q-15 -36 -24 -63t-14.5 -56.5t-12.5 -73.5l-34 -158q-5 -25 -9 -50.5t-6 -51.5q-26 0 -49.5 -1t-49.5 -4zM346 325q8 35 3 50.5t-21 15.5q-20 0 -44 -22.5
t-48 -62.5t-44 -92.5t-33 -111.5h-26q29 128 69 205.5t86 112.5t92 35q34 0 51 -20t18.5 -49.5t-13.5 -60.5h-90z" />
    <glyph glyph-name="s" unicode="s" horiz-adv-x="419" 
d="M174 -15q-37 0 -74.5 8t-79.5 30l29 130q16 3 32 0q0 -60 22.5 -94t76.5 -34q42 0 68.5 21t26.5 55q0 27 -20 43.5t-49.5 30t-59 30t-49.5 42.5t-20 69q0 45 23 76t62.5 47t87.5 16q39 0 74.5 -10t63.5 -28l-27 -117q-16 -3 -32 0q1 59 -22 87t-72 28q-40 0 -58.5 -20
t-18.5 -44q0 -28 20.5 -46t51 -33t60.5 -32t50.5 -42.5t20.5 -66.5q0 -46 -26.5 -79t-69 -50t-91.5 -17z" />
    <glyph glyph-name="t" unicode="t" horiz-adv-x="339" 
d="M56 400q1 9 3 20t6 20h275q-1 -7 -3 -19t-6 -21h-275zM267 126q9 -4 16 -8.5t14 -11.5q-34 -60 -77.5 -90.5t-90.5 -30.5q-49 0 -63.5 30.5t-4.5 76.5l46 218q5 22 12 56t13 71t8 68q19 6 35 17t29.5 25t22.5 28q16 3 32 0q-20 -76 -34.5 -139t-28.5 -128l-45 -216
q-4 -21 2 -34t20 -13q11 0 34.5 15t59.5 66z" />
    <glyph glyph-name="u" unicode="u" horiz-adv-x="561" 
d="M147 -15q-52 0 -74.5 33t-6.5 106l30 136q7 30 11.5 61.5t8.5 81.5h-57q0 8 2.5 19t5.5 18q39 0 83 2.5t92 10.5q-11 -26 -22 -62t-19.5 -71t-14.5 -60l-30 -134q-7 -35 1 -55.5t35 -20.5q29 0 57.5 22.5t54.5 62t47 92t34 111.5h26q-29 -133 -71.5 -210t-92 -110
t-100.5 -33zM396 -15q-43 0 -58.5 30t-5.5 77l53 246q5 26 9.5 51.5t5.5 50.5q26 0 49.5 1t49.5 4q-7 -29 -13 -55t-11 -52l-53 -246q-5 -23 -2.5 -37.5t16.5 -14.5t31.5 15t40.5 51q9 -4 16 -8.5t14 -11.5q-24 -45 -62 -73t-80 -28z" />
    <glyph glyph-name="v" unicode="v" horiz-adv-x="491" 
d="M453 440q8 -81 -6 -162t-48.5 -147t-89 -106t-126.5 -40q-34 0 -70 13t-65 46l46 216q7 33 12.5 69.5t7.5 73.5h-57q0 7 2.5 18.5t5.5 18.5q38 0 83 2.5t92 10.5q-11 -27 -22 -63t-19.5 -70.5t-14.5 -59.5l-28 -131q-10 -44 3 -69t49 -25q53 0 91.5 29.5t60 87
t21.5 139.5q0 35 -6 61t-21 51h-44q0 7 2.5 19.5t5.5 19.5q35 -1 72.5 -1.5t62.5 -0.5z" />
    <glyph glyph-name="w" unicode="w" horiz-adv-x="748" 
d="M382 338h26q-29 -133 -70.5 -210t-90 -110t-99.5 -33q-52 0 -76.5 33t-8.5 106l30 136q7 30 11.5 61.5t8.5 81.5h-57q0 8 2.5 19t5.5 18q39 0 83 2.5t92 10.5q-11 -26 -22 -62t-19.5 -71t-14.5 -60l-30 -134q-7 -35 1 -55.5t35 -20.5q29 0 57.5 22.5t54.5 62t47 92
t34 111.5zM719 440q7 -65 -4.5 -130t-37.5 -123.5t-64 -104t-86 -71.5t-103 -26q-56 0 -79.5 34.5t-8.5 105.5l46 213q5 26 9.5 51.5t5.5 50.5q26 0 49.5 1t49.5 4q-7 -29 -13 -55t-11 -52l-46 -212q-7 -34 4 -55t48 -21q46 0 83 31.5t59 88t22 131.5q0 27 -4 52t-18 50h-44
q0 7 2.5 19.5t5.5 19.5q35 -1 72.5 -1.5t62.5 -0.5z" />
    <glyph glyph-name="x" unicode="x" horiz-adv-x="534" 
d="M315 -15q-59 0 -81 42.5t-20 114.5q23 64 46.5 120.5t50.5 100t60.5 68t77.5 24.5q31 0 56 -10t41 -27l-35 -114q-16 -3 -32 0q3 61 -4 86t-31 25q-27 0 -52 -26.5t-45 -69.5t-31.5 -94.5t-11.5 -101.5q0 -46 10.5 -64.5t29.5 -18.5q18 0 41.5 16.5t51.5 59.5
q9 -4 16 -8.5t14 -11.5q-25 -49 -62 -80t-90 -31zM219 455q59 0 81 -42.5t20 -114.5q-23 -64 -46.5 -120.5t-50.5 -100t-60.5 -68t-77.5 -24.5q-31 0 -56 10.5t-41 26.5l35 114q16 3 32 0q-3 -61 4 -86t31 -25q27 0 52 26.5t45 69.5t31.5 94.5t11.5 101.5q0 47 -10.5 65
t-29.5 18q-18 0 -41 -16t-52 -60q-9 5 -15.5 9t-14.5 11q26 49 62.5 80t89.5 31z" />
    <glyph glyph-name="y" unicode="y" horiz-adv-x="526" 
d="M385 338h26q-22 -100 -51 -164.5t-62.5 -101.5t-69.5 -52t-72 -15q-55 0 -78.5 33t-7.5 106l26 116q7 30 11.5 61.5t8.5 81.5h-57q0 8 2.5 19t5.5 18q39 0 83 2.5t92 10.5q-11 -26 -22 -62t-19.5 -71t-14.5 -60l-26 -114q-8 -35 1 -55.5t37 -20.5t55.5 19.5t53 55.5
t45.5 85t33 108zM400 440q26 0 49.5 1t49.5 4q-7 -29 -13 -55t-11 -52l-56 -268q-20 -95 -69 -161t-114.5 -100t-135.5 -34q-58 0 -97 25t-39 75q0 33 16.5 58.5t40.5 44.5t49 32t41 20l20 -18q-43 -25 -64.5 -54.5t-21.5 -68.5q0 -34 18 -54t59 -20q55 0 96 32.5t69 89
t44 127.5l24 107l-2 16l32 151q5 26 9.5 51.5t5.5 50.5z" />
    <glyph glyph-name="z" unicode="z" horiz-adv-x="471" 
d="M-23 0q45 48 95.5 95.5t102.5 95.5t102.5 95.5t95.5 95.5l75 15q-45 -48 -95.5 -95.5t-102 -95t-102 -95t-95.5 -95.5zM295 -29q-34 0 -55.5 8t-39 19t-37.5 19t-52 8q-31 0 -52.5 -10.5t-50.5 -38.5q-17 9 -31 24l161 110q46 0 71 -13.5t40.5 -31.5t30 -31.5t39.5 -13.5
q26 0 37.5 15.5t11.5 35.5q0 24 -12.5 42t-28.5 31q11 12 30 20q24 -18 40 -41t15 -58q-1 -44 -34 -69t-83 -25zM75 280l34 160h345q0 -22 -6 -43l-83 -32h-156q-31 0 -48.5 -8.5t-28.5 -27t-25 -49.5q-17 -3 -32 0z" />
    <glyph glyph-name="braceleft" unicode="{" horiz-adv-x="334" 
d="M232 -167q-88 0 -128.5 41t-40.5 110q0 49 6.5 79.5t16.5 50t19.5 36t16 36.5t6.5 51q0 38 -26 50.5t-62 12.5h-18q0 7 2.5 19.5t6.5 20.5h18q28 0 53 7t43.5 27t26.5 58q5 24 5 47t0.5 49.5t7.5 58.5q21 99 83 157t170 58q0 -7 -2.5 -18t-5.5 -19q-47 0 -76.5 -17.5
t-45 -47.5t-23.5 -66q-6 -31 -7 -58.5t-1.5 -53t-6.5 -53.5q-12 -57 -41 -95.5t-88 -53.5q37 -10 54.5 -33.5t17.5 -61.5q0 -49 -7 -76t-17 -44t-20 -33.5t-17 -43t-7 -73.5q0 -36 20.5 -60.5t74.5 -24.5q-1 -6 -3 -17.5t-5 -19.5z" />
    <glyph glyph-name="bar" unicode="|" horiz-adv-x="240" 
d="M8 -200l212 1000q24 3 45 0l-212 -1000q-24 -3 -45 0z" />
    <glyph glyph-name="braceright" unicode="}" horiz-adv-x="334" 
d="M143 802q88 0 128 -41t40 -110q0 -49 -6.5 -79.5t-16 -50t-19 -36t-16 -36t-6.5 -51.5q0 -36 24.5 -49.5t63.5 -13.5h18q0 -7 -3 -19.5t-6 -20.5h-18q-104 0 -123 -90q-8 -37 -6 -75t-8 -85q-20 -97 -82.5 -154.5t-169.5 -57.5q0 8 2.5 19t5.5 18q48 0 77 18t44.5 48
t23.5 66q7 33 7.5 59.5t1 52t6.5 53.5q12 56 41 94.5t87 53.5q-39 11 -55 36t-16 59q0 49 7 76t17 44t19.5 33.5t16.5 43t7 73.5q0 36 -20 60.5t-74 24.5q0 8 2.5 19t5.5 18z" />
    <glyph glyph-name="asciitilde" unicode="~" horiz-adv-x="620" 
d="M87 279q16 88 60.5 132t102.5 44q34 0 55.5 -12.5t36.5 -31.5t28.5 -38t29.5 -31.5t41 -12.5q47 0 73 38t35 88q25 4 50 0q-16 -88 -60.5 -132t-102.5 -44q-34 0 -55.5 12.5t-37 31.5t-28.5 38t-29.5 31.5t-41.5 12.5q-46 0 -72 -38t-35 -88q-25 -4 -50 0z" />
    <glyph glyph-name="uni00A0" unicode="&#xa0;" horiz-adv-x="244" 
 />
    <glyph glyph-name="exclamdown" unicode="&#xa1;" horiz-adv-x="274" 
d="M45 -209l-48 47l14 68l130 421q9 -1 18 -2.5t17 -5.5l-53 -437l-14 -68zM171 391l-48 41l14 64l60 18l48 -41l-14 -64z" />
    <glyph glyph-name="cent" unicode="&#xa2;" horiz-adv-x="481" 
d="M88 -150l291 748q11 -1 22.5 -2.5t21.5 -5.5l-291 -748q-11 1 -22 2.5t-22 5.5zM211 -15q-75 0 -118 46.5t-43 122.5q0 59 20.5 112.5t57.5 96.5t87 67.5t108 24.5q38 0 70.5 -10.5t57.5 -29.5l-29 -135q-16 -3 -32 0q1 66 -17.5 100.5t-57.5 34.5t-70 -26t-53 -67.5
t-33.5 -88.5t-11.5 -89q0 -54 23 -79t61 -25q31 0 70.5 19t76.5 71q9 -4 16 -8.5t14 -11.5q-39 -66 -90 -95.5t-107 -29.5z" />
    <glyph glyph-name="sterling" unicode="&#xa3;" horiz-adv-x="649" 
d="M82 -15q-39 0 -60 20.5t-21 48.5q0 42 32.5 66t81.5 24q36 0 60.5 -9t43.5 -22t37.5 -26.5t41 -22.5t55.5 -9q59 0 95.5 30.5t40.5 87.5h115q-12 -82 -65 -135t-151 -53q-39 0 -70 12t-57 29.5t-50 35.5t-48.5 30t-53.5 12q-28 0 -44.5 -12.5t-16.5 -33.5
q0 -14 10.5 -23.5t31.5 -9.5q39 0 69 27.5t47.5 74t17.5 103.5q0 35 -6 65t-14 58.5t-14 58t-6 62.5q0 73 33.5 127t94 84t140.5 30q87 0 133.5 -40.5t46.5 -102.5q0 -30 -10 -59t-15 -38h-110q10 20 19 52.5t9 57.5q0 40 -20 65t-61 25q-46 0 -82.5 -32.5t-56 -91
t-16.5 -135.5q2 -54 -1 -106.5t-12 -101t-24.5 -89t-39 -71t-56 -47t-74.5 -16.5zM470 300h-380q1 13 3.5 25t7.5 25h380q-2 -26 -11 -50z" />
    <glyph glyph-name="currency" unicode="&#xa4;" horiz-adv-x="642" 
d="M351 148q-59 0 -107.5 28.5t-77 77t-28.5 107.5t28.5 107.5t77 77t107.5 28.5t107 -28.5t77 -76.5t29 -108q0 -59 -28.5 -107.5t-77 -77t-107.5 -28.5zM147 125q-21 14 -35 35l86 86l35 -35zM351 198q45 0 82 22t59 59t22 82t-22 82t-59 59t-82 22t-82 -22t-59 -59
t-22 -82t22 -82t59 -59t82 -22zM557 125l-87 87l35 35l87 -87q-14 -21 -35 -35zM202 480l-90 90q14 21 35 35l90 -90zM501 479l-35 35l91 91q21 -14 35 -35z" />
    <glyph glyph-name="yen" unicode="&#xa5;" horiz-adv-x="704" 
d="M169 -2q0 8 2.5 19t5.5 18h72q14 42 25 83.5t18 71.5l3 13q16 68 11.5 137.5t-22.5 132.5t-43.5 113.5t-52.5 78.5h146q1 -18 12.5 -44.5t25.5 -64t25 -88.5t11 -118q19 43 45.5 88.5t56.5 88t60 76.5q20 23 30 38t14 24h82q-62 -54 -111.5 -116.5t-86.5 -126t-60 -120.5
t-33 -99l-3 -13q-7 -32 -12.5 -71t-10.5 -84h72q0 -7 -2.5 -18t-5.5 -19q-34 2 -68.5 2h-67.5h-68.5t-69.5 -2zM124 665q0 8 2.5 19t5.5 18q34 -1 65.5 -1.5t50.5 -0.5q20 0 62.5 0.5t85.5 1.5q0 -7 -2.5 -18t-5.5 -19h-264zM533 665q0 8 2.5 19t5.5 18q41 -1 71.5 -1.5
t49.5 -0.5q20 0 42 0.5t57 1.5q0 -7 -2.5 -18t-5.5 -19h-220zM606 280h-479q0 13 2 25t6 25h479q0 -13 -1.5 -25t-6.5 -25zM586 150h-479q0 13 2 25t6 25h479q0 -13 -1.5 -25t-6.5 -25z" />
    <glyph glyph-name="brokenbar" unicode="&#xa6;" horiz-adv-x="240" 
d="M8 -200l85 400q23 3 45 0l-85 -400q-24 -3 -45 0zM135 400l85 400q24 3 45 0l-85 -400q-22 -3 -45 0z" />
    <glyph glyph-name="section" unicode="&#xa7;" horiz-adv-x="545" 
d="M245 64l7 33q73 8 117 43t44 96q0 32 -19 53.5t-49.5 38.5t-64 34.5t-64 40t-49.5 56t-19 82.5q0 46 25.5 85.5t74 64t118.5 24.5q48 0 92 -9.5t78 -25.5l-33 -157q-16 -1 -32 0q11 68 -18 110t-87 42q-56 0 -93.5 -28t-37.5 -80q0 -36 19.5 -60t51 -41.5t66 -33.5
t66 -36.5t51 -49.5t19.5 -73q0 -52 -32.5 -94.5t-91.5 -71.5t-139 -43zM312 436l-7 -33q-73 -7 -117 -42.5t-44 -96.5q0 -32 19 -53.5t49.5 -38.5t64 -34.5t64 -40t49.5 -56t19 -82.5q0 -46 -25.5 -85.5t-74 -64t-118.5 -24.5q-48 0 -92 9.5t-78 25.5l33 157q16 1 32 0
q-11 -68 18 -110t87 -42q56 0 93.5 28t37.5 80q0 36 -19.5 60t-51 41.5t-66 33.5t-66 36.5t-51 49.5t-19.5 73q0 53 32.5 95t91.5 71.5t139 42.5z" />
    <glyph glyph-name="dieresis" unicode="&#xa8;" horiz-adv-x="314" 
d="M152 669l48 -41l-14 -64l-60 -18l-48 41l14 64zM353 669l48 -41l-14 -64l-60 -18l-48 41l14 64z" />
    <glyph glyph-name="copyright" unicode="&#xa9;" horiz-adv-x="855" 
d="M378 -15q-93 0 -159.5 35t-102.5 97.5t-36 145.5q0 96 35.5 178.5t98.5 143.5t144.5 95.5t174.5 34.5t159.5 -35t102 -97.5t35.5 -144.5q0 -96 -35.5 -178.5t-98.5 -144t-144.5 -96t-173.5 -34.5zM388 31q80 0 150.5 31.5t124.5 86.5t85 127t31 153q0 72 -30.5 126
t-87.5 84t-138 30q-80 0 -151 -31t-125 -86t-85 -127t-31 -153q0 -72 30.5 -126t88 -84.5t138.5 -30.5zM420 161q-67 0 -106 36.5t-39 101.5q0 70 31 124.5t86 86t125 31.5q37 0 61.5 -7t48.5 -21l-24 -112q-6 -1 -11 -1t-15 1q9 59 -12 83.5t-57 24.5q-37 0 -69.5 -28.5
t-52.5 -75t-20 -100.5q0 -47 22 -77t59 -30q29 0 56.5 13.5t63.5 47.5q8 -5 11.5 -10t7.5 -10q-44 -43 -82 -60.5t-84 -17.5z" />
    <glyph glyph-name="ordfeminine" unicode="&#xaa;" horiz-adv-x="434" 
d="M342 340q-29 0 -40.5 20t-4.5 51l10 47l25 52l5 87l61 43q5 1 9.5 1.5t11.5 -1.5q-8 -23 -17 -56.5t-15 -62.5l-23 -107q-3 -14 -2.5 -25t11.5 -11q8 0 19 9.5t26 31.5q7 -3 12.5 -7t6.5 -6q-16 -30 -41.5 -48t-53.5 -18zM189 340q-41 0 -64.5 27.5t-23.5 75.5
q0 51 21 98.5t61 78t97 30.5q41 0 70.5 -17.5t36.5 -49.5l-36 -26q0 -38 -12.5 -76t-34.5 -70t-51.5 -51.5t-63.5 -19.5zM219 382q23 0 43 17t34.5 43.5t22.5 56.5t8 56q0 30 -12 48t-34 18q-23 0 -42.5 -17t-34.5 -44t-23 -57.5t-8 -56.5q0 -31 12.5 -47.5t33.5 -16.5z" />
    <glyph glyph-name="guillemotleft" unicode="&#xab;" horiz-adv-x="553" 
d="M336 393q-28 -30 -54.5 -58t-57 -57.5t-71.5 -64.5q26 -35 44 -64.5t32.5 -57.5t30.5 -58q-15 -13 -32 -19q-40 56 -86.5 103t-108.5 96q83 49 149 96t130 103q16 -6 24 -19zM536 393q-28 -30 -54.5 -58t-57 -57.5t-71.5 -64.5q26 -35 44 -64.5t32.5 -57.5t30.5 -58
q-15 -13 -32 -19q-40 56 -86.5 103t-108.5 96q83 49 149 96t130 103q16 -6 24 -19z" />
    <glyph glyph-name="logicalnot" unicode="&#xac;" horiz-adv-x="620" 
d="M111 490h482l-48 -270q-25 -4 -50 0l39 220h-432q0 25 9 50z" />
    <glyph glyph-name="registered" unicode="&#xae;" horiz-adv-x="660" 
d="M336 254q-103 0 -162 57.5t-59 148.5q0 72 26.5 134t73.5 107.5t107.5 71t129.5 25.5q70 0 119.5 -26.5t76 -73t26.5 -107.5q0 -72 -26.5 -133.5t-73.5 -107t-108 -71t-130 -25.5zM346 300q57 0 107 22t88.5 61t60 90t21.5 109q0 77 -47.5 123.5t-133.5 46.5
q-57 0 -107 -22t-88 -61.5t-59.5 -90.5t-21.5 -110q0 -76 47.5 -122t132.5 -46zM521 406q0 -4 -1 -8t-2 -6q-6 -1 -15.5 -1.5t-18.5 -0.5q-27 0 -40 5.5t-15.5 16t-1.5 23.5l5 52q2 15 -8.5 24t-33.5 9h-24l-9 -44q-4 -17 -6.5 -33.5t-3.5 -36.5h30q-1 -3 -1 -6t-2 -9
q-16 1 -35 1h-35h-33t-36 -1q0 9 3 15h30q5 17 10 34.5t9 35.5l23 112q3 15 6.5 30t4.5 40h-30q1 3 1.5 7.5t1.5 7.5q16 -1 35 -1h34h69q44 0 74 -12.5t30 -43.5q0 -22 -11.5 -39.5t-32.5 -30t-52 -18.5q29 -1 48.5 -12t16.5 -42l-4 -39q-1 -16 4.5 -21.5t15.5 -7.5z
M392 536q29 0 49 22.5t20 56.5q0 22 -12.5 31.5t-34.5 9.5h-14q-6 -18 -10.5 -32.5t-9.5 -35.5l-11 -52h23z" />
    <glyph glyph-name="macron" unicode="&#xaf;" horiz-adv-x="284" 
d="M351 540h-280q0 13 4 30t8 30h280q0 -13 -3.5 -30t-8.5 -30z" />
    <glyph glyph-name="degree" unicode="&#xb0;" horiz-adv-x="432" 
d="M284 390q-48 0 -86.5 22t-61 59.5t-22.5 86.5q0 50 22.5 88t61 60t86.5 22q49 0 87.5 -22t61.5 -60t23 -88q0 -49 -23 -86.5t-61.5 -59.5t-87.5 -22zM284 440q50 0 83.5 32.5t33.5 85.5q0 54 -33.5 87t-83.5 33t-83 -33t-33 -87q0 -53 33 -85.5t83 -32.5z" />
    <glyph glyph-name="plusminus" unicode="&#xb1;" horiz-adv-x="620" 
d="M584 401h-480q0 13 2 25t6 25h480q0 -13 -1.5 -25t-6.5 -25zM286 216l74 420q26 4 50 0l-74 -420q-26 -4 -50 0zM531 100h-480q0 13 2 25t6 25h480q0 -13 -1.5 -25t-6.5 -25z" />
    <glyph glyph-name="uni00B2" unicode="&#xb2;" horiz-adv-x="362" 
d="M48 350q75 53 127 97t83 84t45 78.5t14 79.5q0 38 -10.5 52t-30.5 14q-23 0 -39 -18.5t-24.5 -47t-8.5 -59.5h-82q0 48 22 81t59.5 50.5t83.5 17.5q56 0 86 -24.5t30 -70.5q0 -33 -16.5 -66.5t-47.5 -67.5t-74.5 -68.5t-98.5 -70.5zM307 333q-33 0 -59 7t-51 14t-58 7
q-23 0 -39 -6.5t-33 -18.5q-7 2 -12.5 7.5l-6.5 6.5l125 81q36 -2 58 -12t36.5 -22t26.5 -20.5t27 -8.5q16 0 23 9.5t7 21.5q0 14 -8 25t-17 18q5 7 18 12q14 -10 24 -25t9 -36q-1 -26 -20.5 -43t-49.5 -17z" />
    <glyph glyph-name="uni00B3" unicode="&#xb3;" horiz-adv-x="357" 
d="M379 484q0 -40 -23.5 -72.5t-64.5 -51.5t-95 -19q-74 0 -101.5 33.5t-14.5 86.5h81q-19 -96 39 -96q29 0 50 19.5t32.5 50.5t11.5 63t-14 48t-51 16q-25 0 -57 -6q0 8 1.5 15t4.5 14h43q47 0 73.5 34t26.5 85q0 29 -9.5 40t-29.5 11q-21 0 -35 -10.5t-23 -29.5t-15 -46
h-78q7 33 28 57.5t54.5 38.5t75.5 14q56 0 85 -24t29 -65q0 -38 -26.5 -67t-79.5 -43q41 -7 61.5 -34.5t20.5 -61.5z" />
    <glyph glyph-name="acute" unicode="&#xb4;" horiz-adv-x="151" 
d="M265 690q-19 -34 -51 -61t-65.5 -52.5t-60.5 -56.5q-16 -3 -32 0q35 47 56.5 87t37.5 83h115z" />
    <glyph glyph-name="uni00B5" unicode="&#xb5;" horiz-adv-x="586" 
d="M-1 -215q7 29 13 55.5t11 51.5l79 368q7 30 11.5 61.5t8.5 81.5h-57q0 8 2.5 19t5.5 18q39 0 83 2.5t92 10.5q-11 -26 -22 -62t-19.5 -71t-14.5 -60l-29 -134l-50 -234q-5 -25 -9 -50.5t-6 -51.5q-26 0 -49.5 -1t-49.5 -4zM154 -15q-34 0 -51 14.5t-19 45t9 79.5l70 2
q-9 -43 -1 -64.5t35 -21.5q29 0 58 24t55.5 65.5t47.5 95.5t34 113h26q-22 -100 -51.5 -167.5t-64.5 -108.5t-72.5 -59t-75.5 -18zM403 -15q-43 0 -58.5 30t-5.5 77l53 246q5 26 9.5 51.5t5.5 50.5q26 0 49.5 1t49.5 4q-7 -29 -13 -55t-11 -52l-53 -246q-5 -23 -2.5 -37.5
t16.5 -14.5t31.5 15t40.5 51q9 -4 16 -8.5t14 -11.5q-24 -45 -62 -73t-80 -28z" />
    <glyph glyph-name="paragraph" unicode="&#xb6;" horiz-adv-x="723" 
d="M513 -165h72q0 -7 -2.5 -18t-5.5 -19q-34 2 -68 2h-69h-110h-70.5t-86.5 -2q0 8 2.5 19t5.5 18h92q15 48 26 89t21 86l62 290h-80q-62 0 -111 18t-77.5 54t-28.5 88q0 72 38 126t106 84t158 30h245q35 0 69 0.5t68 1.5q0 -7 -2.5 -18t-5.5 -19h-72q-16 -49 -26.5 -89.5
t-20.5 -85.5l-102 -480q-8 -37 -15 -81t-12 -94zM448 -163l176 826h-110l-176 -826h110z" />
    <glyph glyph-name="periodcentered" unicode="&#xb7;" horiz-adv-x="248" 
d="M140 299l48 -41l-14 -64l-60 -18l-48 41l14 64z" />
    <glyph glyph-name="cedilla" unicode="&#xb8;" horiz-adv-x="194" 
d="M-104 -162q17 -13 38 -19.5t40 -6.5q20 0 32.5 9.5t12.5 25.5q0 15 -22 28.5t-61 22.5l52 102h40l-20 -44q38 -14 61.5 -36.5t23.5 -52.5q0 -41 -34.5 -66.5t-84.5 -25.5q-28 0 -51 7t-45 23q3 9 7 17.5t11 15.5z" />
    <glyph glyph-name="uni00B9" unicode="&#xb9;" horiz-adv-x="248" 
d="M208 371h57q0 -4 -1.5 -10.5t-3.5 -11.5q-32 1 -57 1h-46h-45.5t-57.5 -1q0 12 5 22h57q8 23 14.5 46.5t13.5 58.5l36 169q4 16 7 36.5t3 21.5h-63q0 4 1.5 11t3.5 11q23 0 50 9t53 24t46 31q3 -1 7.5 -3.5t6.5 -5.5q-10 -28 -17.5 -58t-12.5 -52l-41 -194
q-5 -28 -9.5 -53.5t-6.5 -51.5z" />
    <glyph glyph-name="ordmasculine" unicode="&#xba;" horiz-adv-x="386" 
d="M282 624q-26 0 -46.5 -17.5t-34.5 -45.5t-21.5 -59t-7.5 -58q0 -37 10.5 -57.5t35.5 -20.5v-26q-55 0 -86.5 31.5t-31.5 83.5t24 96.5t65 71.5t93 27v-26zM218 366q26 0 46.5 17.5t34.5 45.5t21.5 59t7.5 58q0 37 -10.5 57.5t-35.5 20.5v26q56 0 87 -31t31 -84
q0 -51 -23.5 -95.5t-64.5 -72t-94 -27.5v26z" />
    <glyph glyph-name="guillemotright" unicode="&#xbb;" horiz-adv-x="553" 
d="M122 412q40 -56 86.5 -103t108.5 -96q-83 -49 -149 -96t-130 -103q-16 6 -24 19q28 30 54.5 58t57 57.5t71.5 64.5q-26 35 -44 64.5t-32.5 57.5t-30.5 58q15 13 32 19zM322 412q40 -56 86.5 -103t108.5 -96q-83 -49 -149 -96t-130 -103q-16 6 -24 19q28 30 54.5 58
t57 57.5t71.5 64.5q-26 35 -44 64.5t-32.5 57.5t-30.5 58q15 13 32 19z" />
    <glyph glyph-name="onequarter" unicode="&#xbc;" horiz-adv-x="818" 
d="M216 301h57q0 -4 -1.5 -10.5t-3.5 -11.5q-32 1 -57 1h-46h-45.5t-57.5 -1q0 12 5 22h57q8 23 14.5 46.5t13.5 58.5l36 169q4 16 7 36.5t3 21.5h-63q0 4 1.5 11t3.5 11q23 0 50 9t53 24t46 31q3 -1 7.5 -3.5t6.5 -5.5q-10 -28 -17.5 -58t-12.5 -52l-41 -194
q-5 -28 -9.5 -53.5t-6.5 -51.5zM632 700l-392 -700q-26 -3 -50 0l392 700q26 3 50 0zM725 21q0 -4 -1.5 -11t-3.5 -11q-32 1 -56 1h-45h-44.5t-57.5 -1q0 5 2 11.5t3 10.5h57q8 24 12.5 41t8.5 32t7 32l41 194l-154 -166h277q-2 -5 -6.5 -15t-10 -20t-10.5 -15h-316
q0 6 1 14t3 18q17 14 29 26t24 25l166 177q15 17 34 39t24 29q6 1 14.5 1.5t17.5 0t14 -1.5q-6 -21 -12.5 -43t-11.5 -42t-8 -35l-39 -186q-4 -22 -9 -49t-7 -56h57z" />
    <glyph glyph-name="onehalf" unicode="&#xbd;" horiz-adv-x="841" 
d="M216 301h57q0 -4 -1.5 -10.5t-3.5 -11.5q-32 1 -57 1h-46h-45.5t-57.5 -1q0 12 5 22h57q8 23 14.5 46.5t13.5 58.5l36 169q4 16 7 36.5t3 21.5h-63q0 4 1.5 11t3.5 11q23 0 50 9t53 24t46 31q3 -1 7.5 -3.5t6.5 -5.5q-10 -28 -17.5 -58t-12.5 -52l-41 -194
q-5 -28 -9.5 -53.5t-6.5 -51.5zM632 700l-392 -700q-26 -3 -50 0l392 700q26 3 50 0zM438 0q75 53 127 97t83 84t45 78.5t14 79.5q0 38 -10.5 52t-30.5 14q-23 0 -39 -18.5t-24.5 -47t-8.5 -59.5h-82q0 48 22 81t59.5 50.5t83.5 17.5q56 0 86 -24.5t30 -70.5
q0 -33 -16.5 -66.5t-47.5 -67.5t-74.5 -68.5t-98.5 -70.5zM697 -17q-33 0 -59 7t-51 14t-58 7q-23 0 -39 -6.5t-33 -18.5q-7 2 -12.5 7.5l-6.5 6.5l125 81q36 -2 58 -12t36.5 -22t26.5 -20.5t27 -8.5q16 0 23 9.5t7 21.5q0 14 -8 25t-17 18q5 7 18 12q14 -10 24 -25t9 -36
q-1 -26 -20.5 -43t-49.5 -17z" />
    <glyph glyph-name="threequarters" unicode="&#xbe;" horiz-adv-x="876" 
d="M378 414q0 -40 -23.5 -72.5t-64.5 -51.5t-95 -19q-74 0 -101.5 33.5t-14.5 86.5h81q-19 -96 39 -96q29 0 50 19.5t32.5 50.5t11.5 63t-14 48t-51 16q-25 0 -57 -6q0 8 1.5 15t4.5 14h43q47 0 73.5 34t26.5 85q0 29 -9.5 40t-29.5 11q-21 0 -35 -10.5t-23 -29.5t-15 -46
h-78q7 33 28 57.5t54.5 38.5t75.5 14q56 0 85 -24t29 -65q0 -38 -26.5 -67t-79.5 -43q41 -7 61.5 -34.5t20.5 -61.5zM690 700l-392 -700q-26 -3 -50 0l392 700q26 3 50 0zM783 21q0 -4 -1.5 -11t-3.5 -11q-32 1 -56 1h-45h-44.5t-57.5 -1q0 5 2 11.5t3 10.5h57q8 24 12.5 41
t8.5 32t7 32l41 194l-154 -166h277q-2 -5 -6.5 -15t-10 -20t-10.5 -15h-316q0 6 1 14t3 18q17 14 29 26t24 25l166 177q15 17 34 39t24 29q6 1 14.5 1.5t17.5 0t14 -1.5q-6 -21 -12.5 -43t-11.5 -42t-8 -35l-39 -186q-4 -22 -9 -49t-7 -56h57z" />
    <glyph glyph-name="questiondown" unicode="&#xbf;" horiz-adv-x="487" 
d="M176 -175q42 0 68.5 28t39 73.5t12.5 98.5h110q0 -77 -29.5 -130.5t-84 -81.5t-129.5 -28q-50 0 -92 14t-67.5 46.5t-25.5 87.5q0 46 18 79t47 60t62.5 51.5t65 52.5t55 64.5t30.5 86.5q9 -1 18 -2.5t18 -5.5q-8 -63 -25.5 -104.5t-39.5 -69.5t-44.5 -49t-42 -42
t-31 -49.5t-11.5 -71.5q0 -64 23.5 -86t54.5 -22zM275 391l-48 41l14 64l60 18l48 -41l-14 -64z" />
    <glyph glyph-name="Agrave" unicode="&#xc0;" horiz-adv-x="653" 
d="M-61 -2q0 8 2.5 19t5.5 18h52q33 45 60.5 86.5t55.5 88.5l186 309q15 25 36 59t43.5 71t41.5 71q11 2 21.5 2.5t20.5 0t19 -2.5l-103 -159l-211 -351q-23 -38 -45 -81t-37 -94h79q0 -7 -2.5 -18t-5.5 -19q-41 2 -73.5 2h-49.5h-39.5t-56.5 -2zM540 35h62q0 -7 -2.5 -18
t-5.5 -19q-34 2 -61.5 2h-59.5h-70.5t-70.5 -2q0 8 2.5 19t5.5 18h69q2 44 2.5 88t-3.5 87l-28 351l103 159q-1 -50 2 -99t9 -121l25 -290q3 -38 7.5 -80t13.5 -95zM435 235h-260l9 40h260zM319 925h125q4 -46 15 -81.5t30 -73.5q-16 -3 -32 0q-15 25 -41.5 47.5t-53.5 48.5
t-43 59z" />
    <glyph glyph-name="Aacute" unicode="&#xc1;" horiz-adv-x="653" 
d="M-61 -2q0 8 2.5 19t5.5 18h52q33 45 60.5 86.5t55.5 88.5l186 309q15 25 36 59t43.5 71t41.5 71q11 2 21.5 2.5t20.5 0t19 -2.5l-103 -159l-211 -351q-23 -38 -45 -81t-37 -94h79q0 -7 -2.5 -18t-5.5 -19q-41 2 -73.5 2h-49.5h-39.5t-56.5 -2zM540 35h62q0 -7 -2.5 -18
t-5.5 -19q-34 2 -61.5 2h-59.5h-70.5t-70.5 -2q0 8 2.5 19t5.5 18h69q2 44 2.5 88t-3.5 87l-28 351l103 159q-1 -50 2 -99t9 -121l25 -290q3 -38 7.5 -80t13.5 -95zM435 235h-260l9 40h260zM656 925q-24 -38 -61.5 -63.5t-75.5 -46t-67 -45.5q-16 -3 -32 0q35 38 61.5 73.5
t49.5 81.5h125z" />
    <glyph glyph-name="Acircumflex" unicode="&#xc2;" horiz-adv-x="653" 
d="M-61 -2q0 8 2.5 19t5.5 18h52q33 45 60.5 86.5t55.5 88.5l186 309q15 25 36 59t43.5 71t41.5 71q11 2 21.5 2.5t20.5 0t19 -2.5l-103 -159l-211 -351q-23 -38 -45 -81t-37 -94h79q0 -7 -2.5 -18t-5.5 -19q-41 2 -73.5 2h-49.5h-39.5t-56.5 -2zM540 35h62q0 -7 -2.5 -18
t-5.5 -19q-34 2 -61.5 2h-59.5h-70.5t-70.5 -2q0 8 2.5 19t5.5 18h69q2 44 2.5 88t-3.5 87l-28 351l103 159q-1 -50 2 -99t9 -121l25 -290q3 -38 7.5 -80t13.5 -95zM435 235h-260l9 40h260zM301 762q-5 5 -8.5 10t-5.5 13q37 23 62 39.5t43.5 30.5t36.5 30.5t40 39.5
q16 3 32 0q17 -31 30.5 -51.5t33.5 -41t55 -51.5q-6 -13 -15 -19q-33 12 -55.5 22t-40.5 21t-38 25q-27 -14 -51 -25t-52 -21t-67 -22z" />
    <glyph glyph-name="Atilde" unicode="&#xc3;" horiz-adv-x="653" 
d="M-61 -2q0 8 2.5 19t5.5 18h52q33 45 60.5 86.5t55.5 88.5l186 309q15 25 36 59t43.5 71t41.5 71q11 2 21.5 2.5t20.5 0t19 -2.5l-103 -159l-211 -351q-23 -38 -45 -81t-37 -94h79q0 -7 -2.5 -18t-5.5 -19q-41 2 -73.5 2h-49.5h-39.5t-56.5 -2zM540 35h62q0 -7 -2.5 -18
t-5.5 -19q-34 2 -61.5 2h-59.5h-70.5t-70.5 -2q0 8 2.5 19t5.5 18h69q2 44 2.5 88t-3.5 87l-28 351l103 159q-1 -50 2 -99t9 -121l25 -290q3 -38 7.5 -80t13.5 -95zM435 235h-260l9 40h260zM613 885q10 -2 16.5 -7t8.5 -8q-24 -61 -58 -80.5t-63 -19.5q-24 0 -40.5 8.5
t-29 19t-25 19t-30.5 8.5q-16 0 -32 -9t-34 -42q-7 2 -13.5 5t-11.5 10q23 59 56 80t64 21q23 0 39.5 -8.5t29.5 -19t26.5 -19t31.5 -8.5q16 0 31.5 9t33.5 41z" />
    <glyph glyph-name="Adieresis" unicode="&#xc4;" horiz-adv-x="653" 
d="M-61 -2q0 8 2.5 19t5.5 18h52q33 45 60.5 86.5t55.5 88.5l186 309q15 25 36 59t43.5 71t41.5 71q11 2 21.5 2.5t20.5 0t19 -2.5l-103 -159l-211 -351q-23 -38 -45 -81t-37 -94h79q0 -7 -2.5 -18t-5.5 -19q-41 2 -73.5 2h-49.5h-39.5t-56.5 -2zM540 35h62q0 -7 -2.5 -18
t-5.5 -19q-34 2 -61.5 2h-59.5h-70.5t-70.5 -2q0 8 2.5 19t5.5 18h69q2 44 2.5 88t-3.5 87l-28 351l103 159q-1 -50 2 -99t9 -121l25 -290q3 -38 7.5 -80t13.5 -95zM435 235h-260l9 40h260zM377 909l48 -41l-14 -64l-60 -18l-48 41l14 64zM596 909l48 -41l-14 -64l-60 -18
l-48 41l14 64z" />
    <glyph glyph-name="Aring" unicode="&#xc5;" horiz-adv-x="653" 
d="M-61 -2q0 8 2.5 19t5.5 18h52q33 45 60.5 86.5t55.5 88.5l186 309q15 25 36 59t43.5 71t41.5 71q11 2 21.5 2.5t20.5 0t19 -2.5l-103 -159l-211 -351q-23 -38 -45 -81t-37 -94h79q0 -7 -2.5 -18t-5.5 -19q-41 2 -73.5 2h-49.5h-39.5t-56.5 -2zM540 35h62q0 -7 -2.5 -18
t-5.5 -19q-34 2 -61.5 2h-59.5h-70.5t-70.5 -2q0 8 2.5 19t5.5 18h69q2 44 2.5 88t-3.5 87l-28 351l103 159q-1 -50 2 -99t9 -121l25 -290q3 -38 7.5 -80t13.5 -95zM435 235h-260l9 40h260zM484 877q41 0 68 -22t27 -56q0 -28 -17 -51t-46 -37t-66 -14q-41 0 -68 22t-27 56
q0 28 17 51t46.5 37t65.5 14zM457 732q22 0 39.5 20.5t17.5 46.5q0 19 -10 31t-27 12q-22 0 -39.5 -20.5t-17.5 -46.5q0 -19 10.5 -31t26.5 -12z" />
    <glyph glyph-name="AE" unicode="&#xc6;" horiz-adv-x="937" 
d="M852 185q16 3 32 0l-39 -185h-385h-68.5t-69.5 -2q0 8 2.5 19t5.5 18h72q15 45 26 87.5t21 87.5l60 280q6 29 10.5 53.5t8.5 51.5q-9 -10 -18 -21t-19 -24l-272 -340q-37 -46 -65.5 -88t-52.5 -87h76q-1 -9 -2.5 -18.5t-5.5 -18.5q-40 2 -72.5 2h-49.5h-39.5t-57.5 -2
q1 9 2.5 18.5t5.5 18.5h45q44 45 79.5 87t72.5 88l247 309q23 29 50.5 67.5t55.5 78.5h-84q0 8 2.5 19t5.5 18q23 -1 55.5 -1.5t65 -0.5h55.5h350l-39 -185q-16 -3 -32 0q12 75 -9.5 110t-99.5 35h-113q-15 -45 -25.5 -85t-20.5 -85l-60 -280q-10 -45 -15.5 -85t-10.5 -85
h148q52 0 85.5 17.5t53.5 50t32 77.5zM508 235h-280l18 40h270zM810 460q17 3 32 0l-42 -200q-17 -3 -32 0q8 47 -1.5 63.5t-44.5 16.5h-190l8 40h190q35 0 52 17t28 63z" />
    <glyph glyph-name="Ccedilla" unicode="&#xc7;" horiz-adv-x="702" 
d="M377 -15q-142 0 -222.5 72.5t-80.5 220.5q0 85 28 163t83 140t137 98t189 36q75 0 132 -15.5t90 -29.5l-37 -175q-16 -3 -32 0q2 95 -43.5 136.5t-121.5 41.5q-90 0 -157.5 -51.5t-105 -141.5t-37.5 -207q0 -70 16.5 -126t55.5 -88t106 -32q74 0 132 44t104 139
q16 3 32 0l-38 -173q-40 -22 -100 -37t-130 -15zM248 -162q17 -13 38 -19.5t40 -6.5q20 0 32.5 9.5t12.5 25.5q0 15 -22 28.5t-61 22.5l52 102h40l-20 -44q38 -14 61.5 -36.5t23.5 -52.5q0 -41 -34.5 -66.5t-84.5 -25.5q-28 0 -51 7t-45 23q3 9 7 17.5t11 15.5z" />
    <glyph glyph-name="Egrave" unicode="&#xc8;" horiz-adv-x="611" 
d="M-4 -2q0 8 2.5 19t5.5 18h72q15 45 27 91t20 84l60 280q8 38 15 80.5t12 94.5h-72q0 8 2.5 19t5.5 18q34 -1 68 -1.5t68 -0.5h350l-39 -185q-16 -3 -32 0q10 58 0.5 89t-37 43.5t-72.5 12.5h-113q-15 -46 -25 -83t-21 -87l-60 -280q-8 -39 -14.5 -80t-11.5 -90h148
q52 0 85.5 17.5t53.5 50t32 77.5q16 3 32 0l-40 -185h-385h-68t-69 -2zM442 260q8 47 -1.5 63.5t-44.5 16.5h-190l8 40h190q35 0 52 17t28 63q16 3 32 0l-42 -200q-16 -3 -32 0zM297 925h125q4 -46 15 -81.5t30 -73.5q-16 -3 -32 0q-15 25 -41.5 47.5t-53.5 48.5t-43 59z
" />
    <glyph glyph-name="Eacute" unicode="&#xc9;" horiz-adv-x="611" 
d="M-4 -2q0 8 2.5 19t5.5 18h72q15 45 27 91t20 84l60 280q8 38 15 80.5t12 94.5h-72q0 8 2.5 19t5.5 18q34 -1 68 -1.5t68 -0.5h350l-39 -185q-16 -3 -32 0q10 58 0.5 89t-37 43.5t-72.5 12.5h-113q-15 -46 -25 -83t-21 -87l-60 -280q-8 -39 -14.5 -80t-11.5 -90h148
q52 0 85.5 17.5t53.5 50t32 77.5q16 3 32 0l-40 -185h-385h-68t-69 -2zM442 260q8 47 -1.5 63.5t-44.5 16.5h-190l8 40h190q35 0 52 17t28 63q16 3 32 0l-42 -200q-16 -3 -32 0zM634 925q-24 -38 -61.5 -63.5t-75.5 -46t-67 -45.5q-16 -3 -32 0q35 38 61.5 73.5t49.5 81.5
h125z" />
    <glyph glyph-name="Ecircumflex" unicode="&#xca;" horiz-adv-x="611" 
d="M-4 -2q0 8 2.5 19t5.5 18h72q15 45 27 91t20 84l60 280q8 38 15 80.5t12 94.5h-72q0 8 2.5 19t5.5 18q34 -1 68 -1.5t68 -0.5h350l-39 -185q-16 -3 -32 0q10 58 0.5 89t-37 43.5t-72.5 12.5h-113q-15 -46 -25 -83t-21 -87l-60 -280q-8 -39 -14.5 -80t-11.5 -90h148
q52 0 85.5 17.5t53.5 50t32 77.5q16 3 32 0l-40 -185h-385h-68t-69 -2zM442 260q8 47 -1.5 63.5t-44.5 16.5h-190l8 40h190q35 0 52 17t28 63q16 3 32 0l-42 -200q-16 -3 -32 0zM279 762q-5 5 -8.5 10t-5.5 13q37 23 62 39.5t43.5 30.5t36.5 30.5t40 39.5q16 3 32 0
q17 -31 30.5 -51.5t33.5 -41t55 -51.5q-6 -13 -15 -19q-33 12 -55.5 22t-40.5 21t-38 25q-27 -14 -51 -25t-52 -21t-67 -22z" />
    <glyph glyph-name="Edieresis" unicode="&#xcb;" horiz-adv-x="611" 
d="M-4 -2q0 8 2.5 19t5.5 18h72q15 45 27 91t20 84l60 280q8 38 15 80.5t12 94.5h-72q0 8 2.5 19t5.5 18q34 -1 68 -1.5t68 -0.5h350l-39 -185q-16 -3 -32 0q10 58 0.5 89t-37 43.5t-72.5 12.5h-113q-15 -46 -25 -83t-21 -87l-60 -280q-8 -39 -14.5 -80t-11.5 -90h148
q52 0 85.5 17.5t53.5 50t32 77.5q16 3 32 0l-40 -185h-385h-68t-69 -2zM442 260q8 47 -1.5 63.5t-44.5 16.5h-190l8 40h190q35 0 52 17t28 63q16 3 32 0l-42 -200q-16 -3 -32 0zM355 909l48 -41l-14 -64l-60 -18l-48 41l14 64zM574 909l48 -41l-14 -64l-60 -18l-48 41l14 64
z" />
    <glyph glyph-name="Igrave" unicode="&#xcc;" horiz-adv-x="362" 
d="M-4 -2q0 8 2.5 19t5.5 18h72q15 45 27 91t20 84l60 280q8 38 15 80.5t12 94.5h-72q0 8 2.5 19t5.5 18q34 -1 68 -1.5t68 -0.5q35 0 69 0.5t69 1.5q0 -7 -2.5 -18t-5.5 -19h-72q-15 -46 -25.5 -85.5t-21.5 -89.5l-60 -280q-7 -37 -14.5 -80.5t-12.5 -94.5h72
q0 -7 -2.5 -18t-5.5 -19q-34 2 -68 2h-69h-68t-69 -2zM159 925h125q4 -46 15 -81.5t30 -73.5q-16 -3 -32 0q-15 25 -41.5 47.5t-53.5 48.5t-43 59z" />
    <glyph glyph-name="Iacute" unicode="&#xcd;" horiz-adv-x="362" 
d="M-4 -2q0 8 2.5 19t5.5 18h72q15 45 27 91t20 84l60 280q8 38 15 80.5t12 94.5h-72q0 8 2.5 19t5.5 18q34 -1 68 -1.5t68 -0.5q35 0 69 0.5t69 1.5q0 -7 -2.5 -18t-5.5 -19h-72q-15 -46 -25.5 -85.5t-21.5 -89.5l-60 -280q-7 -37 -14.5 -80.5t-12.5 -94.5h72
q0 -7 -2.5 -18t-5.5 -19q-34 2 -68 2h-69h-68t-69 -2zM496 925q-24 -38 -61.5 -63.5t-75.5 -46t-67 -45.5q-16 -3 -32 0q35 38 61.5 73.5t49.5 81.5h125z" />
    <glyph glyph-name="Icircumflex" unicode="&#xce;" horiz-adv-x="362" 
d="M-4 -2q0 8 2.5 19t5.5 18h72q15 45 27 91t20 84l60 280q8 38 15 80.5t12 94.5h-72q0 8 2.5 19t5.5 18q34 -1 68 -1.5t68 -0.5q35 0 69 0.5t69 1.5q0 -7 -2.5 -18t-5.5 -19h-72q-15 -46 -25.5 -85.5t-21.5 -89.5l-60 -280q-7 -37 -14.5 -80.5t-12.5 -94.5h72
q0 -7 -2.5 -18t-5.5 -19q-34 2 -68 2h-69h-68t-69 -2zM141 762q-5 5 -8.5 10t-5.5 13q37 23 62 39.5t43.5 30.5t36.5 30.5t40 39.5q16 3 32 0q17 -31 30.5 -51.5t33.5 -41t55 -51.5q-6 -13 -15 -19q-33 12 -55.5 22t-40.5 21t-38 25q-27 -14 -51 -25t-52 -21t-67 -22z" />
    <glyph glyph-name="Idieresis" unicode="&#xcf;" horiz-adv-x="362" 
d="M-4 -2q0 8 2.5 19t5.5 18h72q15 45 27 91t20 84l60 280q8 38 15 80.5t12 94.5h-72q0 8 2.5 19t5.5 18q34 -1 68 -1.5t68 -0.5q35 0 69 0.5t69 1.5q0 -7 -2.5 -18t-5.5 -19h-72q-15 -46 -25.5 -85.5t-21.5 -89.5l-60 -280q-7 -37 -14.5 -80.5t-12.5 -94.5h72
q0 -7 -2.5 -18t-5.5 -19q-34 2 -68 2h-69h-68t-69 -2zM217 909l48 -41l-14 -64l-60 -18l-48 41l14 64zM436 909l48 -41l-14 -64l-60 -18l-48 41l14 64z" />
    <glyph glyph-name="Eth" unicode="&#xd0;" horiz-adv-x="798" 
d="M458 340h-410q0 13 3 25t7 25h410q0 -13 -2.5 -25t-7.5 -25zM293 700h195q137 0 215.5 -65t78.5 -200q0 -93 -35 -172.5t-98 -138t-147.5 -91.5t-182.5 -33h-175h-68t-69 -2q0 8 2.5 19t5.5 18h72q15 45 27 91t20 84l60 280q8 38 15 80.5t12 94.5h-72q0 8 2.5 19t5.5 18
q34 -1 68 -1.5t68 -0.5zM218 40h100q77 0 139 30t107 83t69 122.5t24 148.5q0 118 -43 177t-144 59h-120q-15 -46 -25 -83t-21 -87l-60 -280q-8 -39 -14.5 -80t-11.5 -90z" />
    <glyph glyph-name="Ntilde" unicode="&#xd1;" horiz-adv-x="784" 
d="M566 0q-8 40 -19.5 71.5t-31.5 70.5l-247 493l-17 65q33 0 61.5 0.5t55.5 1.5q6 -25 15.5 -50t27.5 -61l203 -408l5 -183q-15 -2 -27 -2t-26 2zM-3 -2q0 8 2.5 19t5.5 18h67q18 47 30 88.5t22 86.5l60 280q8 37 13.5 80t8.5 95h-67q0 8 2.5 19t5.5 18q34 -1 60 -1.5
t44 -0.5l17 -65q-9 -31 -19 -69t-18 -76l-60 -280q-7 -37 -13.5 -78t-8.5 -97h77q0 -7 -2.5 -18t-5.5 -19q-34 2 -65 2h-51h-44t-61 -2zM619 0l-5 183l63 307q9 44 14 83.5t8 91.5h-77q0 8 2.5 19t5.5 18q34 -1 65.5 -1.5t50.5 -0.5q17 0 43.5 0.5t61.5 1.5q0 -7 -2.5 -18
t-5.5 -19h-67q-13 -35 -22 -62t-16 -53t-14 -60zM658 885q10 -2 16.5 -7t8.5 -8q-24 -61 -58 -80.5t-63 -19.5q-24 0 -40.5 8.5t-29 19t-25 19t-30.5 8.5q-16 0 -32 -9t-34 -42q-7 2 -13.5 5t-11.5 10q23 59 56 80t64 21q23 0 39.5 -8.5t29.5 -19t26.5 -19t31.5 -8.5
q16 0 31.5 9t33.5 41z" />
    <glyph glyph-name="Ograve" unicode="&#xd2;" horiz-adv-x="802" 
d="M484 715q87 0 154 -32t105 -98t38 -167q0 -84 -27.5 -161.5t-80 -138.5t-128.5 -97t-173 -36q-87 0 -154 32t-105 98t-38 167q0 84 27.5 161.5t80 138.5t128.5 97t173 36zM373 27q82 0 145.5 51.5t100.5 142t37 206.5q0 71 -16.5 126.5t-54.5 87.5t-102 32
q-81 0 -145 -51.5t-101 -141.5t-37 -207q0 -70 16.5 -126t54.5 -88t102 -32zM367 925h125q4 -46 15 -81.5t30 -73.5q-16 -3 -32 0q-15 25 -41.5 47.5t-53.5 48.5t-43 59z" />
    <glyph glyph-name="Oacute" unicode="&#xd3;" horiz-adv-x="802" 
d="M484 715q87 0 154 -32t105 -98t38 -167q0 -84 -27.5 -161.5t-80 -138.5t-128.5 -97t-173 -36q-87 0 -154 32t-105 98t-38 167q0 84 27.5 161.5t80 138.5t128.5 97t173 36zM373 27q82 0 145.5 51.5t100.5 142t37 206.5q0 71 -16.5 126.5t-54.5 87.5t-102 32
q-81 0 -145 -51.5t-101 -141.5t-37 -207q0 -70 16.5 -126t54.5 -88t102 -32zM704 925q-24 -38 -61.5 -63.5t-75.5 -46t-67 -45.5q-16 -3 -32 0q35 38 61.5 73.5t49.5 81.5h125z" />
    <glyph glyph-name="Ocircumflex" unicode="&#xd4;" horiz-adv-x="802" 
d="M484 715q87 0 154 -32t105 -98t38 -167q0 -84 -27.5 -161.5t-80 -138.5t-128.5 -97t-173 -36q-87 0 -154 32t-105 98t-38 167q0 84 27.5 161.5t80 138.5t128.5 97t173 36zM373 27q82 0 145.5 51.5t100.5 142t37 206.5q0 71 -16.5 126.5t-54.5 87.5t-102 32
q-81 0 -145 -51.5t-101 -141.5t-37 -207q0 -70 16.5 -126t54.5 -88t102 -32zM349 762q-5 5 -8.5 10t-5.5 13q37 23 62 39.5t43.5 30.5t36.5 30.5t40 39.5q16 3 32 0q17 -31 30.5 -51.5t33.5 -41t55 -51.5q-6 -13 -15 -19q-33 12 -55.5 22t-40.5 21t-38 25q-27 -14 -51 -25
t-52 -21t-67 -22z" />
    <glyph glyph-name="Otilde" unicode="&#xd5;" horiz-adv-x="802" 
d="M484 715q87 0 154 -32t105 -98t38 -167q0 -84 -27.5 -161.5t-80 -138.5t-128.5 -97t-173 -36q-87 0 -154 32t-105 98t-38 167q0 84 27.5 161.5t80 138.5t128.5 97t173 36zM373 27q82 0 145.5 51.5t100.5 142t37 206.5q0 71 -16.5 126.5t-54.5 87.5t-102 32
q-81 0 -145 -51.5t-101 -141.5t-37 -207q0 -70 16.5 -126t54.5 -88t102 -32zM661 885q10 -2 16.5 -7t8.5 -8q-24 -61 -58 -80.5t-63 -19.5q-24 0 -40.5 8.5t-29 19t-25 19t-30.5 8.5q-16 0 -32 -9t-34 -42q-7 2 -13.5 5t-11.5 10q23 59 56 80t64 21q23 0 39.5 -8.5t29.5 -19
t26.5 -19t31.5 -8.5q16 0 31.5 9t33.5 41z" />
    <glyph glyph-name="Odieresis" unicode="&#xd6;" horiz-adv-x="802" 
d="M484 715q87 0 154 -32t105 -98t38 -167q0 -84 -27.5 -161.5t-80 -138.5t-128.5 -97t-173 -36q-87 0 -154 32t-105 98t-38 167q0 84 27.5 161.5t80 138.5t128.5 97t173 36zM373 27q82 0 145.5 51.5t100.5 142t37 206.5q0 71 -16.5 126.5t-54.5 87.5t-102 32
q-81 0 -145 -51.5t-101 -141.5t-37 -207q0 -70 16.5 -126t54.5 -88t102 -32zM425 909l48 -41l-14 -64l-60 -18l-48 41l14 64zM644 909l48 -41l-14 -64l-60 -18l-48 41l14 64z" />
    <glyph glyph-name="multiply" unicode="&#xd7;" horiz-adv-x="620" 
d="M629 581l-549 -467q-9 8 -16.5 16.5t-12.5 18.5l549 467q9 -7 16.5 -15.5t12.5 -19.5zM168 616l385 -467q-10 -10 -19.5 -18.5t-21.5 -16.5l-385 467q10 11 19.5 19.5t21.5 15.5z" />
    <glyph glyph-name="Oslash" unicode="&#xd8;" horiz-adv-x="810" 
d="M769 730q31 5 61 0q-20 -66 -66.5 -123.5t-109 -109.5t-133.5 -101.5t-141.5 -98.5t-132 -100.5t-106 -107.5t-62.5 -119q-30 -5 -61 0q20 66 66.5 123.5t109 110t133.5 102t141.5 98.5t132 100t106 107t62.5 119zM491 715q87 0 154 -32t105 -98t38 -167
q0 -84 -27.5 -161.5t-80 -138.5t-128.5 -97t-173 -36q-87 0 -154 32t-105 98t-38 167q0 84 27.5 161.5t80 138.5t128.5 97t173 36zM380 27q82 0 145.5 51.5t100.5 142t37 206.5q0 71 -16.5 126.5t-54.5 87.5t-102 32q-81 0 -145 -51.5t-101 -141.5t-37 -207q0 -70 16.5 -126
t54.5 -88t102 -32z" />
    <glyph glyph-name="Ugrave" unicode="&#xd9;" horiz-adv-x="738" 
d="M341 -15q-144 0 -198.5 54t-30.5 166l61 285q8 37 14.5 75.5t12.5 99.5h-72q0 8 2.5 19t5.5 18q34 -1 68 -1.5t68 -0.5q35 0 69 0.5t69 1.5q0 -7 -2.5 -18t-5.5 -19h-72q-15 -46 -25.5 -85.5t-21.5 -89.5l-56 -260q-23 -109 13.5 -153.5t119.5 -44.5q89 0 144 50.5
t74 136.5l58 271q6 30 10 56.5t7 55t5 63.5h-77q0 8 2.5 19t5.5 18q34 -1 65.5 -1.5t50.5 -0.5q17 0 43.5 0.5t61.5 1.5q0 -7 -2.5 -18t-5.5 -19h-67q-13 -35 -22 -62t-16 -53t-14 -60l-61 -285q-22 -103 -96 -161.5t-185 -58.5zM374 925h125q4 -46 15 -81.5t30 -73.5
q-16 -3 -32 0q-15 25 -41.5 47.5t-53.5 48.5t-43 59z" />
    <glyph glyph-name="Uacute" unicode="&#xda;" horiz-adv-x="738" 
d="M341 -15q-144 0 -198.5 54t-30.5 166l61 285q8 37 14.5 75.5t12.5 99.5h-72q0 8 2.5 19t5.5 18q34 -1 68 -1.5t68 -0.5q35 0 69 0.5t69 1.5q0 -7 -2.5 -18t-5.5 -19h-72q-15 -46 -25.5 -85.5t-21.5 -89.5l-56 -260q-23 -109 13.5 -153.5t119.5 -44.5q89 0 144 50.5
t74 136.5l58 271q6 30 10 56.5t7 55t5 63.5h-77q0 8 2.5 19t5.5 18q34 -1 65.5 -1.5t50.5 -0.5q17 0 43.5 0.5t61.5 1.5q0 -7 -2.5 -18t-5.5 -19h-67q-13 -35 -22 -62t-16 -53t-14 -60l-61 -285q-22 -103 -96 -161.5t-185 -58.5zM711 925q-24 -38 -61.5 -63.5t-75.5 -46
t-67 -45.5q-16 -3 -32 0q35 38 61.5 73.5t49.5 81.5h125z" />
    <glyph glyph-name="Ucircumflex" unicode="&#xdb;" horiz-adv-x="738" 
d="M341 -15q-144 0 -198.5 54t-30.5 166l61 285q8 37 14.5 75.5t12.5 99.5h-72q0 8 2.5 19t5.5 18q34 -1 68 -1.5t68 -0.5q35 0 69 0.5t69 1.5q0 -7 -2.5 -18t-5.5 -19h-72q-15 -46 -25.5 -85.5t-21.5 -89.5l-56 -260q-23 -109 13.5 -153.5t119.5 -44.5q89 0 144 50.5
t74 136.5l58 271q6 30 10 56.5t7 55t5 63.5h-77q0 8 2.5 19t5.5 18q34 -1 65.5 -1.5t50.5 -0.5q17 0 43.5 0.5t61.5 1.5q0 -7 -2.5 -18t-5.5 -19h-67q-13 -35 -22 -62t-16 -53t-14 -60l-61 -285q-22 -103 -96 -161.5t-185 -58.5zM356 762q-5 5 -8.5 10t-5.5 13
q37 23 62 39.5t43.5 30.5t36.5 30.5t40 39.5q16 3 32 0q17 -31 30.5 -51.5t33.5 -41t55 -51.5q-6 -13 -15 -19q-33 12 -55.5 22t-40.5 21t-38 25q-27 -14 -51 -25t-52 -21t-67 -22z" />
    <glyph glyph-name="Udieresis" unicode="&#xdc;" horiz-adv-x="738" 
d="M341 -15q-144 0 -198.5 54t-30.5 166l61 285q8 37 14.5 75.5t12.5 99.5h-72q0 8 2.5 19t5.5 18q34 -1 68 -1.5t68 -0.5q35 0 69 0.5t69 1.5q0 -7 -2.5 -18t-5.5 -19h-72q-15 -46 -25.5 -85.5t-21.5 -89.5l-56 -260q-23 -109 13.5 -153.5t119.5 -44.5q89 0 144 50.5
t74 136.5l58 271q6 30 10 56.5t7 55t5 63.5h-77q0 8 2.5 19t5.5 18q34 -1 65.5 -1.5t50.5 -0.5q17 0 43.5 0.5t61.5 1.5q0 -7 -2.5 -18t-5.5 -19h-67q-13 -35 -22 -62t-16 -53t-14 -60l-61 -285q-22 -103 -96 -161.5t-185 -58.5zM432 909l48 -41l-14 -64l-60 -18l-48 41
l14 64zM651 909l48 -41l-14 -64l-60 -18l-48 41l14 64z" />
    <glyph glyph-name="Yacute" unicode="&#xdd;" horiz-adv-x="639" 
d="M136 -2q0 8 2.5 19t5.5 18h72q14 42 25 83.5t18 71.5l3 13q16 68 11.5 137.5t-22.5 132.5t-43.5 113.5t-52.5 78.5h146q1 -18 12.5 -44.5t25.5 -64t25 -88.5t11 -118q19 43 45.5 88.5t56.5 88t60 76.5q20 23 30 38t14 24h82q-62 -54 -111.5 -116.5t-86.5 -126t-60 -120.5
t-33 -99l-3 -13q-7 -32 -12.5 -71t-10.5 -84h72q0 -7 -2.5 -18t-5.5 -19q-34 2 -68.5 2h-67.5h-68.5t-69.5 -2zM91 665q0 8 2.5 19t5.5 18q34 -1 65.5 -1.5t50.5 -0.5q20 0 62.5 0.5t85.5 1.5q0 -7 -2.5 -18t-5.5 -19h-264zM500 665q0 8 2.5 19t5.5 18q41 -1 71.5 -1.5
t49.5 -0.5q20 0 42 0.5t57 1.5q0 -7 -2.5 -18t-5.5 -19h-220zM647 925q-24 -38 -61.5 -63.5t-75.5 -46t-67 -45.5q-16 -3 -32 0q35 38 61.5 73.5t49.5 81.5h125z" />
    <glyph glyph-name="Thorn" unicode="&#xde;" horiz-adv-x="654" 
d="M424 560q64 0 113.5 -18t78 -54.5t28.5 -93.5q0 -67 -40.5 -120t-109.5 -83.5t-155 -30.5h-155l9 40h165q48 0 86.5 26t61.5 70.5t23 98.5q0 59 -30 92t-93 33h-120l8 40h130zM-4 -2q0 8 2.5 19t5.5 18h72q15 45 27 91t20 84l60 280q8 38 15 80.5t12 94.5h-72q0 8 2.5 19
t5.5 18q34 -1 68 -1.5t68 -0.5q35 0 69 0.5t69 1.5q0 -7 -2.5 -18t-5.5 -19h-72q-15 -46 -25.5 -85.5t-21.5 -89.5l-60 -280q-7 -37 -14.5 -80.5t-12.5 -94.5h72q0 -7 -2.5 -18t-5.5 -19q-34 2 -68 2h-69h-68t-69 -2z" />
    <glyph glyph-name="germandbls" unicode="&#xdf;" horiz-adv-x="541" 
d="M182 400h-130q1 8 3 19.5t6 20.5h130q-1 -8 -3 -19.5t-6 -20.5zM486 491q-34 0 -57.5 -13.5t-35.5 -37t-12 -53.5q0 -28 11 -49.5t27 -40t32 -39t27 -47t11 -62.5q0 -46 -20.5 -83t-60 -59t-98.5 -22q-19 0 -46 3.5t-70 16.5l26 118q15 3 32 0q-4 -44 16.5 -71t57.5 -27
q38 0 58.5 26t20.5 67q0 38 -15 65t-35 51.5t-35 53.5t-15 70q0 35 11.5 58.5t28.5 42t34 37.5t28.5 45t11.5 65q0 15 -3.5 33.5t-14 32t-32.5 13.5q-34 0 -61 -27t-47.5 -81t-36.5 -137l-64 -336q-8 -44 -19 -86.5t-28.5 -81t-45 -70.5t-67.5 -55.5t-97 -35.5
q-3 6 -5.5 16.5t-2.5 21.5q70 20 109 81.5t58 165.5l72 380q16 80 49 143t83 100t117 37q53 0 80.5 -27.5t32.5 -79t-10 -122.5z" />
    <glyph glyph-name="agrave" unicode="&#xe0;" horiz-adv-x="550" 
d="M388 -15q-43 0 -59 30t-6 77l17 80l35 69l10 134l82 65q16 3 32 0q-14 -40 -27.5 -91t-21.5 -89l-36 -168q-4 -22 -2.5 -37t16.5 -15q14 0 31.5 15t40.5 51q9 -4 16 -8.5t14 -11.5q-24 -45 -62 -73t-80 -28zM156 -15q-58 0 -89.5 40t-31.5 114q0 56 19 112t54 102t85 74
t113 28q64 0 105 -30t48 -80l-53 -32q0 -56 -19.5 -114t-54 -106.5t-79.5 -78t-97 -29.5zM200 45q36 0 66.5 26t53.5 67.5t36 88.5t13 89q0 45 -14.5 72t-48.5 27t-65.5 -26.5t-56 -68.5t-39 -89.5t-14.5 -88.5q0 -49 18.5 -73t50.5 -24zM200 689h115q-2 -43 3.5 -83.5
t23.5 -86.5q-16 -3 -32 0q-12 31 -32.5 56.5t-42 52.5t-35.5 61z" />
    <glyph glyph-name="aacute" unicode="&#xe1;" horiz-adv-x="550" 
d="M388 -15q-43 0 -59 30t-6 77l17 80l35 69l10 134l82 65q16 3 32 0q-14 -40 -27.5 -91t-21.5 -89l-36 -168q-4 -22 -2.5 -37t16.5 -15q14 0 31.5 15t40.5 51q9 -4 16 -8.5t14 -11.5q-24 -45 -62 -73t-80 -28zM156 -15q-58 0 -89.5 40t-31.5 114q0 56 19 112t54 102t85 74
t113 28q64 0 105 -30t48 -80l-53 -32q0 -56 -19.5 -114t-54 -106.5t-79.5 -78t-97 -29.5zM200 45q36 0 66.5 26t53.5 67.5t36 88.5t13 89q0 45 -14.5 72t-48.5 27t-65.5 -26.5t-56 -68.5t-39 -89.5t-14.5 -88.5q0 -49 18.5 -73t50.5 -24zM501 690q-19 -34 -51 -61
t-65.5 -52.5t-60.5 -56.5q-16 -3 -32 0q35 47 56.5 87t37.5 83h115z" />
    <glyph glyph-name="acircumflex" unicode="&#xe2;" horiz-adv-x="550" 
d="M388 -15q-43 0 -59 30t-6 77l17 80l35 69l10 134l82 65q16 3 32 0q-14 -40 -27.5 -91t-21.5 -89l-36 -168q-4 -22 -2.5 -37t16.5 -15q14 0 31.5 15t40.5 51q9 -4 16 -8.5t14 -11.5q-24 -45 -62 -73t-80 -28zM156 -15q-58 0 -89.5 40t-31.5 114q0 56 19 112t54 102t85 74
t113 28q64 0 105 -30t48 -80l-53 -32q0 -56 -19.5 -114t-54 -106.5t-79.5 -78t-97 -29.5zM200 45q36 0 66.5 26t53.5 67.5t36 88.5t13 89q0 45 -14.5 72t-48.5 27t-65.5 -26.5t-56 -68.5t-39 -89.5t-14.5 -88.5q0 -49 18.5 -73t50.5 -24zM191 515q-6 5 -9 10.5t-5 12.5
q39 32 65.5 54.5t49.5 45t50 52.5q16 3 32 0q16 -31 27.5 -54t27 -46t43.5 -56q-6 -12 -19 -19q-41 23 -63 41.5t-48 39.5q-20 -12 -42 -25t-48 -27t-61 -29z" />
    <glyph glyph-name="atilde" unicode="&#xe3;" horiz-adv-x="550" 
d="M388 -15q-43 0 -59 30t-6 77l17 80l35 69l10 134l82 65q16 3 32 0q-14 -40 -27.5 -91t-21.5 -89l-36 -168q-4 -22 -2.5 -37t16.5 -15q14 0 31.5 15t40.5 51q9 -4 16 -8.5t14 -11.5q-24 -45 -62 -73t-80 -28zM156 -15q-58 0 -89.5 40t-31.5 114q0 56 19 112t54 102t85 74
t113 28q64 0 105 -30t48 -80l-53 -32q0 -56 -19.5 -114t-54 -106.5t-79.5 -78t-97 -29.5zM200 45q36 0 66.5 26t53.5 67.5t36 88.5t13 89q0 45 -14.5 72t-48.5 27t-65.5 -26.5t-56 -68.5t-39 -89.5t-14.5 -88.5q0 -49 18.5 -73t50.5 -24zM476 655q8 -2 14.5 -5t10.5 -8
q-24 -62 -57 -82t-62 -20q-22 0 -37.5 8t-27.5 18.5t-24 18.5t-27 8q-16 0 -32 -8.5t-34 -40.5q-7 2 -14.5 6t-10.5 7q23 60 55 81.5t63 21.5q21 0 36.5 -8t28 -18.5t25.5 -18.5t28 -8q16 0 31.5 8.5t33.5 39.5z" />
    <glyph glyph-name="adieresis" unicode="&#xe4;" horiz-adv-x="550" 
d="M388 -15q-43 0 -59 30t-6 77l17 80l35 69l10 134l82 65q16 3 32 0q-14 -40 -27.5 -91t-21.5 -89l-36 -168q-4 -22 -2.5 -37t16.5 -15q14 0 31.5 15t40.5 51q9 -4 16 -8.5t14 -11.5q-24 -45 -62 -73t-80 -28zM156 -15q-58 0 -89.5 40t-31.5 114q0 56 19 112t54 102t85 74
t113 28q64 0 105 -30t48 -80l-53 -32q0 -56 -19.5 -114t-54 -106.5t-79.5 -78t-97 -29.5zM200 45q36 0 66.5 26t53.5 67.5t36 88.5t13 89q0 45 -14.5 72t-48.5 27t-65.5 -26.5t-56 -68.5t-39 -89.5t-14.5 -88.5q0 -49 18.5 -73t50.5 -24zM258 669l48 -41l-14 -64l-60 -18
l-48 41l14 64zM459 669l48 -41l-14 -64l-60 -18l-48 41l14 64z" />
    <glyph glyph-name="aring" unicode="&#xe5;" horiz-adv-x="550" 
d="M388 -15q-43 0 -59 30t-6 77l17 80l35 69l10 134l82 65q16 3 32 0q-14 -40 -27.5 -91t-21.5 -89l-36 -168q-4 -22 -2.5 -37t16.5 -15q14 0 31.5 15t40.5 51q9 -4 16 -8.5t14 -11.5q-24 -45 -62 -73t-80 -28zM156 -15q-58 0 -89.5 40t-31.5 114q0 56 19 112t54 102t85 74
t113 28q64 0 105 -30t48 -80l-53 -32q0 -56 -19.5 -114t-54 -106.5t-79.5 -78t-97 -29.5zM200 45q36 0 66.5 26t53.5 67.5t36 88.5t13 89q0 45 -14.5 72t-48.5 27t-65.5 -26.5t-56 -68.5t-39 -89.5t-14.5 -88.5q0 -49 18.5 -73t50.5 -24zM361 695q41 0 68 -22t27 -56
q0 -28 -17 -51t-46 -37t-66 -14q-41 0 -68 22t-27 56q0 28 17 51t46.5 37t65.5 14zM334 550q22 0 39.5 20.5t17.5 46.5q0 19 -10 31t-27 12q-22 0 -39.5 -20.5t-17.5 -46.5q0 -19 10.5 -31t26.5 -12z" />
    <glyph glyph-name="ae" unicode="&#xe6;" horiz-adv-x="729" 
d="M462 -15q-70 0 -108 46t-38 128q0 59 20 112t56 94.5t87 65.5t112 24q68 0 95 -27t27 -61q0 -43 -29.5 -79t-79.5 -60t-114.5 -33.5t-135.5 -1.5l4 36q66 -7 115 1.5t81.5 27.5t49 45.5t16.5 56.5q0 21 -11.5 38t-43.5 17q-41 0 -72.5 -27t-52.5 -68.5t-32 -88t-11 -85.5
q0 -58 22.5 -82t61.5 -24q34 0 77 19t87 71q9 -4 16 -8.5t14 -11.5q-46 -66 -101 -95.5t-112 -29.5zM143 -15q-39 0 -68 12.5t-45.5 36t-16.5 57.5q0 33 17.5 63t57.5 52t105.5 30t161.5 -4l-4 -37q-88 11 -141 0t-76.5 -37t-23.5 -62q0 -26 17.5 -43.5t48.5 -17.5
q44 0 85 39.5t54 116.5l19 -66q-20 -46 -44 -77t-59 -47t-88 -16zM334 125l-19 66l14 83q3 17 6 41t-0.5 47.5t-17 39.5t-43.5 16q-34 0 -61 -23.5t-32 -69.5h-95q7 33 33.5 62.5t68 48.5t94.5 19q64 0 95 -21.5t38.5 -56t-0.5 -73.5z" />
    <glyph glyph-name="ccedilla" unicode="&#xe7;" horiz-adv-x="454" 
d="M198 -15q-75 0 -118 46.5t-43 122.5q0 59 20.5 112.5t57.5 96.5t87 67.5t108 24.5q38 0 70.5 -10.5t57.5 -29.5l-29 -135q-16 -3 -32 0q1 66 -17.5 100.5t-57.5 34.5t-70 -26t-53 -67.5t-33.5 -88.5t-11.5 -89q0 -54 23 -79t61 -25q31 0 70.5 19t76.5 71q9 -4 16 -8.5
t14 -11.5q-39 -66 -90 -95.5t-107 -29.5zM84 -162q17 -13 38 -19.5t40 -6.5q20 0 32.5 9.5t12.5 25.5q0 15 -22 28.5t-61 22.5l52 102h40l-20 -44q38 -14 61.5 -36.5t23.5 -52.5q0 -41 -34.5 -66.5t-84.5 -25.5q-28 0 -51 7t-45 23q3 9 7 17.5t11 15.5z" />
    <glyph glyph-name="egrave" unicode="&#xe8;" horiz-adv-x="469" 
d="M221 40q29 0 73.5 19t90.5 71q9 -4 16 -8.5t14 -11.5q-46 -66 -102.5 -95.5t-111.5 -29.5q-79 0 -121.5 45.5t-42.5 124.5q0 60 20.5 114t58.5 96t90 66t115 24q51 0 79.5 -12.5t40.5 -32t12 -40.5q0 -44 -32 -76.5t-84 -55t-111 -34.5t-113 -15l-6 35q66 4 123.5 21.5
t93.5 47t36 67.5q0 21 -12.5 38t-44.5 17q-44 0 -77 -27t-55 -69t-33 -88.5t-11 -85.5q0 -57 24 -81t70 -24zM198 689h115q-2 -43 3.5 -83.5t23.5 -86.5q-16 -3 -32 0q-12 31 -32.5 56.5t-42 52.5t-35.5 61z" />
    <glyph glyph-name="eacute" unicode="&#xe9;" horiz-adv-x="469" 
d="M221 40q29 0 73.5 19t90.5 71q9 -4 16 -8.5t14 -11.5q-46 -66 -102.5 -95.5t-111.5 -29.5q-79 0 -121.5 45.5t-42.5 124.5q0 60 20.5 114t58.5 96t90 66t115 24q51 0 79.5 -12.5t40.5 -32t12 -40.5q0 -44 -32 -76.5t-84 -55t-111 -34.5t-113 -15l-6 35q66 4 123.5 21.5
t93.5 47t36 67.5q0 21 -12.5 38t-44.5 17q-44 0 -77 -27t-55 -69t-33 -88.5t-11 -85.5q0 -57 24 -81t70 -24zM499 690q-19 -34 -51 -61t-65.5 -52.5t-60.5 -56.5q-16 -3 -32 0q35 47 56.5 87t37.5 83h115z" />
    <glyph glyph-name="ecircumflex" unicode="&#xea;" horiz-adv-x="469" 
d="M221 40q29 0 73.5 19t90.5 71q9 -4 16 -8.5t14 -11.5q-46 -66 -102.5 -95.5t-111.5 -29.5q-79 0 -121.5 45.5t-42.5 124.5q0 60 20.5 114t58.5 96t90 66t115 24q51 0 79.5 -12.5t40.5 -32t12 -40.5q0 -44 -32 -76.5t-84 -55t-111 -34.5t-113 -15l-6 35q66 4 123.5 21.5
t93.5 47t36 67.5q0 21 -12.5 38t-44.5 17q-44 0 -77 -27t-55 -69t-33 -88.5t-11 -85.5q0 -57 24 -81t70 -24zM189 515q-6 5 -9 10.5t-5 12.5q39 32 65.5 54.5t49.5 45t50 52.5q16 3 32 0q16 -31 27.5 -54t27 -46t43.5 -56q-6 -12 -19 -19q-41 23 -63 41.5t-48 39.5
q-20 -12 -42 -25t-48 -27t-61 -29z" />
    <glyph glyph-name="edieresis" unicode="&#xeb;" horiz-adv-x="469" 
d="M221 40q29 0 73.5 19t90.5 71q9 -4 16 -8.5t14 -11.5q-46 -66 -102.5 -95.5t-111.5 -29.5q-79 0 -121.5 45.5t-42.5 124.5q0 60 20.5 114t58.5 96t90 66t115 24q51 0 79.5 -12.5t40.5 -32t12 -40.5q0 -44 -32 -76.5t-84 -55t-111 -34.5t-113 -15l-6 35q66 4 123.5 21.5
t93.5 47t36 67.5q0 21 -12.5 38t-44.5 17q-44 0 -77 -27t-55 -69t-33 -88.5t-11 -85.5q0 -57 24 -81t70 -24zM256 669l48 -41l-14 -64l-60 -18l-48 41l14 64zM457 669l48 -41l-14 -64l-60 -18l-48 41l14 64z" />
    <glyph glyph-name="igrave" unicode="&#xec;" horiz-adv-x="294" 
d="M127 -15q-43 0 -58.5 30t-5.5 77l36 168q7 30 11.5 61.5t8.5 81.5h-57q0 8 2.5 19t5.5 18q39 0 83 2.5t92 10.5q-11 -26 -22 -62t-19.5 -71t-14.5 -60l-36 -168q-5 -23 -2.5 -37.5t16.5 -14.5t31.5 15t40.5 51q9 -4 16 -8.5t14 -11.5q-24 -45 -62 -73t-80 -28zM71 689
h115q-2 -43 3.5 -83.5t23.5 -86.5q-16 -3 -32 0q-12 31 -32.5 56.5t-42 52.5t-35.5 61z" />
    <glyph glyph-name="iacute" unicode="&#xed;" horiz-adv-x="294" 
d="M127 -15q-43 0 -58.5 30t-5.5 77l36 168q7 30 11.5 61.5t8.5 81.5h-57q0 8 2.5 19t5.5 18q39 0 83 2.5t92 10.5q-11 -26 -22 -62t-19.5 -71t-14.5 -60l-36 -168q-5 -23 -2.5 -37.5t16.5 -14.5t31.5 15t40.5 51q9 -4 16 -8.5t14 -11.5q-24 -45 -62 -73t-80 -28zM372 690
q-19 -34 -51 -61t-65.5 -52.5t-60.5 -56.5q-16 -3 -32 0q35 47 56.5 87t37.5 83h115z" />
    <glyph glyph-name="icircumflex" unicode="&#xee;" horiz-adv-x="294" 
d="M127 -15q-43 0 -58.5 30t-5.5 77l36 168q7 30 11.5 61.5t8.5 81.5h-57q0 8 2.5 19t5.5 18q39 0 83 2.5t92 10.5q-11 -26 -22 -62t-19.5 -71t-14.5 -60l-36 -168q-5 -23 -2.5 -37.5t16.5 -14.5t31.5 15t40.5 51q9 -4 16 -8.5t14 -11.5q-24 -45 -62 -73t-80 -28zM62 515
q-6 5 -9 10.5t-5 12.5q39 32 65.5 54.5t49.5 45t50 52.5q16 3 32 0q16 -31 27.5 -54t27 -46t43.5 -56q-6 -12 -19 -19q-41 23 -63 41.5t-48 39.5q-20 -12 -42 -25t-48 -27t-61 -29z" />
    <glyph glyph-name="idieresis" unicode="&#xef;" horiz-adv-x="294" 
d="M127 -15q-43 0 -58.5 30t-5.5 77l36 168q7 30 11.5 61.5t8.5 81.5h-57q0 8 2.5 19t5.5 18q39 0 83 2.5t92 10.5q-11 -26 -22 -62t-19.5 -71t-14.5 -60l-36 -168q-5 -23 -2.5 -37.5t16.5 -14.5t31.5 15t40.5 51q9 -4 16 -8.5t14 -11.5q-24 -45 -62 -73t-80 -28zM129 669
l48 -41l-14 -64l-60 -18l-48 41l14 64zM330 669l48 -41l-14 -64l-60 -18l-48 41l14 64z" />
    <glyph glyph-name="eth" unicode="&#xf0;" horiz-adv-x="527" 
d="M292 395q-40 0 -76.5 -34.5t-59 -91.5t-22.5 -123q0 -57 22 -89t67 -32l-13 -40q-85 0 -129 45t-44 125t35 143t94.5 100t133.5 37zM223 25q33 0 62.5 22t52.5 63t35 96q15 55 23.5 113t6.5 113.5t-21 103.5t-59 83.5t-107 53.5q2 11 5 19.5t9 17.5q78 -21 129 -59.5
t79.5 -86t40.5 -97t12 -92.5q0 -87 -20 -158.5t-57 -123.5t-88.5 -80t-115.5 -28zM373 206q13 59 6 101t-29.5 65t-57.5 23l8 40q77 0 111.5 -53.5t26.5 -175.5h-65zM477 708l-240 -198q-7 6 -13 13.5t-10 14.5l241 198q5 -5 11.5 -12.5t10.5 -15.5z" />
    <glyph glyph-name="ntilde" unicode="&#xf1;" horiz-adv-x="569" 
d="M45 -5q7 29 13 55.5t11 51.5l34 158q7 30 11.5 61.5t8.5 81.5h-57q0 8 2.5 19t5.5 18q39 0 80.5 2.5t89.5 10.5q-15 -36 -24 -63t-14.5 -56.5t-12.5 -73.5l-34 -158q-5 -25 -9 -50.5t-6 -51.5q-26 0 -49.5 -1t-49.5 -4zM405 -15q-43 0 -59.5 30.5t-4.5 76.5l57 222
q9 35 0 55.5t-37 20.5q-30 0 -60.5 -22.5t-58 -62t-49 -92t-34.5 -111.5h-26q29 133 73 210t95.5 110t102.5 33q54 0 78.5 -32.5t5.5 -106.5l-57 -224q-6 -23 -3 -37.5t17 -14.5t31.5 15t40.5 51q9 -4 16 -8.5t14 -11.5q-24 -45 -62 -73t-80 -28zM512 655q8 -2 14.5 -5
t10.5 -8q-24 -62 -57 -82t-62 -20q-22 0 -37.5 8t-27.5 18.5t-24 18.5t-27 8q-16 0 -32 -8.5t-34 -40.5q-7 2 -14.5 6t-10.5 7q23 60 55 81.5t63 21.5q21 0 36.5 -8t28 -18.5t25.5 -18.5t28 -8q16 0 31.5 8.5t33.5 39.5z" />
    <glyph glyph-name="ograve" unicode="&#xf2;" horiz-adv-x="521" 
d="M313 415q-42 0 -75.5 -26.5t-56.5 -68t-35 -89t-12 -89.5q0 -57 18 -87t56 -30v-40q-82 0 -126.5 46.5t-44.5 123.5q0 59 20.5 113t58 96t88 66.5t109.5 24.5v-40zM208 25q42 0 75.5 26.5t56.5 68t35 89t12 89.5q0 57 -18 87t-56 30v40q82 0 126.5 -46.5t44.5 -123.5
q0 -59 -20.5 -113t-58 -96t-88 -66.5t-109.5 -24.5v40zM199 689h115q-2 -43 3.5 -83.5t23.5 -86.5q-16 -3 -32 0q-12 31 -32.5 56.5t-42 52.5t-35.5 61z" />
    <glyph glyph-name="oacute" unicode="&#xf3;" horiz-adv-x="521" 
d="M313 415q-42 0 -75.5 -26.5t-56.5 -68t-35 -89t-12 -89.5q0 -57 18 -87t56 -30v-40q-82 0 -126.5 46.5t-44.5 123.5q0 59 20.5 113t58 96t88 66.5t109.5 24.5v-40zM208 25q42 0 75.5 26.5t56.5 68t35 89t12 89.5q0 57 -18 87t-56 30v40q82 0 126.5 -46.5t44.5 -123.5
q0 -59 -20.5 -113t-58 -96t-88 -66.5t-109.5 -24.5v40zM500 690q-19 -34 -51 -61t-65.5 -52.5t-60.5 -56.5q-16 -3 -32 0q35 47 56.5 87t37.5 83h115z" />
    <glyph glyph-name="ocircumflex" unicode="&#xf4;" horiz-adv-x="521" 
d="M313 415q-42 0 -75.5 -26.5t-56.5 -68t-35 -89t-12 -89.5q0 -57 18 -87t56 -30v-40q-82 0 -126.5 46.5t-44.5 123.5q0 59 20.5 113t58 96t88 66.5t109.5 24.5v-40zM208 25q42 0 75.5 26.5t56.5 68t35 89t12 89.5q0 57 -18 87t-56 30v40q82 0 126.5 -46.5t44.5 -123.5
q0 -59 -20.5 -113t-58 -96t-88 -66.5t-109.5 -24.5v40zM190 515q-6 5 -9 10.5t-5 12.5q39 32 65.5 54.5t49.5 45t50 52.5q16 3 32 0q16 -31 27.5 -54t27 -46t43.5 -56q-6 -12 -19 -19q-41 23 -63 41.5t-48 39.5q-20 -12 -42 -25t-48 -27t-61 -29z" />
    <glyph glyph-name="otilde" unicode="&#xf5;" horiz-adv-x="521" 
d="M313 415q-42 0 -75.5 -26.5t-56.5 -68t-35 -89t-12 -89.5q0 -57 18 -87t56 -30v-40q-82 0 -126.5 46.5t-44.5 123.5q0 59 20.5 113t58 96t88 66.5t109.5 24.5v-40zM208 25q42 0 75.5 26.5t56.5 68t35 89t12 89.5q0 57 -18 87t-56 30v40q82 0 126.5 -46.5t44.5 -123.5
q0 -59 -20.5 -113t-58 -96t-88 -66.5t-109.5 -24.5v40zM475 655q8 -2 14.5 -5t10.5 -8q-24 -62 -57 -82t-62 -20q-22 0 -37.5 8t-27.5 18.5t-24 18.5t-27 8q-16 0 -32 -8.5t-34 -40.5q-7 2 -14.5 6t-10.5 7q23 60 55 81.5t63 21.5q21 0 36.5 -8t28 -18.5t25.5 -18.5t28 -8
q16 0 31.5 8.5t33.5 39.5z" />
    <glyph glyph-name="odieresis" unicode="&#xf6;" horiz-adv-x="521" 
d="M313 415q-42 0 -75.5 -26.5t-56.5 -68t-35 -89t-12 -89.5q0 -57 18 -87t56 -30v-40q-82 0 -126.5 46.5t-44.5 123.5q0 59 20.5 113t58 96t88 66.5t109.5 24.5v-40zM208 25q42 0 75.5 26.5t56.5 68t35 89t12 89.5q0 57 -18 87t-56 30v40q82 0 126.5 -46.5t44.5 -123.5
q0 -59 -20.5 -113t-58 -96t-88 -66.5t-109.5 -24.5v40zM257 669l48 -41l-14 -64l-60 -18l-48 41l14 64zM458 669l48 -41l-14 -64l-60 -18l-48 41l14 64z" />
    <glyph glyph-name="divide" unicode="&#xf7;" horiz-adv-x="620" 
d="M576 340h-479q0 13 2 25t6 25h479q0 -13 -1.5 -25t-6.5 -25zM316 243l44 -37l-13 -58l-54 -17l-44 38l13 58zM386 598l44 -37l-13 -58l-54 -17l-44 38l13 58z" />
    <glyph glyph-name="oslash" unicode="&#xf8;" horiz-adv-x="522" 
d="M440 480q26 4 51 0q-7 -59 -38 -106.5t-74.5 -88t-90.5 -77.5t-89 -74.5t-68.5 -79.5t-28.5 -94q-25 -4 -51 0q8 59 38.5 106.5t74 88t90.5 77.5t89 74.5t68.5 80t28.5 93.5zM313 415q-42 0 -75.5 -26.5t-56.5 -68t-35 -89t-12 -89.5q0 -57 18 -87t56 -30v-40
q-82 0 -126.5 46.5t-44.5 123.5q0 59 20.5 113t58 96t88 66.5t109.5 24.5v-40zM208 25q42 0 75.5 26.5t56.5 68t35 89t12 89.5q0 57 -18 87t-56 30v40q82 0 126.5 -46.5t44.5 -123.5q0 -59 -20.5 -113t-58 -96t-88 -66.5t-109.5 -24.5v40z" />
    <glyph glyph-name="ugrave" unicode="&#xf9;" horiz-adv-x="561" 
d="M147 -15q-52 0 -74.5 33t-6.5 106l30 136q7 30 11.5 61.5t8.5 81.5h-57q0 8 2.5 19t5.5 18q39 0 83 2.5t92 10.5q-11 -26 -22 -62t-19.5 -71t-14.5 -60l-30 -134q-7 -35 1 -55.5t35 -20.5q29 0 57.5 22.5t54.5 62t47 92t34 111.5h26q-29 -133 -71.5 -210t-92 -110
t-100.5 -33zM396 -15q-43 0 -58.5 30t-5.5 77l53 246q5 26 9.5 51.5t5.5 50.5q26 0 49.5 1t49.5 4q-7 -29 -13 -55t-11 -52l-53 -246q-5 -23 -2.5 -37.5t16.5 -14.5t31.5 15t40.5 51q9 -4 16 -8.5t14 -11.5q-24 -45 -62 -73t-80 -28zM204 689h115q-2 -43 3.5 -83.5
t23.5 -86.5q-16 -3 -32 0q-12 31 -32.5 56.5t-42 52.5t-35.5 61z" />
    <glyph glyph-name="uacute" unicode="&#xfa;" horiz-adv-x="561" 
d="M147 -15q-52 0 -74.5 33t-6.5 106l30 136q7 30 11.5 61.5t8.5 81.5h-57q0 8 2.5 19t5.5 18q39 0 83 2.5t92 10.5q-11 -26 -22 -62t-19.5 -71t-14.5 -60l-30 -134q-7 -35 1 -55.5t35 -20.5q29 0 57.5 22.5t54.5 62t47 92t34 111.5h26q-29 -133 -71.5 -210t-92 -110
t-100.5 -33zM396 -15q-43 0 -58.5 30t-5.5 77l53 246q5 26 9.5 51.5t5.5 50.5q26 0 49.5 1t49.5 4q-7 -29 -13 -55t-11 -52l-53 -246q-5 -23 -2.5 -37.5t16.5 -14.5t31.5 15t40.5 51q9 -4 16 -8.5t14 -11.5q-24 -45 -62 -73t-80 -28zM505 690q-19 -34 -51 -61t-65.5 -52.5
t-60.5 -56.5q-16 -3 -32 0q35 47 56.5 87t37.5 83h115z" />
    <glyph glyph-name="ucircumflex" unicode="&#xfb;" horiz-adv-x="561" 
d="M147 -15q-52 0 -74.5 33t-6.5 106l30 136q7 30 11.5 61.5t8.5 81.5h-57q0 8 2.5 19t5.5 18q39 0 83 2.5t92 10.5q-11 -26 -22 -62t-19.5 -71t-14.5 -60l-30 -134q-7 -35 1 -55.5t35 -20.5q29 0 57.5 22.5t54.5 62t47 92t34 111.5h26q-29 -133 -71.5 -210t-92 -110
t-100.5 -33zM396 -15q-43 0 -58.5 30t-5.5 77l53 246q5 26 9.5 51.5t5.5 50.5q26 0 49.5 1t49.5 4q-7 -29 -13 -55t-11 -52l-53 -246q-5 -23 -2.5 -37.5t16.5 -14.5t31.5 15t40.5 51q9 -4 16 -8.5t14 -11.5q-24 -45 -62 -73t-80 -28zM195 515q-6 5 -9 10.5t-5 12.5
q39 32 65.5 54.5t49.5 45t50 52.5q16 3 32 0q16 -31 27.5 -54t27 -46t43.5 -56q-6 -12 -19 -19q-41 23 -63 41.5t-48 39.5q-20 -12 -42 -25t-48 -27t-61 -29z" />
    <glyph glyph-name="udieresis" unicode="&#xfc;" horiz-adv-x="561" 
d="M147 -15q-52 0 -74.5 33t-6.5 106l30 136q7 30 11.5 61.5t8.5 81.5h-57q0 8 2.5 19t5.5 18q39 0 83 2.5t92 10.5q-11 -26 -22 -62t-19.5 -71t-14.5 -60l-30 -134q-7 -35 1 -55.5t35 -20.5q29 0 57.5 22.5t54.5 62t47 92t34 111.5h26q-29 -133 -71.5 -210t-92 -110
t-100.5 -33zM396 -15q-43 0 -58.5 30t-5.5 77l53 246q5 26 9.5 51.5t5.5 50.5q26 0 49.5 1t49.5 4q-7 -29 -13 -55t-11 -52l-53 -246q-5 -23 -2.5 -37.5t16.5 -14.5t31.5 15t40.5 51q9 -4 16 -8.5t14 -11.5q-24 -45 -62 -73t-80 -28zM262 669l48 -41l-14 -64l-60 -18l-48 41
l14 64zM463 669l48 -41l-14 -64l-60 -18l-48 41l14 64z" />
    <glyph glyph-name="yacute" unicode="&#xfd;" horiz-adv-x="526" 
d="M385 338h26q-22 -100 -51 -164.5t-62.5 -101.5t-69.5 -52t-72 -15q-55 0 -78.5 33t-7.5 106l26 116q7 30 11.5 61.5t8.5 81.5h-57q0 8 2.5 19t5.5 18q39 0 83 2.5t92 10.5q-11 -26 -22 -62t-19.5 -71t-14.5 -60l-26 -114q-8 -35 1 -55.5t37 -20.5t55.5 19.5t53 55.5
t45.5 85t33 108zM400 440q26 0 49.5 1t49.5 4q-7 -29 -13 -55t-11 -52l-56 -268q-20 -95 -69 -161t-114.5 -100t-135.5 -34q-58 0 -97 25t-39 75q0 33 16.5 58.5t40.5 44.5t49 32t41 20l20 -18q-43 -25 -64.5 -54.5t-21.5 -68.5q0 -34 18 -54t59 -20q55 0 96 32.5t69 89
t44 127.5l24 107l-2 16l32 151q5 26 9.5 51.5t5.5 50.5zM505 690q-19 -34 -51 -61t-65.5 -52.5t-60.5 -56.5q-16 -3 -32 0q35 47 56.5 87t37.5 83h115z" />
    <glyph glyph-name="thorn" unicode="&#xfe;" horiz-adv-x="527" 
d="M111 700q35 0 81.5 2.5t93.5 10.5q-11 -27 -22 -63t-20 -71t-14 -59l-55 -260l-30 -69l-1 -74l-48 -225q-5 -25 -9 -50.5t-6 -51.5q-26 0 -49.5 -1t-49.5 -4q7 29 13 55.5t11 51.5l134 628q8 34 13 70t7 73h-57q0 7 2.5 18.5t5.5 18.5zM362 455q61 0 95.5 -40t34.5 -111
q0 -57 -18 -113.5t-53 -103t-85 -74.5t-115 -28q-64 0 -107 30t-51 80l48 32q0 57 19.5 114.5t54.5 106t80.5 78t96.5 29.5zM322 395q-37 0 -69 -26t-55.5 -67.5t-36.5 -87.5t-13 -86q0 -49 18.5 -76t52.5 -27q36 0 68 26.5t56.5 68.5t38.5 89.5t14 88.5q0 49 -21 73t-53 24
z" />
    <glyph glyph-name="ydieresis" unicode="&#xff;" horiz-adv-x="526" 
d="M385 338h26q-22 -100 -51 -164.5t-62.5 -101.5t-69.5 -52t-72 -15q-55 0 -78.5 33t-7.5 106l26 116q7 30 11.5 61.5t8.5 81.5h-57q0 8 2.5 19t5.5 18q39 0 83 2.5t92 10.5q-11 -26 -22 -62t-19.5 -71t-14.5 -60l-26 -114q-8 -35 1 -55.5t37 -20.5t55.5 19.5t53 55.5
t45.5 85t33 108zM400 440q26 0 49.5 1t49.5 4q-7 -29 -13 -55t-11 -52l-56 -268q-20 -95 -69 -161t-114.5 -100t-135.5 -34q-58 0 -97 25t-39 75q0 33 16.5 58.5t40.5 44.5t49 32t41 20l20 -18q-43 -25 -64.5 -54.5t-21.5 -68.5q0 -34 18 -54t59 -20q55 0 96 32.5t69 89
t44 127.5l24 107l-2 16l32 151q5 26 9.5 51.5t5.5 50.5zM262 669l48 -41l-14 -64l-60 -18l-48 41l14 64zM463 669l48 -41l-14 -64l-60 -18l-48 41l14 64z" />
    <glyph glyph-name="Amacron" unicode="&#x100;" horiz-adv-x="653" 
d="M-61 -2q0 8 2.5 19t5.5 18h52q33 45 60.5 86.5t55.5 88.5l186 309q15 25 36 59t43.5 71t41.5 71q11 2 21.5 2.5t20.5 0t19 -2.5l-103 -159l-211 -351q-23 -38 -45 -81t-37 -94h79q0 -7 -2.5 -18t-5.5 -19q-41 2 -73.5 2h-49.5h-39.5t-56.5 -2zM540 35h62q0 -7 -2.5 -18
t-5.5 -19q-34 2 -61.5 2h-59.5h-70.5t-70.5 -2q0 8 2.5 19t5.5 18h69q2 44 2.5 88t-3.5 87l-28 351l103 159q-1 -50 2 -99t9 -121l25 -290q3 -38 7.5 -80t13.5 -95zM435 235h-260l9 40h260zM600 785h-280q0 13 4 30t8 30h280q0 -13 -3.5 -30t-8.5 -30z" />
    <glyph glyph-name="amacron" unicode="&#x101;" horiz-adv-x="550" 
d="M388 -15q-43 0 -59 30t-6 77l17 80l35 69l10 134l82 65q16 3 32 0q-14 -40 -27.5 -91t-21.5 -89l-36 -168q-4 -22 -2.5 -37t16.5 -15q14 0 31.5 15t40.5 51q9 -4 16 -8.5t14 -11.5q-24 -45 -62 -73t-80 -28zM156 -15q-58 0 -89.5 40t-31.5 114q0 56 19 112t54 102t85 74
t113 28q64 0 105 -30t48 -80l-53 -32q0 -56 -19.5 -114t-54 -106.5t-79.5 -78t-97 -29.5zM200 45q36 0 66.5 26t53.5 67.5t36 88.5t13 89q0 45 -14.5 72t-48.5 27t-65.5 -26.5t-56 -68.5t-39 -89.5t-14.5 -88.5q0 -49 18.5 -73t50.5 -24zM471 540h-280q0 13 4 30t8 30h280
q0 -13 -3.5 -30t-8.5 -30z" />
    <glyph glyph-name="Abreve" unicode="&#x102;" horiz-adv-x="653" 
d="M-61 -2q0 8 2.5 19t5.5 18h52q33 45 60.5 86.5t55.5 88.5l186 309q15 25 36 59t43.5 71t41.5 71q11 2 21.5 2.5t20.5 0t19 -2.5l-103 -159l-211 -351q-23 -38 -45 -81t-37 -94h79q0 -7 -2.5 -18t-5.5 -19q-41 2 -73.5 2h-49.5h-39.5t-56.5 -2zM540 35h62q0 -7 -2.5 -18
t-5.5 -19q-34 2 -61.5 2h-59.5h-70.5t-70.5 -2q0 8 2.5 19t5.5 18h69q2 44 2.5 88t-3.5 87l-28 351l103 159q-1 -50 2 -99t9 -121l25 -290q3 -38 7.5 -80t13.5 -95zM435 235h-260l9 40h260zM600 925q16 3 32 0q-16 -77 -60.5 -116t-104.5 -39q-61 0 -93.5 44t-25.5 111
q16 3 32 0q2 -43 29 -59t67 -16q38 0 70.5 15.5t53.5 59.5z" />
    <glyph glyph-name="abreve" unicode="&#x103;" horiz-adv-x="550" 
d="M388 -15q-43 0 -59 30t-6 77l17 80l35 69l10 134l82 65q16 3 32 0q-14 -40 -27.5 -91t-21.5 -89l-36 -168q-4 -22 -2.5 -37t16.5 -15q14 0 31.5 15t40.5 51q9 -4 16 -8.5t14 -11.5q-24 -45 -62 -73t-80 -28zM156 -15q-58 0 -89.5 40t-31.5 114q0 56 19 112t54 102t85 74
t113 28q64 0 105 -30t48 -80l-53 -32q0 -56 -19.5 -114t-54 -106.5t-79.5 -78t-97 -29.5zM200 45q36 0 66.5 26t53.5 67.5t36 88.5t13 89q0 45 -14.5 72t-48.5 27t-65.5 -26.5t-56 -68.5t-39 -89.5t-14.5 -88.5q0 -49 18.5 -73t50.5 -24zM470 680q16 3 32 0
q-18 -88 -63.5 -126.5t-102.5 -38.5q-67 0 -96.5 44t-21.5 121q16 3 32 0q-2 -50 25.5 -70t67.5 -20q38 0 73.5 19t53.5 71z" />
    <glyph glyph-name="Aogonek" unicode="&#x104;" horiz-adv-x="653" 
d="M-61 -2q0 8 2.5 19t5.5 18h52q33 45 60.5 86.5t55.5 88.5l186 309q15 25 36 59t43.5 71t41.5 71q11 2 21.5 2.5t20.5 0t19 -2.5l-103 -159l-211 -351q-23 -38 -45 -81t-37 -94h79q0 -7 -2.5 -18t-5.5 -19q-41 2 -73.5 2h-49.5h-39.5t-56.5 -2zM540 35h62q0 -7 -2.5 -18
t-5.5 -19q-34 2 -61.5 2h-59.5h-70.5t-70.5 -2q0 8 2.5 19t5.5 18h69q2 44 2.5 88t-3.5 87l-28 351l103 159q-1 -50 2 -99t9 -121l25 -290q3 -38 7.5 -80t13.5 -95zM435 235h-260l9 40h260zM374 -225q-35 0 -60 21.5t-25 52.5q0 47 30.5 80t79 55.5t101.5 36.5l14 -21
q-64 -20 -100.5 -54.5t-36.5 -75.5q0 -17 11 -28t33 -11q12 0 28 4.5t36 15.5q5 -5 8 -12.5t4 -16.5q-25 -19 -58 -33t-65 -14z" />
    <glyph glyph-name="aogonek" unicode="&#x105;" horiz-adv-x="550" 
d="M307 -225q-35 0 -60 21.5t-25 52.5q0 47 30.5 79t79 53t101.5 36l14 -17q-64 -20 -100.5 -54.5t-36.5 -75.5q0 -17 11 -28t33 -11q12 0 28 4.5t36 15.5q5 -5 8 -12.5t4 -16.5q-25 -19 -58 -33t-65 -14zM388 -15q-43 0 -59 30t-6 77l17 80l35 69l10 134l82 65q16 3 32 0
q-14 -40 -27.5 -91t-21.5 -89l-36 -168q-4 -22 -2.5 -37t16.5 -15q14 0 31.5 15t40.5 51q9 -4 16 -8.5t14 -11.5q-24 -45 -62 -73t-80 -28zM156 -15q-58 0 -89.5 40t-31.5 114q0 56 19 112t54 102t85 74t113 28q64 0 105 -30t48 -80l-53 -32q0 -56 -19.5 -114t-54 -106.5
t-79.5 -78t-97 -29.5zM200 45q36 0 66.5 26t53.5 67.5t36 88.5t13 89q0 45 -14.5 72t-48.5 27t-65.5 -26.5t-56 -68.5t-39 -89.5t-14.5 -88.5q0 -49 18.5 -73t50.5 -24z" />
    <glyph glyph-name="Cacute" unicode="&#x106;" horiz-adv-x="702" 
d="M377 -15q-142 0 -222.5 72.5t-80.5 220.5q0 85 28 163t83 140t137 98t189 36q75 0 132 -15.5t90 -29.5l-37 -175q-16 -3 -32 0q2 95 -43.5 136.5t-121.5 41.5q-90 0 -157.5 -51.5t-105 -141.5t-37.5 -207q0 -70 16.5 -126t55.5 -88t106 -32q74 0 132 44t104 139
q16 3 32 0l-38 -173q-40 -22 -100 -37t-130 -15zM731 925q-24 -38 -61.5 -63.5t-75.5 -46t-67 -45.5q-16 -3 -32 0q35 38 61.5 73.5t49.5 81.5h125z" />
    <glyph glyph-name="cacute" unicode="&#x107;" horiz-adv-x="454" 
d="M198 -15q-75 0 -118 46.5t-43 122.5q0 59 20.5 112.5t57.5 96.5t87 67.5t108 24.5q38 0 70.5 -10.5t57.5 -29.5l-29 -135q-16 -3 -32 0q1 66 -17.5 100.5t-57.5 34.5t-70 -26t-53 -67.5t-33.5 -88.5t-11.5 -89q0 -54 23 -79t61 -25q31 0 70.5 19t76.5 71q9 -4 16 -8.5
t14 -11.5q-39 -66 -90 -95.5t-107 -29.5zM499 690q-19 -34 -51 -61t-65.5 -52.5t-60.5 -56.5q-16 -3 -32 0q35 47 56.5 87t37.5 83h115z" />
    <glyph glyph-name="Ccircumflex" unicode="&#x108;" horiz-adv-x="702" 
d="M377 -15q-142 0 -222.5 72.5t-80.5 220.5q0 85 28 163t83 140t137 98t189 36q75 0 132 -15.5t90 -29.5l-37 -175q-16 -3 -32 0q2 95 -43.5 136.5t-121.5 41.5q-90 0 -157.5 -51.5t-105 -141.5t-37.5 -207q0 -70 16.5 -126t55.5 -88t106 -32q74 0 132 44t104 139
q16 3 32 0l-38 -173q-40 -22 -100 -37t-130 -15zM376 762q-5 5 -8.5 10t-5.5 13q37 23 62 39.5t43.5 30.5t36.5 30.5t40 39.5q16 3 32 0q17 -31 30.5 -51.5t33.5 -41t55 -51.5q-6 -13 -15 -19q-33 12 -55.5 22t-40.5 21t-38 25q-27 -14 -51 -25t-52 -21t-67 -22z" />
    <glyph glyph-name="ccircumflex" unicode="&#x109;" horiz-adv-x="454" 
d="M198 -15q-75 0 -118 46.5t-43 122.5q0 59 20.5 112.5t57.5 96.5t87 67.5t108 24.5q38 0 70.5 -10.5t57.5 -29.5l-29 -135q-16 -3 -32 0q1 66 -17.5 100.5t-57.5 34.5t-70 -26t-53 -67.5t-33.5 -88.5t-11.5 -89q0 -54 23 -79t61 -25q31 0 70.5 19t76.5 71q9 -4 16 -8.5
t14 -11.5q-39 -66 -90 -95.5t-107 -29.5zM189 515q-6 5 -9 10.5t-5 12.5q39 32 65.5 54.5t49.5 45t50 52.5q16 3 32 0q16 -31 27.5 -54t27 -46t43.5 -56q-6 -12 -19 -19q-41 23 -63 41.5t-48 39.5q-20 -12 -42 -25t-48 -27t-61 -29z" />
    <glyph glyph-name="Cdotaccent" unicode="&#x10a;" horiz-adv-x="702" 
d="M377 -15q-142 0 -222.5 72.5t-80.5 220.5q0 85 28 163t83 140t137 98t189 36q75 0 132 -15.5t90 -29.5l-37 -175q-16 -3 -32 0q2 95 -43.5 136.5t-121.5 41.5q-90 0 -157.5 -51.5t-105 -141.5t-37.5 -207q0 -70 16.5 -126t55.5 -88t106 -32q74 0 132 44t104 139
q16 3 32 0l-38 -173q-40 -22 -100 -37t-130 -15zM561 909l48 -41l-14 -64l-60 -18l-48 41l14 64z" />
    <glyph glyph-name="cdotaccent" unicode="&#x10b;" horiz-adv-x="454" 
d="M198 -15q-75 0 -118 46.5t-43 122.5q0 59 20.5 112.5t57.5 96.5t87 67.5t108 24.5q38 0 70.5 -10.5t57.5 -29.5l-29 -135q-16 -3 -32 0q1 66 -17.5 100.5t-57.5 34.5t-70 -26t-53 -67.5t-33.5 -88.5t-11.5 -89q0 -54 23 -79t61 -25q31 0 70.5 19t76.5 71q9 -4 16 -8.5
t14 -11.5q-39 -66 -90 -95.5t-107 -29.5zM356 669l48 -41l-14 -64l-60 -18l-48 41l14 64z" />
    <glyph glyph-name="Ccaron" unicode="&#x10c;" horiz-adv-x="702" 
d="M377 -15q-142 0 -222.5 72.5t-80.5 220.5q0 85 28 163t83 140t137 98t189 36q75 0 132 -15.5t90 -29.5l-37 -175q-16 -3 -32 0q2 95 -43.5 136.5t-121.5 41.5q-90 0 -157.5 -51.5t-105 -141.5t-37.5 -207q0 -70 16.5 -126t55.5 -88t106 -32q74 0 132 44t104 139
q16 3 32 0l-38 -173q-40 -22 -100 -37t-130 -15zM721 933q5 -4 9 -9.5t5 -13.5q-37 -23 -62 -39.5t-43.5 -30.5t-36.5 -30.5t-40 -39.5q-16 -3 -32 0q-16 31 -30 51.5t-34 41t-55 51.5q6 13 15 19q33 -12 55.5 -22t41 -21t37.5 -25q27 15 51 26t52 21t67 21z" />
    <glyph glyph-name="ccaron" unicode="&#x10d;" horiz-adv-x="454" 
d="M198 -15q-75 0 -118 46.5t-43 122.5q0 59 20.5 112.5t57.5 96.5t87 67.5t108 24.5q38 0 70.5 -10.5t57.5 -29.5l-29 -135q-16 -3 -32 0q1 66 -17.5 100.5t-57.5 34.5t-70 -26t-53 -67.5t-33.5 -88.5t-11.5 -89q0 -54 23 -79t61 -25q31 0 70.5 19t76.5 71q9 -4 16 -8.5
t14 -11.5q-39 -66 -90 -95.5t-107 -29.5zM495 695q6 -5 9.5 -10t4.5 -13q-39 -31 -65.5 -54t-49 -45t-50.5 -53q-16 -3 -32 0q-15 32 -27 54.5t-27.5 45.5t-43.5 56q6 12 19 19q41 -22 63 -41t48 -40q21 12 42.5 25t48 27t60.5 29z" />
    <glyph glyph-name="Dcaron" unicode="&#x10e;" horiz-adv-x="787" 
d="M282 700h195q137 0 215.5 -65t78.5 -200q0 -93 -35 -172.5t-98 -138t-147.5 -91.5t-182.5 -33h-175h-68t-69 -2q0 8 2.5 19t5.5 18h72q15 45 27 91t20 84l60 280q8 38 15 80.5t12 94.5h-72q0 8 2.5 19t5.5 18q34 -1 68 -1.5t68 -0.5zM207 40h100q77 0 139 30t107 83
t69 122.5t24 148.5q0 118 -43 177t-144 59h-120q-15 -46 -25 -83t-21 -87l-60 -280q-8 -39 -14.5 -80t-11.5 -90zM696 933q5 -4 9 -9.5t5 -13.5q-37 -23 -62 -39.5t-43.5 -30.5t-36.5 -30.5t-40 -39.5q-16 -3 -32 0q-16 31 -30 51.5t-34 41t-55 51.5q6 13 15 19
q33 -12 55.5 -22t41 -21t37.5 -25q27 15 51 26t52 21t67 21z" />
    <glyph glyph-name="dcaron" unicode="&#x10f;" horiz-adv-x="594" 
d="M612 692l54 25l41 -45l-11 -49q-20 -37 -37 -75.5t-30 -77.5q-15 0 -29 6q4 41 4.5 82.5t-3.5 84.5zM399 -15q-43 0 -58.5 30t-5.5 77l12 59l42 82l-8 80l44 207q8 34 13 70t7 73h-57q0 7 2.5 18.5t5.5 18.5q35 0 81.5 2.5t93.5 10.5q-11 -27 -22 -63t-20 -71t-14 -59
l-90 -428q-5 -23 -2.5 -37.5t16.5 -14.5t31.5 15t40.5 51q9 -4 16 -8.5t14 -11.5q-24 -45 -62 -73t-80 -28zM165 -15q-61 0 -95.5 40t-34.5 111q0 57 18 113.5t53 103t85.5 74.5t114.5 28t107.5 -30t50.5 -80l-48 -32q0 -57 -19.5 -114.5t-54.5 -106t-80.5 -78t-96.5 -29.5z
M205 45q38 0 69.5 26t55 67.5t36.5 87.5t13 86q0 50 -18.5 76.5t-52.5 26.5q-36 0 -68 -26.5t-56.5 -68.5t-38.5 -89.5t-14 -88.5q0 -49 21 -73t53 -24z" />
    <glyph glyph-name="Dcroat" unicode="&#x110;" horiz-adv-x="798" 
d="M458 340h-410q0 13 3 25t7 25h410q0 -13 -2.5 -25t-7.5 -25zM293 700h195q137 0 215.5 -65t78.5 -200q0 -93 -35 -172.5t-98 -138t-147.5 -91.5t-182.5 -33h-175h-68t-69 -2q0 8 2.5 19t5.5 18h72q15 45 27 91t20 84l60 280q8 38 15 80.5t12 94.5h-72q0 8 2.5 19t5.5 18
q34 -1 68 -1.5t68 -0.5zM218 40h100q77 0 139 30t107 83t69 122.5t24 148.5q0 118 -43 177t-144 59h-120q-15 -46 -25 -83t-21 -87l-60 -280q-8 -39 -14.5 -80t-11.5 -90z" />
    <glyph glyph-name="dcroat" unicode="&#x111;" horiz-adv-x="560" 
d="M589 530h-308q0 13 3 25t7 25h308q0 -13 -2.5 -25t-7.5 -25zM399 -15q-43 0 -58.5 30t-5.5 77l12 59l42 82l-8 80l44 207q8 34 13 70t7 73h-57q0 7 2.5 18.5t5.5 18.5q35 0 81.5 2.5t93.5 10.5q-11 -27 -22 -63t-20 -71t-14 -59l-90 -428q-5 -23 -2.5 -37.5t16.5 -14.5
t31.5 15t40.5 51q9 -4 16 -8.5t14 -11.5q-24 -45 -62 -73t-80 -28zM165 -15q-61 0 -95.5 40t-34.5 111q0 57 18 113.5t53 103t85.5 74.5t114.5 28t107.5 -30t50.5 -80l-48 -32q0 -57 -19.5 -114.5t-54.5 -106t-80.5 -78t-96.5 -29.5zM205 45q38 0 69.5 26t55 67.5t36.5 87.5
t13 86q0 50 -18.5 76.5t-52.5 26.5q-36 0 -68 -26.5t-56.5 -68.5t-38.5 -89.5t-14 -88.5q0 -49 21 -73t53 -24z" />
    <glyph glyph-name="Emacron" unicode="&#x112;" horiz-adv-x="611" 
d="M-4 -2q0 8 2.5 19t5.5 18h72q15 45 27 91t20 84l60 280q8 38 15 80.5t12 94.5h-72q0 8 2.5 19t5.5 18q34 -1 68 -1.5t68 -0.5h350l-39 -185q-16 -3 -32 0q10 58 0.5 89t-37 43.5t-72.5 12.5h-113q-15 -46 -25 -83t-21 -87l-60 -280q-8 -39 -14.5 -80t-11.5 -90h148
q52 0 85.5 17.5t53.5 50t32 77.5q16 3 32 0l-40 -185h-385h-68t-69 -2zM442 260q8 47 -1.5 63.5t-44.5 16.5h-190l8 40h190q35 0 52 17t28 63q16 3 32 0l-42 -200q-16 -3 -32 0zM578 785h-280q0 13 4 30t8 30h280q0 -13 -3.5 -30t-8.5 -30z" />
    <glyph glyph-name="emacron" unicode="&#x113;" horiz-adv-x="469" 
d="M221 40q29 0 73.5 19t90.5 71q9 -4 16 -8.5t14 -11.5q-46 -66 -102.5 -95.5t-111.5 -29.5q-79 0 -121.5 45.5t-42.5 124.5q0 60 20.5 114t58.5 96t90 66t115 24q51 0 79.5 -12.5t40.5 -32t12 -40.5q0 -44 -32 -76.5t-84 -55t-111 -34.5t-113 -15l-6 35q66 4 123.5 21.5
t93.5 47t36 67.5q0 21 -12.5 38t-44.5 17q-44 0 -77 -27t-55 -69t-33 -88.5t-11 -85.5q0 -57 24 -81t70 -24zM469 540h-280q0 13 4 30t8 30h280q0 -13 -3.5 -30t-8.5 -30z" />
    <glyph glyph-name="Ebreve" unicode="&#x114;" horiz-adv-x="611" 
d="M-4 -2q0 8 2.5 19t5.5 18h72q15 45 27 91t20 84l60 280q8 38 15 80.5t12 94.5h-72q0 8 2.5 19t5.5 18q34 -1 68 -1.5t68 -0.5h350l-39 -185q-16 -3 -32 0q10 58 0.5 89t-37 43.5t-72.5 12.5h-113q-15 -46 -25 -83t-21 -87l-60 -280q-8 -39 -14.5 -80t-11.5 -90h148
q52 0 85.5 17.5t53.5 50t32 77.5q16 3 32 0l-40 -185h-385h-68t-69 -2zM442 260q8 47 -1.5 63.5t-44.5 16.5h-190l8 40h190q35 0 52 17t28 63q16 3 32 0l-42 -200q-16 -3 -32 0zM578 925q16 3 32 0q-16 -77 -60.5 -116t-104.5 -39q-61 0 -93.5 44t-25.5 111q16 3 32 0
q2 -43 29 -59t67 -16q38 0 70.5 15.5t53.5 59.5z" />
    <glyph glyph-name="ebreve" unicode="&#x115;" horiz-adv-x="469" 
d="M221 40q29 0 73.5 19t90.5 71q9 -4 16 -8.5t14 -11.5q-46 -66 -102.5 -95.5t-111.5 -29.5q-79 0 -121.5 45.5t-42.5 124.5q0 60 20.5 114t58.5 96t90 66t115 24q51 0 79.5 -12.5t40.5 -32t12 -40.5q0 -44 -32 -76.5t-84 -55t-111 -34.5t-113 -15l-6 35q66 4 123.5 21.5
t93.5 47t36 67.5q0 21 -12.5 38t-44.5 17q-44 0 -77 -27t-55 -69t-33 -88.5t-11 -85.5q0 -57 24 -81t70 -24zM468 680q16 3 32 0q-18 -88 -63.5 -126.5t-102.5 -38.5q-67 0 -96.5 44t-21.5 121q16 3 32 0q-2 -50 25.5 -70t67.5 -20q38 0 73.5 19t53.5 71z" />
    <glyph glyph-name="Edotaccent" unicode="&#x116;" horiz-adv-x="611" 
d="M-4 -2q0 8 2.5 19t5.5 18h72q15 45 27 91t20 84l60 280q8 38 15 80.5t12 94.5h-72q0 8 2.5 19t5.5 18q34 -1 68 -1.5t68 -0.5h350l-39 -185q-16 -3 -32 0q10 58 0.5 89t-37 43.5t-72.5 12.5h-113q-15 -46 -25 -83t-21 -87l-60 -280q-8 -39 -14.5 -80t-11.5 -90h148
q52 0 85.5 17.5t53.5 50t32 77.5q16 3 32 0l-40 -185h-385h-68t-69 -2zM442 260q8 47 -1.5 63.5t-44.5 16.5h-190l8 40h190q35 0 52 17t28 63q16 3 32 0l-42 -200q-16 -3 -32 0zM464 909l48 -41l-14 -64l-60 -18l-48 41l14 64z" />
    <glyph glyph-name="edotaccent" unicode="&#x117;" horiz-adv-x="469" 
d="M221 40q29 0 73.5 19t90.5 71q9 -4 16 -8.5t14 -11.5q-46 -66 -102.5 -95.5t-111.5 -29.5q-79 0 -121.5 45.5t-42.5 124.5q0 60 20.5 114t58.5 96t90 66t115 24q51 0 79.5 -12.5t40.5 -32t12 -40.5q0 -44 -32 -76.5t-84 -55t-111 -34.5t-113 -15l-6 35q66 4 123.5 21.5
t93.5 47t36 67.5q0 21 -12.5 38t-44.5 17q-44 0 -77 -27t-55 -69t-33 -88.5t-11 -85.5q0 -57 24 -81t70 -24zM356 669l48 -41l-14 -64l-60 -18l-48 41l14 64z" />
    <glyph glyph-name="Eogonek" unicode="&#x118;" horiz-adv-x="611" 
d="M-4 -2q0 8 2.5 19t5.5 18h72q15 45 27 91t20 84l60 280q8 38 15 80.5t12 94.5h-72q0 8 2.5 19t5.5 18q34 -1 68 -1.5t68 -0.5h350l-39 -185q-16 -3 -32 0q10 58 0.5 89t-37 43.5t-72.5 12.5h-113q-15 -46 -25 -83t-21 -87l-60 -280q-8 -39 -14.5 -80t-11.5 -90h148
q52 0 85.5 17.5t53.5 50t32 77.5q16 3 32 0l-40 -185h-385h-68t-69 -2zM442 260q8 47 -1.5 63.5t-44.5 16.5h-190l8 40h190q35 0 52 17t28 63q16 3 32 0l-42 -200q-16 -3 -32 0zM348 -225q-35 0 -60 21.5t-25 52.5q0 47 30.5 80t79 55.5t101.5 36.5l14 -21
q-64 -20 -100.5 -54.5t-36.5 -75.5q0 -17 11 -28t33 -11q12 0 28 4.5t36 15.5q5 -5 8 -12.5t4 -16.5q-25 -19 -58 -33t-65 -14z" />
    <glyph glyph-name="eogonek" unicode="&#x119;" horiz-adv-x="469" 
d="M142 -225q-35 0 -60 21.5t-25 52.5q0 47 30.5 79t79 53t101.5 36l14 -17q-64 -20 -100.5 -54.5t-36.5 -75.5q0 -17 11 -28t33 -11q12 0 28 4.5t36 15.5q5 -5 8 -12.5t4 -16.5q-25 -19 -58 -33t-65 -14zM221 40q29 0 73.5 19t90.5 71q9 -4 16 -8.5t14 -11.5
q-46 -66 -102.5 -95.5t-111.5 -29.5q-79 0 -121.5 45.5t-42.5 124.5q0 60 20.5 114t58.5 96t90 66t115 24q51 0 79.5 -12.5t40.5 -32t12 -40.5q0 -44 -32 -76.5t-84 -55t-111 -34.5t-113 -15l-6 35q66 4 123.5 21.5t93.5 47t36 67.5q0 21 -12.5 38t-44.5 17q-44 0 -77 -27
t-55 -69t-33 -88.5t-11 -85.5q0 -57 24 -81t70 -24z" />
    <glyph glyph-name="Ecaron" unicode="&#x11a;" horiz-adv-x="611" 
d="M-4 -2q0 8 2.5 19t5.5 18h72q15 45 27 91t20 84l60 280q8 38 15 80.5t12 94.5h-72q0 8 2.5 19t5.5 18q34 -1 68 -1.5t68 -0.5h350l-39 -185q-16 -3 -32 0q10 58 0.5 89t-37 43.5t-72.5 12.5h-113q-15 -46 -25 -83t-21 -87l-60 -280q-8 -39 -14.5 -80t-11.5 -90h148
q52 0 85.5 17.5t53.5 50t32 77.5q16 3 32 0l-40 -185h-385h-68t-69 -2zM442 260q8 47 -1.5 63.5t-44.5 16.5h-190l8 40h190q35 0 52 17t28 63q16 3 32 0l-42 -200q-16 -3 -32 0zM624 933q5 -4 9 -9.5t5 -13.5q-37 -23 -62 -39.5t-43.5 -30.5t-36.5 -30.5t-40 -39.5
q-16 -3 -32 0q-16 31 -30 51.5t-34 41t-55 51.5q6 13 15 19q33 -12 55.5 -22t41 -21t37.5 -25q27 15 51 26t52 21t67 21z" />
    <glyph glyph-name="ecaron" unicode="&#x11b;" horiz-adv-x="469" 
d="M221 40q29 0 73.5 19t90.5 71q9 -4 16 -8.5t14 -11.5q-46 -66 -102.5 -95.5t-111.5 -29.5q-79 0 -121.5 45.5t-42.5 124.5q0 60 20.5 114t58.5 96t90 66t115 24q51 0 79.5 -12.5t40.5 -32t12 -40.5q0 -44 -32 -76.5t-84 -55t-111 -34.5t-113 -15l-6 35q66 4 123.5 21.5
t93.5 47t36 67.5q0 21 -12.5 38t-44.5 17q-44 0 -77 -27t-55 -69t-33 -88.5t-11 -85.5q0 -57 24 -81t70 -24zM495 695q6 -5 9.5 -10t4.5 -13q-39 -31 -65.5 -54t-49 -45t-50.5 -53q-16 -3 -32 0q-15 32 -27 54.5t-27.5 45.5t-43.5 56q6 12 19 19q41 -22 63 -41t48 -40
q21 12 42.5 25t48 27t60.5 29z" />
    <glyph glyph-name="Gcircumflex" unicode="&#x11c;" horiz-adv-x="763" 
d="M378 -15q-144 0 -223.5 73t-79.5 220q0 99 33 179.5t93.5 138t144 88.5t184.5 31q74 0 131.5 -14t90.5 -31l-37 -175q-16 -3 -32 0q2 95 -44 136.5t-124 41.5q-90 0 -161.5 -47.5t-112.5 -135.5t-41 -212q0 -76 18.5 -132.5t59.5 -87.5t109 -31q38 0 79.5 11t66.5 29
q15 57 24.5 104.5t13.5 93.5h-82q0 8 2.5 19t5.5 18q35 -1 72.5 -1.5t64.5 -0.5q35 0 59 0.5t58 1.5q0 -8 -2.5 -18.5t-5.5 -18.5h-52q-9 -31 -18.5 -64.5t-19 -72.5t-20.5 -88q-49 -23 -113.5 -39t-141.5 -16zM390 762q-5 5 -8.5 10t-5.5 13q37 23 62 39.5t43.5 30.5
t36.5 30.5t40 39.5q16 3 32 0q17 -31 30.5 -51.5t33.5 -41t55 -51.5q-6 -13 -15 -19q-33 12 -55.5 22t-40.5 21t-38 25q-27 -14 -51 -25t-52 -21t-67 -22z" />
    <glyph glyph-name="gcircumflex" unicode="&#x11d;" horiz-adv-x="529" 
d="M167 5q-61 0 -95.5 36t-34.5 106q0 57 18.5 112t53 99.5t84.5 70.5t113 26q65 0 102.5 -25t54.5 -61l-45 -56q0 -56 -19 -111t-53 -99.5t-80 -71t-99 -26.5zM207 65q40 0 72 23t55 60.5t35 80.5t12 83q0 50 -18.5 76.5t-53.5 26.5q-37 0 -69 -25t-56 -65.5t-37.5 -85.5
t-13.5 -86q0 -46 21 -67t53 -21zM103 -225q-58 0 -97.5 25t-39.5 75q0 33 16.5 58.5t40.5 44.5t49 32t41 20l20 -18q-43 -25 -64.5 -54.5t-21.5 -68.5q0 -34 18 -54t60 -20q55 0 95.5 32.5t68.5 89t44 127.5l12 52l50 132l1 127l82 65q16 3 32 0q-14 -40 -27.5 -91
t-21.5 -89l-40 -190q-20 -95 -69 -161t-114 -100t-135 -34zM183 515q-6 5 -9 10.5t-5 12.5q39 32 65.5 54.5t49.5 45t50 52.5q16 3 32 0q16 -31 27.5 -54t27 -46t43.5 -56q-6 -12 -19 -19q-41 23 -63 41.5t-48 39.5q-20 -12 -42 -25t-48 -27t-61 -29z" />
    <glyph glyph-name="Gbreve" unicode="&#x11e;" horiz-adv-x="763" 
d="M378 -15q-144 0 -223.5 73t-79.5 220q0 99 33 179.5t93.5 138t144 88.5t184.5 31q74 0 131.5 -14t90.5 -31l-37 -175q-16 -3 -32 0q2 95 -44 136.5t-124 41.5q-90 0 -161.5 -47.5t-112.5 -135.5t-41 -212q0 -76 18.5 -132.5t59.5 -87.5t109 -31q38 0 79.5 11t66.5 29
q15 57 24.5 104.5t13.5 93.5h-82q0 8 2.5 19t5.5 18q35 -1 72.5 -1.5t64.5 -0.5q35 0 59 0.5t58 1.5q0 -8 -2.5 -18.5t-5.5 -18.5h-52q-9 -31 -18.5 -64.5t-19 -72.5t-20.5 -88q-49 -23 -113.5 -39t-141.5 -16zM689 925q16 3 32 0q-16 -77 -60.5 -116t-104.5 -39
q-61 0 -93.5 44t-25.5 111q16 3 32 0q2 -43 29 -59t67 -16q38 0 70.5 15.5t53.5 59.5z" />
    <glyph glyph-name="gbreve" unicode="&#x11f;" horiz-adv-x="529" 
d="M167 5q-61 0 -95.5 36t-34.5 106q0 57 18.5 112t53 99.5t84.5 70.5t113 26q65 0 102.5 -25t54.5 -61l-45 -56q0 -56 -19 -111t-53 -99.5t-80 -71t-99 -26.5zM207 65q40 0 72 23t55 60.5t35 80.5t12 83q0 50 -18.5 76.5t-53.5 26.5q-37 0 -69 -25t-56 -65.5t-37.5 -85.5
t-13.5 -86q0 -46 21 -67t53 -21zM103 -225q-58 0 -97.5 25t-39.5 75q0 33 16.5 58.5t40.5 44.5t49 32t41 20l20 -18q-43 -25 -64.5 -54.5t-21.5 -68.5q0 -34 18 -54t60 -20q55 0 95.5 32.5t68.5 89t44 127.5l12 52l50 132l1 127l82 65q16 3 32 0q-14 -40 -27.5 -91
t-21.5 -89l-40 -190q-20 -95 -69 -161t-114 -100t-135 -34zM462 680q16 3 32 0q-18 -88 -63.5 -126.5t-102.5 -38.5q-67 0 -96.5 44t-21.5 121q16 3 32 0q-2 -50 25.5 -70t67.5 -20q38 0 73.5 19t53.5 71z" />
    <glyph glyph-name="Gdotaccent" unicode="&#x120;" horiz-adv-x="763" 
d="M378 -15q-144 0 -223.5 73t-79.5 220q0 99 33 179.5t93.5 138t144 88.5t184.5 31q74 0 131.5 -14t90.5 -31l-37 -175q-16 -3 -32 0q2 95 -44 136.5t-124 41.5q-90 0 -161.5 -47.5t-112.5 -135.5t-41 -212q0 -76 18.5 -132.5t59.5 -87.5t109 -31q38 0 79.5 11t66.5 29
q15 57 24.5 104.5t13.5 93.5h-82q0 8 2.5 19t5.5 18q35 -1 72.5 -1.5t64.5 -0.5q35 0 59 0.5t58 1.5q0 -8 -2.5 -18.5t-5.5 -18.5h-52q-9 -31 -18.5 -64.5t-19 -72.5t-20.5 -88q-49 -23 -113.5 -39t-141.5 -16zM575 909l48 -41l-14 -64l-60 -18l-48 41l14 64z" />
    <glyph glyph-name="gdotaccent" unicode="&#x121;" horiz-adv-x="529" 
d="M167 5q-61 0 -95.5 36t-34.5 106q0 57 18.5 112t53 99.5t84.5 70.5t113 26q65 0 102.5 -25t54.5 -61l-45 -56q0 -56 -19 -111t-53 -99.5t-80 -71t-99 -26.5zM207 65q40 0 72 23t55 60.5t35 80.5t12 83q0 50 -18.5 76.5t-53.5 26.5q-37 0 -69 -25t-56 -65.5t-37.5 -85.5
t-13.5 -86q0 -46 21 -67t53 -21zM103 -225q-58 0 -97.5 25t-39.5 75q0 33 16.5 58.5t40.5 44.5t49 32t41 20l20 -18q-43 -25 -64.5 -54.5t-21.5 -68.5q0 -34 18 -54t60 -20q55 0 95.5 32.5t68.5 89t44 127.5l12 52l50 132l1 127l82 65q16 3 32 0q-14 -40 -27.5 -91
t-21.5 -89l-40 -190q-20 -95 -69 -161t-114 -100t-135 -34zM350 669l48 -41l-14 -64l-60 -18l-48 41l14 64z" />
    <glyph glyph-name="uni0122" unicode="&#x122;" horiz-adv-x="763" 
d="M378 -15q-144 0 -223.5 73t-79.5 220q0 99 33 179.5t93.5 138t144 88.5t184.5 31q74 0 131.5 -14t90.5 -31l-37 -175q-16 -3 -32 0q2 95 -44 136.5t-124 41.5q-90 0 -161.5 -47.5t-112.5 -135.5t-41 -212q0 -76 18.5 -132.5t59.5 -87.5t109 -31q38 0 79.5 11t66.5 29
q15 57 24.5 104.5t13.5 93.5h-82q0 8 2.5 19t5.5 18q35 -1 72.5 -1.5t64.5 -0.5q35 0 59 0.5t58 1.5q0 -8 -2.5 -18.5t-5.5 -18.5h-52q-9 -31 -18.5 -64.5t-19 -72.5t-20.5 -88q-49 -23 -113.5 -39t-141.5 -16zM387 -44l42 -36l-7 -29q-10 -43 -38.5 -77t-71.5 -57
q-14 11 -17 27q25 15 41.5 32t25.5 37l-39 31l12 56z" />
    <glyph glyph-name="uni0123" unicode="&#x123;" horiz-adv-x="529" 
d="M167 5q-61 0 -95.5 36t-34.5 106q0 57 18.5 112t53 99.5t84.5 70.5t113 26q65 0 102.5 -25t54.5 -61l-45 -56q0 -56 -19 -111t-53 -99.5t-80 -71t-99 -26.5zM207 65q40 0 72 23t55 60.5t35 80.5t12 83q0 50 -18.5 76.5t-53.5 26.5q-37 0 -69 -25t-56 -65.5t-37.5 -85.5
t-13.5 -86q0 -46 21 -67t53 -21zM103 -225q-58 0 -97.5 25t-39.5 75q0 33 16.5 58.5t40.5 44.5t49 32t41 20l20 -18q-43 -25 -64.5 -54.5t-21.5 -68.5q0 -34 18 -54t60 -20q55 0 95.5 32.5t68.5 89t44 127.5l12 52l50 132l1 127l82 65q16 3 32 0q-14 -40 -27.5 -91
t-21.5 -89l-40 -190q-20 -95 -69 -161t-114 -100t-135 -34zM320 508l-42 36l7 29q10 43 38.5 77t71.5 57q14 -11 17 -27q-25 -15 -41.5 -32t-25.5 -37l39 -31l-12 -56z" />
    <glyph glyph-name="Hcircumflex" unicode="&#x124;" horiz-adv-x="812" 
d="M446 -2q0 8 2.5 19t5.5 18h72q15 47 26 88.5t21 86.5l60 280q8 38 15 80.5t12 94.5h-72q0 8 2.5 19t5.5 18q34 -1 68 -1.5t68 -0.5q35 0 69 0.5t69 1.5q0 -7 -2.5 -18t-5.5 -19h-72q-15 -46 -25.5 -85.5t-21.5 -89.5l-60 -280q-9 -41 -15.5 -84t-11.5 -91h72
q0 -8 -2.5 -18.5t-5.5 -18.5q-34 2 -68.5 2h-68.5h-68t-69 -2zM-4 -2q0 8 2.5 19t5.5 18h72q15 45 27 91t20 84l60 280q8 38 15 80.5t12 94.5h-72q0 8 2.5 19t5.5 18q34 -1 68 -1.5t68 -0.5q35 0 69 0.5t69 1.5q0 -7 -2.5 -18t-5.5 -19h-72q-15 -46 -25.5 -85.5t-21.5 -89.5
l-60 -280q-7 -37 -14.5 -80.5t-12.5 -94.5h72q0 -7 -2.5 -18t-5.5 -19q-34 2 -68 2h-69h-68t-69 -2zM191 350l8 40h444l-8 -40h-444zM366 762q-5 5 -8.5 10t-5.5 13q37 23 62 39.5t43.5 30.5t36.5 30.5t40 39.5q16 3 32 0q17 -31 30.5 -51.5t33.5 -41t55 -51.5
q-6 -13 -15 -19q-33 12 -55.5 22t-40.5 21t-38 25q-27 -14 -51 -25t-52 -21t-67 -22z" />
    <glyph glyph-name="hcircumflex" unicode="&#x125;" horiz-adv-x="551" 
d="M27 -5q7 29 13 55.5t11 51.5l88 418q7 34 12.5 70t7.5 73h-57q0 7 2.5 18.5t5.5 18.5q35 0 81.5 2.5t93.5 10.5q-11 -26 -22 -62t-19.5 -71t-14.5 -60l-88 -418q-5 -25 -9 -50.5t-6 -51.5q-26 0 -49.5 -1t-49.5 -4zM387 -15q-43 0 -59.5 30.5t-4.5 76.5l57 222
q9 35 0 55.5t-37 20.5q-30 0 -60.5 -22.5t-58 -62t-49 -92t-34.5 -111.5h-26q29 133 73 210t95.5 110t102.5 33q54 0 78.5 -32.5t5.5 -106.5l-57 -224q-6 -23 -3 -37.5t17 -14.5t31.5 15t40.5 51q9 -4 16 -8.5t14 -11.5q-24 -45 -62 -73t-80 -28zM77 752q-5 5 -8.5 10
t-5.5 13q37 23 62 39.5t43.5 30.5t36.5 30.5t40 39.5q16 3 32 0q17 -31 30.5 -51.5t33.5 -41t55 -51.5q-6 -13 -15 -19q-33 12 -55.5 22t-40.5 21t-38 25q-27 -14 -51 -25t-52 -21t-67 -22z" />
    <glyph glyph-name="Hbar" unicode="&#x126;" horiz-adv-x="820" 
d="M850 490h-761q0 13 3 25t7 25h761q0 -13 -2.5 -25t-7.5 -25zM452 -2q0 8 2.5 19t5.5 18h72q15 47 26 88.5t21 86.5l60 280q8 38 15 80.5t12 94.5h-72q0 8 2.5 19t5.5 18q34 -1 68 -1.5t68 -0.5q35 0 69 0.5t69 1.5q0 -7 -2.5 -18t-5.5 -19h-72q-15 -46 -25.5 -85.5
t-21.5 -89.5l-60 -280q-9 -41 -15.5 -84t-11.5 -91h72q0 -8 -2.5 -18.5t-5.5 -18.5q-34 2 -68.5 2h-68.5h-68t-69 -2zM2 -2q0 8 2.5 19t5.5 18h72q15 45 27 91t20 84l60 280q8 38 15 80.5t12 94.5h-72q0 8 2.5 19t5.5 18q34 -1 68 -1.5t68 -0.5q35 0 69 0.5t69 1.5
q0 -7 -2.5 -18t-5.5 -19h-72q-15 -46 -25.5 -85.5t-21.5 -89.5l-60 -280q-7 -37 -14.5 -80.5t-12.5 -94.5h72q0 -7 -2.5 -18t-5.5 -19q-34 2 -68 2h-69h-68t-69 -2zM197 350l8 40h444l-8 -40h-444z" />
    <glyph glyph-name="hbar" unicode="&#x127;" horiz-adv-x="555" 
d="M380 530h-308q0 13 3 25t7 25h308q0 -13 -2.5 -25t-7.5 -25zM31 -5q7 29 13 55.5t11 51.5l88 418q7 34 12.5 70t7.5 73h-57q0 7 2.5 18.5t5.5 18.5q35 0 81.5 2.5t93.5 10.5q-11 -26 -22 -62t-19.5 -71t-14.5 -60l-88 -418q-5 -25 -9 -50.5t-6 -51.5q-26 0 -49.5 -1
t-49.5 -4zM391 -15q-43 0 -59.5 30.5t-4.5 76.5l57 222q9 35 0 55.5t-37 20.5q-30 0 -60.5 -22.5t-58 -62t-49 -92t-34.5 -111.5h-26q29 133 73 210t95.5 110t102.5 33q54 0 78.5 -32.5t5.5 -106.5l-57 -224q-6 -23 -3 -37.5t17 -14.5t31.5 15t40.5 51q9 -4 16 -8.5
t14 -11.5q-24 -45 -62 -73t-80 -28z" />
    <glyph glyph-name="Itilde" unicode="&#x128;" horiz-adv-x="362" 
d="M-4 -2q0 8 2.5 19t5.5 18h72q15 45 27 91t20 84l60 280q8 38 15 80.5t12 94.5h-72q0 8 2.5 19t5.5 18q34 -1 68 -1.5t68 -0.5q35 0 69 0.5t69 1.5q0 -7 -2.5 -18t-5.5 -19h-72q-15 -46 -25.5 -85.5t-21.5 -89.5l-60 -280q-7 -37 -14.5 -80.5t-12.5 -94.5h72
q0 -7 -2.5 -18t-5.5 -19q-34 2 -68 2h-69h-68t-69 -2zM453 885q10 -2 16.5 -7t8.5 -8q-24 -61 -58 -80.5t-63 -19.5q-24 0 -40.5 8.5t-29 19t-25 19t-30.5 8.5q-16 0 -32 -9t-34 -42q-7 2 -13.5 5t-11.5 10q23 59 56 80t64 21q23 0 39.5 -8.5t29.5 -19t26.5 -19t31.5 -8.5
q16 0 31.5 9t33.5 41z" />
    <glyph glyph-name="itilde" unicode="&#x129;" horiz-adv-x="294" 
d="M127 -15q-43 0 -58.5 30t-5.5 77l36 168q7 30 11.5 61.5t8.5 81.5h-57q0 8 2.5 19t5.5 18q39 0 83 2.5t92 10.5q-11 -26 -22 -62t-19.5 -71t-14.5 -60l-36 -168q-5 -23 -2.5 -37.5t16.5 -14.5t31.5 15t40.5 51q9 -4 16 -8.5t14 -11.5q-24 -45 -62 -73t-80 -28zM347 655
q8 -2 14.5 -5t10.5 -8q-24 -62 -57 -82t-62 -20q-22 0 -37.5 8t-27.5 18.5t-24 18.5t-27 8q-16 0 -32 -8.5t-34 -40.5q-7 2 -14.5 6t-10.5 7q23 60 55 81.5t63 21.5q21 0 36.5 -8t28 -18.5t25.5 -18.5t28 -8q16 0 31.5 8.5t33.5 39.5z" />
    <glyph glyph-name="Imacron" unicode="&#x12a;" horiz-adv-x="362" 
d="M-4 -2q0 8 2.5 19t5.5 18h72q15 45 27 91t20 84l60 280q8 38 15 80.5t12 94.5h-72q0 8 2.5 19t5.5 18q34 -1 68 -1.5t68 -0.5q35 0 69 0.5t69 1.5q0 -7 -2.5 -18t-5.5 -19h-72q-15 -46 -25.5 -85.5t-21.5 -89.5l-60 -280q-7 -37 -14.5 -80.5t-12.5 -94.5h72
q0 -7 -2.5 -18t-5.5 -19q-34 2 -68 2h-69h-68t-69 -2zM440 785h-280q0 13 4 30t8 30h280q0 -13 -3.5 -30t-8.5 -30z" />
    <glyph glyph-name="imacron" unicode="&#x12b;" horiz-adv-x="294" 
d="M127 -15q-43 0 -58.5 30t-5.5 77l36 168q7 30 11.5 61.5t8.5 81.5h-57q0 8 2.5 19t5.5 18q39 0 83 2.5t92 10.5q-11 -26 -22 -62t-19.5 -71t-14.5 -60l-36 -168q-5 -23 -2.5 -37.5t16.5 -14.5t31.5 15t40.5 51q9 -4 16 -8.5t14 -11.5q-24 -45 -62 -73t-80 -28zM342 540
h-280q0 13 4 30t8 30h280q0 -13 -3.5 -30t-8.5 -30z" />
    <glyph glyph-name="Ibreve" unicode="&#x12c;" horiz-adv-x="362" 
d="M-4 -2q0 8 2.5 19t5.5 18h72q15 45 27 91t20 84l60 280q8 38 15 80.5t12 94.5h-72q0 8 2.5 19t5.5 18q34 -1 68 -1.5t68 -0.5q35 0 69 0.5t69 1.5q0 -7 -2.5 -18t-5.5 -19h-72q-15 -46 -25.5 -85.5t-21.5 -89.5l-60 -280q-7 -37 -14.5 -80.5t-12.5 -94.5h72
q0 -7 -2.5 -18t-5.5 -19q-34 2 -68 2h-69h-68t-69 -2zM440 925q16 3 32 0q-16 -77 -60.5 -116t-104.5 -39q-61 0 -93.5 44t-25.5 111q16 3 32 0q2 -43 29 -59t67 -16q38 0 70.5 15.5t53.5 59.5z" />
    <glyph glyph-name="ibreve" unicode="&#x12d;" horiz-adv-x="294" 
d="M127 -15q-43 0 -58.5 30t-5.5 77l36 168q7 30 11.5 61.5t8.5 81.5h-57q0 8 2.5 19t5.5 18q39 0 83 2.5t92 10.5q-11 -26 -22 -62t-19.5 -71t-14.5 -60l-36 -168q-5 -23 -2.5 -37.5t16.5 -14.5t31.5 15t40.5 51q9 -4 16 -8.5t14 -11.5q-24 -45 -62 -73t-80 -28zM341 680
q16 3 32 0q-18 -88 -63.5 -126.5t-102.5 -38.5q-67 0 -96.5 44t-21.5 121q16 3 32 0q-2 -50 25.5 -70t67.5 -20q38 0 73.5 19t53.5 71z" />
    <glyph glyph-name="Iogonek" unicode="&#x12e;" horiz-adv-x="362" 
d="M-4 -2q0 8 2.5 19t5.5 18h72q15 45 27 91t20 84l60 280q8 38 15 80.5t12 94.5h-72q0 8 2.5 19t5.5 18q34 -1 68 -1.5t68 -0.5q35 0 69 0.5t69 1.5q0 -7 -2.5 -18t-5.5 -19h-72q-15 -46 -25.5 -85.5t-21.5 -89.5l-60 -280q-7 -37 -14.5 -80.5t-12.5 -94.5h72
q0 -7 -2.5 -18t-5.5 -19q-34 2 -68 2h-69h-68t-69 -2zM60 -225q-35 0 -60 21.5t-25 52.5q0 47 30.5 80t79 55.5t101.5 36.5l14 -21q-64 -20 -100.5 -54.5t-36.5 -75.5q0 -17 11 -28t33 -11q12 0 28 4.5t36 15.5q5 -5 8 -12.5t4 -16.5q-25 -19 -58 -33t-65 -14z" />
    <glyph glyph-name="iogonek" unicode="&#x12f;" horiz-adv-x="294" 
d="M127 -15q-43 0 -58.5 30t-5.5 77l36 168q7 30 11.5 61.5t8.5 81.5h-57q0 8 2.5 19t5.5 18q39 0 83 2.5t92 10.5q-11 -26 -22 -62t-19.5 -71t-14.5 -60l-36 -168q-5 -23 -2.5 -37.5t16.5 -14.5t31.5 15t40.5 51q9 -4 16 -8.5t14 -11.5q-24 -45 -62 -73t-80 -28zM229 669
l48 -41l-14 -64l-60 -18l-48 41l14 64zM44 -225q-35 0 -60 21.5t-25 52.5q0 47 30.5 80t79 55.5t101.5 36.5l14 -21q-64 -20 -100.5 -54.5t-36.5 -75.5q0 -17 11 -28t33 -11q12 0 28 4.5t36 15.5q5 -5 8 -12.5t4 -16.5q-25 -19 -58 -33t-65 -14z" />
    <glyph glyph-name="Idotaccent" unicode="&#x130;" horiz-adv-x="362" 
d="M-4 -2q0 8 2.5 19t5.5 18h72q15 45 27 91t20 84l60 280q8 38 15 80.5t12 94.5h-72q0 8 2.5 19t5.5 18q34 -1 68 -1.5t68 -0.5q35 0 69 0.5t69 1.5q0 -7 -2.5 -18t-5.5 -19h-72q-15 -46 -25.5 -85.5t-21.5 -89.5l-60 -280q-7 -37 -14.5 -80.5t-12.5 -94.5h72
q0 -7 -2.5 -18t-5.5 -19q-34 2 -68 2h-69h-68t-69 -2zM326 909l48 -41l-14 -64l-60 -18l-48 41l14 64z" />
    <glyph glyph-name="dotlessi" unicode="&#x131;" horiz-adv-x="294" 
d="M127 -15q-43 0 -58.5 30t-5.5 77l36 168q7 30 11.5 61.5t8.5 81.5h-57q0 8 2.5 19t5.5 18q39 0 83 2.5t92 10.5q-11 -26 -22 -62t-19.5 -71t-14.5 -60l-36 -168q-5 -23 -2.5 -37.5t16.5 -14.5t31.5 15t40.5 51q9 -4 16 -8.5t14 -11.5q-24 -45 -62 -73t-80 -28z" />
    <glyph glyph-name="IJ" unicode="&#x132;" horiz-adv-x="818" 
d="M-4 -2q0 8 2.5 19t5.5 18h72q15 45 27 91t20 84l60 280q8 38 15 80.5t12 94.5h-72q0 8 2.5 19t5.5 18q34 -1 68 -1.5t68 -0.5q35 0 69 0.5t69 1.5q0 -7 -2.5 -18t-5.5 -19h-72q-15 -46 -25.5 -85.5t-21.5 -89.5l-60 -280q-7 -37 -14.5 -80.5t-12.5 -94.5h72
q0 -7 -2.5 -18t-5.5 -19q-34 2 -68 2h-69h-68t-69 -2zM487 -15q-37 0 -64.5 8.5t-44 27.5t-21 49.5t4.5 74.5h105q-15 -69 -8.5 -97t35.5 -28q32 0 51 32t32 93l73 345q9 41 16.5 85.5t11.5 89.5h-92q0 7 2 18t5 19q50 -1 86.5 -1.5t70.5 -0.5q35 0 69 0.5t68 1.5
q0 -7 -2 -18t-5 -19h-72q-16 -50 -27 -90t-21 -85l-73 -345q-9 -41 -27 -71.5t-44 -50t-58.5 -29t-70.5 -9.5z" />
    <glyph glyph-name="ij" unicode="&#x133;" horiz-adv-x="556" 
d="M127 -15q-43 0 -58.5 30t-5.5 77l36 168q7 30 11.5 61.5t8.5 81.5h-57q0 8 2.5 19t5.5 18q39 0 83 2.5t92 10.5q-11 -26 -22 -62t-19.5 -71t-14.5 -60l-36 -168q-5 -23 -2.5 -37.5t16.5 -14.5t31.5 15t40.5 51q9 -4 16 -8.5t14 -11.5q-24 -45 -62 -73t-80 -28zM229 669
l48 -41l-14 -64l-60 -18l-48 41l14 64zM202 -225q-4 7 -6.5 17.5t-2.5 20.5q63 18 100.5 76t61.5 171l42 200q8 36 13 71t7 72h-57q1 8 3 18.5t5 18.5q38 0 83 2.5t92 10.5q-12 -27 -22.5 -62.5t-19 -70.5t-14.5 -60l-34 -156q-12 -55 -26.5 -107.5t-40 -97t-69.5 -77
t-115 -47.5zM527 669l48 -41l-14 -64l-60 -18l-48 41l14 64z" />
    <glyph glyph-name="Jcircumflex" unicode="&#x134;" horiz-adv-x="456" 
d="M125 -15q-37 0 -64.5 8.5t-44 27.5t-21 49.5t4.5 74.5h105q-15 -69 -8.5 -97t35.5 -28q32 0 51 32t32 93l73 345q9 41 16.5 85.5t11.5 89.5h-92q0 7 2 18t5 19q50 -1 86.5 -1.5t70.5 -0.5q35 0 69 0.5t68 1.5q0 -7 -2 -18t-5 -19h-72q-16 -50 -27 -90t-21 -85l-73 -345
q-9 -41 -27 -71.5t-44 -50t-58.5 -29t-70.5 -9.5zM242 762q-5 5 -8.5 10t-5.5 13q37 23 62 39.5t43.5 30.5t36.5 30.5t40 39.5q16 3 32 0q17 -31 30.5 -51.5t33.5 -41t55 -51.5q-6 -13 -15 -19q-33 12 -55.5 22t-40.5 21t-38 25q-27 -14 -51 -25t-52 -21t-67 -22z" />
    <glyph glyph-name="jcircumflex" unicode="&#x135;" horiz-adv-x="262" 
d="M-92 -225q-4 7 -6.5 17.5t-2.5 20.5q63 18 100.5 76t61.5 171l42 200q8 36 13 71t7 72h-57q1 8 3 18.5t5 18.5q38 0 83 2.5t92 10.5q-12 -27 -22.5 -62.5t-19 -70.5t-14.5 -60l-34 -156q-12 -55 -26.5 -107.5t-40 -97t-69.5 -77t-115 -47.5zM66 515q-6 5 -9 10.5t-5 12.5
q39 32 65.5 54.5t49.5 45t50 52.5q16 3 32 0q16 -31 27.5 -54t27 -46t43.5 -56q-6 -12 -19 -19q-41 23 -63 41.5t-48 39.5q-20 -12 -42 -25t-48 -27t-61 -29z" />
    <glyph glyph-name="uni0136" unicode="&#x136;" horiz-adv-x="697" 
d="M-4 -2q0 8 2.5 19t5.5 18h72q15 45 27 91t20 84l60 280q8 38 15 80.5t12 94.5h-72q0 8 2.5 19t5.5 18q34 -1 68 -1.5t68 -0.5q35 0 69 0.5t69 1.5q0 -7 -2.5 -18t-5.5 -19h-72q-15 -46 -25.5 -85.5t-21.5 -89.5l-60 -280q-7 -37 -14.5 -80.5t-12.5 -94.5h72
q0 -7 -2.5 -18t-5.5 -19q-34 2 -68 2h-69h-68t-69 -2zM551 -10q-59 0 -78 29t-21 88l-4 136q-1 35 -9 58.5t-31 36t-71 12.5h-79l8 40h62q50 0 91.5 18t63.5 47q20 26 40.5 58.5t36.5 68.5q9 20 15 42t9 41h-68q0 8 2.5 19t5.5 18q41 -1 66 -1.5t44 -0.5q20 0 50.5 0.5
t73.5 1.5q0 -7 -2.5 -18t-5.5 -19h-76q-13 -11 -27 -29.5t-31 -49.5q-10 -18 -24 -44t-30.5 -53.5t-34.5 -50.5q-21 -27 -43.5 -39.5t-45.5 -17.5q70 -4 95 -34.5t27 -83.5l6 -156q2 -41 17 -55t59 -17q-1 -8 -2.5 -17t-5.5 -18q-23 -7 -41.5 -8.5t-41.5 -1.5zM360 -44
l42 -36l-7 -29q-10 -43 -38.5 -77t-71.5 -57q-14 11 -17 27q25 15 41.5 32t25.5 37l-39 31l12 56z" />
    <glyph glyph-name="uni0137" unicode="&#x137;" horiz-adv-x="525" 
d="M27 -5l7 31.5t7 30.5t10 45l88 418q7 34 12.5 70t7.5 73h-57q0 7 2.5 18.5t5.5 18.5q35 0 81.5 2.5t93.5 10.5q-11 -27 -22 -63t-20 -71t-14 -59l-88 -418q-5 -25 -9 -50.5t-6 -51.5q-26 0 -49.5 -1t-49.5 -4zM295 51l-6 52q-5 43 -35 60t-68 17h-34l8 25h103
q50 0 79 -21.5t35 -66.5l6 -44q2 -12 6.5 -22.5t17.5 -10.5q14 0 31 15t40 51q9 -4 16 -8.5t14 -11.5q-24 -45 -55.5 -73t-79.5 -28q-41 0 -58 20t-20 46zM166 195l1 20q68 0 119 19t79.5 49.5t28.5 64.5q0 22 -12.5 34.5t-36.5 12.5q-31 0 -68 -24t-66.5 -67t-41.5 -99h-29
q21 87 61.5 142t90 81.5t95.5 26.5q41 0 67.5 -20.5t26.5 -64.5q0 -42 -29.5 -78.5t-83 -62t-124.5 -34.5h-78zM216 -44l42 -36l-7 -29q-10 -43 -38.5 -77t-71.5 -57q-14 11 -17 27q25 15 41.5 32t25.5 37l-39 31l12 56z" />
    <glyph glyph-name="kgreenlandic" unicode="&#x138;" horiz-adv-x="523" 
d="M367 -10q-37 0 -54 11.5t-20.5 33.5t-2.5 52l2 66q1 18 -4.5 34.5t-24 27t-58.5 10.5h-39l8 35h49q26 0 50.5 14t49.5 42q28 30 40.5 50.5t19.5 38.5h-58q0 7 2.5 18.5t5.5 18.5q28 -1 40 -1.5t19.5 -0.5h19.5q17 0 44 0.5t63 1.5q0 -7 -2.5 -18.5t-5.5 -18.5h-47
q-37 -28 -68.5 -62.5t-58.5 -62.5t-54 -37l-29 7q54 8 82 -5t38.5 -38t9.5 -54l-1 -56q0 -36 9.5 -48t39.5 -13q-1 -9 -2.5 -18t-5.5 -18q-12 -4 -28 -7t-29 -3zM27 -5l7 31.5t7 30.5t10 45l33 158q7 34 12.5 70t7.5 73h-57q0 7 2.5 18.5t5.5 18.5q35 0 81.5 2.5t93.5 10.5
q-11 -27 -22 -63t-20 -71t-14 -59l-33 -158q-5 -25 -9 -50.5t-6 -51.5q-26 0 -49.5 -1t-49.5 -4z" />
    <glyph glyph-name="Lacute" unicode="&#x139;" horiz-adv-x="577" 
d="M-4 -2q0 8 2.5 19t5.5 18h72q15 45 27 91t20 84l60 280q8 38 15 80.5t12 94.5h-72q0 8 2.5 19t5.5 18q34 -1 68 -1.5t68 -0.5q35 0 69 0.5t69 1.5q0 -7 -2.5 -18t-5.5 -19h-72q-15 -46 -25.5 -85.5t-21.5 -89.5l-60 -280q-7 -37 -14.5 -80.5t-12.5 -94.5h133
q77 0 115.5 42t60.5 128q16 3 32 0l-44 -205h-370h-68t-69 -2zM496 925q-24 -38 -61.5 -63.5t-75.5 -46t-67 -45.5q-16 -3 -32 0q35 38 61.5 73.5t49.5 81.5h125z" />
    <glyph glyph-name="lacute" unicode="&#x13a;" horiz-adv-x="278" 
d="M113 -15q-43 0 -58.5 30t-5.5 77l90 428q7 34 12.5 70t7.5 73h-57q0 7 2.5 18.5t5.5 18.5q35 0 81.5 2.5t93.5 10.5q-11 -27 -22 -63t-20 -71t-14 -59l-90 -428q-5 -23 -2.5 -37.5t16.5 -14.5t31.5 15t40.5 51q9 -4 16 -8.5t14 -11.5q-24 -45 -62 -73t-80 -28zM414 950
q-19 -34 -51 -61t-65.5 -52.5t-60.5 -56.5q-16 -3 -32 0q35 47 56.5 87t37.5 83h115z" />
    <glyph glyph-name="uni013B" unicode="&#x13b;" horiz-adv-x="577" 
d="M-4 -2q0 8 2.5 19t5.5 18h72q15 45 27 91t20 84l60 280q8 38 15 80.5t12 94.5h-72q0 8 2.5 19t5.5 18q34 -1 68 -1.5t68 -0.5q35 0 69 0.5t69 1.5q0 -7 -2.5 -18t-5.5 -19h-72q-15 -46 -25.5 -85.5t-21.5 -89.5l-60 -280q-7 -37 -14.5 -80.5t-12.5 -94.5h133
q77 0 115.5 42t60.5 128q16 3 32 0l-44 -205h-370h-68t-69 -2zM302 -44l42 -36l-7 -29q-10 -43 -38.5 -77t-71.5 -57q-14 11 -17 27q25 15 41.5 32t25.5 37l-39 31l12 56z" />
    <glyph glyph-name="uni013C" unicode="&#x13c;" horiz-adv-x="278" 
d="M113 -15q-43 0 -58.5 30t-5.5 77l90 428q7 34 12.5 70t7.5 73h-57q0 7 2.5 18.5t5.5 18.5q35 0 81.5 2.5t93.5 10.5q-11 -27 -22 -63t-20 -71t-14 -59l-90 -428q-5 -23 -2.5 -37.5t16.5 -14.5t31.5 15t40.5 51q9 -4 16 -8.5t14 -11.5q-24 -45 -62 -73t-80 -28zM118 -44
l42 -36l-7 -29q-10 -43 -38.5 -77t-71.5 -57q-14 11 -17 27q25 15 41.5 32t25.5 37l-39 31l12 56z" />
    <glyph glyph-name="Lcaron" unicode="&#x13d;" horiz-adv-x="577" 
d="M516 692l54 25l41 -45l-11 -49q-20 -37 -37 -75.5t-30 -77.5q-15 0 -29 6q4 41 4.5 82.5t-3.5 84.5zM-4 -2q0 8 2.5 19t5.5 18h72q15 45 27 91t20 84l60 280q8 38 15 80.5t12 94.5h-72q0 8 2.5 19t5.5 18q34 -1 68 -1.5t68 -0.5q35 0 69 0.5t69 1.5q0 -7 -2.5 -18
t-5.5 -19h-72q-15 -46 -25.5 -85.5t-21.5 -89.5l-60 -280q-7 -37 -14.5 -80.5t-12.5 -94.5h133q77 0 115.5 42t60.5 128q16 3 32 0l-44 -205h-370h-68t-69 -2z" />
    <glyph glyph-name="lcaron" unicode="&#x13e;" horiz-adv-x="308" 
d="M326 692l54 25l41 -45l-11 -49q-20 -37 -37 -75.5t-30 -77.5q-15 0 -29 6q4 41 4.5 82.5t-3.5 84.5zM113 -15q-43 0 -58.5 30t-5.5 77l90 428q7 34 12.5 70t7.5 73h-57q0 7 2.5 18.5t5.5 18.5q35 0 81.5 2.5t93.5 10.5q-11 -27 -22 -63t-20 -71t-14 -59l-90 -428
q-5 -23 -2.5 -37.5t16.5 -14.5t31.5 15t40.5 51q9 -4 16 -8.5t14 -11.5q-24 -45 -62 -73t-80 -28z" />
    <glyph glyph-name="Ldot" unicode="&#x13f;" horiz-adv-x="577" 
d="M-4 -2q0 8 2.5 19t5.5 18h72q15 45 27 91t20 84l60 280q8 38 15 80.5t12 94.5h-72q0 8 2.5 19t5.5 18q34 -1 68 -1.5t68 -0.5q35 0 69 0.5t69 1.5q0 -7 -2.5 -18t-5.5 -19h-72q-15 -46 -25.5 -85.5t-21.5 -89.5l-60 -280q-7 -37 -14.5 -80.5t-12.5 -94.5h133
q77 0 115.5 42t60.5 128q16 3 32 0l-44 -205h-370h-68t-69 -2zM375 429l48 -41l-14 -64l-60 -18l-48 41l14 64z" />
    <glyph glyph-name="ldot" unicode="&#x140;" horiz-adv-x="289" 
d="M113 -15q-43 0 -58.5 30t-5.5 77l90 428q7 34 12.5 70t7.5 73h-57q0 7 2.5 18.5t5.5 18.5q35 0 81.5 2.5t93.5 10.5q-11 -27 -22 -63t-20 -71t-14 -59l-90 -428q-5 -23 -2.5 -37.5t16.5 -14.5t31.5 15t40.5 51q9 -4 16 -8.5t14 -11.5q-24 -45 -62 -73t-80 -28zM301 382
l48 -41l-14 -64l-60 -18l-48 41l14 64z" />
    <glyph glyph-name="Lslash" unicode="&#x141;" horiz-adv-x="618" 
d="M186 305l-3 -30q-34 -10 -54 -25t-30 -34t-15 -43q-21 -4 -35 -4t-35 4q11 41 51 77t121 55zM291 299l3 30q22 8 50.5 22.5t55.5 37t46.5 55t23.5 76.5q22 4 38 4t37 -4q-8 -47 -34.5 -84t-64 -64t-78.5 -45t-77 -28zM37 -2q0 8 2.5 19t5.5 18h72q15 45 27 91t20 84
l60 280q8 38 15 80.5t12 94.5h-72q0 8 2.5 19t5.5 18q34 -1 68 -1.5t68 -0.5q35 0 69 0.5t69 1.5q0 -7 -2.5 -18t-5.5 -19h-72q-15 -46 -25.5 -85.5t-21.5 -89.5l-60 -280q-7 -37 -14.5 -80.5t-12.5 -94.5h133q77 0 115.5 42t60.5 128q16 3 32 0l-44 -205h-370h-68t-69 -2z
" />
    <glyph glyph-name="lslash" unicode="&#x142;" horiz-adv-x="358" 
d="M235 307l7 30q25 20 37 36.5t17.5 34.5t10.5 41q31 5 61 0q-6 -28 -25 -51.5t-47 -45.5t-61 -45zM145 285l-7 -30q-27 -20 -40.5 -36.5t-19 -34t-10.5 -41.5q-30 -5 -61 0q9 42 47.5 75t90.5 67zM166 -15q-43 0 -58.5 30t-5.5 77l90 428q7 34 12.5 70t7.5 73h-57
q0 7 2.5 18.5t5.5 18.5q35 0 81.5 2.5t93.5 10.5q-11 -27 -22 -63t-20 -71t-14 -59l-90 -428q-5 -23 -2.5 -37.5t16.5 -14.5t31.5 15t40.5 51q9 -4 16 -8.5t14 -11.5q-24 -45 -62 -73t-80 -28z" />
    <glyph glyph-name="Nacute" unicode="&#x143;" horiz-adv-x="784" 
d="M566 0q-8 40 -19.5 71.5t-31.5 70.5l-247 493l-17 65q33 0 61.5 0.5t55.5 1.5q6 -25 15.5 -50t27.5 -61l203 -408l5 -183q-15 -2 -27 -2t-26 2zM-3 -2q0 8 2.5 19t5.5 18h67q18 47 30 88.5t22 86.5l60 280q8 37 13.5 80t8.5 95h-67q0 8 2.5 19t5.5 18q34 -1 60 -1.5
t44 -0.5l17 -65q-9 -31 -19 -69t-18 -76l-60 -280q-7 -37 -13.5 -78t-8.5 -97h77q0 -7 -2.5 -18t-5.5 -19q-34 2 -65 2h-51h-44t-61 -2zM619 0l-5 183l63 307q9 44 14 83.5t8 91.5h-77q0 8 2.5 19t5.5 18q34 -1 65.5 -1.5t50.5 -0.5q17 0 43.5 0.5t61.5 1.5q0 -7 -2.5 -18
t-5.5 -19h-67q-13 -35 -22 -62t-16 -53t-14 -60zM701 925q-24 -38 -61.5 -63.5t-75.5 -46t-67 -45.5q-16 -3 -32 0q35 38 61.5 73.5t49.5 81.5h125z" />
    <glyph glyph-name="nacute" unicode="&#x144;" horiz-adv-x="569" 
d="M45 -5q7 29 13 55.5t11 51.5l34 158q7 30 11.5 61.5t8.5 81.5h-57q0 8 2.5 19t5.5 18q39 0 80.5 2.5t89.5 10.5q-15 -36 -24 -63t-14.5 -56.5t-12.5 -73.5l-34 -158q-5 -25 -9 -50.5t-6 -51.5q-26 0 -49.5 -1t-49.5 -4zM405 -15q-43 0 -59.5 30.5t-4.5 76.5l57 222
q9 35 0 55.5t-37 20.5q-30 0 -60.5 -22.5t-58 -62t-49 -92t-34.5 -111.5h-26q29 133 73 210t95.5 110t102.5 33q54 0 78.5 -32.5t5.5 -106.5l-57 -224q-6 -23 -3 -37.5t17 -14.5t31.5 15t40.5 51q9 -4 16 -8.5t14 -11.5q-24 -45 -62 -73t-80 -28zM537 690q-19 -34 -51 -61
t-65.5 -52.5t-60.5 -56.5q-16 -3 -32 0q35 47 56.5 87t37.5 83h115z" />
    <glyph glyph-name="uni0145" unicode="&#x145;" horiz-adv-x="784" 
d="M566 0q-8 40 -19.5 71.5t-31.5 70.5l-247 493l-17 65q33 0 61.5 0.5t55.5 1.5q6 -25 15.5 -50t27.5 -61l203 -408l5 -183q-15 -2 -27 -2t-26 2zM-3 -2q0 8 2.5 19t5.5 18h67q18 47 30 88.5t22 86.5l60 280q8 37 13.5 80t8.5 95h-67q0 8 2.5 19t5.5 18q34 -1 60 -1.5
t44 -0.5l17 -65q-9 -31 -19 -69t-18 -76l-60 -280q-7 -37 -13.5 -78t-8.5 -97h77q0 -7 -2.5 -18t-5.5 -19q-34 2 -65 2h-51h-44t-61 -2zM619 0l-5 183l63 307q9 44 14 83.5t8 91.5h-77q0 8 2.5 19t5.5 18q34 -1 65.5 -1.5t50.5 -0.5q17 0 43.5 0.5t61.5 1.5q0 -7 -2.5 -18
t-5.5 -19h-67q-13 -35 -22 -62t-16 -53t-14 -60zM387 -44l42 -36l-7 -29q-10 -43 -38.5 -77t-71.5 -57q-14 11 -17 27q25 15 41.5 32t25.5 37l-39 31l12 56z" />
    <glyph glyph-name="uni0146" unicode="&#x146;" horiz-adv-x="569" 
d="M45 -5q7 29 13 55.5t11 51.5l34 158q7 30 11.5 61.5t8.5 81.5h-57q0 8 2.5 19t5.5 18q39 0 80.5 2.5t89.5 10.5q-15 -36 -24 -63t-14.5 -56.5t-12.5 -73.5l-34 -158q-5 -25 -9 -50.5t-6 -51.5q-26 0 -49.5 -1t-49.5 -4zM405 -15q-43 0 -59.5 30.5t-4.5 76.5l57 222
q9 35 0 55.5t-37 20.5q-30 0 -60.5 -22.5t-58 -62t-49 -92t-34.5 -111.5h-26q29 133 73 210t95.5 110t102.5 33q54 0 78.5 -32.5t5.5 -106.5l-57 -224q-6 -23 -3 -37.5t17 -14.5t31.5 15t40.5 51q9 -4 16 -8.5t14 -11.5q-24 -45 -62 -73t-80 -28zM244 -44l42 -36l-7 -29
q-10 -43 -38.5 -77t-71.5 -57q-14 11 -17 27q25 15 41.5 32t25.5 37l-39 31l12 56z" />
    <glyph glyph-name="Ncaron" unicode="&#x147;" horiz-adv-x="784" 
d="M566 0q-8 40 -19.5 71.5t-31.5 70.5l-247 493l-17 65q33 0 61.5 0.5t55.5 1.5q6 -25 15.5 -50t27.5 -61l203 -408l5 -183q-15 -2 -27 -2t-26 2zM-3 -2q0 8 2.5 19t5.5 18h67q18 47 30 88.5t22 86.5l60 280q8 37 13.5 80t8.5 95h-67q0 8 2.5 19t5.5 18q34 -1 60 -1.5
t44 -0.5l17 -65q-9 -31 -19 -69t-18 -76l-60 -280q-7 -37 -13.5 -78t-8.5 -97h77q0 -7 -2.5 -18t-5.5 -19q-34 2 -65 2h-51h-44t-61 -2zM619 0l-5 183l63 307q9 44 14 83.5t8 91.5h-77q0 8 2.5 19t5.5 18q34 -1 65.5 -1.5t50.5 -0.5q17 0 43.5 0.5t61.5 1.5q0 -7 -2.5 -18
t-5.5 -19h-67q-13 -35 -22 -62t-16 -53t-14 -60zM691 933q5 -4 9 -9.5t5 -13.5q-37 -23 -62 -39.5t-43.5 -30.5t-36.5 -30.5t-40 -39.5q-16 -3 -32 0q-16 31 -30 51.5t-34 41t-55 51.5q6 13 15 19q33 -12 55.5 -22t41 -21t37.5 -25q27 15 51 26t52 21t67 21z" />
    <glyph glyph-name="ncaron" unicode="&#x148;" horiz-adv-x="569" 
d="M45 -5q7 29 13 55.5t11 51.5l34 158q7 30 11.5 61.5t8.5 81.5h-57q0 8 2.5 19t5.5 18q39 0 80.5 2.5t89.5 10.5q-15 -36 -24 -63t-14.5 -56.5t-12.5 -73.5l-34 -158q-5 -25 -9 -50.5t-6 -51.5q-26 0 -49.5 -1t-49.5 -4zM405 -15q-43 0 -59.5 30.5t-4.5 76.5l57 222
q9 35 0 55.5t-37 20.5q-30 0 -60.5 -22.5t-58 -62t-49 -92t-34.5 -111.5h-26q29 133 73 210t95.5 110t102.5 33q54 0 78.5 -32.5t5.5 -106.5l-57 -224q-6 -23 -3 -37.5t17 -14.5t31.5 15t40.5 51q9 -4 16 -8.5t14 -11.5q-24 -45 -62 -73t-80 -28zM533 695q6 -5 9.5 -10
t4.5 -13q-39 -31 -65.5 -54t-49 -45t-50.5 -53q-16 -3 -32 0q-15 32 -27 54.5t-27.5 45.5t-43.5 56q6 12 19 19q41 -22 63 -41t48 -40q21 12 42.5 25t48 27t60.5 29z" />
    <glyph glyph-name="Eng" unicode="&#x14a;" horiz-adv-x="784" 
d="M746 700q17 0 43.5 0.5t61.5 1.5q0 -7 -2.5 -18t-5.5 -19h-67q-13 -35 -22 -62t-16 -53t-14 -60l-121 -565q-10 -50 -38 -83.5t-68.5 -50t-91.5 -16.5q-49 0 -81.5 15.5t-44 51t0.5 93.5h105q-14 -69 -6.5 -93.5t38.5 -24.5q27 0 44.5 20.5t29.5 77.5l41 192
q-4 8 -8 16.5t-9 18.5l-247 493q-9 -31 -19 -69t-18 -76l-60 -280q-7 -37 -13.5 -78t-8.5 -97h77q0 -7 -2.5 -18t-5.5 -19q-34 2 -65 2h-51h-44t-61 -2q0 8 2.5 19t5.5 18h67q18 47 30 88.5t22 86.5l60 280q8 37 13.5 80t8.5 95h-67q0 8 2.5 19t5.5 18q34 -1 60 -1.5
t44 -0.5q33 0 61.5 0.5t55.5 1.5q6 -25 15.5 -50t27.5 -61l203 -408l63 307q9 44 14 83.5t8 91.5h-77q0 8 2.5 19t5.5 18q34 -1 65.5 -1.5t50.5 -0.5z" />
    <glyph glyph-name="eng" unicode="&#x14b;" horiz-adv-x="539" 
d="M45 -5q7 29 13 55.5t11 51.5l34 158q7 30 11.5 61.5t8.5 81.5h-57q0 8 2.5 19t5.5 18q39 0 80.5 2.5t89.5 10.5q-15 -36 -24 -63t-14.5 -56.5t-12.5 -73.5l-34 -158q-5 -25 -9 -50.5t-6 -51.5q-26 0 -49.5 -1t-49.5 -4zM404 455q54 0 77.5 -32.5t7.5 -106.5l-45 -212
q-12 -55 -26.5 -107.5t-40 -97t-69.5 -77t-115 -47.5q-4 7 -6.5 17.5t-2.5 20.5q63 18 101 76t61 171l53 254q8 35 -1 55.5t-37 20.5q-30 0 -60.5 -22.5t-58 -62t-49 -92t-34.5 -111.5h-26q29 133 73 210t95.5 110t102.5 33z" />
    <glyph glyph-name="Omacron" unicode="&#x14c;" horiz-adv-x="802" 
d="M484 715q87 0 154 -32t105 -98t38 -167q0 -84 -27.5 -161.5t-80 -138.5t-128.5 -97t-173 -36q-87 0 -154 32t-105 98t-38 167q0 84 27.5 161.5t80 138.5t128.5 97t173 36zM373 27q82 0 145.5 51.5t100.5 142t37 206.5q0 71 -16.5 126.5t-54.5 87.5t-102 32
q-81 0 -145 -51.5t-101 -141.5t-37 -207q0 -70 16.5 -126t54.5 -88t102 -32zM648 785h-280q0 13 4 30t8 30h280q0 -13 -3.5 -30t-8.5 -30z" />
    <glyph glyph-name="omacron" unicode="&#x14d;" horiz-adv-x="521" 
d="M313 415q-42 0 -75.5 -26.5t-56.5 -68t-35 -89t-12 -89.5q0 -57 18 -87t56 -30v-40q-82 0 -126.5 46.5t-44.5 123.5q0 59 20.5 113t58 96t88 66.5t109.5 24.5v-40zM208 25q42 0 75.5 26.5t56.5 68t35 89t12 89.5q0 57 -18 87t-56 30v40q82 0 126.5 -46.5t44.5 -123.5
q0 -59 -20.5 -113t-58 -96t-88 -66.5t-109.5 -24.5v40zM470 540h-280q0 13 4 30t8 30h280q0 -13 -3.5 -30t-8.5 -30z" />
    <glyph glyph-name="Obreve" unicode="&#x14e;" horiz-adv-x="802" 
d="M484 715q87 0 154 -32t105 -98t38 -167q0 -84 -27.5 -161.5t-80 -138.5t-128.5 -97t-173 -36q-87 0 -154 32t-105 98t-38 167q0 84 27.5 161.5t80 138.5t128.5 97t173 36zM373 27q82 0 145.5 51.5t100.5 142t37 206.5q0 71 -16.5 126.5t-54.5 87.5t-102 32
q-81 0 -145 -51.5t-101 -141.5t-37 -207q0 -70 16.5 -126t54.5 -88t102 -32zM648 925q16 3 32 0q-16 -77 -60.5 -116t-104.5 -39q-61 0 -93.5 44t-25.5 111q16 3 32 0q2 -43 29 -59t67 -16q38 0 70.5 15.5t53.5 59.5z" />
    <glyph glyph-name="obreve" unicode="&#x14f;" horiz-adv-x="521" 
d="M313 415q-42 0 -75.5 -26.5t-56.5 -68t-35 -89t-12 -89.5q0 -57 18 -87t56 -30v-40q-82 0 -126.5 46.5t-44.5 123.5q0 59 20.5 113t58 96t88 66.5t109.5 24.5v-40zM208 25q42 0 75.5 26.5t56.5 68t35 89t12 89.5q0 57 -18 87t-56 30v40q82 0 126.5 -46.5t44.5 -123.5
q0 -59 -20.5 -113t-58 -96t-88 -66.5t-109.5 -24.5v40zM469 680q16 3 32 0q-18 -88 -63.5 -126.5t-102.5 -38.5q-67 0 -96.5 44t-21.5 121q16 3 32 0q-2 -50 25.5 -70t67.5 -20q38 0 73.5 19t53.5 71z" />
    <glyph glyph-name="Ohungarumlaut" unicode="&#x150;" horiz-adv-x="802" 
d="M484 715q87 0 154 -32t105 -98t38 -167q0 -84 -27.5 -161.5t-80 -138.5t-128.5 -97t-173 -36q-87 0 -154 32t-105 98t-38 167q0 84 27.5 161.5t80 138.5t128.5 97t173 36zM373 27q82 0 145.5 51.5t100.5 142t37 206.5q0 71 -16.5 126.5t-54.5 87.5t-102 32
q-81 0 -145 -51.5t-101 -141.5t-37 -207q0 -70 16.5 -126t54.5 -88t102 -32zM618 925q-24 -35 -57.5 -60.5t-67 -47.5t-59.5 -47q-16 -3 -32 0q32 38 57 73.5t44 81.5h115zM758 925q-25 -39 -59 -64t-67.5 -45.5t-57.5 -45.5q-16 -3 -32 0q35 43 57 76t44 79h115z" />
    <glyph glyph-name="ohungarumlaut" unicode="&#x151;" horiz-adv-x="521" 
d="M313 415q-42 0 -75.5 -26.5t-56.5 -68t-35 -89t-12 -89.5q0 -57 18 -87t56 -30v-40q-82 0 -126.5 46.5t-44.5 123.5q0 59 20.5 113t58 96t88 66.5t109.5 24.5v-40zM208 25q42 0 75.5 26.5t56.5 68t35 89t12 89.5q0 57 -18 87t-56 30v40q82 0 126.5 -46.5t44.5 -123.5
q0 -59 -20.5 -113t-58 -96t-88 -66.5t-109.5 -24.5v40zM441 690q-21 -34 -51.5 -61t-62 -52.5t-58.5 -56.5q-16 -3 -32 0q37 46 59.5 86.5t39.5 83.5h105zM571 690q-23 -38 -55 -64.5t-65.5 -50.5t-61.5 -55q-16 -3 -32 0q41 46 66 86.5t43 83.5h105z" />
    <glyph glyph-name="OE" unicode="&#x152;" horiz-adv-x="1020" 
d="M461 0l24 35q15 45 27 91t20 84l60 280q8 38 15 80.5t12 94.5l-40 35h112h350l-39 -185q-16 -3 -32 0q10 58 0.5 89t-37 43.5t-72.5 12.5h-113q-15 -46 -25 -83t-21 -87l-60 -280q-8 -39 -14.5 -80t-11.5 -90h148q52 0 85.5 17.5t53.5 50t32 77.5q16 3 32 0l-40 -185
h-385h-81zM851 260q8 47 -1.5 63.5t-44.5 16.5h-190l8 40h190q35 0 52 17t28 63q16 3 32 0l-42 -200q-16 -3 -32 0zM655 674l-16 -117q-12 36 -32.5 62t-51 40t-72.5 14q-81 0 -145 -51.5t-101 -141.5t-37 -207q0 -70 16.5 -126t54.5 -88t102 -32q62 0 115 31t91 86
l-17 -114q-40 -22 -88 -33.5t-102 -11.5q-87 0 -154 32t-105 98t-38 167q0 84 27.5 161.5t80 138.5t128.5 97t173 36q100 0 171 -41z" />
    <glyph glyph-name="oe" unicode="&#x153;" horiz-adv-x="784" 
d="M38 159q0 57 20 110t56 95t84.5 66.5t105.5 24.5q77 0 119 -46.5t42 -127.5q0 -57 -20 -110t-56 -95t-84.5 -66.5t-105.5 -24.5q-77 0 -119 46.5t-42 127.5zM135 135q0 -52 16 -81t53 -29q34 0 64.5 23t54 62.5t37 89t13.5 102.5q0 54 -17 83.5t-55 29.5q-36 0 -66.5 -25
t-53 -66t-34.5 -90.5t-12 -98.5zM536 40q33 0 76.5 19t87.5 71q9 -4 16 -8.5t14 -11.5q-46 -66 -100.5 -95.5t-110.5 -29.5q-73 0 -112.5 45.5t-39.5 127.5q0 59 20 112t57 95t88 66t113 24q69 0 96 -27t27 -61q0 -42 -32 -74.5t-82 -54.5t-107.5 -34.5t-108.5 -14.5l-6 35
q66 4 121 21.5t88.5 47.5t33.5 69q0 20 -11.5 36.5t-44.5 16.5q-40 0 -71.5 -27t-52.5 -69t-32 -88.5t-11 -85.5q0 -57 22.5 -81t61.5 -24z" />
    <glyph glyph-name="Racute" unicode="&#x154;" horiz-adv-x="694" 
d="M642 35q-1 -8 -2.5 -17t-5.5 -18q-21 -5 -46.5 -7.5t-43.5 -2.5q-51 0 -69 31t-18 86v126q0 44 -26.5 65.5t-77.5 21.5h-152l9 40h165q47 0 85 26t60.5 69t22.5 92q0 56 -29.5 84.5t-94.5 28.5h-80q-15 -46 -25 -83t-21 -87l-60 -280q-7 -37 -14.5 -80.5t-12.5 -94.5h72
q0 -7 -2.5 -18t-5.5 -19q-34 2 -68 2h-69h-68t-69 -2q0 8 2.5 19t5.5 18h72q15 45 27 91t20 84l60 280q8 38 15 80.5t12 94.5h-72q0 8 2.5 19t5.5 18q34 -1 68 -1.5t68 -0.5h155q66 0 118.5 -15t82.5 -48.5t30 -88.5q0 -49 -27 -90.5t-75.5 -70.5t-114.5 -41q59 -4 87.5 -33
t28.5 -70l1 -136q0 -43 15.5 -56t58.5 -16zM651 925q-24 -38 -61.5 -63.5t-75.5 -46t-67 -45.5q-16 -3 -32 0q35 38 61.5 73.5t49.5 81.5h125z" />
    <glyph glyph-name="racute" unicode="&#x155;" horiz-adv-x="433" 
d="M45 -5q7 29 13 55.5t11 51.5l34 158q7 30 11.5 61.5t8.5 81.5h-57q0 8 2.5 19t5.5 18q39 0 80.5 2.5t89.5 10.5q-15 -36 -24 -63t-14.5 -56.5t-12.5 -73.5l-34 -158q-5 -25 -9 -50.5t-6 -51.5q-26 0 -49.5 -1t-49.5 -4zM346 325q8 35 3 50.5t-21 15.5q-20 0 -44 -22.5
t-48 -62.5t-44 -92.5t-33 -111.5h-26q29 128 69 205.5t86 112.5t92 35q34 0 51 -20t18.5 -49.5t-13.5 -60.5h-90zM479 690q-19 -34 -51 -61t-65.5 -52.5t-60.5 -56.5q-16 -3 -32 0q35 47 56.5 87t37.5 83h115z" />
    <glyph glyph-name="uni0156" unicode="&#x156;" horiz-adv-x="694" 
d="M642 35q-1 -8 -2.5 -17t-5.5 -18q-21 -5 -46.5 -7.5t-43.5 -2.5q-51 0 -69 31t-18 86v126q0 44 -26.5 65.5t-77.5 21.5h-152l9 40h165q47 0 85 26t60.5 69t22.5 92q0 56 -29.5 84.5t-94.5 28.5h-80q-15 -46 -25 -83t-21 -87l-60 -280q-7 -37 -14.5 -80.5t-12.5 -94.5h72
q0 -7 -2.5 -18t-5.5 -19q-34 2 -68 2h-69h-68t-69 -2q0 8 2.5 19t5.5 18h72q15 45 27 91t20 84l60 280q8 38 15 80.5t12 94.5h-72q0 8 2.5 19t5.5 18q34 -1 68 -1.5t68 -0.5h155q66 0 118.5 -15t82.5 -48.5t30 -88.5q0 -49 -27 -90.5t-75.5 -70.5t-114.5 -41q59 -4 87.5 -33
t28.5 -70l1 -136q0 -43 15.5 -56t58.5 -16zM356 -44l42 -36l-7 -29q-10 -43 -38.5 -77t-71.5 -57q-14 11 -17 27q25 15 41.5 32t25.5 37l-39 31l12 56z" />
    <glyph glyph-name="uni0157" unicode="&#x157;" horiz-adv-x="433" 
d="M45 -5q7 29 13 55.5t11 51.5l34 158q7 30 11.5 61.5t8.5 81.5h-57q0 8 2.5 19t5.5 18q39 0 80.5 2.5t89.5 10.5q-15 -36 -24 -63t-14.5 -56.5t-12.5 -73.5l-34 -158q-5 -25 -9 -50.5t-6 -51.5q-26 0 -49.5 -1t-49.5 -4zM346 325q8 35 3 50.5t-21 15.5q-20 0 -44 -22.5
t-48 -62.5t-44 -92.5t-33 -111.5h-26q29 128 69 205.5t86 112.5t92 35q34 0 51 -20t18.5 -49.5t-13.5 -60.5h-90zM93 -44l42 -36l-7 -29q-10 -43 -38.5 -77t-71.5 -57q-14 11 -17 27q25 15 41.5 32t25.5 37l-39 31l12 56z" />
    <glyph glyph-name="Rcaron" unicode="&#x158;" horiz-adv-x="694" 
d="M642 35q-1 -8 -2.5 -17t-5.5 -18q-21 -5 -46.5 -7.5t-43.5 -2.5q-51 0 -69 31t-18 86v126q0 44 -26.5 65.5t-77.5 21.5h-152l9 40h165q47 0 85 26t60.5 69t22.5 92q0 56 -29.5 84.5t-94.5 28.5h-80q-15 -46 -25 -83t-21 -87l-60 -280q-7 -37 -14.5 -80.5t-12.5 -94.5h72
q0 -7 -2.5 -18t-5.5 -19q-34 2 -68 2h-69h-68t-69 -2q0 8 2.5 19t5.5 18h72q15 45 27 91t20 84l60 280q8 38 15 80.5t12 94.5h-72q0 8 2.5 19t5.5 18q34 -1 68 -1.5t68 -0.5h155q66 0 118.5 -15t82.5 -48.5t30 -88.5q0 -49 -27 -90.5t-75.5 -70.5t-114.5 -41q59 -4 87.5 -33
t28.5 -70l1 -136q0 -43 15.5 -56t58.5 -16zM641 933q5 -4 9 -9.5t5 -13.5q-37 -23 -62 -39.5t-43.5 -30.5t-36.5 -30.5t-40 -39.5q-16 -3 -32 0q-16 31 -30 51.5t-34 41t-55 51.5q6 13 15 19q33 -12 55.5 -22t41 -21t37.5 -25q27 15 51 26t52 21t67 21z" />
    <glyph glyph-name="rcaron" unicode="&#x159;" horiz-adv-x="433" 
d="M45 -5q7 29 13 55.5t11 51.5l34 158q7 30 11.5 61.5t8.5 81.5h-57q0 8 2.5 19t5.5 18q39 0 80.5 2.5t89.5 10.5q-15 -36 -24 -63t-14.5 -56.5t-12.5 -73.5l-34 -158q-5 -25 -9 -50.5t-6 -51.5q-26 0 -49.5 -1t-49.5 -4zM346 325q8 35 3 50.5t-21 15.5q-20 0 -44 -22.5
t-48 -62.5t-44 -92.5t-33 -111.5h-26q29 128 69 205.5t86 112.5t92 35q34 0 51 -20t18.5 -49.5t-13.5 -60.5h-90zM475 695q6 -5 9.5 -10t4.5 -13q-39 -31 -65.5 -54t-49 -45t-50.5 -53q-16 -3 -32 0q-15 32 -27 54.5t-27.5 45.5t-43.5 56q6 12 19 19q41 -22 63 -41t48 -40
q21 12 42.5 25t48 27t60.5 29z" />
    <glyph glyph-name="Sacute" unicode="&#x15a;" horiz-adv-x="578" 
d="M247 -14q-61 0 -117.5 13t-97.5 36l38 180q16 3 32 0q-6 -54 12 -96.5t55.5 -67.5t86.5 -25q65 0 102 20.5t52.5 53t15.5 68.5q0 44 -21.5 72t-55 47.5t-71.5 37t-71.5 40.5t-55 57.5t-21.5 87.5q0 61 32 107t88.5 71.5t129.5 25.5q69 0 115.5 -13t79.5 -34l-33 -157
q-16 -3 -32 0q8 71 -29 117.5t-107 46.5t-109 -36t-39 -88q0 -40 22 -66t57 -45t74.5 -38t74.5 -44t57 -62t22 -94q0 -62 -32.5 -110.5t-96.5 -76.5t-157 -28zM599 925q-24 -38 -61.5 -63.5t-75.5 -46t-67 -45.5q-16 -3 -32 0q35 38 61.5 73.5t49.5 81.5h125z" />
    <glyph glyph-name="sacute" unicode="&#x15b;" horiz-adv-x="419" 
d="M174 -15q-37 0 -74.5 8t-79.5 30l29 130q16 3 32 0q0 -60 22.5 -94t76.5 -34q42 0 68.5 21t26.5 55q0 27 -20 43.5t-49.5 30t-59 30t-49.5 42.5t-20 69q0 45 23 76t62.5 47t87.5 16q39 0 74.5 -10t63.5 -28l-27 -117q-16 -3 -32 0q1 59 -22 87t-72 28q-40 0 -58.5 -20
t-18.5 -44q0 -28 20.5 -46t51 -33t60.5 -32t50.5 -42.5t20.5 -66.5q0 -46 -26.5 -79t-69 -50t-91.5 -17zM437 690q-19 -34 -51 -61t-65.5 -52.5t-60.5 -56.5q-16 -3 -32 0q35 47 56.5 87t37.5 83h115z" />
    <glyph glyph-name="Scircumflex" unicode="&#x15c;" horiz-adv-x="578" 
d="M247 -14q-61 0 -117.5 13t-97.5 36l38 180q16 3 32 0q-6 -54 12 -96.5t55.5 -67.5t86.5 -25q65 0 102 20.5t52.5 53t15.5 68.5q0 44 -21.5 72t-55 47.5t-71.5 37t-71.5 40.5t-55 57.5t-21.5 87.5q0 61 32 107t88.5 71.5t129.5 25.5q69 0 115.5 -13t79.5 -34l-33 -157
q-16 -3 -32 0q8 71 -29 117.5t-107 46.5t-109 -36t-39 -88q0 -40 22 -66t57 -45t74.5 -38t74.5 -44t57 -62t22 -94q0 -62 -32.5 -110.5t-96.5 -76.5t-157 -28zM244 762q-5 5 -8.5 10t-5.5 13q37 23 62 39.5t43.5 30.5t36.5 30.5t40 39.5q16 3 32 0q17 -31 30.5 -51.5
t33.5 -41t55 -51.5q-6 -13 -15 -19q-33 12 -55.5 22t-40.5 21t-38 25q-27 -14 -51 -25t-52 -21t-67 -22z" />
    <glyph glyph-name="scircumflex" unicode="&#x15d;" horiz-adv-x="419" 
d="M174 -15q-37 0 -74.5 8t-79.5 30l29 130q16 3 32 0q0 -60 22.5 -94t76.5 -34q42 0 68.5 21t26.5 55q0 27 -20 43.5t-49.5 30t-59 30t-49.5 42.5t-20 69q0 45 23 76t62.5 47t87.5 16q39 0 74.5 -10t63.5 -28l-27 -117q-16 -3 -32 0q1 59 -22 87t-72 28q-40 0 -58.5 -20
t-18.5 -44q0 -28 20.5 -46t51 -33t60.5 -32t50.5 -42.5t20.5 -66.5q0 -46 -26.5 -79t-69 -50t-91.5 -17zM127 515q-6 5 -9 10.5t-5 12.5q39 32 65.5 54.5t49.5 45t50 52.5q16 3 32 0q16 -31 27.5 -54t27 -46t43.5 -56q-6 -12 -19 -19q-41 23 -63 41.5t-48 39.5
q-20 -12 -42 -25t-48 -27t-61 -29z" />
    <glyph glyph-name="Scedilla" unicode="&#x15e;" horiz-adv-x="578" 
d="M247 -14q-61 0 -117.5 13t-97.5 36l38 180q16 3 32 0q-6 -54 12 -96.5t55.5 -67.5t86.5 -25q65 0 102 20.5t52.5 53t15.5 68.5q0 44 -21.5 72t-55 47.5t-71.5 37t-71.5 40.5t-55 57.5t-21.5 87.5q0 61 32 107t88.5 71.5t129.5 25.5q69 0 115.5 -13t79.5 -34l-33 -157
q-16 -3 -32 0q8 71 -29 117.5t-107 46.5t-109 -36t-39 -88q0 -40 22 -66t57 -45t74.5 -38t74.5 -44t57 -62t22 -94q0 -62 -32.5 -110.5t-96.5 -76.5t-157 -28zM157 -162q17 -13 38 -19.5t40 -6.5q20 0 32.5 9.5t12.5 25.5q0 15 -22 28.5t-61 22.5l52 102h40l-20 -44
q38 -14 61.5 -36.5t23.5 -52.5q0 -41 -34.5 -66.5t-84.5 -25.5q-28 0 -51 7t-45 23q3 9 7 17.5t11 15.5z" />
    <glyph glyph-name="scedilla" unicode="&#x15f;" horiz-adv-x="419" 
d="M174 -15q-37 0 -74.5 8t-79.5 30l29 130q16 3 32 0q0 -60 22.5 -94t76.5 -34q42 0 68.5 21t26.5 55q0 27 -20 43.5t-49.5 30t-59 30t-49.5 42.5t-20 69q0 45 23 76t62.5 47t87.5 16q39 0 74.5 -10t63.5 -28l-27 -117q-16 -3 -32 0q1 59 -22 87t-72 28q-40 0 -58.5 -20
t-18.5 -44q0 -28 20.5 -46t51 -33t60.5 -32t50.5 -42.5t20.5 -66.5q0 -46 -26.5 -79t-69 -50t-91.5 -17zM68 -162q17 -13 38 -19.5t40 -6.5q20 0 32.5 9.5t12.5 25.5q0 15 -22 28.5t-61 22.5l52 102h40l-20 -44q38 -14 61.5 -36.5t23.5 -52.5q0 -41 -34.5 -66.5t-84.5 -25.5
q-28 0 -51 7t-45 23q3 9 7 17.5t11 15.5z" />
    <glyph glyph-name="Scaron" unicode="&#x160;" horiz-adv-x="578" 
d="M247 -14q-61 0 -117.5 13t-97.5 36l38 180q16 3 32 0q-6 -54 12 -96.5t55.5 -67.5t86.5 -25q65 0 102 20.5t52.5 53t15.5 68.5q0 44 -21.5 72t-55 47.5t-71.5 37t-71.5 40.5t-55 57.5t-21.5 87.5q0 61 32 107t88.5 71.5t129.5 25.5q69 0 115.5 -13t79.5 -34l-33 -157
q-16 -3 -32 0q8 71 -29 117.5t-107 46.5t-109 -36t-39 -88q0 -40 22 -66t57 -45t74.5 -38t74.5 -44t57 -62t22 -94q0 -62 -32.5 -110.5t-96.5 -76.5t-157 -28zM589 933q5 -4 9 -9.5t5 -13.5q-37 -23 -62 -39.5t-43.5 -30.5t-36.5 -30.5t-40 -39.5q-16 -3 -32 0
q-16 31 -30 51.5t-34 41t-55 51.5q6 13 15 19q33 -12 55.5 -22t41 -21t37.5 -25q27 15 51 26t52 21t67 21z" />
    <glyph glyph-name="scaron" unicode="&#x161;" horiz-adv-x="419" 
d="M174 -15q-37 0 -74.5 8t-79.5 30l29 130q16 3 32 0q0 -60 22.5 -94t76.5 -34q42 0 68.5 21t26.5 55q0 27 -20 43.5t-49.5 30t-59 30t-49.5 42.5t-20 69q0 45 23 76t62.5 47t87.5 16q39 0 74.5 -10t63.5 -28l-27 -117q-16 -3 -32 0q1 59 -22 87t-72 28q-40 0 -58.5 -20
t-18.5 -44q0 -28 20.5 -46t51 -33t60.5 -32t50.5 -42.5t20.5 -66.5q0 -46 -26.5 -79t-69 -50t-91.5 -17zM433 695q6 -5 9.5 -10t4.5 -13q-39 -31 -65.5 -54t-49 -45t-50.5 -53q-16 -3 -32 0q-15 32 -27 54.5t-27.5 45.5t-43.5 56q6 12 19 19q41 -22 63 -41t48 -40
q21 12 42.5 25t48 27t60.5 29z" />
    <glyph glyph-name="uni0162" unicode="&#x162;" horiz-adv-x="650" 
d="M141 -2q0 8 2 19t6 18h72q17 52 27 91t20 84l59 280q8 40 15 82.5t11 87.5h-58q-41 0 -73 -12.5t-56.5 -47t-44.5 -102.5q-16 -3 -32 0l43 202h590l-43 -202q-17 -3 -32 0q8 63 -0.5 98.5t-34.5 49.5t-71 14h-58q-17 -52 -26.5 -88.5t-19.5 -81.5l-59 -280
q-8 -38 -15.5 -84t-11.5 -91h72q-1 -6 -3 -17.5t-5 -19.5q-34 2 -68 2h-69h-68t-69 -2zM170 -162q17 -13 38 -19.5t40 -6.5q20 0 32.5 9.5t12.5 25.5q0 15 -22 28.5t-61 22.5l52 102h40l-20 -44q38 -14 61.5 -36.5t23.5 -52.5q0 -41 -34.5 -66.5t-84.5 -25.5q-28 0 -51 7
t-45 23q3 9 7 17.5t11 15.5z" />
    <glyph glyph-name="uni0163" unicode="&#x163;" horiz-adv-x="339" 
d="M56 400q1 9 3 20t6 20h275q-1 -7 -3 -19t-6 -21h-275zM267 126q9 -4 16 -8.5t14 -11.5q-34 -60 -77.5 -90.5t-90.5 -30.5q-49 0 -63.5 30.5t-4.5 76.5l46 218q5 22 12 56t13 71t8 68q19 6 35 17t29.5 25t22.5 28q16 3 32 0q-20 -76 -34.5 -139t-28.5 -128l-45 -216
q-4 -21 2 -34t20 -13q11 0 34.5 15t59.5 66zM26 -162q17 -13 38 -19.5t40 -6.5q20 0 32.5 9.5t12.5 25.5q0 15 -22 28.5t-61 22.5l52 102h40l-20 -44q38 -14 61.5 -36.5t23.5 -52.5q0 -41 -34.5 -66.5t-84.5 -25.5q-28 0 -51 7t-45 23q3 9 7 17.5t11 15.5z" />
    <glyph glyph-name="Tcaron" unicode="&#x164;" horiz-adv-x="650" 
d="M141 -2q0 8 2 19t6 18h72q17 52 27 91t20 84l59 280q8 40 15 82.5t11 87.5h-58q-41 0 -73 -12.5t-56.5 -47t-44.5 -102.5q-16 -3 -32 0l43 202h590l-43 -202q-17 -3 -32 0q8 63 -0.5 98.5t-34.5 49.5t-71 14h-58q-17 -52 -26.5 -88.5t-19.5 -81.5l-59 -280
q-8 -38 -15.5 -84t-11.5 -91h72q-1 -6 -3 -17.5t-5 -19.5q-34 2 -68 2h-69h-68t-69 -2zM631 933q5 -4 9 -9.5t5 -13.5q-37 -23 -62 -39.5t-43.5 -30.5t-36.5 -30.5t-40 -39.5q-16 -3 -32 0q-16 31 -30 51.5t-34 41t-55 51.5q6 13 15 19q33 -12 55.5 -22t41 -21t37.5 -25
q27 15 51 26t52 21t67 21z" />
    <glyph glyph-name="tcaron" unicode="&#x165;" horiz-adv-x="339" 
d="M304 692l54 26l41 -46l-11 -49q-12 -20 -23.5 -41t-21 -43.5t-18.5 -49.5q-17 2 -29 7q3 28 3.5 52.5t-1 48t-5.5 46.5zM56 400q1 9 3 20t6 20h275q-1 -7 -3 -19t-6 -21h-275zM267 126q9 -4 16 -8.5t14 -11.5q-34 -60 -77.5 -90.5t-90.5 -30.5q-49 0 -63.5 30.5
t-4.5 76.5l46 218q5 22 12 56t13 71t8 68q19 6 35 17t29.5 25t22.5 28q16 3 32 0q-20 -76 -34.5 -139t-28.5 -128l-45 -216q-4 -21 2 -34t20 -13q11 0 34.5 15t59.5 66z" />
    <glyph glyph-name="Tbar" unicode="&#x166;" horiz-adv-x="652" 
d="M550 350h-380q0 13 3 25t7 25h380q0 -13 -2.5 -25t-7.5 -25zM141 -2q0 8 2 19t6 18h72q17 52 27 91t20 84l59 280q8 40 15 82.5t11 87.5h-58q-41 0 -73 -12.5t-56.5 -47t-44.5 -102.5q-16 -3 -32 0l43 202h590l-43 -202q-17 -3 -32 0q8 63 -0.5 98.5t-34.5 49.5t-71 14
h-58q-17 -52 -26.5 -88.5t-19.5 -81.5l-59 -280q-8 -38 -15.5 -84t-11.5 -91h72q-1 -6 -3 -17.5t-5 -19.5q-34 2 -68 2h-69h-68t-69 -2z" />
    <glyph glyph-name="tbar" unicode="&#x167;" horiz-adv-x="346" 
d="M302 220h-280q0 13 3 25t7 25h280q0 -13 -2.5 -25t-7.5 -25zM61 400q1 9 3 20t6 20h275q-1 -7 -3 -19t-6 -21h-275zM272 126q9 -4 16 -8.5t14 -11.5q-34 -60 -77.5 -90.5t-90.5 -30.5q-49 0 -63.5 30.5t-4.5 76.5l46 218q5 22 12 56t13 71t8 68q19 6 35 17t29.5 25
t22.5 28q16 3 32 0q-20 -76 -34.5 -139t-28.5 -128l-45 -216q-4 -21 2 -34t20 -13q11 0 34.5 15t59.5 66z" />
    <glyph glyph-name="Utilde" unicode="&#x168;" horiz-adv-x="738" 
d="M341 -15q-144 0 -198.5 54t-30.5 166l61 285q8 37 14.5 75.5t12.5 99.5h-72q0 8 2.5 19t5.5 18q34 -1 68 -1.5t68 -0.5q35 0 69 0.5t69 1.5q0 -7 -2.5 -18t-5.5 -19h-72q-15 -46 -25.5 -85.5t-21.5 -89.5l-56 -260q-23 -109 13.5 -153.5t119.5 -44.5q89 0 144 50.5
t74 136.5l58 271q6 30 10 56.5t7 55t5 63.5h-77q0 8 2.5 19t5.5 18q34 -1 65.5 -1.5t50.5 -0.5q17 0 43.5 0.5t61.5 1.5q0 -7 -2.5 -18t-5.5 -19h-67q-13 -35 -22 -62t-16 -53t-14 -60l-61 -285q-22 -103 -96 -161.5t-185 -58.5zM668 885q10 -2 16.5 -7t8.5 -8
q-24 -61 -58 -80.5t-63 -19.5q-24 0 -40.5 8.5t-29 19t-25 19t-30.5 8.5q-16 0 -32 -9t-34 -42q-7 2 -13.5 5t-11.5 10q23 59 56 80t64 21q23 0 39.5 -8.5t29.5 -19t26.5 -19t31.5 -8.5q16 0 31.5 9t33.5 41z" />
    <glyph glyph-name="utilde" unicode="&#x169;" horiz-adv-x="561" 
d="M147 -15q-52 0 -74.5 33t-6.5 106l30 136q7 30 11.5 61.5t8.5 81.5h-57q0 8 2.5 19t5.5 18q39 0 83 2.5t92 10.5q-11 -26 -22 -62t-19.5 -71t-14.5 -60l-30 -134q-7 -35 1 -55.5t35 -20.5q29 0 57.5 22.5t54.5 62t47 92t34 111.5h26q-29 -133 -71.5 -210t-92 -110
t-100.5 -33zM396 -15q-43 0 -58.5 30t-5.5 77l53 246q5 26 9.5 51.5t5.5 50.5q26 0 49.5 1t49.5 4q-7 -29 -13 -55t-11 -52l-53 -246q-5 -23 -2.5 -37.5t16.5 -14.5t31.5 15t40.5 51q9 -4 16 -8.5t14 -11.5q-24 -45 -62 -73t-80 -28zM480 655q8 -2 14.5 -5t10.5 -8
q-24 -62 -57 -82t-62 -20q-22 0 -37.5 8t-27.5 18.5t-24 18.5t-27 8q-16 0 -32 -8.5t-34 -40.5q-7 2 -14.5 6t-10.5 7q23 60 55 81.5t63 21.5q21 0 36.5 -8t28 -18.5t25.5 -18.5t28 -8q16 0 31.5 8.5t33.5 39.5z" />
    <glyph glyph-name="Umacron" unicode="&#x16a;" horiz-adv-x="738" 
d="M341 -15q-144 0 -198.5 54t-30.5 166l61 285q8 37 14.5 75.5t12.5 99.5h-72q0 8 2.5 19t5.5 18q34 -1 68 -1.5t68 -0.5q35 0 69 0.5t69 1.5q0 -7 -2.5 -18t-5.5 -19h-72q-15 -46 -25.5 -85.5t-21.5 -89.5l-56 -260q-23 -109 13.5 -153.5t119.5 -44.5q89 0 144 50.5
t74 136.5l58 271q6 30 10 56.5t7 55t5 63.5h-77q0 8 2.5 19t5.5 18q34 -1 65.5 -1.5t50.5 -0.5q17 0 43.5 0.5t61.5 1.5q0 -7 -2.5 -18t-5.5 -19h-67q-13 -35 -22 -62t-16 -53t-14 -60l-61 -285q-22 -103 -96 -161.5t-185 -58.5zM655 785h-280q0 13 4 30t8 30h280
q0 -13 -3.5 -30t-8.5 -30z" />
    <glyph glyph-name="umacron" unicode="&#x16b;" horiz-adv-x="561" 
d="M147 -15q-52 0 -74.5 33t-6.5 106l30 136q7 30 11.5 61.5t8.5 81.5h-57q0 8 2.5 19t5.5 18q39 0 83 2.5t92 10.5q-11 -26 -22 -62t-19.5 -71t-14.5 -60l-30 -134q-7 -35 1 -55.5t35 -20.5q29 0 57.5 22.5t54.5 62t47 92t34 111.5h26q-29 -133 -71.5 -210t-92 -110
t-100.5 -33zM396 -15q-43 0 -58.5 30t-5.5 77l53 246q5 26 9.5 51.5t5.5 50.5q26 0 49.5 1t49.5 4q-7 -29 -13 -55t-11 -52l-53 -246q-5 -23 -2.5 -37.5t16.5 -14.5t31.5 15t40.5 51q9 -4 16 -8.5t14 -11.5q-24 -45 -62 -73t-80 -28zM475 540h-280q0 13 4 30t8 30h280
q0 -13 -3.5 -30t-8.5 -30z" />
    <glyph glyph-name="Ubreve" unicode="&#x16c;" horiz-adv-x="738" 
d="M341 -15q-144 0 -198.5 54t-30.5 166l61 285q8 37 14.5 75.5t12.5 99.5h-72q0 8 2.5 19t5.5 18q34 -1 68 -1.5t68 -0.5q35 0 69 0.5t69 1.5q0 -7 -2.5 -18t-5.5 -19h-72q-15 -46 -25.5 -85.5t-21.5 -89.5l-56 -260q-23 -109 13.5 -153.5t119.5 -44.5q89 0 144 50.5
t74 136.5l58 271q6 30 10 56.5t7 55t5 63.5h-77q0 8 2.5 19t5.5 18q34 -1 65.5 -1.5t50.5 -0.5q17 0 43.5 0.5t61.5 1.5q0 -7 -2.5 -18t-5.5 -19h-67q-13 -35 -22 -62t-16 -53t-14 -60l-61 -285q-22 -103 -96 -161.5t-185 -58.5zM655 925q16 3 32 0q-16 -77 -60.5 -116
t-104.5 -39q-61 0 -93.5 44t-25.5 111q16 3 32 0q2 -43 29 -59t67 -16q38 0 70.5 15.5t53.5 59.5z" />
    <glyph glyph-name="ubreve" unicode="&#x16d;" horiz-adv-x="561" 
d="M147 -15q-52 0 -74.5 33t-6.5 106l30 136q7 30 11.5 61.5t8.5 81.5h-57q0 8 2.5 19t5.5 18q39 0 83 2.5t92 10.5q-11 -26 -22 -62t-19.5 -71t-14.5 -60l-30 -134q-7 -35 1 -55.5t35 -20.5q29 0 57.5 22.5t54.5 62t47 92t34 111.5h26q-29 -133 -71.5 -210t-92 -110
t-100.5 -33zM396 -15q-43 0 -58.5 30t-5.5 77l53 246q5 26 9.5 51.5t5.5 50.5q26 0 49.5 1t49.5 4q-7 -29 -13 -55t-11 -52l-53 -246q-5 -23 -2.5 -37.5t16.5 -14.5t31.5 15t40.5 51q9 -4 16 -8.5t14 -11.5q-24 -45 -62 -73t-80 -28zM474 680q16 3 32 0
q-18 -88 -63.5 -126.5t-102.5 -38.5q-67 0 -96.5 44t-21.5 121q16 3 32 0q-2 -50 25.5 -70t67.5 -20q38 0 73.5 19t53.5 71z" />
    <glyph glyph-name="Uring" unicode="&#x16e;" horiz-adv-x="738" 
d="M341 -15q-144 0 -198.5 54t-30.5 166l61 285q8 37 14.5 75.5t12.5 99.5h-72q0 8 2.5 19t5.5 18q34 -1 68 -1.5t68 -0.5q35 0 69 0.5t69 1.5q0 -7 -2.5 -18t-5.5 -19h-72q-15 -46 -25.5 -85.5t-21.5 -89.5l-56 -260q-23 -109 13.5 -153.5t119.5 -44.5q89 0 144 50.5
t74 136.5l58 271q6 30 10 56.5t7 55t5 63.5h-77q0 8 2.5 19t5.5 18q34 -1 65.5 -1.5t50.5 -0.5q17 0 43.5 0.5t61.5 1.5q0 -7 -2.5 -18t-5.5 -19h-67q-13 -35 -22 -62t-16 -53t-14 -60l-61 -285q-22 -103 -96 -161.5t-185 -58.5zM547 942q41 0 68 -22t27 -56q0 -28 -17 -51
t-46 -37t-66 -14q-41 0 -68 22t-27 56q0 28 17 51t46.5 37t65.5 14zM520 797q22 0 39.5 20.5t17.5 46.5q0 19 -10 31t-27 12q-22 0 -39.5 -20.5t-17.5 -46.5q0 -19 10.5 -31t26.5 -12z" />
    <glyph glyph-name="uring" unicode="&#x16f;" horiz-adv-x="561" 
d="M147 -15q-52 0 -74.5 33t-6.5 106l30 136q7 30 11.5 61.5t8.5 81.5h-57q0 8 2.5 19t5.5 18q39 0 83 2.5t92 10.5q-11 -26 -22 -62t-19.5 -71t-14.5 -60l-30 -134q-7 -35 1 -55.5t35 -20.5q29 0 57.5 22.5t54.5 62t47 92t34 111.5h26q-29 -133 -71.5 -210t-92 -110
t-100.5 -33zM396 -15q-43 0 -58.5 30t-5.5 77l53 246q5 26 9.5 51.5t5.5 50.5q26 0 49.5 1t49.5 4q-7 -29 -13 -55t-11 -52l-53 -246q-5 -23 -2.5 -37.5t16.5 -14.5t31.5 15t40.5 51q9 -4 16 -8.5t14 -11.5q-24 -45 -62 -73t-80 -28zM365 695q41 0 68 -22t27 -56
q0 -28 -17 -51t-46 -37t-66 -14q-41 0 -68 22t-27 56q0 28 17 51t46.5 37t65.5 14zM338 550q22 0 39.5 20.5t17.5 46.5q0 19 -10 31t-27 12q-22 0 -39.5 -20.5t-17.5 -46.5q0 -19 10.5 -31t26.5 -12z" />
    <glyph glyph-name="Uhungarumlaut" unicode="&#x170;" horiz-adv-x="738" 
d="M341 -15q-144 0 -198.5 54t-30.5 166l61 285q8 37 14.5 75.5t12.5 99.5h-72q0 8 2.5 19t5.5 18q34 -1 68 -1.5t68 -0.5q35 0 69 0.5t69 1.5q0 -7 -2.5 -18t-5.5 -19h-72q-15 -46 -25.5 -85.5t-21.5 -89.5l-56 -260q-23 -109 13.5 -153.5t119.5 -44.5q89 0 144 50.5
t74 136.5l58 271q6 30 10 56.5t7 55t5 63.5h-77q0 8 2.5 19t5.5 18q34 -1 65.5 -1.5t50.5 -0.5q17 0 43.5 0.5t61.5 1.5q0 -7 -2.5 -18t-5.5 -19h-67q-13 -35 -22 -62t-16 -53t-14 -60l-61 -285q-22 -103 -96 -161.5t-185 -58.5zM625 925q-24 -35 -57.5 -60.5t-67 -47.5
t-59.5 -47q-16 -3 -32 0q32 38 57 73.5t44 81.5h115zM765 925q-25 -39 -59 -64t-67.5 -45.5t-57.5 -45.5q-16 -3 -32 0q35 43 57 76t44 79h115z" />
    <glyph glyph-name="uhungarumlaut" unicode="&#x171;" horiz-adv-x="561" 
d="M147 -15q-52 0 -74.5 33t-6.5 106l30 136q7 30 11.5 61.5t8.5 81.5h-57q0 8 2.5 19t5.5 18q39 0 83 2.5t92 10.5q-11 -26 -22 -62t-19.5 -71t-14.5 -60l-30 -134q-7 -35 1 -55.5t35 -20.5q29 0 57.5 22.5t54.5 62t47 92t34 111.5h26q-29 -133 -71.5 -210t-92 -110
t-100.5 -33zM396 -15q-43 0 -58.5 30t-5.5 77l53 246q5 26 9.5 51.5t5.5 50.5q26 0 49.5 1t49.5 4q-7 -29 -13 -55t-11 -52l-53 -246q-5 -23 -2.5 -37.5t16.5 -14.5t31.5 15t40.5 51q9 -4 16 -8.5t14 -11.5q-24 -45 -62 -73t-80 -28zM446 690q-21 -34 -51.5 -61t-62 -52.5
t-58.5 -56.5q-16 -3 -32 0q37 46 59.5 86.5t39.5 83.5h105zM576 690q-23 -38 -55 -64.5t-65.5 -50.5t-61.5 -55q-16 -3 -32 0q41 46 66 86.5t43 83.5h105z" />
    <glyph glyph-name="Uogonek" unicode="&#x172;" horiz-adv-x="738" 
d="M341 -15q-144 0 -198.5 54t-30.5 166l61 285q8 37 14.5 75.5t12.5 99.5h-72q0 8 2.5 19t5.5 18q34 -1 68 -1.5t68 -0.5q35 0 69 0.5t69 1.5q0 -7 -2.5 -18t-5.5 -19h-72q-15 -46 -25.5 -85.5t-21.5 -89.5l-56 -260q-23 -109 13.5 -153.5t119.5 -44.5q89 0 144 50.5
t74 136.5l58 271q6 30 10 56.5t7 55t5 63.5h-77q0 8 2.5 19t5.5 18q34 -1 65.5 -1.5t50.5 -0.5q17 0 43.5 0.5t61.5 1.5q0 -7 -2.5 -18t-5.5 -19h-67q-13 -35 -22 -62t-16 -53t-14 -60l-61 -285q-22 -103 -96 -161.5t-185 -58.5zM296 -225q-35 0 -60 21.5t-25 52.5
q0 47 30.5 80t79 55.5t101.5 36.5l14 -21q-64 -20 -100.5 -54.5t-36.5 -75.5q0 -17 11 -28t33 -11q12 0 28 4.5t36 15.5q5 -5 8 -12.5t4 -16.5q-25 -19 -58 -33t-65 -14z" />
    <glyph glyph-name="uogonek" unicode="&#x173;" horiz-adv-x="561" 
d="M147 -15q-52 0 -74.5 33t-6.5 106l30 136q7 30 11.5 61.5t8.5 81.5h-57q0 8 2.5 19t5.5 18q39 0 83 2.5t92 10.5q-11 -26 -22 -62t-19.5 -71t-14.5 -60l-30 -134q-7 -35 1 -55.5t35 -20.5q29 0 57.5 22.5t54.5 62t47 92t34 111.5h26q-29 -133 -71.5 -210t-92 -110
t-100.5 -33zM396 -15q-43 0 -58.5 30t-5.5 77l53 246q5 26 9.5 51.5t5.5 50.5q26 0 49.5 1t49.5 4q-7 -29 -13 -55t-11 -52l-53 -246q-5 -23 -2.5 -37.5t16.5 -14.5t31.5 15t40.5 51q9 -4 16 -8.5t14 -11.5q-24 -45 -62 -73t-80 -28zM314 -225q-35 0 -60 21.5t-25 52.5
q0 47 30.5 80t79 55.5t101.5 36.5l14 -21q-64 -20 -100.5 -54.5t-36.5 -75.5q0 -17 11 -28t33 -11q12 0 28 4.5t36 15.5q5 -5 8 -12.5t4 -16.5q-25 -19 -58 -33t-65 -14z" />
    <glyph glyph-name="Wcircumflex" unicode="&#x174;" horiz-adv-x="1027" 
d="M146 665h-53q0 8 2.5 19t5.5 18q24 -1 43 -1.5t37.5 -0.5h39.5q35 0 70.5 0.5t71.5 1.5q0 -7 -2.5 -18t-5.5 -19h-70q-2 -52 1.5 -91t9.5 -84l45 -321l-99 -189q1 30 -2 69.5t-7.5 79.5t-9.5 71l-42 290q-5 35 -12 76t-23 99zM1132 702q0 -5 -1.5 -16t-6.5 -21h-59
q-22 -30 -38.5 -55t-33 -53t-37.5 -67l-169 -309q-21 -38 -48.5 -91t-49.5 -110q-10 -1 -19.5 -1.5t-18.5 0t-20 1.5l99 189l172 321q20 37 38.5 77t34.5 98h-84q0 9 2.5 19.5t5.5 17.5q43 -1 76.5 -1.5t55.5 -0.5q19 0 41.5 0.5t59.5 1.5zM541 665h-58q0 8 2 19t6 18
q24 -1 44 -1.5t38.5 -0.5h37.5q34 0 69.5 0.5t72.5 1.5q-1 -6 -2.5 -16t-5.5 -21h-72q-1 -43 2.5 -88t9.5 -87l45 -321l-99 -189q0 52 -5 101t-15 119l-41 290q-4 31 -7.5 58.5t-8 56t-13.5 60.5zM618 563l-219 -382q-15 -27 -33.5 -61t-35.5 -70t-30 -70q-10 -1 -20 -1.5
t-19.5 0t-18.5 1.5l99 189l223 394h54zM481 762q-5 5 -8.5 10t-5.5 13q37 23 62 39.5t43.5 30.5t36.5 30.5t40 39.5q16 3 32 0q17 -31 30.5 -51.5t33.5 -41t55 -51.5q-6 -13 -15 -19q-33 12 -55.5 22t-40.5 21t-38 25q-27 -14 -51 -25t-52 -21t-67 -22z" />
    <glyph glyph-name="wcircumflex" unicode="&#x175;" horiz-adv-x="748" 
d="M382 338h26q-29 -133 -70.5 -210t-90 -110t-99.5 -33q-52 0 -76.5 33t-8.5 106l30 136q7 30 11.5 61.5t8.5 81.5h-57q0 8 2.5 19t5.5 18q39 0 83 2.5t92 10.5q-11 -26 -22 -62t-19.5 -71t-14.5 -60l-30 -134q-7 -35 1 -55.5t35 -20.5q29 0 57.5 22.5t54.5 62t47 92
t34 111.5zM719 440q7 -65 -4.5 -130t-37.5 -123.5t-64 -104t-86 -71.5t-103 -26q-56 0 -79.5 34.5t-8.5 105.5l46 213q5 26 9.5 51.5t5.5 50.5q26 0 49.5 1t49.5 4q-7 -29 -13 -55t-11 -52l-46 -212q-7 -34 4 -55t48 -21q46 0 83 31.5t59 88t22 131.5q0 27 -4 52t-18 50h-44
q0 7 2.5 19.5t5.5 19.5q35 -1 72.5 -1.5t62.5 -0.5zM325 515q-6 5 -9 10.5t-5 12.5q39 32 65.5 54.5t49.5 45t50 52.5q16 3 32 0q16 -31 27.5 -54t27 -46t43.5 -56q-6 -12 -19 -19q-41 23 -63 41.5t-48 39.5q-20 -12 -42 -25t-48 -27t-61 -29z" />
    <glyph glyph-name="Ycircumflex" unicode="&#x176;" horiz-adv-x="639" 
d="M136 -2q0 8 2.5 19t5.5 18h72q14 42 25 83.5t18 71.5l3 13q16 68 11.5 137.5t-22.5 132.5t-43.5 113.5t-52.5 78.5h146q1 -18 12.5 -44.5t25.5 -64t25 -88.5t11 -118q19 43 45.5 88.5t56.5 88t60 76.5q20 23 30 38t14 24h82q-62 -54 -111.5 -116.5t-86.5 -126t-60 -120.5
t-33 -99l-3 -13q-7 -32 -12.5 -71t-10.5 -84h72q0 -7 -2.5 -18t-5.5 -19q-34 2 -68.5 2h-67.5h-68.5t-69.5 -2zM91 665q0 8 2.5 19t5.5 18q34 -1 65.5 -1.5t50.5 -0.5q20 0 62.5 0.5t85.5 1.5q0 -7 -2.5 -18t-5.5 -19h-264zM500 665q0 8 2.5 19t5.5 18q41 -1 71.5 -1.5
t49.5 -0.5q20 0 42 0.5t57 1.5q0 -7 -2.5 -18t-5.5 -19h-220zM292 762q-5 5 -8.5 10t-5.5 13q37 23 62 39.5t43.5 30.5t36.5 30.5t40 39.5q16 3 32 0q17 -31 30.5 -51.5t33.5 -41t55 -51.5q-6 -13 -15 -19q-33 12 -55.5 22t-40.5 21t-38 25q-27 -14 -51 -25t-52 -21t-67 -22
z" />
    <glyph glyph-name="ycircumflex" unicode="&#x177;" horiz-adv-x="526" 
d="M385 338h26q-22 -100 -51 -164.5t-62.5 -101.5t-69.5 -52t-72 -15q-55 0 -78.5 33t-7.5 106l26 116q7 30 11.5 61.5t8.5 81.5h-57q0 8 2.5 19t5.5 18q39 0 83 2.5t92 10.5q-11 -26 -22 -62t-19.5 -71t-14.5 -60l-26 -114q-8 -35 1 -55.5t37 -20.5t55.5 19.5t53 55.5
t45.5 85t33 108zM400 440q26 0 49.5 1t49.5 4q-7 -29 -13 -55t-11 -52l-56 -268q-20 -95 -69 -161t-114.5 -100t-135.5 -34q-58 0 -97 25t-39 75q0 33 16.5 58.5t40.5 44.5t49 32t41 20l20 -18q-43 -25 -64.5 -54.5t-21.5 -68.5q0 -34 18 -54t59 -20q55 0 96 32.5t69 89
t44 127.5l24 107l-2 16l32 151q5 26 9.5 51.5t5.5 50.5zM195 515q-6 5 -9 10.5t-5 12.5q39 32 65.5 54.5t49.5 45t50 52.5q16 3 32 0q16 -31 27.5 -54t27 -46t43.5 -56q-6 -12 -19 -19q-41 23 -63 41.5t-48 39.5q-20 -12 -42 -25t-48 -27t-61 -29z" />
    <glyph glyph-name="Ydieresis" unicode="&#x178;" horiz-adv-x="639" 
d="M136 -2q0 8 2.5 19t5.5 18h72q14 42 25 83.5t18 71.5l3 13q16 68 11.5 137.5t-22.5 132.5t-43.5 113.5t-52.5 78.5h146q1 -18 12.5 -44.5t25.5 -64t25 -88.5t11 -118q19 43 45.5 88.5t56.5 88t60 76.5q20 23 30 38t14 24h82q-62 -54 -111.5 -116.5t-86.5 -126t-60 -120.5
t-33 -99l-3 -13q-7 -32 -12.5 -71t-10.5 -84h72q0 -7 -2.5 -18t-5.5 -19q-34 2 -68.5 2h-67.5h-68.5t-69.5 -2zM91 665q0 8 2.5 19t5.5 18q34 -1 65.5 -1.5t50.5 -0.5q20 0 62.5 0.5t85.5 1.5q0 -7 -2.5 -18t-5.5 -19h-264zM500 665q0 8 2.5 19t5.5 18q41 -1 71.5 -1.5
t49.5 -0.5q20 0 42 0.5t57 1.5q0 -7 -2.5 -18t-5.5 -19h-220zM368 909l48 -41l-14 -64l-60 -18l-48 41l14 64zM587 909l48 -41l-14 -64l-60 -18l-48 41l14 64z" />
    <glyph glyph-name="Zacute" unicode="&#x179;" horiz-adv-x="644" 
d="M168 700h515q-1 -13 -2.5 -24.5t-5.5 -25.5l-131 10h-213q-41 0 -74.5 -14.5t-58 -47t-39.5 -88.5q-16 -3 -32 0zM549 0h-556q2 12 3 24.5t4 25.5l138 -10h248q47 0 80 14.5t55 47.5t36 88q17 3 32 0zM544 660l131 -10q-25 -13 -48.5 -36t-43.5 -48t-37 -46l-271 -340
q-45 -56 -76.5 -91.5t-60.5 -48.5l-138 10q21 9 47.5 31.5t52.5 49.5t43 49l271 340q50 62 77.5 94.5t52.5 45.5zM615 925q-24 -38 -61.5 -63.5t-75.5 -46t-67 -45.5q-16 -3 -32 0q35 38 61.5 73.5t49.5 81.5h125z" />
    <glyph glyph-name="zacute" unicode="&#x17a;" horiz-adv-x="471" 
d="M-23 0q45 48 95.5 95.5t102.5 95.5t102.5 95.5t95.5 95.5l75 15q-45 -48 -95.5 -95.5t-102 -95t-102 -95t-95.5 -95.5zM295 -29q-34 0 -55.5 8t-39 19t-37.5 19t-52 8q-31 0 -52.5 -10.5t-50.5 -38.5q-17 9 -31 24l161 110q46 0 71 -13.5t40.5 -31.5t30 -31.5t39.5 -13.5
q26 0 37.5 15.5t11.5 35.5q0 24 -12.5 42t-28.5 31q11 12 30 20q24 -18 40 -41t15 -58q-1 -44 -34 -69t-83 -25zM75 280l34 160h345q0 -22 -6 -43l-83 -32h-156q-31 0 -48.5 -8.5t-28.5 -27t-25 -49.5q-17 -3 -32 0zM459 690q-19 -34 -51 -61t-65.5 -52.5t-60.5 -56.5
q-16 -3 -32 0q35 47 56.5 87t37.5 83h115z" />
    <glyph glyph-name="Zdotaccent" unicode="&#x17b;" horiz-adv-x="644" 
d="M168 700h515q-1 -13 -2.5 -24.5t-5.5 -25.5l-131 10h-213q-41 0 -74.5 -14.5t-58 -47t-39.5 -88.5q-16 -3 -32 0zM549 0h-556q2 12 3 24.5t4 25.5l138 -10h248q47 0 80 14.5t55 47.5t36 88q17 3 32 0zM544 660l131 -10q-25 -13 -48.5 -36t-43.5 -48t-37 -46l-271 -340
q-45 -56 -76.5 -91.5t-60.5 -48.5l-138 10q21 9 47.5 31.5t52.5 49.5t43 49l271 340q50 62 77.5 94.5t52.5 45.5zM445 909l48 -41l-14 -64l-60 -18l-48 41l14 64z" />
    <glyph glyph-name="zdotaccent" unicode="&#x17c;" horiz-adv-x="471" 
d="M-23 0q45 48 95.5 95.5t102.5 95.5t102.5 95.5t95.5 95.5l75 15q-45 -48 -95.5 -95.5t-102 -95t-102 -95t-95.5 -95.5zM295 -29q-34 0 -55.5 8t-39 19t-37.5 19t-52 8q-31 0 -52.5 -10.5t-50.5 -38.5q-17 9 -31 24l161 110q46 0 71 -13.5t40.5 -31.5t30 -31.5t39.5 -13.5
q26 0 37.5 15.5t11.5 35.5q0 24 -12.5 42t-28.5 31q11 12 30 20q24 -18 40 -41t15 -58q-1 -44 -34 -69t-83 -25zM75 280l34 160h345q0 -22 -6 -43l-83 -32h-156q-31 0 -48.5 -8.5t-28.5 -27t-25 -49.5q-17 -3 -32 0zM316 669l48 -41l-14 -64l-60 -18l-48 41l14 64z" />
    <glyph glyph-name="Zcaron" unicode="&#x17d;" horiz-adv-x="644" 
d="M168 700h515q-1 -13 -2.5 -24.5t-5.5 -25.5l-131 10h-213q-41 0 -74.5 -14.5t-58 -47t-39.5 -88.5q-16 -3 -32 0zM549 0h-556q2 12 3 24.5t4 25.5l138 -10h248q47 0 80 14.5t55 47.5t36 88q17 3 32 0zM544 660l131 -10q-25 -13 -48.5 -36t-43.5 -48t-37 -46l-271 -340
q-45 -56 -76.5 -91.5t-60.5 -48.5l-138 10q21 9 47.5 31.5t52.5 49.5t43 49l271 340q50 62 77.5 94.5t52.5 45.5zM605 933q5 -4 9 -9.5t5 -13.5q-37 -23 -62 -39.5t-43.5 -30.5t-36.5 -30.5t-40 -39.5q-16 -3 -32 0q-16 31 -30 51.5t-34 41t-55 51.5q6 13 15 19
q33 -12 55.5 -22t41 -21t37.5 -25q27 15 51 26t52 21t67 21z" />
    <glyph glyph-name="zcaron" unicode="&#x17e;" horiz-adv-x="471" 
d="M-23 0q45 48 95.5 95.5t102.5 95.5t102.5 95.5t95.5 95.5l75 15q-45 -48 -95.5 -95.5t-102 -95t-102 -95t-95.5 -95.5zM295 -29q-34 0 -55.5 8t-39 19t-37.5 19t-52 8q-31 0 -52.5 -10.5t-50.5 -38.5q-17 9 -31 24l161 110q46 0 71 -13.5t40.5 -31.5t30 -31.5t39.5 -13.5
q26 0 37.5 15.5t11.5 35.5q0 24 -12.5 42t-28.5 31q11 12 30 20q24 -18 40 -41t15 -58q-1 -44 -34 -69t-83 -25zM75 280l34 160h345q0 -22 -6 -43l-83 -32h-156q-31 0 -48.5 -8.5t-28.5 -27t-25 -49.5q-17 -3 -32 0zM455 695q6 -5 9.5 -10t4.5 -13q-39 -31 -65.5 -54
t-49 -45t-50.5 -53q-16 -3 -32 0q-15 32 -27 54.5t-27.5 45.5t-43.5 56q6 12 19 19q41 -22 63 -41t48 -40q21 12 42.5 25t48 27t60.5 29z" />
    <glyph glyph-name="uni018F" unicode="&#x18f;" horiz-adv-x="717" 
d="M403 715q85 0 152 -32t105.5 -98t38.5 -167q0 -83 -27 -160.5t-79 -139t-125.5 -97.5t-166.5 -36q-98 0 -157.5 41t-80.5 115.5t-6 175.5q33 -4 70 -7.5t89 -3.5h374l-6 -40h-404q-12 -81 1.5 -134.5t45.5 -80t74 -26.5q57 0 101 25t76.5 67t53.5 94t31.5 108t10.5 108
q0 61 -21 114t-64.5 86.5t-113.5 33.5q-61 0 -124.5 -33.5t-131.5 -112.5q-9 6 -15.5 12t-13.5 14q78 87 151.5 130.5t161.5 43.5z" />
    <glyph glyph-name="florin" unicode="&#x192;" horiz-adv-x="396" 
d="M6 -225q-1 19 3 38q38 5 60.5 32t33.5 65.5t14 79.5l41 460q9 98 29 157t55 86t87 27q60 0 80.5 -31t15.5 -78h-95q6 32 -0.5 53t-22.5 21q-10 0 -17.5 -8.5t-13.5 -32.5t-12 -70t-12 -120l-32 -380q-3 -28 -4.5 -56.5t1.5 -57.5q-7 -28 -22.5 -59.5t-41 -59.5t-62 -46
t-85.5 -20zM397 400h-310q-3 20 0 40h310q3 -20 0 -40z" />
    <glyph glyph-name="Ohorn" unicode="&#x1a0;" horiz-adv-x="802" 
d="M484 715q87 0 154 -32t105 -98t38 -167q0 -84 -27.5 -161.5t-80 -138.5t-128.5 -97t-173 -36q-87 0 -154 32t-105 98t-38 167q0 84 27.5 161.5t80 138.5t128.5 97t173 36zM373 27q82 0 145.5 51.5t100.5 142t37 206.5q0 71 -16.5 126.5t-54.5 87.5t-102 32
q-81 0 -145 -51.5t-101 -141.5t-37 -207q0 -70 16.5 -126t54.5 -88t102 -32zM698 577l3 43q28 0 47 22.5t19 53.5q0 14 -6 29.5t-22 37.5h125q-1 -14 -2 -24t-3 -21q-8 -37 -30.5 -69t-55.5 -52t-75 -20z" />
    <glyph glyph-name="ohorn" unicode="&#x1a1;" horiz-adv-x="521" 
d="M313 415q-42 0 -75.5 -26.5t-56.5 -68t-35 -89t-12 -89.5q0 -57 18 -87t56 -30v-40q-82 0 -126.5 46.5t-44.5 123.5q0 59 20.5 113t58 96t88 66.5t109.5 24.5v-40zM208 25q42 0 75.5 26.5t56.5 68t35 89t12 89.5q0 57 -18 87t-56 30v40q82 0 126.5 -46.5t44.5 -123.5
q0 -59 -20.5 -113t-58 -96t-88 -66.5t-109.5 -24.5v40zM424 357l1 35q27 0 46.5 22t19.5 52q0 25 -20 59h105q0 -12 -1.5 -23.5t-3.5 -22.5q-6 -29 -26.5 -57t-51.5 -46.5t-69 -18.5z" />
    <glyph glyph-name="Uhorn" unicode="&#x1af;" horiz-adv-x="738" 
d="M764 657h-32q-12 -33 -20.5 -58.5t-15 -51t-13.5 -57.5l-61 -285q-22 -103 -96 -161.5t-185 -58.5q-144 0 -198.5 54t-30.5 166l61 285q8 37 14.5 75.5t12.5 99.5h-72q0 8 2.5 19t5.5 18q34 -1 68 -1.5t68 -0.5q35 0 69 0.5t69 1.5q0 -7 -2.5 -18t-5.5 -19h-72
q-15 -46 -25.5 -85.5t-21.5 -89.5l-56 -260q-23 -109 13.5 -153.5t119.5 -44.5q89 0 144 50.5t74 136.5l58 271q7 30 11 56.5t6.5 55t4.5 63.5h-77q0 8 2.5 19t5.5 18q34 -1 65.5 -1.5t50.5 -0.5h26.5h35.5zM764 657l3 43q28 0 47 22.5t19 53.5q0 14 -6 29.5t-22 37.5h125
q-1 -14 -2 -24t-3 -21q-8 -37 -30.5 -69t-55.5 -52t-75 -20z" />
    <glyph glyph-name="uhorn" unicode="&#x1b0;" horiz-adv-x="561" 
d="M147 -15q-52 0 -74.5 33t-6.5 106l30 136q7 30 11.5 61.5t8.5 81.5h-57q0 8 2.5 19t5.5 18q39 0 83 2.5t92 10.5q-11 -26 -22 -62t-19.5 -71t-14.5 -60l-30 -134q-7 -35 1 -55.5t35 -20.5q29 0 57.5 22.5t54.5 62t47 92t34 111.5h26q-29 -133 -71.5 -210t-92 -110
t-100.5 -33zM396 -15q-43 0 -58.5 30t-5.5 77l53 246q5 26 9.5 51.5t5.5 50.5h98q-7 -28 -12.5 -52.5t-10.5 -49.5l-53 -246q-5 -23 -2.5 -37.5t16.5 -14.5t31.5 15t40.5 51q9 -4 16 -8.5t14 -11.5q-24 -45 -62 -73t-80 -28zM474 405l1 35q27 0 46.5 22t19.5 52q0 25 -20 59
h105q0 -12 -1.5 -23.5t-3.5 -22.5q-6 -29 -26.5 -57t-51.5 -46.5t-69 -18.5z" />
    <glyph glyph-name="uni01C4" unicode="&#x1c4;" horiz-adv-x="1419" 
d="M282 700h195q137 0 215.5 -65t78.5 -200q0 -93 -35 -172.5t-98 -138t-147.5 -91.5t-182.5 -33h-175h-68t-69 -2q0 8 2.5 19t5.5 18h72q15 45 27 91t20 84l60 280q8 38 15 80.5t12 94.5h-72q0 8 2.5 19t5.5 18q34 -1 68 -1.5t68 -0.5zM207 40h100q77 0 139 30t107 83
t69 122.5t24 148.5q0 118 -43 177t-144 59h-120q-15 -46 -25 -83t-21 -87l-60 -280q-8 -39 -14.5 -80t-11.5 -90zM943 700h515q-1 -13 -2.5 -24.5t-5.5 -25.5l-131 10h-213q-41 0 -74.5 -14.5t-58 -47t-39.5 -88.5q-16 -3 -32 0zM1324 0h-556q2 12 3 24.5t4 25.5l138 -10
h248q47 0 80 14.5t55 47.5t36 88q17 3 32 0zM1319 660l131 -10q-25 -13 -48.5 -36t-43.5 -48t-37 -46l-271 -340q-45 -56 -76.5 -91.5t-60.5 -48.5l-138 10q21 9 47.5 31.5t52.5 49.5t43 49l271 340q50 62 77.5 94.5t52.5 45.5zM1380 933q5 -4 9 -9.5t5 -13.5
q-37 -23 -62 -39.5t-43.5 -30.5t-36.5 -30.5t-40 -39.5q-16 -3 -32 0q-16 31 -30 51.5t-34 41t-55 51.5q6 13 15 19q33 -12 55.5 -22t41 -21t37.5 -25q27 15 51 26t52 21t67 21z" />
    <glyph glyph-name="uni01C5" unicode="&#x1c5;" horiz-adv-x="1251" 
d="M282 700h195q137 0 215.5 -65t78.5 -200q0 -93 -35 -172.5t-98 -138t-147.5 -91.5t-182.5 -33h-175h-68t-69 -2q0 8 2.5 19t5.5 18h72q15 45 27 91t20 84l60 280q8 38 15 80.5t12 94.5h-72q0 8 2.5 19t5.5 18q34 -1 68 -1.5t68 -0.5zM207 40h100q77 0 139 30t107 83
t69 122.5t24 148.5q0 118 -43 177t-144 59h-120q-15 -46 -25 -83t-21 -87l-60 -280q-8 -39 -14.5 -80t-11.5 -90zM757 0q45 48 95.5 95.5t102.5 95.5t102.5 95.5t95.5 95.5l75 15q-45 -48 -95.5 -95.5t-102 -95t-102 -95t-95.5 -95.5zM1075 -29q-34 0 -55.5 8t-39 19
t-37.5 19t-52 8q-31 0 -52.5 -10.5t-50.5 -38.5q-17 9 -31 24l161 110q46 0 71 -13.5t40.5 -31.5t30 -31.5t39.5 -13.5q26 0 37.5 15.5t11.5 35.5q0 24 -12.5 42t-28.5 31q11 12 30 20q24 -18 40 -41t15 -58q-1 -44 -34 -69t-83 -25zM855 280l34 160h345q0 -22 -6 -43
l-83 -32h-156q-31 0 -48.5 -8.5t-28.5 -27t-25 -49.5q-17 -3 -32 0zM1235 695q6 -5 9.5 -10t4.5 -13q-39 -31 -65.5 -54t-49 -45t-50.5 -53q-16 -3 -32 0q-15 32 -27 54.5t-27.5 45.5t-43.5 56q6 12 19 19q41 -22 63 -41t48 -40q21 12 42.5 25t48 27t60.5 29z" />
    <glyph glyph-name="uni01C6" unicode="&#x1c6;" horiz-adv-x="1031" 
d="M399 -15q-43 0 -58.5 30t-5.5 77l12 59l42 82l-8 80l44 207q8 34 13 70t7 73h-57q0 7 2.5 18.5t5.5 18.5q35 0 81.5 2.5t93.5 10.5q-11 -27 -22 -63t-20 -71t-14 -59l-90 -428q-5 -23 -2.5 -37.5t16.5 -14.5t31.5 15t40.5 51q9 -4 16 -8.5t14 -11.5q-24 -45 -62 -73
t-80 -28zM165 -15q-61 0 -95.5 40t-34.5 111q0 57 18 113.5t53 103t85.5 74.5t114.5 28t107.5 -30t50.5 -80l-48 -32q0 -57 -19.5 -114.5t-54.5 -106t-80.5 -78t-96.5 -29.5zM205 45q38 0 69.5 26t55 67.5t36.5 87.5t13 86q0 50 -18.5 76.5t-52.5 26.5q-36 0 -68 -26.5
t-56.5 -68.5t-38.5 -89.5t-14 -88.5q0 -49 21 -73t53 -24zM537 0q45 48 95.5 95.5t102.5 95.5t102.5 95.5t95.5 95.5l75 15q-45 -48 -95.5 -95.5t-102 -95t-102 -95t-95.5 -95.5zM855 -29q-34 0 -55.5 8t-39 19t-37.5 19t-52 8q-31 0 -52.5 -10.5t-50.5 -38.5q-17 9 -31 24
l161 110q46 0 71 -13.5t40.5 -31.5t30 -31.5t39.5 -13.5q26 0 37.5 15.5t11.5 35.5q0 24 -12.5 42t-28.5 31q11 12 30 20q24 -18 40 -41t15 -58q-1 -44 -34 -69t-83 -25zM635 280l34 160h345q0 -22 -6 -43l-83 -32h-156q-31 0 -48.5 -8.5t-28.5 -27t-25 -49.5q-17 -3 -32 0z
M1015 695q6 -5 9.5 -10t4.5 -13q-39 -31 -65.5 -54t-49 -45t-50.5 -53q-16 -3 -32 0q-15 32 -27 54.5t-27.5 45.5t-43.5 56q6 12 19 19q41 -22 63 -41t48 -40q21 12 42.5 25t48 27t60.5 29z" />
    <glyph glyph-name="uni01C7" unicode="&#x1c7;" horiz-adv-x="1033" 
d="M-4 -2q0 8 2.5 19t5.5 18h72q15 45 27 91t20 84l60 280q8 38 15 80.5t12 94.5h-72q0 8 2.5 19t5.5 18q34 -1 68 -1.5t68 -0.5q35 0 69 0.5t69 1.5q0 -7 -2.5 -18t-5.5 -19h-72q-15 -46 -25.5 -85.5t-21.5 -89.5l-60 -280q-7 -37 -14.5 -80.5t-12.5 -94.5h133
q77 0 115.5 42t60.5 128q16 3 32 0l-44 -205h-370h-68t-69 -2zM702 -15q-37 0 -64.5 8.5t-44 27.5t-21 49.5t4.5 74.5h105q-15 -69 -8.5 -97t35.5 -28q32 0 51 32t32 93l73 345q9 41 16.5 85.5t11.5 89.5h-92q0 7 2 18t5 19q50 -1 86.5 -1.5t70.5 -0.5q35 0 69 0.5t68 1.5
q0 -7 -2 -18t-5 -19h-72q-16 -50 -27 -90t-21 -85l-73 -345q-9 -41 -27 -71.5t-44 -50t-58.5 -29t-70.5 -9.5z" />
    <glyph glyph-name="uni01C8" unicode="&#x1c8;" horiz-adv-x="839" 
d="M-4 -2q0 8 2.5 19t5.5 18h72q15 45 27 91t20 84l60 280q8 38 15 80.5t12 94.5h-72q0 8 2.5 19t5.5 18q34 -1 68 -1.5t68 -0.5q35 0 69 0.5t69 1.5q0 -7 -2.5 -18t-5.5 -19h-72q-15 -46 -25.5 -85.5t-21.5 -89.5l-60 -280q-7 -37 -14.5 -80.5t-12.5 -94.5h133
q77 0 115.5 42t60.5 128q16 3 32 0l-44 -205h-370h-68t-69 -2zM485 -225q-4 7 -6.5 17.5t-2.5 20.5q63 18 100.5 76t61.5 171l42 200q8 36 13 71t7 72h-57q1 8 3 18.5t5 18.5q38 0 83 2.5t92 10.5q-12 -27 -22.5 -62.5t-19 -70.5t-14.5 -60l-34 -156q-12 -55 -26.5 -107.5
t-40 -97t-69.5 -77t-115 -47.5zM810 669l48 -41l-14 -64l-60 -18l-48 41l14 64z" />
    <glyph glyph-name="uni01C9" unicode="&#x1c9;" horiz-adv-x="540" 
d="M113 -15q-43 0 -58.5 30t-5.5 77l90 428q7 34 12.5 70t7.5 73h-57q0 7 2.5 18.5t5.5 18.5q35 0 81.5 2.5t93.5 10.5q-11 -27 -22 -63t-20 -71t-14 -59l-90 -428q-5 -23 -2.5 -37.5t16.5 -14.5t31.5 15t40.5 51q9 -4 16 -8.5t14 -11.5q-24 -45 -62 -73t-80 -28zM186 -225
q-4 7 -6.5 17.5t-2.5 20.5q63 18 100.5 76t61.5 171l42 200q8 36 13 71t7 72h-57q1 8 3 18.5t5 18.5q38 0 83 2.5t92 10.5q-12 -27 -22.5 -62.5t-19 -70.5t-14.5 -60l-34 -156q-12 -55 -26.5 -107.5t-40 -97t-69.5 -77t-115 -47.5zM511 669l48 -41l-14 -64l-60 -18l-48 41
l14 64z" />
    <glyph glyph-name="uni01CA" unicode="&#x1ca;" horiz-adv-x="1240" 
d="M566 0q-8 40 -19.5 71.5t-31.5 70.5l-247 493l-17 65q33 0 61.5 0.5t55.5 1.5q6 -25 15.5 -50t27.5 -61l203 -408l5 -183q-15 -2 -27 -2t-26 2zM-3 -2q0 8 2.5 19t5.5 18h67q18 47 30 88.5t22 86.5l60 280q8 37 13.5 80t8.5 95h-67q0 8 2.5 19t5.5 18q34 -1 60 -1.5
t44 -0.5l17 -65q-9 -31 -19 -69t-18 -76l-60 -280q-7 -37 -13.5 -78t-8.5 -97h77q0 -7 -2.5 -18t-5.5 -19q-34 2 -65 2h-51h-44t-61 -2zM619 0l-5 183l63 307q9 44 14 83.5t8 91.5h-77q0 8 2.5 19t5.5 18q34 -1 65.5 -1.5t50.5 -0.5q17 0 43.5 0.5t61.5 1.5q0 -7 -2.5 -18
t-5.5 -19h-67q-13 -35 -22 -62t-16 -53t-14 -60zM909 -15q-37 0 -64.5 8.5t-44 27.5t-21 49.5t4.5 74.5h105q-15 -69 -8.5 -97t35.5 -28q32 0 51 32t32 93l73 345q9 41 16.5 85.5t11.5 89.5h-92q0 7 2 18t5 19q50 -1 86.5 -1.5t70.5 -0.5q35 0 69 0.5t68 1.5q0 -7 -2 -18
t-5 -19h-72q-16 -50 -27 -90t-21 -85l-73 -345q-9 -41 -27 -71.5t-44 -50t-58.5 -29t-70.5 -9.5z" />
    <glyph glyph-name="uni01CB" unicode="&#x1cb;" horiz-adv-x="1046" 
d="M566 0q-8 40 -19.5 71.5t-31.5 70.5l-247 493l-17 65q33 0 61.5 0.5t55.5 1.5q6 -25 15.5 -50t27.5 -61l203 -408l5 -183q-15 -2 -27 -2t-26 2zM-3 -2q0 8 2.5 19t5.5 18h67q18 47 30 88.5t22 86.5l60 280q8 37 13.5 80t8.5 95h-67q0 8 2.5 19t5.5 18q34 -1 60 -1.5
t44 -0.5l17 -65q-9 -31 -19 -69t-18 -76l-60 -280q-7 -37 -13.5 -78t-8.5 -97h77q0 -7 -2.5 -18t-5.5 -19q-34 2 -65 2h-51h-44t-61 -2zM619 0l-5 183l63 307q9 44 14 83.5t8 91.5h-77q0 8 2.5 19t5.5 18q34 -1 65.5 -1.5t50.5 -0.5q17 0 43.5 0.5t61.5 1.5q0 -7 -2.5 -18
t-5.5 -19h-67q-13 -35 -22 -62t-16 -53t-14 -60zM692 -225q-4 7 -6.5 17.5t-2.5 20.5q63 18 100.5 76t61.5 171l42 200q8 36 13 71t7 72h-57q1 8 3 18.5t5 18.5q38 0 83 2.5t92 10.5q-12 -27 -22.5 -62.5t-19 -70.5t-14.5 -60l-34 -156q-12 -55 -26.5 -107.5t-40 -97
t-69.5 -77t-115 -47.5zM1017 669l48 -41l-14 -64l-60 -18l-48 41l14 64z" />
    <glyph glyph-name="uni01CC" unicode="&#x1cc;" horiz-adv-x="831" 
d="M45 -5q7 29 13 55.5t11 51.5l34 158q7 30 11.5 61.5t8.5 81.5h-57q0 8 2.5 19t5.5 18q39 0 80.5 2.5t89.5 10.5q-15 -36 -24 -63t-14.5 -56.5t-12.5 -73.5l-34 -158q-5 -25 -9 -50.5t-6 -51.5q-26 0 -49.5 -1t-49.5 -4zM405 -15q-43 0 -59.5 30.5t-4.5 76.5l57 222
q9 35 0 55.5t-37 20.5q-30 0 -60.5 -22.5t-58 -62t-49 -92t-34.5 -111.5h-26q29 133 73 210t95.5 110t102.5 33q54 0 78.5 -32.5t5.5 -106.5l-57 -224q-6 -23 -3 -37.5t17 -14.5t31.5 15t40.5 51q9 -4 16 -8.5t14 -11.5q-24 -45 -62 -73t-80 -28zM477 -225q-4 7 -6.5 17.5
t-2.5 20.5q63 18 100.5 76t61.5 171l42 200q8 36 13 71t7 72h-57q1 8 3 18.5t5 18.5q38 0 83 2.5t92 10.5q-12 -27 -22.5 -62.5t-19 -70.5t-14.5 -60l-34 -156q-12 -55 -26.5 -107.5t-40 -97t-69.5 -77t-115 -47.5zM802 669l48 -41l-14 -64l-60 -18l-48 41l14 64z" />
    <glyph glyph-name="uni01CD" unicode="&#x1cd;" horiz-adv-x="653" 
d="M-61 -2q0 8 2.5 19t5.5 18h52q33 45 60.5 86.5t55.5 88.5l186 309q15 25 36 59t43.5 71t41.5 71q11 2 21.5 2.5t20.5 0t19 -2.5l-103 -159l-211 -351q-23 -38 -45 -81t-37 -94h79q0 -7 -2.5 -18t-5.5 -19q-41 2 -73.5 2h-49.5h-39.5t-56.5 -2zM540 35h62q0 -7 -2.5 -18
t-5.5 -19q-34 2 -61.5 2h-59.5h-70.5t-70.5 -2q0 8 2.5 19t5.5 18h69q2 44 2.5 88t-3.5 87l-28 351l103 159q-1 -50 2 -99t9 -121l25 -290q3 -38 7.5 -80t13.5 -95zM435 235h-260l9 40h260zM646 933q5 -4 9 -9.5t5 -13.5q-37 -23 -62 -39.5t-43.5 -30.5t-36.5 -30.5
t-40 -39.5q-16 -3 -32 0q-16 31 -30 51.5t-34 41t-55 51.5q6 13 15 19q33 -12 55.5 -22t41 -21t37.5 -25q27 15 51 26t52 21t67 21z" />
    <glyph glyph-name="uni01CE" unicode="&#x1ce;" horiz-adv-x="550" 
d="M388 -15q-43 0 -59 30t-6 77l17 80l35 69l10 134l82 65q16 3 32 0q-14 -40 -27.5 -91t-21.5 -89l-36 -168q-4 -22 -2.5 -37t16.5 -15q14 0 31.5 15t40.5 51q9 -4 16 -8.5t14 -11.5q-24 -45 -62 -73t-80 -28zM156 -15q-58 0 -89.5 40t-31.5 114q0 56 19 112t54 102t85 74
t113 28q64 0 105 -30t48 -80l-53 -32q0 -56 -19.5 -114t-54 -106.5t-79.5 -78t-97 -29.5zM200 45q36 0 66.5 26t53.5 67.5t36 88.5t13 89q0 45 -14.5 72t-48.5 27t-65.5 -26.5t-56 -68.5t-39 -89.5t-14.5 -88.5q0 -49 18.5 -73t50.5 -24zM497 695q6 -5 9.5 -10t4.5 -13
q-39 -31 -65.5 -54t-49 -45t-50.5 -53q-16 -3 -32 0q-15 32 -27 54.5t-27.5 45.5t-43.5 56q6 12 19 19q41 -22 63 -41t48 -40q21 12 42.5 25t48 27t60.5 29z" />
    <glyph glyph-name="uni01CF" unicode="&#x1cf;" horiz-adv-x="362" 
d="M-4 -2q0 8 2.5 19t5.5 18h72q15 45 27 91t20 84l60 280q8 38 15 80.5t12 94.5h-72q0 8 2.5 19t5.5 18q34 -1 68 -1.5t68 -0.5q35 0 69 0.5t69 1.5q0 -7 -2.5 -18t-5.5 -19h-72q-15 -46 -25.5 -85.5t-21.5 -89.5l-60 -280q-7 -37 -14.5 -80.5t-12.5 -94.5h72
q0 -7 -2.5 -18t-5.5 -19q-34 2 -68 2h-69h-68t-69 -2zM486 933q5 -4 9 -9.5t5 -13.5q-37 -23 -62 -39.5t-43.5 -30.5t-36.5 -30.5t-40 -39.5q-16 -3 -32 0q-16 31 -30 51.5t-34 41t-55 51.5q6 13 15 19q33 -12 55.5 -22t41 -21t37.5 -25q27 15 51 26t52 21t67 21z" />
    <glyph glyph-name="uni01D0" unicode="&#x1d0;" horiz-adv-x="294" 
d="M127 -15q-43 0 -58.5 30t-5.5 77l36 168q7 30 11.5 61.5t8.5 81.5h-57q0 8 2.5 19t5.5 18q39 0 83 2.5t92 10.5q-11 -26 -22 -62t-19.5 -71t-14.5 -60l-36 -168q-5 -23 -2.5 -37.5t16.5 -14.5t31.5 15t40.5 51q9 -4 16 -8.5t14 -11.5q-24 -45 -62 -73t-80 -28zM368 695
q6 -5 9.5 -10t4.5 -13q-39 -31 -65.5 -54t-49 -45t-50.5 -53q-16 -3 -32 0q-15 32 -27 54.5t-27.5 45.5t-43.5 56q6 12 19 19q41 -22 63 -41t48 -40q21 12 42.5 25t48 27t60.5 29z" />
    <glyph glyph-name="uni01D1" unicode="&#x1d1;" horiz-adv-x="802" 
d="M484 715q87 0 154 -32t105 -98t38 -167q0 -84 -27.5 -161.5t-80 -138.5t-128.5 -97t-173 -36q-87 0 -154 32t-105 98t-38 167q0 84 27.5 161.5t80 138.5t128.5 97t173 36zM373 27q82 0 145.5 51.5t100.5 142t37 206.5q0 71 -16.5 126.5t-54.5 87.5t-102 32
q-81 0 -145 -51.5t-101 -141.5t-37 -207q0 -70 16.5 -126t54.5 -88t102 -32zM694 933q5 -4 9 -9.5t5 -13.5q-37 -23 -62 -39.5t-43.5 -30.5t-36.5 -30.5t-40 -39.5q-16 -3 -32 0q-16 31 -30 51.5t-34 41t-55 51.5q6 13 15 19q33 -12 55.5 -22t41 -21t37.5 -25q27 15 51 26
t52 21t67 21z" />
    <glyph glyph-name="uni01D2" unicode="&#x1d2;" horiz-adv-x="521" 
d="M313 415q-42 0 -75.5 -26.5t-56.5 -68t-35 -89t-12 -89.5q0 -57 18 -87t56 -30v-40q-82 0 -126.5 46.5t-44.5 123.5q0 59 20.5 113t58 96t88 66.5t109.5 24.5v-40zM208 25q42 0 75.5 26.5t56.5 68t35 89t12 89.5q0 57 -18 87t-56 30v40q82 0 126.5 -46.5t44.5 -123.5
q0 -59 -20.5 -113t-58 -96t-88 -66.5t-109.5 -24.5v40zM496 695q6 -5 9.5 -10t4.5 -13q-39 -31 -65.5 -54t-49 -45t-50.5 -53q-16 -3 -32 0q-15 32 -27 54.5t-27.5 45.5t-43.5 56q6 12 19 19q41 -22 63 -41t48 -40q21 12 42.5 25t48 27t60.5 29z" />
    <glyph glyph-name="uni01D3" unicode="&#x1d3;" horiz-adv-x="738" 
d="M341 -15q-144 0 -198.5 54t-30.5 166l61 285q8 37 14.5 75.5t12.5 99.5h-72q0 8 2.5 19t5.5 18q34 -1 68 -1.5t68 -0.5q35 0 69 0.5t69 1.5q0 -7 -2.5 -18t-5.5 -19h-72q-15 -46 -25.5 -85.5t-21.5 -89.5l-56 -260q-23 -109 13.5 -153.5t119.5 -44.5q89 0 144 50.5
t74 136.5l58 271q6 30 10 56.5t7 55t5 63.5h-77q0 8 2.5 19t5.5 18q34 -1 65.5 -1.5t50.5 -0.5q17 0 43.5 0.5t61.5 1.5q0 -7 -2.5 -18t-5.5 -19h-67q-13 -35 -22 -62t-16 -53t-14 -60l-61 -285q-22 -103 -96 -161.5t-185 -58.5zM701 933q5 -4 9 -9.5t5 -13.5
q-37 -23 -62 -39.5t-43.5 -30.5t-36.5 -30.5t-40 -39.5q-16 -3 -32 0q-16 31 -30 51.5t-34 41t-55 51.5q6 13 15 19q33 -12 55.5 -22t41 -21t37.5 -25q27 15 51 26t52 21t67 21z" />
    <glyph glyph-name="uni01D4" unicode="&#x1d4;" horiz-adv-x="561" 
d="M147 -15q-52 0 -74.5 33t-6.5 106l30 136q7 30 11.5 61.5t8.5 81.5h-57q0 8 2.5 19t5.5 18q39 0 83 2.5t92 10.5q-11 -26 -22 -62t-19.5 -71t-14.5 -60l-30 -134q-7 -35 1 -55.5t35 -20.5q29 0 57.5 22.5t54.5 62t47 92t34 111.5h26q-29 -133 -71.5 -210t-92 -110
t-100.5 -33zM396 -15q-43 0 -58.5 30t-5.5 77l53 246q5 26 9.5 51.5t5.5 50.5q26 0 49.5 1t49.5 4q-7 -29 -13 -55t-11 -52l-53 -246q-5 -23 -2.5 -37.5t16.5 -14.5t31.5 15t40.5 51q9 -4 16 -8.5t14 -11.5q-24 -45 -62 -73t-80 -28zM501 695q6 -5 9.5 -10t4.5 -13
q-39 -31 -65.5 -54t-49 -45t-50.5 -53q-16 -3 -32 0q-15 32 -27 54.5t-27.5 45.5t-43.5 56q6 12 19 19q41 -22 63 -41t48 -40q21 12 42.5 25t48 27t60.5 29z" />
    <glyph glyph-name="uni01D5" unicode="&#x1d5;" horiz-adv-x="738" 
d="M341 -15q-144 0 -198.5 54t-30.5 166l61 285q8 37 14.5 75.5t12.5 99.5h-72q0 8 2.5 19t5.5 18q34 -1 68 -1.5t68 -0.5q35 0 69 0.5t69 1.5q0 -7 -2.5 -18t-5.5 -19h-72q-15 -46 -25.5 -85.5t-21.5 -89.5l-56 -260q-23 -109 13.5 -153.5t119.5 -44.5q89 0 144 50.5
t74 136.5l58 271q6 30 10 56.5t7 55t5 63.5h-77q0 8 2.5 19t5.5 18q34 -1 65.5 -1.5t50.5 -0.5q17 0 43.5 0.5t61.5 1.5q0 -7 -2.5 -18t-5.5 -19h-67q-13 -35 -22 -62t-16 -53t-14 -60l-61 -285q-22 -103 -96 -161.5t-185 -58.5zM432 909l48 -41l-14 -64l-60 -18l-48 41
l14 64zM651 909l48 -41l-14 -64l-60 -18l-48 41l14 64zM688 940h-280q0 13 4 30t8 30h280q0 -13 -3.5 -30t-8.5 -30z" />
    <glyph glyph-name="uni01D6" unicode="&#x1d6;" horiz-adv-x="561" 
d="M147 -15q-52 0 -74.5 33t-6.5 106l30 136q7 30 11.5 61.5t8.5 81.5h-57q0 8 2.5 19t5.5 18q39 0 83 2.5t92 10.5q-11 -26 -22 -62t-19.5 -71t-14.5 -60l-30 -134q-7 -35 1 -55.5t35 -20.5q29 0 57.5 22.5t54.5 62t47 92t34 111.5h26q-29 -133 -71.5 -210t-92 -110
t-100.5 -33zM396 -15q-43 0 -58.5 30t-5.5 77l53 246q5 26 9.5 51.5t5.5 50.5q26 0 49.5 1t49.5 4q-7 -29 -13 -55t-11 -52l-53 -246q-5 -23 -2.5 -37.5t16.5 -14.5t31.5 15t40.5 51q9 -4 16 -8.5t14 -11.5q-24 -45 -62 -73t-80 -28zM262 669l48 -41l-14 -64l-60 -18l-48 41
l14 64zM463 669l48 -41l-14 -64l-60 -18l-48 41l14 64zM515 725h-280q0 13 4 30t8 30h280q0 -13 -3.5 -30t-8.5 -30z" />
    <glyph glyph-name="uni01D7" unicode="&#x1d7;" horiz-adv-x="738" 
d="M341 -15q-144 0 -198.5 54t-30.5 166l61 285q8 37 14.5 75.5t12.5 99.5h-72q0 8 2.5 19t5.5 18q34 -1 68 -1.5t68 -0.5q35 0 69 0.5t69 1.5q0 -7 -2.5 -18t-5.5 -19h-72q-15 -46 -25.5 -85.5t-21.5 -89.5l-56 -260q-23 -109 13.5 -153.5t119.5 -44.5q89 0 144 50.5
t74 136.5l58 271q6 30 10 56.5t7 55t5 63.5h-77q0 8 2.5 19t5.5 18q34 -1 65.5 -1.5t50.5 -0.5q17 0 43.5 0.5t61.5 1.5q0 -7 -2.5 -18t-5.5 -19h-67q-13 -35 -22 -62t-16 -53t-14 -60l-61 -285q-22 -103 -96 -161.5t-185 -58.5zM432 909l48 -41l-14 -64l-60 -18l-48 41
l14 64zM651 909l48 -41l-14 -64l-60 -18l-48 41l14 64zM744 1080q-24 -38 -61.5 -63.5t-75.5 -46t-67 -45.5q-16 -3 -32 0q35 38 61.5 73.5t49.5 81.5h125z" />
    <glyph glyph-name="uni01D8" unicode="&#x1d8;" horiz-adv-x="561" 
d="M147 -15q-52 0 -74.5 33t-6.5 106l30 136q7 30 11.5 61.5t8.5 81.5h-57q0 8 2.5 19t5.5 18q39 0 83 2.5t92 10.5q-11 -26 -22 -62t-19.5 -71t-14.5 -60l-30 -134q-7 -35 1 -55.5t35 -20.5q29 0 57.5 22.5t54.5 62t47 92t34 111.5h26q-29 -133 -71.5 -210t-92 -110
t-100.5 -33zM396 -15q-43 0 -58.5 30t-5.5 77l53 246q5 26 9.5 51.5t5.5 50.5q26 0 49.5 1t49.5 4q-7 -29 -13 -55t-11 -52l-53 -246q-5 -23 -2.5 -37.5t16.5 -14.5t31.5 15t40.5 51q9 -4 16 -8.5t14 -11.5q-24 -45 -62 -73t-80 -28zM262 669l48 -41l-14 -64l-60 -18l-48 41
l14 64zM463 669l48 -41l-14 -64l-60 -18l-48 41l14 64zM545 875q-19 -34 -51 -61t-65.5 -52.5t-60.5 -56.5q-16 -3 -32 0q35 47 56.5 87t37.5 83h115z" />
    <glyph glyph-name="uni01D9" unicode="&#x1d9;" horiz-adv-x="738" 
d="M341 -15q-144 0 -198.5 54t-30.5 166l61 285q8 37 14.5 75.5t12.5 99.5h-72q0 8 2.5 19t5.5 18q34 -1 68 -1.5t68 -0.5q35 0 69 0.5t69 1.5q0 -7 -2.5 -18t-5.5 -19h-72q-15 -46 -25.5 -85.5t-21.5 -89.5l-56 -260q-23 -109 13.5 -153.5t119.5 -44.5q89 0 144 50.5
t74 136.5l58 271q6 30 10 56.5t7 55t5 63.5h-77q0 8 2.5 19t5.5 18q34 -1 65.5 -1.5t50.5 -0.5q17 0 43.5 0.5t61.5 1.5q0 -7 -2.5 -18t-5.5 -19h-67q-13 -35 -22 -62t-16 -53t-14 -60l-61 -285q-22 -103 -96 -161.5t-185 -58.5zM432 909l48 -41l-14 -64l-60 -18l-48 41
l14 64zM651 909l48 -41l-14 -64l-60 -18l-48 41l14 64zM734 1088q5 -4 9 -9.5t5 -13.5q-37 -23 -62 -39.5t-43.5 -30.5t-36.5 -30.5t-40 -39.5q-16 -3 -32 0q-16 31 -30 51.5t-34 41t-55 51.5q6 13 15 19q33 -12 55.5 -22t41 -21t37.5 -25q27 15 51 26t52 21t67 21z" />
    <glyph glyph-name="uni01DA" unicode="&#x1da;" horiz-adv-x="561" 
d="M147 -15q-52 0 -74.5 33t-6.5 106l30 136q7 30 11.5 61.5t8.5 81.5h-57q0 8 2.5 19t5.5 18q39 0 83 2.5t92 10.5q-11 -26 -22 -62t-19.5 -71t-14.5 -60l-30 -134q-7 -35 1 -55.5t35 -20.5q29 0 57.5 22.5t54.5 62t47 92t34 111.5h26q-29 -133 -71.5 -210t-92 -110
t-100.5 -33zM396 -15q-43 0 -58.5 30t-5.5 77l53 246q5 26 9.5 51.5t5.5 50.5q26 0 49.5 1t49.5 4q-7 -29 -13 -55t-11 -52l-53 -246q-5 -23 -2.5 -37.5t16.5 -14.5t31.5 15t40.5 51q9 -4 16 -8.5t14 -11.5q-24 -45 -62 -73t-80 -28zM262 669l48 -41l-14 -64l-60 -18l-48 41
l14 64zM463 669l48 -41l-14 -64l-60 -18l-48 41l14 64zM541 880q6 -5 9.5 -10t4.5 -13q-39 -31 -65.5 -54t-49 -45t-50.5 -53q-16 -3 -32 0q-15 32 -27 54.5t-27.5 45.5t-43.5 56q6 12 19 19q41 -22 63 -41t48 -40q21 12 42.5 25t48 27t60.5 29z" />
    <glyph glyph-name="uni01DB" unicode="&#x1db;" horiz-adv-x="738" 
d="M341 -15q-144 0 -198.5 54t-30.5 166l61 285q8 37 14.5 75.5t12.5 99.5h-72q0 8 2.5 19t5.5 18q34 -1 68 -1.5t68 -0.5q35 0 69 0.5t69 1.5q0 -7 -2.5 -18t-5.5 -19h-72q-15 -46 -25.5 -85.5t-21.5 -89.5l-56 -260q-23 -109 13.5 -153.5t119.5 -44.5q89 0 144 50.5
t74 136.5l58 271q6 30 10 56.5t7 55t5 63.5h-77q0 8 2.5 19t5.5 18q34 -1 65.5 -1.5t50.5 -0.5q17 0 43.5 0.5t61.5 1.5q0 -7 -2.5 -18t-5.5 -19h-67q-13 -35 -22 -62t-16 -53t-14 -60l-61 -285q-22 -103 -96 -161.5t-185 -58.5zM432 909l48 -41l-14 -64l-60 -18l-48 41
l14 64zM651 909l48 -41l-14 -64l-60 -18l-48 41l14 64zM407 1080h125q4 -46 15 -81.5t30 -73.5q-16 -3 -32 0q-15 25 -41.5 47.5t-53.5 48.5t-43 59z" />
    <glyph glyph-name="uni01DC" unicode="&#x1dc;" horiz-adv-x="561" 
d="M147 -15q-52 0 -74.5 33t-6.5 106l30 136q7 30 11.5 61.5t8.5 81.5h-57q0 8 2.5 19t5.5 18q39 0 83 2.5t92 10.5q-11 -26 -22 -62t-19.5 -71t-14.5 -60l-30 -134q-7 -35 1 -55.5t35 -20.5q29 0 57.5 22.5t54.5 62t47 92t34 111.5h26q-29 -133 -71.5 -210t-92 -110
t-100.5 -33zM396 -15q-43 0 -58.5 30t-5.5 77l53 246q5 26 9.5 51.5t5.5 50.5q26 0 49.5 1t49.5 4q-7 -29 -13 -55t-11 -52l-53 -246q-5 -23 -2.5 -37.5t16.5 -14.5t31.5 15t40.5 51q9 -4 16 -8.5t14 -11.5q-24 -45 -62 -73t-80 -28zM262 669l48 -41l-14 -64l-60 -18l-48 41
l14 64zM463 669l48 -41l-14 -64l-60 -18l-48 41l14 64zM244 874h115q-2 -43 3.5 -83.5t23.5 -86.5q-16 -3 -32 0q-12 31 -32.5 56.5t-42 52.5t-35.5 61z" />
    <glyph glyph-name="Gcaron" unicode="&#x1e6;" horiz-adv-x="763" 
d="M378 -15q-144 0 -223.5 73t-79.5 220q0 99 33 179.5t93.5 138t144 88.5t184.5 31q74 0 131.5 -14t90.5 -31l-37 -175q-16 -3 -32 0q2 95 -44 136.5t-124 41.5q-90 0 -161.5 -47.5t-112.5 -135.5t-41 -212q0 -76 18.5 -132.5t59.5 -87.5t109 -31q38 0 79.5 11t66.5 29
q15 57 24.5 104.5t13.5 93.5h-82q0 8 2.5 19t5.5 18q35 -1 72.5 -1.5t64.5 -0.5q35 0 59 0.5t58 1.5q0 -8 -2.5 -18.5t-5.5 -18.5h-52q-9 -31 -18.5 -64.5t-19 -72.5t-20.5 -88q-49 -23 -113.5 -39t-141.5 -16zM735 933q5 -4 9 -9.5t5 -13.5q-37 -23 -62 -39.5t-43.5 -30.5
t-36.5 -30.5t-40 -39.5q-16 -3 -32 0q-16 31 -30 51.5t-34 41t-55 51.5q6 13 15 19q33 -12 55.5 -22t41 -21t37.5 -25q27 15 51 26t52 21t67 21z" />
    <glyph glyph-name="gcaron" unicode="&#x1e7;" horiz-adv-x="529" 
d="M167 5q-61 0 -95.5 36t-34.5 106q0 57 18.5 112t53 99.5t84.5 70.5t113 26q65 0 102.5 -25t54.5 -61l-45 -56q0 -56 -19 -111t-53 -99.5t-80 -71t-99 -26.5zM207 65q40 0 72 23t55 60.5t35 80.5t12 83q0 50 -18.5 76.5t-53.5 26.5q-37 0 -69 -25t-56 -65.5t-37.5 -85.5
t-13.5 -86q0 -46 21 -67t53 -21zM103 -225q-58 0 -97.5 25t-39.5 75q0 33 16.5 58.5t40.5 44.5t49 32t41 20l20 -18q-43 -25 -64.5 -54.5t-21.5 -68.5q0 -34 18 -54t60 -20q55 0 95.5 32.5t68.5 89t44 127.5l12 52l50 132l1 127l82 65q16 3 32 0q-14 -40 -27.5 -91
t-21.5 -89l-40 -190q-20 -95 -69 -161t-114 -100t-135 -34zM489 695q6 -5 9.5 -10t4.5 -13q-39 -31 -65.5 -54t-49 -45t-50.5 -53q-16 -3 -32 0q-15 32 -27 54.5t-27.5 45.5t-43.5 56q6 12 19 19q41 -22 63 -41t48 -40q21 12 42.5 25t48 27t60.5 29z" />
    <glyph glyph-name="uni01EA" unicode="&#x1ea;" horiz-adv-x="802" 
d="M484 715q87 0 154 -32t105 -98t38 -167q0 -84 -27.5 -161.5t-80 -138.5t-128.5 -97t-173 -36q-87 0 -154 32t-105 98t-38 167q0 84 27.5 161.5t80 138.5t128.5 97t173 36zM373 27q82 0 145.5 51.5t100.5 142t37 206.5q0 71 -16.5 126.5t-54.5 87.5t-102 32
q-81 0 -145 -51.5t-101 -141.5t-37 -207q0 -70 16.5 -126t54.5 -88t102 -32zM346 -225q-35 0 -60 21.5t-25 52.5q0 47 30.5 80t79 55.5t101.5 36.5l14 -21q-64 -20 -100.5 -54.5t-36.5 -75.5q0 -17 11 -28t33 -11q12 0 28 4.5t36 15.5q5 -5 8 -12.5t4 -16.5q-25 -19 -58 -33
t-65 -14z" />
    <glyph glyph-name="uni01EB" unicode="&#x1eb;" horiz-adv-x="521" 
d="M313 415q-42 0 -75.5 -26.5t-56.5 -68t-35 -89t-12 -89.5q0 -57 18 -87t56 -30v-40q-82 0 -126.5 46.5t-44.5 123.5q0 59 20.5 113t58 96t88 66.5t109.5 24.5v-40zM208 25q42 0 75.5 26.5t56.5 68t35 89t12 89.5q0 57 -18 87t-56 30v40q82 0 126.5 -46.5t44.5 -123.5
q0 -59 -20.5 -113t-58 -96t-88 -66.5t-109.5 -24.5v40zM155 -225q-35 0 -60 21.5t-25 52.5q0 47 30.5 80t79 55.5t101.5 36.5l14 -21q-64 -20 -100.5 -54.5t-36.5 -75.5q0 -17 11 -28t33 -11q12 0 28 4.5t36 15.5q5 -5 8 -12.5t4 -16.5q-25 -19 -58 -33t-65 -14z" />
    <glyph glyph-name="Aringacute" unicode="&#x1fa;" horiz-adv-x="653" 
d="M-61 -2q0 8 2.5 19t5.5 18h52q33 45 60.5 86.5t55.5 88.5l186 309q15 25 36 59t43.5 71t41.5 71q11 2 21.5 2.5t20.5 0t19 -2.5l-103 -159l-211 -351q-23 -38 -45 -81t-37 -94h79q0 -7 -2.5 -18t-5.5 -19q-41 2 -73.5 2h-49.5h-39.5t-56.5 -2zM540 35h62q0 -7 -2.5 -18
t-5.5 -19q-34 2 -61.5 2h-59.5h-70.5t-70.5 -2q0 8 2.5 19t5.5 18h69q2 44 2.5 88t-3.5 87l-28 351l103 159q-1 -50 2 -99t9 -121l25 -290q3 -38 7.5 -80t13.5 -95zM435 235h-260l9 40h260zM484 877q41 0 68 -22t27 -56q0 -28 -17 -51t-46 -37t-66 -14q-41 0 -68 22t-27 56
q0 28 17 51t46.5 37t65.5 14zM457 732q22 0 39.5 20.5t17.5 46.5q0 19 -10 31t-27 12q-22 0 -39.5 -20.5t-17.5 -46.5q0 -19 10.5 -31t26.5 -12zM689 1050q-24 -38 -61.5 -63.5t-75.5 -46t-67 -45.5q-16 -3 -32 0q35 38 61.5 73.5t49.5 81.5h125z" />
    <glyph glyph-name="aringacute" unicode="&#x1fb;" horiz-adv-x="550" 
d="M388 -15q-43 0 -59 30t-6 77l17 80l35 69l10 134l82 65q16 3 32 0q-14 -40 -27.5 -91t-21.5 -89l-36 -168q-4 -22 -2.5 -37t16.5 -15q14 0 31.5 15t40.5 51q9 -4 16 -8.5t14 -11.5q-24 -45 -62 -73t-80 -28zM156 -15q-58 0 -89.5 40t-31.5 114q0 56 19 112t54 102t85 74
t113 28q64 0 105 -30t48 -80l-53 -32q0 -56 -19.5 -114t-54 -106.5t-79.5 -78t-97 -29.5zM200 45q36 0 66.5 26t53.5 67.5t36 88.5t13 89q0 45 -14.5 72t-48.5 27t-65.5 -26.5t-56 -68.5t-39 -89.5t-14.5 -88.5q0 -49 18.5 -73t50.5 -24zM361 695q41 0 68 -22t27 -56
q0 -28 -17 -51t-46 -37t-66 -14q-41 0 -68 22t-27 56q0 28 17 51t46.5 37t65.5 14zM334 550q22 0 39.5 20.5t17.5 46.5q0 19 -10 31t-27 12q-22 0 -39.5 -20.5t-17.5 -46.5q0 -19 10.5 -31t26.5 -12zM545 900q-19 -34 -51 -61t-65.5 -52.5t-60.5 -56.5q-16 -3 -32 0
q35 47 56.5 87t37.5 83h115z" />
    </font>
</defs>
</svg>
